%TF.GenerationSoftware,KiCad,Pcbnew,8.0.5*%
%TF.CreationDate,2025-03-03T10:26:28+01:00*%
%TF.ProjectId,picoballoon,7069636f-6261-46c6-9c6f-6f6e2e6b6963,rev?*%
%TF.SameCoordinates,Original*%
%TF.FileFunction,Copper,L2,Inr*%
%TF.FilePolarity,Positive*%
%FSLAX46Y46*%
G04 Gerber Fmt 4.6, Leading zero omitted, Abs format (unit mm)*
G04 Created by KiCad (PCBNEW 8.0.5) date 2025-03-03 10:26:28*
%MOMM*%
%LPD*%
G01*
G04 APERTURE LIST*
%TA.AperFunction,ComponentPad*%
%ADD10R,2.000000X2.000000*%
%TD*%
%TA.AperFunction,ComponentPad*%
%ADD11C,2.000000*%
%TD*%
%TA.AperFunction,HeatsinkPad*%
%ADD12C,0.500000*%
%TD*%
%TA.AperFunction,ComponentPad*%
%ADD13C,2.200000*%
%TD*%
%TA.AperFunction,ComponentPad*%
%ADD14R,1.000000X1.000000*%
%TD*%
%TA.AperFunction,ComponentPad*%
%ADD15O,1.000000X1.000000*%
%TD*%
%TA.AperFunction,ComponentPad*%
%ADD16R,3.500000X3.500000*%
%TD*%
%TA.AperFunction,ComponentPad*%
%ADD17C,3.500000*%
%TD*%
%TA.AperFunction,ViaPad*%
%ADD18C,0.600000*%
%TD*%
G04 APERTURE END LIST*
D10*
%TO.N,Net-(D1-A)*%
%TO.C,SC1*%
X109910000Y-121795000D03*
D11*
%TO.N,GND*%
X109910000Y-119255000D03*
%TD*%
D12*
%TO.N,GND*%
%TO.C,*%
X141920000Y-89850000D03*
%TD*%
%TO.N,GND*%
%TO.C,*%
X142965000Y-89860000D03*
%TD*%
%TO.N,GND*%
%TO.C,*%
X142960000Y-88810000D03*
%TD*%
%TO.N,GND*%
%TO.C,*%
X144010000Y-89850000D03*
%TD*%
D13*
%TO.N,Net-(AE2-A)*%
%TO.C,AE2*%
X157050000Y-91320000D03*
%TO.N,GND*%
X157050000Y-88780000D03*
%TD*%
D14*
%TO.N,+3.3V*%
%TO.C,J1*%
X145590000Y-117730000D03*
D15*
%TO.N,/SWD_DIO*%
X144320000Y-117730000D03*
%TO.N,GND*%
X145590000Y-116460000D03*
%TO.N,/SWD_CLK*%
X144320000Y-116460000D03*
%TO.N,GND*%
X145590000Y-115190000D03*
%TO.N,unconnected-(J1-Pin_6-Pad6)*%
X144320000Y-115190000D03*
%TO.N,unconnected-(J1-Pin_7-Pad7)*%
X145590000Y-113920000D03*
%TO.N,unconnected-(J1-Pin_8-Pad8)*%
X144320000Y-113920000D03*
%TO.N,unconnected-(J1-Pin_9-Pad9)*%
X145590000Y-112650000D03*
%TO.N,/RESET*%
X144320000Y-112650000D03*
%TD*%
D16*
%TO.N,+U_SC1*%
%TO.C,C1*%
X117510000Y-123030000D03*
D17*
%TO.N,GND*%
X122510000Y-123030000D03*
%TD*%
D12*
%TO.N,GND*%
%TO.C,U1*%
X144015000Y-90910000D03*
X144015000Y-88810000D03*
X141915000Y-90910000D03*
X141915000Y-88810000D03*
%TD*%
%TO.N,GND*%
%TO.C,*%
X142960000Y-90910000D03*
%TD*%
D14*
%TO.N,+U_SC*%
%TO.C,J2*%
X127570000Y-119450000D03*
D15*
%TO.N,+U_SC1*%
X126300000Y-119450000D03*
%TD*%
D18*
%TO.N,GND*%
X161000000Y-102500000D03*
X152270000Y-123780000D03*
X132270000Y-98320000D03*
X118500000Y-84750000D03*
X159990000Y-127210000D03*
X107500000Y-89500000D03*
X153530000Y-93900000D03*
X134250000Y-128250000D03*
X152040000Y-101590000D03*
X138330000Y-116160000D03*
X149250000Y-128250000D03*
X154360000Y-94060000D03*
X152800000Y-97430000D03*
X161000000Y-91500000D03*
X128200000Y-99600000D03*
X152660000Y-93970000D03*
X112250000Y-128250000D03*
X149580000Y-96460000D03*
X109580000Y-115300000D03*
X107500000Y-117500000D03*
X140250000Y-128250000D03*
X159420000Y-102000000D03*
X126250000Y-128250000D03*
X108490000Y-94330000D03*
X150150000Y-117460000D03*
X157220000Y-103610000D03*
X140500000Y-84750000D03*
X148500000Y-84750000D03*
X161000000Y-111500000D03*
X131050000Y-96960000D03*
X110250000Y-128250000D03*
X134620000Y-116450000D03*
X149760000Y-100030000D03*
X132500000Y-84750000D03*
X155730000Y-123480000D03*
X157970000Y-96620000D03*
X116750000Y-87250000D03*
X150700000Y-101790000D03*
X150170000Y-115230000D03*
X107500000Y-101500000D03*
X130500000Y-84750000D03*
X158250000Y-128250000D03*
X115460000Y-119870000D03*
X110740000Y-113180000D03*
X152840000Y-91080000D03*
X161000000Y-106500000D03*
X119220000Y-86050000D03*
X154460000Y-96360000D03*
X107500000Y-108500000D03*
X128250000Y-128250000D03*
X145570000Y-108000000D03*
X134440000Y-94180000D03*
X157250000Y-128250000D03*
X126580000Y-99580000D03*
X124140000Y-86010000D03*
X107500000Y-111500000D03*
X135250000Y-128250000D03*
X123580000Y-115230000D03*
X139500000Y-84750000D03*
X157140000Y-117090000D03*
X135540000Y-92380000D03*
X152500000Y-84750000D03*
X124500000Y-84750000D03*
X142250000Y-128250000D03*
X129500000Y-84750000D03*
X129390000Y-91660000D03*
X113250000Y-128250000D03*
X161000000Y-120500000D03*
X130700000Y-92880000D03*
X142550000Y-119670000D03*
X107500000Y-110500000D03*
X136970000Y-101310000D03*
X152829525Y-96645330D03*
X161000000Y-96500000D03*
X142500000Y-84750000D03*
X131430000Y-124667500D03*
X153100000Y-103380000D03*
X157960000Y-95070000D03*
X159600000Y-109880000D03*
X133970000Y-101750000D03*
X115840000Y-100330000D03*
X128500000Y-84750000D03*
X127320000Y-115700000D03*
X145500000Y-84750000D03*
X137620000Y-107690000D03*
X126090000Y-102450000D03*
X108500000Y-84750000D03*
X157960000Y-94280000D03*
X152020000Y-91600000D03*
X116500000Y-84750000D03*
X147660000Y-89840000D03*
X151160000Y-92470000D03*
X113500000Y-84750000D03*
X149000000Y-89000000D03*
X151500000Y-84750000D03*
X142650000Y-110690000D03*
X147730000Y-87360000D03*
X107500000Y-92500000D03*
X137810000Y-104880000D03*
X119500000Y-84750000D03*
X138350000Y-96400000D03*
X118250000Y-128250000D03*
X107500000Y-97500000D03*
X159620000Y-123850000D03*
X112540000Y-89560000D03*
X117370000Y-102940000D03*
X136160000Y-88790000D03*
X161000000Y-105500000D03*
X156990000Y-118140000D03*
X123500000Y-84750000D03*
X129870000Y-99120000D03*
X123250000Y-128250000D03*
X117500000Y-84750000D03*
X157970000Y-97410000D03*
X153660000Y-96580000D03*
X161000000Y-92500000D03*
X132407266Y-117805498D03*
X121500000Y-84750000D03*
X147250000Y-128250000D03*
X158570000Y-92090000D03*
X161000000Y-86500000D03*
X121120000Y-118350000D03*
X126040000Y-104020000D03*
X108940000Y-97470000D03*
X129090000Y-88020000D03*
X144120000Y-126840000D03*
X159820000Y-122220000D03*
X157420000Y-110720000D03*
X125500000Y-84750000D03*
X109070000Y-106660000D03*
X125310000Y-115480000D03*
X151610000Y-88790000D03*
X142130000Y-125480000D03*
X130250000Y-128250000D03*
X146250000Y-128250000D03*
X118070000Y-118980000D03*
X107500000Y-95500000D03*
X159515097Y-99694018D03*
X133500000Y-84750000D03*
X116250000Y-128250000D03*
X147520000Y-126520000D03*
X152380000Y-88890000D03*
X126630000Y-98030000D03*
X107500000Y-123500000D03*
X147690000Y-88980000D03*
X134460000Y-85620000D03*
X140330000Y-104310000D03*
X138250000Y-128250000D03*
X161000000Y-85500000D03*
X108250000Y-128250000D03*
X152130000Y-114960000D03*
X150500000Y-84750000D03*
X108460000Y-123520000D03*
X148550000Y-90630000D03*
X157970000Y-95830000D03*
X155500000Y-84750000D03*
X132250000Y-128250000D03*
X107500000Y-125500000D03*
X127420000Y-127120000D03*
X153250000Y-128250000D03*
X112430000Y-94020000D03*
X112930000Y-85780000D03*
X158150000Y-102370000D03*
X151020000Y-99880000D03*
X156390000Y-100880000D03*
X140140000Y-107840000D03*
X113270000Y-125030000D03*
X158110000Y-92720000D03*
X145250000Y-128250000D03*
X115500000Y-84750000D03*
X137340000Y-119930000D03*
X161000000Y-122500000D03*
X129290000Y-118210000D03*
X144960000Y-92930000D03*
X107500000Y-114500000D03*
X157450000Y-100950000D03*
X111680000Y-89780000D03*
X148230000Y-100030000D03*
X161000000Y-113500000D03*
X107500000Y-103500000D03*
X111250000Y-128250000D03*
X156500000Y-84750000D03*
X107500000Y-88500000D03*
X114600000Y-99260000D03*
X161000000Y-87500000D03*
X157370000Y-124280000D03*
X157930000Y-93470000D03*
X143500000Y-84750000D03*
X136250000Y-128250000D03*
X107500000Y-84750000D03*
X161000000Y-94500000D03*
X107500000Y-104500000D03*
X147730000Y-90620000D03*
X152320000Y-103310000D03*
X152180000Y-110790000D03*
X148030000Y-98730000D03*
X131500000Y-84750000D03*
X154510000Y-97410000D03*
X144300000Y-98670000D03*
X148580000Y-112210000D03*
X121241067Y-87270300D03*
X158060000Y-101580000D03*
X146500000Y-84750000D03*
X157490000Y-99730000D03*
X161000000Y-123500000D03*
X153640000Y-97570000D03*
X156140000Y-96350000D03*
X148640000Y-101760000D03*
X135380000Y-103410000D03*
X150350000Y-103570000D03*
X126500000Y-84750000D03*
X135000000Y-106420000D03*
X129250000Y-128250000D03*
X107500000Y-126500000D03*
X160500000Y-84750000D03*
X161000000Y-118500000D03*
X137500000Y-84750000D03*
X155250000Y-128250000D03*
X125980000Y-107560000D03*
X161000000Y-124500000D03*
X139130000Y-101730000D03*
X134500000Y-84750000D03*
X161000000Y-108500000D03*
X136680000Y-97250000D03*
X156980000Y-100330000D03*
X132990000Y-96280000D03*
X140000000Y-119400000D03*
X161000000Y-115500000D03*
X161000000Y-121500000D03*
X107500000Y-124500000D03*
X113120000Y-87470000D03*
X150450000Y-98310000D03*
X125250000Y-128250000D03*
X112690000Y-90850000D03*
X158500000Y-84750000D03*
X161000000Y-109500000D03*
X125580000Y-124710000D03*
X151090000Y-126150000D03*
X157990000Y-98220000D03*
X126020000Y-105540000D03*
X135150000Y-121400000D03*
X107500000Y-127500000D03*
X161000000Y-88500000D03*
X134700000Y-118990000D03*
X143250000Y-128250000D03*
X128240000Y-98040000D03*
X107500000Y-87500000D03*
X134160000Y-108240000D03*
X161000000Y-117500000D03*
X111810000Y-114630000D03*
X138500000Y-84750000D03*
X153400000Y-86280000D03*
X107500000Y-93500000D03*
X125950000Y-94860000D03*
X125480000Y-126970000D03*
X150110000Y-110740000D03*
X133910000Y-89290000D03*
X152040000Y-102480000D03*
X147500000Y-84750000D03*
X107500000Y-99500000D03*
X161000000Y-100500000D03*
X149400000Y-98570000D03*
X153000000Y-89450000D03*
X161000000Y-112500000D03*
X121250000Y-128250000D03*
X152030000Y-100750000D03*
X148560000Y-114080000D03*
X156170000Y-97940000D03*
X107500000Y-106500000D03*
X137250000Y-128250000D03*
X108960000Y-102170000D03*
X107500000Y-121500000D03*
X111710000Y-97280000D03*
X129830000Y-94870000D03*
X113400000Y-106270000D03*
X152250000Y-128250000D03*
X144500000Y-84750000D03*
X150250000Y-128250000D03*
X142130000Y-122750000D03*
X138140000Y-115130000D03*
X138420000Y-112040000D03*
X137660000Y-127120000D03*
X125610000Y-122040000D03*
X157920000Y-99010000D03*
X113420000Y-101930000D03*
X129140000Y-115170000D03*
X150680000Y-88940000D03*
X120250000Y-128250000D03*
X161000000Y-101500000D03*
X135660000Y-96450000D03*
X141500000Y-84750000D03*
X154860000Y-95610000D03*
X153500000Y-84750000D03*
X107500000Y-112500000D03*
X112080000Y-91330000D03*
X149260000Y-123840000D03*
X161000000Y-103500000D03*
X124250000Y-128250000D03*
X143200000Y-109670000D03*
X156380000Y-86240000D03*
X148450000Y-121070000D03*
X136530000Y-113430000D03*
X161000000Y-90500000D03*
X132380000Y-120000000D03*
X145150000Y-96420000D03*
X109262939Y-128237369D03*
X132320000Y-127220000D03*
X152190000Y-116700000D03*
X143160000Y-99480000D03*
X127440000Y-113010000D03*
X112500000Y-84750000D03*
X159470000Y-94280000D03*
X110500000Y-84750000D03*
X114990000Y-86350000D03*
X157500000Y-84750000D03*
X107500000Y-105500000D03*
X161000000Y-95500000D03*
X153120000Y-106600000D03*
X107500000Y-119500000D03*
X154790000Y-94760000D03*
X115650000Y-111190000D03*
X107500000Y-91500000D03*
X151160000Y-93240000D03*
X107500000Y-98500000D03*
X151250000Y-128250000D03*
X154380000Y-88700000D03*
X107500000Y-113500000D03*
X161000000Y-110500000D03*
X107500000Y-86500000D03*
X107500000Y-94500000D03*
X159500000Y-84750000D03*
X114250000Y-128250000D03*
X155330000Y-97370000D03*
X107500000Y-120500000D03*
X139760000Y-127090000D03*
X150380000Y-97490000D03*
X127500000Y-84750000D03*
X154250000Y-128250000D03*
X135360000Y-124667500D03*
X161000000Y-99500000D03*
X119250000Y-111580000D03*
X107500000Y-102500000D03*
X121250000Y-111960000D03*
X161000000Y-89500000D03*
X122500000Y-84750000D03*
X111500000Y-84750000D03*
X161000000Y-97500000D03*
X155620000Y-103340000D03*
X161000000Y-119500000D03*
X107500000Y-116500000D03*
X156390000Y-103500000D03*
X119250000Y-128250000D03*
X147710000Y-88160000D03*
X141250000Y-128250000D03*
X161000000Y-125500000D03*
X123220000Y-126930000D03*
X136500000Y-84750000D03*
X111690000Y-116730000D03*
X151200000Y-91690000D03*
X136090000Y-86180000D03*
X157510000Y-127180000D03*
X145490000Y-123860000D03*
X161000000Y-127500000D03*
X151960000Y-99940000D03*
X159815960Y-119121151D03*
X107500000Y-100500000D03*
X117250000Y-128250000D03*
X153980000Y-103340000D03*
X134320000Y-113280000D03*
X161000000Y-126500000D03*
X125770000Y-87600000D03*
X161000000Y-93500000D03*
X146080000Y-99210000D03*
X161000000Y-114500000D03*
X135110000Y-87240000D03*
X114480000Y-126840000D03*
X157870000Y-103150000D03*
X135350000Y-95150000D03*
X134960000Y-127120000D03*
X159690000Y-107430000D03*
X159520000Y-111690000D03*
X107500000Y-109500000D03*
X156130000Y-95530000D03*
X129350000Y-93090000D03*
X129710000Y-127160000D03*
X156150000Y-97150000D03*
X108890000Y-110850000D03*
X107500000Y-122500000D03*
X159820000Y-116760000D03*
X156160000Y-94740000D03*
X141210000Y-119730000D03*
X115250000Y-128250000D03*
X150420000Y-87270000D03*
X108900000Y-113120000D03*
X154740000Y-103370000D03*
X113460000Y-110370000D03*
X149500000Y-84750000D03*
X127860000Y-94870000D03*
X107500000Y-96500000D03*
X107500000Y-118500000D03*
X155760000Y-92480000D03*
X133250000Y-128250000D03*
X150440000Y-112990000D03*
X107500000Y-90500000D03*
X159600000Y-96940000D03*
X107500000Y-85500000D03*
X156160000Y-93190000D03*
X159350000Y-89300000D03*
X151100000Y-94060000D03*
X139250000Y-128250000D03*
X128600000Y-86220000D03*
X156250000Y-128250000D03*
X159600000Y-114010000D03*
X150500000Y-99140000D03*
X149820000Y-88940000D03*
X154480000Y-100130000D03*
X154250000Y-91730000D03*
X150320000Y-96710000D03*
X142310000Y-97590000D03*
X123640000Y-118250000D03*
X122250000Y-128250000D03*
X136510000Y-112180000D03*
X114830000Y-108300000D03*
X148720000Y-89790000D03*
X161000000Y-107500000D03*
X142050000Y-127000000D03*
X135500000Y-84750000D03*
X144250000Y-128250000D03*
X153110000Y-90350000D03*
X161000000Y-104500000D03*
X159560000Y-104510000D03*
X151880000Y-94100000D03*
X107500000Y-107500000D03*
X120170000Y-126490000D03*
X148330000Y-103780000D03*
X131610000Y-95000000D03*
X159250000Y-128250000D03*
X161000000Y-116500000D03*
X107500000Y-115500000D03*
X160250000Y-128250000D03*
X133550000Y-104420000D03*
X154500000Y-84750000D03*
X109500000Y-84750000D03*
X156170000Y-93950000D03*
X116960000Y-126140000D03*
X148250000Y-128250000D03*
X161000000Y-98500000D03*
X152170000Y-112840000D03*
X114500000Y-84750000D03*
X131250000Y-128250000D03*
X120500000Y-84750000D03*
X114550000Y-103820000D03*
X127250000Y-128250000D03*
%TO.N,+3.3V*%
X147910000Y-86200000D03*
X158080000Y-122080000D03*
X121810000Y-107560000D03*
X144780000Y-100170000D03*
X158180000Y-107500000D03*
X144040000Y-86260000D03*
X137060000Y-91150000D03*
X152290000Y-117650000D03*
X126110003Y-93260003D03*
X137170000Y-93960000D03*
X121820000Y-109510000D03*
X150370000Y-121120000D03*
X121900000Y-102410000D03*
X148000000Y-107250000D03*
X129840000Y-103140000D03*
X157417500Y-113872500D03*
X121670000Y-99490000D03*
X146900000Y-121650000D03*
X152155000Y-113816826D03*
X148210000Y-119110000D03*
X131020000Y-110920000D03*
X138345000Y-88945000D03*
X138440000Y-112910000D03*
X113550000Y-112965000D03*
X147580000Y-110570000D03*
X137420000Y-121887500D03*
X110690000Y-110890000D03*
%TO.N,/MISO*%
X138540000Y-90820000D03*
X134900000Y-90290000D03*
%TO.N,/MOSI*%
X139910000Y-95480000D03*
X135130000Y-93530000D03*
%TO.N,/SCLK*%
X139560000Y-89690000D03*
X133850000Y-87980000D03*
X140820000Y-92650000D03*
%TO.N,/SWD_DIO*%
X137240000Y-117819978D03*
X137250000Y-114340000D03*
%TD*%
%TA.AperFunction,Conductor*%
%TO.N,GND*%
G36*
X161512539Y-84079685D02*
G01*
X161558294Y-84132489D01*
X161569500Y-84184000D01*
X161569500Y-128685500D01*
X161549815Y-128752539D01*
X161497011Y-128798294D01*
X161445500Y-128809500D01*
X107094500Y-128809500D01*
X107027461Y-128789815D01*
X106981706Y-128737011D01*
X106970500Y-128685500D01*
X106970500Y-125887648D01*
X108739500Y-125887648D01*
X108739500Y-126092352D01*
X108743878Y-126119995D01*
X108771522Y-126294534D01*
X108834781Y-126489223D01*
X108927715Y-126671613D01*
X109048028Y-126837213D01*
X109192786Y-126981971D01*
X109311854Y-127068477D01*
X109358390Y-127102287D01*
X109474607Y-127161503D01*
X109540776Y-127195218D01*
X109540778Y-127195218D01*
X109540781Y-127195220D01*
X109645137Y-127229127D01*
X109735465Y-127258477D01*
X109836557Y-127274488D01*
X109937648Y-127290500D01*
X109937649Y-127290500D01*
X110142351Y-127290500D01*
X110142352Y-127290500D01*
X110344534Y-127258477D01*
X110539219Y-127195220D01*
X110721610Y-127102287D01*
X110814590Y-127034732D01*
X110887213Y-126981971D01*
X110887215Y-126981968D01*
X110887219Y-126981966D01*
X111031966Y-126837219D01*
X111031968Y-126837215D01*
X111031971Y-126837213D01*
X111084732Y-126764590D01*
X111152287Y-126671610D01*
X111245220Y-126489219D01*
X111308477Y-126294534D01*
X111340500Y-126092352D01*
X111340500Y-125887648D01*
X111310407Y-125697648D01*
X157529500Y-125697648D01*
X157529500Y-125902351D01*
X157561522Y-126104534D01*
X157624781Y-126299223D01*
X157717715Y-126481613D01*
X157838028Y-126647213D01*
X157982786Y-126791971D01*
X158137749Y-126904556D01*
X158148390Y-126912287D01*
X158264607Y-126971503D01*
X158330776Y-127005218D01*
X158330778Y-127005218D01*
X158330781Y-127005220D01*
X158435137Y-127039127D01*
X158525465Y-127068477D01*
X158626557Y-127084488D01*
X158727648Y-127100500D01*
X158727649Y-127100500D01*
X158932351Y-127100500D01*
X158932352Y-127100500D01*
X159134534Y-127068477D01*
X159329219Y-127005220D01*
X159511610Y-126912287D01*
X159614941Y-126837213D01*
X159677213Y-126791971D01*
X159677215Y-126791968D01*
X159677219Y-126791966D01*
X159821966Y-126647219D01*
X159821968Y-126647215D01*
X159821971Y-126647213D01*
X159874732Y-126574590D01*
X159942287Y-126481610D01*
X160035220Y-126299219D01*
X160098477Y-126104534D01*
X160130500Y-125902352D01*
X160130500Y-125697648D01*
X160098477Y-125495466D01*
X160035220Y-125300781D01*
X160035218Y-125300778D01*
X160035218Y-125300776D01*
X160001503Y-125234607D01*
X159942287Y-125118390D01*
X159934556Y-125107749D01*
X159821971Y-124952786D01*
X159677213Y-124808028D01*
X159511613Y-124687715D01*
X159511612Y-124687714D01*
X159511610Y-124687713D01*
X159454653Y-124658691D01*
X159329223Y-124594781D01*
X159134534Y-124531522D01*
X158959995Y-124503878D01*
X158932352Y-124499500D01*
X158727648Y-124499500D01*
X158703329Y-124503351D01*
X158525465Y-124531522D01*
X158330776Y-124594781D01*
X158148386Y-124687715D01*
X157982786Y-124808028D01*
X157838028Y-124952786D01*
X157717715Y-125118386D01*
X157624781Y-125300776D01*
X157561522Y-125495465D01*
X157529500Y-125697648D01*
X111310407Y-125697648D01*
X111308477Y-125685465D01*
X111245218Y-125490776D01*
X111211503Y-125424607D01*
X111152287Y-125308390D01*
X111121153Y-125265537D01*
X111031971Y-125142786D01*
X110887213Y-124998028D01*
X110721613Y-124877715D01*
X110721612Y-124877714D01*
X110721610Y-124877713D01*
X110664653Y-124848691D01*
X110539223Y-124784781D01*
X110344534Y-124721522D01*
X110169995Y-124693878D01*
X110142352Y-124689500D01*
X109937648Y-124689500D01*
X109913329Y-124693351D01*
X109735465Y-124721522D01*
X109540776Y-124784781D01*
X109358386Y-124877715D01*
X109192786Y-124998028D01*
X109048028Y-125142786D01*
X108927715Y-125308386D01*
X108834781Y-125490776D01*
X108771522Y-125685465D01*
X108739500Y-125887648D01*
X106970500Y-125887648D01*
X106970500Y-119254994D01*
X108404859Y-119254994D01*
X108404859Y-119255005D01*
X108425385Y-119502729D01*
X108425387Y-119502738D01*
X108486412Y-119743717D01*
X108586266Y-119971364D01*
X108686564Y-120124882D01*
X109427037Y-119384409D01*
X109444075Y-119447993D01*
X109509901Y-119562007D01*
X109602993Y-119655099D01*
X109717007Y-119720925D01*
X109780590Y-119737962D01*
X109034024Y-120484527D01*
X109023469Y-120530947D01*
X108973602Y-120579886D01*
X108915200Y-120594500D01*
X108890247Y-120594500D01*
X108831770Y-120606131D01*
X108831769Y-120606132D01*
X108765447Y-120650447D01*
X108721132Y-120716769D01*
X108721131Y-120716770D01*
X108709500Y-120775247D01*
X108709500Y-122814752D01*
X108721131Y-122873229D01*
X108721132Y-122873230D01*
X108765447Y-122939552D01*
X108831769Y-122983867D01*
X108831770Y-122983868D01*
X108890247Y-122995499D01*
X108890250Y-122995500D01*
X108890252Y-122995500D01*
X110929750Y-122995500D01*
X110929751Y-122995499D01*
X110944568Y-122992552D01*
X110988229Y-122983868D01*
X110988229Y-122983867D01*
X110988231Y-122983867D01*
X111054552Y-122939552D01*
X111098867Y-122873231D01*
X111098867Y-122873229D01*
X111098868Y-122873229D01*
X111110499Y-122814752D01*
X111110500Y-122814750D01*
X111110500Y-121260247D01*
X115559500Y-121260247D01*
X115559500Y-124799752D01*
X115571131Y-124858229D01*
X115571132Y-124858230D01*
X115615447Y-124924552D01*
X115681769Y-124968867D01*
X115681770Y-124968868D01*
X115740247Y-124980499D01*
X115740250Y-124980500D01*
X115740252Y-124980500D01*
X119279750Y-124980500D01*
X119279751Y-124980499D01*
X119294568Y-124977552D01*
X119338229Y-124968868D01*
X119338229Y-124968867D01*
X119338231Y-124968867D01*
X119404552Y-124924552D01*
X119448867Y-124858231D01*
X119448867Y-124858229D01*
X119448868Y-124858229D01*
X119460499Y-124799752D01*
X119460500Y-124799750D01*
X119460500Y-123030000D01*
X120255172Y-123030000D01*
X120274462Y-123324312D01*
X120274464Y-123324324D01*
X120332001Y-123613584D01*
X120332005Y-123613599D01*
X120426812Y-123892888D01*
X120557258Y-124157406D01*
X120557265Y-124157419D01*
X120721123Y-124402649D01*
X120750405Y-124436040D01*
X122027037Y-123159408D01*
X122044075Y-123222993D01*
X122109901Y-123337007D01*
X122202993Y-123430099D01*
X122317007Y-123495925D01*
X122380590Y-123512962D01*
X121103958Y-124789593D01*
X121137350Y-124818876D01*
X121382580Y-124982734D01*
X121382593Y-124982741D01*
X121647111Y-125113187D01*
X121926400Y-125207994D01*
X121926415Y-125207998D01*
X122215675Y-125265535D01*
X122215687Y-125265537D01*
X122510000Y-125284827D01*
X122804312Y-125265537D01*
X122804324Y-125265535D01*
X123093584Y-125207998D01*
X123093599Y-125207994D01*
X123372888Y-125113187D01*
X123637406Y-124982741D01*
X123637419Y-124982734D01*
X123882648Y-124818877D01*
X123916039Y-124789593D01*
X122639410Y-123512962D01*
X122702993Y-123495925D01*
X122817007Y-123430099D01*
X122910099Y-123337007D01*
X122975925Y-123222993D01*
X122992962Y-123159409D01*
X124269593Y-124436039D01*
X124298877Y-124402648D01*
X124462734Y-124157419D01*
X124462741Y-124157406D01*
X124593187Y-123892888D01*
X124687994Y-123613599D01*
X124687998Y-123613584D01*
X124745535Y-123324324D01*
X124745537Y-123324312D01*
X124764827Y-123030000D01*
X124745537Y-122735687D01*
X124745535Y-122735675D01*
X124687998Y-122446415D01*
X124687994Y-122446400D01*
X124593187Y-122167111D01*
X124462741Y-121902593D01*
X124462734Y-121902580D01*
X124452658Y-121887500D01*
X136914353Y-121887500D01*
X136934834Y-122029956D01*
X136935833Y-122032143D01*
X136994623Y-122160873D01*
X137088872Y-122269643D01*
X137209947Y-122347453D01*
X137209950Y-122347454D01*
X137209949Y-122347454D01*
X137348036Y-122387999D01*
X137348038Y-122388000D01*
X137348039Y-122388000D01*
X137491962Y-122388000D01*
X137491962Y-122387999D01*
X137630053Y-122347453D01*
X137751128Y-122269643D01*
X137845377Y-122160873D01*
X137905165Y-122029957D01*
X137925647Y-121887500D01*
X137905165Y-121745043D01*
X137861760Y-121650000D01*
X146394353Y-121650000D01*
X146414834Y-121792456D01*
X146458240Y-121887500D01*
X146474623Y-121923373D01*
X146568872Y-122032143D01*
X146689947Y-122109953D01*
X146689950Y-122109954D01*
X146689949Y-122109954D01*
X146828036Y-122150499D01*
X146828038Y-122150500D01*
X146828039Y-122150500D01*
X146971962Y-122150500D01*
X146971962Y-122150499D01*
X147110053Y-122109953D01*
X147156661Y-122080000D01*
X157574353Y-122080000D01*
X157594834Y-122222456D01*
X157616384Y-122269643D01*
X157654623Y-122353373D01*
X157748872Y-122462143D01*
X157869947Y-122539953D01*
X157869950Y-122539954D01*
X157869949Y-122539954D01*
X158008036Y-122580499D01*
X158008038Y-122580500D01*
X158008039Y-122580500D01*
X158151962Y-122580500D01*
X158151962Y-122580499D01*
X158290053Y-122539953D01*
X158411128Y-122462143D01*
X158505377Y-122353373D01*
X158565165Y-122222457D01*
X158585647Y-122080000D01*
X158565165Y-121937543D01*
X158505377Y-121806627D01*
X158411128Y-121697857D01*
X158290053Y-121620047D01*
X158290051Y-121620046D01*
X158290049Y-121620045D01*
X158290050Y-121620045D01*
X158151963Y-121579500D01*
X158151961Y-121579500D01*
X158008039Y-121579500D01*
X158008036Y-121579500D01*
X157869949Y-121620045D01*
X157748873Y-121697856D01*
X157654623Y-121806626D01*
X157654622Y-121806628D01*
X157594834Y-121937543D01*
X157574353Y-122080000D01*
X147156661Y-122080000D01*
X147231128Y-122032143D01*
X147325377Y-121923373D01*
X147385165Y-121792457D01*
X147405647Y-121650000D01*
X147385165Y-121507543D01*
X147325377Y-121376627D01*
X147231128Y-121267857D01*
X147110053Y-121190047D01*
X147110051Y-121190046D01*
X147110049Y-121190045D01*
X147110050Y-121190045D01*
X146971963Y-121149500D01*
X146971961Y-121149500D01*
X146828039Y-121149500D01*
X146828036Y-121149500D01*
X146689949Y-121190045D01*
X146568873Y-121267856D01*
X146474623Y-121376626D01*
X146474622Y-121376628D01*
X146414834Y-121507543D01*
X146394353Y-121650000D01*
X137861760Y-121650000D01*
X137845377Y-121614127D01*
X137751128Y-121505357D01*
X137630053Y-121427547D01*
X137630051Y-121427546D01*
X137630049Y-121427545D01*
X137630050Y-121427545D01*
X137491963Y-121387000D01*
X137491961Y-121387000D01*
X137348039Y-121387000D01*
X137348036Y-121387000D01*
X137209949Y-121427545D01*
X137088873Y-121505356D01*
X136994623Y-121614126D01*
X136994622Y-121614128D01*
X136934834Y-121745043D01*
X136914353Y-121887500D01*
X124452658Y-121887500D01*
X124298876Y-121657350D01*
X124269593Y-121623958D01*
X122992962Y-122900589D01*
X122975925Y-122837007D01*
X122910099Y-122722993D01*
X122817007Y-122629901D01*
X122702993Y-122564075D01*
X122639409Y-122547037D01*
X123916040Y-121270405D01*
X123882649Y-121241123D01*
X123701376Y-121120000D01*
X149864353Y-121120000D01*
X149884834Y-121262456D01*
X149944622Y-121393371D01*
X149944623Y-121393373D01*
X150038872Y-121502143D01*
X150159947Y-121579953D01*
X150159950Y-121579954D01*
X150159949Y-121579954D01*
X150267107Y-121611417D01*
X150296496Y-121620047D01*
X150298036Y-121620499D01*
X150298038Y-121620500D01*
X150298039Y-121620500D01*
X150441962Y-121620500D01*
X150441962Y-121620499D01*
X150580053Y-121579953D01*
X150701128Y-121502143D01*
X150795377Y-121393373D01*
X150855165Y-121262457D01*
X150875647Y-121120000D01*
X150855165Y-120977543D01*
X150795377Y-120846627D01*
X150701128Y-120737857D01*
X150580053Y-120660047D01*
X150580051Y-120660046D01*
X150580049Y-120660045D01*
X150580050Y-120660045D01*
X150441963Y-120619500D01*
X150441961Y-120619500D01*
X150298039Y-120619500D01*
X150298036Y-120619500D01*
X150159949Y-120660045D01*
X150038873Y-120737856D01*
X149944623Y-120846626D01*
X149944622Y-120846628D01*
X149884834Y-120977543D01*
X149864353Y-121120000D01*
X123701376Y-121120000D01*
X123637419Y-121077265D01*
X123637406Y-121077258D01*
X123372888Y-120946812D01*
X123093599Y-120852005D01*
X123093584Y-120852001D01*
X122804324Y-120794464D01*
X122804312Y-120794462D01*
X122510000Y-120775172D01*
X122215687Y-120794462D01*
X122215675Y-120794464D01*
X121926415Y-120852001D01*
X121926400Y-120852005D01*
X121647111Y-120946812D01*
X121382593Y-121077258D01*
X121382580Y-121077265D01*
X121137346Y-121241126D01*
X121137339Y-121241131D01*
X121103959Y-121270403D01*
X121103959Y-121270405D01*
X122380591Y-122547037D01*
X122317007Y-122564075D01*
X122202993Y-122629901D01*
X122109901Y-122722993D01*
X122044075Y-122837007D01*
X122027037Y-122900591D01*
X120750405Y-121623959D01*
X120750403Y-121623959D01*
X120721131Y-121657339D01*
X120721126Y-121657346D01*
X120557265Y-121902580D01*
X120557258Y-121902593D01*
X120426812Y-122167111D01*
X120332005Y-122446400D01*
X120332001Y-122446415D01*
X120274464Y-122735675D01*
X120274462Y-122735687D01*
X120255172Y-123030000D01*
X119460500Y-123030000D01*
X119460500Y-121260249D01*
X119460499Y-121260247D01*
X119448868Y-121201770D01*
X119448867Y-121201769D01*
X119404552Y-121135447D01*
X119338230Y-121091132D01*
X119338229Y-121091131D01*
X119279752Y-121079500D01*
X119279748Y-121079500D01*
X115740252Y-121079500D01*
X115740247Y-121079500D01*
X115681770Y-121091131D01*
X115681769Y-121091132D01*
X115615447Y-121135447D01*
X115571132Y-121201769D01*
X115571131Y-121201770D01*
X115559500Y-121260247D01*
X111110500Y-121260247D01*
X111110500Y-120775249D01*
X111110499Y-120775247D01*
X111098868Y-120716770D01*
X111098867Y-120716769D01*
X111054552Y-120650447D01*
X110988230Y-120606132D01*
X110988229Y-120606131D01*
X110929752Y-120594500D01*
X110929748Y-120594500D01*
X110904799Y-120594500D01*
X110837760Y-120574815D01*
X110792005Y-120522011D01*
X110784851Y-120483404D01*
X110039409Y-119737962D01*
X110102993Y-119720925D01*
X110217007Y-119655099D01*
X110310099Y-119562007D01*
X110375925Y-119447993D01*
X110392962Y-119384410D01*
X111133434Y-120124882D01*
X111233731Y-119971369D01*
X111333587Y-119743717D01*
X111394612Y-119502738D01*
X111394614Y-119502729D01*
X111398983Y-119450000D01*
X125594355Y-119450000D01*
X125614859Y-119618869D01*
X125614860Y-119618874D01*
X125675182Y-119777931D01*
X125730500Y-119858071D01*
X125771817Y-119917929D01*
X125832133Y-119971364D01*
X125899150Y-120030736D01*
X126049773Y-120109789D01*
X126049775Y-120109790D01*
X126214944Y-120150500D01*
X126385056Y-120150500D01*
X126550225Y-120109790D01*
X126668641Y-120047640D01*
X126700849Y-120030736D01*
X126700850Y-120030734D01*
X126700852Y-120030734D01*
X126708771Y-120023717D01*
X126772001Y-119993995D01*
X126841265Y-120003175D01*
X126894102Y-120047640D01*
X126925447Y-120094552D01*
X126991769Y-120138867D01*
X126991770Y-120138868D01*
X127050247Y-120150499D01*
X127050250Y-120150500D01*
X127050252Y-120150500D01*
X128089750Y-120150500D01*
X128089751Y-120150499D01*
X128104568Y-120147552D01*
X128148229Y-120138868D01*
X128148229Y-120138867D01*
X128148231Y-120138867D01*
X128214552Y-120094552D01*
X128258867Y-120028231D01*
X128258867Y-120028229D01*
X128258868Y-120028229D01*
X128267552Y-119984568D01*
X128270500Y-119969748D01*
X128270500Y-119110000D01*
X147704353Y-119110000D01*
X147724834Y-119252456D01*
X147756058Y-119320826D01*
X147784623Y-119383373D01*
X147878872Y-119492143D01*
X147999947Y-119569953D01*
X147999950Y-119569954D01*
X147999949Y-119569954D01*
X148138036Y-119610499D01*
X148138038Y-119610500D01*
X148138039Y-119610500D01*
X148281962Y-119610500D01*
X148281962Y-119610499D01*
X148420053Y-119569953D01*
X148541128Y-119492143D01*
X148635377Y-119383373D01*
X148695165Y-119252457D01*
X148715647Y-119110000D01*
X148695165Y-118967543D01*
X148635377Y-118836627D01*
X148541128Y-118727857D01*
X148420053Y-118650047D01*
X148420051Y-118650046D01*
X148420049Y-118650045D01*
X148420050Y-118650045D01*
X148281963Y-118609500D01*
X148281961Y-118609500D01*
X148138039Y-118609500D01*
X148138036Y-118609500D01*
X147999949Y-118650045D01*
X147878873Y-118727856D01*
X147784623Y-118836626D01*
X147784622Y-118836628D01*
X147724834Y-118967543D01*
X147704353Y-119110000D01*
X128270500Y-119110000D01*
X128270500Y-118930252D01*
X128270500Y-118930249D01*
X128270499Y-118930247D01*
X128258868Y-118871770D01*
X128258867Y-118871769D01*
X128214552Y-118805447D01*
X128148230Y-118761132D01*
X128148229Y-118761131D01*
X128089752Y-118749500D01*
X128089748Y-118749500D01*
X127050252Y-118749500D01*
X127050247Y-118749500D01*
X126991770Y-118761131D01*
X126991769Y-118761132D01*
X126925448Y-118805446D01*
X126894102Y-118852360D01*
X126840489Y-118897164D01*
X126771164Y-118905871D01*
X126708773Y-118876283D01*
X126700852Y-118869266D01*
X126700850Y-118869264D01*
X126550226Y-118790210D01*
X126385056Y-118749500D01*
X126214944Y-118749500D01*
X126049773Y-118790210D01*
X125899150Y-118869263D01*
X125771816Y-118982072D01*
X125675182Y-119122068D01*
X125614860Y-119281125D01*
X125614859Y-119281130D01*
X125594355Y-119450000D01*
X111398983Y-119450000D01*
X111415141Y-119255005D01*
X111415141Y-119254994D01*
X111394614Y-119007270D01*
X111394612Y-119007261D01*
X111333587Y-118766282D01*
X111233731Y-118538630D01*
X111133434Y-118385116D01*
X110392962Y-119125589D01*
X110375925Y-119062007D01*
X110310099Y-118947993D01*
X110217007Y-118854901D01*
X110102993Y-118789075D01*
X110039410Y-118772037D01*
X110780057Y-118031390D01*
X110780056Y-118031389D01*
X110733229Y-117994943D01*
X110514614Y-117876635D01*
X110514603Y-117876630D01*
X110349583Y-117819978D01*
X136734353Y-117819978D01*
X136754834Y-117962434D01*
X136798447Y-118057931D01*
X136814623Y-118093351D01*
X136908872Y-118202121D01*
X137029947Y-118279931D01*
X137029950Y-118279932D01*
X137029949Y-118279932D01*
X137168036Y-118320477D01*
X137168038Y-118320478D01*
X137168039Y-118320478D01*
X137311962Y-118320478D01*
X137311962Y-118320477D01*
X137450053Y-118279931D01*
X137571128Y-118202121D01*
X137665377Y-118093351D01*
X137725165Y-117962435D01*
X137745647Y-117819978D01*
X137725165Y-117677521D01*
X137665377Y-117546605D01*
X137571128Y-117437835D01*
X137450053Y-117360025D01*
X137450051Y-117360024D01*
X137450049Y-117360023D01*
X137450050Y-117360023D01*
X137311963Y-117319478D01*
X137311961Y-117319478D01*
X137168039Y-117319478D01*
X137168036Y-117319478D01*
X137029949Y-117360023D01*
X136908873Y-117437834D01*
X136814623Y-117546604D01*
X136814622Y-117546606D01*
X136754834Y-117677521D01*
X136734353Y-117819978D01*
X110349583Y-117819978D01*
X110279493Y-117795916D01*
X110034293Y-117755000D01*
X109785707Y-117755000D01*
X109540506Y-117795916D01*
X109305396Y-117876630D01*
X109305390Y-117876632D01*
X109086761Y-117994949D01*
X109039942Y-118031388D01*
X109039942Y-118031390D01*
X109780590Y-118772037D01*
X109717007Y-118789075D01*
X109602993Y-118854901D01*
X109509901Y-118947993D01*
X109444075Y-119062007D01*
X109427037Y-119125589D01*
X108686564Y-118385116D01*
X108586267Y-118538632D01*
X108486412Y-118766282D01*
X108425387Y-119007261D01*
X108425385Y-119007270D01*
X108404859Y-119254994D01*
X106970500Y-119254994D01*
X106970500Y-114340000D01*
X136744353Y-114340000D01*
X136764834Y-114482456D01*
X136809286Y-114579790D01*
X136824623Y-114613373D01*
X136918872Y-114722143D01*
X137039947Y-114799953D01*
X137039950Y-114799954D01*
X137039949Y-114799954D01*
X137178036Y-114840499D01*
X137178038Y-114840500D01*
X137178039Y-114840500D01*
X137321962Y-114840500D01*
X137321962Y-114840499D01*
X137429121Y-114809035D01*
X137460050Y-114799954D01*
X137460050Y-114799953D01*
X137460053Y-114799953D01*
X137581128Y-114722143D01*
X137675377Y-114613373D01*
X137735165Y-114482457D01*
X137755647Y-114340000D01*
X137735165Y-114197543D01*
X137675377Y-114066627D01*
X137581128Y-113957857D01*
X137460053Y-113880047D01*
X137460051Y-113880046D01*
X137460049Y-113880045D01*
X137460050Y-113880045D01*
X137321963Y-113839500D01*
X137321961Y-113839500D01*
X137178039Y-113839500D01*
X137178036Y-113839500D01*
X137039949Y-113880045D01*
X136918873Y-113957856D01*
X136824623Y-114066626D01*
X136824622Y-114066628D01*
X136764834Y-114197543D01*
X136744353Y-114340000D01*
X106970500Y-114340000D01*
X106970500Y-112965000D01*
X113044353Y-112965000D01*
X113064834Y-113107456D01*
X113099504Y-113183371D01*
X113124623Y-113238373D01*
X113218872Y-113347143D01*
X113339947Y-113424953D01*
X113339950Y-113424954D01*
X113339949Y-113424954D01*
X113478036Y-113465499D01*
X113478038Y-113465500D01*
X113478039Y-113465500D01*
X113621962Y-113465500D01*
X113621962Y-113465499D01*
X113760053Y-113424953D01*
X113881128Y-113347143D01*
X113975377Y-113238373D01*
X114035165Y-113107457D01*
X114055647Y-112965000D01*
X114047739Y-112910000D01*
X137934353Y-112910000D01*
X137954834Y-113052456D01*
X137979952Y-113107456D01*
X138014623Y-113183373D01*
X138108872Y-113292143D01*
X138229947Y-113369953D01*
X138229950Y-113369954D01*
X138229949Y-113369954D01*
X138368036Y-113410499D01*
X138368038Y-113410500D01*
X138368039Y-113410500D01*
X138511962Y-113410500D01*
X138511962Y-113410499D01*
X138623277Y-113377815D01*
X138650050Y-113369954D01*
X138650050Y-113369953D01*
X138650053Y-113369953D01*
X138771128Y-113292143D01*
X138865377Y-113183373D01*
X138925165Y-113052457D01*
X138945647Y-112910000D01*
X138925165Y-112767543D01*
X138871484Y-112650000D01*
X143614355Y-112650000D01*
X143634859Y-112818869D01*
X143634860Y-112818874D01*
X143695182Y-112977931D01*
X143791818Y-113117930D01*
X143875634Y-113192185D01*
X143912761Y-113251374D01*
X143911993Y-113321240D01*
X143875634Y-113377815D01*
X143791818Y-113452069D01*
X143695182Y-113592068D01*
X143634860Y-113751125D01*
X143634859Y-113751130D01*
X143614355Y-113920000D01*
X143634859Y-114088869D01*
X143634860Y-114088874D01*
X143695182Y-114247931D01*
X143743082Y-114317325D01*
X143781511Y-114372999D01*
X143791818Y-114387930D01*
X143875634Y-114462185D01*
X143912761Y-114521374D01*
X143911993Y-114591240D01*
X143875634Y-114647815D01*
X143791818Y-114722069D01*
X143695182Y-114862068D01*
X143634860Y-115021125D01*
X143634859Y-115021130D01*
X143614355Y-115190000D01*
X143634859Y-115358869D01*
X143634860Y-115358874D01*
X143695182Y-115517931D01*
X143791818Y-115657930D01*
X143875634Y-115732185D01*
X143912761Y-115791374D01*
X143911993Y-115861240D01*
X143875634Y-115917815D01*
X143791818Y-115992069D01*
X143695182Y-116132068D01*
X143634860Y-116291125D01*
X143634859Y-116291130D01*
X143614355Y-116460000D01*
X143634859Y-116628869D01*
X143634860Y-116628874D01*
X143695182Y-116787931D01*
X143791818Y-116927930D01*
X143875634Y-117002185D01*
X143912761Y-117061374D01*
X143911993Y-117131240D01*
X143875634Y-117187815D01*
X143791818Y-117262069D01*
X143695182Y-117402068D01*
X143634860Y-117561125D01*
X143634859Y-117561130D01*
X143614355Y-117730000D01*
X143634859Y-117898869D01*
X143634860Y-117898874D01*
X143695182Y-118057931D01*
X143731091Y-118109953D01*
X143791817Y-118197929D01*
X143884380Y-118279932D01*
X143919150Y-118310736D01*
X144069773Y-118389789D01*
X144069775Y-118389790D01*
X144234944Y-118430500D01*
X144405056Y-118430500D01*
X144570225Y-118389790D01*
X144702287Y-118320478D01*
X144720849Y-118310736D01*
X144720850Y-118310734D01*
X144720852Y-118310734D01*
X144728771Y-118303717D01*
X144792001Y-118273995D01*
X144861265Y-118283175D01*
X144914102Y-118327640D01*
X144945447Y-118374552D01*
X145011769Y-118418867D01*
X145011770Y-118418868D01*
X145070247Y-118430499D01*
X145070250Y-118430500D01*
X145070252Y-118430500D01*
X146109750Y-118430500D01*
X146109751Y-118430499D01*
X146124568Y-118427552D01*
X146168229Y-118418868D01*
X146168229Y-118418867D01*
X146168231Y-118418867D01*
X146234552Y-118374552D01*
X146278867Y-118308231D01*
X146278867Y-118308229D01*
X146278868Y-118308229D01*
X146290499Y-118249752D01*
X146290500Y-118249750D01*
X146290500Y-117650000D01*
X151784353Y-117650000D01*
X151804834Y-117792456D01*
X151864622Y-117923371D01*
X151864623Y-117923373D01*
X151958872Y-118032143D01*
X152079947Y-118109953D01*
X152079950Y-118109954D01*
X152079949Y-118109954D01*
X152218036Y-118150499D01*
X152218038Y-118150500D01*
X152218039Y-118150500D01*
X152361962Y-118150500D01*
X152361962Y-118150499D01*
X152500053Y-118109953D01*
X152621128Y-118032143D01*
X152715377Y-117923373D01*
X152775165Y-117792457D01*
X152795647Y-117650000D01*
X152775165Y-117507543D01*
X152715377Y-117376627D01*
X152621128Y-117267857D01*
X152500053Y-117190047D01*
X152500051Y-117190046D01*
X152500049Y-117190045D01*
X152500050Y-117190045D01*
X152361963Y-117149500D01*
X152361961Y-117149500D01*
X152218039Y-117149500D01*
X152218036Y-117149500D01*
X152079949Y-117190045D01*
X151958873Y-117267856D01*
X151864623Y-117376626D01*
X151864622Y-117376628D01*
X151804834Y-117507543D01*
X151784353Y-117650000D01*
X146290500Y-117650000D01*
X146290500Y-117227115D01*
X146310185Y-117160076D01*
X146318647Y-117148450D01*
X146425492Y-117018260D01*
X146425496Y-117018253D01*
X146518347Y-116844541D01*
X146559160Y-116710000D01*
X145799618Y-116710000D01*
X145850064Y-116659554D01*
X145892851Y-116585445D01*
X145915000Y-116502787D01*
X145915000Y-116417213D01*
X145892851Y-116334555D01*
X145850064Y-116260446D01*
X145799618Y-116210000D01*
X145840000Y-116210000D01*
X146559160Y-116210000D01*
X146559160Y-116209999D01*
X146518347Y-116075458D01*
X146425497Y-115901747D01*
X146422111Y-115896680D01*
X146423665Y-115895641D01*
X146399759Y-115839361D01*
X146411547Y-115770493D01*
X146422441Y-115753540D01*
X146422111Y-115753320D01*
X146425497Y-115748252D01*
X146518347Y-115574541D01*
X146559160Y-115440000D01*
X145840000Y-115440000D01*
X145840000Y-116210000D01*
X145799618Y-116210000D01*
X145789554Y-116199936D01*
X145715445Y-116157149D01*
X145632787Y-116135000D01*
X145547213Y-116135000D01*
X145464555Y-116157149D01*
X145390446Y-116199936D01*
X145340000Y-116250382D01*
X145340000Y-115399618D01*
X145390446Y-115450064D01*
X145464555Y-115492851D01*
X145547213Y-115515000D01*
X145632787Y-115515000D01*
X145715445Y-115492851D01*
X145789554Y-115450064D01*
X145850064Y-115389554D01*
X145892851Y-115315445D01*
X145915000Y-115232787D01*
X145915000Y-115147213D01*
X145892851Y-115064555D01*
X145850064Y-114990446D01*
X145799618Y-114940000D01*
X146559160Y-114940000D01*
X146559160Y-114939999D01*
X146518347Y-114805458D01*
X146425496Y-114631746D01*
X146425492Y-114631739D01*
X146300528Y-114479471D01*
X146231990Y-114423223D01*
X146192656Y-114365477D01*
X146190785Y-114295632D01*
X146208607Y-114256928D01*
X146214817Y-114247931D01*
X146214816Y-114247931D01*
X146214818Y-114247930D01*
X146275140Y-114088872D01*
X146295645Y-113920000D01*
X146283117Y-113816826D01*
X151649353Y-113816826D01*
X151669834Y-113959282D01*
X151718857Y-114066626D01*
X151729623Y-114090199D01*
X151823872Y-114198969D01*
X151944947Y-114276779D01*
X151944950Y-114276780D01*
X151944949Y-114276780D01*
X152083036Y-114317325D01*
X152083038Y-114317326D01*
X152083039Y-114317326D01*
X152226962Y-114317326D01*
X152226962Y-114317325D01*
X152365053Y-114276779D01*
X152486128Y-114198969D01*
X152580377Y-114090199D01*
X152640165Y-113959283D01*
X152652642Y-113872500D01*
X156911853Y-113872500D01*
X156932334Y-114014956D01*
X156966090Y-114088869D01*
X156992123Y-114145873D01*
X157086372Y-114254643D01*
X157207447Y-114332453D01*
X157207450Y-114332454D01*
X157207449Y-114332454D01*
X157345536Y-114372999D01*
X157345538Y-114373000D01*
X157345539Y-114373000D01*
X157489462Y-114373000D01*
X157489462Y-114372999D01*
X157627553Y-114332453D01*
X157748628Y-114254643D01*
X157842877Y-114145873D01*
X157902665Y-114014957D01*
X157923147Y-113872500D01*
X157902665Y-113730043D01*
X157842877Y-113599127D01*
X157748628Y-113490357D01*
X157627553Y-113412547D01*
X157627551Y-113412546D01*
X157627549Y-113412545D01*
X157627550Y-113412545D01*
X157489463Y-113372000D01*
X157489461Y-113372000D01*
X157345539Y-113372000D01*
X157345536Y-113372000D01*
X157207449Y-113412545D01*
X157086373Y-113490356D01*
X156992123Y-113599126D01*
X156992122Y-113599128D01*
X156932334Y-113730043D01*
X156911853Y-113872500D01*
X152652642Y-113872500D01*
X152660647Y-113816826D01*
X152640165Y-113674369D01*
X152580377Y-113543453D01*
X152486128Y-113434683D01*
X152365053Y-113356873D01*
X152365051Y-113356872D01*
X152365049Y-113356871D01*
X152365050Y-113356871D01*
X152226963Y-113316326D01*
X152226961Y-113316326D01*
X152083039Y-113316326D01*
X152083036Y-113316326D01*
X151944949Y-113356871D01*
X151823873Y-113434682D01*
X151729623Y-113543452D01*
X151729622Y-113543454D01*
X151669834Y-113674369D01*
X151649353Y-113816826D01*
X146283117Y-113816826D01*
X146275140Y-113751128D01*
X146214818Y-113592070D01*
X146118183Y-113452071D01*
X146034363Y-113377813D01*
X145997238Y-113318626D01*
X145998006Y-113248761D01*
X146034363Y-113192186D01*
X146118183Y-113117929D01*
X146214818Y-112977930D01*
X146275140Y-112818872D01*
X146295645Y-112650000D01*
X146275140Y-112481128D01*
X146214818Y-112322070D01*
X146118183Y-112182071D01*
X145990852Y-112069266D01*
X145990849Y-112069263D01*
X145840226Y-111990210D01*
X145675056Y-111949500D01*
X145504944Y-111949500D01*
X145339773Y-111990210D01*
X145189150Y-112069263D01*
X145061815Y-112182072D01*
X145057049Y-112188978D01*
X145002766Y-112232968D01*
X144933317Y-112240627D01*
X144870753Y-112209523D01*
X144852951Y-112188978D01*
X144848184Y-112182072D01*
X144720849Y-112069263D01*
X144570226Y-111990210D01*
X144405056Y-111949500D01*
X144234944Y-111949500D01*
X144069773Y-111990210D01*
X143919150Y-112069263D01*
X143791816Y-112182072D01*
X143695182Y-112322068D01*
X143634860Y-112481125D01*
X143634859Y-112481130D01*
X143614355Y-112650000D01*
X138871484Y-112650000D01*
X138865377Y-112636627D01*
X138771128Y-112527857D01*
X138650053Y-112450047D01*
X138650051Y-112450046D01*
X138650049Y-112450045D01*
X138650050Y-112450045D01*
X138511963Y-112409500D01*
X138511961Y-112409500D01*
X138368039Y-112409500D01*
X138368036Y-112409500D01*
X138229949Y-112450045D01*
X138108873Y-112527856D01*
X138014623Y-112636626D01*
X138014622Y-112636628D01*
X137954834Y-112767543D01*
X137934353Y-112910000D01*
X114047739Y-112910000D01*
X114035165Y-112822543D01*
X113975377Y-112691627D01*
X113881128Y-112582857D01*
X113760053Y-112505047D01*
X113760051Y-112505046D01*
X113760049Y-112505045D01*
X113760050Y-112505045D01*
X113621963Y-112464500D01*
X113621961Y-112464500D01*
X113478039Y-112464500D01*
X113478036Y-112464500D01*
X113339949Y-112505045D01*
X113218873Y-112582856D01*
X113124623Y-112691626D01*
X113124622Y-112691628D01*
X113064834Y-112822543D01*
X113044353Y-112965000D01*
X106970500Y-112965000D01*
X106970500Y-110890000D01*
X110184353Y-110890000D01*
X110204834Y-111032456D01*
X110264622Y-111163371D01*
X110264623Y-111163373D01*
X110358872Y-111272143D01*
X110479947Y-111349953D01*
X110479950Y-111349954D01*
X110479949Y-111349954D01*
X110618036Y-111390499D01*
X110618038Y-111390500D01*
X110618039Y-111390500D01*
X110761962Y-111390500D01*
X110761962Y-111390499D01*
X110900053Y-111349953D01*
X111021128Y-111272143D01*
X111115377Y-111163373D01*
X111175165Y-111032457D01*
X111191334Y-110920000D01*
X130514353Y-110920000D01*
X130534834Y-111062456D01*
X130538508Y-111070500D01*
X130594623Y-111193373D01*
X130688872Y-111302143D01*
X130809947Y-111379953D01*
X130809950Y-111379954D01*
X130809949Y-111379954D01*
X130948036Y-111420499D01*
X130948038Y-111420500D01*
X130948039Y-111420500D01*
X131091962Y-111420500D01*
X131091962Y-111420499D01*
X131230053Y-111379953D01*
X131351128Y-111302143D01*
X131445377Y-111193373D01*
X131505165Y-111062457D01*
X131525647Y-110920000D01*
X131505165Y-110777543D01*
X131445377Y-110646627D01*
X131378980Y-110570000D01*
X147074353Y-110570000D01*
X147094834Y-110712456D01*
X147110858Y-110747543D01*
X147154623Y-110843373D01*
X147248872Y-110952143D01*
X147369947Y-111029953D01*
X147369950Y-111029954D01*
X147369949Y-111029954D01*
X147508036Y-111070499D01*
X147508038Y-111070500D01*
X147508039Y-111070500D01*
X147651962Y-111070500D01*
X147651962Y-111070499D01*
X147781525Y-111032457D01*
X147790050Y-111029954D01*
X147790050Y-111029953D01*
X147790053Y-111029953D01*
X147911128Y-110952143D01*
X148005377Y-110843373D01*
X148065165Y-110712457D01*
X148085647Y-110570000D01*
X148065165Y-110427543D01*
X148005377Y-110296627D01*
X147911128Y-110187857D01*
X147790053Y-110110047D01*
X147790051Y-110110046D01*
X147790049Y-110110045D01*
X147790050Y-110110045D01*
X147651963Y-110069500D01*
X147651961Y-110069500D01*
X147508039Y-110069500D01*
X147508036Y-110069500D01*
X147369949Y-110110045D01*
X147248873Y-110187856D01*
X147154623Y-110296626D01*
X147154622Y-110296628D01*
X147094834Y-110427543D01*
X147074353Y-110570000D01*
X131378980Y-110570000D01*
X131351128Y-110537857D01*
X131230053Y-110460047D01*
X131230051Y-110460046D01*
X131230049Y-110460045D01*
X131230050Y-110460045D01*
X131091963Y-110419500D01*
X131091961Y-110419500D01*
X130948039Y-110419500D01*
X130948036Y-110419500D01*
X130809949Y-110460045D01*
X130688873Y-110537856D01*
X130594623Y-110646626D01*
X130594622Y-110646628D01*
X130534834Y-110777543D01*
X130514353Y-110920000D01*
X111191334Y-110920000D01*
X111195647Y-110890000D01*
X111175165Y-110747543D01*
X111115377Y-110616627D01*
X111021128Y-110507857D01*
X110900053Y-110430047D01*
X110900051Y-110430046D01*
X110900049Y-110430045D01*
X110900050Y-110430045D01*
X110761963Y-110389500D01*
X110761961Y-110389500D01*
X110618039Y-110389500D01*
X110618036Y-110389500D01*
X110479949Y-110430045D01*
X110358873Y-110507856D01*
X110264623Y-110616626D01*
X110264622Y-110616628D01*
X110204834Y-110747543D01*
X110184353Y-110890000D01*
X106970500Y-110890000D01*
X106970500Y-109510000D01*
X121314353Y-109510000D01*
X121334834Y-109652456D01*
X121394622Y-109783371D01*
X121394623Y-109783373D01*
X121488872Y-109892143D01*
X121609947Y-109969953D01*
X121609950Y-109969954D01*
X121609949Y-109969954D01*
X121748036Y-110010499D01*
X121748038Y-110010500D01*
X121748039Y-110010500D01*
X121891962Y-110010500D01*
X121891962Y-110010499D01*
X122030053Y-109969953D01*
X122151128Y-109892143D01*
X122245377Y-109783373D01*
X122305165Y-109652457D01*
X122325647Y-109510000D01*
X122305165Y-109367543D01*
X122245377Y-109236627D01*
X122151128Y-109127857D01*
X122030053Y-109050047D01*
X122030051Y-109050046D01*
X122030049Y-109050045D01*
X122030050Y-109050045D01*
X121891963Y-109009500D01*
X121891961Y-109009500D01*
X121748039Y-109009500D01*
X121748036Y-109009500D01*
X121609949Y-109050045D01*
X121488873Y-109127856D01*
X121394623Y-109236626D01*
X121394622Y-109236628D01*
X121334834Y-109367543D01*
X121314353Y-109510000D01*
X106970500Y-109510000D01*
X106970500Y-107560000D01*
X121304353Y-107560000D01*
X121324834Y-107702456D01*
X121384622Y-107833371D01*
X121384623Y-107833373D01*
X121478872Y-107942143D01*
X121599947Y-108019953D01*
X121599950Y-108019954D01*
X121599949Y-108019954D01*
X121738036Y-108060499D01*
X121738038Y-108060500D01*
X121738039Y-108060500D01*
X121881962Y-108060500D01*
X121881962Y-108060499D01*
X122020053Y-108019953D01*
X122141128Y-107942143D01*
X122235377Y-107833373D01*
X122295165Y-107702457D01*
X122315647Y-107560000D01*
X122295165Y-107417543D01*
X122235377Y-107286627D01*
X122203640Y-107250000D01*
X147494353Y-107250000D01*
X147514834Y-107392456D01*
X147563949Y-107500000D01*
X147574623Y-107523373D01*
X147668872Y-107632143D01*
X147789947Y-107709953D01*
X147789950Y-107709954D01*
X147789949Y-107709954D01*
X147928036Y-107750499D01*
X147928038Y-107750500D01*
X147928039Y-107750500D01*
X148071962Y-107750500D01*
X148071962Y-107750499D01*
X148210053Y-107709953D01*
X148331128Y-107632143D01*
X148425377Y-107523373D01*
X148436051Y-107500000D01*
X157674353Y-107500000D01*
X157694834Y-107642456D01*
X157725660Y-107709954D01*
X157754623Y-107773373D01*
X157848872Y-107882143D01*
X157969947Y-107959953D01*
X157969950Y-107959954D01*
X157969949Y-107959954D01*
X158108036Y-108000499D01*
X158108038Y-108000500D01*
X158108039Y-108000500D01*
X158251962Y-108000500D01*
X158251962Y-108000499D01*
X158390053Y-107959953D01*
X158511128Y-107882143D01*
X158605377Y-107773373D01*
X158665165Y-107642457D01*
X158685647Y-107500000D01*
X158665165Y-107357543D01*
X158605377Y-107226627D01*
X158511128Y-107117857D01*
X158390053Y-107040047D01*
X158390051Y-107040046D01*
X158390049Y-107040045D01*
X158390050Y-107040045D01*
X158251963Y-106999500D01*
X158251961Y-106999500D01*
X158108039Y-106999500D01*
X158108036Y-106999500D01*
X157969949Y-107040045D01*
X157848873Y-107117856D01*
X157754623Y-107226626D01*
X157754622Y-107226628D01*
X157694834Y-107357543D01*
X157674353Y-107500000D01*
X148436051Y-107500000D01*
X148485165Y-107392457D01*
X148505647Y-107250000D01*
X148485165Y-107107543D01*
X148425377Y-106976627D01*
X148331128Y-106867857D01*
X148210053Y-106790047D01*
X148210051Y-106790046D01*
X148210049Y-106790045D01*
X148210050Y-106790045D01*
X148071963Y-106749500D01*
X148071961Y-106749500D01*
X147928039Y-106749500D01*
X147928036Y-106749500D01*
X147789949Y-106790045D01*
X147668873Y-106867856D01*
X147574623Y-106976626D01*
X147574622Y-106976628D01*
X147514834Y-107107543D01*
X147494353Y-107250000D01*
X122203640Y-107250000D01*
X122141128Y-107177857D01*
X122020053Y-107100047D01*
X122020051Y-107100046D01*
X122020049Y-107100045D01*
X122020050Y-107100045D01*
X121881963Y-107059500D01*
X121881961Y-107059500D01*
X121738039Y-107059500D01*
X121738036Y-107059500D01*
X121599949Y-107100045D01*
X121478873Y-107177856D01*
X121384623Y-107286626D01*
X121384622Y-107286628D01*
X121324834Y-107417543D01*
X121304353Y-107560000D01*
X106970500Y-107560000D01*
X106970500Y-103140000D01*
X129334353Y-103140000D01*
X129354834Y-103282456D01*
X129414622Y-103413371D01*
X129414623Y-103413373D01*
X129508872Y-103522143D01*
X129629947Y-103599953D01*
X129629950Y-103599954D01*
X129629949Y-103599954D01*
X129768036Y-103640499D01*
X129768038Y-103640500D01*
X129768039Y-103640500D01*
X129911962Y-103640500D01*
X129911962Y-103640499D01*
X130050053Y-103599953D01*
X130171128Y-103522143D01*
X130265377Y-103413373D01*
X130325165Y-103282457D01*
X130345647Y-103140000D01*
X130325165Y-102997543D01*
X130265377Y-102866627D01*
X130171128Y-102757857D01*
X130050053Y-102680047D01*
X130050051Y-102680046D01*
X130050049Y-102680045D01*
X130050050Y-102680045D01*
X129911963Y-102639500D01*
X129911961Y-102639500D01*
X129768039Y-102639500D01*
X129768036Y-102639500D01*
X129629949Y-102680045D01*
X129508873Y-102757856D01*
X129414623Y-102866626D01*
X129414622Y-102866628D01*
X129354834Y-102997543D01*
X129334353Y-103140000D01*
X106970500Y-103140000D01*
X106970500Y-102410000D01*
X121394353Y-102410000D01*
X121414834Y-102552456D01*
X121473103Y-102680045D01*
X121474623Y-102683373D01*
X121568872Y-102792143D01*
X121689947Y-102869953D01*
X121689950Y-102869954D01*
X121689949Y-102869954D01*
X121828036Y-102910499D01*
X121828038Y-102910500D01*
X121828039Y-102910500D01*
X121971962Y-102910500D01*
X121971962Y-102910499D01*
X122110053Y-102869953D01*
X122231128Y-102792143D01*
X122325377Y-102683373D01*
X122385165Y-102552457D01*
X122405647Y-102410000D01*
X122385165Y-102267543D01*
X122325377Y-102136627D01*
X122231128Y-102027857D01*
X122110053Y-101950047D01*
X122110051Y-101950046D01*
X122110049Y-101950045D01*
X122110050Y-101950045D01*
X121971963Y-101909500D01*
X121971961Y-101909500D01*
X121828039Y-101909500D01*
X121828036Y-101909500D01*
X121689949Y-101950045D01*
X121568873Y-102027856D01*
X121474623Y-102136626D01*
X121474622Y-102136628D01*
X121414834Y-102267543D01*
X121394353Y-102410000D01*
X106970500Y-102410000D01*
X106970500Y-100170000D01*
X144274353Y-100170000D01*
X144294834Y-100312456D01*
X144354622Y-100443371D01*
X144354623Y-100443373D01*
X144448872Y-100552143D01*
X144569947Y-100629953D01*
X144569950Y-100629954D01*
X144569949Y-100629954D01*
X144708036Y-100670499D01*
X144708038Y-100670500D01*
X144708039Y-100670500D01*
X144851962Y-100670500D01*
X144851962Y-100670499D01*
X144990053Y-100629953D01*
X145111128Y-100552143D01*
X145205377Y-100443373D01*
X145265165Y-100312457D01*
X145285647Y-100170000D01*
X145265165Y-100027543D01*
X145205377Y-99896627D01*
X145111128Y-99787857D01*
X144990053Y-99710047D01*
X144990051Y-99710046D01*
X144990049Y-99710045D01*
X144990050Y-99710045D01*
X144851963Y-99669500D01*
X144851961Y-99669500D01*
X144708039Y-99669500D01*
X144708036Y-99669500D01*
X144569949Y-99710045D01*
X144448873Y-99787856D01*
X144354623Y-99896626D01*
X144354622Y-99896628D01*
X144294834Y-100027543D01*
X144274353Y-100170000D01*
X106970500Y-100170000D01*
X106970500Y-99490000D01*
X121164353Y-99490000D01*
X121184834Y-99632456D01*
X121244622Y-99763371D01*
X121244623Y-99763373D01*
X121338872Y-99872143D01*
X121459947Y-99949953D01*
X121459950Y-99949954D01*
X121459949Y-99949954D01*
X121598036Y-99990499D01*
X121598038Y-99990500D01*
X121598039Y-99990500D01*
X121741962Y-99990500D01*
X121741962Y-99990499D01*
X121880053Y-99949953D01*
X122001128Y-99872143D01*
X122095377Y-99763373D01*
X122155165Y-99632457D01*
X122175647Y-99490000D01*
X122155165Y-99347543D01*
X122095377Y-99216627D01*
X122001128Y-99107857D01*
X121880053Y-99030047D01*
X121880051Y-99030046D01*
X121880049Y-99030045D01*
X121880050Y-99030045D01*
X121741963Y-98989500D01*
X121741961Y-98989500D01*
X121598039Y-98989500D01*
X121598036Y-98989500D01*
X121459949Y-99030045D01*
X121338873Y-99107856D01*
X121244623Y-99216626D01*
X121244622Y-99216628D01*
X121184834Y-99347543D01*
X121164353Y-99490000D01*
X106970500Y-99490000D01*
X106970500Y-95480000D01*
X139404353Y-95480000D01*
X139424834Y-95622456D01*
X139484622Y-95753371D01*
X139484623Y-95753373D01*
X139578872Y-95862143D01*
X139699947Y-95939953D01*
X139699950Y-95939954D01*
X139699949Y-95939954D01*
X139838036Y-95980499D01*
X139838038Y-95980500D01*
X139838039Y-95980500D01*
X139981962Y-95980500D01*
X139981962Y-95980499D01*
X140120053Y-95939953D01*
X140241128Y-95862143D01*
X140335377Y-95753373D01*
X140395165Y-95622457D01*
X140415647Y-95480000D01*
X140395165Y-95337543D01*
X140335377Y-95206627D01*
X140241128Y-95097857D01*
X140120053Y-95020047D01*
X140120051Y-95020046D01*
X140120049Y-95020045D01*
X140120050Y-95020045D01*
X139981963Y-94979500D01*
X139981961Y-94979500D01*
X139838039Y-94979500D01*
X139838036Y-94979500D01*
X139699949Y-95020045D01*
X139578873Y-95097856D01*
X139484623Y-95206626D01*
X139484622Y-95206628D01*
X139424834Y-95337543D01*
X139404353Y-95480000D01*
X106970500Y-95480000D01*
X106970500Y-93260003D01*
X125604356Y-93260003D01*
X125624837Y-93402459D01*
X125669404Y-93500045D01*
X125684626Y-93533376D01*
X125778875Y-93642146D01*
X125899950Y-93719956D01*
X125899953Y-93719957D01*
X125899952Y-93719957D01*
X126038039Y-93760502D01*
X126038041Y-93760503D01*
X126038042Y-93760503D01*
X126181965Y-93760503D01*
X126181965Y-93760502D01*
X126320056Y-93719956D01*
X126441131Y-93642146D01*
X126535380Y-93533376D01*
X126536922Y-93530000D01*
X134624353Y-93530000D01*
X134644834Y-93672456D01*
X134704622Y-93803371D01*
X134704623Y-93803373D01*
X134798872Y-93912143D01*
X134919947Y-93989953D01*
X134919950Y-93989954D01*
X134919949Y-93989954D01*
X135058036Y-94030499D01*
X135058038Y-94030500D01*
X135058039Y-94030500D01*
X135201962Y-94030500D01*
X135201962Y-94030499D01*
X135340053Y-93989953D01*
X135386661Y-93960000D01*
X136664353Y-93960000D01*
X136684834Y-94102456D01*
X136744622Y-94233371D01*
X136744623Y-94233373D01*
X136838872Y-94342143D01*
X136959947Y-94419953D01*
X136959950Y-94419954D01*
X136959949Y-94419954D01*
X137098036Y-94460499D01*
X137098038Y-94460500D01*
X137098039Y-94460500D01*
X137241962Y-94460500D01*
X137241962Y-94460499D01*
X137380053Y-94419953D01*
X137501128Y-94342143D01*
X137595377Y-94233373D01*
X137655165Y-94102457D01*
X137675647Y-93960000D01*
X137655165Y-93817543D01*
X137595377Y-93686627D01*
X137501128Y-93577857D01*
X137380053Y-93500047D01*
X137380051Y-93500046D01*
X137380049Y-93500045D01*
X137380050Y-93500045D01*
X137241963Y-93459500D01*
X137241961Y-93459500D01*
X137098039Y-93459500D01*
X137098036Y-93459500D01*
X136959949Y-93500045D01*
X136838873Y-93577856D01*
X136744623Y-93686626D01*
X136744622Y-93686628D01*
X136684834Y-93817543D01*
X136664353Y-93960000D01*
X135386661Y-93960000D01*
X135461128Y-93912143D01*
X135555377Y-93803373D01*
X135615165Y-93672457D01*
X135635647Y-93530000D01*
X135615165Y-93387543D01*
X135555377Y-93256627D01*
X135461128Y-93147857D01*
X135340053Y-93070047D01*
X135340051Y-93070046D01*
X135340049Y-93070045D01*
X135340050Y-93070045D01*
X135201963Y-93029500D01*
X135201961Y-93029500D01*
X135058039Y-93029500D01*
X135058036Y-93029500D01*
X134919949Y-93070045D01*
X134798873Y-93147856D01*
X134704623Y-93256626D01*
X134704622Y-93256628D01*
X134644834Y-93387543D01*
X134624353Y-93530000D01*
X126536922Y-93530000D01*
X126595168Y-93402460D01*
X126615650Y-93260003D01*
X126595168Y-93117546D01*
X126535380Y-92986630D01*
X126441131Y-92877860D01*
X126320056Y-92800050D01*
X126320054Y-92800049D01*
X126320052Y-92800048D01*
X126320053Y-92800048D01*
X126181966Y-92759503D01*
X126181964Y-92759503D01*
X126038042Y-92759503D01*
X126038039Y-92759503D01*
X125899952Y-92800048D01*
X125778876Y-92877859D01*
X125684626Y-92986629D01*
X125684625Y-92986631D01*
X125624837Y-93117546D01*
X125604356Y-93260003D01*
X106970500Y-93260003D01*
X106970500Y-92650000D01*
X140314353Y-92650000D01*
X140334834Y-92792456D01*
X140394622Y-92923371D01*
X140394623Y-92923373D01*
X140488872Y-93032143D01*
X140609947Y-93109953D01*
X140609950Y-93109954D01*
X140609949Y-93109954D01*
X140717107Y-93141417D01*
X140739034Y-93147856D01*
X140748036Y-93150499D01*
X140748038Y-93150500D01*
X140748039Y-93150500D01*
X140891962Y-93150500D01*
X140891962Y-93150499D01*
X141030053Y-93109953D01*
X141151128Y-93032143D01*
X141245377Y-92923373D01*
X141305165Y-92792457D01*
X141325647Y-92650000D01*
X141305165Y-92507543D01*
X141245377Y-92376627D01*
X141151128Y-92267857D01*
X141030053Y-92190047D01*
X141030051Y-92190046D01*
X141030049Y-92190045D01*
X141030050Y-92190045D01*
X140891963Y-92149500D01*
X140891961Y-92149500D01*
X140748039Y-92149500D01*
X140748036Y-92149500D01*
X140609949Y-92190045D01*
X140488873Y-92267856D01*
X140394623Y-92376626D01*
X140394622Y-92376628D01*
X140334834Y-92507543D01*
X140314353Y-92650000D01*
X106970500Y-92650000D01*
X106970500Y-91150000D01*
X136554353Y-91150000D01*
X136574834Y-91292456D01*
X136587414Y-91320001D01*
X136634623Y-91423373D01*
X136728872Y-91532143D01*
X136849947Y-91609953D01*
X136849950Y-91609954D01*
X136849949Y-91609954D01*
X136988036Y-91650499D01*
X136988038Y-91650500D01*
X136988039Y-91650500D01*
X137131962Y-91650500D01*
X137131962Y-91650499D01*
X137270053Y-91609953D01*
X137300687Y-91590266D01*
X141588285Y-91590266D01*
X141747056Y-91645824D01*
X141914996Y-91664746D01*
X141915004Y-91664746D01*
X142082943Y-91645824D01*
X142241713Y-91590267D01*
X142241714Y-91590266D01*
X142633285Y-91590266D01*
X142792056Y-91645824D01*
X142959996Y-91664746D01*
X142960004Y-91664746D01*
X143127943Y-91645824D01*
X143286713Y-91590267D01*
X143286714Y-91590266D01*
X143688285Y-91590266D01*
X143847056Y-91645824D01*
X144014996Y-91664746D01*
X144015004Y-91664746D01*
X144182943Y-91645824D01*
X144341713Y-91590267D01*
X144341714Y-91590266D01*
X144015001Y-91263553D01*
X144015000Y-91263553D01*
X143688285Y-91590266D01*
X143286714Y-91590266D01*
X142960001Y-91263553D01*
X142960000Y-91263553D01*
X142633285Y-91590266D01*
X142241714Y-91590266D01*
X141915001Y-91263553D01*
X141915000Y-91263553D01*
X141588285Y-91590266D01*
X137300687Y-91590266D01*
X137391128Y-91532143D01*
X137485377Y-91423373D01*
X137545165Y-91292457D01*
X137565647Y-91150000D01*
X137545165Y-91007543D01*
X137485377Y-90876627D01*
X137436310Y-90820000D01*
X138034353Y-90820000D01*
X138054834Y-90962456D01*
X138114593Y-91093308D01*
X138114623Y-91093373D01*
X138208872Y-91202143D01*
X138329947Y-91279953D01*
X138329950Y-91279954D01*
X138329949Y-91279954D01*
X138437107Y-91311417D01*
X138466336Y-91320000D01*
X138468036Y-91320499D01*
X138468038Y-91320500D01*
X138468039Y-91320500D01*
X138611962Y-91320500D01*
X138611962Y-91320499D01*
X138750053Y-91279953D01*
X138871128Y-91202143D01*
X138965377Y-91093373D01*
X139025165Y-90962457D01*
X139032708Y-90909996D01*
X141160254Y-90909996D01*
X141160254Y-90910003D01*
X141179175Y-91077938D01*
X141179176Y-91077943D01*
X141234732Y-91236714D01*
X141561447Y-90910000D01*
X141541556Y-90890109D01*
X141815000Y-90890109D01*
X141815000Y-90929891D01*
X141830224Y-90966645D01*
X141858355Y-90994776D01*
X141895109Y-91010000D01*
X141934891Y-91010000D01*
X141971645Y-90994776D01*
X141999776Y-90966645D01*
X142015000Y-90929891D01*
X142015000Y-90910000D01*
X142268553Y-90910000D01*
X142437500Y-91078947D01*
X142606447Y-90910000D01*
X142586556Y-90890109D01*
X142860000Y-90890109D01*
X142860000Y-90929891D01*
X142875224Y-90966645D01*
X142903355Y-90994776D01*
X142940109Y-91010000D01*
X142979891Y-91010000D01*
X143016645Y-90994776D01*
X143044776Y-90966645D01*
X143060000Y-90929891D01*
X143060000Y-90910000D01*
X143313553Y-90910000D01*
X143487500Y-91083947D01*
X143661447Y-90910000D01*
X143641556Y-90890109D01*
X143915000Y-90890109D01*
X143915000Y-90929891D01*
X143930224Y-90966645D01*
X143958355Y-90994776D01*
X143995109Y-91010000D01*
X144034891Y-91010000D01*
X144071645Y-90994776D01*
X144099776Y-90966645D01*
X144115000Y-90929891D01*
X144115000Y-90909999D01*
X144368553Y-90909999D01*
X144368553Y-90910001D01*
X144695266Y-91236714D01*
X144695267Y-91236713D01*
X144750824Y-91077943D01*
X144769746Y-90910003D01*
X144769746Y-90909996D01*
X144750824Y-90742056D01*
X144695266Y-90583285D01*
X144368553Y-90909999D01*
X144115000Y-90909999D01*
X144115000Y-90890109D01*
X144099776Y-90853355D01*
X144071645Y-90825224D01*
X144034891Y-90810000D01*
X143995109Y-90810000D01*
X143958355Y-90825224D01*
X143930224Y-90853355D01*
X143915000Y-90890109D01*
X143641556Y-90890109D01*
X143487500Y-90736053D01*
X143313553Y-90910000D01*
X143060000Y-90910000D01*
X143060000Y-90890109D01*
X143044776Y-90853355D01*
X143016645Y-90825224D01*
X142979891Y-90810000D01*
X142940109Y-90810000D01*
X142903355Y-90825224D01*
X142875224Y-90853355D01*
X142860000Y-90890109D01*
X142586556Y-90890109D01*
X142437500Y-90741053D01*
X142268553Y-90910000D01*
X142015000Y-90910000D01*
X142015000Y-90890109D01*
X141999776Y-90853355D01*
X141971645Y-90825224D01*
X141934891Y-90810000D01*
X141895109Y-90810000D01*
X141858355Y-90825224D01*
X141830224Y-90853355D01*
X141815000Y-90890109D01*
X141541556Y-90890109D01*
X141234732Y-90583285D01*
X141179176Y-90742053D01*
X141179175Y-90742058D01*
X141160254Y-90909996D01*
X139032708Y-90909996D01*
X139045647Y-90820000D01*
X139025165Y-90677543D01*
X138965377Y-90546627D01*
X138871128Y-90437857D01*
X138784991Y-90382500D01*
X141741053Y-90382500D01*
X141915000Y-90556447D01*
X142083947Y-90387500D01*
X142791053Y-90387500D01*
X142960000Y-90556447D01*
X143133947Y-90382500D01*
X143128947Y-90377500D01*
X143836053Y-90377500D01*
X144015000Y-90556447D01*
X144188947Y-90382500D01*
X144010000Y-90203553D01*
X143836053Y-90377500D01*
X143128947Y-90377500D01*
X142965000Y-90213553D01*
X142791053Y-90387500D01*
X142083947Y-90387500D01*
X142093947Y-90377500D01*
X141920000Y-90203553D01*
X141741053Y-90382500D01*
X138784991Y-90382500D01*
X138750053Y-90360047D01*
X138750051Y-90360046D01*
X138750049Y-90360045D01*
X138750050Y-90360045D01*
X138611963Y-90319500D01*
X138611961Y-90319500D01*
X138468039Y-90319500D01*
X138468036Y-90319500D01*
X138329949Y-90360045D01*
X138208873Y-90437856D01*
X138114623Y-90546626D01*
X138114622Y-90546628D01*
X138054834Y-90677543D01*
X138034353Y-90820000D01*
X137436310Y-90820000D01*
X137391128Y-90767857D01*
X137270053Y-90690047D01*
X137270051Y-90690046D01*
X137270049Y-90690045D01*
X137270050Y-90690045D01*
X137131963Y-90649500D01*
X137131961Y-90649500D01*
X136988039Y-90649500D01*
X136988036Y-90649500D01*
X136849949Y-90690045D01*
X136728873Y-90767856D01*
X136634623Y-90876626D01*
X136634622Y-90876628D01*
X136574834Y-91007543D01*
X136554353Y-91150000D01*
X106970500Y-91150000D01*
X106970500Y-90290000D01*
X134394353Y-90290000D01*
X134414834Y-90432456D01*
X134466975Y-90546626D01*
X134474623Y-90563373D01*
X134568872Y-90672143D01*
X134689947Y-90749953D01*
X134689950Y-90749954D01*
X134689949Y-90749954D01*
X134828036Y-90790499D01*
X134828038Y-90790500D01*
X134828039Y-90790500D01*
X134971962Y-90790500D01*
X134971962Y-90790499D01*
X135110053Y-90749953D01*
X135231128Y-90672143D01*
X135325377Y-90563373D01*
X135385165Y-90432457D01*
X135405647Y-90290000D01*
X135385165Y-90147543D01*
X135325377Y-90016627D01*
X135231128Y-89907857D01*
X135110053Y-89830047D01*
X135110051Y-89830046D01*
X135110049Y-89830045D01*
X135110050Y-89830045D01*
X134971963Y-89789500D01*
X134971961Y-89789500D01*
X134828039Y-89789500D01*
X134828036Y-89789500D01*
X134689949Y-89830045D01*
X134568873Y-89907856D01*
X134474623Y-90016626D01*
X134474622Y-90016628D01*
X134414834Y-90147543D01*
X134394353Y-90290000D01*
X106970500Y-90290000D01*
X106970500Y-89690000D01*
X139054353Y-89690000D01*
X139074834Y-89832456D01*
X139134622Y-89963371D01*
X139134623Y-89963373D01*
X139228872Y-90072143D01*
X139349947Y-90149953D01*
X139349950Y-90149954D01*
X139349949Y-90149954D01*
X139457107Y-90181417D01*
X139486363Y-90190008D01*
X139488036Y-90190499D01*
X139488038Y-90190500D01*
X139488039Y-90190500D01*
X139631962Y-90190500D01*
X139631962Y-90190499D01*
X139770053Y-90149953D01*
X139891128Y-90072143D01*
X139985377Y-89963373D01*
X140037155Y-89849996D01*
X141165254Y-89849996D01*
X141165254Y-89850003D01*
X141184175Y-90017938D01*
X141184176Y-90017943D01*
X141239732Y-90176714D01*
X141566447Y-89850000D01*
X141546556Y-89830109D01*
X141820000Y-89830109D01*
X141820000Y-89869891D01*
X141835224Y-89906645D01*
X141863355Y-89934776D01*
X141900109Y-89950000D01*
X141939891Y-89950000D01*
X141976645Y-89934776D01*
X142004776Y-89906645D01*
X142020000Y-89869891D01*
X142020000Y-89850000D01*
X142273553Y-89850000D01*
X142447500Y-90023947D01*
X142611447Y-89860000D01*
X142591556Y-89840109D01*
X142865000Y-89840109D01*
X142865000Y-89879891D01*
X142880224Y-89916645D01*
X142908355Y-89944776D01*
X142945109Y-89960000D01*
X142984891Y-89960000D01*
X143021645Y-89944776D01*
X143049776Y-89916645D01*
X143065000Y-89879891D01*
X143065000Y-89860000D01*
X143318553Y-89860000D01*
X143482500Y-90023947D01*
X143656447Y-89850000D01*
X143636556Y-89830109D01*
X143910000Y-89830109D01*
X143910000Y-89869891D01*
X143925224Y-89906645D01*
X143953355Y-89934776D01*
X143990109Y-89950000D01*
X144029891Y-89950000D01*
X144066645Y-89934776D01*
X144094776Y-89906645D01*
X144110000Y-89869891D01*
X144110000Y-89849999D01*
X144363553Y-89849999D01*
X144363553Y-89850001D01*
X144690266Y-90176714D01*
X144690267Y-90176713D01*
X144745824Y-90017943D01*
X144764746Y-89850003D01*
X144764746Y-89849996D01*
X144745824Y-89682056D01*
X144690266Y-89523285D01*
X144363553Y-89849999D01*
X144110000Y-89849999D01*
X144110000Y-89830109D01*
X144094776Y-89793355D01*
X144066645Y-89765224D01*
X144029891Y-89750000D01*
X143990109Y-89750000D01*
X143953355Y-89765224D01*
X143925224Y-89793355D01*
X143910000Y-89830109D01*
X143636556Y-89830109D01*
X143492500Y-89686053D01*
X143318553Y-89860000D01*
X143065000Y-89860000D01*
X143065000Y-89840109D01*
X143049776Y-89803355D01*
X143021645Y-89775224D01*
X142984891Y-89760000D01*
X142945109Y-89760000D01*
X142908355Y-89775224D01*
X142880224Y-89803355D01*
X142865000Y-89840109D01*
X142591556Y-89840109D01*
X142437500Y-89686053D01*
X142273553Y-89850000D01*
X142020000Y-89850000D01*
X142020000Y-89830109D01*
X142004776Y-89793355D01*
X141976645Y-89765224D01*
X141939891Y-89750000D01*
X141900109Y-89750000D01*
X141863355Y-89765224D01*
X141835224Y-89793355D01*
X141820000Y-89830109D01*
X141546556Y-89830109D01*
X141239732Y-89523285D01*
X141184176Y-89682053D01*
X141184175Y-89682058D01*
X141165254Y-89849996D01*
X140037155Y-89849996D01*
X140045165Y-89832457D01*
X140065647Y-89690000D01*
X140045165Y-89547543D01*
X139985377Y-89416627D01*
X139908149Y-89327500D01*
X141751053Y-89327500D01*
X141920000Y-89496447D01*
X142083947Y-89332500D01*
X142791053Y-89332500D01*
X142965000Y-89506447D01*
X143133947Y-89337500D01*
X143128947Y-89332500D01*
X143846053Y-89332500D01*
X144010000Y-89496447D01*
X144178947Y-89327500D01*
X144015000Y-89163553D01*
X143846053Y-89332500D01*
X143128947Y-89332500D01*
X142960000Y-89163553D01*
X142791053Y-89332500D01*
X142083947Y-89332500D01*
X141915000Y-89163553D01*
X141751053Y-89327500D01*
X139908149Y-89327500D01*
X139891128Y-89307857D01*
X139770053Y-89230047D01*
X139770051Y-89230046D01*
X139770049Y-89230045D01*
X139770050Y-89230045D01*
X139631963Y-89189500D01*
X139631961Y-89189500D01*
X139488039Y-89189500D01*
X139488036Y-89189500D01*
X139349949Y-89230045D01*
X139228873Y-89307856D01*
X139134623Y-89416626D01*
X139134622Y-89416628D01*
X139074834Y-89547543D01*
X139054353Y-89690000D01*
X106970500Y-89690000D01*
X106970500Y-88945000D01*
X137839353Y-88945000D01*
X137859834Y-89087456D01*
X137882330Y-89136714D01*
X137919623Y-89218373D01*
X138013872Y-89327143D01*
X138134947Y-89404953D01*
X138134950Y-89404954D01*
X138134949Y-89404954D01*
X138273036Y-89445499D01*
X138273038Y-89445500D01*
X138273039Y-89445500D01*
X138416962Y-89445500D01*
X138416962Y-89445499D01*
X138555053Y-89404953D01*
X138676128Y-89327143D01*
X138770377Y-89218373D01*
X138830165Y-89087457D01*
X138850647Y-88945000D01*
X138831237Y-88809996D01*
X141160254Y-88809996D01*
X141160254Y-88810003D01*
X141179175Y-88977938D01*
X141179176Y-88977943D01*
X141234732Y-89136714D01*
X141561447Y-88810000D01*
X141541556Y-88790109D01*
X141815000Y-88790109D01*
X141815000Y-88829891D01*
X141830224Y-88866645D01*
X141858355Y-88894776D01*
X141895109Y-88910000D01*
X141934891Y-88910000D01*
X141971645Y-88894776D01*
X141999776Y-88866645D01*
X142015000Y-88829891D01*
X142015000Y-88810000D01*
X142268553Y-88810000D01*
X142437500Y-88978947D01*
X142606447Y-88810000D01*
X142586556Y-88790109D01*
X142860000Y-88790109D01*
X142860000Y-88829891D01*
X142875224Y-88866645D01*
X142903355Y-88894776D01*
X142940109Y-88910000D01*
X142979891Y-88910000D01*
X143016645Y-88894776D01*
X143044776Y-88866645D01*
X143060000Y-88829891D01*
X143060000Y-88810000D01*
X143313553Y-88810000D01*
X143487500Y-88983947D01*
X143661447Y-88810000D01*
X143641556Y-88790109D01*
X143915000Y-88790109D01*
X143915000Y-88829891D01*
X143930224Y-88866645D01*
X143958355Y-88894776D01*
X143995109Y-88910000D01*
X144034891Y-88910000D01*
X144071645Y-88894776D01*
X144099776Y-88866645D01*
X144115000Y-88829891D01*
X144115000Y-88809999D01*
X144368553Y-88809999D01*
X144368553Y-88810001D01*
X144695266Y-89136714D01*
X144695267Y-89136713D01*
X144750824Y-88977943D01*
X144769746Y-88810003D01*
X144769746Y-88809996D01*
X144766366Y-88780000D01*
X155445052Y-88780000D01*
X155464812Y-89031072D01*
X155523603Y-89275956D01*
X155619980Y-89508631D01*
X155751568Y-89723362D01*
X155752266Y-89724179D01*
X156579284Y-88897160D01*
X156598052Y-88967203D01*
X156661903Y-89077797D01*
X156752203Y-89168097D01*
X156862797Y-89231948D01*
X156932837Y-89250715D01*
X156105819Y-90077732D01*
X156105819Y-90077733D01*
X156106632Y-90078428D01*
X156186898Y-90127614D01*
X156233774Y-90179425D01*
X156245197Y-90248355D01*
X156217540Y-90312518D01*
X156209790Y-90321023D01*
X156049954Y-90480858D01*
X155919432Y-90667265D01*
X155919431Y-90667267D01*
X155823261Y-90873502D01*
X155823258Y-90873511D01*
X155764366Y-91093302D01*
X155764364Y-91093313D01*
X155744532Y-91319998D01*
X155744532Y-91320001D01*
X155764364Y-91546686D01*
X155764366Y-91546697D01*
X155823258Y-91766488D01*
X155823261Y-91766497D01*
X155919431Y-91972732D01*
X155919432Y-91972734D01*
X156049954Y-92159141D01*
X156210858Y-92320045D01*
X156210861Y-92320047D01*
X156397266Y-92450568D01*
X156603504Y-92546739D01*
X156823308Y-92605635D01*
X156985230Y-92619801D01*
X157049998Y-92625468D01*
X157050000Y-92625468D01*
X157050002Y-92625468D01*
X157106673Y-92620509D01*
X157276692Y-92605635D01*
X157496496Y-92546739D01*
X157702734Y-92450568D01*
X157889139Y-92320047D01*
X158050047Y-92159139D01*
X158180568Y-91972734D01*
X158276739Y-91766496D01*
X158335635Y-91546692D01*
X158355468Y-91320000D01*
X158335635Y-91093308D01*
X158276739Y-90873504D01*
X158180568Y-90667266D01*
X158050047Y-90480861D01*
X158050045Y-90480858D01*
X157890210Y-90321023D01*
X157856725Y-90259700D01*
X157861709Y-90190008D01*
X157903581Y-90134075D01*
X157913102Y-90127614D01*
X157993364Y-90078430D01*
X157994180Y-90077732D01*
X157167162Y-89250715D01*
X157237203Y-89231948D01*
X157347797Y-89168097D01*
X157438097Y-89077797D01*
X157501948Y-88967203D01*
X157520715Y-88897162D01*
X158347732Y-89724180D01*
X158348430Y-89723363D01*
X158348432Y-89723361D01*
X158480019Y-89508631D01*
X158576396Y-89275956D01*
X158635187Y-89031072D01*
X158654947Y-88780000D01*
X158635187Y-88528927D01*
X158576396Y-88284043D01*
X158493858Y-88084779D01*
X158486389Y-88015310D01*
X158517664Y-87952830D01*
X158577753Y-87917178D01*
X158646738Y-87919395D01*
X158705465Y-87938477D01*
X158796086Y-87952830D01*
X158907648Y-87970500D01*
X158907649Y-87970500D01*
X159112351Y-87970500D01*
X159112352Y-87970500D01*
X159314534Y-87938477D01*
X159509219Y-87875220D01*
X159691610Y-87782287D01*
X159795749Y-87706626D01*
X159857213Y-87661971D01*
X159857215Y-87661968D01*
X159857219Y-87661966D01*
X160001966Y-87517219D01*
X160001968Y-87517215D01*
X160001971Y-87517213D01*
X160054732Y-87444590D01*
X160122287Y-87351610D01*
X160215220Y-87169219D01*
X160278477Y-86974534D01*
X160310500Y-86772352D01*
X160310500Y-86567648D01*
X160278477Y-86365466D01*
X160215220Y-86170781D01*
X160215218Y-86170778D01*
X160215218Y-86170776D01*
X160150003Y-86042786D01*
X160122287Y-85988390D01*
X160077414Y-85926627D01*
X160001971Y-85822786D01*
X159857213Y-85678028D01*
X159691613Y-85557715D01*
X159691612Y-85557714D01*
X159691610Y-85557713D01*
X159634653Y-85528691D01*
X159509223Y-85464781D01*
X159314534Y-85401522D01*
X159139995Y-85373878D01*
X159112352Y-85369500D01*
X158907648Y-85369500D01*
X158883329Y-85373351D01*
X158705465Y-85401522D01*
X158510776Y-85464781D01*
X158328386Y-85557715D01*
X158162786Y-85678028D01*
X158018028Y-85822786D01*
X157897715Y-85988386D01*
X157804781Y-86170776D01*
X157741522Y-86365465D01*
X157709500Y-86567648D01*
X157709500Y-86772351D01*
X157741522Y-86974534D01*
X157793595Y-87134794D01*
X157795590Y-87204636D01*
X157759510Y-87264469D01*
X157696809Y-87295297D01*
X157628212Y-87287674D01*
X157545959Y-87253604D01*
X157301072Y-87194812D01*
X157050000Y-87175052D01*
X156798927Y-87194812D01*
X156554043Y-87253603D01*
X156321368Y-87349980D01*
X156106637Y-87481567D01*
X156105819Y-87482266D01*
X156932837Y-88309284D01*
X156862797Y-88328052D01*
X156752203Y-88391903D01*
X156661903Y-88482203D01*
X156598052Y-88592797D01*
X156579284Y-88662837D01*
X155752266Y-87835819D01*
X155751567Y-87836637D01*
X155619980Y-88051368D01*
X155523603Y-88284043D01*
X155464812Y-88528927D01*
X155445052Y-88780000D01*
X144766366Y-88780000D01*
X144750824Y-88642056D01*
X144695266Y-88483285D01*
X144368553Y-88809999D01*
X144115000Y-88809999D01*
X144115000Y-88790109D01*
X144099776Y-88753355D01*
X144071645Y-88725224D01*
X144034891Y-88710000D01*
X143995109Y-88710000D01*
X143958355Y-88725224D01*
X143930224Y-88753355D01*
X143915000Y-88790109D01*
X143641556Y-88790109D01*
X143487500Y-88636053D01*
X143313553Y-88810000D01*
X143060000Y-88810000D01*
X143060000Y-88790109D01*
X143044776Y-88753355D01*
X143016645Y-88725224D01*
X142979891Y-88710000D01*
X142940109Y-88710000D01*
X142903355Y-88725224D01*
X142875224Y-88753355D01*
X142860000Y-88790109D01*
X142586556Y-88790109D01*
X142437500Y-88641053D01*
X142268553Y-88810000D01*
X142015000Y-88810000D01*
X142015000Y-88790109D01*
X141999776Y-88753355D01*
X141971645Y-88725224D01*
X141934891Y-88710000D01*
X141895109Y-88710000D01*
X141858355Y-88725224D01*
X141830224Y-88753355D01*
X141815000Y-88790109D01*
X141541556Y-88790109D01*
X141234732Y-88483285D01*
X141179176Y-88642053D01*
X141179175Y-88642058D01*
X141160254Y-88809996D01*
X138831237Y-88809996D01*
X138830165Y-88802543D01*
X138770377Y-88671627D01*
X138676128Y-88562857D01*
X138555053Y-88485047D01*
X138555051Y-88485046D01*
X138555049Y-88485045D01*
X138555050Y-88485045D01*
X138416963Y-88444500D01*
X138416961Y-88444500D01*
X138273039Y-88444500D01*
X138273036Y-88444500D01*
X138134949Y-88485045D01*
X138013873Y-88562856D01*
X137919623Y-88671626D01*
X137919622Y-88671628D01*
X137859834Y-88802543D01*
X137839353Y-88945000D01*
X106970500Y-88945000D01*
X106970500Y-86787648D01*
X108759500Y-86787648D01*
X108759500Y-86992351D01*
X108791522Y-87194534D01*
X108854781Y-87389223D01*
X108947715Y-87571613D01*
X109068028Y-87737213D01*
X109212786Y-87881971D01*
X109347714Y-87980000D01*
X109378390Y-88002287D01*
X109494607Y-88061503D01*
X109560776Y-88095218D01*
X109560778Y-88095218D01*
X109560781Y-88095220D01*
X109644605Y-88122456D01*
X109755465Y-88158477D01*
X109856557Y-88174488D01*
X109957648Y-88190500D01*
X109957649Y-88190500D01*
X110162351Y-88190500D01*
X110162352Y-88190500D01*
X110364534Y-88158477D01*
X110559219Y-88095220D01*
X110741610Y-88002287D01*
X110772286Y-87980000D01*
X133344353Y-87980000D01*
X133364834Y-88122456D01*
X133424622Y-88253371D01*
X133424623Y-88253373D01*
X133518872Y-88362143D01*
X133639947Y-88439953D01*
X133639950Y-88439954D01*
X133639949Y-88439954D01*
X133778036Y-88480499D01*
X133778038Y-88480500D01*
X133778039Y-88480500D01*
X133921962Y-88480500D01*
X133921962Y-88480499D01*
X134060053Y-88439953D01*
X134181128Y-88362143D01*
X134275377Y-88253373D01*
X134331843Y-88129732D01*
X141588285Y-88129732D01*
X141915000Y-88456447D01*
X141915001Y-88456447D01*
X142241714Y-88129732D01*
X142633285Y-88129732D01*
X142960000Y-88456447D01*
X142960001Y-88456447D01*
X143286714Y-88129732D01*
X143688285Y-88129732D01*
X144015000Y-88456447D01*
X144015001Y-88456447D01*
X144341714Y-88129732D01*
X144182943Y-88074176D01*
X144182938Y-88074175D01*
X144015004Y-88055254D01*
X144014996Y-88055254D01*
X143847058Y-88074175D01*
X143847053Y-88074176D01*
X143688285Y-88129732D01*
X143286714Y-88129732D01*
X143127943Y-88074176D01*
X143127938Y-88074175D01*
X142960004Y-88055254D01*
X142959996Y-88055254D01*
X142792058Y-88074175D01*
X142792053Y-88074176D01*
X142633285Y-88129732D01*
X142241714Y-88129732D01*
X142082943Y-88074176D01*
X142082938Y-88074175D01*
X141915004Y-88055254D01*
X141914996Y-88055254D01*
X141747058Y-88074175D01*
X141747053Y-88074176D01*
X141588285Y-88129732D01*
X134331843Y-88129732D01*
X134335165Y-88122457D01*
X134355647Y-87980000D01*
X134335165Y-87837543D01*
X134275377Y-87706627D01*
X134181128Y-87597857D01*
X134060053Y-87520047D01*
X134060051Y-87520046D01*
X134060049Y-87520045D01*
X134060050Y-87520045D01*
X133921963Y-87479500D01*
X133921961Y-87479500D01*
X133778039Y-87479500D01*
X133778036Y-87479500D01*
X133639949Y-87520045D01*
X133518873Y-87597856D01*
X133424623Y-87706626D01*
X133424622Y-87706628D01*
X133364834Y-87837543D01*
X133344353Y-87980000D01*
X110772286Y-87980000D01*
X110855702Y-87919395D01*
X110907213Y-87881971D01*
X110907215Y-87881968D01*
X110907219Y-87881966D01*
X111051966Y-87737219D01*
X111051968Y-87737215D01*
X111051971Y-87737213D01*
X111106640Y-87661966D01*
X111172287Y-87571610D01*
X111265220Y-87389219D01*
X111328477Y-87194534D01*
X111360500Y-86992352D01*
X111360500Y-86787648D01*
X111328477Y-86585466D01*
X111327397Y-86582143D01*
X111292055Y-86473371D01*
X111265220Y-86390781D01*
X111265218Y-86390778D01*
X111265218Y-86390776D01*
X111231503Y-86324607D01*
X111198584Y-86260000D01*
X143534353Y-86260000D01*
X143554834Y-86402456D01*
X143614622Y-86533371D01*
X143614623Y-86533373D01*
X143708872Y-86642143D01*
X143829947Y-86719953D01*
X143829950Y-86719954D01*
X143829949Y-86719954D01*
X143968036Y-86760499D01*
X143968038Y-86760500D01*
X143968039Y-86760500D01*
X144111962Y-86760500D01*
X144111962Y-86760499D01*
X144250053Y-86719953D01*
X144371128Y-86642143D01*
X144465377Y-86533373D01*
X144525165Y-86402457D01*
X144545647Y-86260000D01*
X144537020Y-86200000D01*
X147404353Y-86200000D01*
X147424834Y-86342456D01*
X147446904Y-86390781D01*
X147484623Y-86473373D01*
X147578872Y-86582143D01*
X147699947Y-86659953D01*
X147699950Y-86659954D01*
X147699949Y-86659954D01*
X147838036Y-86700499D01*
X147838038Y-86700500D01*
X147838039Y-86700500D01*
X147981962Y-86700500D01*
X147981962Y-86700499D01*
X148120053Y-86659953D01*
X148241128Y-86582143D01*
X148335377Y-86473373D01*
X148395165Y-86342457D01*
X148415647Y-86200000D01*
X148395165Y-86057543D01*
X148335377Y-85926627D01*
X148241128Y-85817857D01*
X148120053Y-85740047D01*
X148120051Y-85740046D01*
X148120049Y-85740045D01*
X148120050Y-85740045D01*
X147981963Y-85699500D01*
X147981961Y-85699500D01*
X147838039Y-85699500D01*
X147838036Y-85699500D01*
X147699949Y-85740045D01*
X147578873Y-85817856D01*
X147484623Y-85926626D01*
X147484622Y-85926628D01*
X147424834Y-86057543D01*
X147404353Y-86200000D01*
X144537020Y-86200000D01*
X144525165Y-86117543D01*
X144465377Y-85986627D01*
X144371128Y-85877857D01*
X144250053Y-85800047D01*
X144250051Y-85800046D01*
X144250049Y-85800045D01*
X144250050Y-85800045D01*
X144111963Y-85759500D01*
X144111961Y-85759500D01*
X143968039Y-85759500D01*
X143968036Y-85759500D01*
X143829949Y-85800045D01*
X143708873Y-85877856D01*
X143614623Y-85986626D01*
X143614622Y-85986628D01*
X143554834Y-86117543D01*
X143534353Y-86260000D01*
X111198584Y-86260000D01*
X111172287Y-86208390D01*
X111144959Y-86170776D01*
X111051971Y-86042786D01*
X110907213Y-85898028D01*
X110741613Y-85777715D01*
X110741612Y-85777714D01*
X110741610Y-85777713D01*
X110684653Y-85748691D01*
X110559223Y-85684781D01*
X110364534Y-85621522D01*
X110189995Y-85593878D01*
X110162352Y-85589500D01*
X109957648Y-85589500D01*
X109933329Y-85593351D01*
X109755465Y-85621522D01*
X109560776Y-85684781D01*
X109378386Y-85777715D01*
X109212786Y-85898028D01*
X109068028Y-86042786D01*
X108947715Y-86208386D01*
X108854781Y-86390776D01*
X108791522Y-86585465D01*
X108759500Y-86787648D01*
X106970500Y-86787648D01*
X106970500Y-84184000D01*
X106990185Y-84116961D01*
X107042989Y-84071206D01*
X107094500Y-84060000D01*
X161445500Y-84060000D01*
X161512539Y-84079685D01*
G37*
%TD.AperFunction*%
%TD*%
M02*
