M48
; DRILL file {KiCad 8.0.5} date 2025-03-03T10:26:35+0100
; FORMAT={-:-/ absolute / inch / decimal}
; #@! TF.CreationDate,2025-03-03T10:26:35+01:00
; #@! TF.GenerationSoftware,Kicad,Pcbnew,8.0.5
; #@! TF.FileFunction,Plated,1,4,PTH
FMAT,2
INCH
; #@! TA.AperFunction,Plated,PTH,ComponentDrill
T1C0.0079
; #@! TA.AperFunction,Plated,PTH,ViaDrill
T2C0.0118
; #@! TA.AperFunction,Plated,PTH,ComponentDrill
T3C0.0256
; #@! TA.AperFunction,Plated,PTH,ComponentDrill
T4C0.0382
; #@! TA.AperFunction,Plated,PTH,ComponentDrill
T5C0.0394
%
G90
G05
T1
X5.5872Y-3.4965
X5.5872Y-3.5791
X5.5874Y-3.5374
X5.6283Y-3.4965
X5.6283Y-3.5791
X5.6285Y-3.5378
X5.6697Y-3.5374
X5.6699Y-3.4965
X5.6699Y-3.5791
T2
X4.2323Y-3.3366
X4.2323Y-3.3661
X4.2323Y-3.4055
X4.2323Y-3.4449
X4.2323Y-3.4843
X4.2323Y-3.5236
X4.2323Y-3.563
X4.2323Y-3.6024
X4.2323Y-3.6417
X4.2323Y-3.6811
X4.2323Y-3.7205
X4.2323Y-3.7598
X4.2323Y-3.7992
X4.2323Y-3.8386
X4.2323Y-3.878
X4.2323Y-3.9173
X4.2323Y-3.9567
X4.2323Y-3.9961
X4.2323Y-4.0354
X4.2323Y-4.0748
X4.2323Y-4.1142
X4.2323Y-4.1535
X4.2323Y-4.1929
X4.2323Y-4.2323
X4.2323Y-4.2717
X4.2323Y-4.311
X4.2323Y-4.3504
X4.2323Y-4.3898
X4.2323Y-4.4291
X4.2323Y-4.4685
X4.2323Y-4.5079
X4.2323Y-4.5472
X4.2323Y-4.5866
X4.2323Y-4.626
X4.2323Y-4.6654
X4.2323Y-4.7047
X4.2323Y-4.7441
X4.2323Y-4.7835
X4.2323Y-4.8228
X4.2323Y-4.8622
X4.2323Y-4.9016
X4.2323Y-4.9409
X4.2323Y-4.9803
X4.2323Y-5.0197
X4.2618Y-5.0492
X4.2701Y-4.863
X4.2713Y-3.7138
X4.2717Y-3.3366
X4.287Y-4.3642
X4.2874Y-4.4535
X4.289Y-3.8374
X4.2898Y-4.0224
X4.2941Y-4.1992
X4.3017Y-5.0487
X4.311Y-3.3366
X4.3142Y-4.5394
X4.3406Y-5.0492
X4.3504Y-3.3366
X4.3579Y-4.3657
X4.3598Y-4.4559
X4.3799Y-5.0492
X4.3898Y-3.3366
X4.3969Y-3.5346
X4.3972Y-4.5957
X4.398Y-3.8299
X4.402Y-4.513
X4.4126Y-3.5957
X4.4193Y-5.0492
X4.4264Y-3.7016
X4.4291Y-3.3366
X4.4307Y-3.526
X4.4366Y-3.5768
X4.4461Y-3.3772
X4.4535Y-3.4437
X4.4587Y-5.0492
X4.4594Y-4.9224
X4.4646Y-4.1839
X4.4654Y-4.013
X4.4669Y-4.3453
X4.4685Y-3.3366
X4.4705Y-4.4474
X4.498Y-5.0492
X4.5071Y-4.9937
X4.5079Y-3.3366
X4.5098Y-4.0874
X4.5118Y-3.9079
X4.5209Y-4.2638
X4.5272Y-3.3996
X4.5374Y-5.0492
X4.5457Y-4.7193
X4.5472Y-3.3366
X4.5531Y-4.3776
X4.5606Y-3.95
X4.5768Y-5.0492
X4.5866Y-3.3366
X4.5965Y-3.435
X4.6047Y-4.9661
X4.6161Y-5.0492
X4.6209Y-4.0528
X4.626Y-3.3366
X4.6484Y-4.6843
X4.6555Y-5.0492
X4.6654Y-3.3366
X4.6937Y-3.3878
X4.6949Y-4.3929
X4.6949Y-5.0492
X4.7047Y-3.3366
X4.7311Y-4.9799
X4.7343Y-5.0492
X4.7441Y-3.3366
X4.7685Y-4.6594
X4.7733Y-3.4358
X4.7736Y-4.4079
X4.7736Y-5.0492
X4.7835Y-3.3366
X4.7902Y-3.9169
X4.7957Y-4.2346
X4.7961Y-4.3114
X4.7992Y-4.0319
X4.813Y-5.0492
X4.8228Y-3.3366
X4.8512Y-4.9972
X4.8524Y-5.0492
X4.8622Y-3.3366
X4.8654Y-4.5366
X4.8677Y-4.6555
X4.8874Y-3.3862
X4.8917Y-5.0492
X4.9016Y-3.3366
X4.9311Y-5.0492
X4.9335Y-4.5465
X4.9402Y-4.9988
X4.9409Y-3.3366
X4.9441Y-4.9098
X4.9453Y-4.8047
X4.9516Y-3.4488
X4.9587Y-3.7346
X4.9598Y-4.2346
X4.9614Y-4.1551
X4.9622Y-4.0953
X4.9642Y-4.0335
X4.965Y-3.6717
X4.9705Y-5.0492
X4.9803Y-3.3366
X4.9835Y-3.9205
X4.9854Y-3.8594
X5.0098Y-5.0492
X5.0126Y-4.5551
X5.0165Y-5.0047
X5.0173Y-4.4492
X5.0197Y-3.3366
X5.0339Y-3.735
X5.0472Y-3.9213
X5.0488Y-3.8598
X5.0492Y-5.0492
X5.0591Y-3.3366
X5.063Y-3.3945
X5.0823Y-3.4654
X5.0843Y-4.5343
X5.0886Y-5.0492
X5.0902Y-4.6539
X5.0925Y-3.665
X5.0941Y-3.6087
X5.0984Y-3.3366
X5.1067Y-5.0063
X5.1114Y-3.735
X5.1118Y-4.0606
X5.113Y-3.9024
X5.128Y-5.0492
X5.1378Y-3.3366
X5.1457Y-3.6567
X5.1583Y-4.3669
X5.1594Y-3.8173
X5.1673Y-5.0492
X5.1744Y-4.9082
X5.1772Y-3.3366
X5.1815Y-3.7402
X5.2067Y-5.0492
X5.2075Y-3.8709
X5.2094Y-5.0087
X5.2118Y-4.7244
X5.2129Y-4.638
X5.2165Y-3.3366
X5.2358Y-3.7906
X5.2461Y-5.0492
X5.2559Y-3.3366
X5.2579Y-4.111
X5.2697Y-3.4638
X5.272Y-3.5154
X5.2744Y-4.0059
X5.2819Y-4.2614
X5.2854Y-5.0492
X5.2882Y-4.4598
X5.2929Y-3.7079
X5.2937Y-3.3709
X5.2953Y-3.3366
X5.3Y-4.5846
X5.3031Y-4.6846
X5.311Y-3.5547
X5.3134Y-5.0047
X5.315Y-4.1898
X5.3193Y-3.4346
X5.3201Y-3.6823
X5.3209Y-4.7795
X5.3248Y-5.0492
X5.3287Y-3.7461
X5.3291Y-4.9082
X5.3299Y-4.0713
X5.3346Y-3.3366
X5.3362Y-3.637
X5.3409Y-3.7972
X5.3579Y-3.3929
X5.3606Y-3.4957
X5.3642Y-5.0492
X5.374Y-3.3366
X5.3744Y-4.4165
X5.3752Y-4.4657
X5.3811Y-3.8287
X5.3925Y-3.9886
X5.3961Y-3.5886
X5.4004Y-3.6992
X5.4031Y-4.6386
X5.4035Y-4.5016
X5.4035Y-5.0492
X5.4071Y-4.7217
X5.4102Y-4.7987
X5.4134Y-3.3366
X5.4181Y-4.2398
X5.4197Y-5.0047
X5.4256Y-4.1291
X5.4386Y-4.5327
X5.4429Y-5.0492
X5.4461Y-4.5732
X5.4467Y-3.5018
X5.4469Y-3.7953
X5.4496Y-4.411
X5.4504Y-4.4453
X5.4528Y-3.3366
X5.4543Y-3.5756
X5.4776Y-4.0051
X5.4823Y-5.0492
X5.4921Y-3.3366
X5.4945Y-3.5311
X5.5024Y-5.0035
X5.5083Y-3.7591
X5.5118Y-4.7008
X5.5173Y-4.2457
X5.5217Y-5.0492
X5.5248Y-4.1067
X5.5315Y-3.3366
X5.5441Y-3.6476
X5.5594Y-4.7138
X5.561Y-5.0492
X5.5709Y-3.3366
X5.5925Y-5.0
X5.5957Y-4.8327
X5.5957Y-4.9402
X5.6004Y-5.0492
X5.6028Y-3.8421
X5.6102Y-3.3366
X5.6122Y-4.7114
X5.6161Y-4.3579
X5.6362Y-3.9165
X5.6378Y-4.3177
X5.6398Y-5.0492
X5.6496Y-3.3366
X5.6709Y-3.3961
X5.674Y-4.9937
X5.6791Y-5.0492
X5.6811Y-3.8846
X5.689Y-3.3366
X5.7Y-3.9437
X5.7071Y-3.6587
X5.7146Y-3.7961
X5.7185Y-5.0492
X5.728Y-4.8764
X5.7283Y-3.3366
X5.7311Y-4.252
X5.7512Y-3.9059
X5.7579Y-5.0492
X5.7677Y-3.3366
X5.7835Y-4.7894
X5.7972Y-5.0492
X5.8071Y-3.3366
X5.8079Y-4.9811
X5.8102Y-4.3531
X5.8134Y-3.537
X5.8146Y-3.5031
X5.8154Y-3.4709
X5.8161Y-3.4394
X5.8161Y-3.5677
X5.8232Y-3.3937
X5.8268Y-4.2224
X5.828Y-3.887
X5.835Y-4.6894
X5.8358Y-3.9382
X5.8366Y-5.0492
X5.8398Y-4.0858
X5.8445Y-4.7665
X5.8465Y-3.3366
X5.8484Y-3.5681
X5.8488Y-4.4913
X5.8496Y-4.4177
X5.852Y-4.0063
X5.8551Y-3.535
X5.8661Y-3.5039
X5.876Y-5.0492
X5.8764Y-4.8756
X5.8819Y-3.8807
X5.8858Y-3.3366
X5.889Y-3.7976
X5.8961Y-3.9382
X5.8984Y-3.5016
X5.9098Y-4.3598
X5.9114Y-4.6244
X5.9122Y-4.5366
X5.9154Y-5.0492
X5.9181Y-3.8075
X5.9193Y-4.0776
X5.9201Y-4.7685
X5.9205Y-3.8382
X5.922Y-3.4358
X5.9228Y-4.4484
X5.9232Y-3.8705
X5.9252Y-3.3366
X5.9252Y-3.9031
X5.9323Y-3.5016
X5.9331Y-4.0075
X5.9457Y-3.9323
X5.9484Y-4.9665
X5.9488Y-3.7031
X5.9512Y-3.6406
X5.9512Y-3.6709
X5.9528Y-3.6098
X5.9547Y-5.0492
X5.9646Y-3.3366
X5.9689Y-3.4957
X5.9795Y-3.7047
X5.9827Y-3.9346
X5.985Y-3.6063
X5.9854Y-3.9665
X5.9858Y-3.9996
X5.9858Y-4.0346
X5.9894Y-4.526
X5.9904Y-4.481
X5.9909Y-4.4425
X5.9913Y-4.3618
X5.9917Y-4.5945
X5.9941Y-5.0492
X5.9949Y-4.8732
X5.9957Y-4.6319
X5.9969Y-4.0673
X5.9992Y-3.4996
X6.0039Y-3.3366
X6.0102Y-3.6996
X6.0157Y-3.8358
X6.0169Y-3.8049
X6.0173Y-3.5858
X6.0236Y-3.5217
X6.0276Y-4.0701
X6.028Y-3.5571
X6.0283Y-4.1969
X6.0335Y-5.0492
X6.0394Y-3.3969
X6.0433Y-3.3366
X6.0445Y-3.6969
X6.0488Y-3.8413
X6.0496Y-3.8024
X6.0622Y-4.0685
X6.0728Y-3.6114
X6.0728Y-5.0492
X6.0772Y-3.7031
X6.078Y-3.4921
X6.0811Y-3.7937
X6.0819Y-3.9421
X6.0827Y-3.3366
X6.0831Y-3.835
X6.0921Y-4.0697
X6.0941Y-3.7307
X6.0969Y-3.7642
X6.1122Y-5.0492
X6.1154Y-3.8335
X6.122Y-3.3366
X6.1268Y-4.0685
X6.1311Y-4.8614
X6.1323Y-3.6409
X6.1469Y-3.761
X6.1472Y-3.7933
X6.1476Y-3.8248
X6.148Y-3.6689
X6.148Y-3.7299
X6.1484Y-3.6988
X6.1484Y-3.8559
X6.1516Y-5.0492
X6.1567Y-3.3953
X6.1571Y-3.9717
X6.1571Y-4.0748
X6.1614Y-3.3366
X6.1803Y-3.95
X6.1807Y-4.6512
X6.1866Y-4.6098
X6.1898Y-4.0791
X6.1909Y-5.0492
X6.1957Y-4.8929
X6.1975Y-4.4832
X6.1976Y-4.3591
X6.1988Y-3.9744
X6.2004Y-3.9264
X6.2008Y-3.3366
X6.2012Y-5.0071
X6.2154Y-4.061
X6.2173Y-3.898
X6.2177Y-3.6799
X6.2189Y-3.7118
X6.2189Y-3.7429
X6.2193Y-3.7728
X6.2193Y-3.8039
X6.2193Y-3.835
X6.2201Y-3.8669
X6.2228Y-3.9992
X6.2236Y-4.8063
X6.2248Y-3.6504
X6.2264Y-4.0303
X6.2276Y-4.2323
X6.2303Y-5.0492
X6.2402Y-3.3366
X6.2429Y-3.6256
X6.2697Y-5.0492
X6.2736Y-3.5157
X6.2764Y-4.0157
X6.2783Y-3.7118
X6.2795Y-3.3366
X6.2801Y-3.925
X6.2803Y-4.3972
X6.2819Y-4.1146
X6.2835Y-3.8165
X6.2835Y-4.326
X6.2835Y-4.4886
X6.2843Y-4.876
X6.287Y-4.2295
X6.292Y-4.6898
X6.2921Y-4.5969
X6.2921Y-4.8118
X6.2988Y-5.0083
X6.3091Y-5.0492
X6.3189Y-3.3366
X6.3386Y-3.3661
X6.3386Y-3.4055
X6.3386Y-3.4449
X6.3386Y-3.4843
X6.3386Y-3.5236
X6.3386Y-3.563
X6.3386Y-3.6024
X6.3386Y-3.6417
X6.3386Y-3.6811
X6.3386Y-3.7205
X6.3386Y-3.7598
X6.3386Y-3.7992
X6.3386Y-3.8386
X6.3386Y-3.878
X6.3386Y-3.9173
X6.3386Y-3.9567
X6.3386Y-3.9961
X6.3386Y-4.0354
X6.3386Y-4.0748
X6.3386Y-4.1142
X6.3386Y-4.1535
X6.3386Y-4.1929
X6.3386Y-4.2323
X6.3386Y-4.2717
X6.3386Y-4.311
X6.3386Y-4.3504
X6.3386Y-4.3898
X6.3386Y-4.4291
X6.3386Y-4.4685
X6.3386Y-4.5079
X6.3386Y-4.5472
X6.3386Y-4.5866
X6.3386Y-4.626
X6.3386Y-4.6654
X6.3386Y-4.7047
X6.3386Y-4.7441
X6.3386Y-4.7835
X6.3386Y-4.8228
X6.3386Y-4.8622
X6.3386Y-4.9016
X6.3386Y-4.9409
X6.3386Y-4.9803
X6.3386Y-5.0197
T3
X4.9724Y-4.7028
X5.0224Y-4.7028
X5.6819Y-4.435
X5.6819Y-4.485
X5.6819Y-4.535
X5.6819Y-4.585
X5.6819Y-4.635
X5.7319Y-4.435
X5.7319Y-4.485
X5.7319Y-4.535
X5.7319Y-4.585
X5.7319Y-4.635
T4
X6.1831Y-3.4953
X6.1831Y-3.5953
T5
X4.3272Y-4.6951
X4.3272Y-4.7951
X4.6264Y-4.8437
X4.8232Y-4.8437
M30
