M48
; DRILL file {KiCad 8.0.3} date 2024-12-28T15:27:50+0100
; FORMAT={-:-/ absolute / metric / decimal}
; #@! TF.CreationDate,2024-12-28T15:27:50+01:00
; #@! TF.GenerationSoftware,Kicad,Pcbnew,8.0.3
; #@! TF.FileFunction,Plated,1,4,PTH
FMAT,2
METRIC
; #@! TA.AperFunction,Plated,PTH,ComponentDrill
T1C0.200
; #@! TA.AperFunction,Plated,PTH,ViaDrill
T2C0.300
; #@! TA.AperFunction,Plated,PTH,ComponentDrill
T3C0.650
; #@! TA.AperFunction,Plated,PTH,ComponentDrill
T4C0.970
; #@! TA.AperFunction,Plated,PTH,ComponentDrill
T5C1.000
%
G90
G05
T1
X141.915Y-88.81
X141.915Y-90.91
X141.92Y-89.85
X142.96Y-88.81
X142.96Y-90.91
X142.965Y-89.86
X144.01Y-89.85
X144.015Y-88.81
X144.015Y-90.91
T2
X107.5Y-84.75
X107.5Y-85.5
X107.5Y-86.5
X107.5Y-87.5
X107.5Y-88.5
X107.5Y-89.5
X107.5Y-90.5
X107.5Y-91.5
X107.5Y-92.5
X107.5Y-93.5
X107.5Y-94.5
X107.5Y-95.5
X107.5Y-96.5
X107.5Y-97.5
X107.5Y-98.5
X107.5Y-99.5
X107.5Y-100.5
X107.5Y-101.5
X107.5Y-102.5
X107.5Y-103.5
X107.5Y-104.5
X107.5Y-105.5
X107.5Y-106.5
X107.5Y-107.5
X107.5Y-108.5
X107.5Y-109.5
X107.5Y-110.5
X107.5Y-111.5
X107.5Y-112.5
X107.5Y-113.5
X107.5Y-114.5
X107.5Y-115.5
X107.5Y-116.5
X107.5Y-117.5
X107.5Y-118.5
X107.5Y-119.5
X107.5Y-120.5
X107.5Y-121.5
X107.5Y-122.5
X107.5Y-123.5
X107.5Y-124.5
X107.5Y-125.5
X107.5Y-126.5
X107.5Y-127.5
X108.25Y-128.25
X108.46Y-123.52
X108.49Y-94.33
X108.5Y-84.75
X108.94Y-97.47
X108.96Y-102.17
X109.07Y-106.66
X109.263Y-128.237
X109.5Y-84.75
X109.58Y-115.3
X109.68Y-108.88
X110.25Y-128.25
X110.5Y-84.75
X110.69Y-111.81
X111.25Y-128.25
X111.5Y-84.75
X111.68Y-89.78
X111.69Y-116.73
X111.71Y-97.28
X111.77Y-106.97
X112.06Y-122.05
X112.08Y-91.33
X112.1Y-114.41
X112.25Y-128.25
X112.38Y-120.55
X112.43Y-94.02
X112.5Y-84.75
X112.54Y-89.56
X112.69Y-90.85
X112.79Y-127.29
X112.93Y-85.78
X113.12Y-87.47
X113.25Y-128.25
X113.4Y-106.27
X113.42Y-101.93
X113.5Y-84.75
X113.63Y-112.57
X113.65Y-115.86
X113.92Y-127.3
X114.25Y-128.25
X114.5Y-84.75
X114.55Y-103.82
X114.6Y-99.26
X114.6Y-121.22
X114.99Y-86.35
X115.25Y-128.25
X115.5Y-84.75
X115.65Y-113.99
X115.67Y-127.36
X115.84Y-100.33
X116.13Y-110.89
X116.25Y-128.25
X116.34Y-121.29
X116.5Y-84.75
X116.75Y-87.25
X117.25Y-128.25
X117.32Y-127.24
X117.37Y-102.94
X117.5Y-84.75
X118.25Y-128.25
X118.5Y-84.75
X118.96Y-113.05
X119.22Y-86.05
X119.25Y-128.25
X119.5Y-84.75
X119.69Y-110.89
X119.97Y-115.28
X120.25Y-128.25
X120.31Y-124.95
X120.5Y-84.75
X121.02Y-127.28
X121.241Y-87.27
X121.25Y-128.25
X121.35Y-112.8
X121.5Y-84.75
X121.67Y-99.49
X121.81Y-107.56
X121.82Y-109.51
X121.9Y-102.41
X121.9Y-121.81
X122.25Y-128.25
X122.5Y-84.75
X122.89Y-118.26
X123.25Y-128.25
X123.5Y-84.75
X123.52Y-121.77
X123.58Y-115.23
X123.96Y-127.18
X124.14Y-86.01
X124.24Y-124.95
X124.25Y-128.25
X124.5Y-84.75
X124.78Y-121.79
X125.25Y-128.25
X125.5Y-84.75
X125.65Y-118.91
X125.77Y-87.6
X125.95Y-94.86
X125.98Y-107.56
X126.02Y-105.54
X126.04Y-104.02
X126.09Y-102.45
X126.11Y-93.26
X126.25Y-128.25
X126.3Y-122.17
X126.5Y-84.75
X126.543Y-116.124
X126.58Y-99.58
X126.63Y-98.03
X127.25Y-128.25
X127.44Y-113.01
X127.5Y-84.75
X127.76Y-127.18
X127.86Y-94.87
X127.89Y-121.75
X128.2Y-99.6
X128.24Y-98.04
X128.25Y-128.25
X128.5Y-84.75
X128.6Y-86.22
X129.09Y-88.02
X129.14Y-115.17
X129.25Y-128.25
X129.29Y-118.21
X129.29Y-121.86
X129.35Y-93.09
X129.39Y-91.66
X129.5Y-84.75
X129.83Y-94.87
X129.84Y-103.14
X129.87Y-99.12
X130.25Y-128.25
X130.5Y-84.75
X130.7Y-92.88
X130.89Y-122.39
X131.02Y-110.92
X131.03Y-127.22
X131.05Y-96.96
X131.25Y-128.25
X131.5Y-84.75
X131.61Y-95.0
X132.25Y-128.25
X132.27Y-98.32
X132.407Y-117.805
X132.5Y-84.75
X132.99Y-96.28
X133.21Y-120.45
X133.25Y-128.25
X133.5Y-84.75
X133.55Y-104.42
X133.85Y-87.98
X133.91Y-89.29
X133.97Y-101.75
X134.16Y-108.24
X134.25Y-128.25
X134.32Y-113.28
X134.44Y-94.18
X134.46Y-85.62
X134.5Y-84.75
X134.55Y-126.71
X134.62Y-116.45
X134.7Y-118.99
X134.9Y-90.29
X135.0Y-106.42
X135.11Y-87.24
X135.13Y-93.53
X135.25Y-128.25
X135.35Y-95.15
X135.38Y-103.41
X135.5Y-84.75
X135.54Y-92.38
X135.66Y-96.45
X136.09Y-86.18
X136.16Y-88.79
X136.25Y-128.25
X136.5Y-84.75
X136.51Y-112.18
X136.53Y-113.43
X136.68Y-97.25
X136.97Y-101.31
X137.06Y-91.15
X137.13Y-120.46
X137.17Y-93.96
X137.24Y-117.82
X137.25Y-114.34
X137.25Y-128.25
X137.5Y-84.75
X137.62Y-107.69
X137.81Y-104.88
X138.14Y-115.13
X138.18Y-126.59
X138.25Y-128.25
X138.33Y-116.16
X138.345Y-88.945
X138.35Y-96.4
X138.42Y-112.04
X138.44Y-112.91
X138.5Y-84.75
X138.54Y-90.82
X139.13Y-101.73
X139.25Y-128.25
X139.5Y-84.75
X139.56Y-89.69
X139.91Y-95.48
X140.0Y-119.4
X140.14Y-107.84
X140.25Y-128.25
X140.33Y-104.31
X140.5Y-84.75
X140.82Y-92.65
X141.21Y-119.73
X141.25Y-128.25
X141.5Y-84.75
X142.13Y-122.75
X142.13Y-125.48
X142.25Y-128.25
X142.31Y-97.59
X142.5Y-84.75
X142.55Y-119.67
X142.65Y-110.69
X143.16Y-99.48
X143.2Y-109.67
X143.25Y-128.25
X143.5Y-84.75
X144.04Y-86.26
X144.12Y-126.84
X144.25Y-128.25
X144.3Y-98.67
X144.5Y-84.75
X144.78Y-100.17
X144.96Y-92.93
X145.15Y-96.42
X145.25Y-128.25
X145.49Y-123.86
X145.5Y-84.75
X145.57Y-108.0
X146.08Y-99.21
X146.25Y-128.25
X146.5Y-84.75
X146.9Y-121.65
X147.25Y-128.25
X147.5Y-84.75
X147.52Y-126.52
X147.58Y-110.57
X147.66Y-89.84
X147.69Y-88.98
X147.71Y-88.16
X147.73Y-87.36
X147.73Y-90.62
X147.91Y-86.2
X148.0Y-107.25
X148.03Y-98.73
X148.21Y-119.11
X148.23Y-100.03
X148.25Y-128.25
X148.33Y-103.78
X148.45Y-121.07
X148.5Y-84.75
X148.55Y-90.63
X148.56Y-114.08
X148.58Y-112.21
X148.64Y-101.76
X148.72Y-89.79
X149.0Y-89.0
X149.25Y-128.25
X149.26Y-123.84
X149.4Y-98.57
X149.5Y-84.75
X149.58Y-96.46
X149.76Y-100.03
X149.82Y-88.94
X150.11Y-110.74
X150.15Y-117.46
X150.17Y-115.23
X150.25Y-128.25
X150.32Y-96.71
X150.35Y-103.57
X150.37Y-121.12
X150.38Y-97.49
X150.42Y-87.27
X150.44Y-112.99
X150.45Y-98.31
X150.5Y-84.75
X150.5Y-99.14
X150.68Y-88.94
X150.7Y-101.79
X151.02Y-99.88
X151.09Y-126.15
X151.1Y-94.06
X151.16Y-92.47
X151.16Y-93.24
X151.2Y-91.69
X151.25Y-128.25
X151.5Y-84.75
X151.61Y-88.79
X151.88Y-94.1
X151.96Y-99.94
X152.02Y-91.6
X152.03Y-100.75
X152.04Y-101.59
X152.04Y-102.48
X152.13Y-114.96
X152.155Y-113.817
X152.17Y-112.84
X152.18Y-110.79
X152.19Y-116.7
X152.25Y-128.25
X152.27Y-123.78
X152.29Y-117.65
X152.32Y-103.31
X152.38Y-88.89
X152.5Y-84.75
X152.66Y-93.97
X152.8Y-97.43
X152.83Y-96.645
X152.84Y-91.08
X153.0Y-89.45
X153.1Y-103.38
X153.11Y-90.35
X153.12Y-106.6
X153.25Y-128.25
X153.4Y-86.28
X153.5Y-84.75
X153.53Y-93.9
X153.64Y-97.57
X153.66Y-96.58
X153.98Y-103.34
X154.25Y-91.73
X154.25Y-128.25
X154.36Y-94.06
X154.38Y-88.7
X154.46Y-96.36
X154.48Y-100.13
X154.5Y-84.75
X154.51Y-97.41
X154.74Y-103.37
X154.79Y-94.76
X154.86Y-95.61
X155.25Y-128.25
X155.33Y-97.37
X155.5Y-84.75
X155.62Y-103.34
X155.73Y-123.48
X155.76Y-92.48
X156.13Y-95.53
X156.14Y-96.35
X156.15Y-97.15
X156.16Y-93.19
X156.16Y-94.74
X156.17Y-93.95
X156.17Y-97.94
X156.25Y-128.25
X156.38Y-86.24
X156.39Y-100.88
X156.39Y-103.5
X156.5Y-84.75
X156.98Y-100.33
X156.99Y-118.14
X157.14Y-117.09
X157.22Y-103.61
X157.25Y-128.25
X157.37Y-124.28
X157.417Y-113.872
X157.42Y-110.72
X157.45Y-100.95
X157.49Y-99.73
X157.5Y-84.75
X157.51Y-127.18
X157.87Y-103.15
X157.92Y-99.01
X157.93Y-93.47
X157.96Y-94.28
X157.96Y-95.07
X157.97Y-95.83
X157.97Y-96.62
X157.97Y-97.41
X157.99Y-98.22
X158.06Y-101.58
X158.08Y-122.08
X158.11Y-92.72
X158.15Y-102.37
X158.18Y-107.5
X158.25Y-128.25
X158.5Y-84.75
X158.57Y-92.09
X159.25Y-128.25
X159.35Y-89.3
X159.42Y-102.0
X159.47Y-94.28
X159.5Y-84.75
X159.515Y-99.694
X159.52Y-111.69
X159.56Y-104.51
X159.6Y-96.94
X159.6Y-109.88
X159.6Y-114.01
X159.62Y-123.85
X159.69Y-107.43
X159.816Y-119.121
X159.82Y-116.76
X159.82Y-122.22
X159.99Y-127.21
X160.25Y-128.25
X160.5Y-84.75
X161.0Y-85.5
X161.0Y-86.5
X161.0Y-87.5
X161.0Y-88.5
X161.0Y-89.5
X161.0Y-90.5
X161.0Y-91.5
X161.0Y-92.5
X161.0Y-93.5
X161.0Y-94.5
X161.0Y-95.5
X161.0Y-96.5
X161.0Y-97.5
X161.0Y-98.5
X161.0Y-99.5
X161.0Y-100.5
X161.0Y-101.5
X161.0Y-102.5
X161.0Y-103.5
X161.0Y-104.5
X161.0Y-105.5
X161.0Y-106.5
X161.0Y-107.5
X161.0Y-108.5
X161.0Y-109.5
X161.0Y-110.5
X161.0Y-111.5
X161.0Y-112.5
X161.0Y-113.5
X161.0Y-114.5
X161.0Y-115.5
X161.0Y-116.5
X161.0Y-117.5
X161.0Y-118.5
X161.0Y-119.5
X161.0Y-120.5
X161.0Y-121.5
X161.0Y-122.5
X161.0Y-123.5
X161.0Y-124.5
X161.0Y-125.5
X161.0Y-126.5
X161.0Y-127.5
T3
X144.32Y-112.65
X144.32Y-113.92
X144.32Y-115.19
X144.32Y-116.46
X144.32Y-117.73
X145.59Y-112.65
X145.59Y-113.92
X145.59Y-115.19
X145.59Y-116.46
X145.59Y-117.73
T4
X157.05Y-88.78
X157.05Y-91.32
T5
X109.91Y-119.255
X109.91Y-121.795
X133.94Y-123.57
X138.94Y-123.57
M30
