%TF.GenerationSoftware,KiCad,Pcbnew,8.0.3*%
%TF.CreationDate,2024-12-28T15:27:52+01:00*%
%TF.ProjectId,picoballoon,7069636f-6261-46c6-9c6f-6f6e2e6b6963,rev?*%
%TF.SameCoordinates,Original*%
%TF.FileFunction,Drillmap*%
%TF.FilePolarity,Positive*%
%FSLAX45Y45*%
G04 Gerber Fmt 4.5, Leading zero omitted, Abs format (unit mm)*
G04 Created by KiCad (PCBNEW 8.0.3) date 2024-12-28 15:27:52*
%MOMM*%
%LPD*%
G01*
G04 APERTURE LIST*
%ADD10C,0.100000*%
%ADD11C,0.200000*%
G04 APERTURE END LIST*
D10*
X10677000Y-6601000D02*
X16177000Y-6601000D01*
X16177000Y-12901000D01*
X10677000Y-12901000D01*
X10677000Y-6601000D01*
D11*
D10*
X14181500Y-8871000D02*
X14201500Y-8891000D01*
X14201500Y-8871000D02*
X14181500Y-8891000D01*
X14181500Y-9081000D02*
X14201500Y-9101000D01*
X14201500Y-9081000D02*
X14181500Y-9101000D01*
X14182000Y-8975000D02*
X14202000Y-8995000D01*
X14202000Y-8975000D02*
X14182000Y-8995000D01*
X14286000Y-8871000D02*
X14306000Y-8891000D01*
X14306000Y-8871000D02*
X14286000Y-8891000D01*
X14286000Y-9081000D02*
X14306000Y-9101000D01*
X14306000Y-9081000D02*
X14286000Y-9101000D01*
X14286500Y-8976000D02*
X14306500Y-8996000D01*
X14306500Y-8976000D02*
X14286500Y-8996000D01*
X14391000Y-8975000D02*
X14411000Y-8995000D01*
X14411000Y-8975000D02*
X14391000Y-8995000D01*
X14391500Y-8871000D02*
X14411500Y-8891000D01*
X14411500Y-8871000D02*
X14391500Y-8891000D01*
X14391500Y-9081000D02*
X14411500Y-9101000D01*
X14411500Y-9081000D02*
X14391500Y-9101000D01*
X10765000Y-8475000D02*
G75*
G02*
X10735000Y-8475000I-15000J0D01*
G01*
X10735000Y-8475000D02*
G75*
G02*
X10765000Y-8475000I15000J0D01*
G01*
X10765000Y-8550000D02*
G75*
G02*
X10735000Y-8550000I-15000J0D01*
G01*
X10735000Y-8550000D02*
G75*
G02*
X10765000Y-8550000I15000J0D01*
G01*
X10765000Y-8650000D02*
G75*
G02*
X10735000Y-8650000I-15000J0D01*
G01*
X10735000Y-8650000D02*
G75*
G02*
X10765000Y-8650000I15000J0D01*
G01*
X10765000Y-8750000D02*
G75*
G02*
X10735000Y-8750000I-15000J0D01*
G01*
X10735000Y-8750000D02*
G75*
G02*
X10765000Y-8750000I15000J0D01*
G01*
X10765000Y-8850000D02*
G75*
G02*
X10735000Y-8850000I-15000J0D01*
G01*
X10735000Y-8850000D02*
G75*
G02*
X10765000Y-8850000I15000J0D01*
G01*
X10765000Y-8950000D02*
G75*
G02*
X10735000Y-8950000I-15000J0D01*
G01*
X10735000Y-8950000D02*
G75*
G02*
X10765000Y-8950000I15000J0D01*
G01*
X10765000Y-9050000D02*
G75*
G02*
X10735000Y-9050000I-15000J0D01*
G01*
X10735000Y-9050000D02*
G75*
G02*
X10765000Y-9050000I15000J0D01*
G01*
X10765000Y-9150000D02*
G75*
G02*
X10735000Y-9150000I-15000J0D01*
G01*
X10735000Y-9150000D02*
G75*
G02*
X10765000Y-9150000I15000J0D01*
G01*
X10765000Y-9250000D02*
G75*
G02*
X10735000Y-9250000I-15000J0D01*
G01*
X10735000Y-9250000D02*
G75*
G02*
X10765000Y-9250000I15000J0D01*
G01*
X10765000Y-9350000D02*
G75*
G02*
X10735000Y-9350000I-15000J0D01*
G01*
X10735000Y-9350000D02*
G75*
G02*
X10765000Y-9350000I15000J0D01*
G01*
X10765000Y-9450000D02*
G75*
G02*
X10735000Y-9450000I-15000J0D01*
G01*
X10735000Y-9450000D02*
G75*
G02*
X10765000Y-9450000I15000J0D01*
G01*
X10765000Y-9550000D02*
G75*
G02*
X10735000Y-9550000I-15000J0D01*
G01*
X10735000Y-9550000D02*
G75*
G02*
X10765000Y-9550000I15000J0D01*
G01*
X10765000Y-9650000D02*
G75*
G02*
X10735000Y-9650000I-15000J0D01*
G01*
X10735000Y-9650000D02*
G75*
G02*
X10765000Y-9650000I15000J0D01*
G01*
X10765000Y-9750000D02*
G75*
G02*
X10735000Y-9750000I-15000J0D01*
G01*
X10735000Y-9750000D02*
G75*
G02*
X10765000Y-9750000I15000J0D01*
G01*
X10765000Y-9850000D02*
G75*
G02*
X10735000Y-9850000I-15000J0D01*
G01*
X10735000Y-9850000D02*
G75*
G02*
X10765000Y-9850000I15000J0D01*
G01*
X10765000Y-9950000D02*
G75*
G02*
X10735000Y-9950000I-15000J0D01*
G01*
X10735000Y-9950000D02*
G75*
G02*
X10765000Y-9950000I15000J0D01*
G01*
X10765000Y-10050000D02*
G75*
G02*
X10735000Y-10050000I-15000J0D01*
G01*
X10735000Y-10050000D02*
G75*
G02*
X10765000Y-10050000I15000J0D01*
G01*
X10765000Y-10150000D02*
G75*
G02*
X10735000Y-10150000I-15000J0D01*
G01*
X10735000Y-10150000D02*
G75*
G02*
X10765000Y-10150000I15000J0D01*
G01*
X10765000Y-10250000D02*
G75*
G02*
X10735000Y-10250000I-15000J0D01*
G01*
X10735000Y-10250000D02*
G75*
G02*
X10765000Y-10250000I15000J0D01*
G01*
X10765000Y-10350000D02*
G75*
G02*
X10735000Y-10350000I-15000J0D01*
G01*
X10735000Y-10350000D02*
G75*
G02*
X10765000Y-10350000I15000J0D01*
G01*
X10765000Y-10450000D02*
G75*
G02*
X10735000Y-10450000I-15000J0D01*
G01*
X10735000Y-10450000D02*
G75*
G02*
X10765000Y-10450000I15000J0D01*
G01*
X10765000Y-10550000D02*
G75*
G02*
X10735000Y-10550000I-15000J0D01*
G01*
X10735000Y-10550000D02*
G75*
G02*
X10765000Y-10550000I15000J0D01*
G01*
X10765000Y-10650000D02*
G75*
G02*
X10735000Y-10650000I-15000J0D01*
G01*
X10735000Y-10650000D02*
G75*
G02*
X10765000Y-10650000I15000J0D01*
G01*
X10765000Y-10750000D02*
G75*
G02*
X10735000Y-10750000I-15000J0D01*
G01*
X10735000Y-10750000D02*
G75*
G02*
X10765000Y-10750000I15000J0D01*
G01*
X10765000Y-10850000D02*
G75*
G02*
X10735000Y-10850000I-15000J0D01*
G01*
X10735000Y-10850000D02*
G75*
G02*
X10765000Y-10850000I15000J0D01*
G01*
X10765000Y-10950000D02*
G75*
G02*
X10735000Y-10950000I-15000J0D01*
G01*
X10735000Y-10950000D02*
G75*
G02*
X10765000Y-10950000I15000J0D01*
G01*
X10765000Y-11050000D02*
G75*
G02*
X10735000Y-11050000I-15000J0D01*
G01*
X10735000Y-11050000D02*
G75*
G02*
X10765000Y-11050000I15000J0D01*
G01*
X10765000Y-11150000D02*
G75*
G02*
X10735000Y-11150000I-15000J0D01*
G01*
X10735000Y-11150000D02*
G75*
G02*
X10765000Y-11150000I15000J0D01*
G01*
X10765000Y-11250000D02*
G75*
G02*
X10735000Y-11250000I-15000J0D01*
G01*
X10735000Y-11250000D02*
G75*
G02*
X10765000Y-11250000I15000J0D01*
G01*
X10765000Y-11350000D02*
G75*
G02*
X10735000Y-11350000I-15000J0D01*
G01*
X10735000Y-11350000D02*
G75*
G02*
X10765000Y-11350000I15000J0D01*
G01*
X10765000Y-11450000D02*
G75*
G02*
X10735000Y-11450000I-15000J0D01*
G01*
X10735000Y-11450000D02*
G75*
G02*
X10765000Y-11450000I15000J0D01*
G01*
X10765000Y-11550000D02*
G75*
G02*
X10735000Y-11550000I-15000J0D01*
G01*
X10735000Y-11550000D02*
G75*
G02*
X10765000Y-11550000I15000J0D01*
G01*
X10765000Y-11650000D02*
G75*
G02*
X10735000Y-11650000I-15000J0D01*
G01*
X10735000Y-11650000D02*
G75*
G02*
X10765000Y-11650000I15000J0D01*
G01*
X10765000Y-11750000D02*
G75*
G02*
X10735000Y-11750000I-15000J0D01*
G01*
X10735000Y-11750000D02*
G75*
G02*
X10765000Y-11750000I15000J0D01*
G01*
X10765000Y-11850000D02*
G75*
G02*
X10735000Y-11850000I-15000J0D01*
G01*
X10735000Y-11850000D02*
G75*
G02*
X10765000Y-11850000I15000J0D01*
G01*
X10765000Y-11950000D02*
G75*
G02*
X10735000Y-11950000I-15000J0D01*
G01*
X10735000Y-11950000D02*
G75*
G02*
X10765000Y-11950000I15000J0D01*
G01*
X10765000Y-12050000D02*
G75*
G02*
X10735000Y-12050000I-15000J0D01*
G01*
X10735000Y-12050000D02*
G75*
G02*
X10765000Y-12050000I15000J0D01*
G01*
X10765000Y-12150000D02*
G75*
G02*
X10735000Y-12150000I-15000J0D01*
G01*
X10735000Y-12150000D02*
G75*
G02*
X10765000Y-12150000I15000J0D01*
G01*
X10765000Y-12250000D02*
G75*
G02*
X10735000Y-12250000I-15000J0D01*
G01*
X10735000Y-12250000D02*
G75*
G02*
X10765000Y-12250000I15000J0D01*
G01*
X10765000Y-12350000D02*
G75*
G02*
X10735000Y-12350000I-15000J0D01*
G01*
X10735000Y-12350000D02*
G75*
G02*
X10765000Y-12350000I15000J0D01*
G01*
X10765000Y-12450000D02*
G75*
G02*
X10735000Y-12450000I-15000J0D01*
G01*
X10735000Y-12450000D02*
G75*
G02*
X10765000Y-12450000I15000J0D01*
G01*
X10765000Y-12550000D02*
G75*
G02*
X10735000Y-12550000I-15000J0D01*
G01*
X10735000Y-12550000D02*
G75*
G02*
X10765000Y-12550000I15000J0D01*
G01*
X10765000Y-12650000D02*
G75*
G02*
X10735000Y-12650000I-15000J0D01*
G01*
X10735000Y-12650000D02*
G75*
G02*
X10765000Y-12650000I15000J0D01*
G01*
X10765000Y-12750000D02*
G75*
G02*
X10735000Y-12750000I-15000J0D01*
G01*
X10735000Y-12750000D02*
G75*
G02*
X10765000Y-12750000I15000J0D01*
G01*
X10840000Y-12825000D02*
G75*
G02*
X10810000Y-12825000I-15000J0D01*
G01*
X10810000Y-12825000D02*
G75*
G02*
X10840000Y-12825000I15000J0D01*
G01*
X10861000Y-12352000D02*
G75*
G02*
X10831000Y-12352000I-15000J0D01*
G01*
X10831000Y-12352000D02*
G75*
G02*
X10861000Y-12352000I15000J0D01*
G01*
X10864000Y-9433000D02*
G75*
G02*
X10834000Y-9433000I-15000J0D01*
G01*
X10834000Y-9433000D02*
G75*
G02*
X10864000Y-9433000I15000J0D01*
G01*
X10865000Y-8475000D02*
G75*
G02*
X10835000Y-8475000I-15000J0D01*
G01*
X10835000Y-8475000D02*
G75*
G02*
X10865000Y-8475000I15000J0D01*
G01*
X10909000Y-9747000D02*
G75*
G02*
X10879000Y-9747000I-15000J0D01*
G01*
X10879000Y-9747000D02*
G75*
G02*
X10909000Y-9747000I15000J0D01*
G01*
X10911000Y-10217000D02*
G75*
G02*
X10881000Y-10217000I-15000J0D01*
G01*
X10881000Y-10217000D02*
G75*
G02*
X10911000Y-10217000I15000J0D01*
G01*
X10922000Y-10666000D02*
G75*
G02*
X10892000Y-10666000I-15000J0D01*
G01*
X10892000Y-10666000D02*
G75*
G02*
X10922000Y-10666000I15000J0D01*
G01*
X10941294Y-12823737D02*
G75*
G02*
X10911294Y-12823737I-15000J0D01*
G01*
X10911294Y-12823737D02*
G75*
G02*
X10941294Y-12823737I15000J0D01*
G01*
X10965000Y-8475000D02*
G75*
G02*
X10935000Y-8475000I-15000J0D01*
G01*
X10935000Y-8475000D02*
G75*
G02*
X10965000Y-8475000I15000J0D01*
G01*
X10973000Y-11530000D02*
G75*
G02*
X10943000Y-11530000I-15000J0D01*
G01*
X10943000Y-11530000D02*
G75*
G02*
X10973000Y-11530000I15000J0D01*
G01*
X10983000Y-10888000D02*
G75*
G02*
X10953000Y-10888000I-15000J0D01*
G01*
X10953000Y-10888000D02*
G75*
G02*
X10983000Y-10888000I15000J0D01*
G01*
X11040000Y-12825000D02*
G75*
G02*
X11010000Y-12825000I-15000J0D01*
G01*
X11010000Y-12825000D02*
G75*
G02*
X11040000Y-12825000I15000J0D01*
G01*
X11065000Y-8475000D02*
G75*
G02*
X11035000Y-8475000I-15000J0D01*
G01*
X11035000Y-8475000D02*
G75*
G02*
X11065000Y-8475000I15000J0D01*
G01*
X11084000Y-11181000D02*
G75*
G02*
X11054000Y-11181000I-15000J0D01*
G01*
X11054000Y-11181000D02*
G75*
G02*
X11084000Y-11181000I15000J0D01*
G01*
X11140000Y-12825000D02*
G75*
G02*
X11110000Y-12825000I-15000J0D01*
G01*
X11110000Y-12825000D02*
G75*
G02*
X11140000Y-12825000I15000J0D01*
G01*
X11165000Y-8475000D02*
G75*
G02*
X11135000Y-8475000I-15000J0D01*
G01*
X11135000Y-8475000D02*
G75*
G02*
X11165000Y-8475000I15000J0D01*
G01*
X11183000Y-8978000D02*
G75*
G02*
X11153000Y-8978000I-15000J0D01*
G01*
X11153000Y-8978000D02*
G75*
G02*
X11183000Y-8978000I15000J0D01*
G01*
X11184000Y-11673000D02*
G75*
G02*
X11154000Y-11673000I-15000J0D01*
G01*
X11154000Y-11673000D02*
G75*
G02*
X11184000Y-11673000I15000J0D01*
G01*
X11186000Y-9728000D02*
G75*
G02*
X11156000Y-9728000I-15000J0D01*
G01*
X11156000Y-9728000D02*
G75*
G02*
X11186000Y-9728000I15000J0D01*
G01*
X11192000Y-10697000D02*
G75*
G02*
X11162000Y-10697000I-15000J0D01*
G01*
X11162000Y-10697000D02*
G75*
G02*
X11192000Y-10697000I15000J0D01*
G01*
X11221000Y-12205000D02*
G75*
G02*
X11191000Y-12205000I-15000J0D01*
G01*
X11191000Y-12205000D02*
G75*
G02*
X11221000Y-12205000I15000J0D01*
G01*
X11223000Y-9133000D02*
G75*
G02*
X11193000Y-9133000I-15000J0D01*
G01*
X11193000Y-9133000D02*
G75*
G02*
X11223000Y-9133000I15000J0D01*
G01*
X11225000Y-11441000D02*
G75*
G02*
X11195000Y-11441000I-15000J0D01*
G01*
X11195000Y-11441000D02*
G75*
G02*
X11225000Y-11441000I15000J0D01*
G01*
X11240000Y-12825000D02*
G75*
G02*
X11210000Y-12825000I-15000J0D01*
G01*
X11210000Y-12825000D02*
G75*
G02*
X11240000Y-12825000I15000J0D01*
G01*
X11253000Y-12055000D02*
G75*
G02*
X11223000Y-12055000I-15000J0D01*
G01*
X11223000Y-12055000D02*
G75*
G02*
X11253000Y-12055000I15000J0D01*
G01*
X11258000Y-9402000D02*
G75*
G02*
X11228000Y-9402000I-15000J0D01*
G01*
X11228000Y-9402000D02*
G75*
G02*
X11258000Y-9402000I15000J0D01*
G01*
X11265000Y-8475000D02*
G75*
G02*
X11235000Y-8475000I-15000J0D01*
G01*
X11235000Y-8475000D02*
G75*
G02*
X11265000Y-8475000I15000J0D01*
G01*
X11269000Y-8956000D02*
G75*
G02*
X11239000Y-8956000I-15000J0D01*
G01*
X11239000Y-8956000D02*
G75*
G02*
X11269000Y-8956000I15000J0D01*
G01*
X11284000Y-9085000D02*
G75*
G02*
X11254000Y-9085000I-15000J0D01*
G01*
X11254000Y-9085000D02*
G75*
G02*
X11284000Y-9085000I15000J0D01*
G01*
X11294000Y-12729000D02*
G75*
G02*
X11264000Y-12729000I-15000J0D01*
G01*
X11264000Y-12729000D02*
G75*
G02*
X11294000Y-12729000I15000J0D01*
G01*
X11308000Y-8578000D02*
G75*
G02*
X11278000Y-8578000I-15000J0D01*
G01*
X11278000Y-8578000D02*
G75*
G02*
X11308000Y-8578000I15000J0D01*
G01*
X11327000Y-8747000D02*
G75*
G02*
X11297000Y-8747000I-15000J0D01*
G01*
X11297000Y-8747000D02*
G75*
G02*
X11327000Y-8747000I15000J0D01*
G01*
X11340000Y-12825000D02*
G75*
G02*
X11310000Y-12825000I-15000J0D01*
G01*
X11310000Y-12825000D02*
G75*
G02*
X11340000Y-12825000I15000J0D01*
G01*
X11355000Y-10627000D02*
G75*
G02*
X11325000Y-10627000I-15000J0D01*
G01*
X11325000Y-10627000D02*
G75*
G02*
X11355000Y-10627000I15000J0D01*
G01*
X11357000Y-10193000D02*
G75*
G02*
X11327000Y-10193000I-15000J0D01*
G01*
X11327000Y-10193000D02*
G75*
G02*
X11357000Y-10193000I15000J0D01*
G01*
X11365000Y-8475000D02*
G75*
G02*
X11335000Y-8475000I-15000J0D01*
G01*
X11335000Y-8475000D02*
G75*
G02*
X11365000Y-8475000I15000J0D01*
G01*
X11378000Y-11257000D02*
G75*
G02*
X11348000Y-11257000I-15000J0D01*
G01*
X11348000Y-11257000D02*
G75*
G02*
X11378000Y-11257000I15000J0D01*
G01*
X11380000Y-11586000D02*
G75*
G02*
X11350000Y-11586000I-15000J0D01*
G01*
X11350000Y-11586000D02*
G75*
G02*
X11380000Y-11586000I15000J0D01*
G01*
X11407000Y-12730000D02*
G75*
G02*
X11377000Y-12730000I-15000J0D01*
G01*
X11377000Y-12730000D02*
G75*
G02*
X11407000Y-12730000I15000J0D01*
G01*
X11440000Y-12825000D02*
G75*
G02*
X11410000Y-12825000I-15000J0D01*
G01*
X11410000Y-12825000D02*
G75*
G02*
X11440000Y-12825000I15000J0D01*
G01*
X11465000Y-8475000D02*
G75*
G02*
X11435000Y-8475000I-15000J0D01*
G01*
X11435000Y-8475000D02*
G75*
G02*
X11465000Y-8475000I15000J0D01*
G01*
X11470000Y-10382000D02*
G75*
G02*
X11440000Y-10382000I-15000J0D01*
G01*
X11440000Y-10382000D02*
G75*
G02*
X11470000Y-10382000I15000J0D01*
G01*
X11475000Y-9926000D02*
G75*
G02*
X11445000Y-9926000I-15000J0D01*
G01*
X11445000Y-9926000D02*
G75*
G02*
X11475000Y-9926000I15000J0D01*
G01*
X11475000Y-12122000D02*
G75*
G02*
X11445000Y-12122000I-15000J0D01*
G01*
X11445000Y-12122000D02*
G75*
G02*
X11475000Y-12122000I15000J0D01*
G01*
X11514000Y-8635000D02*
G75*
G02*
X11484000Y-8635000I-15000J0D01*
G01*
X11484000Y-8635000D02*
G75*
G02*
X11514000Y-8635000I15000J0D01*
G01*
X11540000Y-12825000D02*
G75*
G02*
X11510000Y-12825000I-15000J0D01*
G01*
X11510000Y-12825000D02*
G75*
G02*
X11540000Y-12825000I15000J0D01*
G01*
X11565000Y-8475000D02*
G75*
G02*
X11535000Y-8475000I-15000J0D01*
G01*
X11535000Y-8475000D02*
G75*
G02*
X11565000Y-8475000I15000J0D01*
G01*
X11580000Y-11399000D02*
G75*
G02*
X11550000Y-11399000I-15000J0D01*
G01*
X11550000Y-11399000D02*
G75*
G02*
X11580000Y-11399000I15000J0D01*
G01*
X11582000Y-12736000D02*
G75*
G02*
X11552000Y-12736000I-15000J0D01*
G01*
X11552000Y-12736000D02*
G75*
G02*
X11582000Y-12736000I15000J0D01*
G01*
X11599000Y-10033000D02*
G75*
G02*
X11569000Y-10033000I-15000J0D01*
G01*
X11569000Y-10033000D02*
G75*
G02*
X11599000Y-10033000I15000J0D01*
G01*
X11628000Y-11089000D02*
G75*
G02*
X11598000Y-11089000I-15000J0D01*
G01*
X11598000Y-11089000D02*
G75*
G02*
X11628000Y-11089000I15000J0D01*
G01*
X11640000Y-12825000D02*
G75*
G02*
X11610000Y-12825000I-15000J0D01*
G01*
X11610000Y-12825000D02*
G75*
G02*
X11640000Y-12825000I15000J0D01*
G01*
X11649000Y-12129000D02*
G75*
G02*
X11619000Y-12129000I-15000J0D01*
G01*
X11619000Y-12129000D02*
G75*
G02*
X11649000Y-12129000I15000J0D01*
G01*
X11665000Y-8475000D02*
G75*
G02*
X11635000Y-8475000I-15000J0D01*
G01*
X11635000Y-8475000D02*
G75*
G02*
X11665000Y-8475000I15000J0D01*
G01*
X11690000Y-8725000D02*
G75*
G02*
X11660000Y-8725000I-15000J0D01*
G01*
X11660000Y-8725000D02*
G75*
G02*
X11690000Y-8725000I15000J0D01*
G01*
X11740000Y-12825000D02*
G75*
G02*
X11710000Y-12825000I-15000J0D01*
G01*
X11710000Y-12825000D02*
G75*
G02*
X11740000Y-12825000I15000J0D01*
G01*
X11747000Y-12724000D02*
G75*
G02*
X11717000Y-12724000I-15000J0D01*
G01*
X11717000Y-12724000D02*
G75*
G02*
X11747000Y-12724000I15000J0D01*
G01*
X11752000Y-10294000D02*
G75*
G02*
X11722000Y-10294000I-15000J0D01*
G01*
X11722000Y-10294000D02*
G75*
G02*
X11752000Y-10294000I15000J0D01*
G01*
X11765000Y-8475000D02*
G75*
G02*
X11735000Y-8475000I-15000J0D01*
G01*
X11735000Y-8475000D02*
G75*
G02*
X11765000Y-8475000I15000J0D01*
G01*
X11840000Y-12825000D02*
G75*
G02*
X11810000Y-12825000I-15000J0D01*
G01*
X11810000Y-12825000D02*
G75*
G02*
X11840000Y-12825000I15000J0D01*
G01*
X11865000Y-8475000D02*
G75*
G02*
X11835000Y-8475000I-15000J0D01*
G01*
X11835000Y-8475000D02*
G75*
G02*
X11865000Y-8475000I15000J0D01*
G01*
X11911000Y-11305000D02*
G75*
G02*
X11881000Y-11305000I-15000J0D01*
G01*
X11881000Y-11305000D02*
G75*
G02*
X11911000Y-11305000I15000J0D01*
G01*
X11937000Y-8605000D02*
G75*
G02*
X11907000Y-8605000I-15000J0D01*
G01*
X11907000Y-8605000D02*
G75*
G02*
X11937000Y-8605000I15000J0D01*
G01*
X11940000Y-12825000D02*
G75*
G02*
X11910000Y-12825000I-15000J0D01*
G01*
X11910000Y-12825000D02*
G75*
G02*
X11940000Y-12825000I15000J0D01*
G01*
X11965000Y-8475000D02*
G75*
G02*
X11935000Y-8475000I-15000J0D01*
G01*
X11935000Y-8475000D02*
G75*
G02*
X11965000Y-8475000I15000J0D01*
G01*
X11984000Y-11089000D02*
G75*
G02*
X11954000Y-11089000I-15000J0D01*
G01*
X11954000Y-11089000D02*
G75*
G02*
X11984000Y-11089000I15000J0D01*
G01*
X12012000Y-11528000D02*
G75*
G02*
X11982000Y-11528000I-15000J0D01*
G01*
X11982000Y-11528000D02*
G75*
G02*
X12012000Y-11528000I15000J0D01*
G01*
X12040000Y-12825000D02*
G75*
G02*
X12010000Y-12825000I-15000J0D01*
G01*
X12010000Y-12825000D02*
G75*
G02*
X12040000Y-12825000I15000J0D01*
G01*
X12046000Y-12495000D02*
G75*
G02*
X12016000Y-12495000I-15000J0D01*
G01*
X12016000Y-12495000D02*
G75*
G02*
X12046000Y-12495000I15000J0D01*
G01*
X12065000Y-8475000D02*
G75*
G02*
X12035000Y-8475000I-15000J0D01*
G01*
X12035000Y-8475000D02*
G75*
G02*
X12065000Y-8475000I15000J0D01*
G01*
X12117000Y-12728000D02*
G75*
G02*
X12087000Y-12728000I-15000J0D01*
G01*
X12087000Y-12728000D02*
G75*
G02*
X12117000Y-12728000I15000J0D01*
G01*
X12139107Y-8727030D02*
G75*
G02*
X12109107Y-8727030I-15000J0D01*
G01*
X12109107Y-8727030D02*
G75*
G02*
X12139107Y-8727030I15000J0D01*
G01*
X12140000Y-12825000D02*
G75*
G02*
X12110000Y-12825000I-15000J0D01*
G01*
X12110000Y-12825000D02*
G75*
G02*
X12140000Y-12825000I15000J0D01*
G01*
X12150000Y-11280000D02*
G75*
G02*
X12120000Y-11280000I-15000J0D01*
G01*
X12120000Y-11280000D02*
G75*
G02*
X12150000Y-11280000I15000J0D01*
G01*
X12165000Y-8475000D02*
G75*
G02*
X12135000Y-8475000I-15000J0D01*
G01*
X12135000Y-8475000D02*
G75*
G02*
X12165000Y-8475000I15000J0D01*
G01*
X12182000Y-9949000D02*
G75*
G02*
X12152000Y-9949000I-15000J0D01*
G01*
X12152000Y-9949000D02*
G75*
G02*
X12182000Y-9949000I15000J0D01*
G01*
X12196000Y-10756000D02*
G75*
G02*
X12166000Y-10756000I-15000J0D01*
G01*
X12166000Y-10756000D02*
G75*
G02*
X12196000Y-10756000I15000J0D01*
G01*
X12197000Y-10951000D02*
G75*
G02*
X12167000Y-10951000I-15000J0D01*
G01*
X12167000Y-10951000D02*
G75*
G02*
X12197000Y-10951000I15000J0D01*
G01*
X12205000Y-10241000D02*
G75*
G02*
X12175000Y-10241000I-15000J0D01*
G01*
X12175000Y-10241000D02*
G75*
G02*
X12205000Y-10241000I15000J0D01*
G01*
X12205000Y-12181000D02*
G75*
G02*
X12175000Y-12181000I-15000J0D01*
G01*
X12175000Y-12181000D02*
G75*
G02*
X12205000Y-12181000I15000J0D01*
G01*
X12240000Y-12825000D02*
G75*
G02*
X12210000Y-12825000I-15000J0D01*
G01*
X12210000Y-12825000D02*
G75*
G02*
X12240000Y-12825000I15000J0D01*
G01*
X12265000Y-8475000D02*
G75*
G02*
X12235000Y-8475000I-15000J0D01*
G01*
X12235000Y-8475000D02*
G75*
G02*
X12265000Y-8475000I15000J0D01*
G01*
X12304000Y-11826000D02*
G75*
G02*
X12274000Y-11826000I-15000J0D01*
G01*
X12274000Y-11826000D02*
G75*
G02*
X12304000Y-11826000I15000J0D01*
G01*
X12340000Y-12825000D02*
G75*
G02*
X12310000Y-12825000I-15000J0D01*
G01*
X12310000Y-12825000D02*
G75*
G02*
X12340000Y-12825000I15000J0D01*
G01*
X12365000Y-8475000D02*
G75*
G02*
X12335000Y-8475000I-15000J0D01*
G01*
X12335000Y-8475000D02*
G75*
G02*
X12365000Y-8475000I15000J0D01*
G01*
X12367000Y-12177000D02*
G75*
G02*
X12337000Y-12177000I-15000J0D01*
G01*
X12337000Y-12177000D02*
G75*
G02*
X12367000Y-12177000I15000J0D01*
G01*
X12373000Y-11523000D02*
G75*
G02*
X12343000Y-11523000I-15000J0D01*
G01*
X12343000Y-11523000D02*
G75*
G02*
X12373000Y-11523000I15000J0D01*
G01*
X12411000Y-12718000D02*
G75*
G02*
X12381000Y-12718000I-15000J0D01*
G01*
X12381000Y-12718000D02*
G75*
G02*
X12411000Y-12718000I15000J0D01*
G01*
X12429000Y-8601000D02*
G75*
G02*
X12399000Y-8601000I-15000J0D01*
G01*
X12399000Y-8601000D02*
G75*
G02*
X12429000Y-8601000I15000J0D01*
G01*
X12439000Y-12495000D02*
G75*
G02*
X12409000Y-12495000I-15000J0D01*
G01*
X12409000Y-12495000D02*
G75*
G02*
X12439000Y-12495000I15000J0D01*
G01*
X12440000Y-12825000D02*
G75*
G02*
X12410000Y-12825000I-15000J0D01*
G01*
X12410000Y-12825000D02*
G75*
G02*
X12440000Y-12825000I15000J0D01*
G01*
X12465000Y-8475000D02*
G75*
G02*
X12435000Y-8475000I-15000J0D01*
G01*
X12435000Y-8475000D02*
G75*
G02*
X12465000Y-8475000I15000J0D01*
G01*
X12493000Y-12179000D02*
G75*
G02*
X12463000Y-12179000I-15000J0D01*
G01*
X12463000Y-12179000D02*
G75*
G02*
X12493000Y-12179000I15000J0D01*
G01*
X12540000Y-12825000D02*
G75*
G02*
X12510000Y-12825000I-15000J0D01*
G01*
X12510000Y-12825000D02*
G75*
G02*
X12540000Y-12825000I15000J0D01*
G01*
X12565000Y-8475000D02*
G75*
G02*
X12535000Y-8475000I-15000J0D01*
G01*
X12535000Y-8475000D02*
G75*
G02*
X12565000Y-8475000I15000J0D01*
G01*
X12580000Y-11891000D02*
G75*
G02*
X12550000Y-11891000I-15000J0D01*
G01*
X12550000Y-11891000D02*
G75*
G02*
X12580000Y-11891000I15000J0D01*
G01*
X12592000Y-8760000D02*
G75*
G02*
X12562000Y-8760000I-15000J0D01*
G01*
X12562000Y-8760000D02*
G75*
G02*
X12592000Y-8760000I15000J0D01*
G01*
X12610000Y-9486000D02*
G75*
G02*
X12580000Y-9486000I-15000J0D01*
G01*
X12580000Y-9486000D02*
G75*
G02*
X12610000Y-9486000I15000J0D01*
G01*
X12613000Y-10756000D02*
G75*
G02*
X12583000Y-10756000I-15000J0D01*
G01*
X12583000Y-10756000D02*
G75*
G02*
X12613000Y-10756000I15000J0D01*
G01*
X12617000Y-10554000D02*
G75*
G02*
X12587000Y-10554000I-15000J0D01*
G01*
X12587000Y-10554000D02*
G75*
G02*
X12617000Y-10554000I15000J0D01*
G01*
X12619000Y-10402000D02*
G75*
G02*
X12589000Y-10402000I-15000J0D01*
G01*
X12589000Y-10402000D02*
G75*
G02*
X12619000Y-10402000I15000J0D01*
G01*
X12624000Y-10245000D02*
G75*
G02*
X12594000Y-10245000I-15000J0D01*
G01*
X12594000Y-10245000D02*
G75*
G02*
X12624000Y-10245000I15000J0D01*
G01*
X12626000Y-9326000D02*
G75*
G02*
X12596000Y-9326000I-15000J0D01*
G01*
X12596000Y-9326000D02*
G75*
G02*
X12626000Y-9326000I15000J0D01*
G01*
X12640000Y-12825000D02*
G75*
G02*
X12610000Y-12825000I-15000J0D01*
G01*
X12610000Y-12825000D02*
G75*
G02*
X12640000Y-12825000I15000J0D01*
G01*
X12645000Y-12217000D02*
G75*
G02*
X12615000Y-12217000I-15000J0D01*
G01*
X12615000Y-12217000D02*
G75*
G02*
X12645000Y-12217000I15000J0D01*
G01*
X12665000Y-8475000D02*
G75*
G02*
X12635000Y-8475000I-15000J0D01*
G01*
X12635000Y-8475000D02*
G75*
G02*
X12665000Y-8475000I15000J0D01*
G01*
X12669283Y-11612449D02*
G75*
G02*
X12639283Y-11612449I-15000J0D01*
G01*
X12639283Y-11612449D02*
G75*
G02*
X12669283Y-11612449I15000J0D01*
G01*
X12673000Y-9958000D02*
G75*
G02*
X12643000Y-9958000I-15000J0D01*
G01*
X12643000Y-9958000D02*
G75*
G02*
X12673000Y-9958000I15000J0D01*
G01*
X12678000Y-9803000D02*
G75*
G02*
X12648000Y-9803000I-15000J0D01*
G01*
X12648000Y-9803000D02*
G75*
G02*
X12678000Y-9803000I15000J0D01*
G01*
X12740000Y-12825000D02*
G75*
G02*
X12710000Y-12825000I-15000J0D01*
G01*
X12710000Y-12825000D02*
G75*
G02*
X12740000Y-12825000I15000J0D01*
G01*
X12759000Y-11301000D02*
G75*
G02*
X12729000Y-11301000I-15000J0D01*
G01*
X12729000Y-11301000D02*
G75*
G02*
X12759000Y-11301000I15000J0D01*
G01*
X12765000Y-8475000D02*
G75*
G02*
X12735000Y-8475000I-15000J0D01*
G01*
X12735000Y-8475000D02*
G75*
G02*
X12765000Y-8475000I15000J0D01*
G01*
X12791000Y-12718000D02*
G75*
G02*
X12761000Y-12718000I-15000J0D01*
G01*
X12761000Y-12718000D02*
G75*
G02*
X12791000Y-12718000I15000J0D01*
G01*
X12801000Y-9487000D02*
G75*
G02*
X12771000Y-9487000I-15000J0D01*
G01*
X12771000Y-9487000D02*
G75*
G02*
X12801000Y-9487000I15000J0D01*
G01*
X12804000Y-12175000D02*
G75*
G02*
X12774000Y-12175000I-15000J0D01*
G01*
X12774000Y-12175000D02*
G75*
G02*
X12804000Y-12175000I15000J0D01*
G01*
X12835000Y-9960000D02*
G75*
G02*
X12805000Y-9960000I-15000J0D01*
G01*
X12805000Y-9960000D02*
G75*
G02*
X12835000Y-9960000I15000J0D01*
G01*
X12839000Y-9804000D02*
G75*
G02*
X12809000Y-9804000I-15000J0D01*
G01*
X12809000Y-9804000D02*
G75*
G02*
X12839000Y-9804000I15000J0D01*
G01*
X12840000Y-12825000D02*
G75*
G02*
X12810000Y-12825000I-15000J0D01*
G01*
X12810000Y-12825000D02*
G75*
G02*
X12840000Y-12825000I15000J0D01*
G01*
X12865000Y-8475000D02*
G75*
G02*
X12835000Y-8475000I-15000J0D01*
G01*
X12835000Y-8475000D02*
G75*
G02*
X12865000Y-8475000I15000J0D01*
G01*
X12875000Y-8622000D02*
G75*
G02*
X12845000Y-8622000I-15000J0D01*
G01*
X12845000Y-8622000D02*
G75*
G02*
X12875000Y-8622000I15000J0D01*
G01*
X12924000Y-8802000D02*
G75*
G02*
X12894000Y-8802000I-15000J0D01*
G01*
X12894000Y-8802000D02*
G75*
G02*
X12924000Y-8802000I15000J0D01*
G01*
X12929000Y-11517000D02*
G75*
G02*
X12899000Y-11517000I-15000J0D01*
G01*
X12899000Y-11517000D02*
G75*
G02*
X12929000Y-11517000I15000J0D01*
G01*
X12940000Y-12825000D02*
G75*
G02*
X12910000Y-12825000I-15000J0D01*
G01*
X12910000Y-12825000D02*
G75*
G02*
X12940000Y-12825000I15000J0D01*
G01*
X12944000Y-11821000D02*
G75*
G02*
X12914000Y-11821000I-15000J0D01*
G01*
X12914000Y-11821000D02*
G75*
G02*
X12944000Y-11821000I15000J0D01*
G01*
X12944000Y-12186000D02*
G75*
G02*
X12914000Y-12186000I-15000J0D01*
G01*
X12914000Y-12186000D02*
G75*
G02*
X12944000Y-12186000I15000J0D01*
G01*
X12950000Y-9309000D02*
G75*
G02*
X12920000Y-9309000I-15000J0D01*
G01*
X12920000Y-9309000D02*
G75*
G02*
X12950000Y-9309000I15000J0D01*
G01*
X12954000Y-9166000D02*
G75*
G02*
X12924000Y-9166000I-15000J0D01*
G01*
X12924000Y-9166000D02*
G75*
G02*
X12954000Y-9166000I15000J0D01*
G01*
X12965000Y-8475000D02*
G75*
G02*
X12935000Y-8475000I-15000J0D01*
G01*
X12935000Y-8475000D02*
G75*
G02*
X12965000Y-8475000I15000J0D01*
G01*
X12998000Y-9487000D02*
G75*
G02*
X12968000Y-9487000I-15000J0D01*
G01*
X12968000Y-9487000D02*
G75*
G02*
X12998000Y-9487000I15000J0D01*
G01*
X12999000Y-10314000D02*
G75*
G02*
X12969000Y-10314000I-15000J0D01*
G01*
X12969000Y-10314000D02*
G75*
G02*
X12999000Y-10314000I15000J0D01*
G01*
X13002000Y-9912000D02*
G75*
G02*
X12972000Y-9912000I-15000J0D01*
G01*
X12972000Y-9912000D02*
G75*
G02*
X13002000Y-9912000I15000J0D01*
G01*
X13040000Y-12825000D02*
G75*
G02*
X13010000Y-12825000I-15000J0D01*
G01*
X13010000Y-12825000D02*
G75*
G02*
X13040000Y-12825000I15000J0D01*
G01*
X13065000Y-8475000D02*
G75*
G02*
X13035000Y-8475000I-15000J0D01*
G01*
X13035000Y-8475000D02*
G75*
G02*
X13065000Y-8475000I15000J0D01*
G01*
X13085000Y-9288000D02*
G75*
G02*
X13055000Y-9288000I-15000J0D01*
G01*
X13055000Y-9288000D02*
G75*
G02*
X13085000Y-9288000I15000J0D01*
G01*
X13104000Y-12239000D02*
G75*
G02*
X13074000Y-12239000I-15000J0D01*
G01*
X13074000Y-12239000D02*
G75*
G02*
X13104000Y-12239000I15000J0D01*
G01*
X13117000Y-11092000D02*
G75*
G02*
X13087000Y-11092000I-15000J0D01*
G01*
X13087000Y-11092000D02*
G75*
G02*
X13117000Y-11092000I15000J0D01*
G01*
X13118000Y-12722000D02*
G75*
G02*
X13088000Y-12722000I-15000J0D01*
G01*
X13088000Y-12722000D02*
G75*
G02*
X13118000Y-12722000I15000J0D01*
G01*
X13120000Y-9696000D02*
G75*
G02*
X13090000Y-9696000I-15000J0D01*
G01*
X13090000Y-9696000D02*
G75*
G02*
X13120000Y-9696000I15000J0D01*
G01*
X13140000Y-12825000D02*
G75*
G02*
X13110000Y-12825000I-15000J0D01*
G01*
X13110000Y-12825000D02*
G75*
G02*
X13140000Y-12825000I15000J0D01*
G01*
X13165000Y-8475000D02*
G75*
G02*
X13135000Y-8475000I-15000J0D01*
G01*
X13135000Y-8475000D02*
G75*
G02*
X13165000Y-8475000I15000J0D01*
G01*
X13176000Y-9500000D02*
G75*
G02*
X13146000Y-9500000I-15000J0D01*
G01*
X13146000Y-9500000D02*
G75*
G02*
X13176000Y-9500000I15000J0D01*
G01*
X13240000Y-12825000D02*
G75*
G02*
X13210000Y-12825000I-15000J0D01*
G01*
X13210000Y-12825000D02*
G75*
G02*
X13240000Y-12825000I15000J0D01*
G01*
X13242000Y-9832000D02*
G75*
G02*
X13212000Y-9832000I-15000J0D01*
G01*
X13212000Y-9832000D02*
G75*
G02*
X13242000Y-9832000I15000J0D01*
G01*
X13255727Y-11780550D02*
G75*
G02*
X13225727Y-11780550I-15000J0D01*
G01*
X13225727Y-11780550D02*
G75*
G02*
X13255727Y-11780550I15000J0D01*
G01*
X13265000Y-8475000D02*
G75*
G02*
X13235000Y-8475000I-15000J0D01*
G01*
X13235000Y-8475000D02*
G75*
G02*
X13265000Y-8475000I15000J0D01*
G01*
X13314000Y-9628000D02*
G75*
G02*
X13284000Y-9628000I-15000J0D01*
G01*
X13284000Y-9628000D02*
G75*
G02*
X13314000Y-9628000I15000J0D01*
G01*
X13336000Y-12045000D02*
G75*
G02*
X13306000Y-12045000I-15000J0D01*
G01*
X13306000Y-12045000D02*
G75*
G02*
X13336000Y-12045000I15000J0D01*
G01*
X13340000Y-12825000D02*
G75*
G02*
X13310000Y-12825000I-15000J0D01*
G01*
X13310000Y-12825000D02*
G75*
G02*
X13340000Y-12825000I15000J0D01*
G01*
X13365000Y-8475000D02*
G75*
G02*
X13335000Y-8475000I-15000J0D01*
G01*
X13335000Y-8475000D02*
G75*
G02*
X13365000Y-8475000I15000J0D01*
G01*
X13370000Y-10442000D02*
G75*
G02*
X13340000Y-10442000I-15000J0D01*
G01*
X13340000Y-10442000D02*
G75*
G02*
X13370000Y-10442000I15000J0D01*
G01*
X13400000Y-8798000D02*
G75*
G02*
X13370000Y-8798000I-15000J0D01*
G01*
X13370000Y-8798000D02*
G75*
G02*
X13400000Y-8798000I15000J0D01*
G01*
X13406000Y-8929000D02*
G75*
G02*
X13376000Y-8929000I-15000J0D01*
G01*
X13376000Y-8929000D02*
G75*
G02*
X13406000Y-8929000I15000J0D01*
G01*
X13412000Y-10175000D02*
G75*
G02*
X13382000Y-10175000I-15000J0D01*
G01*
X13382000Y-10175000D02*
G75*
G02*
X13412000Y-10175000I15000J0D01*
G01*
X13431000Y-10824000D02*
G75*
G02*
X13401000Y-10824000I-15000J0D01*
G01*
X13401000Y-10824000D02*
G75*
G02*
X13431000Y-10824000I15000J0D01*
G01*
X13440000Y-12825000D02*
G75*
G02*
X13410000Y-12825000I-15000J0D01*
G01*
X13410000Y-12825000D02*
G75*
G02*
X13440000Y-12825000I15000J0D01*
G01*
X13447000Y-11328000D02*
G75*
G02*
X13417000Y-11328000I-15000J0D01*
G01*
X13417000Y-11328000D02*
G75*
G02*
X13447000Y-11328000I15000J0D01*
G01*
X13459000Y-9418000D02*
G75*
G02*
X13429000Y-9418000I-15000J0D01*
G01*
X13429000Y-9418000D02*
G75*
G02*
X13459000Y-9418000I15000J0D01*
G01*
X13461000Y-8562000D02*
G75*
G02*
X13431000Y-8562000I-15000J0D01*
G01*
X13431000Y-8562000D02*
G75*
G02*
X13461000Y-8562000I15000J0D01*
G01*
X13465000Y-8475000D02*
G75*
G02*
X13435000Y-8475000I-15000J0D01*
G01*
X13435000Y-8475000D02*
G75*
G02*
X13465000Y-8475000I15000J0D01*
G01*
X13470000Y-12671000D02*
G75*
G02*
X13440000Y-12671000I-15000J0D01*
G01*
X13440000Y-12671000D02*
G75*
G02*
X13470000Y-12671000I15000J0D01*
G01*
X13477000Y-11645000D02*
G75*
G02*
X13447000Y-11645000I-15000J0D01*
G01*
X13447000Y-11645000D02*
G75*
G02*
X13477000Y-11645000I15000J0D01*
G01*
X13485000Y-11899000D02*
G75*
G02*
X13455000Y-11899000I-15000J0D01*
G01*
X13455000Y-11899000D02*
G75*
G02*
X13485000Y-11899000I15000J0D01*
G01*
X13505000Y-9029000D02*
G75*
G02*
X13475000Y-9029000I-15000J0D01*
G01*
X13475000Y-9029000D02*
G75*
G02*
X13505000Y-9029000I15000J0D01*
G01*
X13515000Y-10642000D02*
G75*
G02*
X13485000Y-10642000I-15000J0D01*
G01*
X13485000Y-10642000D02*
G75*
G02*
X13515000Y-10642000I15000J0D01*
G01*
X13526000Y-8724000D02*
G75*
G02*
X13496000Y-8724000I-15000J0D01*
G01*
X13496000Y-8724000D02*
G75*
G02*
X13526000Y-8724000I15000J0D01*
G01*
X13528000Y-9353000D02*
G75*
G02*
X13498000Y-9353000I-15000J0D01*
G01*
X13498000Y-9353000D02*
G75*
G02*
X13528000Y-9353000I15000J0D01*
G01*
X13540000Y-12825000D02*
G75*
G02*
X13510000Y-12825000I-15000J0D01*
G01*
X13510000Y-12825000D02*
G75*
G02*
X13540000Y-12825000I15000J0D01*
G01*
X13550000Y-9515000D02*
G75*
G02*
X13520000Y-9515000I-15000J0D01*
G01*
X13520000Y-9515000D02*
G75*
G02*
X13550000Y-9515000I15000J0D01*
G01*
X13553000Y-10341000D02*
G75*
G02*
X13523000Y-10341000I-15000J0D01*
G01*
X13523000Y-10341000D02*
G75*
G02*
X13553000Y-10341000I15000J0D01*
G01*
X13565000Y-8475000D02*
G75*
G02*
X13535000Y-8475000I-15000J0D01*
G01*
X13535000Y-8475000D02*
G75*
G02*
X13565000Y-8475000I15000J0D01*
G01*
X13569000Y-9238000D02*
G75*
G02*
X13539000Y-9238000I-15000J0D01*
G01*
X13539000Y-9238000D02*
G75*
G02*
X13569000Y-9238000I15000J0D01*
G01*
X13581000Y-9645000D02*
G75*
G02*
X13551000Y-9645000I-15000J0D01*
G01*
X13551000Y-9645000D02*
G75*
G02*
X13581000Y-9645000I15000J0D01*
G01*
X13624000Y-8618000D02*
G75*
G02*
X13594000Y-8618000I-15000J0D01*
G01*
X13594000Y-8618000D02*
G75*
G02*
X13624000Y-8618000I15000J0D01*
G01*
X13631000Y-8879000D02*
G75*
G02*
X13601000Y-8879000I-15000J0D01*
G01*
X13601000Y-8879000D02*
G75*
G02*
X13631000Y-8879000I15000J0D01*
G01*
X13640000Y-12825000D02*
G75*
G02*
X13610000Y-12825000I-15000J0D01*
G01*
X13610000Y-12825000D02*
G75*
G02*
X13640000Y-12825000I15000J0D01*
G01*
X13665000Y-8475000D02*
G75*
G02*
X13635000Y-8475000I-15000J0D01*
G01*
X13635000Y-8475000D02*
G75*
G02*
X13665000Y-8475000I15000J0D01*
G01*
X13666000Y-11218000D02*
G75*
G02*
X13636000Y-11218000I-15000J0D01*
G01*
X13636000Y-11218000D02*
G75*
G02*
X13666000Y-11218000I15000J0D01*
G01*
X13668000Y-11343000D02*
G75*
G02*
X13638000Y-11343000I-15000J0D01*
G01*
X13638000Y-11343000D02*
G75*
G02*
X13668000Y-11343000I15000J0D01*
G01*
X13683000Y-9725000D02*
G75*
G02*
X13653000Y-9725000I-15000J0D01*
G01*
X13653000Y-9725000D02*
G75*
G02*
X13683000Y-9725000I15000J0D01*
G01*
X13712000Y-10131000D02*
G75*
G02*
X13682000Y-10131000I-15000J0D01*
G01*
X13682000Y-10131000D02*
G75*
G02*
X13712000Y-10131000I15000J0D01*
G01*
X13721000Y-9115000D02*
G75*
G02*
X13691000Y-9115000I-15000J0D01*
G01*
X13691000Y-9115000D02*
G75*
G02*
X13721000Y-9115000I15000J0D01*
G01*
X13728000Y-12046000D02*
G75*
G02*
X13698000Y-12046000I-15000J0D01*
G01*
X13698000Y-12046000D02*
G75*
G02*
X13728000Y-12046000I15000J0D01*
G01*
X13732000Y-9396000D02*
G75*
G02*
X13702000Y-9396000I-15000J0D01*
G01*
X13702000Y-9396000D02*
G75*
G02*
X13732000Y-9396000I15000J0D01*
G01*
X13739000Y-11781998D02*
G75*
G02*
X13709000Y-11781998I-15000J0D01*
G01*
X13709000Y-11781998D02*
G75*
G02*
X13739000Y-11781998I15000J0D01*
G01*
X13740000Y-11434000D02*
G75*
G02*
X13710000Y-11434000I-15000J0D01*
G01*
X13710000Y-11434000D02*
G75*
G02*
X13740000Y-11434000I15000J0D01*
G01*
X13740000Y-12825000D02*
G75*
G02*
X13710000Y-12825000I-15000J0D01*
G01*
X13710000Y-12825000D02*
G75*
G02*
X13740000Y-12825000I15000J0D01*
G01*
X13765000Y-8475000D02*
G75*
G02*
X13735000Y-8475000I-15000J0D01*
G01*
X13735000Y-8475000D02*
G75*
G02*
X13765000Y-8475000I15000J0D01*
G01*
X13777000Y-10769000D02*
G75*
G02*
X13747000Y-10769000I-15000J0D01*
G01*
X13747000Y-10769000D02*
G75*
G02*
X13777000Y-10769000I15000J0D01*
G01*
X13796000Y-10488000D02*
G75*
G02*
X13766000Y-10488000I-15000J0D01*
G01*
X13766000Y-10488000D02*
G75*
G02*
X13796000Y-10488000I15000J0D01*
G01*
X13829000Y-11513000D02*
G75*
G02*
X13799000Y-11513000I-15000J0D01*
G01*
X13799000Y-11513000D02*
G75*
G02*
X13829000Y-11513000I15000J0D01*
G01*
X13833000Y-12659000D02*
G75*
G02*
X13803000Y-12659000I-15000J0D01*
G01*
X13803000Y-12659000D02*
G75*
G02*
X13833000Y-12659000I15000J0D01*
G01*
X13840000Y-12825000D02*
G75*
G02*
X13810000Y-12825000I-15000J0D01*
G01*
X13810000Y-12825000D02*
G75*
G02*
X13840000Y-12825000I15000J0D01*
G01*
X13848000Y-11616000D02*
G75*
G02*
X13818000Y-11616000I-15000J0D01*
G01*
X13818000Y-11616000D02*
G75*
G02*
X13848000Y-11616000I15000J0D01*
G01*
X13849500Y-8894500D02*
G75*
G02*
X13819500Y-8894500I-15000J0D01*
G01*
X13819500Y-8894500D02*
G75*
G02*
X13849500Y-8894500I15000J0D01*
G01*
X13850000Y-9640000D02*
G75*
G02*
X13820000Y-9640000I-15000J0D01*
G01*
X13820000Y-9640000D02*
G75*
G02*
X13850000Y-9640000I15000J0D01*
G01*
X13857000Y-11204000D02*
G75*
G02*
X13827000Y-11204000I-15000J0D01*
G01*
X13827000Y-11204000D02*
G75*
G02*
X13857000Y-11204000I15000J0D01*
G01*
X13859000Y-11291000D02*
G75*
G02*
X13829000Y-11291000I-15000J0D01*
G01*
X13829000Y-11291000D02*
G75*
G02*
X13859000Y-11291000I15000J0D01*
G01*
X13865000Y-8475000D02*
G75*
G02*
X13835000Y-8475000I-15000J0D01*
G01*
X13835000Y-8475000D02*
G75*
G02*
X13865000Y-8475000I15000J0D01*
G01*
X13869000Y-9082000D02*
G75*
G02*
X13839000Y-9082000I-15000J0D01*
G01*
X13839000Y-9082000D02*
G75*
G02*
X13869000Y-9082000I15000J0D01*
G01*
X13928000Y-10173000D02*
G75*
G02*
X13898000Y-10173000I-15000J0D01*
G01*
X13898000Y-10173000D02*
G75*
G02*
X13928000Y-10173000I15000J0D01*
G01*
X13940000Y-12825000D02*
G75*
G02*
X13910000Y-12825000I-15000J0D01*
G01*
X13910000Y-12825000D02*
G75*
G02*
X13940000Y-12825000I15000J0D01*
G01*
X13965000Y-8475000D02*
G75*
G02*
X13935000Y-8475000I-15000J0D01*
G01*
X13935000Y-8475000D02*
G75*
G02*
X13965000Y-8475000I15000J0D01*
G01*
X13971000Y-8969000D02*
G75*
G02*
X13941000Y-8969000I-15000J0D01*
G01*
X13941000Y-8969000D02*
G75*
G02*
X13971000Y-8969000I15000J0D01*
G01*
X14006000Y-9548000D02*
G75*
G02*
X13976000Y-9548000I-15000J0D01*
G01*
X13976000Y-9548000D02*
G75*
G02*
X14006000Y-9548000I15000J0D01*
G01*
X14015000Y-11940000D02*
G75*
G02*
X13985000Y-11940000I-15000J0D01*
G01*
X13985000Y-11940000D02*
G75*
G02*
X14015000Y-11940000I15000J0D01*
G01*
X14029000Y-10784000D02*
G75*
G02*
X13999000Y-10784000I-15000J0D01*
G01*
X13999000Y-10784000D02*
G75*
G02*
X14029000Y-10784000I15000J0D01*
G01*
X14040000Y-12825000D02*
G75*
G02*
X14010000Y-12825000I-15000J0D01*
G01*
X14010000Y-12825000D02*
G75*
G02*
X14040000Y-12825000I15000J0D01*
G01*
X14048000Y-10431000D02*
G75*
G02*
X14018000Y-10431000I-15000J0D01*
G01*
X14018000Y-10431000D02*
G75*
G02*
X14048000Y-10431000I15000J0D01*
G01*
X14065000Y-8475000D02*
G75*
G02*
X14035000Y-8475000I-15000J0D01*
G01*
X14035000Y-8475000D02*
G75*
G02*
X14065000Y-8475000I15000J0D01*
G01*
X14097000Y-9265000D02*
G75*
G02*
X14067000Y-9265000I-15000J0D01*
G01*
X14067000Y-9265000D02*
G75*
G02*
X14097000Y-9265000I15000J0D01*
G01*
X14136000Y-11973000D02*
G75*
G02*
X14106000Y-11973000I-15000J0D01*
G01*
X14106000Y-11973000D02*
G75*
G02*
X14136000Y-11973000I15000J0D01*
G01*
X14140000Y-12825000D02*
G75*
G02*
X14110000Y-12825000I-15000J0D01*
G01*
X14110000Y-12825000D02*
G75*
G02*
X14140000Y-12825000I15000J0D01*
G01*
X14165000Y-8475000D02*
G75*
G02*
X14135000Y-8475000I-15000J0D01*
G01*
X14135000Y-8475000D02*
G75*
G02*
X14165000Y-8475000I15000J0D01*
G01*
X14228000Y-12275000D02*
G75*
G02*
X14198000Y-12275000I-15000J0D01*
G01*
X14198000Y-12275000D02*
G75*
G02*
X14228000Y-12275000I15000J0D01*
G01*
X14228000Y-12548000D02*
G75*
G02*
X14198000Y-12548000I-15000J0D01*
G01*
X14198000Y-12548000D02*
G75*
G02*
X14228000Y-12548000I15000J0D01*
G01*
X14240000Y-12825000D02*
G75*
G02*
X14210000Y-12825000I-15000J0D01*
G01*
X14210000Y-12825000D02*
G75*
G02*
X14240000Y-12825000I15000J0D01*
G01*
X14246000Y-9759000D02*
G75*
G02*
X14216000Y-9759000I-15000J0D01*
G01*
X14216000Y-9759000D02*
G75*
G02*
X14246000Y-9759000I15000J0D01*
G01*
X14265000Y-8475000D02*
G75*
G02*
X14235000Y-8475000I-15000J0D01*
G01*
X14235000Y-8475000D02*
G75*
G02*
X14265000Y-8475000I15000J0D01*
G01*
X14270000Y-11967000D02*
G75*
G02*
X14240000Y-11967000I-15000J0D01*
G01*
X14240000Y-11967000D02*
G75*
G02*
X14270000Y-11967000I15000J0D01*
G01*
X14280000Y-11069000D02*
G75*
G02*
X14250000Y-11069000I-15000J0D01*
G01*
X14250000Y-11069000D02*
G75*
G02*
X14280000Y-11069000I15000J0D01*
G01*
X14331000Y-9948000D02*
G75*
G02*
X14301000Y-9948000I-15000J0D01*
G01*
X14301000Y-9948000D02*
G75*
G02*
X14331000Y-9948000I15000J0D01*
G01*
X14335000Y-10967000D02*
G75*
G02*
X14305000Y-10967000I-15000J0D01*
G01*
X14305000Y-10967000D02*
G75*
G02*
X14335000Y-10967000I15000J0D01*
G01*
X14340000Y-12825000D02*
G75*
G02*
X14310000Y-12825000I-15000J0D01*
G01*
X14310000Y-12825000D02*
G75*
G02*
X14340000Y-12825000I15000J0D01*
G01*
X14365000Y-8475000D02*
G75*
G02*
X14335000Y-8475000I-15000J0D01*
G01*
X14335000Y-8475000D02*
G75*
G02*
X14365000Y-8475000I15000J0D01*
G01*
X14419000Y-8626000D02*
G75*
G02*
X14389000Y-8626000I-15000J0D01*
G01*
X14389000Y-8626000D02*
G75*
G02*
X14419000Y-8626000I15000J0D01*
G01*
X14427000Y-12684000D02*
G75*
G02*
X14397000Y-12684000I-15000J0D01*
G01*
X14397000Y-12684000D02*
G75*
G02*
X14427000Y-12684000I15000J0D01*
G01*
X14440000Y-12825000D02*
G75*
G02*
X14410000Y-12825000I-15000J0D01*
G01*
X14410000Y-12825000D02*
G75*
G02*
X14440000Y-12825000I15000J0D01*
G01*
X14445000Y-9867000D02*
G75*
G02*
X14415000Y-9867000I-15000J0D01*
G01*
X14415000Y-9867000D02*
G75*
G02*
X14445000Y-9867000I15000J0D01*
G01*
X14465000Y-8475000D02*
G75*
G02*
X14435000Y-8475000I-15000J0D01*
G01*
X14435000Y-8475000D02*
G75*
G02*
X14465000Y-8475000I15000J0D01*
G01*
X14493000Y-10017000D02*
G75*
G02*
X14463000Y-10017000I-15000J0D01*
G01*
X14463000Y-10017000D02*
G75*
G02*
X14493000Y-10017000I15000J0D01*
G01*
X14511000Y-9293000D02*
G75*
G02*
X14481000Y-9293000I-15000J0D01*
G01*
X14481000Y-9293000D02*
G75*
G02*
X14511000Y-9293000I15000J0D01*
G01*
X14530000Y-9642000D02*
G75*
G02*
X14500000Y-9642000I-15000J0D01*
G01*
X14500000Y-9642000D02*
G75*
G02*
X14530000Y-9642000I15000J0D01*
G01*
X14540000Y-12825000D02*
G75*
G02*
X14510000Y-12825000I-15000J0D01*
G01*
X14510000Y-12825000D02*
G75*
G02*
X14540000Y-12825000I15000J0D01*
G01*
X14564000Y-12386000D02*
G75*
G02*
X14534000Y-12386000I-15000J0D01*
G01*
X14534000Y-12386000D02*
G75*
G02*
X14564000Y-12386000I15000J0D01*
G01*
X14565000Y-8475000D02*
G75*
G02*
X14535000Y-8475000I-15000J0D01*
G01*
X14535000Y-8475000D02*
G75*
G02*
X14565000Y-8475000I15000J0D01*
G01*
X14572000Y-10800000D02*
G75*
G02*
X14542000Y-10800000I-15000J0D01*
G01*
X14542000Y-10800000D02*
G75*
G02*
X14572000Y-10800000I15000J0D01*
G01*
X14623000Y-9921000D02*
G75*
G02*
X14593000Y-9921000I-15000J0D01*
G01*
X14593000Y-9921000D02*
G75*
G02*
X14623000Y-9921000I15000J0D01*
G01*
X14640000Y-12825000D02*
G75*
G02*
X14610000Y-12825000I-15000J0D01*
G01*
X14610000Y-12825000D02*
G75*
G02*
X14640000Y-12825000I15000J0D01*
G01*
X14665000Y-8475000D02*
G75*
G02*
X14635000Y-8475000I-15000J0D01*
G01*
X14635000Y-8475000D02*
G75*
G02*
X14665000Y-8475000I15000J0D01*
G01*
X14705000Y-12165000D02*
G75*
G02*
X14675000Y-12165000I-15000J0D01*
G01*
X14675000Y-12165000D02*
G75*
G02*
X14705000Y-12165000I15000J0D01*
G01*
X14740000Y-12825000D02*
G75*
G02*
X14710000Y-12825000I-15000J0D01*
G01*
X14710000Y-12825000D02*
G75*
G02*
X14740000Y-12825000I15000J0D01*
G01*
X14765000Y-8475000D02*
G75*
G02*
X14735000Y-8475000I-15000J0D01*
G01*
X14735000Y-8475000D02*
G75*
G02*
X14765000Y-8475000I15000J0D01*
G01*
X14767000Y-12652000D02*
G75*
G02*
X14737000Y-12652000I-15000J0D01*
G01*
X14737000Y-12652000D02*
G75*
G02*
X14767000Y-12652000I15000J0D01*
G01*
X14773000Y-11057000D02*
G75*
G02*
X14743000Y-11057000I-15000J0D01*
G01*
X14743000Y-11057000D02*
G75*
G02*
X14773000Y-11057000I15000J0D01*
G01*
X14781000Y-8984000D02*
G75*
G02*
X14751000Y-8984000I-15000J0D01*
G01*
X14751000Y-8984000D02*
G75*
G02*
X14781000Y-8984000I15000J0D01*
G01*
X14784000Y-8898000D02*
G75*
G02*
X14754000Y-8898000I-15000J0D01*
G01*
X14754000Y-8898000D02*
G75*
G02*
X14784000Y-8898000I15000J0D01*
G01*
X14786000Y-8816000D02*
G75*
G02*
X14756000Y-8816000I-15000J0D01*
G01*
X14756000Y-8816000D02*
G75*
G02*
X14786000Y-8816000I15000J0D01*
G01*
X14788000Y-8736000D02*
G75*
G02*
X14758000Y-8736000I-15000J0D01*
G01*
X14758000Y-8736000D02*
G75*
G02*
X14788000Y-8736000I15000J0D01*
G01*
X14788000Y-9062000D02*
G75*
G02*
X14758000Y-9062000I-15000J0D01*
G01*
X14758000Y-9062000D02*
G75*
G02*
X14788000Y-9062000I15000J0D01*
G01*
X14806000Y-8620000D02*
G75*
G02*
X14776000Y-8620000I-15000J0D01*
G01*
X14776000Y-8620000D02*
G75*
G02*
X14806000Y-8620000I15000J0D01*
G01*
X14815000Y-10725000D02*
G75*
G02*
X14785000Y-10725000I-15000J0D01*
G01*
X14785000Y-10725000D02*
G75*
G02*
X14815000Y-10725000I15000J0D01*
G01*
X14818000Y-9873000D02*
G75*
G02*
X14788000Y-9873000I-15000J0D01*
G01*
X14788000Y-9873000D02*
G75*
G02*
X14818000Y-9873000I15000J0D01*
G01*
X14836000Y-11911000D02*
G75*
G02*
X14806000Y-11911000I-15000J0D01*
G01*
X14806000Y-11911000D02*
G75*
G02*
X14836000Y-11911000I15000J0D01*
G01*
X14838000Y-10003000D02*
G75*
G02*
X14808000Y-10003000I-15000J0D01*
G01*
X14808000Y-10003000D02*
G75*
G02*
X14838000Y-10003000I15000J0D01*
G01*
X14840000Y-12825000D02*
G75*
G02*
X14810000Y-12825000I-15000J0D01*
G01*
X14810000Y-12825000D02*
G75*
G02*
X14840000Y-12825000I15000J0D01*
G01*
X14848000Y-10378000D02*
G75*
G02*
X14818000Y-10378000I-15000J0D01*
G01*
X14818000Y-10378000D02*
G75*
G02*
X14848000Y-10378000I15000J0D01*
G01*
X14860000Y-12107000D02*
G75*
G02*
X14830000Y-12107000I-15000J0D01*
G01*
X14830000Y-12107000D02*
G75*
G02*
X14860000Y-12107000I15000J0D01*
G01*
X14865000Y-8475000D02*
G75*
G02*
X14835000Y-8475000I-15000J0D01*
G01*
X14835000Y-8475000D02*
G75*
G02*
X14865000Y-8475000I15000J0D01*
G01*
X14870000Y-9063000D02*
G75*
G02*
X14840000Y-9063000I-15000J0D01*
G01*
X14840000Y-9063000D02*
G75*
G02*
X14870000Y-9063000I15000J0D01*
G01*
X14871000Y-11408000D02*
G75*
G02*
X14841000Y-11408000I-15000J0D01*
G01*
X14841000Y-11408000D02*
G75*
G02*
X14871000Y-11408000I15000J0D01*
G01*
X14873000Y-11221000D02*
G75*
G02*
X14843000Y-11221000I-15000J0D01*
G01*
X14843000Y-11221000D02*
G75*
G02*
X14873000Y-11221000I15000J0D01*
G01*
X14879000Y-10176000D02*
G75*
G02*
X14849000Y-10176000I-15000J0D01*
G01*
X14849000Y-10176000D02*
G75*
G02*
X14879000Y-10176000I15000J0D01*
G01*
X14887000Y-8979000D02*
G75*
G02*
X14857000Y-8979000I-15000J0D01*
G01*
X14857000Y-8979000D02*
G75*
G02*
X14887000Y-8979000I15000J0D01*
G01*
X14915000Y-8900000D02*
G75*
G02*
X14885000Y-8900000I-15000J0D01*
G01*
X14885000Y-8900000D02*
G75*
G02*
X14915000Y-8900000I15000J0D01*
G01*
X14940000Y-12825000D02*
G75*
G02*
X14910000Y-12825000I-15000J0D01*
G01*
X14910000Y-12825000D02*
G75*
G02*
X14940000Y-12825000I15000J0D01*
G01*
X14941000Y-12384000D02*
G75*
G02*
X14911000Y-12384000I-15000J0D01*
G01*
X14911000Y-12384000D02*
G75*
G02*
X14941000Y-12384000I15000J0D01*
G01*
X14955000Y-9857000D02*
G75*
G02*
X14925000Y-9857000I-15000J0D01*
G01*
X14925000Y-9857000D02*
G75*
G02*
X14955000Y-9857000I15000J0D01*
G01*
X14965000Y-8475000D02*
G75*
G02*
X14935000Y-8475000I-15000J0D01*
G01*
X14935000Y-8475000D02*
G75*
G02*
X14965000Y-8475000I15000J0D01*
G01*
X14973000Y-9646000D02*
G75*
G02*
X14943000Y-9646000I-15000J0D01*
G01*
X14943000Y-9646000D02*
G75*
G02*
X14973000Y-9646000I15000J0D01*
G01*
X14991000Y-10003000D02*
G75*
G02*
X14961000Y-10003000I-15000J0D01*
G01*
X14961000Y-10003000D02*
G75*
G02*
X14991000Y-10003000I15000J0D01*
G01*
X14997000Y-8894000D02*
G75*
G02*
X14967000Y-8894000I-15000J0D01*
G01*
X14967000Y-8894000D02*
G75*
G02*
X14997000Y-8894000I15000J0D01*
G01*
X15026000Y-11074000D02*
G75*
G02*
X14996000Y-11074000I-15000J0D01*
G01*
X14996000Y-11074000D02*
G75*
G02*
X15026000Y-11074000I15000J0D01*
G01*
X15030000Y-11746000D02*
G75*
G02*
X15000000Y-11746000I-15000J0D01*
G01*
X15000000Y-11746000D02*
G75*
G02*
X15030000Y-11746000I15000J0D01*
G01*
X15032000Y-11523000D02*
G75*
G02*
X15002000Y-11523000I-15000J0D01*
G01*
X15002000Y-11523000D02*
G75*
G02*
X15032000Y-11523000I15000J0D01*
G01*
X15040000Y-12825000D02*
G75*
G02*
X15010000Y-12825000I-15000J0D01*
G01*
X15010000Y-12825000D02*
G75*
G02*
X15040000Y-12825000I15000J0D01*
G01*
X15047000Y-9671000D02*
G75*
G02*
X15017000Y-9671000I-15000J0D01*
G01*
X15017000Y-9671000D02*
G75*
G02*
X15047000Y-9671000I15000J0D01*
G01*
X15050000Y-10357000D02*
G75*
G02*
X15020000Y-10357000I-15000J0D01*
G01*
X15020000Y-10357000D02*
G75*
G02*
X15050000Y-10357000I15000J0D01*
G01*
X15052000Y-12112000D02*
G75*
G02*
X15022000Y-12112000I-15000J0D01*
G01*
X15022000Y-12112000D02*
G75*
G02*
X15052000Y-12112000I15000J0D01*
G01*
X15053000Y-9749000D02*
G75*
G02*
X15023000Y-9749000I-15000J0D01*
G01*
X15023000Y-9749000D02*
G75*
G02*
X15053000Y-9749000I15000J0D01*
G01*
X15057000Y-8727000D02*
G75*
G02*
X15027000Y-8727000I-15000J0D01*
G01*
X15027000Y-8727000D02*
G75*
G02*
X15057000Y-8727000I15000J0D01*
G01*
X15059000Y-11299000D02*
G75*
G02*
X15029000Y-11299000I-15000J0D01*
G01*
X15029000Y-11299000D02*
G75*
G02*
X15059000Y-11299000I15000J0D01*
G01*
X15060000Y-9831000D02*
G75*
G02*
X15030000Y-9831000I-15000J0D01*
G01*
X15030000Y-9831000D02*
G75*
G02*
X15060000Y-9831000I15000J0D01*
G01*
X15065000Y-8475000D02*
G75*
G02*
X15035000Y-8475000I-15000J0D01*
G01*
X15035000Y-8475000D02*
G75*
G02*
X15065000Y-8475000I15000J0D01*
G01*
X15065000Y-9914000D02*
G75*
G02*
X15035000Y-9914000I-15000J0D01*
G01*
X15035000Y-9914000D02*
G75*
G02*
X15065000Y-9914000I15000J0D01*
G01*
X15083000Y-8894000D02*
G75*
G02*
X15053000Y-8894000I-15000J0D01*
G01*
X15053000Y-8894000D02*
G75*
G02*
X15083000Y-8894000I15000J0D01*
G01*
X15085000Y-10179000D02*
G75*
G02*
X15055000Y-10179000I-15000J0D01*
G01*
X15055000Y-10179000D02*
G75*
G02*
X15085000Y-10179000I15000J0D01*
G01*
X15117000Y-9988000D02*
G75*
G02*
X15087000Y-9988000I-15000J0D01*
G01*
X15087000Y-9988000D02*
G75*
G02*
X15117000Y-9988000I15000J0D01*
G01*
X15124000Y-12615000D02*
G75*
G02*
X15094000Y-12615000I-15000J0D01*
G01*
X15094000Y-12615000D02*
G75*
G02*
X15124000Y-12615000I15000J0D01*
G01*
X15125000Y-9406000D02*
G75*
G02*
X15095000Y-9406000I-15000J0D01*
G01*
X15095000Y-9406000D02*
G75*
G02*
X15125000Y-9406000I15000J0D01*
G01*
X15131000Y-9247000D02*
G75*
G02*
X15101000Y-9247000I-15000J0D01*
G01*
X15101000Y-9247000D02*
G75*
G02*
X15131000Y-9247000I15000J0D01*
G01*
X15131000Y-9324000D02*
G75*
G02*
X15101000Y-9324000I-15000J0D01*
G01*
X15101000Y-9324000D02*
G75*
G02*
X15131000Y-9324000I15000J0D01*
G01*
X15135000Y-9169000D02*
G75*
G02*
X15105000Y-9169000I-15000J0D01*
G01*
X15105000Y-9169000D02*
G75*
G02*
X15135000Y-9169000I15000J0D01*
G01*
X15140000Y-12825000D02*
G75*
G02*
X15110000Y-12825000I-15000J0D01*
G01*
X15110000Y-12825000D02*
G75*
G02*
X15140000Y-12825000I15000J0D01*
G01*
X15165000Y-8475000D02*
G75*
G02*
X15135000Y-8475000I-15000J0D01*
G01*
X15135000Y-8475000D02*
G75*
G02*
X15165000Y-8475000I15000J0D01*
G01*
X15176000Y-8879000D02*
G75*
G02*
X15146000Y-8879000I-15000J0D01*
G01*
X15146000Y-8879000D02*
G75*
G02*
X15176000Y-8879000I15000J0D01*
G01*
X15203000Y-9410000D02*
G75*
G02*
X15173000Y-9410000I-15000J0D01*
G01*
X15173000Y-9410000D02*
G75*
G02*
X15203000Y-9410000I15000J0D01*
G01*
X15211000Y-9994000D02*
G75*
G02*
X15181000Y-9994000I-15000J0D01*
G01*
X15181000Y-9994000D02*
G75*
G02*
X15211000Y-9994000I15000J0D01*
G01*
X15217000Y-9160000D02*
G75*
G02*
X15187000Y-9160000I-15000J0D01*
G01*
X15187000Y-9160000D02*
G75*
G02*
X15217000Y-9160000I15000J0D01*
G01*
X15218000Y-10075000D02*
G75*
G02*
X15188000Y-10075000I-15000J0D01*
G01*
X15188000Y-10075000D02*
G75*
G02*
X15218000Y-10075000I15000J0D01*
G01*
X15219000Y-10159000D02*
G75*
G02*
X15189000Y-10159000I-15000J0D01*
G01*
X15189000Y-10159000D02*
G75*
G02*
X15219000Y-10159000I15000J0D01*
G01*
X15219000Y-10248000D02*
G75*
G02*
X15189000Y-10248000I-15000J0D01*
G01*
X15189000Y-10248000D02*
G75*
G02*
X15219000Y-10248000I15000J0D01*
G01*
X15228000Y-11496000D02*
G75*
G02*
X15198000Y-11496000I-15000J0D01*
G01*
X15198000Y-11496000D02*
G75*
G02*
X15228000Y-11496000I15000J0D01*
G01*
X15230500Y-11381683D02*
G75*
G02*
X15200500Y-11381683I-15000J0D01*
G01*
X15200500Y-11381683D02*
G75*
G02*
X15230500Y-11381683I15000J0D01*
G01*
X15232000Y-11284000D02*
G75*
G02*
X15202000Y-11284000I-15000J0D01*
G01*
X15202000Y-11284000D02*
G75*
G02*
X15232000Y-11284000I15000J0D01*
G01*
X15233000Y-11079000D02*
G75*
G02*
X15203000Y-11079000I-15000J0D01*
G01*
X15203000Y-11079000D02*
G75*
G02*
X15233000Y-11079000I15000J0D01*
G01*
X15234000Y-11670000D02*
G75*
G02*
X15204000Y-11670000I-15000J0D01*
G01*
X15204000Y-11670000D02*
G75*
G02*
X15234000Y-11670000I15000J0D01*
G01*
X15240000Y-12825000D02*
G75*
G02*
X15210000Y-12825000I-15000J0D01*
G01*
X15210000Y-12825000D02*
G75*
G02*
X15240000Y-12825000I15000J0D01*
G01*
X15242000Y-12378000D02*
G75*
G02*
X15212000Y-12378000I-15000J0D01*
G01*
X15212000Y-12378000D02*
G75*
G02*
X15242000Y-12378000I15000J0D01*
G01*
X15244000Y-11765000D02*
G75*
G02*
X15214000Y-11765000I-15000J0D01*
G01*
X15214000Y-11765000D02*
G75*
G02*
X15244000Y-11765000I15000J0D01*
G01*
X15247000Y-10331000D02*
G75*
G02*
X15217000Y-10331000I-15000J0D01*
G01*
X15217000Y-10331000D02*
G75*
G02*
X15247000Y-10331000I15000J0D01*
G01*
X15253000Y-8889000D02*
G75*
G02*
X15223000Y-8889000I-15000J0D01*
G01*
X15223000Y-8889000D02*
G75*
G02*
X15253000Y-8889000I15000J0D01*
G01*
X15265000Y-8475000D02*
G75*
G02*
X15235000Y-8475000I-15000J0D01*
G01*
X15235000Y-8475000D02*
G75*
G02*
X15265000Y-8475000I15000J0D01*
G01*
X15281000Y-9397000D02*
G75*
G02*
X15251000Y-9397000I-15000J0D01*
G01*
X15251000Y-9397000D02*
G75*
G02*
X15281000Y-9397000I15000J0D01*
G01*
X15295000Y-9743000D02*
G75*
G02*
X15265000Y-9743000I-15000J0D01*
G01*
X15265000Y-9743000D02*
G75*
G02*
X15295000Y-9743000I15000J0D01*
G01*
X15297952Y-9664533D02*
G75*
G02*
X15267952Y-9664533I-15000J0D01*
G01*
X15267952Y-9664533D02*
G75*
G02*
X15297952Y-9664533I15000J0D01*
G01*
X15299000Y-9108000D02*
G75*
G02*
X15269000Y-9108000I-15000J0D01*
G01*
X15269000Y-9108000D02*
G75*
G02*
X15299000Y-9108000I15000J0D01*
G01*
X15315000Y-8945000D02*
G75*
G02*
X15285000Y-8945000I-15000J0D01*
G01*
X15285000Y-8945000D02*
G75*
G02*
X15315000Y-8945000I15000J0D01*
G01*
X15325000Y-10338000D02*
G75*
G02*
X15295000Y-10338000I-15000J0D01*
G01*
X15295000Y-10338000D02*
G75*
G02*
X15325000Y-10338000I15000J0D01*
G01*
X15326000Y-9035000D02*
G75*
G02*
X15296000Y-9035000I-15000J0D01*
G01*
X15296000Y-9035000D02*
G75*
G02*
X15326000Y-9035000I15000J0D01*
G01*
X15327000Y-10660000D02*
G75*
G02*
X15297000Y-10660000I-15000J0D01*
G01*
X15297000Y-10660000D02*
G75*
G02*
X15327000Y-10660000I15000J0D01*
G01*
X15340000Y-12825000D02*
G75*
G02*
X15310000Y-12825000I-15000J0D01*
G01*
X15310000Y-12825000D02*
G75*
G02*
X15340000Y-12825000I15000J0D01*
G01*
X15355000Y-8628000D02*
G75*
G02*
X15325000Y-8628000I-15000J0D01*
G01*
X15325000Y-8628000D02*
G75*
G02*
X15355000Y-8628000I15000J0D01*
G01*
X15365000Y-8475000D02*
G75*
G02*
X15335000Y-8475000I-15000J0D01*
G01*
X15335000Y-8475000D02*
G75*
G02*
X15365000Y-8475000I15000J0D01*
G01*
X15368000Y-9390000D02*
G75*
G02*
X15338000Y-9390000I-15000J0D01*
G01*
X15338000Y-9390000D02*
G75*
G02*
X15368000Y-9390000I15000J0D01*
G01*
X15379000Y-9757000D02*
G75*
G02*
X15349000Y-9757000I-15000J0D01*
G01*
X15349000Y-9757000D02*
G75*
G02*
X15379000Y-9757000I15000J0D01*
G01*
X15381000Y-9658000D02*
G75*
G02*
X15351000Y-9658000I-15000J0D01*
G01*
X15351000Y-9658000D02*
G75*
G02*
X15381000Y-9658000I15000J0D01*
G01*
X15413000Y-10334000D02*
G75*
G02*
X15383000Y-10334000I-15000J0D01*
G01*
X15383000Y-10334000D02*
G75*
G02*
X15413000Y-10334000I15000J0D01*
G01*
X15440000Y-9173000D02*
G75*
G02*
X15410000Y-9173000I-15000J0D01*
G01*
X15410000Y-9173000D02*
G75*
G02*
X15440000Y-9173000I15000J0D01*
G01*
X15440000Y-12825000D02*
G75*
G02*
X15410000Y-12825000I-15000J0D01*
G01*
X15410000Y-12825000D02*
G75*
G02*
X15440000Y-12825000I15000J0D01*
G01*
X15451000Y-9406000D02*
G75*
G02*
X15421000Y-9406000I-15000J0D01*
G01*
X15421000Y-9406000D02*
G75*
G02*
X15451000Y-9406000I15000J0D01*
G01*
X15453000Y-8870000D02*
G75*
G02*
X15423000Y-8870000I-15000J0D01*
G01*
X15423000Y-8870000D02*
G75*
G02*
X15453000Y-8870000I15000J0D01*
G01*
X15461000Y-9636000D02*
G75*
G02*
X15431000Y-9636000I-15000J0D01*
G01*
X15431000Y-9636000D02*
G75*
G02*
X15461000Y-9636000I15000J0D01*
G01*
X15463000Y-10013000D02*
G75*
G02*
X15433000Y-10013000I-15000J0D01*
G01*
X15433000Y-10013000D02*
G75*
G02*
X15463000Y-10013000I15000J0D01*
G01*
X15465000Y-8475000D02*
G75*
G02*
X15435000Y-8475000I-15000J0D01*
G01*
X15435000Y-8475000D02*
G75*
G02*
X15465000Y-8475000I15000J0D01*
G01*
X15466000Y-9741000D02*
G75*
G02*
X15436000Y-9741000I-15000J0D01*
G01*
X15436000Y-9741000D02*
G75*
G02*
X15466000Y-9741000I15000J0D01*
G01*
X15489000Y-10337000D02*
G75*
G02*
X15459000Y-10337000I-15000J0D01*
G01*
X15459000Y-10337000D02*
G75*
G02*
X15489000Y-10337000I15000J0D01*
G01*
X15494000Y-9476000D02*
G75*
G02*
X15464000Y-9476000I-15000J0D01*
G01*
X15464000Y-9476000D02*
G75*
G02*
X15494000Y-9476000I15000J0D01*
G01*
X15501000Y-9561000D02*
G75*
G02*
X15471000Y-9561000I-15000J0D01*
G01*
X15471000Y-9561000D02*
G75*
G02*
X15501000Y-9561000I15000J0D01*
G01*
X15540000Y-12825000D02*
G75*
G02*
X15510000Y-12825000I-15000J0D01*
G01*
X15510000Y-12825000D02*
G75*
G02*
X15540000Y-12825000I15000J0D01*
G01*
X15548000Y-9737000D02*
G75*
G02*
X15518000Y-9737000I-15000J0D01*
G01*
X15518000Y-9737000D02*
G75*
G02*
X15548000Y-9737000I15000J0D01*
G01*
X15565000Y-8475000D02*
G75*
G02*
X15535000Y-8475000I-15000J0D01*
G01*
X15535000Y-8475000D02*
G75*
G02*
X15565000Y-8475000I15000J0D01*
G01*
X15577000Y-10334000D02*
G75*
G02*
X15547000Y-10334000I-15000J0D01*
G01*
X15547000Y-10334000D02*
G75*
G02*
X15577000Y-10334000I15000J0D01*
G01*
X15588000Y-12348000D02*
G75*
G02*
X15558000Y-12348000I-15000J0D01*
G01*
X15558000Y-12348000D02*
G75*
G02*
X15588000Y-12348000I15000J0D01*
G01*
X15591000Y-9248000D02*
G75*
G02*
X15561000Y-9248000I-15000J0D01*
G01*
X15561000Y-9248000D02*
G75*
G02*
X15591000Y-9248000I15000J0D01*
G01*
X15628000Y-9553000D02*
G75*
G02*
X15598000Y-9553000I-15000J0D01*
G01*
X15598000Y-9553000D02*
G75*
G02*
X15628000Y-9553000I15000J0D01*
G01*
X15629000Y-9635000D02*
G75*
G02*
X15599000Y-9635000I-15000J0D01*
G01*
X15599000Y-9635000D02*
G75*
G02*
X15629000Y-9635000I15000J0D01*
G01*
X15630000Y-9715000D02*
G75*
G02*
X15600000Y-9715000I-15000J0D01*
G01*
X15600000Y-9715000D02*
G75*
G02*
X15630000Y-9715000I15000J0D01*
G01*
X15631000Y-9319000D02*
G75*
G02*
X15601000Y-9319000I-15000J0D01*
G01*
X15601000Y-9319000D02*
G75*
G02*
X15631000Y-9319000I15000J0D01*
G01*
X15631000Y-9474000D02*
G75*
G02*
X15601000Y-9474000I-15000J0D01*
G01*
X15601000Y-9474000D02*
G75*
G02*
X15631000Y-9474000I15000J0D01*
G01*
X15632000Y-9395000D02*
G75*
G02*
X15602000Y-9395000I-15000J0D01*
G01*
X15602000Y-9395000D02*
G75*
G02*
X15632000Y-9395000I15000J0D01*
G01*
X15632000Y-9794000D02*
G75*
G02*
X15602000Y-9794000I-15000J0D01*
G01*
X15602000Y-9794000D02*
G75*
G02*
X15632000Y-9794000I15000J0D01*
G01*
X15640000Y-12825000D02*
G75*
G02*
X15610000Y-12825000I-15000J0D01*
G01*
X15610000Y-12825000D02*
G75*
G02*
X15640000Y-12825000I15000J0D01*
G01*
X15653000Y-8624000D02*
G75*
G02*
X15623000Y-8624000I-15000J0D01*
G01*
X15623000Y-8624000D02*
G75*
G02*
X15653000Y-8624000I15000J0D01*
G01*
X15654000Y-10088000D02*
G75*
G02*
X15624000Y-10088000I-15000J0D01*
G01*
X15624000Y-10088000D02*
G75*
G02*
X15654000Y-10088000I15000J0D01*
G01*
X15654000Y-10350000D02*
G75*
G02*
X15624000Y-10350000I-15000J0D01*
G01*
X15624000Y-10350000D02*
G75*
G02*
X15654000Y-10350000I15000J0D01*
G01*
X15665000Y-8475000D02*
G75*
G02*
X15635000Y-8475000I-15000J0D01*
G01*
X15635000Y-8475000D02*
G75*
G02*
X15665000Y-8475000I15000J0D01*
G01*
X15713000Y-10033000D02*
G75*
G02*
X15683000Y-10033000I-15000J0D01*
G01*
X15683000Y-10033000D02*
G75*
G02*
X15713000Y-10033000I15000J0D01*
G01*
X15714000Y-11814000D02*
G75*
G02*
X15684000Y-11814000I-15000J0D01*
G01*
X15684000Y-11814000D02*
G75*
G02*
X15714000Y-11814000I15000J0D01*
G01*
X15729000Y-11709000D02*
G75*
G02*
X15699000Y-11709000I-15000J0D01*
G01*
X15699000Y-11709000D02*
G75*
G02*
X15729000Y-11709000I15000J0D01*
G01*
X15737000Y-10361000D02*
G75*
G02*
X15707000Y-10361000I-15000J0D01*
G01*
X15707000Y-10361000D02*
G75*
G02*
X15737000Y-10361000I15000J0D01*
G01*
X15740000Y-12825000D02*
G75*
G02*
X15710000Y-12825000I-15000J0D01*
G01*
X15710000Y-12825000D02*
G75*
G02*
X15740000Y-12825000I15000J0D01*
G01*
X15752000Y-12428000D02*
G75*
G02*
X15722000Y-12428000I-15000J0D01*
G01*
X15722000Y-12428000D02*
G75*
G02*
X15752000Y-12428000I15000J0D01*
G01*
X15756750Y-11387250D02*
G75*
G02*
X15726750Y-11387250I-15000J0D01*
G01*
X15726750Y-11387250D02*
G75*
G02*
X15756750Y-11387250I15000J0D01*
G01*
X15757000Y-11072000D02*
G75*
G02*
X15727000Y-11072000I-15000J0D01*
G01*
X15727000Y-11072000D02*
G75*
G02*
X15757000Y-11072000I15000J0D01*
G01*
X15760000Y-10095000D02*
G75*
G02*
X15730000Y-10095000I-15000J0D01*
G01*
X15730000Y-10095000D02*
G75*
G02*
X15760000Y-10095000I15000J0D01*
G01*
X15764000Y-9973000D02*
G75*
G02*
X15734000Y-9973000I-15000J0D01*
G01*
X15734000Y-9973000D02*
G75*
G02*
X15764000Y-9973000I15000J0D01*
G01*
X15765000Y-8475000D02*
G75*
G02*
X15735000Y-8475000I-15000J0D01*
G01*
X15735000Y-8475000D02*
G75*
G02*
X15765000Y-8475000I15000J0D01*
G01*
X15766000Y-12718000D02*
G75*
G02*
X15736000Y-12718000I-15000J0D01*
G01*
X15736000Y-12718000D02*
G75*
G02*
X15766000Y-12718000I15000J0D01*
G01*
X15802000Y-10315000D02*
G75*
G02*
X15772000Y-10315000I-15000J0D01*
G01*
X15772000Y-10315000D02*
G75*
G02*
X15802000Y-10315000I15000J0D01*
G01*
X15807000Y-9901000D02*
G75*
G02*
X15777000Y-9901000I-15000J0D01*
G01*
X15777000Y-9901000D02*
G75*
G02*
X15807000Y-9901000I15000J0D01*
G01*
X15808000Y-9347000D02*
G75*
G02*
X15778000Y-9347000I-15000J0D01*
G01*
X15778000Y-9347000D02*
G75*
G02*
X15808000Y-9347000I15000J0D01*
G01*
X15811000Y-9428000D02*
G75*
G02*
X15781000Y-9428000I-15000J0D01*
G01*
X15781000Y-9428000D02*
G75*
G02*
X15811000Y-9428000I15000J0D01*
G01*
X15811000Y-9507000D02*
G75*
G02*
X15781000Y-9507000I-15000J0D01*
G01*
X15781000Y-9507000D02*
G75*
G02*
X15811000Y-9507000I15000J0D01*
G01*
X15812000Y-9583000D02*
G75*
G02*
X15782000Y-9583000I-15000J0D01*
G01*
X15782000Y-9583000D02*
G75*
G02*
X15812000Y-9583000I15000J0D01*
G01*
X15812000Y-9662000D02*
G75*
G02*
X15782000Y-9662000I-15000J0D01*
G01*
X15782000Y-9662000D02*
G75*
G02*
X15812000Y-9662000I15000J0D01*
G01*
X15812000Y-9741000D02*
G75*
G02*
X15782000Y-9741000I-15000J0D01*
G01*
X15782000Y-9741000D02*
G75*
G02*
X15812000Y-9741000I15000J0D01*
G01*
X15814000Y-9822000D02*
G75*
G02*
X15784000Y-9822000I-15000J0D01*
G01*
X15784000Y-9822000D02*
G75*
G02*
X15814000Y-9822000I15000J0D01*
G01*
X15821000Y-10158000D02*
G75*
G02*
X15791000Y-10158000I-15000J0D01*
G01*
X15791000Y-10158000D02*
G75*
G02*
X15821000Y-10158000I15000J0D01*
G01*
X15823000Y-12208000D02*
G75*
G02*
X15793000Y-12208000I-15000J0D01*
G01*
X15793000Y-12208000D02*
G75*
G02*
X15823000Y-12208000I15000J0D01*
G01*
X15826000Y-9272000D02*
G75*
G02*
X15796000Y-9272000I-15000J0D01*
G01*
X15796000Y-9272000D02*
G75*
G02*
X15826000Y-9272000I15000J0D01*
G01*
X15830000Y-10237000D02*
G75*
G02*
X15800000Y-10237000I-15000J0D01*
G01*
X15800000Y-10237000D02*
G75*
G02*
X15830000Y-10237000I15000J0D01*
G01*
X15833000Y-10750000D02*
G75*
G02*
X15803000Y-10750000I-15000J0D01*
G01*
X15803000Y-10750000D02*
G75*
G02*
X15833000Y-10750000I15000J0D01*
G01*
X15840000Y-12825000D02*
G75*
G02*
X15810000Y-12825000I-15000J0D01*
G01*
X15810000Y-12825000D02*
G75*
G02*
X15840000Y-12825000I15000J0D01*
G01*
X15865000Y-8475000D02*
G75*
G02*
X15835000Y-8475000I-15000J0D01*
G01*
X15835000Y-8475000D02*
G75*
G02*
X15865000Y-8475000I15000J0D01*
G01*
X15872000Y-9209000D02*
G75*
G02*
X15842000Y-9209000I-15000J0D01*
G01*
X15842000Y-9209000D02*
G75*
G02*
X15872000Y-9209000I15000J0D01*
G01*
X15940000Y-12825000D02*
G75*
G02*
X15910000Y-12825000I-15000J0D01*
G01*
X15910000Y-12825000D02*
G75*
G02*
X15940000Y-12825000I15000J0D01*
G01*
X15950000Y-8930000D02*
G75*
G02*
X15920000Y-8930000I-15000J0D01*
G01*
X15920000Y-8930000D02*
G75*
G02*
X15950000Y-8930000I15000J0D01*
G01*
X15957000Y-10200000D02*
G75*
G02*
X15927000Y-10200000I-15000J0D01*
G01*
X15927000Y-10200000D02*
G75*
G02*
X15957000Y-10200000I15000J0D01*
G01*
X15962000Y-9428000D02*
G75*
G02*
X15932000Y-9428000I-15000J0D01*
G01*
X15932000Y-9428000D02*
G75*
G02*
X15962000Y-9428000I15000J0D01*
G01*
X15965000Y-8475000D02*
G75*
G02*
X15935000Y-8475000I-15000J0D01*
G01*
X15935000Y-8475000D02*
G75*
G02*
X15965000Y-8475000I15000J0D01*
G01*
X15966510Y-9969402D02*
G75*
G02*
X15936510Y-9969402I-15000J0D01*
G01*
X15936510Y-9969402D02*
G75*
G02*
X15966510Y-9969402I15000J0D01*
G01*
X15967000Y-11169000D02*
G75*
G02*
X15937000Y-11169000I-15000J0D01*
G01*
X15937000Y-11169000D02*
G75*
G02*
X15967000Y-11169000I15000J0D01*
G01*
X15971000Y-10451000D02*
G75*
G02*
X15941000Y-10451000I-15000J0D01*
G01*
X15941000Y-10451000D02*
G75*
G02*
X15971000Y-10451000I15000J0D01*
G01*
X15975000Y-9694000D02*
G75*
G02*
X15945000Y-9694000I-15000J0D01*
G01*
X15945000Y-9694000D02*
G75*
G02*
X15975000Y-9694000I15000J0D01*
G01*
X15975000Y-10988000D02*
G75*
G02*
X15945000Y-10988000I-15000J0D01*
G01*
X15945000Y-10988000D02*
G75*
G02*
X15975000Y-10988000I15000J0D01*
G01*
X15975000Y-11401000D02*
G75*
G02*
X15945000Y-11401000I-15000J0D01*
G01*
X15945000Y-11401000D02*
G75*
G02*
X15975000Y-11401000I15000J0D01*
G01*
X15977000Y-12385000D02*
G75*
G02*
X15947000Y-12385000I-15000J0D01*
G01*
X15947000Y-12385000D02*
G75*
G02*
X15977000Y-12385000I15000J0D01*
G01*
X15984000Y-10743000D02*
G75*
G02*
X15954000Y-10743000I-15000J0D01*
G01*
X15954000Y-10743000D02*
G75*
G02*
X15984000Y-10743000I15000J0D01*
G01*
X15996596Y-11912115D02*
G75*
G02*
X15966596Y-11912115I-15000J0D01*
G01*
X15966596Y-11912115D02*
G75*
G02*
X15996596Y-11912115I15000J0D01*
G01*
X15997000Y-11676000D02*
G75*
G02*
X15967000Y-11676000I-15000J0D01*
G01*
X15967000Y-11676000D02*
G75*
G02*
X15997000Y-11676000I15000J0D01*
G01*
X15997000Y-12222000D02*
G75*
G02*
X15967000Y-12222000I-15000J0D01*
G01*
X15967000Y-12222000D02*
G75*
G02*
X15997000Y-12222000I15000J0D01*
G01*
X16014000Y-12721000D02*
G75*
G02*
X15984000Y-12721000I-15000J0D01*
G01*
X15984000Y-12721000D02*
G75*
G02*
X16014000Y-12721000I15000J0D01*
G01*
X16040000Y-12825000D02*
G75*
G02*
X16010000Y-12825000I-15000J0D01*
G01*
X16010000Y-12825000D02*
G75*
G02*
X16040000Y-12825000I15000J0D01*
G01*
X16065000Y-8475000D02*
G75*
G02*
X16035000Y-8475000I-15000J0D01*
G01*
X16035000Y-8475000D02*
G75*
G02*
X16065000Y-8475000I15000J0D01*
G01*
X16115000Y-8550000D02*
G75*
G02*
X16085000Y-8550000I-15000J0D01*
G01*
X16085000Y-8550000D02*
G75*
G02*
X16115000Y-8550000I15000J0D01*
G01*
X16115000Y-8650000D02*
G75*
G02*
X16085000Y-8650000I-15000J0D01*
G01*
X16085000Y-8650000D02*
G75*
G02*
X16115000Y-8650000I15000J0D01*
G01*
X16115000Y-8750000D02*
G75*
G02*
X16085000Y-8750000I-15000J0D01*
G01*
X16085000Y-8750000D02*
G75*
G02*
X16115000Y-8750000I15000J0D01*
G01*
X16115000Y-8850000D02*
G75*
G02*
X16085000Y-8850000I-15000J0D01*
G01*
X16085000Y-8850000D02*
G75*
G02*
X16115000Y-8850000I15000J0D01*
G01*
X16115000Y-8950000D02*
G75*
G02*
X16085000Y-8950000I-15000J0D01*
G01*
X16085000Y-8950000D02*
G75*
G02*
X16115000Y-8950000I15000J0D01*
G01*
X16115000Y-9050000D02*
G75*
G02*
X16085000Y-9050000I-15000J0D01*
G01*
X16085000Y-9050000D02*
G75*
G02*
X16115000Y-9050000I15000J0D01*
G01*
X16115000Y-9150000D02*
G75*
G02*
X16085000Y-9150000I-15000J0D01*
G01*
X16085000Y-9150000D02*
G75*
G02*
X16115000Y-9150000I15000J0D01*
G01*
X16115000Y-9250000D02*
G75*
G02*
X16085000Y-9250000I-15000J0D01*
G01*
X16085000Y-9250000D02*
G75*
G02*
X16115000Y-9250000I15000J0D01*
G01*
X16115000Y-9350000D02*
G75*
G02*
X16085000Y-9350000I-15000J0D01*
G01*
X16085000Y-9350000D02*
G75*
G02*
X16115000Y-9350000I15000J0D01*
G01*
X16115000Y-9450000D02*
G75*
G02*
X16085000Y-9450000I-15000J0D01*
G01*
X16085000Y-9450000D02*
G75*
G02*
X16115000Y-9450000I15000J0D01*
G01*
X16115000Y-9550000D02*
G75*
G02*
X16085000Y-9550000I-15000J0D01*
G01*
X16085000Y-9550000D02*
G75*
G02*
X16115000Y-9550000I15000J0D01*
G01*
X16115000Y-9650000D02*
G75*
G02*
X16085000Y-9650000I-15000J0D01*
G01*
X16085000Y-9650000D02*
G75*
G02*
X16115000Y-9650000I15000J0D01*
G01*
X16115000Y-9750000D02*
G75*
G02*
X16085000Y-9750000I-15000J0D01*
G01*
X16085000Y-9750000D02*
G75*
G02*
X16115000Y-9750000I15000J0D01*
G01*
X16115000Y-9850000D02*
G75*
G02*
X16085000Y-9850000I-15000J0D01*
G01*
X16085000Y-9850000D02*
G75*
G02*
X16115000Y-9850000I15000J0D01*
G01*
X16115000Y-9950000D02*
G75*
G02*
X16085000Y-9950000I-15000J0D01*
G01*
X16085000Y-9950000D02*
G75*
G02*
X16115000Y-9950000I15000J0D01*
G01*
X16115000Y-10050000D02*
G75*
G02*
X16085000Y-10050000I-15000J0D01*
G01*
X16085000Y-10050000D02*
G75*
G02*
X16115000Y-10050000I15000J0D01*
G01*
X16115000Y-10150000D02*
G75*
G02*
X16085000Y-10150000I-15000J0D01*
G01*
X16085000Y-10150000D02*
G75*
G02*
X16115000Y-10150000I15000J0D01*
G01*
X16115000Y-10250000D02*
G75*
G02*
X16085000Y-10250000I-15000J0D01*
G01*
X16085000Y-10250000D02*
G75*
G02*
X16115000Y-10250000I15000J0D01*
G01*
X16115000Y-10350000D02*
G75*
G02*
X16085000Y-10350000I-15000J0D01*
G01*
X16085000Y-10350000D02*
G75*
G02*
X16115000Y-10350000I15000J0D01*
G01*
X16115000Y-10450000D02*
G75*
G02*
X16085000Y-10450000I-15000J0D01*
G01*
X16085000Y-10450000D02*
G75*
G02*
X16115000Y-10450000I15000J0D01*
G01*
X16115000Y-10550000D02*
G75*
G02*
X16085000Y-10550000I-15000J0D01*
G01*
X16085000Y-10550000D02*
G75*
G02*
X16115000Y-10550000I15000J0D01*
G01*
X16115000Y-10650000D02*
G75*
G02*
X16085000Y-10650000I-15000J0D01*
G01*
X16085000Y-10650000D02*
G75*
G02*
X16115000Y-10650000I15000J0D01*
G01*
X16115000Y-10750000D02*
G75*
G02*
X16085000Y-10750000I-15000J0D01*
G01*
X16085000Y-10750000D02*
G75*
G02*
X16115000Y-10750000I15000J0D01*
G01*
X16115000Y-10850000D02*
G75*
G02*
X16085000Y-10850000I-15000J0D01*
G01*
X16085000Y-10850000D02*
G75*
G02*
X16115000Y-10850000I15000J0D01*
G01*
X16115000Y-10950000D02*
G75*
G02*
X16085000Y-10950000I-15000J0D01*
G01*
X16085000Y-10950000D02*
G75*
G02*
X16115000Y-10950000I15000J0D01*
G01*
X16115000Y-11050000D02*
G75*
G02*
X16085000Y-11050000I-15000J0D01*
G01*
X16085000Y-11050000D02*
G75*
G02*
X16115000Y-11050000I15000J0D01*
G01*
X16115000Y-11150000D02*
G75*
G02*
X16085000Y-11150000I-15000J0D01*
G01*
X16085000Y-11150000D02*
G75*
G02*
X16115000Y-11150000I15000J0D01*
G01*
X16115000Y-11250000D02*
G75*
G02*
X16085000Y-11250000I-15000J0D01*
G01*
X16085000Y-11250000D02*
G75*
G02*
X16115000Y-11250000I15000J0D01*
G01*
X16115000Y-11350000D02*
G75*
G02*
X16085000Y-11350000I-15000J0D01*
G01*
X16085000Y-11350000D02*
G75*
G02*
X16115000Y-11350000I15000J0D01*
G01*
X16115000Y-11450000D02*
G75*
G02*
X16085000Y-11450000I-15000J0D01*
G01*
X16085000Y-11450000D02*
G75*
G02*
X16115000Y-11450000I15000J0D01*
G01*
X16115000Y-11550000D02*
G75*
G02*
X16085000Y-11550000I-15000J0D01*
G01*
X16085000Y-11550000D02*
G75*
G02*
X16115000Y-11550000I15000J0D01*
G01*
X16115000Y-11650000D02*
G75*
G02*
X16085000Y-11650000I-15000J0D01*
G01*
X16085000Y-11650000D02*
G75*
G02*
X16115000Y-11650000I15000J0D01*
G01*
X16115000Y-11750000D02*
G75*
G02*
X16085000Y-11750000I-15000J0D01*
G01*
X16085000Y-11750000D02*
G75*
G02*
X16115000Y-11750000I15000J0D01*
G01*
X16115000Y-11850000D02*
G75*
G02*
X16085000Y-11850000I-15000J0D01*
G01*
X16085000Y-11850000D02*
G75*
G02*
X16115000Y-11850000I15000J0D01*
G01*
X16115000Y-11950000D02*
G75*
G02*
X16085000Y-11950000I-15000J0D01*
G01*
X16085000Y-11950000D02*
G75*
G02*
X16115000Y-11950000I15000J0D01*
G01*
X16115000Y-12050000D02*
G75*
G02*
X16085000Y-12050000I-15000J0D01*
G01*
X16085000Y-12050000D02*
G75*
G02*
X16115000Y-12050000I15000J0D01*
G01*
X16115000Y-12150000D02*
G75*
G02*
X16085000Y-12150000I-15000J0D01*
G01*
X16085000Y-12150000D02*
G75*
G02*
X16115000Y-12150000I15000J0D01*
G01*
X16115000Y-12250000D02*
G75*
G02*
X16085000Y-12250000I-15000J0D01*
G01*
X16085000Y-12250000D02*
G75*
G02*
X16115000Y-12250000I15000J0D01*
G01*
X16115000Y-12350000D02*
G75*
G02*
X16085000Y-12350000I-15000J0D01*
G01*
X16085000Y-12350000D02*
G75*
G02*
X16115000Y-12350000I15000J0D01*
G01*
X16115000Y-12450000D02*
G75*
G02*
X16085000Y-12450000I-15000J0D01*
G01*
X16085000Y-12450000D02*
G75*
G02*
X16115000Y-12450000I15000J0D01*
G01*
X16115000Y-12550000D02*
G75*
G02*
X16085000Y-12550000I-15000J0D01*
G01*
X16085000Y-12550000D02*
G75*
G02*
X16115000Y-12550000I15000J0D01*
G01*
X16115000Y-12650000D02*
G75*
G02*
X16085000Y-12650000I-15000J0D01*
G01*
X16085000Y-12650000D02*
G75*
G02*
X16115000Y-12650000I15000J0D01*
G01*
X16115000Y-12750000D02*
G75*
G02*
X16085000Y-12750000I-15000J0D01*
G01*
X16085000Y-12750000D02*
G75*
G02*
X16115000Y-12750000I15000J0D01*
G01*
X14432000Y-11232500D02*
X14432000Y-11297500D01*
X14399500Y-11265000D02*
X14464500Y-11265000D01*
X14432000Y-11359500D02*
X14432000Y-11424500D01*
X14399500Y-11392000D02*
X14464500Y-11392000D01*
X14432000Y-11486500D02*
X14432000Y-11551500D01*
X14399500Y-11519000D02*
X14464500Y-11519000D01*
X14432000Y-11613500D02*
X14432000Y-11678500D01*
X14399500Y-11646000D02*
X14464500Y-11646000D01*
X14432000Y-11740500D02*
X14432000Y-11805500D01*
X14399500Y-11773000D02*
X14464500Y-11773000D01*
X14559000Y-11232500D02*
X14559000Y-11297500D01*
X14526500Y-11265000D02*
X14591500Y-11265000D01*
X14559000Y-11359500D02*
X14559000Y-11424500D01*
X14526500Y-11392000D02*
X14591500Y-11392000D01*
X14559000Y-11486500D02*
X14559000Y-11551500D01*
X14526500Y-11519000D02*
X14591500Y-11519000D01*
X14559000Y-11613500D02*
X14559000Y-11678500D01*
X14526500Y-11646000D02*
X14591500Y-11646000D01*
X14559000Y-11740500D02*
X14559000Y-11805500D01*
X14526500Y-11773000D02*
X14591500Y-11773000D01*
X15739295Y-8912295D02*
X15739295Y-8843705D01*
X15670705Y-8843705D01*
X15670705Y-8912295D01*
X15739295Y-8912295D01*
X15739295Y-9166295D02*
X15739295Y-9097705D01*
X15670705Y-9097705D01*
X15670705Y-9166295D01*
X15739295Y-9166295D01*
X10991000Y-11975500D02*
X11041000Y-11925500D01*
X10991000Y-11875500D01*
X10941000Y-11925500D01*
X10991000Y-11975500D01*
X10991000Y-12229500D02*
X11041000Y-12179500D01*
X10991000Y-12129500D01*
X10941000Y-12179500D01*
X10991000Y-12229500D01*
X13394000Y-12407000D02*
X13444000Y-12357000D01*
X13394000Y-12307000D01*
X13344000Y-12357000D01*
X13394000Y-12407000D01*
X13894000Y-12407000D02*
X13944000Y-12357000D01*
X13894000Y-12307000D01*
X13844000Y-12357000D01*
X13894000Y-12407000D01*
D11*
X10932777Y-13217484D02*
X10932777Y-13017484D01*
X10932777Y-13017484D02*
X10980396Y-13017484D01*
X10980396Y-13017484D02*
X11008967Y-13027008D01*
X11008967Y-13027008D02*
X11028015Y-13046055D01*
X11028015Y-13046055D02*
X11037539Y-13065103D01*
X11037539Y-13065103D02*
X11047063Y-13103198D01*
X11047063Y-13103198D02*
X11047063Y-13131769D01*
X11047063Y-13131769D02*
X11037539Y-13169865D01*
X11037539Y-13169865D02*
X11028015Y-13188912D01*
X11028015Y-13188912D02*
X11008967Y-13207960D01*
X11008967Y-13207960D02*
X10980396Y-13217484D01*
X10980396Y-13217484D02*
X10932777Y-13217484D01*
X11132777Y-13217484D02*
X11132777Y-13084150D01*
X11132777Y-13122246D02*
X11142301Y-13103198D01*
X11142301Y-13103198D02*
X11151824Y-13093674D01*
X11151824Y-13093674D02*
X11170872Y-13084150D01*
X11170872Y-13084150D02*
X11189920Y-13084150D01*
X11256586Y-13217484D02*
X11256586Y-13084150D01*
X11256586Y-13017484D02*
X11247062Y-13027008D01*
X11247062Y-13027008D02*
X11256586Y-13036531D01*
X11256586Y-13036531D02*
X11266110Y-13027008D01*
X11266110Y-13027008D02*
X11256586Y-13017484D01*
X11256586Y-13017484D02*
X11256586Y-13036531D01*
X11380396Y-13217484D02*
X11361348Y-13207960D01*
X11361348Y-13207960D02*
X11351824Y-13188912D01*
X11351824Y-13188912D02*
X11351824Y-13017484D01*
X11485158Y-13217484D02*
X11466110Y-13207960D01*
X11466110Y-13207960D02*
X11456586Y-13188912D01*
X11456586Y-13188912D02*
X11456586Y-13017484D01*
X11713729Y-13217484D02*
X11713729Y-13017484D01*
X11713729Y-13017484D02*
X11780396Y-13160341D01*
X11780396Y-13160341D02*
X11847062Y-13017484D01*
X11847062Y-13017484D02*
X11847062Y-13217484D01*
X12028015Y-13217484D02*
X12028015Y-13112722D01*
X12028015Y-13112722D02*
X12018491Y-13093674D01*
X12018491Y-13093674D02*
X11999443Y-13084150D01*
X11999443Y-13084150D02*
X11961348Y-13084150D01*
X11961348Y-13084150D02*
X11942301Y-13093674D01*
X12028015Y-13207960D02*
X12008967Y-13217484D01*
X12008967Y-13217484D02*
X11961348Y-13217484D01*
X11961348Y-13217484D02*
X11942301Y-13207960D01*
X11942301Y-13207960D02*
X11932777Y-13188912D01*
X11932777Y-13188912D02*
X11932777Y-13169865D01*
X11932777Y-13169865D02*
X11942301Y-13150817D01*
X11942301Y-13150817D02*
X11961348Y-13141293D01*
X11961348Y-13141293D02*
X12008967Y-13141293D01*
X12008967Y-13141293D02*
X12028015Y-13131769D01*
X12123253Y-13084150D02*
X12123253Y-13284150D01*
X12123253Y-13093674D02*
X12142301Y-13084150D01*
X12142301Y-13084150D02*
X12180396Y-13084150D01*
X12180396Y-13084150D02*
X12199443Y-13093674D01*
X12199443Y-13093674D02*
X12208967Y-13103198D01*
X12208967Y-13103198D02*
X12218491Y-13122246D01*
X12218491Y-13122246D02*
X12218491Y-13179388D01*
X12218491Y-13179388D02*
X12208967Y-13198436D01*
X12208967Y-13198436D02*
X12199443Y-13207960D01*
X12199443Y-13207960D02*
X12180396Y-13217484D01*
X12180396Y-13217484D02*
X12142301Y-13217484D01*
X12142301Y-13217484D02*
X12123253Y-13207960D01*
X12304205Y-13198436D02*
X12313729Y-13207960D01*
X12313729Y-13207960D02*
X12304205Y-13217484D01*
X12304205Y-13217484D02*
X12294682Y-13207960D01*
X12294682Y-13207960D02*
X12304205Y-13198436D01*
X12304205Y-13198436D02*
X12304205Y-13217484D01*
X12304205Y-13093674D02*
X12313729Y-13103198D01*
X12313729Y-13103198D02*
X12304205Y-13112722D01*
X12304205Y-13112722D02*
X12294682Y-13103198D01*
X12294682Y-13103198D02*
X12304205Y-13093674D01*
X12304205Y-13093674D02*
X12304205Y-13112722D01*
D10*
X10652000Y-13536000D02*
X10672000Y-13556000D01*
X10672000Y-13536000D02*
X10652000Y-13556000D01*
D11*
X10970872Y-13437484D02*
X10989920Y-13437484D01*
X10989920Y-13437484D02*
X11008967Y-13447008D01*
X11008967Y-13447008D02*
X11018491Y-13456531D01*
X11018491Y-13456531D02*
X11028015Y-13475579D01*
X11028015Y-13475579D02*
X11037539Y-13513674D01*
X11037539Y-13513674D02*
X11037539Y-13561293D01*
X11037539Y-13561293D02*
X11028015Y-13599388D01*
X11028015Y-13599388D02*
X11018491Y-13618436D01*
X11018491Y-13618436D02*
X11008967Y-13627960D01*
X11008967Y-13627960D02*
X10989920Y-13637484D01*
X10989920Y-13637484D02*
X10970872Y-13637484D01*
X10970872Y-13637484D02*
X10951824Y-13627960D01*
X10951824Y-13627960D02*
X10942301Y-13618436D01*
X10942301Y-13618436D02*
X10932777Y-13599388D01*
X10932777Y-13599388D02*
X10923253Y-13561293D01*
X10923253Y-13561293D02*
X10923253Y-13513674D01*
X10923253Y-13513674D02*
X10932777Y-13475579D01*
X10932777Y-13475579D02*
X10942301Y-13456531D01*
X10942301Y-13456531D02*
X10951824Y-13447008D01*
X10951824Y-13447008D02*
X10970872Y-13437484D01*
X11123253Y-13618436D02*
X11132777Y-13627960D01*
X11132777Y-13627960D02*
X11123253Y-13637484D01*
X11123253Y-13637484D02*
X11113729Y-13627960D01*
X11113729Y-13627960D02*
X11123253Y-13618436D01*
X11123253Y-13618436D02*
X11123253Y-13637484D01*
X11208967Y-13456531D02*
X11218491Y-13447008D01*
X11218491Y-13447008D02*
X11237539Y-13437484D01*
X11237539Y-13437484D02*
X11285158Y-13437484D01*
X11285158Y-13437484D02*
X11304205Y-13447008D01*
X11304205Y-13447008D02*
X11313729Y-13456531D01*
X11313729Y-13456531D02*
X11323253Y-13475579D01*
X11323253Y-13475579D02*
X11323253Y-13494627D01*
X11323253Y-13494627D02*
X11313729Y-13523198D01*
X11313729Y-13523198D02*
X11199443Y-13637484D01*
X11199443Y-13637484D02*
X11323253Y-13637484D01*
X11447062Y-13437484D02*
X11466110Y-13437484D01*
X11466110Y-13437484D02*
X11485158Y-13447008D01*
X11485158Y-13447008D02*
X11494682Y-13456531D01*
X11494682Y-13456531D02*
X11504205Y-13475579D01*
X11504205Y-13475579D02*
X11513729Y-13513674D01*
X11513729Y-13513674D02*
X11513729Y-13561293D01*
X11513729Y-13561293D02*
X11504205Y-13599388D01*
X11504205Y-13599388D02*
X11494682Y-13618436D01*
X11494682Y-13618436D02*
X11485158Y-13627960D01*
X11485158Y-13627960D02*
X11466110Y-13637484D01*
X11466110Y-13637484D02*
X11447062Y-13637484D01*
X11447062Y-13637484D02*
X11428015Y-13627960D01*
X11428015Y-13627960D02*
X11418491Y-13618436D01*
X11418491Y-13618436D02*
X11408967Y-13599388D01*
X11408967Y-13599388D02*
X11399443Y-13561293D01*
X11399443Y-13561293D02*
X11399443Y-13513674D01*
X11399443Y-13513674D02*
X11408967Y-13475579D01*
X11408967Y-13475579D02*
X11418491Y-13456531D01*
X11418491Y-13456531D02*
X11428015Y-13447008D01*
X11428015Y-13447008D02*
X11447062Y-13437484D01*
X11637539Y-13437484D02*
X11656586Y-13437484D01*
X11656586Y-13437484D02*
X11675634Y-13447008D01*
X11675634Y-13447008D02*
X11685158Y-13456531D01*
X11685158Y-13456531D02*
X11694682Y-13475579D01*
X11694682Y-13475579D02*
X11704205Y-13513674D01*
X11704205Y-13513674D02*
X11704205Y-13561293D01*
X11704205Y-13561293D02*
X11694682Y-13599388D01*
X11694682Y-13599388D02*
X11685158Y-13618436D01*
X11685158Y-13618436D02*
X11675634Y-13627960D01*
X11675634Y-13627960D02*
X11656586Y-13637484D01*
X11656586Y-13637484D02*
X11637539Y-13637484D01*
X11637539Y-13637484D02*
X11618491Y-13627960D01*
X11618491Y-13627960D02*
X11608967Y-13618436D01*
X11608967Y-13618436D02*
X11599443Y-13599388D01*
X11599443Y-13599388D02*
X11589920Y-13561293D01*
X11589920Y-13561293D02*
X11589920Y-13513674D01*
X11589920Y-13513674D02*
X11599443Y-13475579D01*
X11599443Y-13475579D02*
X11608967Y-13456531D01*
X11608967Y-13456531D02*
X11618491Y-13447008D01*
X11618491Y-13447008D02*
X11637539Y-13437484D01*
X11789920Y-13637484D02*
X11789920Y-13504150D01*
X11789920Y-13523198D02*
X11799443Y-13513674D01*
X11799443Y-13513674D02*
X11818491Y-13504150D01*
X11818491Y-13504150D02*
X11847063Y-13504150D01*
X11847063Y-13504150D02*
X11866110Y-13513674D01*
X11866110Y-13513674D02*
X11875634Y-13532722D01*
X11875634Y-13532722D02*
X11875634Y-13637484D01*
X11875634Y-13532722D02*
X11885158Y-13513674D01*
X11885158Y-13513674D02*
X11904205Y-13504150D01*
X11904205Y-13504150D02*
X11932777Y-13504150D01*
X11932777Y-13504150D02*
X11951824Y-13513674D01*
X11951824Y-13513674D02*
X11961348Y-13532722D01*
X11961348Y-13532722D02*
X11961348Y-13637484D01*
X12056586Y-13637484D02*
X12056586Y-13504150D01*
X12056586Y-13523198D02*
X12066110Y-13513674D01*
X12066110Y-13513674D02*
X12085158Y-13504150D01*
X12085158Y-13504150D02*
X12113729Y-13504150D01*
X12113729Y-13504150D02*
X12132777Y-13513674D01*
X12132777Y-13513674D02*
X12142301Y-13532722D01*
X12142301Y-13532722D02*
X12142301Y-13637484D01*
X12142301Y-13532722D02*
X12151824Y-13513674D01*
X12151824Y-13513674D02*
X12170872Y-13504150D01*
X12170872Y-13504150D02*
X12199443Y-13504150D01*
X12199443Y-13504150D02*
X12218491Y-13513674D01*
X12218491Y-13513674D02*
X12228015Y-13532722D01*
X12228015Y-13532722D02*
X12228015Y-13637484D01*
X12618491Y-13427960D02*
X12447063Y-13685103D01*
X12875634Y-13437484D02*
X12894682Y-13437484D01*
X12894682Y-13437484D02*
X12913729Y-13447008D01*
X12913729Y-13447008D02*
X12923253Y-13456531D01*
X12923253Y-13456531D02*
X12932777Y-13475579D01*
X12932777Y-13475579D02*
X12942301Y-13513674D01*
X12942301Y-13513674D02*
X12942301Y-13561293D01*
X12942301Y-13561293D02*
X12932777Y-13599388D01*
X12932777Y-13599388D02*
X12923253Y-13618436D01*
X12923253Y-13618436D02*
X12913729Y-13627960D01*
X12913729Y-13627960D02*
X12894682Y-13637484D01*
X12894682Y-13637484D02*
X12875634Y-13637484D01*
X12875634Y-13637484D02*
X12856586Y-13627960D01*
X12856586Y-13627960D02*
X12847063Y-13618436D01*
X12847063Y-13618436D02*
X12837539Y-13599388D01*
X12837539Y-13599388D02*
X12828015Y-13561293D01*
X12828015Y-13561293D02*
X12828015Y-13513674D01*
X12828015Y-13513674D02*
X12837539Y-13475579D01*
X12837539Y-13475579D02*
X12847063Y-13456531D01*
X12847063Y-13456531D02*
X12856586Y-13447008D01*
X12856586Y-13447008D02*
X12875634Y-13437484D01*
X13028015Y-13618436D02*
X13037539Y-13627960D01*
X13037539Y-13627960D02*
X13028015Y-13637484D01*
X13028015Y-13637484D02*
X13018491Y-13627960D01*
X13018491Y-13627960D02*
X13028015Y-13618436D01*
X13028015Y-13618436D02*
X13028015Y-13637484D01*
X13161348Y-13437484D02*
X13180396Y-13437484D01*
X13180396Y-13437484D02*
X13199444Y-13447008D01*
X13199444Y-13447008D02*
X13208967Y-13456531D01*
X13208967Y-13456531D02*
X13218491Y-13475579D01*
X13218491Y-13475579D02*
X13228015Y-13513674D01*
X13228015Y-13513674D02*
X13228015Y-13561293D01*
X13228015Y-13561293D02*
X13218491Y-13599388D01*
X13218491Y-13599388D02*
X13208967Y-13618436D01*
X13208967Y-13618436D02*
X13199444Y-13627960D01*
X13199444Y-13627960D02*
X13180396Y-13637484D01*
X13180396Y-13637484D02*
X13161348Y-13637484D01*
X13161348Y-13637484D02*
X13142301Y-13627960D01*
X13142301Y-13627960D02*
X13132777Y-13618436D01*
X13132777Y-13618436D02*
X13123253Y-13599388D01*
X13123253Y-13599388D02*
X13113729Y-13561293D01*
X13113729Y-13561293D02*
X13113729Y-13513674D01*
X13113729Y-13513674D02*
X13123253Y-13475579D01*
X13123253Y-13475579D02*
X13132777Y-13456531D01*
X13132777Y-13456531D02*
X13142301Y-13447008D01*
X13142301Y-13447008D02*
X13161348Y-13437484D01*
X13351825Y-13437484D02*
X13370872Y-13437484D01*
X13370872Y-13437484D02*
X13389920Y-13447008D01*
X13389920Y-13447008D02*
X13399444Y-13456531D01*
X13399444Y-13456531D02*
X13408967Y-13475579D01*
X13408967Y-13475579D02*
X13418491Y-13513674D01*
X13418491Y-13513674D02*
X13418491Y-13561293D01*
X13418491Y-13561293D02*
X13408967Y-13599388D01*
X13408967Y-13599388D02*
X13399444Y-13618436D01*
X13399444Y-13618436D02*
X13389920Y-13627960D01*
X13389920Y-13627960D02*
X13370872Y-13637484D01*
X13370872Y-13637484D02*
X13351825Y-13637484D01*
X13351825Y-13637484D02*
X13332777Y-13627960D01*
X13332777Y-13627960D02*
X13323253Y-13618436D01*
X13323253Y-13618436D02*
X13313729Y-13599388D01*
X13313729Y-13599388D02*
X13304206Y-13561293D01*
X13304206Y-13561293D02*
X13304206Y-13513674D01*
X13304206Y-13513674D02*
X13313729Y-13475579D01*
X13313729Y-13475579D02*
X13323253Y-13456531D01*
X13323253Y-13456531D02*
X13332777Y-13447008D01*
X13332777Y-13447008D02*
X13351825Y-13437484D01*
X13485158Y-13437484D02*
X13618491Y-13437484D01*
X13618491Y-13437484D02*
X13532777Y-13637484D01*
X13704206Y-13637484D02*
X13742301Y-13637484D01*
X13742301Y-13637484D02*
X13761348Y-13627960D01*
X13761348Y-13627960D02*
X13770872Y-13618436D01*
X13770872Y-13618436D02*
X13789920Y-13589865D01*
X13789920Y-13589865D02*
X13799444Y-13551769D01*
X13799444Y-13551769D02*
X13799444Y-13475579D01*
X13799444Y-13475579D02*
X13789920Y-13456531D01*
X13789920Y-13456531D02*
X13780396Y-13447008D01*
X13780396Y-13447008D02*
X13761348Y-13437484D01*
X13761348Y-13437484D02*
X13723253Y-13437484D01*
X13723253Y-13437484D02*
X13704206Y-13447008D01*
X13704206Y-13447008D02*
X13694682Y-13456531D01*
X13694682Y-13456531D02*
X13685158Y-13475579D01*
X13685158Y-13475579D02*
X13685158Y-13523198D01*
X13685158Y-13523198D02*
X13694682Y-13542246D01*
X13694682Y-13542246D02*
X13704206Y-13551769D01*
X13704206Y-13551769D02*
X13723253Y-13561293D01*
X13723253Y-13561293D02*
X13761348Y-13561293D01*
X13761348Y-13561293D02*
X13780396Y-13551769D01*
X13780396Y-13551769D02*
X13789920Y-13542246D01*
X13789920Y-13542246D02*
X13799444Y-13523198D01*
X13875634Y-13437484D02*
X13875634Y-13475579D01*
X13951825Y-13437484D02*
X13951825Y-13475579D01*
X14247063Y-13713674D02*
X14237539Y-13704150D01*
X14237539Y-13704150D02*
X14218491Y-13675579D01*
X14218491Y-13675579D02*
X14208968Y-13656531D01*
X14208968Y-13656531D02*
X14199444Y-13627960D01*
X14199444Y-13627960D02*
X14189920Y-13580341D01*
X14189920Y-13580341D02*
X14189920Y-13542246D01*
X14189920Y-13542246D02*
X14199444Y-13494627D01*
X14199444Y-13494627D02*
X14208968Y-13466055D01*
X14208968Y-13466055D02*
X14218491Y-13447008D01*
X14218491Y-13447008D02*
X14237539Y-13418436D01*
X14237539Y-13418436D02*
X14247063Y-13408912D01*
X14332777Y-13637484D02*
X14370872Y-13637484D01*
X14370872Y-13637484D02*
X14389920Y-13627960D01*
X14389920Y-13627960D02*
X14399444Y-13618436D01*
X14399444Y-13618436D02*
X14418491Y-13589865D01*
X14418491Y-13589865D02*
X14428015Y-13551769D01*
X14428015Y-13551769D02*
X14428015Y-13475579D01*
X14428015Y-13475579D02*
X14418491Y-13456531D01*
X14418491Y-13456531D02*
X14408968Y-13447008D01*
X14408968Y-13447008D02*
X14389920Y-13437484D01*
X14389920Y-13437484D02*
X14351825Y-13437484D01*
X14351825Y-13437484D02*
X14332777Y-13447008D01*
X14332777Y-13447008D02*
X14323253Y-13456531D01*
X14323253Y-13456531D02*
X14313729Y-13475579D01*
X14313729Y-13475579D02*
X14313729Y-13523198D01*
X14313729Y-13523198D02*
X14323253Y-13542246D01*
X14323253Y-13542246D02*
X14332777Y-13551769D01*
X14332777Y-13551769D02*
X14351825Y-13561293D01*
X14351825Y-13561293D02*
X14389920Y-13561293D01*
X14389920Y-13561293D02*
X14408968Y-13551769D01*
X14408968Y-13551769D02*
X14418491Y-13542246D01*
X14418491Y-13542246D02*
X14428015Y-13523198D01*
X14666110Y-13637484D02*
X14666110Y-13437484D01*
X14751825Y-13637484D02*
X14751825Y-13532722D01*
X14751825Y-13532722D02*
X14742301Y-13513674D01*
X14742301Y-13513674D02*
X14723253Y-13504150D01*
X14723253Y-13504150D02*
X14694682Y-13504150D01*
X14694682Y-13504150D02*
X14675634Y-13513674D01*
X14675634Y-13513674D02*
X14666110Y-13523198D01*
X14875634Y-13637484D02*
X14856587Y-13627960D01*
X14856587Y-13627960D02*
X14847063Y-13618436D01*
X14847063Y-13618436D02*
X14837539Y-13599388D01*
X14837539Y-13599388D02*
X14837539Y-13542246D01*
X14837539Y-13542246D02*
X14847063Y-13523198D01*
X14847063Y-13523198D02*
X14856587Y-13513674D01*
X14856587Y-13513674D02*
X14875634Y-13504150D01*
X14875634Y-13504150D02*
X14904206Y-13504150D01*
X14904206Y-13504150D02*
X14923253Y-13513674D01*
X14923253Y-13513674D02*
X14932777Y-13523198D01*
X14932777Y-13523198D02*
X14942301Y-13542246D01*
X14942301Y-13542246D02*
X14942301Y-13599388D01*
X14942301Y-13599388D02*
X14932777Y-13618436D01*
X14932777Y-13618436D02*
X14923253Y-13627960D01*
X14923253Y-13627960D02*
X14904206Y-13637484D01*
X14904206Y-13637484D02*
X14875634Y-13637484D01*
X15056587Y-13637484D02*
X15037539Y-13627960D01*
X15037539Y-13627960D02*
X15028015Y-13608912D01*
X15028015Y-13608912D02*
X15028015Y-13437484D01*
X15208968Y-13627960D02*
X15189920Y-13637484D01*
X15189920Y-13637484D02*
X15151825Y-13637484D01*
X15151825Y-13637484D02*
X15132777Y-13627960D01*
X15132777Y-13627960D02*
X15123253Y-13608912D01*
X15123253Y-13608912D02*
X15123253Y-13532722D01*
X15123253Y-13532722D02*
X15132777Y-13513674D01*
X15132777Y-13513674D02*
X15151825Y-13504150D01*
X15151825Y-13504150D02*
X15189920Y-13504150D01*
X15189920Y-13504150D02*
X15208968Y-13513674D01*
X15208968Y-13513674D02*
X15218491Y-13532722D01*
X15218491Y-13532722D02*
X15218491Y-13551769D01*
X15218491Y-13551769D02*
X15123253Y-13570817D01*
X15294682Y-13627960D02*
X15313730Y-13637484D01*
X15313730Y-13637484D02*
X15351825Y-13637484D01*
X15351825Y-13637484D02*
X15370872Y-13627960D01*
X15370872Y-13627960D02*
X15380396Y-13608912D01*
X15380396Y-13608912D02*
X15380396Y-13599388D01*
X15380396Y-13599388D02*
X15370872Y-13580341D01*
X15370872Y-13580341D02*
X15351825Y-13570817D01*
X15351825Y-13570817D02*
X15323253Y-13570817D01*
X15323253Y-13570817D02*
X15304206Y-13561293D01*
X15304206Y-13561293D02*
X15294682Y-13542246D01*
X15294682Y-13542246D02*
X15294682Y-13532722D01*
X15294682Y-13532722D02*
X15304206Y-13513674D01*
X15304206Y-13513674D02*
X15323253Y-13504150D01*
X15323253Y-13504150D02*
X15351825Y-13504150D01*
X15351825Y-13504150D02*
X15370872Y-13513674D01*
X15447063Y-13713674D02*
X15456587Y-13704150D01*
X15456587Y-13704150D02*
X15475634Y-13675579D01*
X15475634Y-13675579D02*
X15485158Y-13656531D01*
X15485158Y-13656531D02*
X15494682Y-13627960D01*
X15494682Y-13627960D02*
X15504206Y-13580341D01*
X15504206Y-13580341D02*
X15504206Y-13542246D01*
X15504206Y-13542246D02*
X15494682Y-13494627D01*
X15494682Y-13494627D02*
X15485158Y-13466055D01*
X15485158Y-13466055D02*
X15475634Y-13447008D01*
X15475634Y-13447008D02*
X15456587Y-13418436D01*
X15456587Y-13418436D02*
X15447063Y-13408912D01*
D10*
X10672000Y-13810000D02*
G75*
G02*
X10642000Y-13810000I-15000J0D01*
G01*
X10642000Y-13810000D02*
G75*
G02*
X10672000Y-13810000I15000J0D01*
G01*
D11*
X10970872Y-13701484D02*
X10989920Y-13701484D01*
X10989920Y-13701484D02*
X11008967Y-13711008D01*
X11008967Y-13711008D02*
X11018491Y-13720531D01*
X11018491Y-13720531D02*
X11028015Y-13739579D01*
X11028015Y-13739579D02*
X11037539Y-13777674D01*
X11037539Y-13777674D02*
X11037539Y-13825293D01*
X11037539Y-13825293D02*
X11028015Y-13863388D01*
X11028015Y-13863388D02*
X11018491Y-13882436D01*
X11018491Y-13882436D02*
X11008967Y-13891960D01*
X11008967Y-13891960D02*
X10989920Y-13901484D01*
X10989920Y-13901484D02*
X10970872Y-13901484D01*
X10970872Y-13901484D02*
X10951824Y-13891960D01*
X10951824Y-13891960D02*
X10942301Y-13882436D01*
X10942301Y-13882436D02*
X10932777Y-13863388D01*
X10932777Y-13863388D02*
X10923253Y-13825293D01*
X10923253Y-13825293D02*
X10923253Y-13777674D01*
X10923253Y-13777674D02*
X10932777Y-13739579D01*
X10932777Y-13739579D02*
X10942301Y-13720531D01*
X10942301Y-13720531D02*
X10951824Y-13711008D01*
X10951824Y-13711008D02*
X10970872Y-13701484D01*
X11123253Y-13882436D02*
X11132777Y-13891960D01*
X11132777Y-13891960D02*
X11123253Y-13901484D01*
X11123253Y-13901484D02*
X11113729Y-13891960D01*
X11113729Y-13891960D02*
X11123253Y-13882436D01*
X11123253Y-13882436D02*
X11123253Y-13901484D01*
X11199443Y-13701484D02*
X11323253Y-13701484D01*
X11323253Y-13701484D02*
X11256586Y-13777674D01*
X11256586Y-13777674D02*
X11285158Y-13777674D01*
X11285158Y-13777674D02*
X11304205Y-13787198D01*
X11304205Y-13787198D02*
X11313729Y-13796722D01*
X11313729Y-13796722D02*
X11323253Y-13815769D01*
X11323253Y-13815769D02*
X11323253Y-13863388D01*
X11323253Y-13863388D02*
X11313729Y-13882436D01*
X11313729Y-13882436D02*
X11304205Y-13891960D01*
X11304205Y-13891960D02*
X11285158Y-13901484D01*
X11285158Y-13901484D02*
X11228015Y-13901484D01*
X11228015Y-13901484D02*
X11208967Y-13891960D01*
X11208967Y-13891960D02*
X11199443Y-13882436D01*
X11447062Y-13701484D02*
X11466110Y-13701484D01*
X11466110Y-13701484D02*
X11485158Y-13711008D01*
X11485158Y-13711008D02*
X11494682Y-13720531D01*
X11494682Y-13720531D02*
X11504205Y-13739579D01*
X11504205Y-13739579D02*
X11513729Y-13777674D01*
X11513729Y-13777674D02*
X11513729Y-13825293D01*
X11513729Y-13825293D02*
X11504205Y-13863388D01*
X11504205Y-13863388D02*
X11494682Y-13882436D01*
X11494682Y-13882436D02*
X11485158Y-13891960D01*
X11485158Y-13891960D02*
X11466110Y-13901484D01*
X11466110Y-13901484D02*
X11447062Y-13901484D01*
X11447062Y-13901484D02*
X11428015Y-13891960D01*
X11428015Y-13891960D02*
X11418491Y-13882436D01*
X11418491Y-13882436D02*
X11408967Y-13863388D01*
X11408967Y-13863388D02*
X11399443Y-13825293D01*
X11399443Y-13825293D02*
X11399443Y-13777674D01*
X11399443Y-13777674D02*
X11408967Y-13739579D01*
X11408967Y-13739579D02*
X11418491Y-13720531D01*
X11418491Y-13720531D02*
X11428015Y-13711008D01*
X11428015Y-13711008D02*
X11447062Y-13701484D01*
X11637539Y-13701484D02*
X11656586Y-13701484D01*
X11656586Y-13701484D02*
X11675634Y-13711008D01*
X11675634Y-13711008D02*
X11685158Y-13720531D01*
X11685158Y-13720531D02*
X11694682Y-13739579D01*
X11694682Y-13739579D02*
X11704205Y-13777674D01*
X11704205Y-13777674D02*
X11704205Y-13825293D01*
X11704205Y-13825293D02*
X11694682Y-13863388D01*
X11694682Y-13863388D02*
X11685158Y-13882436D01*
X11685158Y-13882436D02*
X11675634Y-13891960D01*
X11675634Y-13891960D02*
X11656586Y-13901484D01*
X11656586Y-13901484D02*
X11637539Y-13901484D01*
X11637539Y-13901484D02*
X11618491Y-13891960D01*
X11618491Y-13891960D02*
X11608967Y-13882436D01*
X11608967Y-13882436D02*
X11599443Y-13863388D01*
X11599443Y-13863388D02*
X11589920Y-13825293D01*
X11589920Y-13825293D02*
X11589920Y-13777674D01*
X11589920Y-13777674D02*
X11599443Y-13739579D01*
X11599443Y-13739579D02*
X11608967Y-13720531D01*
X11608967Y-13720531D02*
X11618491Y-13711008D01*
X11618491Y-13711008D02*
X11637539Y-13701484D01*
X11789920Y-13901484D02*
X11789920Y-13768150D01*
X11789920Y-13787198D02*
X11799443Y-13777674D01*
X11799443Y-13777674D02*
X11818491Y-13768150D01*
X11818491Y-13768150D02*
X11847063Y-13768150D01*
X11847063Y-13768150D02*
X11866110Y-13777674D01*
X11866110Y-13777674D02*
X11875634Y-13796722D01*
X11875634Y-13796722D02*
X11875634Y-13901484D01*
X11875634Y-13796722D02*
X11885158Y-13777674D01*
X11885158Y-13777674D02*
X11904205Y-13768150D01*
X11904205Y-13768150D02*
X11932777Y-13768150D01*
X11932777Y-13768150D02*
X11951824Y-13777674D01*
X11951824Y-13777674D02*
X11961348Y-13796722D01*
X11961348Y-13796722D02*
X11961348Y-13901484D01*
X12056586Y-13901484D02*
X12056586Y-13768150D01*
X12056586Y-13787198D02*
X12066110Y-13777674D01*
X12066110Y-13777674D02*
X12085158Y-13768150D01*
X12085158Y-13768150D02*
X12113729Y-13768150D01*
X12113729Y-13768150D02*
X12132777Y-13777674D01*
X12132777Y-13777674D02*
X12142301Y-13796722D01*
X12142301Y-13796722D02*
X12142301Y-13901484D01*
X12142301Y-13796722D02*
X12151824Y-13777674D01*
X12151824Y-13777674D02*
X12170872Y-13768150D01*
X12170872Y-13768150D02*
X12199443Y-13768150D01*
X12199443Y-13768150D02*
X12218491Y-13777674D01*
X12218491Y-13777674D02*
X12228015Y-13796722D01*
X12228015Y-13796722D02*
X12228015Y-13901484D01*
X12618491Y-13691960D02*
X12447063Y-13949103D01*
X12875634Y-13701484D02*
X12894682Y-13701484D01*
X12894682Y-13701484D02*
X12913729Y-13711008D01*
X12913729Y-13711008D02*
X12923253Y-13720531D01*
X12923253Y-13720531D02*
X12932777Y-13739579D01*
X12932777Y-13739579D02*
X12942301Y-13777674D01*
X12942301Y-13777674D02*
X12942301Y-13825293D01*
X12942301Y-13825293D02*
X12932777Y-13863388D01*
X12932777Y-13863388D02*
X12923253Y-13882436D01*
X12923253Y-13882436D02*
X12913729Y-13891960D01*
X12913729Y-13891960D02*
X12894682Y-13901484D01*
X12894682Y-13901484D02*
X12875634Y-13901484D01*
X12875634Y-13901484D02*
X12856586Y-13891960D01*
X12856586Y-13891960D02*
X12847063Y-13882436D01*
X12847063Y-13882436D02*
X12837539Y-13863388D01*
X12837539Y-13863388D02*
X12828015Y-13825293D01*
X12828015Y-13825293D02*
X12828015Y-13777674D01*
X12828015Y-13777674D02*
X12837539Y-13739579D01*
X12837539Y-13739579D02*
X12847063Y-13720531D01*
X12847063Y-13720531D02*
X12856586Y-13711008D01*
X12856586Y-13711008D02*
X12875634Y-13701484D01*
X13028015Y-13882436D02*
X13037539Y-13891960D01*
X13037539Y-13891960D02*
X13028015Y-13901484D01*
X13028015Y-13901484D02*
X13018491Y-13891960D01*
X13018491Y-13891960D02*
X13028015Y-13882436D01*
X13028015Y-13882436D02*
X13028015Y-13901484D01*
X13161348Y-13701484D02*
X13180396Y-13701484D01*
X13180396Y-13701484D02*
X13199444Y-13711008D01*
X13199444Y-13711008D02*
X13208967Y-13720531D01*
X13208967Y-13720531D02*
X13218491Y-13739579D01*
X13218491Y-13739579D02*
X13228015Y-13777674D01*
X13228015Y-13777674D02*
X13228015Y-13825293D01*
X13228015Y-13825293D02*
X13218491Y-13863388D01*
X13218491Y-13863388D02*
X13208967Y-13882436D01*
X13208967Y-13882436D02*
X13199444Y-13891960D01*
X13199444Y-13891960D02*
X13180396Y-13901484D01*
X13180396Y-13901484D02*
X13161348Y-13901484D01*
X13161348Y-13901484D02*
X13142301Y-13891960D01*
X13142301Y-13891960D02*
X13132777Y-13882436D01*
X13132777Y-13882436D02*
X13123253Y-13863388D01*
X13123253Y-13863388D02*
X13113729Y-13825293D01*
X13113729Y-13825293D02*
X13113729Y-13777674D01*
X13113729Y-13777674D02*
X13123253Y-13739579D01*
X13123253Y-13739579D02*
X13132777Y-13720531D01*
X13132777Y-13720531D02*
X13142301Y-13711008D01*
X13142301Y-13711008D02*
X13161348Y-13701484D01*
X13418491Y-13901484D02*
X13304206Y-13901484D01*
X13361348Y-13901484D02*
X13361348Y-13701484D01*
X13361348Y-13701484D02*
X13342301Y-13730055D01*
X13342301Y-13730055D02*
X13323253Y-13749103D01*
X13323253Y-13749103D02*
X13304206Y-13758627D01*
X13608967Y-13901484D02*
X13494682Y-13901484D01*
X13551825Y-13901484D02*
X13551825Y-13701484D01*
X13551825Y-13701484D02*
X13532777Y-13730055D01*
X13532777Y-13730055D02*
X13513729Y-13749103D01*
X13513729Y-13749103D02*
X13494682Y-13758627D01*
X13723253Y-13787198D02*
X13704206Y-13777674D01*
X13704206Y-13777674D02*
X13694682Y-13768150D01*
X13694682Y-13768150D02*
X13685158Y-13749103D01*
X13685158Y-13749103D02*
X13685158Y-13739579D01*
X13685158Y-13739579D02*
X13694682Y-13720531D01*
X13694682Y-13720531D02*
X13704206Y-13711008D01*
X13704206Y-13711008D02*
X13723253Y-13701484D01*
X13723253Y-13701484D02*
X13761348Y-13701484D01*
X13761348Y-13701484D02*
X13780396Y-13711008D01*
X13780396Y-13711008D02*
X13789920Y-13720531D01*
X13789920Y-13720531D02*
X13799444Y-13739579D01*
X13799444Y-13739579D02*
X13799444Y-13749103D01*
X13799444Y-13749103D02*
X13789920Y-13768150D01*
X13789920Y-13768150D02*
X13780396Y-13777674D01*
X13780396Y-13777674D02*
X13761348Y-13787198D01*
X13761348Y-13787198D02*
X13723253Y-13787198D01*
X13723253Y-13787198D02*
X13704206Y-13796722D01*
X13704206Y-13796722D02*
X13694682Y-13806246D01*
X13694682Y-13806246D02*
X13685158Y-13825293D01*
X13685158Y-13825293D02*
X13685158Y-13863388D01*
X13685158Y-13863388D02*
X13694682Y-13882436D01*
X13694682Y-13882436D02*
X13704206Y-13891960D01*
X13704206Y-13891960D02*
X13723253Y-13901484D01*
X13723253Y-13901484D02*
X13761348Y-13901484D01*
X13761348Y-13901484D02*
X13780396Y-13891960D01*
X13780396Y-13891960D02*
X13789920Y-13882436D01*
X13789920Y-13882436D02*
X13799444Y-13863388D01*
X13799444Y-13863388D02*
X13799444Y-13825293D01*
X13799444Y-13825293D02*
X13789920Y-13806246D01*
X13789920Y-13806246D02*
X13780396Y-13796722D01*
X13780396Y-13796722D02*
X13761348Y-13787198D01*
X13875634Y-13701484D02*
X13875634Y-13739579D01*
X13951825Y-13701484D02*
X13951825Y-13739579D01*
X14247063Y-13977674D02*
X14237539Y-13968150D01*
X14237539Y-13968150D02*
X14218491Y-13939579D01*
X14218491Y-13939579D02*
X14208968Y-13920531D01*
X14208968Y-13920531D02*
X14199444Y-13891960D01*
X14199444Y-13891960D02*
X14189920Y-13844341D01*
X14189920Y-13844341D02*
X14189920Y-13806246D01*
X14189920Y-13806246D02*
X14199444Y-13758627D01*
X14199444Y-13758627D02*
X14208968Y-13730055D01*
X14208968Y-13730055D02*
X14218491Y-13711008D01*
X14218491Y-13711008D02*
X14237539Y-13682436D01*
X14237539Y-13682436D02*
X14247063Y-13672912D01*
X14408968Y-13768150D02*
X14408968Y-13901484D01*
X14361348Y-13691960D02*
X14313729Y-13834817D01*
X14313729Y-13834817D02*
X14437539Y-13834817D01*
X14523253Y-13901484D02*
X14561348Y-13901484D01*
X14561348Y-13901484D02*
X14580396Y-13891960D01*
X14580396Y-13891960D02*
X14589920Y-13882436D01*
X14589920Y-13882436D02*
X14608968Y-13853865D01*
X14608968Y-13853865D02*
X14618491Y-13815769D01*
X14618491Y-13815769D02*
X14618491Y-13739579D01*
X14618491Y-13739579D02*
X14608968Y-13720531D01*
X14608968Y-13720531D02*
X14599444Y-13711008D01*
X14599444Y-13711008D02*
X14580396Y-13701484D01*
X14580396Y-13701484D02*
X14542301Y-13701484D01*
X14542301Y-13701484D02*
X14523253Y-13711008D01*
X14523253Y-13711008D02*
X14513729Y-13720531D01*
X14513729Y-13720531D02*
X14504206Y-13739579D01*
X14504206Y-13739579D02*
X14504206Y-13787198D01*
X14504206Y-13787198D02*
X14513729Y-13806246D01*
X14513729Y-13806246D02*
X14523253Y-13815769D01*
X14523253Y-13815769D02*
X14542301Y-13825293D01*
X14542301Y-13825293D02*
X14580396Y-13825293D01*
X14580396Y-13825293D02*
X14599444Y-13815769D01*
X14599444Y-13815769D02*
X14608968Y-13806246D01*
X14608968Y-13806246D02*
X14618491Y-13787198D01*
X14808968Y-13901484D02*
X14694682Y-13901484D01*
X14751825Y-13901484D02*
X14751825Y-13701484D01*
X14751825Y-13701484D02*
X14732777Y-13730055D01*
X14732777Y-13730055D02*
X14713729Y-13749103D01*
X14713729Y-13749103D02*
X14694682Y-13758627D01*
X15047063Y-13901484D02*
X15047063Y-13701484D01*
X15132777Y-13901484D02*
X15132777Y-13796722D01*
X15132777Y-13796722D02*
X15123253Y-13777674D01*
X15123253Y-13777674D02*
X15104206Y-13768150D01*
X15104206Y-13768150D02*
X15075634Y-13768150D01*
X15075634Y-13768150D02*
X15056587Y-13777674D01*
X15056587Y-13777674D02*
X15047063Y-13787198D01*
X15256587Y-13901484D02*
X15237539Y-13891960D01*
X15237539Y-13891960D02*
X15228015Y-13882436D01*
X15228015Y-13882436D02*
X15218491Y-13863388D01*
X15218491Y-13863388D02*
X15218491Y-13806246D01*
X15218491Y-13806246D02*
X15228015Y-13787198D01*
X15228015Y-13787198D02*
X15237539Y-13777674D01*
X15237539Y-13777674D02*
X15256587Y-13768150D01*
X15256587Y-13768150D02*
X15285158Y-13768150D01*
X15285158Y-13768150D02*
X15304206Y-13777674D01*
X15304206Y-13777674D02*
X15313730Y-13787198D01*
X15313730Y-13787198D02*
X15323253Y-13806246D01*
X15323253Y-13806246D02*
X15323253Y-13863388D01*
X15323253Y-13863388D02*
X15313730Y-13882436D01*
X15313730Y-13882436D02*
X15304206Y-13891960D01*
X15304206Y-13891960D02*
X15285158Y-13901484D01*
X15285158Y-13901484D02*
X15256587Y-13901484D01*
X15437539Y-13901484D02*
X15418491Y-13891960D01*
X15418491Y-13891960D02*
X15408968Y-13872912D01*
X15408968Y-13872912D02*
X15408968Y-13701484D01*
X15589920Y-13891960D02*
X15570872Y-13901484D01*
X15570872Y-13901484D02*
X15532777Y-13901484D01*
X15532777Y-13901484D02*
X15513730Y-13891960D01*
X15513730Y-13891960D02*
X15504206Y-13872912D01*
X15504206Y-13872912D02*
X15504206Y-13796722D01*
X15504206Y-13796722D02*
X15513730Y-13777674D01*
X15513730Y-13777674D02*
X15532777Y-13768150D01*
X15532777Y-13768150D02*
X15570872Y-13768150D01*
X15570872Y-13768150D02*
X15589920Y-13777674D01*
X15589920Y-13777674D02*
X15599444Y-13796722D01*
X15599444Y-13796722D02*
X15599444Y-13815769D01*
X15599444Y-13815769D02*
X15504206Y-13834817D01*
X15675634Y-13891960D02*
X15694682Y-13901484D01*
X15694682Y-13901484D02*
X15732777Y-13901484D01*
X15732777Y-13901484D02*
X15751825Y-13891960D01*
X15751825Y-13891960D02*
X15761349Y-13872912D01*
X15761349Y-13872912D02*
X15761349Y-13863388D01*
X15761349Y-13863388D02*
X15751825Y-13844341D01*
X15751825Y-13844341D02*
X15732777Y-13834817D01*
X15732777Y-13834817D02*
X15704206Y-13834817D01*
X15704206Y-13834817D02*
X15685158Y-13825293D01*
X15685158Y-13825293D02*
X15675634Y-13806246D01*
X15675634Y-13806246D02*
X15675634Y-13796722D01*
X15675634Y-13796722D02*
X15685158Y-13777674D01*
X15685158Y-13777674D02*
X15704206Y-13768150D01*
X15704206Y-13768150D02*
X15732777Y-13768150D01*
X15732777Y-13768150D02*
X15751825Y-13777674D01*
X15828015Y-13977674D02*
X15837539Y-13968150D01*
X15837539Y-13968150D02*
X15856587Y-13939579D01*
X15856587Y-13939579D02*
X15866111Y-13920531D01*
X15866111Y-13920531D02*
X15875634Y-13891960D01*
X15875634Y-13891960D02*
X15885158Y-13844341D01*
X15885158Y-13844341D02*
X15885158Y-13806246D01*
X15885158Y-13806246D02*
X15875634Y-13758627D01*
X15875634Y-13758627D02*
X15866111Y-13730055D01*
X15866111Y-13730055D02*
X15856587Y-13711008D01*
X15856587Y-13711008D02*
X15837539Y-13682436D01*
X15837539Y-13682436D02*
X15828015Y-13672912D01*
D10*
X10639500Y-14041500D02*
X10639500Y-14106500D01*
X10607000Y-14074000D02*
X10672000Y-14074000D01*
D11*
X10970872Y-13965484D02*
X10989920Y-13965484D01*
X10989920Y-13965484D02*
X11008967Y-13975008D01*
X11008967Y-13975008D02*
X11018491Y-13984531D01*
X11018491Y-13984531D02*
X11028015Y-14003579D01*
X11028015Y-14003579D02*
X11037539Y-14041674D01*
X11037539Y-14041674D02*
X11037539Y-14089293D01*
X11037539Y-14089293D02*
X11028015Y-14127388D01*
X11028015Y-14127388D02*
X11018491Y-14146436D01*
X11018491Y-14146436D02*
X11008967Y-14155960D01*
X11008967Y-14155960D02*
X10989920Y-14165484D01*
X10989920Y-14165484D02*
X10970872Y-14165484D01*
X10970872Y-14165484D02*
X10951824Y-14155960D01*
X10951824Y-14155960D02*
X10942301Y-14146436D01*
X10942301Y-14146436D02*
X10932777Y-14127388D01*
X10932777Y-14127388D02*
X10923253Y-14089293D01*
X10923253Y-14089293D02*
X10923253Y-14041674D01*
X10923253Y-14041674D02*
X10932777Y-14003579D01*
X10932777Y-14003579D02*
X10942301Y-13984531D01*
X10942301Y-13984531D02*
X10951824Y-13975008D01*
X10951824Y-13975008D02*
X10970872Y-13965484D01*
X11123253Y-14146436D02*
X11132777Y-14155960D01*
X11132777Y-14155960D02*
X11123253Y-14165484D01*
X11123253Y-14165484D02*
X11113729Y-14155960D01*
X11113729Y-14155960D02*
X11123253Y-14146436D01*
X11123253Y-14146436D02*
X11123253Y-14165484D01*
X11304205Y-13965484D02*
X11266110Y-13965484D01*
X11266110Y-13965484D02*
X11247062Y-13975008D01*
X11247062Y-13975008D02*
X11237539Y-13984531D01*
X11237539Y-13984531D02*
X11218491Y-14013103D01*
X11218491Y-14013103D02*
X11208967Y-14051198D01*
X11208967Y-14051198D02*
X11208967Y-14127388D01*
X11208967Y-14127388D02*
X11218491Y-14146436D01*
X11218491Y-14146436D02*
X11228015Y-14155960D01*
X11228015Y-14155960D02*
X11247062Y-14165484D01*
X11247062Y-14165484D02*
X11285158Y-14165484D01*
X11285158Y-14165484D02*
X11304205Y-14155960D01*
X11304205Y-14155960D02*
X11313729Y-14146436D01*
X11313729Y-14146436D02*
X11323253Y-14127388D01*
X11323253Y-14127388D02*
X11323253Y-14079769D01*
X11323253Y-14079769D02*
X11313729Y-14060722D01*
X11313729Y-14060722D02*
X11304205Y-14051198D01*
X11304205Y-14051198D02*
X11285158Y-14041674D01*
X11285158Y-14041674D02*
X11247062Y-14041674D01*
X11247062Y-14041674D02*
X11228015Y-14051198D01*
X11228015Y-14051198D02*
X11218491Y-14060722D01*
X11218491Y-14060722D02*
X11208967Y-14079769D01*
X11504205Y-13965484D02*
X11408967Y-13965484D01*
X11408967Y-13965484D02*
X11399443Y-14060722D01*
X11399443Y-14060722D02*
X11408967Y-14051198D01*
X11408967Y-14051198D02*
X11428015Y-14041674D01*
X11428015Y-14041674D02*
X11475634Y-14041674D01*
X11475634Y-14041674D02*
X11494682Y-14051198D01*
X11494682Y-14051198D02*
X11504205Y-14060722D01*
X11504205Y-14060722D02*
X11513729Y-14079769D01*
X11513729Y-14079769D02*
X11513729Y-14127388D01*
X11513729Y-14127388D02*
X11504205Y-14146436D01*
X11504205Y-14146436D02*
X11494682Y-14155960D01*
X11494682Y-14155960D02*
X11475634Y-14165484D01*
X11475634Y-14165484D02*
X11428015Y-14165484D01*
X11428015Y-14165484D02*
X11408967Y-14155960D01*
X11408967Y-14155960D02*
X11399443Y-14146436D01*
X11637539Y-13965484D02*
X11656586Y-13965484D01*
X11656586Y-13965484D02*
X11675634Y-13975008D01*
X11675634Y-13975008D02*
X11685158Y-13984531D01*
X11685158Y-13984531D02*
X11694682Y-14003579D01*
X11694682Y-14003579D02*
X11704205Y-14041674D01*
X11704205Y-14041674D02*
X11704205Y-14089293D01*
X11704205Y-14089293D02*
X11694682Y-14127388D01*
X11694682Y-14127388D02*
X11685158Y-14146436D01*
X11685158Y-14146436D02*
X11675634Y-14155960D01*
X11675634Y-14155960D02*
X11656586Y-14165484D01*
X11656586Y-14165484D02*
X11637539Y-14165484D01*
X11637539Y-14165484D02*
X11618491Y-14155960D01*
X11618491Y-14155960D02*
X11608967Y-14146436D01*
X11608967Y-14146436D02*
X11599443Y-14127388D01*
X11599443Y-14127388D02*
X11589920Y-14089293D01*
X11589920Y-14089293D02*
X11589920Y-14041674D01*
X11589920Y-14041674D02*
X11599443Y-14003579D01*
X11599443Y-14003579D02*
X11608967Y-13984531D01*
X11608967Y-13984531D02*
X11618491Y-13975008D01*
X11618491Y-13975008D02*
X11637539Y-13965484D01*
X11789920Y-14165484D02*
X11789920Y-14032150D01*
X11789920Y-14051198D02*
X11799443Y-14041674D01*
X11799443Y-14041674D02*
X11818491Y-14032150D01*
X11818491Y-14032150D02*
X11847063Y-14032150D01*
X11847063Y-14032150D02*
X11866110Y-14041674D01*
X11866110Y-14041674D02*
X11875634Y-14060722D01*
X11875634Y-14060722D02*
X11875634Y-14165484D01*
X11875634Y-14060722D02*
X11885158Y-14041674D01*
X11885158Y-14041674D02*
X11904205Y-14032150D01*
X11904205Y-14032150D02*
X11932777Y-14032150D01*
X11932777Y-14032150D02*
X11951824Y-14041674D01*
X11951824Y-14041674D02*
X11961348Y-14060722D01*
X11961348Y-14060722D02*
X11961348Y-14165484D01*
X12056586Y-14165484D02*
X12056586Y-14032150D01*
X12056586Y-14051198D02*
X12066110Y-14041674D01*
X12066110Y-14041674D02*
X12085158Y-14032150D01*
X12085158Y-14032150D02*
X12113729Y-14032150D01*
X12113729Y-14032150D02*
X12132777Y-14041674D01*
X12132777Y-14041674D02*
X12142301Y-14060722D01*
X12142301Y-14060722D02*
X12142301Y-14165484D01*
X12142301Y-14060722D02*
X12151824Y-14041674D01*
X12151824Y-14041674D02*
X12170872Y-14032150D01*
X12170872Y-14032150D02*
X12199443Y-14032150D01*
X12199443Y-14032150D02*
X12218491Y-14041674D01*
X12218491Y-14041674D02*
X12228015Y-14060722D01*
X12228015Y-14060722D02*
X12228015Y-14165484D01*
X12618491Y-13955960D02*
X12447063Y-14213103D01*
X12875634Y-13965484D02*
X12894682Y-13965484D01*
X12894682Y-13965484D02*
X12913729Y-13975008D01*
X12913729Y-13975008D02*
X12923253Y-13984531D01*
X12923253Y-13984531D02*
X12932777Y-14003579D01*
X12932777Y-14003579D02*
X12942301Y-14041674D01*
X12942301Y-14041674D02*
X12942301Y-14089293D01*
X12942301Y-14089293D02*
X12932777Y-14127388D01*
X12932777Y-14127388D02*
X12923253Y-14146436D01*
X12923253Y-14146436D02*
X12913729Y-14155960D01*
X12913729Y-14155960D02*
X12894682Y-14165484D01*
X12894682Y-14165484D02*
X12875634Y-14165484D01*
X12875634Y-14165484D02*
X12856586Y-14155960D01*
X12856586Y-14155960D02*
X12847063Y-14146436D01*
X12847063Y-14146436D02*
X12837539Y-14127388D01*
X12837539Y-14127388D02*
X12828015Y-14089293D01*
X12828015Y-14089293D02*
X12828015Y-14041674D01*
X12828015Y-14041674D02*
X12837539Y-14003579D01*
X12837539Y-14003579D02*
X12847063Y-13984531D01*
X12847063Y-13984531D02*
X12856586Y-13975008D01*
X12856586Y-13975008D02*
X12875634Y-13965484D01*
X13028015Y-14146436D02*
X13037539Y-14155960D01*
X13037539Y-14155960D02*
X13028015Y-14165484D01*
X13028015Y-14165484D02*
X13018491Y-14155960D01*
X13018491Y-14155960D02*
X13028015Y-14146436D01*
X13028015Y-14146436D02*
X13028015Y-14165484D01*
X13161348Y-13965484D02*
X13180396Y-13965484D01*
X13180396Y-13965484D02*
X13199444Y-13975008D01*
X13199444Y-13975008D02*
X13208967Y-13984531D01*
X13208967Y-13984531D02*
X13218491Y-14003579D01*
X13218491Y-14003579D02*
X13228015Y-14041674D01*
X13228015Y-14041674D02*
X13228015Y-14089293D01*
X13228015Y-14089293D02*
X13218491Y-14127388D01*
X13218491Y-14127388D02*
X13208967Y-14146436D01*
X13208967Y-14146436D02*
X13199444Y-14155960D01*
X13199444Y-14155960D02*
X13180396Y-14165484D01*
X13180396Y-14165484D02*
X13161348Y-14165484D01*
X13161348Y-14165484D02*
X13142301Y-14155960D01*
X13142301Y-14155960D02*
X13132777Y-14146436D01*
X13132777Y-14146436D02*
X13123253Y-14127388D01*
X13123253Y-14127388D02*
X13113729Y-14089293D01*
X13113729Y-14089293D02*
X13113729Y-14041674D01*
X13113729Y-14041674D02*
X13123253Y-14003579D01*
X13123253Y-14003579D02*
X13132777Y-13984531D01*
X13132777Y-13984531D02*
X13142301Y-13975008D01*
X13142301Y-13975008D02*
X13161348Y-13965484D01*
X13304206Y-13984531D02*
X13313729Y-13975008D01*
X13313729Y-13975008D02*
X13332777Y-13965484D01*
X13332777Y-13965484D02*
X13380396Y-13965484D01*
X13380396Y-13965484D02*
X13399444Y-13975008D01*
X13399444Y-13975008D02*
X13408967Y-13984531D01*
X13408967Y-13984531D02*
X13418491Y-14003579D01*
X13418491Y-14003579D02*
X13418491Y-14022627D01*
X13418491Y-14022627D02*
X13408967Y-14051198D01*
X13408967Y-14051198D02*
X13294682Y-14165484D01*
X13294682Y-14165484D02*
X13418491Y-14165484D01*
X13599444Y-13965484D02*
X13504206Y-13965484D01*
X13504206Y-13965484D02*
X13494682Y-14060722D01*
X13494682Y-14060722D02*
X13504206Y-14051198D01*
X13504206Y-14051198D02*
X13523253Y-14041674D01*
X13523253Y-14041674D02*
X13570872Y-14041674D01*
X13570872Y-14041674D02*
X13589920Y-14051198D01*
X13589920Y-14051198D02*
X13599444Y-14060722D01*
X13599444Y-14060722D02*
X13608967Y-14079769D01*
X13608967Y-14079769D02*
X13608967Y-14127388D01*
X13608967Y-14127388D02*
X13599444Y-14146436D01*
X13599444Y-14146436D02*
X13589920Y-14155960D01*
X13589920Y-14155960D02*
X13570872Y-14165484D01*
X13570872Y-14165484D02*
X13523253Y-14165484D01*
X13523253Y-14165484D02*
X13504206Y-14155960D01*
X13504206Y-14155960D02*
X13494682Y-14146436D01*
X13780396Y-13965484D02*
X13742301Y-13965484D01*
X13742301Y-13965484D02*
X13723253Y-13975008D01*
X13723253Y-13975008D02*
X13713729Y-13984531D01*
X13713729Y-13984531D02*
X13694682Y-14013103D01*
X13694682Y-14013103D02*
X13685158Y-14051198D01*
X13685158Y-14051198D02*
X13685158Y-14127388D01*
X13685158Y-14127388D02*
X13694682Y-14146436D01*
X13694682Y-14146436D02*
X13704206Y-14155960D01*
X13704206Y-14155960D02*
X13723253Y-14165484D01*
X13723253Y-14165484D02*
X13761348Y-14165484D01*
X13761348Y-14165484D02*
X13780396Y-14155960D01*
X13780396Y-14155960D02*
X13789920Y-14146436D01*
X13789920Y-14146436D02*
X13799444Y-14127388D01*
X13799444Y-14127388D02*
X13799444Y-14079769D01*
X13799444Y-14079769D02*
X13789920Y-14060722D01*
X13789920Y-14060722D02*
X13780396Y-14051198D01*
X13780396Y-14051198D02*
X13761348Y-14041674D01*
X13761348Y-14041674D02*
X13723253Y-14041674D01*
X13723253Y-14041674D02*
X13704206Y-14051198D01*
X13704206Y-14051198D02*
X13694682Y-14060722D01*
X13694682Y-14060722D02*
X13685158Y-14079769D01*
X13875634Y-13965484D02*
X13875634Y-14003579D01*
X13951825Y-13965484D02*
X13951825Y-14003579D01*
X14247063Y-14241674D02*
X14237539Y-14232150D01*
X14237539Y-14232150D02*
X14218491Y-14203579D01*
X14218491Y-14203579D02*
X14208968Y-14184531D01*
X14208968Y-14184531D02*
X14199444Y-14155960D01*
X14199444Y-14155960D02*
X14189920Y-14108341D01*
X14189920Y-14108341D02*
X14189920Y-14070246D01*
X14189920Y-14070246D02*
X14199444Y-14022627D01*
X14199444Y-14022627D02*
X14208968Y-13994055D01*
X14208968Y-13994055D02*
X14218491Y-13975008D01*
X14218491Y-13975008D02*
X14237539Y-13946436D01*
X14237539Y-13946436D02*
X14247063Y-13936912D01*
X14428015Y-14165484D02*
X14313729Y-14165484D01*
X14370872Y-14165484D02*
X14370872Y-13965484D01*
X14370872Y-13965484D02*
X14351825Y-13994055D01*
X14351825Y-13994055D02*
X14332777Y-14013103D01*
X14332777Y-14013103D02*
X14313729Y-14022627D01*
X14551825Y-13965484D02*
X14570872Y-13965484D01*
X14570872Y-13965484D02*
X14589920Y-13975008D01*
X14589920Y-13975008D02*
X14599444Y-13984531D01*
X14599444Y-13984531D02*
X14608968Y-14003579D01*
X14608968Y-14003579D02*
X14618491Y-14041674D01*
X14618491Y-14041674D02*
X14618491Y-14089293D01*
X14618491Y-14089293D02*
X14608968Y-14127388D01*
X14608968Y-14127388D02*
X14599444Y-14146436D01*
X14599444Y-14146436D02*
X14589920Y-14155960D01*
X14589920Y-14155960D02*
X14570872Y-14165484D01*
X14570872Y-14165484D02*
X14551825Y-14165484D01*
X14551825Y-14165484D02*
X14532777Y-14155960D01*
X14532777Y-14155960D02*
X14523253Y-14146436D01*
X14523253Y-14146436D02*
X14513729Y-14127388D01*
X14513729Y-14127388D02*
X14504206Y-14089293D01*
X14504206Y-14089293D02*
X14504206Y-14041674D01*
X14504206Y-14041674D02*
X14513729Y-14003579D01*
X14513729Y-14003579D02*
X14523253Y-13984531D01*
X14523253Y-13984531D02*
X14532777Y-13975008D01*
X14532777Y-13975008D02*
X14551825Y-13965484D01*
X14856587Y-14165484D02*
X14856587Y-13965484D01*
X14942301Y-14165484D02*
X14942301Y-14060722D01*
X14942301Y-14060722D02*
X14932777Y-14041674D01*
X14932777Y-14041674D02*
X14913730Y-14032150D01*
X14913730Y-14032150D02*
X14885158Y-14032150D01*
X14885158Y-14032150D02*
X14866110Y-14041674D01*
X14866110Y-14041674D02*
X14856587Y-14051198D01*
X15066110Y-14165484D02*
X15047063Y-14155960D01*
X15047063Y-14155960D02*
X15037539Y-14146436D01*
X15037539Y-14146436D02*
X15028015Y-14127388D01*
X15028015Y-14127388D02*
X15028015Y-14070246D01*
X15028015Y-14070246D02*
X15037539Y-14051198D01*
X15037539Y-14051198D02*
X15047063Y-14041674D01*
X15047063Y-14041674D02*
X15066110Y-14032150D01*
X15066110Y-14032150D02*
X15094682Y-14032150D01*
X15094682Y-14032150D02*
X15113730Y-14041674D01*
X15113730Y-14041674D02*
X15123253Y-14051198D01*
X15123253Y-14051198D02*
X15132777Y-14070246D01*
X15132777Y-14070246D02*
X15132777Y-14127388D01*
X15132777Y-14127388D02*
X15123253Y-14146436D01*
X15123253Y-14146436D02*
X15113730Y-14155960D01*
X15113730Y-14155960D02*
X15094682Y-14165484D01*
X15094682Y-14165484D02*
X15066110Y-14165484D01*
X15247063Y-14165484D02*
X15228015Y-14155960D01*
X15228015Y-14155960D02*
X15218491Y-14136912D01*
X15218491Y-14136912D02*
X15218491Y-13965484D01*
X15399444Y-14155960D02*
X15380396Y-14165484D01*
X15380396Y-14165484D02*
X15342301Y-14165484D01*
X15342301Y-14165484D02*
X15323253Y-14155960D01*
X15323253Y-14155960D02*
X15313730Y-14136912D01*
X15313730Y-14136912D02*
X15313730Y-14060722D01*
X15313730Y-14060722D02*
X15323253Y-14041674D01*
X15323253Y-14041674D02*
X15342301Y-14032150D01*
X15342301Y-14032150D02*
X15380396Y-14032150D01*
X15380396Y-14032150D02*
X15399444Y-14041674D01*
X15399444Y-14041674D02*
X15408968Y-14060722D01*
X15408968Y-14060722D02*
X15408968Y-14079769D01*
X15408968Y-14079769D02*
X15313730Y-14098817D01*
X15485158Y-14155960D02*
X15504206Y-14165484D01*
X15504206Y-14165484D02*
X15542301Y-14165484D01*
X15542301Y-14165484D02*
X15561349Y-14155960D01*
X15561349Y-14155960D02*
X15570872Y-14136912D01*
X15570872Y-14136912D02*
X15570872Y-14127388D01*
X15570872Y-14127388D02*
X15561349Y-14108341D01*
X15561349Y-14108341D02*
X15542301Y-14098817D01*
X15542301Y-14098817D02*
X15513730Y-14098817D01*
X15513730Y-14098817D02*
X15494682Y-14089293D01*
X15494682Y-14089293D02*
X15485158Y-14070246D01*
X15485158Y-14070246D02*
X15485158Y-14060722D01*
X15485158Y-14060722D02*
X15494682Y-14041674D01*
X15494682Y-14041674D02*
X15513730Y-14032150D01*
X15513730Y-14032150D02*
X15542301Y-14032150D01*
X15542301Y-14032150D02*
X15561349Y-14041674D01*
X15637539Y-14241674D02*
X15647063Y-14232150D01*
X15647063Y-14232150D02*
X15666111Y-14203579D01*
X15666111Y-14203579D02*
X15675634Y-14184531D01*
X15675634Y-14184531D02*
X15685158Y-14155960D01*
X15685158Y-14155960D02*
X15694682Y-14108341D01*
X15694682Y-14108341D02*
X15694682Y-14070246D01*
X15694682Y-14070246D02*
X15685158Y-14022627D01*
X15685158Y-14022627D02*
X15675634Y-13994055D01*
X15675634Y-13994055D02*
X15666111Y-13975008D01*
X15666111Y-13975008D02*
X15647063Y-13946436D01*
X15647063Y-13946436D02*
X15637539Y-13936912D01*
D10*
X10657795Y-14372295D02*
X10657795Y-14303705D01*
X10589205Y-14303705D01*
X10589205Y-14372295D01*
X10657795Y-14372295D01*
D11*
X10970872Y-14229484D02*
X10989920Y-14229484D01*
X10989920Y-14229484D02*
X11008967Y-14239008D01*
X11008967Y-14239008D02*
X11018491Y-14248531D01*
X11018491Y-14248531D02*
X11028015Y-14267579D01*
X11028015Y-14267579D02*
X11037539Y-14305674D01*
X11037539Y-14305674D02*
X11037539Y-14353293D01*
X11037539Y-14353293D02*
X11028015Y-14391388D01*
X11028015Y-14391388D02*
X11018491Y-14410436D01*
X11018491Y-14410436D02*
X11008967Y-14419960D01*
X11008967Y-14419960D02*
X10989920Y-14429484D01*
X10989920Y-14429484D02*
X10970872Y-14429484D01*
X10970872Y-14429484D02*
X10951824Y-14419960D01*
X10951824Y-14419960D02*
X10942301Y-14410436D01*
X10942301Y-14410436D02*
X10932777Y-14391388D01*
X10932777Y-14391388D02*
X10923253Y-14353293D01*
X10923253Y-14353293D02*
X10923253Y-14305674D01*
X10923253Y-14305674D02*
X10932777Y-14267579D01*
X10932777Y-14267579D02*
X10942301Y-14248531D01*
X10942301Y-14248531D02*
X10951824Y-14239008D01*
X10951824Y-14239008D02*
X10970872Y-14229484D01*
X11123253Y-14410436D02*
X11132777Y-14419960D01*
X11132777Y-14419960D02*
X11123253Y-14429484D01*
X11123253Y-14429484D02*
X11113729Y-14419960D01*
X11113729Y-14419960D02*
X11123253Y-14410436D01*
X11123253Y-14410436D02*
X11123253Y-14429484D01*
X11228015Y-14429484D02*
X11266110Y-14429484D01*
X11266110Y-14429484D02*
X11285158Y-14419960D01*
X11285158Y-14419960D02*
X11294682Y-14410436D01*
X11294682Y-14410436D02*
X11313729Y-14381865D01*
X11313729Y-14381865D02*
X11323253Y-14343769D01*
X11323253Y-14343769D02*
X11323253Y-14267579D01*
X11323253Y-14267579D02*
X11313729Y-14248531D01*
X11313729Y-14248531D02*
X11304205Y-14239008D01*
X11304205Y-14239008D02*
X11285158Y-14229484D01*
X11285158Y-14229484D02*
X11247062Y-14229484D01*
X11247062Y-14229484D02*
X11228015Y-14239008D01*
X11228015Y-14239008D02*
X11218491Y-14248531D01*
X11218491Y-14248531D02*
X11208967Y-14267579D01*
X11208967Y-14267579D02*
X11208967Y-14315198D01*
X11208967Y-14315198D02*
X11218491Y-14334246D01*
X11218491Y-14334246D02*
X11228015Y-14343769D01*
X11228015Y-14343769D02*
X11247062Y-14353293D01*
X11247062Y-14353293D02*
X11285158Y-14353293D01*
X11285158Y-14353293D02*
X11304205Y-14343769D01*
X11304205Y-14343769D02*
X11313729Y-14334246D01*
X11313729Y-14334246D02*
X11323253Y-14315198D01*
X11389920Y-14229484D02*
X11523253Y-14229484D01*
X11523253Y-14229484D02*
X11437539Y-14429484D01*
X11637539Y-14229484D02*
X11656586Y-14229484D01*
X11656586Y-14229484D02*
X11675634Y-14239008D01*
X11675634Y-14239008D02*
X11685158Y-14248531D01*
X11685158Y-14248531D02*
X11694682Y-14267579D01*
X11694682Y-14267579D02*
X11704205Y-14305674D01*
X11704205Y-14305674D02*
X11704205Y-14353293D01*
X11704205Y-14353293D02*
X11694682Y-14391388D01*
X11694682Y-14391388D02*
X11685158Y-14410436D01*
X11685158Y-14410436D02*
X11675634Y-14419960D01*
X11675634Y-14419960D02*
X11656586Y-14429484D01*
X11656586Y-14429484D02*
X11637539Y-14429484D01*
X11637539Y-14429484D02*
X11618491Y-14419960D01*
X11618491Y-14419960D02*
X11608967Y-14410436D01*
X11608967Y-14410436D02*
X11599443Y-14391388D01*
X11599443Y-14391388D02*
X11589920Y-14353293D01*
X11589920Y-14353293D02*
X11589920Y-14305674D01*
X11589920Y-14305674D02*
X11599443Y-14267579D01*
X11599443Y-14267579D02*
X11608967Y-14248531D01*
X11608967Y-14248531D02*
X11618491Y-14239008D01*
X11618491Y-14239008D02*
X11637539Y-14229484D01*
X11789920Y-14429484D02*
X11789920Y-14296150D01*
X11789920Y-14315198D02*
X11799443Y-14305674D01*
X11799443Y-14305674D02*
X11818491Y-14296150D01*
X11818491Y-14296150D02*
X11847063Y-14296150D01*
X11847063Y-14296150D02*
X11866110Y-14305674D01*
X11866110Y-14305674D02*
X11875634Y-14324722D01*
X11875634Y-14324722D02*
X11875634Y-14429484D01*
X11875634Y-14324722D02*
X11885158Y-14305674D01*
X11885158Y-14305674D02*
X11904205Y-14296150D01*
X11904205Y-14296150D02*
X11932777Y-14296150D01*
X11932777Y-14296150D02*
X11951824Y-14305674D01*
X11951824Y-14305674D02*
X11961348Y-14324722D01*
X11961348Y-14324722D02*
X11961348Y-14429484D01*
X12056586Y-14429484D02*
X12056586Y-14296150D01*
X12056586Y-14315198D02*
X12066110Y-14305674D01*
X12066110Y-14305674D02*
X12085158Y-14296150D01*
X12085158Y-14296150D02*
X12113729Y-14296150D01*
X12113729Y-14296150D02*
X12132777Y-14305674D01*
X12132777Y-14305674D02*
X12142301Y-14324722D01*
X12142301Y-14324722D02*
X12142301Y-14429484D01*
X12142301Y-14324722D02*
X12151824Y-14305674D01*
X12151824Y-14305674D02*
X12170872Y-14296150D01*
X12170872Y-14296150D02*
X12199443Y-14296150D01*
X12199443Y-14296150D02*
X12218491Y-14305674D01*
X12218491Y-14305674D02*
X12228015Y-14324722D01*
X12228015Y-14324722D02*
X12228015Y-14429484D01*
X12618491Y-14219960D02*
X12447063Y-14477103D01*
X12875634Y-14229484D02*
X12894682Y-14229484D01*
X12894682Y-14229484D02*
X12913729Y-14239008D01*
X12913729Y-14239008D02*
X12923253Y-14248531D01*
X12923253Y-14248531D02*
X12932777Y-14267579D01*
X12932777Y-14267579D02*
X12942301Y-14305674D01*
X12942301Y-14305674D02*
X12942301Y-14353293D01*
X12942301Y-14353293D02*
X12932777Y-14391388D01*
X12932777Y-14391388D02*
X12923253Y-14410436D01*
X12923253Y-14410436D02*
X12913729Y-14419960D01*
X12913729Y-14419960D02*
X12894682Y-14429484D01*
X12894682Y-14429484D02*
X12875634Y-14429484D01*
X12875634Y-14429484D02*
X12856586Y-14419960D01*
X12856586Y-14419960D02*
X12847063Y-14410436D01*
X12847063Y-14410436D02*
X12837539Y-14391388D01*
X12837539Y-14391388D02*
X12828015Y-14353293D01*
X12828015Y-14353293D02*
X12828015Y-14305674D01*
X12828015Y-14305674D02*
X12837539Y-14267579D01*
X12837539Y-14267579D02*
X12847063Y-14248531D01*
X12847063Y-14248531D02*
X12856586Y-14239008D01*
X12856586Y-14239008D02*
X12875634Y-14229484D01*
X13028015Y-14410436D02*
X13037539Y-14419960D01*
X13037539Y-14419960D02*
X13028015Y-14429484D01*
X13028015Y-14429484D02*
X13018491Y-14419960D01*
X13018491Y-14419960D02*
X13028015Y-14410436D01*
X13028015Y-14410436D02*
X13028015Y-14429484D01*
X13161348Y-14229484D02*
X13180396Y-14229484D01*
X13180396Y-14229484D02*
X13199444Y-14239008D01*
X13199444Y-14239008D02*
X13208967Y-14248531D01*
X13208967Y-14248531D02*
X13218491Y-14267579D01*
X13218491Y-14267579D02*
X13228015Y-14305674D01*
X13228015Y-14305674D02*
X13228015Y-14353293D01*
X13228015Y-14353293D02*
X13218491Y-14391388D01*
X13218491Y-14391388D02*
X13208967Y-14410436D01*
X13208967Y-14410436D02*
X13199444Y-14419960D01*
X13199444Y-14419960D02*
X13180396Y-14429484D01*
X13180396Y-14429484D02*
X13161348Y-14429484D01*
X13161348Y-14429484D02*
X13142301Y-14419960D01*
X13142301Y-14419960D02*
X13132777Y-14410436D01*
X13132777Y-14410436D02*
X13123253Y-14391388D01*
X13123253Y-14391388D02*
X13113729Y-14353293D01*
X13113729Y-14353293D02*
X13113729Y-14305674D01*
X13113729Y-14305674D02*
X13123253Y-14267579D01*
X13123253Y-14267579D02*
X13132777Y-14248531D01*
X13132777Y-14248531D02*
X13142301Y-14239008D01*
X13142301Y-14239008D02*
X13161348Y-14229484D01*
X13294682Y-14229484D02*
X13418491Y-14229484D01*
X13418491Y-14229484D02*
X13351825Y-14305674D01*
X13351825Y-14305674D02*
X13380396Y-14305674D01*
X13380396Y-14305674D02*
X13399444Y-14315198D01*
X13399444Y-14315198D02*
X13408967Y-14324722D01*
X13408967Y-14324722D02*
X13418491Y-14343769D01*
X13418491Y-14343769D02*
X13418491Y-14391388D01*
X13418491Y-14391388D02*
X13408967Y-14410436D01*
X13408967Y-14410436D02*
X13399444Y-14419960D01*
X13399444Y-14419960D02*
X13380396Y-14429484D01*
X13380396Y-14429484D02*
X13323253Y-14429484D01*
X13323253Y-14429484D02*
X13304206Y-14419960D01*
X13304206Y-14419960D02*
X13294682Y-14410436D01*
X13532777Y-14315198D02*
X13513729Y-14305674D01*
X13513729Y-14305674D02*
X13504206Y-14296150D01*
X13504206Y-14296150D02*
X13494682Y-14277103D01*
X13494682Y-14277103D02*
X13494682Y-14267579D01*
X13494682Y-14267579D02*
X13504206Y-14248531D01*
X13504206Y-14248531D02*
X13513729Y-14239008D01*
X13513729Y-14239008D02*
X13532777Y-14229484D01*
X13532777Y-14229484D02*
X13570872Y-14229484D01*
X13570872Y-14229484D02*
X13589920Y-14239008D01*
X13589920Y-14239008D02*
X13599444Y-14248531D01*
X13599444Y-14248531D02*
X13608967Y-14267579D01*
X13608967Y-14267579D02*
X13608967Y-14277103D01*
X13608967Y-14277103D02*
X13599444Y-14296150D01*
X13599444Y-14296150D02*
X13589920Y-14305674D01*
X13589920Y-14305674D02*
X13570872Y-14315198D01*
X13570872Y-14315198D02*
X13532777Y-14315198D01*
X13532777Y-14315198D02*
X13513729Y-14324722D01*
X13513729Y-14324722D02*
X13504206Y-14334246D01*
X13504206Y-14334246D02*
X13494682Y-14353293D01*
X13494682Y-14353293D02*
X13494682Y-14391388D01*
X13494682Y-14391388D02*
X13504206Y-14410436D01*
X13504206Y-14410436D02*
X13513729Y-14419960D01*
X13513729Y-14419960D02*
X13532777Y-14429484D01*
X13532777Y-14429484D02*
X13570872Y-14429484D01*
X13570872Y-14429484D02*
X13589920Y-14419960D01*
X13589920Y-14419960D02*
X13599444Y-14410436D01*
X13599444Y-14410436D02*
X13608967Y-14391388D01*
X13608967Y-14391388D02*
X13608967Y-14353293D01*
X13608967Y-14353293D02*
X13599444Y-14334246D01*
X13599444Y-14334246D02*
X13589920Y-14324722D01*
X13589920Y-14324722D02*
X13570872Y-14315198D01*
X13685158Y-14248531D02*
X13694682Y-14239008D01*
X13694682Y-14239008D02*
X13713729Y-14229484D01*
X13713729Y-14229484D02*
X13761348Y-14229484D01*
X13761348Y-14229484D02*
X13780396Y-14239008D01*
X13780396Y-14239008D02*
X13789920Y-14248531D01*
X13789920Y-14248531D02*
X13799444Y-14267579D01*
X13799444Y-14267579D02*
X13799444Y-14286627D01*
X13799444Y-14286627D02*
X13789920Y-14315198D01*
X13789920Y-14315198D02*
X13675634Y-14429484D01*
X13675634Y-14429484D02*
X13799444Y-14429484D01*
X13875634Y-14229484D02*
X13875634Y-14267579D01*
X13951825Y-14229484D02*
X13951825Y-14267579D01*
X14247063Y-14505674D02*
X14237539Y-14496150D01*
X14237539Y-14496150D02*
X14218491Y-14467579D01*
X14218491Y-14467579D02*
X14208968Y-14448531D01*
X14208968Y-14448531D02*
X14199444Y-14419960D01*
X14199444Y-14419960D02*
X14189920Y-14372341D01*
X14189920Y-14372341D02*
X14189920Y-14334246D01*
X14189920Y-14334246D02*
X14199444Y-14286627D01*
X14199444Y-14286627D02*
X14208968Y-14258055D01*
X14208968Y-14258055D02*
X14218491Y-14239008D01*
X14218491Y-14239008D02*
X14237539Y-14210436D01*
X14237539Y-14210436D02*
X14247063Y-14200912D01*
X14313729Y-14248531D02*
X14323253Y-14239008D01*
X14323253Y-14239008D02*
X14342301Y-14229484D01*
X14342301Y-14229484D02*
X14389920Y-14229484D01*
X14389920Y-14229484D02*
X14408968Y-14239008D01*
X14408968Y-14239008D02*
X14418491Y-14248531D01*
X14418491Y-14248531D02*
X14428015Y-14267579D01*
X14428015Y-14267579D02*
X14428015Y-14286627D01*
X14428015Y-14286627D02*
X14418491Y-14315198D01*
X14418491Y-14315198D02*
X14304206Y-14429484D01*
X14304206Y-14429484D02*
X14428015Y-14429484D01*
X14666110Y-14429484D02*
X14666110Y-14229484D01*
X14751825Y-14429484D02*
X14751825Y-14324722D01*
X14751825Y-14324722D02*
X14742301Y-14305674D01*
X14742301Y-14305674D02*
X14723253Y-14296150D01*
X14723253Y-14296150D02*
X14694682Y-14296150D01*
X14694682Y-14296150D02*
X14675634Y-14305674D01*
X14675634Y-14305674D02*
X14666110Y-14315198D01*
X14875634Y-14429484D02*
X14856587Y-14419960D01*
X14856587Y-14419960D02*
X14847063Y-14410436D01*
X14847063Y-14410436D02*
X14837539Y-14391388D01*
X14837539Y-14391388D02*
X14837539Y-14334246D01*
X14837539Y-14334246D02*
X14847063Y-14315198D01*
X14847063Y-14315198D02*
X14856587Y-14305674D01*
X14856587Y-14305674D02*
X14875634Y-14296150D01*
X14875634Y-14296150D02*
X14904206Y-14296150D01*
X14904206Y-14296150D02*
X14923253Y-14305674D01*
X14923253Y-14305674D02*
X14932777Y-14315198D01*
X14932777Y-14315198D02*
X14942301Y-14334246D01*
X14942301Y-14334246D02*
X14942301Y-14391388D01*
X14942301Y-14391388D02*
X14932777Y-14410436D01*
X14932777Y-14410436D02*
X14923253Y-14419960D01*
X14923253Y-14419960D02*
X14904206Y-14429484D01*
X14904206Y-14429484D02*
X14875634Y-14429484D01*
X15056587Y-14429484D02*
X15037539Y-14419960D01*
X15037539Y-14419960D02*
X15028015Y-14400912D01*
X15028015Y-14400912D02*
X15028015Y-14229484D01*
X15208968Y-14419960D02*
X15189920Y-14429484D01*
X15189920Y-14429484D02*
X15151825Y-14429484D01*
X15151825Y-14429484D02*
X15132777Y-14419960D01*
X15132777Y-14419960D02*
X15123253Y-14400912D01*
X15123253Y-14400912D02*
X15123253Y-14324722D01*
X15123253Y-14324722D02*
X15132777Y-14305674D01*
X15132777Y-14305674D02*
X15151825Y-14296150D01*
X15151825Y-14296150D02*
X15189920Y-14296150D01*
X15189920Y-14296150D02*
X15208968Y-14305674D01*
X15208968Y-14305674D02*
X15218491Y-14324722D01*
X15218491Y-14324722D02*
X15218491Y-14343769D01*
X15218491Y-14343769D02*
X15123253Y-14362817D01*
X15294682Y-14419960D02*
X15313730Y-14429484D01*
X15313730Y-14429484D02*
X15351825Y-14429484D01*
X15351825Y-14429484D02*
X15370872Y-14419960D01*
X15370872Y-14419960D02*
X15380396Y-14400912D01*
X15380396Y-14400912D02*
X15380396Y-14391388D01*
X15380396Y-14391388D02*
X15370872Y-14372341D01*
X15370872Y-14372341D02*
X15351825Y-14362817D01*
X15351825Y-14362817D02*
X15323253Y-14362817D01*
X15323253Y-14362817D02*
X15304206Y-14353293D01*
X15304206Y-14353293D02*
X15294682Y-14334246D01*
X15294682Y-14334246D02*
X15294682Y-14324722D01*
X15294682Y-14324722D02*
X15304206Y-14305674D01*
X15304206Y-14305674D02*
X15323253Y-14296150D01*
X15323253Y-14296150D02*
X15351825Y-14296150D01*
X15351825Y-14296150D02*
X15370872Y-14305674D01*
X15447063Y-14505674D02*
X15456587Y-14496150D01*
X15456587Y-14496150D02*
X15475634Y-14467579D01*
X15475634Y-14467579D02*
X15485158Y-14448531D01*
X15485158Y-14448531D02*
X15494682Y-14419960D01*
X15494682Y-14419960D02*
X15504206Y-14372341D01*
X15504206Y-14372341D02*
X15504206Y-14334246D01*
X15504206Y-14334246D02*
X15494682Y-14286627D01*
X15494682Y-14286627D02*
X15485158Y-14258055D01*
X15485158Y-14258055D02*
X15475634Y-14239008D01*
X15475634Y-14239008D02*
X15456587Y-14210436D01*
X15456587Y-14210436D02*
X15447063Y-14200912D01*
D10*
X10622000Y-14652000D02*
X10672000Y-14602000D01*
X10622000Y-14552000D01*
X10572000Y-14602000D01*
X10622000Y-14652000D01*
D11*
X11037539Y-14693484D02*
X10923253Y-14693484D01*
X10980396Y-14693484D02*
X10980396Y-14493484D01*
X10980396Y-14493484D02*
X10961348Y-14522055D01*
X10961348Y-14522055D02*
X10942301Y-14541103D01*
X10942301Y-14541103D02*
X10923253Y-14550627D01*
X11123253Y-14674436D02*
X11132777Y-14683960D01*
X11132777Y-14683960D02*
X11123253Y-14693484D01*
X11123253Y-14693484D02*
X11113729Y-14683960D01*
X11113729Y-14683960D02*
X11123253Y-14674436D01*
X11123253Y-14674436D02*
X11123253Y-14693484D01*
X11256586Y-14493484D02*
X11275634Y-14493484D01*
X11275634Y-14493484D02*
X11294682Y-14503008D01*
X11294682Y-14503008D02*
X11304205Y-14512531D01*
X11304205Y-14512531D02*
X11313729Y-14531579D01*
X11313729Y-14531579D02*
X11323253Y-14569674D01*
X11323253Y-14569674D02*
X11323253Y-14617293D01*
X11323253Y-14617293D02*
X11313729Y-14655388D01*
X11313729Y-14655388D02*
X11304205Y-14674436D01*
X11304205Y-14674436D02*
X11294682Y-14683960D01*
X11294682Y-14683960D02*
X11275634Y-14693484D01*
X11275634Y-14693484D02*
X11256586Y-14693484D01*
X11256586Y-14693484D02*
X11237539Y-14683960D01*
X11237539Y-14683960D02*
X11228015Y-14674436D01*
X11228015Y-14674436D02*
X11218491Y-14655388D01*
X11218491Y-14655388D02*
X11208967Y-14617293D01*
X11208967Y-14617293D02*
X11208967Y-14569674D01*
X11208967Y-14569674D02*
X11218491Y-14531579D01*
X11218491Y-14531579D02*
X11228015Y-14512531D01*
X11228015Y-14512531D02*
X11237539Y-14503008D01*
X11237539Y-14503008D02*
X11256586Y-14493484D01*
X11447062Y-14493484D02*
X11466110Y-14493484D01*
X11466110Y-14493484D02*
X11485158Y-14503008D01*
X11485158Y-14503008D02*
X11494682Y-14512531D01*
X11494682Y-14512531D02*
X11504205Y-14531579D01*
X11504205Y-14531579D02*
X11513729Y-14569674D01*
X11513729Y-14569674D02*
X11513729Y-14617293D01*
X11513729Y-14617293D02*
X11504205Y-14655388D01*
X11504205Y-14655388D02*
X11494682Y-14674436D01*
X11494682Y-14674436D02*
X11485158Y-14683960D01*
X11485158Y-14683960D02*
X11466110Y-14693484D01*
X11466110Y-14693484D02*
X11447062Y-14693484D01*
X11447062Y-14693484D02*
X11428015Y-14683960D01*
X11428015Y-14683960D02*
X11418491Y-14674436D01*
X11418491Y-14674436D02*
X11408967Y-14655388D01*
X11408967Y-14655388D02*
X11399443Y-14617293D01*
X11399443Y-14617293D02*
X11399443Y-14569674D01*
X11399443Y-14569674D02*
X11408967Y-14531579D01*
X11408967Y-14531579D02*
X11418491Y-14512531D01*
X11418491Y-14512531D02*
X11428015Y-14503008D01*
X11428015Y-14503008D02*
X11447062Y-14493484D01*
X11637539Y-14493484D02*
X11656586Y-14493484D01*
X11656586Y-14493484D02*
X11675634Y-14503008D01*
X11675634Y-14503008D02*
X11685158Y-14512531D01*
X11685158Y-14512531D02*
X11694682Y-14531579D01*
X11694682Y-14531579D02*
X11704205Y-14569674D01*
X11704205Y-14569674D02*
X11704205Y-14617293D01*
X11704205Y-14617293D02*
X11694682Y-14655388D01*
X11694682Y-14655388D02*
X11685158Y-14674436D01*
X11685158Y-14674436D02*
X11675634Y-14683960D01*
X11675634Y-14683960D02*
X11656586Y-14693484D01*
X11656586Y-14693484D02*
X11637539Y-14693484D01*
X11637539Y-14693484D02*
X11618491Y-14683960D01*
X11618491Y-14683960D02*
X11608967Y-14674436D01*
X11608967Y-14674436D02*
X11599443Y-14655388D01*
X11599443Y-14655388D02*
X11589920Y-14617293D01*
X11589920Y-14617293D02*
X11589920Y-14569674D01*
X11589920Y-14569674D02*
X11599443Y-14531579D01*
X11599443Y-14531579D02*
X11608967Y-14512531D01*
X11608967Y-14512531D02*
X11618491Y-14503008D01*
X11618491Y-14503008D02*
X11637539Y-14493484D01*
X11789920Y-14693484D02*
X11789920Y-14560150D01*
X11789920Y-14579198D02*
X11799443Y-14569674D01*
X11799443Y-14569674D02*
X11818491Y-14560150D01*
X11818491Y-14560150D02*
X11847063Y-14560150D01*
X11847063Y-14560150D02*
X11866110Y-14569674D01*
X11866110Y-14569674D02*
X11875634Y-14588722D01*
X11875634Y-14588722D02*
X11875634Y-14693484D01*
X11875634Y-14588722D02*
X11885158Y-14569674D01*
X11885158Y-14569674D02*
X11904205Y-14560150D01*
X11904205Y-14560150D02*
X11932777Y-14560150D01*
X11932777Y-14560150D02*
X11951824Y-14569674D01*
X11951824Y-14569674D02*
X11961348Y-14588722D01*
X11961348Y-14588722D02*
X11961348Y-14693484D01*
X12056586Y-14693484D02*
X12056586Y-14560150D01*
X12056586Y-14579198D02*
X12066110Y-14569674D01*
X12066110Y-14569674D02*
X12085158Y-14560150D01*
X12085158Y-14560150D02*
X12113729Y-14560150D01*
X12113729Y-14560150D02*
X12132777Y-14569674D01*
X12132777Y-14569674D02*
X12142301Y-14588722D01*
X12142301Y-14588722D02*
X12142301Y-14693484D01*
X12142301Y-14588722D02*
X12151824Y-14569674D01*
X12151824Y-14569674D02*
X12170872Y-14560150D01*
X12170872Y-14560150D02*
X12199443Y-14560150D01*
X12199443Y-14560150D02*
X12218491Y-14569674D01*
X12218491Y-14569674D02*
X12228015Y-14588722D01*
X12228015Y-14588722D02*
X12228015Y-14693484D01*
X12618491Y-14483960D02*
X12447063Y-14741103D01*
X12875634Y-14493484D02*
X12894682Y-14493484D01*
X12894682Y-14493484D02*
X12913729Y-14503008D01*
X12913729Y-14503008D02*
X12923253Y-14512531D01*
X12923253Y-14512531D02*
X12932777Y-14531579D01*
X12932777Y-14531579D02*
X12942301Y-14569674D01*
X12942301Y-14569674D02*
X12942301Y-14617293D01*
X12942301Y-14617293D02*
X12932777Y-14655388D01*
X12932777Y-14655388D02*
X12923253Y-14674436D01*
X12923253Y-14674436D02*
X12913729Y-14683960D01*
X12913729Y-14683960D02*
X12894682Y-14693484D01*
X12894682Y-14693484D02*
X12875634Y-14693484D01*
X12875634Y-14693484D02*
X12856586Y-14683960D01*
X12856586Y-14683960D02*
X12847063Y-14674436D01*
X12847063Y-14674436D02*
X12837539Y-14655388D01*
X12837539Y-14655388D02*
X12828015Y-14617293D01*
X12828015Y-14617293D02*
X12828015Y-14569674D01*
X12828015Y-14569674D02*
X12837539Y-14531579D01*
X12837539Y-14531579D02*
X12847063Y-14512531D01*
X12847063Y-14512531D02*
X12856586Y-14503008D01*
X12856586Y-14503008D02*
X12875634Y-14493484D01*
X13028015Y-14674436D02*
X13037539Y-14683960D01*
X13037539Y-14683960D02*
X13028015Y-14693484D01*
X13028015Y-14693484D02*
X13018491Y-14683960D01*
X13018491Y-14683960D02*
X13028015Y-14674436D01*
X13028015Y-14674436D02*
X13028015Y-14693484D01*
X13161348Y-14493484D02*
X13180396Y-14493484D01*
X13180396Y-14493484D02*
X13199444Y-14503008D01*
X13199444Y-14503008D02*
X13208967Y-14512531D01*
X13208967Y-14512531D02*
X13218491Y-14531579D01*
X13218491Y-14531579D02*
X13228015Y-14569674D01*
X13228015Y-14569674D02*
X13228015Y-14617293D01*
X13228015Y-14617293D02*
X13218491Y-14655388D01*
X13218491Y-14655388D02*
X13208967Y-14674436D01*
X13208967Y-14674436D02*
X13199444Y-14683960D01*
X13199444Y-14683960D02*
X13180396Y-14693484D01*
X13180396Y-14693484D02*
X13161348Y-14693484D01*
X13161348Y-14693484D02*
X13142301Y-14683960D01*
X13142301Y-14683960D02*
X13132777Y-14674436D01*
X13132777Y-14674436D02*
X13123253Y-14655388D01*
X13123253Y-14655388D02*
X13113729Y-14617293D01*
X13113729Y-14617293D02*
X13113729Y-14569674D01*
X13113729Y-14569674D02*
X13123253Y-14531579D01*
X13123253Y-14531579D02*
X13132777Y-14512531D01*
X13132777Y-14512531D02*
X13142301Y-14503008D01*
X13142301Y-14503008D02*
X13161348Y-14493484D01*
X13294682Y-14493484D02*
X13418491Y-14493484D01*
X13418491Y-14493484D02*
X13351825Y-14569674D01*
X13351825Y-14569674D02*
X13380396Y-14569674D01*
X13380396Y-14569674D02*
X13399444Y-14579198D01*
X13399444Y-14579198D02*
X13408967Y-14588722D01*
X13408967Y-14588722D02*
X13418491Y-14607769D01*
X13418491Y-14607769D02*
X13418491Y-14655388D01*
X13418491Y-14655388D02*
X13408967Y-14674436D01*
X13408967Y-14674436D02*
X13399444Y-14683960D01*
X13399444Y-14683960D02*
X13380396Y-14693484D01*
X13380396Y-14693484D02*
X13323253Y-14693484D01*
X13323253Y-14693484D02*
X13304206Y-14683960D01*
X13304206Y-14683960D02*
X13294682Y-14674436D01*
X13513729Y-14693484D02*
X13551825Y-14693484D01*
X13551825Y-14693484D02*
X13570872Y-14683960D01*
X13570872Y-14683960D02*
X13580396Y-14674436D01*
X13580396Y-14674436D02*
X13599444Y-14645865D01*
X13599444Y-14645865D02*
X13608967Y-14607769D01*
X13608967Y-14607769D02*
X13608967Y-14531579D01*
X13608967Y-14531579D02*
X13599444Y-14512531D01*
X13599444Y-14512531D02*
X13589920Y-14503008D01*
X13589920Y-14503008D02*
X13570872Y-14493484D01*
X13570872Y-14493484D02*
X13532777Y-14493484D01*
X13532777Y-14493484D02*
X13513729Y-14503008D01*
X13513729Y-14503008D02*
X13504206Y-14512531D01*
X13504206Y-14512531D02*
X13494682Y-14531579D01*
X13494682Y-14531579D02*
X13494682Y-14579198D01*
X13494682Y-14579198D02*
X13504206Y-14598246D01*
X13504206Y-14598246D02*
X13513729Y-14607769D01*
X13513729Y-14607769D02*
X13532777Y-14617293D01*
X13532777Y-14617293D02*
X13570872Y-14617293D01*
X13570872Y-14617293D02*
X13589920Y-14607769D01*
X13589920Y-14607769D02*
X13599444Y-14598246D01*
X13599444Y-14598246D02*
X13608967Y-14579198D01*
X13780396Y-14560150D02*
X13780396Y-14693484D01*
X13732777Y-14483960D02*
X13685158Y-14626817D01*
X13685158Y-14626817D02*
X13808967Y-14626817D01*
X13875634Y-14493484D02*
X13875634Y-14531579D01*
X13951825Y-14493484D02*
X13951825Y-14531579D01*
X14247063Y-14769674D02*
X14237539Y-14760150D01*
X14237539Y-14760150D02*
X14218491Y-14731579D01*
X14218491Y-14731579D02*
X14208968Y-14712531D01*
X14208968Y-14712531D02*
X14199444Y-14683960D01*
X14199444Y-14683960D02*
X14189920Y-14636341D01*
X14189920Y-14636341D02*
X14189920Y-14598246D01*
X14189920Y-14598246D02*
X14199444Y-14550627D01*
X14199444Y-14550627D02*
X14208968Y-14522055D01*
X14208968Y-14522055D02*
X14218491Y-14503008D01*
X14218491Y-14503008D02*
X14237539Y-14474436D01*
X14237539Y-14474436D02*
X14247063Y-14464912D01*
X14408968Y-14560150D02*
X14408968Y-14693484D01*
X14361348Y-14483960D02*
X14313729Y-14626817D01*
X14313729Y-14626817D02*
X14437539Y-14626817D01*
X14666110Y-14693484D02*
X14666110Y-14493484D01*
X14751825Y-14693484D02*
X14751825Y-14588722D01*
X14751825Y-14588722D02*
X14742301Y-14569674D01*
X14742301Y-14569674D02*
X14723253Y-14560150D01*
X14723253Y-14560150D02*
X14694682Y-14560150D01*
X14694682Y-14560150D02*
X14675634Y-14569674D01*
X14675634Y-14569674D02*
X14666110Y-14579198D01*
X14875634Y-14693484D02*
X14856587Y-14683960D01*
X14856587Y-14683960D02*
X14847063Y-14674436D01*
X14847063Y-14674436D02*
X14837539Y-14655388D01*
X14837539Y-14655388D02*
X14837539Y-14598246D01*
X14837539Y-14598246D02*
X14847063Y-14579198D01*
X14847063Y-14579198D02*
X14856587Y-14569674D01*
X14856587Y-14569674D02*
X14875634Y-14560150D01*
X14875634Y-14560150D02*
X14904206Y-14560150D01*
X14904206Y-14560150D02*
X14923253Y-14569674D01*
X14923253Y-14569674D02*
X14932777Y-14579198D01*
X14932777Y-14579198D02*
X14942301Y-14598246D01*
X14942301Y-14598246D02*
X14942301Y-14655388D01*
X14942301Y-14655388D02*
X14932777Y-14674436D01*
X14932777Y-14674436D02*
X14923253Y-14683960D01*
X14923253Y-14683960D02*
X14904206Y-14693484D01*
X14904206Y-14693484D02*
X14875634Y-14693484D01*
X15056587Y-14693484D02*
X15037539Y-14683960D01*
X15037539Y-14683960D02*
X15028015Y-14664912D01*
X15028015Y-14664912D02*
X15028015Y-14493484D01*
X15208968Y-14683960D02*
X15189920Y-14693484D01*
X15189920Y-14693484D02*
X15151825Y-14693484D01*
X15151825Y-14693484D02*
X15132777Y-14683960D01*
X15132777Y-14683960D02*
X15123253Y-14664912D01*
X15123253Y-14664912D02*
X15123253Y-14588722D01*
X15123253Y-14588722D02*
X15132777Y-14569674D01*
X15132777Y-14569674D02*
X15151825Y-14560150D01*
X15151825Y-14560150D02*
X15189920Y-14560150D01*
X15189920Y-14560150D02*
X15208968Y-14569674D01*
X15208968Y-14569674D02*
X15218491Y-14588722D01*
X15218491Y-14588722D02*
X15218491Y-14607769D01*
X15218491Y-14607769D02*
X15123253Y-14626817D01*
X15294682Y-14683960D02*
X15313730Y-14693484D01*
X15313730Y-14693484D02*
X15351825Y-14693484D01*
X15351825Y-14693484D02*
X15370872Y-14683960D01*
X15370872Y-14683960D02*
X15380396Y-14664912D01*
X15380396Y-14664912D02*
X15380396Y-14655388D01*
X15380396Y-14655388D02*
X15370872Y-14636341D01*
X15370872Y-14636341D02*
X15351825Y-14626817D01*
X15351825Y-14626817D02*
X15323253Y-14626817D01*
X15323253Y-14626817D02*
X15304206Y-14617293D01*
X15304206Y-14617293D02*
X15294682Y-14598246D01*
X15294682Y-14598246D02*
X15294682Y-14588722D01*
X15294682Y-14588722D02*
X15304206Y-14569674D01*
X15304206Y-14569674D02*
X15323253Y-14560150D01*
X15323253Y-14560150D02*
X15351825Y-14560150D01*
X15351825Y-14560150D02*
X15370872Y-14569674D01*
X15447063Y-14769674D02*
X15456587Y-14760150D01*
X15456587Y-14760150D02*
X15475634Y-14731579D01*
X15475634Y-14731579D02*
X15485158Y-14712531D01*
X15485158Y-14712531D02*
X15494682Y-14683960D01*
X15494682Y-14683960D02*
X15504206Y-14636341D01*
X15504206Y-14636341D02*
X15504206Y-14598246D01*
X15504206Y-14598246D02*
X15494682Y-14550627D01*
X15494682Y-14550627D02*
X15485158Y-14522055D01*
X15485158Y-14522055D02*
X15475634Y-14503008D01*
X15475634Y-14503008D02*
X15456587Y-14474436D01*
X15456587Y-14474436D02*
X15447063Y-14464912D01*
M02*
