%TF.GenerationSoftware,KiCad,Pcbnew,8.0.3*%
%TF.CreationDate,2024-12-28T15:27:49+01:00*%
%TF.ProjectId,picoballoon,7069636f-6261-46c6-9c6f-6f6e2e6b6963,rev?*%
%TF.SameCoordinates,Original*%
%TF.FileFunction,Legend,Bot*%
%TF.FilePolarity,Positive*%
%FSLAX46Y46*%
G04 Gerber Fmt 4.6, Leading zero omitted, Abs format (unit mm)*
G04 Created by KiCad (PCBNEW 8.0.3) date 2024-12-28 15:27:49*
%MOMM*%
%LPD*%
G01*
G04 APERTURE LIST*
%ADD10C,0.155000*%
%ADD11C,0.150000*%
%ADD12C,0.100000*%
G04 APERTURE END LIST*
D10*
X111580068Y-117413606D02*
X112341973Y-117413606D01*
X111310068Y-123468606D02*
X112071973Y-123468606D01*
X111691020Y-123849559D02*
X111691020Y-123087654D01*
D11*
X124336077Y-91739931D02*
X124002744Y-92739931D01*
X124002744Y-92739931D02*
X123669411Y-91739931D01*
X123193220Y-92739931D02*
X123288458Y-92692312D01*
X123288458Y-92692312D02*
X123336077Y-92644692D01*
X123336077Y-92644692D02*
X123383696Y-92549454D01*
X123383696Y-92549454D02*
X123383696Y-92263740D01*
X123383696Y-92263740D02*
X123336077Y-92168502D01*
X123336077Y-92168502D02*
X123288458Y-92120883D01*
X123288458Y-92120883D02*
X123193220Y-92073264D01*
X123193220Y-92073264D02*
X123050363Y-92073264D01*
X123050363Y-92073264D02*
X122955125Y-92120883D01*
X122955125Y-92120883D02*
X122907506Y-92168502D01*
X122907506Y-92168502D02*
X122859887Y-92263740D01*
X122859887Y-92263740D02*
X122859887Y-92549454D01*
X122859887Y-92549454D02*
X122907506Y-92644692D01*
X122907506Y-92644692D02*
X122955125Y-92692312D01*
X122955125Y-92692312D02*
X123050363Y-92739931D01*
X123050363Y-92739931D02*
X123193220Y-92739931D01*
X122431315Y-92073264D02*
X122431315Y-92930407D01*
X122431315Y-92930407D02*
X122478934Y-93025645D01*
X122478934Y-93025645D02*
X122574172Y-93073264D01*
X122574172Y-93073264D02*
X122621791Y-93073264D01*
X122431315Y-91739931D02*
X122478934Y-91787550D01*
X122478934Y-91787550D02*
X122431315Y-91835169D01*
X122431315Y-91835169D02*
X122383696Y-91787550D01*
X122383696Y-91787550D02*
X122431315Y-91739931D01*
X122431315Y-91739931D02*
X122431315Y-91835169D01*
X122097982Y-92073264D02*
X121717030Y-92073264D01*
X121955125Y-91739931D02*
X121955125Y-92597073D01*
X121955125Y-92597073D02*
X121907506Y-92692312D01*
X121907506Y-92692312D02*
X121812268Y-92739931D01*
X121812268Y-92739931D02*
X121717030Y-92739931D01*
X121002744Y-92692312D02*
X121097982Y-92739931D01*
X121097982Y-92739931D02*
X121288458Y-92739931D01*
X121288458Y-92739931D02*
X121383696Y-92692312D01*
X121383696Y-92692312D02*
X121431315Y-92597073D01*
X121431315Y-92597073D02*
X121431315Y-92216121D01*
X121431315Y-92216121D02*
X121383696Y-92120883D01*
X121383696Y-92120883D02*
X121288458Y-92073264D01*
X121288458Y-92073264D02*
X121097982Y-92073264D01*
X121097982Y-92073264D02*
X121002744Y-92120883D01*
X121002744Y-92120883D02*
X120955125Y-92216121D01*
X120955125Y-92216121D02*
X120955125Y-92311359D01*
X120955125Y-92311359D02*
X121431315Y-92406597D01*
X120097982Y-92692312D02*
X120193220Y-92739931D01*
X120193220Y-92739931D02*
X120383696Y-92739931D01*
X120383696Y-92739931D02*
X120478934Y-92692312D01*
X120478934Y-92692312D02*
X120526553Y-92644692D01*
X120526553Y-92644692D02*
X120574172Y-92549454D01*
X120574172Y-92549454D02*
X120574172Y-92263740D01*
X120574172Y-92263740D02*
X120526553Y-92168502D01*
X120526553Y-92168502D02*
X120478934Y-92120883D01*
X120478934Y-92120883D02*
X120383696Y-92073264D01*
X120383696Y-92073264D02*
X120193220Y-92073264D01*
X120193220Y-92073264D02*
X120097982Y-92120883D01*
X119669410Y-92739931D02*
X119669410Y-91739931D01*
X119240839Y-92739931D02*
X119240839Y-92216121D01*
X119240839Y-92216121D02*
X119288458Y-92120883D01*
X119288458Y-92120883D02*
X119383696Y-92073264D01*
X119383696Y-92073264D02*
X119526553Y-92073264D01*
X119526553Y-92073264D02*
X119621791Y-92120883D01*
X119621791Y-92120883D02*
X119669410Y-92168502D01*
X118002743Y-92739931D02*
X118002743Y-91739931D01*
X118002743Y-91739931D02*
X117621791Y-91739931D01*
X117621791Y-91739931D02*
X117526553Y-91787550D01*
X117526553Y-91787550D02*
X117478934Y-91835169D01*
X117478934Y-91835169D02*
X117431315Y-91930407D01*
X117431315Y-91930407D02*
X117431315Y-92073264D01*
X117431315Y-92073264D02*
X117478934Y-92168502D01*
X117478934Y-92168502D02*
X117526553Y-92216121D01*
X117526553Y-92216121D02*
X117621791Y-92263740D01*
X117621791Y-92263740D02*
X118002743Y-92263740D01*
X117002743Y-92739931D02*
X117002743Y-92073264D01*
X117002743Y-91739931D02*
X117050362Y-91787550D01*
X117050362Y-91787550D02*
X117002743Y-91835169D01*
X117002743Y-91835169D02*
X116955124Y-91787550D01*
X116955124Y-91787550D02*
X117002743Y-91739931D01*
X117002743Y-91739931D02*
X117002743Y-91835169D01*
X116526553Y-92739931D02*
X116526553Y-92073264D01*
X116526553Y-92263740D02*
X116478934Y-92168502D01*
X116478934Y-92168502D02*
X116431315Y-92120883D01*
X116431315Y-92120883D02*
X116336077Y-92073264D01*
X116336077Y-92073264D02*
X116240839Y-92073264D01*
X115764648Y-92739931D02*
X115859886Y-92692312D01*
X115859886Y-92692312D02*
X115907505Y-92644692D01*
X115907505Y-92644692D02*
X115955124Y-92549454D01*
X115955124Y-92549454D02*
X115955124Y-92263740D01*
X115955124Y-92263740D02*
X115907505Y-92168502D01*
X115907505Y-92168502D02*
X115859886Y-92120883D01*
X115859886Y-92120883D02*
X115764648Y-92073264D01*
X115764648Y-92073264D02*
X115621791Y-92073264D01*
X115621791Y-92073264D02*
X115526553Y-92120883D01*
X115526553Y-92120883D02*
X115478934Y-92168502D01*
X115478934Y-92168502D02*
X115431315Y-92263740D01*
X115431315Y-92263740D02*
X115431315Y-92549454D01*
X115431315Y-92549454D02*
X115478934Y-92644692D01*
X115478934Y-92644692D02*
X115526553Y-92692312D01*
X115526553Y-92692312D02*
X115621791Y-92739931D01*
X115621791Y-92739931D02*
X115764648Y-92739931D01*
X114574172Y-92692312D02*
X114669410Y-92739931D01*
X114669410Y-92739931D02*
X114859886Y-92739931D01*
X114859886Y-92739931D02*
X114955124Y-92692312D01*
X114955124Y-92692312D02*
X115002743Y-92644692D01*
X115002743Y-92644692D02*
X115050362Y-92549454D01*
X115050362Y-92549454D02*
X115050362Y-92263740D01*
X115050362Y-92263740D02*
X115002743Y-92168502D01*
X115002743Y-92168502D02*
X114955124Y-92120883D01*
X114955124Y-92120883D02*
X114859886Y-92073264D01*
X114859886Y-92073264D02*
X114669410Y-92073264D01*
X114669410Y-92073264D02*
X114574172Y-92120883D01*
X114145600Y-92739931D02*
X114145600Y-91739931D01*
X113717029Y-92739931D02*
X113717029Y-92216121D01*
X113717029Y-92216121D02*
X113764648Y-92120883D01*
X113764648Y-92120883D02*
X113859886Y-92073264D01*
X113859886Y-92073264D02*
X114002743Y-92073264D01*
X114002743Y-92073264D02*
X114097981Y-92120883D01*
X114097981Y-92120883D02*
X114145600Y-92168502D01*
X124193220Y-94349875D02*
X124193220Y-93349875D01*
X124193220Y-93349875D02*
X123812268Y-93349875D01*
X123812268Y-93349875D02*
X123717030Y-93397494D01*
X123717030Y-93397494D02*
X123669411Y-93445113D01*
X123669411Y-93445113D02*
X123621792Y-93540351D01*
X123621792Y-93540351D02*
X123621792Y-93683208D01*
X123621792Y-93683208D02*
X123669411Y-93778446D01*
X123669411Y-93778446D02*
X123717030Y-93826065D01*
X123717030Y-93826065D02*
X123812268Y-93873684D01*
X123812268Y-93873684D02*
X124193220Y-93873684D01*
X123193220Y-94349875D02*
X123193220Y-93683208D01*
X123193220Y-93349875D02*
X123240839Y-93397494D01*
X123240839Y-93397494D02*
X123193220Y-93445113D01*
X123193220Y-93445113D02*
X123145601Y-93397494D01*
X123145601Y-93397494D02*
X123193220Y-93349875D01*
X123193220Y-93349875D02*
X123193220Y-93445113D01*
X122288459Y-94302256D02*
X122383697Y-94349875D01*
X122383697Y-94349875D02*
X122574173Y-94349875D01*
X122574173Y-94349875D02*
X122669411Y-94302256D01*
X122669411Y-94302256D02*
X122717030Y-94254636D01*
X122717030Y-94254636D02*
X122764649Y-94159398D01*
X122764649Y-94159398D02*
X122764649Y-93873684D01*
X122764649Y-93873684D02*
X122717030Y-93778446D01*
X122717030Y-93778446D02*
X122669411Y-93730827D01*
X122669411Y-93730827D02*
X122574173Y-93683208D01*
X122574173Y-93683208D02*
X122383697Y-93683208D01*
X122383697Y-93683208D02*
X122288459Y-93730827D01*
X121717030Y-94349875D02*
X121812268Y-94302256D01*
X121812268Y-94302256D02*
X121859887Y-94254636D01*
X121859887Y-94254636D02*
X121907506Y-94159398D01*
X121907506Y-94159398D02*
X121907506Y-93873684D01*
X121907506Y-93873684D02*
X121859887Y-93778446D01*
X121859887Y-93778446D02*
X121812268Y-93730827D01*
X121812268Y-93730827D02*
X121717030Y-93683208D01*
X121717030Y-93683208D02*
X121574173Y-93683208D01*
X121574173Y-93683208D02*
X121478935Y-93730827D01*
X121478935Y-93730827D02*
X121431316Y-93778446D01*
X121431316Y-93778446D02*
X121383697Y-93873684D01*
X121383697Y-93873684D02*
X121383697Y-94159398D01*
X121383697Y-94159398D02*
X121431316Y-94254636D01*
X121431316Y-94254636D02*
X121478935Y-94302256D01*
X121478935Y-94302256D02*
X121574173Y-94349875D01*
X121574173Y-94349875D02*
X121717030Y-94349875D01*
X120955125Y-94349875D02*
X120955125Y-93349875D01*
X120955125Y-93730827D02*
X120859887Y-93683208D01*
X120859887Y-93683208D02*
X120669411Y-93683208D01*
X120669411Y-93683208D02*
X120574173Y-93730827D01*
X120574173Y-93730827D02*
X120526554Y-93778446D01*
X120526554Y-93778446D02*
X120478935Y-93873684D01*
X120478935Y-93873684D02*
X120478935Y-94159398D01*
X120478935Y-94159398D02*
X120526554Y-94254636D01*
X120526554Y-94254636D02*
X120574173Y-94302256D01*
X120574173Y-94302256D02*
X120669411Y-94349875D01*
X120669411Y-94349875D02*
X120859887Y-94349875D01*
X120859887Y-94349875D02*
X120955125Y-94302256D01*
X119621792Y-94349875D02*
X119621792Y-93826065D01*
X119621792Y-93826065D02*
X119669411Y-93730827D01*
X119669411Y-93730827D02*
X119764649Y-93683208D01*
X119764649Y-93683208D02*
X119955125Y-93683208D01*
X119955125Y-93683208D02*
X120050363Y-93730827D01*
X119621792Y-94302256D02*
X119717030Y-94349875D01*
X119717030Y-94349875D02*
X119955125Y-94349875D01*
X119955125Y-94349875D02*
X120050363Y-94302256D01*
X120050363Y-94302256D02*
X120097982Y-94207017D01*
X120097982Y-94207017D02*
X120097982Y-94111779D01*
X120097982Y-94111779D02*
X120050363Y-94016541D01*
X120050363Y-94016541D02*
X119955125Y-93968922D01*
X119955125Y-93968922D02*
X119717030Y-93968922D01*
X119717030Y-93968922D02*
X119621792Y-93921303D01*
X119002744Y-94349875D02*
X119097982Y-94302256D01*
X119097982Y-94302256D02*
X119145601Y-94207017D01*
X119145601Y-94207017D02*
X119145601Y-93349875D01*
X118478934Y-94349875D02*
X118574172Y-94302256D01*
X118574172Y-94302256D02*
X118621791Y-94207017D01*
X118621791Y-94207017D02*
X118621791Y-93349875D01*
X117955124Y-94349875D02*
X118050362Y-94302256D01*
X118050362Y-94302256D02*
X118097981Y-94254636D01*
X118097981Y-94254636D02*
X118145600Y-94159398D01*
X118145600Y-94159398D02*
X118145600Y-93873684D01*
X118145600Y-93873684D02*
X118097981Y-93778446D01*
X118097981Y-93778446D02*
X118050362Y-93730827D01*
X118050362Y-93730827D02*
X117955124Y-93683208D01*
X117955124Y-93683208D02*
X117812267Y-93683208D01*
X117812267Y-93683208D02*
X117717029Y-93730827D01*
X117717029Y-93730827D02*
X117669410Y-93778446D01*
X117669410Y-93778446D02*
X117621791Y-93873684D01*
X117621791Y-93873684D02*
X117621791Y-94159398D01*
X117621791Y-94159398D02*
X117669410Y-94254636D01*
X117669410Y-94254636D02*
X117717029Y-94302256D01*
X117717029Y-94302256D02*
X117812267Y-94349875D01*
X117812267Y-94349875D02*
X117955124Y-94349875D01*
X117050362Y-94349875D02*
X117145600Y-94302256D01*
X117145600Y-94302256D02*
X117193219Y-94254636D01*
X117193219Y-94254636D02*
X117240838Y-94159398D01*
X117240838Y-94159398D02*
X117240838Y-93873684D01*
X117240838Y-93873684D02*
X117193219Y-93778446D01*
X117193219Y-93778446D02*
X117145600Y-93730827D01*
X117145600Y-93730827D02*
X117050362Y-93683208D01*
X117050362Y-93683208D02*
X116907505Y-93683208D01*
X116907505Y-93683208D02*
X116812267Y-93730827D01*
X116812267Y-93730827D02*
X116764648Y-93778446D01*
X116764648Y-93778446D02*
X116717029Y-93873684D01*
X116717029Y-93873684D02*
X116717029Y-94159398D01*
X116717029Y-94159398D02*
X116764648Y-94254636D01*
X116764648Y-94254636D02*
X116812267Y-94302256D01*
X116812267Y-94302256D02*
X116907505Y-94349875D01*
X116907505Y-94349875D02*
X117050362Y-94349875D01*
X116288457Y-93683208D02*
X116288457Y-94349875D01*
X116288457Y-93778446D02*
X116240838Y-93730827D01*
X116240838Y-93730827D02*
X116145600Y-93683208D01*
X116145600Y-93683208D02*
X116002743Y-93683208D01*
X116002743Y-93683208D02*
X115907505Y-93730827D01*
X115907505Y-93730827D02*
X115859886Y-93826065D01*
X115859886Y-93826065D02*
X115859886Y-94349875D01*
X114717028Y-93683208D02*
X114478933Y-94349875D01*
X114478933Y-94349875D02*
X114240838Y-93683208D01*
X113336076Y-94349875D02*
X113907504Y-94349875D01*
X113621790Y-94349875D02*
X113621790Y-93349875D01*
X113621790Y-93349875D02*
X113717028Y-93492732D01*
X113717028Y-93492732D02*
X113812266Y-93587970D01*
X113812266Y-93587970D02*
X113907504Y-93635589D01*
X124240839Y-95055057D02*
X124193220Y-95007438D01*
X124193220Y-95007438D02*
X124097982Y-94959819D01*
X124097982Y-94959819D02*
X123859887Y-94959819D01*
X123859887Y-94959819D02*
X123764649Y-95007438D01*
X123764649Y-95007438D02*
X123717030Y-95055057D01*
X123717030Y-95055057D02*
X123669411Y-95150295D01*
X123669411Y-95150295D02*
X123669411Y-95245533D01*
X123669411Y-95245533D02*
X123717030Y-95388390D01*
X123717030Y-95388390D02*
X124288458Y-95959819D01*
X124288458Y-95959819D02*
X123669411Y-95959819D01*
X123050363Y-94959819D02*
X122955125Y-94959819D01*
X122955125Y-94959819D02*
X122859887Y-95007438D01*
X122859887Y-95007438D02*
X122812268Y-95055057D01*
X122812268Y-95055057D02*
X122764649Y-95150295D01*
X122764649Y-95150295D02*
X122717030Y-95340771D01*
X122717030Y-95340771D02*
X122717030Y-95578866D01*
X122717030Y-95578866D02*
X122764649Y-95769342D01*
X122764649Y-95769342D02*
X122812268Y-95864580D01*
X122812268Y-95864580D02*
X122859887Y-95912200D01*
X122859887Y-95912200D02*
X122955125Y-95959819D01*
X122955125Y-95959819D02*
X123050363Y-95959819D01*
X123050363Y-95959819D02*
X123145601Y-95912200D01*
X123145601Y-95912200D02*
X123193220Y-95864580D01*
X123193220Y-95864580D02*
X123240839Y-95769342D01*
X123240839Y-95769342D02*
X123288458Y-95578866D01*
X123288458Y-95578866D02*
X123288458Y-95340771D01*
X123288458Y-95340771D02*
X123240839Y-95150295D01*
X123240839Y-95150295D02*
X123193220Y-95055057D01*
X123193220Y-95055057D02*
X123145601Y-95007438D01*
X123145601Y-95007438D02*
X123050363Y-94959819D01*
X122336077Y-95055057D02*
X122288458Y-95007438D01*
X122288458Y-95007438D02*
X122193220Y-94959819D01*
X122193220Y-94959819D02*
X121955125Y-94959819D01*
X121955125Y-94959819D02*
X121859887Y-95007438D01*
X121859887Y-95007438D02*
X121812268Y-95055057D01*
X121812268Y-95055057D02*
X121764649Y-95150295D01*
X121764649Y-95150295D02*
X121764649Y-95245533D01*
X121764649Y-95245533D02*
X121812268Y-95388390D01*
X121812268Y-95388390D02*
X122383696Y-95959819D01*
X122383696Y-95959819D02*
X121764649Y-95959819D01*
X120907506Y-95293152D02*
X120907506Y-95959819D01*
X121145601Y-94912200D02*
X121383696Y-95626485D01*
X121383696Y-95626485D02*
X120764649Y-95626485D01*
X119669411Y-94912200D02*
X120526553Y-96197914D01*
X119383696Y-95055057D02*
X119336077Y-95007438D01*
X119336077Y-95007438D02*
X119240839Y-94959819D01*
X119240839Y-94959819D02*
X119002744Y-94959819D01*
X119002744Y-94959819D02*
X118907506Y-95007438D01*
X118907506Y-95007438D02*
X118859887Y-95055057D01*
X118859887Y-95055057D02*
X118812268Y-95150295D01*
X118812268Y-95150295D02*
X118812268Y-95245533D01*
X118812268Y-95245533D02*
X118859887Y-95388390D01*
X118859887Y-95388390D02*
X119431315Y-95959819D01*
X119431315Y-95959819D02*
X118812268Y-95959819D01*
X117907506Y-94959819D02*
X118383696Y-94959819D01*
X118383696Y-94959819D02*
X118431315Y-95436009D01*
X118431315Y-95436009D02*
X118383696Y-95388390D01*
X118383696Y-95388390D02*
X118288458Y-95340771D01*
X118288458Y-95340771D02*
X118050363Y-95340771D01*
X118050363Y-95340771D02*
X117955125Y-95388390D01*
X117955125Y-95388390D02*
X117907506Y-95436009D01*
X117907506Y-95436009D02*
X117859887Y-95531247D01*
X117859887Y-95531247D02*
X117859887Y-95769342D01*
X117859887Y-95769342D02*
X117907506Y-95864580D01*
X117907506Y-95864580D02*
X117955125Y-95912200D01*
X117955125Y-95912200D02*
X118050363Y-95959819D01*
X118050363Y-95959819D02*
X118288458Y-95959819D01*
X118288458Y-95959819D02*
X118383696Y-95912200D01*
X118383696Y-95912200D02*
X118431315Y-95864580D01*
X137915601Y-79357914D02*
X138201316Y-79215057D01*
X138201316Y-79215057D02*
X138629887Y-79215057D01*
X138629887Y-79215057D02*
X139058458Y-79357914D01*
X139058458Y-79357914D02*
X139344173Y-79643628D01*
X139344173Y-79643628D02*
X139487030Y-79929342D01*
X139487030Y-79929342D02*
X139629887Y-80500771D01*
X139629887Y-80500771D02*
X139629887Y-80929342D01*
X139629887Y-80929342D02*
X139487030Y-81500771D01*
X139487030Y-81500771D02*
X139344173Y-81786485D01*
X139344173Y-81786485D02*
X139058458Y-82072200D01*
X139058458Y-82072200D02*
X138629887Y-82215057D01*
X138629887Y-82215057D02*
X138344173Y-82215057D01*
X138344173Y-82215057D02*
X137915601Y-82072200D01*
X137915601Y-82072200D02*
X137772744Y-81929342D01*
X137772744Y-81929342D02*
X137772744Y-80929342D01*
X137772744Y-80929342D02*
X138344173Y-80929342D01*
X136487030Y-82215057D02*
X136487030Y-79215057D01*
X136487030Y-79215057D02*
X134772744Y-82215057D01*
X134772744Y-82215057D02*
X134772744Y-79215057D01*
X133487030Y-82072200D02*
X133058459Y-82215057D01*
X133058459Y-82215057D02*
X132344173Y-82215057D01*
X132344173Y-82215057D02*
X132058459Y-82072200D01*
X132058459Y-82072200D02*
X131915601Y-81929342D01*
X131915601Y-81929342D02*
X131772744Y-81643628D01*
X131772744Y-81643628D02*
X131772744Y-81357914D01*
X131772744Y-81357914D02*
X131915601Y-81072200D01*
X131915601Y-81072200D02*
X132058459Y-80929342D01*
X132058459Y-80929342D02*
X132344173Y-80786485D01*
X132344173Y-80786485D02*
X132915601Y-80643628D01*
X132915601Y-80643628D02*
X133201316Y-80500771D01*
X133201316Y-80500771D02*
X133344173Y-80357914D01*
X133344173Y-80357914D02*
X133487030Y-80072200D01*
X133487030Y-80072200D02*
X133487030Y-79786485D01*
X133487030Y-79786485D02*
X133344173Y-79500771D01*
X133344173Y-79500771D02*
X133201316Y-79357914D01*
X133201316Y-79357914D02*
X132915601Y-79215057D01*
X132915601Y-79215057D02*
X132201316Y-79215057D01*
X132201316Y-79215057D02*
X131772744Y-79357914D01*
X130629887Y-82072200D02*
X130201316Y-82215057D01*
X130201316Y-82215057D02*
X129487030Y-82215057D01*
X129487030Y-82215057D02*
X129201316Y-82072200D01*
X129201316Y-82072200D02*
X129058458Y-81929342D01*
X129058458Y-81929342D02*
X128915601Y-81643628D01*
X128915601Y-81643628D02*
X128915601Y-81357914D01*
X128915601Y-81357914D02*
X129058458Y-81072200D01*
X129058458Y-81072200D02*
X129201316Y-80929342D01*
X129201316Y-80929342D02*
X129487030Y-80786485D01*
X129487030Y-80786485D02*
X130058458Y-80643628D01*
X130058458Y-80643628D02*
X130344173Y-80500771D01*
X130344173Y-80500771D02*
X130487030Y-80357914D01*
X130487030Y-80357914D02*
X130629887Y-80072200D01*
X130629887Y-80072200D02*
X130629887Y-79786485D01*
X130629887Y-79786485D02*
X130487030Y-79500771D01*
X130487030Y-79500771D02*
X130344173Y-79357914D01*
X130344173Y-79357914D02*
X130058458Y-79215057D01*
X130058458Y-79215057D02*
X129344173Y-79215057D01*
X129344173Y-79215057D02*
X128915601Y-79357914D01*
X125487030Y-81357914D02*
X124058459Y-81357914D01*
X125772744Y-82215057D02*
X124772744Y-79215057D01*
X124772744Y-79215057D02*
X123772744Y-82215057D01*
X122772744Y-80215057D02*
X122772744Y-82215057D01*
X122772744Y-80500771D02*
X122629887Y-80357914D01*
X122629887Y-80357914D02*
X122344172Y-80215057D01*
X122344172Y-80215057D02*
X121915601Y-80215057D01*
X121915601Y-80215057D02*
X121629887Y-80357914D01*
X121629887Y-80357914D02*
X121487030Y-80643628D01*
X121487030Y-80643628D02*
X121487030Y-82215057D01*
X120487029Y-80215057D02*
X119344172Y-80215057D01*
X120058458Y-79215057D02*
X120058458Y-81786485D01*
X120058458Y-81786485D02*
X119915601Y-82072200D01*
X119915601Y-82072200D02*
X119629886Y-82215057D01*
X119629886Y-82215057D02*
X119344172Y-82215057D01*
X117201315Y-82072200D02*
X117487029Y-82215057D01*
X117487029Y-82215057D02*
X118058458Y-82215057D01*
X118058458Y-82215057D02*
X118344172Y-82072200D01*
X118344172Y-82072200D02*
X118487029Y-81786485D01*
X118487029Y-81786485D02*
X118487029Y-80643628D01*
X118487029Y-80643628D02*
X118344172Y-80357914D01*
X118344172Y-80357914D02*
X118058458Y-80215057D01*
X118058458Y-80215057D02*
X117487029Y-80215057D01*
X117487029Y-80215057D02*
X117201315Y-80357914D01*
X117201315Y-80357914D02*
X117058458Y-80643628D01*
X117058458Y-80643628D02*
X117058458Y-80929342D01*
X117058458Y-80929342D02*
X118487029Y-81215057D01*
X115772743Y-80215057D02*
X115772743Y-82215057D01*
X115772743Y-80500771D02*
X115629886Y-80357914D01*
X115629886Y-80357914D02*
X115344171Y-80215057D01*
X115344171Y-80215057D02*
X114915600Y-80215057D01*
X114915600Y-80215057D02*
X114629886Y-80357914D01*
X114629886Y-80357914D02*
X114487029Y-80643628D01*
X114487029Y-80643628D02*
X114487029Y-82215057D01*
X113058457Y-80215057D02*
X113058457Y-82215057D01*
X113058457Y-80500771D02*
X112915600Y-80357914D01*
X112915600Y-80357914D02*
X112629885Y-80215057D01*
X112629885Y-80215057D02*
X112201314Y-80215057D01*
X112201314Y-80215057D02*
X111915600Y-80357914D01*
X111915600Y-80357914D02*
X111772743Y-80643628D01*
X111772743Y-80643628D02*
X111772743Y-82215057D01*
X109058457Y-82215057D02*
X109058457Y-80643628D01*
X109058457Y-80643628D02*
X109201314Y-80357914D01*
X109201314Y-80357914D02*
X109487028Y-80215057D01*
X109487028Y-80215057D02*
X110058457Y-80215057D01*
X110058457Y-80215057D02*
X110344171Y-80357914D01*
X109058457Y-82072200D02*
X109344171Y-82215057D01*
X109344171Y-82215057D02*
X110058457Y-82215057D01*
X110058457Y-82215057D02*
X110344171Y-82072200D01*
X110344171Y-82072200D02*
X110487028Y-81786485D01*
X110487028Y-81786485D02*
X110487028Y-81500771D01*
X110487028Y-81500771D02*
X110344171Y-81215057D01*
X110344171Y-81215057D02*
X110058457Y-81072200D01*
X110058457Y-81072200D02*
X109344171Y-81072200D01*
X109344171Y-81072200D02*
X109058457Y-80929342D01*
D12*
X132773884Y-126091466D02*
X133535789Y-126091466D01*
X133154836Y-126472419D02*
X133154836Y-125710514D01*
D10*
X160307550Y-91261940D02*
X160212312Y-91309559D01*
X160212312Y-91309559D02*
X160021836Y-91309559D01*
X160021836Y-91309559D02*
X159926598Y-91261940D01*
X159926598Y-91261940D02*
X159878979Y-91166701D01*
X159878979Y-91166701D02*
X159878979Y-91119082D01*
X159878979Y-91119082D02*
X159926598Y-91023844D01*
X159926598Y-91023844D02*
X160021836Y-90976225D01*
X160021836Y-90976225D02*
X160164693Y-90976225D01*
X160164693Y-90976225D02*
X160259931Y-90928606D01*
X160259931Y-90928606D02*
X160307550Y-90833368D01*
X160307550Y-90833368D02*
X160307550Y-90785749D01*
X160307550Y-90785749D02*
X160259931Y-90690511D01*
X160259931Y-90690511D02*
X160164693Y-90642892D01*
X160164693Y-90642892D02*
X160021836Y-90642892D01*
X160021836Y-90642892D02*
X159926598Y-90690511D01*
X159450407Y-91309559D02*
X159450407Y-90642892D01*
X159450407Y-90309559D02*
X159498026Y-90357178D01*
X159498026Y-90357178D02*
X159450407Y-90404797D01*
X159450407Y-90404797D02*
X159402788Y-90357178D01*
X159402788Y-90357178D02*
X159450407Y-90309559D01*
X159450407Y-90309559D02*
X159450407Y-90404797D01*
X158545646Y-90642892D02*
X158545646Y-91452416D01*
X158545646Y-91452416D02*
X158593265Y-91547654D01*
X158593265Y-91547654D02*
X158640884Y-91595273D01*
X158640884Y-91595273D02*
X158736122Y-91642892D01*
X158736122Y-91642892D02*
X158878979Y-91642892D01*
X158878979Y-91642892D02*
X158974217Y-91595273D01*
X158545646Y-91261940D02*
X158640884Y-91309559D01*
X158640884Y-91309559D02*
X158831360Y-91309559D01*
X158831360Y-91309559D02*
X158926598Y-91261940D01*
X158926598Y-91261940D02*
X158974217Y-91214320D01*
X158974217Y-91214320D02*
X159021836Y-91119082D01*
X159021836Y-91119082D02*
X159021836Y-90833368D01*
X159021836Y-90833368D02*
X158974217Y-90738130D01*
X158974217Y-90738130D02*
X158926598Y-90690511D01*
X158926598Y-90690511D02*
X158831360Y-90642892D01*
X158831360Y-90642892D02*
X158640884Y-90642892D01*
X158640884Y-90642892D02*
X158545646Y-90690511D01*
M02*
