%TF.GenerationSoftware,KiCad,Pcbnew,8.0.3*%
%TF.CreationDate,2024-12-28T15:27:52+01:00*%
%TF.ProjectId,picoballoon,7069636f-6261-46c6-9c6f-6f6e2e6b6963,rev?*%
%TF.SameCoordinates,Original*%
%TF.FileFunction,Drillmap*%
%TF.FilePolarity,Positive*%
%FSLAX45Y45*%
G04 Gerber Fmt 4.5, Leading zero omitted, Abs format (unit mm)*
G04 Created by KiCad (PCBNEW 8.0.3) date 2024-12-28 15:27:52*
%MOMM*%
%LPD*%
G01*
G04 APERTURE LIST*
%ADD10C,0.100000*%
%ADD11C,0.200000*%
%ADD12C,0.210000*%
G04 APERTURE END LIST*
D10*
X10677000Y-6601000D02*
X16177000Y-6601000D01*
X16177000Y-12901000D01*
X10677000Y-12901000D01*
X10677000Y-6601000D01*
D11*
D12*
X10899000Y-12494000D02*
X11109000Y-12704000D01*
X11109000Y-12494000D02*
X10899000Y-12704000D01*
X10901000Y-8584000D02*
X11111000Y-8794000D01*
X11111000Y-8584000D02*
X10901000Y-8794000D01*
X15778000Y-12475000D02*
X15988000Y-12685000D01*
X15988000Y-12475000D02*
X15778000Y-12685000D01*
X15796000Y-8562000D02*
X16006000Y-8772000D01*
X16006000Y-8562000D02*
X15796000Y-8772000D01*
D11*
X10932777Y-13217484D02*
X10932777Y-13017484D01*
X10932777Y-13017484D02*
X10980396Y-13017484D01*
X10980396Y-13017484D02*
X11008967Y-13027008D01*
X11008967Y-13027008D02*
X11028015Y-13046055D01*
X11028015Y-13046055D02*
X11037539Y-13065103D01*
X11037539Y-13065103D02*
X11047063Y-13103198D01*
X11047063Y-13103198D02*
X11047063Y-13131769D01*
X11047063Y-13131769D02*
X11037539Y-13169865D01*
X11037539Y-13169865D02*
X11028015Y-13188912D01*
X11028015Y-13188912D02*
X11008967Y-13207960D01*
X11008967Y-13207960D02*
X10980396Y-13217484D01*
X10980396Y-13217484D02*
X10932777Y-13217484D01*
X11132777Y-13217484D02*
X11132777Y-13084150D01*
X11132777Y-13122246D02*
X11142301Y-13103198D01*
X11142301Y-13103198D02*
X11151824Y-13093674D01*
X11151824Y-13093674D02*
X11170872Y-13084150D01*
X11170872Y-13084150D02*
X11189920Y-13084150D01*
X11256586Y-13217484D02*
X11256586Y-13084150D01*
X11256586Y-13017484D02*
X11247062Y-13027008D01*
X11247062Y-13027008D02*
X11256586Y-13036531D01*
X11256586Y-13036531D02*
X11266110Y-13027008D01*
X11266110Y-13027008D02*
X11256586Y-13017484D01*
X11256586Y-13017484D02*
X11256586Y-13036531D01*
X11380396Y-13217484D02*
X11361348Y-13207960D01*
X11361348Y-13207960D02*
X11351824Y-13188912D01*
X11351824Y-13188912D02*
X11351824Y-13017484D01*
X11485158Y-13217484D02*
X11466110Y-13207960D01*
X11466110Y-13207960D02*
X11456586Y-13188912D01*
X11456586Y-13188912D02*
X11456586Y-13017484D01*
X11713729Y-13217484D02*
X11713729Y-13017484D01*
X11713729Y-13017484D02*
X11780396Y-13160341D01*
X11780396Y-13160341D02*
X11847062Y-13017484D01*
X11847062Y-13017484D02*
X11847062Y-13217484D01*
X12028015Y-13217484D02*
X12028015Y-13112722D01*
X12028015Y-13112722D02*
X12018491Y-13093674D01*
X12018491Y-13093674D02*
X11999443Y-13084150D01*
X11999443Y-13084150D02*
X11961348Y-13084150D01*
X11961348Y-13084150D02*
X11942301Y-13093674D01*
X12028015Y-13207960D02*
X12008967Y-13217484D01*
X12008967Y-13217484D02*
X11961348Y-13217484D01*
X11961348Y-13217484D02*
X11942301Y-13207960D01*
X11942301Y-13207960D02*
X11932777Y-13188912D01*
X11932777Y-13188912D02*
X11932777Y-13169865D01*
X11932777Y-13169865D02*
X11942301Y-13150817D01*
X11942301Y-13150817D02*
X11961348Y-13141293D01*
X11961348Y-13141293D02*
X12008967Y-13141293D01*
X12008967Y-13141293D02*
X12028015Y-13131769D01*
X12123253Y-13084150D02*
X12123253Y-13284150D01*
X12123253Y-13093674D02*
X12142301Y-13084150D01*
X12142301Y-13084150D02*
X12180396Y-13084150D01*
X12180396Y-13084150D02*
X12199443Y-13093674D01*
X12199443Y-13093674D02*
X12208967Y-13103198D01*
X12208967Y-13103198D02*
X12218491Y-13122246D01*
X12218491Y-13122246D02*
X12218491Y-13179388D01*
X12218491Y-13179388D02*
X12208967Y-13198436D01*
X12208967Y-13198436D02*
X12199443Y-13207960D01*
X12199443Y-13207960D02*
X12180396Y-13217484D01*
X12180396Y-13217484D02*
X12142301Y-13217484D01*
X12142301Y-13217484D02*
X12123253Y-13207960D01*
X12304205Y-13198436D02*
X12313729Y-13207960D01*
X12313729Y-13207960D02*
X12304205Y-13217484D01*
X12304205Y-13217484D02*
X12294682Y-13207960D01*
X12294682Y-13207960D02*
X12304205Y-13198436D01*
X12304205Y-13198436D02*
X12304205Y-13217484D01*
X12304205Y-13093674D02*
X12313729Y-13103198D01*
X12313729Y-13103198D02*
X12304205Y-13112722D01*
X12304205Y-13112722D02*
X12294682Y-13103198D01*
X12294682Y-13103198D02*
X12304205Y-13093674D01*
X12304205Y-13093674D02*
X12304205Y-13112722D01*
X10472000Y-13446000D02*
X10672000Y-13646000D01*
X10672000Y-13446000D02*
X10472000Y-13646000D01*
X10923253Y-13456531D02*
X10932777Y-13447008D01*
X10932777Y-13447008D02*
X10951824Y-13437484D01*
X10951824Y-13437484D02*
X10999444Y-13437484D01*
X10999444Y-13437484D02*
X11018491Y-13447008D01*
X11018491Y-13447008D02*
X11028015Y-13456531D01*
X11028015Y-13456531D02*
X11037539Y-13475579D01*
X11037539Y-13475579D02*
X11037539Y-13494627D01*
X11037539Y-13494627D02*
X11028015Y-13523198D01*
X11028015Y-13523198D02*
X10913729Y-13637484D01*
X10913729Y-13637484D02*
X11037539Y-13637484D01*
X11123253Y-13618436D02*
X11132777Y-13627960D01*
X11132777Y-13627960D02*
X11123253Y-13637484D01*
X11123253Y-13637484D02*
X11113729Y-13627960D01*
X11113729Y-13627960D02*
X11123253Y-13618436D01*
X11123253Y-13618436D02*
X11123253Y-13637484D01*
X11323253Y-13637484D02*
X11208967Y-13637484D01*
X11266110Y-13637484D02*
X11266110Y-13437484D01*
X11266110Y-13437484D02*
X11247062Y-13466055D01*
X11247062Y-13466055D02*
X11228015Y-13485103D01*
X11228015Y-13485103D02*
X11208967Y-13494627D01*
X11447062Y-13437484D02*
X11466110Y-13437484D01*
X11466110Y-13437484D02*
X11485158Y-13447008D01*
X11485158Y-13447008D02*
X11494682Y-13456531D01*
X11494682Y-13456531D02*
X11504205Y-13475579D01*
X11504205Y-13475579D02*
X11513729Y-13513674D01*
X11513729Y-13513674D02*
X11513729Y-13561293D01*
X11513729Y-13561293D02*
X11504205Y-13599388D01*
X11504205Y-13599388D02*
X11494682Y-13618436D01*
X11494682Y-13618436D02*
X11485158Y-13627960D01*
X11485158Y-13627960D02*
X11466110Y-13637484D01*
X11466110Y-13637484D02*
X11447062Y-13637484D01*
X11447062Y-13637484D02*
X11428015Y-13627960D01*
X11428015Y-13627960D02*
X11418491Y-13618436D01*
X11418491Y-13618436D02*
X11408967Y-13599388D01*
X11408967Y-13599388D02*
X11399443Y-13561293D01*
X11399443Y-13561293D02*
X11399443Y-13513674D01*
X11399443Y-13513674D02*
X11408967Y-13475579D01*
X11408967Y-13475579D02*
X11418491Y-13456531D01*
X11418491Y-13456531D02*
X11428015Y-13447008D01*
X11428015Y-13447008D02*
X11447062Y-13437484D01*
X11637539Y-13437484D02*
X11656586Y-13437484D01*
X11656586Y-13437484D02*
X11675634Y-13447008D01*
X11675634Y-13447008D02*
X11685158Y-13456531D01*
X11685158Y-13456531D02*
X11694682Y-13475579D01*
X11694682Y-13475579D02*
X11704205Y-13513674D01*
X11704205Y-13513674D02*
X11704205Y-13561293D01*
X11704205Y-13561293D02*
X11694682Y-13599388D01*
X11694682Y-13599388D02*
X11685158Y-13618436D01*
X11685158Y-13618436D02*
X11675634Y-13627960D01*
X11675634Y-13627960D02*
X11656586Y-13637484D01*
X11656586Y-13637484D02*
X11637539Y-13637484D01*
X11637539Y-13637484D02*
X11618491Y-13627960D01*
X11618491Y-13627960D02*
X11608967Y-13618436D01*
X11608967Y-13618436D02*
X11599443Y-13599388D01*
X11599443Y-13599388D02*
X11589920Y-13561293D01*
X11589920Y-13561293D02*
X11589920Y-13513674D01*
X11589920Y-13513674D02*
X11599443Y-13475579D01*
X11599443Y-13475579D02*
X11608967Y-13456531D01*
X11608967Y-13456531D02*
X11618491Y-13447008D01*
X11618491Y-13447008D02*
X11637539Y-13437484D01*
X11789920Y-13637484D02*
X11789920Y-13504150D01*
X11789920Y-13523198D02*
X11799443Y-13513674D01*
X11799443Y-13513674D02*
X11818491Y-13504150D01*
X11818491Y-13504150D02*
X11847063Y-13504150D01*
X11847063Y-13504150D02*
X11866110Y-13513674D01*
X11866110Y-13513674D02*
X11875634Y-13532722D01*
X11875634Y-13532722D02*
X11875634Y-13637484D01*
X11875634Y-13532722D02*
X11885158Y-13513674D01*
X11885158Y-13513674D02*
X11904205Y-13504150D01*
X11904205Y-13504150D02*
X11932777Y-13504150D01*
X11932777Y-13504150D02*
X11951824Y-13513674D01*
X11951824Y-13513674D02*
X11961348Y-13532722D01*
X11961348Y-13532722D02*
X11961348Y-13637484D01*
X12056586Y-13637484D02*
X12056586Y-13504150D01*
X12056586Y-13523198D02*
X12066110Y-13513674D01*
X12066110Y-13513674D02*
X12085158Y-13504150D01*
X12085158Y-13504150D02*
X12113729Y-13504150D01*
X12113729Y-13504150D02*
X12132777Y-13513674D01*
X12132777Y-13513674D02*
X12142301Y-13532722D01*
X12142301Y-13532722D02*
X12142301Y-13637484D01*
X12142301Y-13532722D02*
X12151824Y-13513674D01*
X12151824Y-13513674D02*
X12170872Y-13504150D01*
X12170872Y-13504150D02*
X12199443Y-13504150D01*
X12199443Y-13504150D02*
X12218491Y-13513674D01*
X12218491Y-13513674D02*
X12228015Y-13532722D01*
X12228015Y-13532722D02*
X12228015Y-13637484D01*
X12618491Y-13427960D02*
X12447063Y-13685103D01*
X12875634Y-13437484D02*
X12894682Y-13437484D01*
X12894682Y-13437484D02*
X12913729Y-13447008D01*
X12913729Y-13447008D02*
X12923253Y-13456531D01*
X12923253Y-13456531D02*
X12932777Y-13475579D01*
X12932777Y-13475579D02*
X12942301Y-13513674D01*
X12942301Y-13513674D02*
X12942301Y-13561293D01*
X12942301Y-13561293D02*
X12932777Y-13599388D01*
X12932777Y-13599388D02*
X12923253Y-13618436D01*
X12923253Y-13618436D02*
X12913729Y-13627960D01*
X12913729Y-13627960D02*
X12894682Y-13637484D01*
X12894682Y-13637484D02*
X12875634Y-13637484D01*
X12875634Y-13637484D02*
X12856586Y-13627960D01*
X12856586Y-13627960D02*
X12847063Y-13618436D01*
X12847063Y-13618436D02*
X12837539Y-13599388D01*
X12837539Y-13599388D02*
X12828015Y-13561293D01*
X12828015Y-13561293D02*
X12828015Y-13513674D01*
X12828015Y-13513674D02*
X12837539Y-13475579D01*
X12837539Y-13475579D02*
X12847063Y-13456531D01*
X12847063Y-13456531D02*
X12856586Y-13447008D01*
X12856586Y-13447008D02*
X12875634Y-13437484D01*
X13028015Y-13618436D02*
X13037539Y-13627960D01*
X13037539Y-13627960D02*
X13028015Y-13637484D01*
X13028015Y-13637484D02*
X13018491Y-13627960D01*
X13018491Y-13627960D02*
X13028015Y-13618436D01*
X13028015Y-13618436D02*
X13028015Y-13637484D01*
X13161348Y-13437484D02*
X13180396Y-13437484D01*
X13180396Y-13437484D02*
X13199444Y-13447008D01*
X13199444Y-13447008D02*
X13208967Y-13456531D01*
X13208967Y-13456531D02*
X13218491Y-13475579D01*
X13218491Y-13475579D02*
X13228015Y-13513674D01*
X13228015Y-13513674D02*
X13228015Y-13561293D01*
X13228015Y-13561293D02*
X13218491Y-13599388D01*
X13218491Y-13599388D02*
X13208967Y-13618436D01*
X13208967Y-13618436D02*
X13199444Y-13627960D01*
X13199444Y-13627960D02*
X13180396Y-13637484D01*
X13180396Y-13637484D02*
X13161348Y-13637484D01*
X13161348Y-13637484D02*
X13142301Y-13627960D01*
X13142301Y-13627960D02*
X13132777Y-13618436D01*
X13132777Y-13618436D02*
X13123253Y-13599388D01*
X13123253Y-13599388D02*
X13113729Y-13561293D01*
X13113729Y-13561293D02*
X13113729Y-13513674D01*
X13113729Y-13513674D02*
X13123253Y-13475579D01*
X13123253Y-13475579D02*
X13132777Y-13456531D01*
X13132777Y-13456531D02*
X13142301Y-13447008D01*
X13142301Y-13447008D02*
X13161348Y-13437484D01*
X13342301Y-13523198D02*
X13323253Y-13513674D01*
X13323253Y-13513674D02*
X13313729Y-13504150D01*
X13313729Y-13504150D02*
X13304206Y-13485103D01*
X13304206Y-13485103D02*
X13304206Y-13475579D01*
X13304206Y-13475579D02*
X13313729Y-13456531D01*
X13313729Y-13456531D02*
X13323253Y-13447008D01*
X13323253Y-13447008D02*
X13342301Y-13437484D01*
X13342301Y-13437484D02*
X13380396Y-13437484D01*
X13380396Y-13437484D02*
X13399444Y-13447008D01*
X13399444Y-13447008D02*
X13408967Y-13456531D01*
X13408967Y-13456531D02*
X13418491Y-13475579D01*
X13418491Y-13475579D02*
X13418491Y-13485103D01*
X13418491Y-13485103D02*
X13408967Y-13504150D01*
X13408967Y-13504150D02*
X13399444Y-13513674D01*
X13399444Y-13513674D02*
X13380396Y-13523198D01*
X13380396Y-13523198D02*
X13342301Y-13523198D01*
X13342301Y-13523198D02*
X13323253Y-13532722D01*
X13323253Y-13532722D02*
X13313729Y-13542246D01*
X13313729Y-13542246D02*
X13304206Y-13561293D01*
X13304206Y-13561293D02*
X13304206Y-13599388D01*
X13304206Y-13599388D02*
X13313729Y-13618436D01*
X13313729Y-13618436D02*
X13323253Y-13627960D01*
X13323253Y-13627960D02*
X13342301Y-13637484D01*
X13342301Y-13637484D02*
X13380396Y-13637484D01*
X13380396Y-13637484D02*
X13399444Y-13627960D01*
X13399444Y-13627960D02*
X13408967Y-13618436D01*
X13408967Y-13618436D02*
X13418491Y-13599388D01*
X13418491Y-13599388D02*
X13418491Y-13561293D01*
X13418491Y-13561293D02*
X13408967Y-13542246D01*
X13408967Y-13542246D02*
X13399444Y-13532722D01*
X13399444Y-13532722D02*
X13380396Y-13523198D01*
X13494682Y-13456531D02*
X13504206Y-13447008D01*
X13504206Y-13447008D02*
X13523253Y-13437484D01*
X13523253Y-13437484D02*
X13570872Y-13437484D01*
X13570872Y-13437484D02*
X13589920Y-13447008D01*
X13589920Y-13447008D02*
X13599444Y-13456531D01*
X13599444Y-13456531D02*
X13608967Y-13475579D01*
X13608967Y-13475579D02*
X13608967Y-13494627D01*
X13608967Y-13494627D02*
X13599444Y-13523198D01*
X13599444Y-13523198D02*
X13485158Y-13637484D01*
X13485158Y-13637484D02*
X13608967Y-13637484D01*
X13675634Y-13437484D02*
X13808967Y-13437484D01*
X13808967Y-13437484D02*
X13723253Y-13637484D01*
X13875634Y-13437484D02*
X13875634Y-13475579D01*
X13951825Y-13437484D02*
X13951825Y-13475579D01*
X14247063Y-13713674D02*
X14237539Y-13704150D01*
X14237539Y-13704150D02*
X14218491Y-13675579D01*
X14218491Y-13675579D02*
X14208968Y-13656531D01*
X14208968Y-13656531D02*
X14199444Y-13627960D01*
X14199444Y-13627960D02*
X14189920Y-13580341D01*
X14189920Y-13580341D02*
X14189920Y-13542246D01*
X14189920Y-13542246D02*
X14199444Y-13494627D01*
X14199444Y-13494627D02*
X14208968Y-13466055D01*
X14208968Y-13466055D02*
X14218491Y-13447008D01*
X14218491Y-13447008D02*
X14237539Y-13418436D01*
X14237539Y-13418436D02*
X14247063Y-13408912D01*
X14408968Y-13504150D02*
X14408968Y-13637484D01*
X14361348Y-13427960D02*
X14313729Y-13570817D01*
X14313729Y-13570817D02*
X14437539Y-13570817D01*
X14666110Y-13637484D02*
X14666110Y-13437484D01*
X14751825Y-13637484D02*
X14751825Y-13532722D01*
X14751825Y-13532722D02*
X14742301Y-13513674D01*
X14742301Y-13513674D02*
X14723253Y-13504150D01*
X14723253Y-13504150D02*
X14694682Y-13504150D01*
X14694682Y-13504150D02*
X14675634Y-13513674D01*
X14675634Y-13513674D02*
X14666110Y-13523198D01*
X14875634Y-13637484D02*
X14856587Y-13627960D01*
X14856587Y-13627960D02*
X14847063Y-13618436D01*
X14847063Y-13618436D02*
X14837539Y-13599388D01*
X14837539Y-13599388D02*
X14837539Y-13542246D01*
X14837539Y-13542246D02*
X14847063Y-13523198D01*
X14847063Y-13523198D02*
X14856587Y-13513674D01*
X14856587Y-13513674D02*
X14875634Y-13504150D01*
X14875634Y-13504150D02*
X14904206Y-13504150D01*
X14904206Y-13504150D02*
X14923253Y-13513674D01*
X14923253Y-13513674D02*
X14932777Y-13523198D01*
X14932777Y-13523198D02*
X14942301Y-13542246D01*
X14942301Y-13542246D02*
X14942301Y-13599388D01*
X14942301Y-13599388D02*
X14932777Y-13618436D01*
X14932777Y-13618436D02*
X14923253Y-13627960D01*
X14923253Y-13627960D02*
X14904206Y-13637484D01*
X14904206Y-13637484D02*
X14875634Y-13637484D01*
X15056587Y-13637484D02*
X15037539Y-13627960D01*
X15037539Y-13627960D02*
X15028015Y-13608912D01*
X15028015Y-13608912D02*
X15028015Y-13437484D01*
X15208968Y-13627960D02*
X15189920Y-13637484D01*
X15189920Y-13637484D02*
X15151825Y-13637484D01*
X15151825Y-13637484D02*
X15132777Y-13627960D01*
X15132777Y-13627960D02*
X15123253Y-13608912D01*
X15123253Y-13608912D02*
X15123253Y-13532722D01*
X15123253Y-13532722D02*
X15132777Y-13513674D01*
X15132777Y-13513674D02*
X15151825Y-13504150D01*
X15151825Y-13504150D02*
X15189920Y-13504150D01*
X15189920Y-13504150D02*
X15208968Y-13513674D01*
X15208968Y-13513674D02*
X15218491Y-13532722D01*
X15218491Y-13532722D02*
X15218491Y-13551769D01*
X15218491Y-13551769D02*
X15123253Y-13570817D01*
X15294682Y-13627960D02*
X15313730Y-13637484D01*
X15313730Y-13637484D02*
X15351825Y-13637484D01*
X15351825Y-13637484D02*
X15370872Y-13627960D01*
X15370872Y-13627960D02*
X15380396Y-13608912D01*
X15380396Y-13608912D02*
X15380396Y-13599388D01*
X15380396Y-13599388D02*
X15370872Y-13580341D01*
X15370872Y-13580341D02*
X15351825Y-13570817D01*
X15351825Y-13570817D02*
X15323253Y-13570817D01*
X15323253Y-13570817D02*
X15304206Y-13561293D01*
X15304206Y-13561293D02*
X15294682Y-13542246D01*
X15294682Y-13542246D02*
X15294682Y-13532722D01*
X15294682Y-13532722D02*
X15304206Y-13513674D01*
X15304206Y-13513674D02*
X15323253Y-13504150D01*
X15323253Y-13504150D02*
X15351825Y-13504150D01*
X15351825Y-13504150D02*
X15370872Y-13513674D01*
X15447063Y-13713674D02*
X15456587Y-13704150D01*
X15456587Y-13704150D02*
X15475634Y-13675579D01*
X15475634Y-13675579D02*
X15485158Y-13656531D01*
X15485158Y-13656531D02*
X15494682Y-13627960D01*
X15494682Y-13627960D02*
X15504206Y-13580341D01*
X15504206Y-13580341D02*
X15504206Y-13542246D01*
X15504206Y-13542246D02*
X15494682Y-13494627D01*
X15494682Y-13494627D02*
X15485158Y-13466055D01*
X15485158Y-13466055D02*
X15475634Y-13447008D01*
X15475634Y-13447008D02*
X15456587Y-13418436D01*
X15456587Y-13418436D02*
X15447063Y-13408912D01*
X15808968Y-13713674D02*
X15799444Y-13704150D01*
X15799444Y-13704150D02*
X15780396Y-13675579D01*
X15780396Y-13675579D02*
X15770872Y-13656531D01*
X15770872Y-13656531D02*
X15761349Y-13627960D01*
X15761349Y-13627960D02*
X15751825Y-13580341D01*
X15751825Y-13580341D02*
X15751825Y-13542246D01*
X15751825Y-13542246D02*
X15761349Y-13494627D01*
X15761349Y-13494627D02*
X15770872Y-13466055D01*
X15770872Y-13466055D02*
X15780396Y-13447008D01*
X15780396Y-13447008D02*
X15799444Y-13418436D01*
X15799444Y-13418436D02*
X15808968Y-13408912D01*
X15885158Y-13504150D02*
X15885158Y-13637484D01*
X15885158Y-13523198D02*
X15894682Y-13513674D01*
X15894682Y-13513674D02*
X15913730Y-13504150D01*
X15913730Y-13504150D02*
X15942301Y-13504150D01*
X15942301Y-13504150D02*
X15961349Y-13513674D01*
X15961349Y-13513674D02*
X15970872Y-13532722D01*
X15970872Y-13532722D02*
X15970872Y-13637484D01*
X16094682Y-13637484D02*
X16075634Y-13627960D01*
X16075634Y-13627960D02*
X16066111Y-13618436D01*
X16066111Y-13618436D02*
X16056587Y-13599388D01*
X16056587Y-13599388D02*
X16056587Y-13542246D01*
X16056587Y-13542246D02*
X16066111Y-13523198D01*
X16066111Y-13523198D02*
X16075634Y-13513674D01*
X16075634Y-13513674D02*
X16094682Y-13504150D01*
X16094682Y-13504150D02*
X16123253Y-13504150D01*
X16123253Y-13504150D02*
X16142301Y-13513674D01*
X16142301Y-13513674D02*
X16151825Y-13523198D01*
X16151825Y-13523198D02*
X16161349Y-13542246D01*
X16161349Y-13542246D02*
X16161349Y-13599388D01*
X16161349Y-13599388D02*
X16151825Y-13618436D01*
X16151825Y-13618436D02*
X16142301Y-13627960D01*
X16142301Y-13627960D02*
X16123253Y-13637484D01*
X16123253Y-13637484D02*
X16094682Y-13637484D01*
X16218492Y-13504150D02*
X16294682Y-13504150D01*
X16247063Y-13437484D02*
X16247063Y-13608912D01*
X16247063Y-13608912D02*
X16256587Y-13627960D01*
X16256587Y-13627960D02*
X16275634Y-13637484D01*
X16275634Y-13637484D02*
X16294682Y-13637484D01*
X16513730Y-13504150D02*
X16513730Y-13704150D01*
X16513730Y-13513674D02*
X16532777Y-13504150D01*
X16532777Y-13504150D02*
X16570873Y-13504150D01*
X16570873Y-13504150D02*
X16589920Y-13513674D01*
X16589920Y-13513674D02*
X16599444Y-13523198D01*
X16599444Y-13523198D02*
X16608968Y-13542246D01*
X16608968Y-13542246D02*
X16608968Y-13599388D01*
X16608968Y-13599388D02*
X16599444Y-13618436D01*
X16599444Y-13618436D02*
X16589920Y-13627960D01*
X16589920Y-13627960D02*
X16570873Y-13637484D01*
X16570873Y-13637484D02*
X16532777Y-13637484D01*
X16532777Y-13637484D02*
X16513730Y-13627960D01*
X16723253Y-13637484D02*
X16704206Y-13627960D01*
X16704206Y-13627960D02*
X16694682Y-13608912D01*
X16694682Y-13608912D02*
X16694682Y-13437484D01*
X16885158Y-13637484D02*
X16885158Y-13532722D01*
X16885158Y-13532722D02*
X16875635Y-13513674D01*
X16875635Y-13513674D02*
X16856587Y-13504150D01*
X16856587Y-13504150D02*
X16818492Y-13504150D01*
X16818492Y-13504150D02*
X16799444Y-13513674D01*
X16885158Y-13627960D02*
X16866111Y-13637484D01*
X16866111Y-13637484D02*
X16818492Y-13637484D01*
X16818492Y-13637484D02*
X16799444Y-13627960D01*
X16799444Y-13627960D02*
X16789920Y-13608912D01*
X16789920Y-13608912D02*
X16789920Y-13589865D01*
X16789920Y-13589865D02*
X16799444Y-13570817D01*
X16799444Y-13570817D02*
X16818492Y-13561293D01*
X16818492Y-13561293D02*
X16866111Y-13561293D01*
X16866111Y-13561293D02*
X16885158Y-13551769D01*
X16951825Y-13504150D02*
X17028015Y-13504150D01*
X16980396Y-13437484D02*
X16980396Y-13608912D01*
X16980396Y-13608912D02*
X16989920Y-13627960D01*
X16989920Y-13627960D02*
X17008968Y-13637484D01*
X17008968Y-13637484D02*
X17028015Y-13637484D01*
X17170873Y-13627960D02*
X17151825Y-13637484D01*
X17151825Y-13637484D02*
X17113730Y-13637484D01*
X17113730Y-13637484D02*
X17094682Y-13627960D01*
X17094682Y-13627960D02*
X17085158Y-13608912D01*
X17085158Y-13608912D02*
X17085158Y-13532722D01*
X17085158Y-13532722D02*
X17094682Y-13513674D01*
X17094682Y-13513674D02*
X17113730Y-13504150D01*
X17113730Y-13504150D02*
X17151825Y-13504150D01*
X17151825Y-13504150D02*
X17170873Y-13513674D01*
X17170873Y-13513674D02*
X17180396Y-13532722D01*
X17180396Y-13532722D02*
X17180396Y-13551769D01*
X17180396Y-13551769D02*
X17085158Y-13570817D01*
X17351825Y-13637484D02*
X17351825Y-13437484D01*
X17351825Y-13627960D02*
X17332777Y-13637484D01*
X17332777Y-13637484D02*
X17294682Y-13637484D01*
X17294682Y-13637484D02*
X17275635Y-13627960D01*
X17275635Y-13627960D02*
X17266111Y-13618436D01*
X17266111Y-13618436D02*
X17256587Y-13599388D01*
X17256587Y-13599388D02*
X17256587Y-13542246D01*
X17256587Y-13542246D02*
X17266111Y-13523198D01*
X17266111Y-13523198D02*
X17275635Y-13513674D01*
X17275635Y-13513674D02*
X17294682Y-13504150D01*
X17294682Y-13504150D02*
X17332777Y-13504150D01*
X17332777Y-13504150D02*
X17351825Y-13513674D01*
X17428016Y-13713674D02*
X17437539Y-13704150D01*
X17437539Y-13704150D02*
X17456587Y-13675579D01*
X17456587Y-13675579D02*
X17466111Y-13656531D01*
X17466111Y-13656531D02*
X17475635Y-13627960D01*
X17475635Y-13627960D02*
X17485158Y-13580341D01*
X17485158Y-13580341D02*
X17485158Y-13542246D01*
X17485158Y-13542246D02*
X17475635Y-13494627D01*
X17475635Y-13494627D02*
X17466111Y-13466055D01*
X17466111Y-13466055D02*
X17456587Y-13447008D01*
X17456587Y-13447008D02*
X17437539Y-13418436D01*
X17437539Y-13418436D02*
X17428016Y-13408912D01*
M02*
