%TF.GenerationSoftware,KiCad,Pcbnew,8.0.3*%
%TF.CreationDate,2025-04-13T21:26:22+02:00*%
%TF.ProjectId,picoballoon,7069636f-6261-46c6-9c6f-6f6e2e6b6963,rev?*%
%TF.SameCoordinates,Original*%
%TF.FileFunction,Drillmap*%
%TF.FilePolarity,Positive*%
%FSLAX45Y45*%
G04 Gerber Fmt 4.5, Leading zero omitted, Abs format (unit mm)*
G04 Created by KiCad (PCBNEW 8.0.3) date 2025-04-13 21:26:22*
%MOMM*%
%LPD*%
G01*
G04 APERTURE LIST*
%ADD10C,0.100000*%
%ADD11C,0.200000*%
%ADD12C,0.210000*%
G04 APERTURE END LIST*
D10*
X11879000Y-8401000D02*
X16179000Y-8401000D01*
X16179000Y-12901000D01*
X11879000Y-12901000D01*
X11879000Y-8401000D01*
D11*
D12*
X12054000Y-12511000D02*
X12264000Y-12721000D01*
X12264000Y-12511000D02*
X12054000Y-12721000D01*
X12063000Y-8581000D02*
X12273000Y-8791000D01*
X12273000Y-8581000D02*
X12063000Y-8791000D01*
X15773000Y-8587000D02*
X15983000Y-8797000D01*
X15983000Y-8587000D02*
X15773000Y-8797000D01*
X15783000Y-12503000D02*
X15993000Y-12713000D01*
X15993000Y-12503000D02*
X15783000Y-12713000D01*
D11*
X12134777Y-13217484D02*
X12134777Y-13017484D01*
X12134777Y-13017484D02*
X12182396Y-13017484D01*
X12182396Y-13017484D02*
X12210967Y-13027008D01*
X12210967Y-13027008D02*
X12230015Y-13046055D01*
X12230015Y-13046055D02*
X12239539Y-13065103D01*
X12239539Y-13065103D02*
X12249062Y-13103198D01*
X12249062Y-13103198D02*
X12249062Y-13131769D01*
X12249062Y-13131769D02*
X12239539Y-13169865D01*
X12239539Y-13169865D02*
X12230015Y-13188912D01*
X12230015Y-13188912D02*
X12210967Y-13207960D01*
X12210967Y-13207960D02*
X12182396Y-13217484D01*
X12182396Y-13217484D02*
X12134777Y-13217484D01*
X12334777Y-13217484D02*
X12334777Y-13084150D01*
X12334777Y-13122246D02*
X12344301Y-13103198D01*
X12344301Y-13103198D02*
X12353824Y-13093674D01*
X12353824Y-13093674D02*
X12372872Y-13084150D01*
X12372872Y-13084150D02*
X12391920Y-13084150D01*
X12458586Y-13217484D02*
X12458586Y-13084150D01*
X12458586Y-13017484D02*
X12449062Y-13027008D01*
X12449062Y-13027008D02*
X12458586Y-13036531D01*
X12458586Y-13036531D02*
X12468110Y-13027008D01*
X12468110Y-13027008D02*
X12458586Y-13017484D01*
X12458586Y-13017484D02*
X12458586Y-13036531D01*
X12582396Y-13217484D02*
X12563348Y-13207960D01*
X12563348Y-13207960D02*
X12553824Y-13188912D01*
X12553824Y-13188912D02*
X12553824Y-13017484D01*
X12687158Y-13217484D02*
X12668110Y-13207960D01*
X12668110Y-13207960D02*
X12658586Y-13188912D01*
X12658586Y-13188912D02*
X12658586Y-13017484D01*
X12915729Y-13217484D02*
X12915729Y-13017484D01*
X12915729Y-13017484D02*
X12982396Y-13160341D01*
X12982396Y-13160341D02*
X13049062Y-13017484D01*
X13049062Y-13017484D02*
X13049062Y-13217484D01*
X13230015Y-13217484D02*
X13230015Y-13112722D01*
X13230015Y-13112722D02*
X13220491Y-13093674D01*
X13220491Y-13093674D02*
X13201443Y-13084150D01*
X13201443Y-13084150D02*
X13163348Y-13084150D01*
X13163348Y-13084150D02*
X13144301Y-13093674D01*
X13230015Y-13207960D02*
X13210967Y-13217484D01*
X13210967Y-13217484D02*
X13163348Y-13217484D01*
X13163348Y-13217484D02*
X13144301Y-13207960D01*
X13144301Y-13207960D02*
X13134777Y-13188912D01*
X13134777Y-13188912D02*
X13134777Y-13169865D01*
X13134777Y-13169865D02*
X13144301Y-13150817D01*
X13144301Y-13150817D02*
X13163348Y-13141293D01*
X13163348Y-13141293D02*
X13210967Y-13141293D01*
X13210967Y-13141293D02*
X13230015Y-13131769D01*
X13325253Y-13084150D02*
X13325253Y-13284150D01*
X13325253Y-13093674D02*
X13344301Y-13084150D01*
X13344301Y-13084150D02*
X13382396Y-13084150D01*
X13382396Y-13084150D02*
X13401443Y-13093674D01*
X13401443Y-13093674D02*
X13410967Y-13103198D01*
X13410967Y-13103198D02*
X13420491Y-13122246D01*
X13420491Y-13122246D02*
X13420491Y-13179388D01*
X13420491Y-13179388D02*
X13410967Y-13198436D01*
X13410967Y-13198436D02*
X13401443Y-13207960D01*
X13401443Y-13207960D02*
X13382396Y-13217484D01*
X13382396Y-13217484D02*
X13344301Y-13217484D01*
X13344301Y-13217484D02*
X13325253Y-13207960D01*
X13506205Y-13198436D02*
X13515729Y-13207960D01*
X13515729Y-13207960D02*
X13506205Y-13217484D01*
X13506205Y-13217484D02*
X13496682Y-13207960D01*
X13496682Y-13207960D02*
X13506205Y-13198436D01*
X13506205Y-13198436D02*
X13506205Y-13217484D01*
X13506205Y-13093674D02*
X13515729Y-13103198D01*
X13515729Y-13103198D02*
X13506205Y-13112722D01*
X13506205Y-13112722D02*
X13496682Y-13103198D01*
X13496682Y-13103198D02*
X13506205Y-13093674D01*
X13506205Y-13093674D02*
X13506205Y-13112722D01*
X11674000Y-13446000D02*
X11874000Y-13646000D01*
X11874000Y-13446000D02*
X11674000Y-13646000D01*
X12125253Y-13456531D02*
X12134777Y-13447008D01*
X12134777Y-13447008D02*
X12153824Y-13437484D01*
X12153824Y-13437484D02*
X12201443Y-13437484D01*
X12201443Y-13437484D02*
X12220491Y-13447008D01*
X12220491Y-13447008D02*
X12230015Y-13456531D01*
X12230015Y-13456531D02*
X12239539Y-13475579D01*
X12239539Y-13475579D02*
X12239539Y-13494627D01*
X12239539Y-13494627D02*
X12230015Y-13523198D01*
X12230015Y-13523198D02*
X12115729Y-13637484D01*
X12115729Y-13637484D02*
X12239539Y-13637484D01*
X12325253Y-13618436D02*
X12334777Y-13627960D01*
X12334777Y-13627960D02*
X12325253Y-13637484D01*
X12325253Y-13637484D02*
X12315729Y-13627960D01*
X12315729Y-13627960D02*
X12325253Y-13618436D01*
X12325253Y-13618436D02*
X12325253Y-13637484D01*
X12525253Y-13637484D02*
X12410967Y-13637484D01*
X12468110Y-13637484D02*
X12468110Y-13437484D01*
X12468110Y-13437484D02*
X12449062Y-13466055D01*
X12449062Y-13466055D02*
X12430015Y-13485103D01*
X12430015Y-13485103D02*
X12410967Y-13494627D01*
X12649062Y-13437484D02*
X12668110Y-13437484D01*
X12668110Y-13437484D02*
X12687158Y-13447008D01*
X12687158Y-13447008D02*
X12696682Y-13456531D01*
X12696682Y-13456531D02*
X12706205Y-13475579D01*
X12706205Y-13475579D02*
X12715729Y-13513674D01*
X12715729Y-13513674D02*
X12715729Y-13561293D01*
X12715729Y-13561293D02*
X12706205Y-13599388D01*
X12706205Y-13599388D02*
X12696682Y-13618436D01*
X12696682Y-13618436D02*
X12687158Y-13627960D01*
X12687158Y-13627960D02*
X12668110Y-13637484D01*
X12668110Y-13637484D02*
X12649062Y-13637484D01*
X12649062Y-13637484D02*
X12630015Y-13627960D01*
X12630015Y-13627960D02*
X12620491Y-13618436D01*
X12620491Y-13618436D02*
X12610967Y-13599388D01*
X12610967Y-13599388D02*
X12601443Y-13561293D01*
X12601443Y-13561293D02*
X12601443Y-13513674D01*
X12601443Y-13513674D02*
X12610967Y-13475579D01*
X12610967Y-13475579D02*
X12620491Y-13456531D01*
X12620491Y-13456531D02*
X12630015Y-13447008D01*
X12630015Y-13447008D02*
X12649062Y-13437484D01*
X12839539Y-13437484D02*
X12858586Y-13437484D01*
X12858586Y-13437484D02*
X12877634Y-13447008D01*
X12877634Y-13447008D02*
X12887158Y-13456531D01*
X12887158Y-13456531D02*
X12896682Y-13475579D01*
X12896682Y-13475579D02*
X12906205Y-13513674D01*
X12906205Y-13513674D02*
X12906205Y-13561293D01*
X12906205Y-13561293D02*
X12896682Y-13599388D01*
X12896682Y-13599388D02*
X12887158Y-13618436D01*
X12887158Y-13618436D02*
X12877634Y-13627960D01*
X12877634Y-13627960D02*
X12858586Y-13637484D01*
X12858586Y-13637484D02*
X12839539Y-13637484D01*
X12839539Y-13637484D02*
X12820491Y-13627960D01*
X12820491Y-13627960D02*
X12810967Y-13618436D01*
X12810967Y-13618436D02*
X12801443Y-13599388D01*
X12801443Y-13599388D02*
X12791920Y-13561293D01*
X12791920Y-13561293D02*
X12791920Y-13513674D01*
X12791920Y-13513674D02*
X12801443Y-13475579D01*
X12801443Y-13475579D02*
X12810967Y-13456531D01*
X12810967Y-13456531D02*
X12820491Y-13447008D01*
X12820491Y-13447008D02*
X12839539Y-13437484D01*
X12991920Y-13637484D02*
X12991920Y-13504150D01*
X12991920Y-13523198D02*
X13001443Y-13513674D01*
X13001443Y-13513674D02*
X13020491Y-13504150D01*
X13020491Y-13504150D02*
X13049063Y-13504150D01*
X13049063Y-13504150D02*
X13068110Y-13513674D01*
X13068110Y-13513674D02*
X13077634Y-13532722D01*
X13077634Y-13532722D02*
X13077634Y-13637484D01*
X13077634Y-13532722D02*
X13087158Y-13513674D01*
X13087158Y-13513674D02*
X13106205Y-13504150D01*
X13106205Y-13504150D02*
X13134777Y-13504150D01*
X13134777Y-13504150D02*
X13153824Y-13513674D01*
X13153824Y-13513674D02*
X13163348Y-13532722D01*
X13163348Y-13532722D02*
X13163348Y-13637484D01*
X13258586Y-13637484D02*
X13258586Y-13504150D01*
X13258586Y-13523198D02*
X13268110Y-13513674D01*
X13268110Y-13513674D02*
X13287158Y-13504150D01*
X13287158Y-13504150D02*
X13315729Y-13504150D01*
X13315729Y-13504150D02*
X13334777Y-13513674D01*
X13334777Y-13513674D02*
X13344301Y-13532722D01*
X13344301Y-13532722D02*
X13344301Y-13637484D01*
X13344301Y-13532722D02*
X13353824Y-13513674D01*
X13353824Y-13513674D02*
X13372872Y-13504150D01*
X13372872Y-13504150D02*
X13401443Y-13504150D01*
X13401443Y-13504150D02*
X13420491Y-13513674D01*
X13420491Y-13513674D02*
X13430015Y-13532722D01*
X13430015Y-13532722D02*
X13430015Y-13637484D01*
X13820491Y-13427960D02*
X13649063Y-13685103D01*
X14077634Y-13437484D02*
X14096682Y-13437484D01*
X14096682Y-13437484D02*
X14115729Y-13447008D01*
X14115729Y-13447008D02*
X14125253Y-13456531D01*
X14125253Y-13456531D02*
X14134777Y-13475579D01*
X14134777Y-13475579D02*
X14144301Y-13513674D01*
X14144301Y-13513674D02*
X14144301Y-13561293D01*
X14144301Y-13561293D02*
X14134777Y-13599388D01*
X14134777Y-13599388D02*
X14125253Y-13618436D01*
X14125253Y-13618436D02*
X14115729Y-13627960D01*
X14115729Y-13627960D02*
X14096682Y-13637484D01*
X14096682Y-13637484D02*
X14077634Y-13637484D01*
X14077634Y-13637484D02*
X14058586Y-13627960D01*
X14058586Y-13627960D02*
X14049063Y-13618436D01*
X14049063Y-13618436D02*
X14039539Y-13599388D01*
X14039539Y-13599388D02*
X14030015Y-13561293D01*
X14030015Y-13561293D02*
X14030015Y-13513674D01*
X14030015Y-13513674D02*
X14039539Y-13475579D01*
X14039539Y-13475579D02*
X14049063Y-13456531D01*
X14049063Y-13456531D02*
X14058586Y-13447008D01*
X14058586Y-13447008D02*
X14077634Y-13437484D01*
X14230015Y-13618436D02*
X14239539Y-13627960D01*
X14239539Y-13627960D02*
X14230015Y-13637484D01*
X14230015Y-13637484D02*
X14220491Y-13627960D01*
X14220491Y-13627960D02*
X14230015Y-13618436D01*
X14230015Y-13618436D02*
X14230015Y-13637484D01*
X14363348Y-13437484D02*
X14382396Y-13437484D01*
X14382396Y-13437484D02*
X14401444Y-13447008D01*
X14401444Y-13447008D02*
X14410967Y-13456531D01*
X14410967Y-13456531D02*
X14420491Y-13475579D01*
X14420491Y-13475579D02*
X14430015Y-13513674D01*
X14430015Y-13513674D02*
X14430015Y-13561293D01*
X14430015Y-13561293D02*
X14420491Y-13599388D01*
X14420491Y-13599388D02*
X14410967Y-13618436D01*
X14410967Y-13618436D02*
X14401444Y-13627960D01*
X14401444Y-13627960D02*
X14382396Y-13637484D01*
X14382396Y-13637484D02*
X14363348Y-13637484D01*
X14363348Y-13637484D02*
X14344301Y-13627960D01*
X14344301Y-13627960D02*
X14334777Y-13618436D01*
X14334777Y-13618436D02*
X14325253Y-13599388D01*
X14325253Y-13599388D02*
X14315729Y-13561293D01*
X14315729Y-13561293D02*
X14315729Y-13513674D01*
X14315729Y-13513674D02*
X14325253Y-13475579D01*
X14325253Y-13475579D02*
X14334777Y-13456531D01*
X14334777Y-13456531D02*
X14344301Y-13447008D01*
X14344301Y-13447008D02*
X14363348Y-13437484D01*
X14544301Y-13523198D02*
X14525253Y-13513674D01*
X14525253Y-13513674D02*
X14515729Y-13504150D01*
X14515729Y-13504150D02*
X14506206Y-13485103D01*
X14506206Y-13485103D02*
X14506206Y-13475579D01*
X14506206Y-13475579D02*
X14515729Y-13456531D01*
X14515729Y-13456531D02*
X14525253Y-13447008D01*
X14525253Y-13447008D02*
X14544301Y-13437484D01*
X14544301Y-13437484D02*
X14582396Y-13437484D01*
X14582396Y-13437484D02*
X14601444Y-13447008D01*
X14601444Y-13447008D02*
X14610967Y-13456531D01*
X14610967Y-13456531D02*
X14620491Y-13475579D01*
X14620491Y-13475579D02*
X14620491Y-13485103D01*
X14620491Y-13485103D02*
X14610967Y-13504150D01*
X14610967Y-13504150D02*
X14601444Y-13513674D01*
X14601444Y-13513674D02*
X14582396Y-13523198D01*
X14582396Y-13523198D02*
X14544301Y-13523198D01*
X14544301Y-13523198D02*
X14525253Y-13532722D01*
X14525253Y-13532722D02*
X14515729Y-13542246D01*
X14515729Y-13542246D02*
X14506206Y-13561293D01*
X14506206Y-13561293D02*
X14506206Y-13599388D01*
X14506206Y-13599388D02*
X14515729Y-13618436D01*
X14515729Y-13618436D02*
X14525253Y-13627960D01*
X14525253Y-13627960D02*
X14544301Y-13637484D01*
X14544301Y-13637484D02*
X14582396Y-13637484D01*
X14582396Y-13637484D02*
X14601444Y-13627960D01*
X14601444Y-13627960D02*
X14610967Y-13618436D01*
X14610967Y-13618436D02*
X14620491Y-13599388D01*
X14620491Y-13599388D02*
X14620491Y-13561293D01*
X14620491Y-13561293D02*
X14610967Y-13542246D01*
X14610967Y-13542246D02*
X14601444Y-13532722D01*
X14601444Y-13532722D02*
X14582396Y-13523198D01*
X14696682Y-13456531D02*
X14706206Y-13447008D01*
X14706206Y-13447008D02*
X14725253Y-13437484D01*
X14725253Y-13437484D02*
X14772872Y-13437484D01*
X14772872Y-13437484D02*
X14791920Y-13447008D01*
X14791920Y-13447008D02*
X14801444Y-13456531D01*
X14801444Y-13456531D02*
X14810967Y-13475579D01*
X14810967Y-13475579D02*
X14810967Y-13494627D01*
X14810967Y-13494627D02*
X14801444Y-13523198D01*
X14801444Y-13523198D02*
X14687158Y-13637484D01*
X14687158Y-13637484D02*
X14810967Y-13637484D01*
X14877634Y-13437484D02*
X15010967Y-13437484D01*
X15010967Y-13437484D02*
X14925253Y-13637484D01*
X15077634Y-13437484D02*
X15077634Y-13475579D01*
X15153825Y-13437484D02*
X15153825Y-13475579D01*
X15449063Y-13713674D02*
X15439539Y-13704150D01*
X15439539Y-13704150D02*
X15420491Y-13675579D01*
X15420491Y-13675579D02*
X15410968Y-13656531D01*
X15410968Y-13656531D02*
X15401444Y-13627960D01*
X15401444Y-13627960D02*
X15391920Y-13580341D01*
X15391920Y-13580341D02*
X15391920Y-13542246D01*
X15391920Y-13542246D02*
X15401444Y-13494627D01*
X15401444Y-13494627D02*
X15410968Y-13466055D01*
X15410968Y-13466055D02*
X15420491Y-13447008D01*
X15420491Y-13447008D02*
X15439539Y-13418436D01*
X15439539Y-13418436D02*
X15449063Y-13408912D01*
X15610968Y-13504150D02*
X15610968Y-13637484D01*
X15563348Y-13427960D02*
X15515729Y-13570817D01*
X15515729Y-13570817D02*
X15639539Y-13570817D01*
X15868110Y-13637484D02*
X15868110Y-13437484D01*
X15953825Y-13637484D02*
X15953825Y-13532722D01*
X15953825Y-13532722D02*
X15944301Y-13513674D01*
X15944301Y-13513674D02*
X15925253Y-13504150D01*
X15925253Y-13504150D02*
X15896682Y-13504150D01*
X15896682Y-13504150D02*
X15877634Y-13513674D01*
X15877634Y-13513674D02*
X15868110Y-13523198D01*
X16077634Y-13637484D02*
X16058587Y-13627960D01*
X16058587Y-13627960D02*
X16049063Y-13618436D01*
X16049063Y-13618436D02*
X16039539Y-13599388D01*
X16039539Y-13599388D02*
X16039539Y-13542246D01*
X16039539Y-13542246D02*
X16049063Y-13523198D01*
X16049063Y-13523198D02*
X16058587Y-13513674D01*
X16058587Y-13513674D02*
X16077634Y-13504150D01*
X16077634Y-13504150D02*
X16106206Y-13504150D01*
X16106206Y-13504150D02*
X16125253Y-13513674D01*
X16125253Y-13513674D02*
X16134777Y-13523198D01*
X16134777Y-13523198D02*
X16144301Y-13542246D01*
X16144301Y-13542246D02*
X16144301Y-13599388D01*
X16144301Y-13599388D02*
X16134777Y-13618436D01*
X16134777Y-13618436D02*
X16125253Y-13627960D01*
X16125253Y-13627960D02*
X16106206Y-13637484D01*
X16106206Y-13637484D02*
X16077634Y-13637484D01*
X16258587Y-13637484D02*
X16239539Y-13627960D01*
X16239539Y-13627960D02*
X16230015Y-13608912D01*
X16230015Y-13608912D02*
X16230015Y-13437484D01*
X16410968Y-13627960D02*
X16391920Y-13637484D01*
X16391920Y-13637484D02*
X16353825Y-13637484D01*
X16353825Y-13637484D02*
X16334777Y-13627960D01*
X16334777Y-13627960D02*
X16325253Y-13608912D01*
X16325253Y-13608912D02*
X16325253Y-13532722D01*
X16325253Y-13532722D02*
X16334777Y-13513674D01*
X16334777Y-13513674D02*
X16353825Y-13504150D01*
X16353825Y-13504150D02*
X16391920Y-13504150D01*
X16391920Y-13504150D02*
X16410968Y-13513674D01*
X16410968Y-13513674D02*
X16420491Y-13532722D01*
X16420491Y-13532722D02*
X16420491Y-13551769D01*
X16420491Y-13551769D02*
X16325253Y-13570817D01*
X16496682Y-13627960D02*
X16515730Y-13637484D01*
X16515730Y-13637484D02*
X16553825Y-13637484D01*
X16553825Y-13637484D02*
X16572872Y-13627960D01*
X16572872Y-13627960D02*
X16582396Y-13608912D01*
X16582396Y-13608912D02*
X16582396Y-13599388D01*
X16582396Y-13599388D02*
X16572872Y-13580341D01*
X16572872Y-13580341D02*
X16553825Y-13570817D01*
X16553825Y-13570817D02*
X16525253Y-13570817D01*
X16525253Y-13570817D02*
X16506206Y-13561293D01*
X16506206Y-13561293D02*
X16496682Y-13542246D01*
X16496682Y-13542246D02*
X16496682Y-13532722D01*
X16496682Y-13532722D02*
X16506206Y-13513674D01*
X16506206Y-13513674D02*
X16525253Y-13504150D01*
X16525253Y-13504150D02*
X16553825Y-13504150D01*
X16553825Y-13504150D02*
X16572872Y-13513674D01*
X16649063Y-13713674D02*
X16658587Y-13704150D01*
X16658587Y-13704150D02*
X16677634Y-13675579D01*
X16677634Y-13675579D02*
X16687158Y-13656531D01*
X16687158Y-13656531D02*
X16696682Y-13627960D01*
X16696682Y-13627960D02*
X16706206Y-13580341D01*
X16706206Y-13580341D02*
X16706206Y-13542246D01*
X16706206Y-13542246D02*
X16696682Y-13494627D01*
X16696682Y-13494627D02*
X16687158Y-13466055D01*
X16687158Y-13466055D02*
X16677634Y-13447008D01*
X16677634Y-13447008D02*
X16658587Y-13418436D01*
X16658587Y-13418436D02*
X16649063Y-13408912D01*
X17010968Y-13713674D02*
X17001444Y-13704150D01*
X17001444Y-13704150D02*
X16982396Y-13675579D01*
X16982396Y-13675579D02*
X16972873Y-13656531D01*
X16972873Y-13656531D02*
X16963349Y-13627960D01*
X16963349Y-13627960D02*
X16953825Y-13580341D01*
X16953825Y-13580341D02*
X16953825Y-13542246D01*
X16953825Y-13542246D02*
X16963349Y-13494627D01*
X16963349Y-13494627D02*
X16972873Y-13466055D01*
X16972873Y-13466055D02*
X16982396Y-13447008D01*
X16982396Y-13447008D02*
X17001444Y-13418436D01*
X17001444Y-13418436D02*
X17010968Y-13408912D01*
X17087158Y-13504150D02*
X17087158Y-13637484D01*
X17087158Y-13523198D02*
X17096682Y-13513674D01*
X17096682Y-13513674D02*
X17115730Y-13504150D01*
X17115730Y-13504150D02*
X17144301Y-13504150D01*
X17144301Y-13504150D02*
X17163349Y-13513674D01*
X17163349Y-13513674D02*
X17172873Y-13532722D01*
X17172873Y-13532722D02*
X17172873Y-13637484D01*
X17296682Y-13637484D02*
X17277634Y-13627960D01*
X17277634Y-13627960D02*
X17268111Y-13618436D01*
X17268111Y-13618436D02*
X17258587Y-13599388D01*
X17258587Y-13599388D02*
X17258587Y-13542246D01*
X17258587Y-13542246D02*
X17268111Y-13523198D01*
X17268111Y-13523198D02*
X17277634Y-13513674D01*
X17277634Y-13513674D02*
X17296682Y-13504150D01*
X17296682Y-13504150D02*
X17325254Y-13504150D01*
X17325254Y-13504150D02*
X17344301Y-13513674D01*
X17344301Y-13513674D02*
X17353825Y-13523198D01*
X17353825Y-13523198D02*
X17363349Y-13542246D01*
X17363349Y-13542246D02*
X17363349Y-13599388D01*
X17363349Y-13599388D02*
X17353825Y-13618436D01*
X17353825Y-13618436D02*
X17344301Y-13627960D01*
X17344301Y-13627960D02*
X17325254Y-13637484D01*
X17325254Y-13637484D02*
X17296682Y-13637484D01*
X17420492Y-13504150D02*
X17496682Y-13504150D01*
X17449063Y-13437484D02*
X17449063Y-13608912D01*
X17449063Y-13608912D02*
X17458587Y-13627960D01*
X17458587Y-13627960D02*
X17477634Y-13637484D01*
X17477634Y-13637484D02*
X17496682Y-13637484D01*
X17715730Y-13504150D02*
X17715730Y-13704150D01*
X17715730Y-13513674D02*
X17734777Y-13504150D01*
X17734777Y-13504150D02*
X17772873Y-13504150D01*
X17772873Y-13504150D02*
X17791920Y-13513674D01*
X17791920Y-13513674D02*
X17801444Y-13523198D01*
X17801444Y-13523198D02*
X17810968Y-13542246D01*
X17810968Y-13542246D02*
X17810968Y-13599388D01*
X17810968Y-13599388D02*
X17801444Y-13618436D01*
X17801444Y-13618436D02*
X17791920Y-13627960D01*
X17791920Y-13627960D02*
X17772873Y-13637484D01*
X17772873Y-13637484D02*
X17734777Y-13637484D01*
X17734777Y-13637484D02*
X17715730Y-13627960D01*
X17925254Y-13637484D02*
X17906206Y-13627960D01*
X17906206Y-13627960D02*
X17896682Y-13608912D01*
X17896682Y-13608912D02*
X17896682Y-13437484D01*
X18087158Y-13637484D02*
X18087158Y-13532722D01*
X18087158Y-13532722D02*
X18077635Y-13513674D01*
X18077635Y-13513674D02*
X18058587Y-13504150D01*
X18058587Y-13504150D02*
X18020492Y-13504150D01*
X18020492Y-13504150D02*
X18001444Y-13513674D01*
X18087158Y-13627960D02*
X18068111Y-13637484D01*
X18068111Y-13637484D02*
X18020492Y-13637484D01*
X18020492Y-13637484D02*
X18001444Y-13627960D01*
X18001444Y-13627960D02*
X17991920Y-13608912D01*
X17991920Y-13608912D02*
X17991920Y-13589865D01*
X17991920Y-13589865D02*
X18001444Y-13570817D01*
X18001444Y-13570817D02*
X18020492Y-13561293D01*
X18020492Y-13561293D02*
X18068111Y-13561293D01*
X18068111Y-13561293D02*
X18087158Y-13551769D01*
X18153825Y-13504150D02*
X18230015Y-13504150D01*
X18182396Y-13437484D02*
X18182396Y-13608912D01*
X18182396Y-13608912D02*
X18191920Y-13627960D01*
X18191920Y-13627960D02*
X18210968Y-13637484D01*
X18210968Y-13637484D02*
X18230015Y-13637484D01*
X18372873Y-13627960D02*
X18353825Y-13637484D01*
X18353825Y-13637484D02*
X18315730Y-13637484D01*
X18315730Y-13637484D02*
X18296682Y-13627960D01*
X18296682Y-13627960D02*
X18287158Y-13608912D01*
X18287158Y-13608912D02*
X18287158Y-13532722D01*
X18287158Y-13532722D02*
X18296682Y-13513674D01*
X18296682Y-13513674D02*
X18315730Y-13504150D01*
X18315730Y-13504150D02*
X18353825Y-13504150D01*
X18353825Y-13504150D02*
X18372873Y-13513674D01*
X18372873Y-13513674D02*
X18382396Y-13532722D01*
X18382396Y-13532722D02*
X18382396Y-13551769D01*
X18382396Y-13551769D02*
X18287158Y-13570817D01*
X18553825Y-13637484D02*
X18553825Y-13437484D01*
X18553825Y-13627960D02*
X18534777Y-13637484D01*
X18534777Y-13637484D02*
X18496682Y-13637484D01*
X18496682Y-13637484D02*
X18477635Y-13627960D01*
X18477635Y-13627960D02*
X18468111Y-13618436D01*
X18468111Y-13618436D02*
X18458587Y-13599388D01*
X18458587Y-13599388D02*
X18458587Y-13542246D01*
X18458587Y-13542246D02*
X18468111Y-13523198D01*
X18468111Y-13523198D02*
X18477635Y-13513674D01*
X18477635Y-13513674D02*
X18496682Y-13504150D01*
X18496682Y-13504150D02*
X18534777Y-13504150D01*
X18534777Y-13504150D02*
X18553825Y-13513674D01*
X18630016Y-13713674D02*
X18639539Y-13704150D01*
X18639539Y-13704150D02*
X18658587Y-13675579D01*
X18658587Y-13675579D02*
X18668111Y-13656531D01*
X18668111Y-13656531D02*
X18677635Y-13627960D01*
X18677635Y-13627960D02*
X18687158Y-13580341D01*
X18687158Y-13580341D02*
X18687158Y-13542246D01*
X18687158Y-13542246D02*
X18677635Y-13494627D01*
X18677635Y-13494627D02*
X18668111Y-13466055D01*
X18668111Y-13466055D02*
X18658587Y-13447008D01*
X18658587Y-13447008D02*
X18639539Y-13418436D01*
X18639539Y-13418436D02*
X18630016Y-13408912D01*
M02*
