%TF.GenerationSoftware,KiCad,Pcbnew,8.0.3*%
%TF.CreationDate,2025-04-12T20:53:01+02:00*%
%TF.ProjectId,picoballoon,7069636f-6261-46c6-9c6f-6f6e2e6b6963,rev?*%
%TF.SameCoordinates,Original*%
%TF.FileFunction,Copper,L4,Bot*%
%TF.FilePolarity,Positive*%
%FSLAX46Y46*%
G04 Gerber Fmt 4.6, Leading zero omitted, Abs format (unit mm)*
G04 Created by KiCad (PCBNEW 8.0.3) date 2025-04-12 20:53:01*
%MOMM*%
%LPD*%
G01*
G04 APERTURE LIST*
%TA.AperFunction,ComponentPad*%
%ADD10R,1.000000X1.000000*%
%TD*%
%TA.AperFunction,ComponentPad*%
%ADD11O,1.000000X1.000000*%
%TD*%
%TA.AperFunction,ComponentPad*%
%ADD12C,2.200000*%
%TD*%
%TA.AperFunction,ComponentPad*%
%ADD13R,3.500000X3.500000*%
%TD*%
%TA.AperFunction,ComponentPad*%
%ADD14C,3.500000*%
%TD*%
%TA.AperFunction,ComponentPad*%
%ADD15R,1.700000X1.700000*%
%TD*%
%TA.AperFunction,ComponentPad*%
%ADD16O,1.700000X1.700000*%
%TD*%
%TA.AperFunction,ComponentPad*%
%ADD17R,2.000000X2.000000*%
%TD*%
%TA.AperFunction,ComponentPad*%
%ADD18C,2.000000*%
%TD*%
%TA.AperFunction,HeatsinkPad*%
%ADD19C,0.500000*%
%TD*%
%TA.AperFunction,HeatsinkPad*%
%ADD20R,2.600000X2.600000*%
%TD*%
%TA.AperFunction,ViaPad*%
%ADD21C,0.600000*%
%TD*%
G04 APERTURE END LIST*
D10*
%TO.P,J1,1,Pin_1*%
%TO.N,+3.3V*%
X147360000Y-117690000D03*
D11*
%TO.P,J1,2,Pin_2*%
%TO.N,/SWD_DIO*%
X146090000Y-117690000D03*
%TO.P,J1,3,Pin_3*%
%TO.N,GND*%
X147360000Y-116420000D03*
%TO.P,J1,4,Pin_4*%
%TO.N,/SWD_CLK*%
X146090000Y-116420000D03*
%TO.P,J1,5,Pin_5*%
%TO.N,GND*%
X147360000Y-115150000D03*
%TO.P,J1,6,Pin_6*%
%TO.N,unconnected-(J1-Pin_6-Pad6)*%
X146090000Y-115150000D03*
%TO.P,J1,7,Pin_7*%
%TO.N,unconnected-(J1-Pin_7-Pad7)*%
X147360000Y-113880000D03*
%TO.P,J1,8,Pin_8*%
%TO.N,unconnected-(J1-Pin_8-Pad8)*%
X146090000Y-113880000D03*
%TO.P,J1,9,Pin_9*%
%TO.N,unconnected-(J1-Pin_9-Pad9)*%
X147360000Y-112610000D03*
%TO.P,J1,10,Pin_10*%
%TO.N,/RESET*%
X146090000Y-112610000D03*
%TD*%
D12*
%TO.P,AE1,1,A*%
%TO.N,Net-(AE1-A)*%
X158610000Y-93640000D03*
%TO.P,AE1,2,Shield*%
%TO.N,GND*%
X158610000Y-91100000D03*
%TD*%
D13*
%TO.P,C1,1*%
%TO.N,+U_SC1*%
X128270000Y-125400000D03*
D14*
%TO.P,C1,2*%
%TO.N,GND*%
X133270000Y-125400000D03*
%TD*%
D15*
%TO.P,J2,1,Pin_1*%
%TO.N,+U_SC*%
X138230000Y-123720000D03*
D16*
%TO.P,J2,2,Pin_2*%
%TO.N,+U_SC1*%
X138230000Y-126260000D03*
%TD*%
D17*
%TO.P,SC1,1,+*%
%TO.N,Net-(D1-A)*%
X124670000Y-121015000D03*
D18*
%TO.P,SC1,2,-*%
%TO.N,GND*%
X124670000Y-118475000D03*
%TD*%
D19*
%TO.P,,21,GND*%
%TO.N,GND*%
X145583750Y-90695000D03*
%TD*%
%TO.P,,21,GND*%
%TO.N,GND*%
X146633750Y-91735000D03*
%TD*%
%TO.P,,21,GND*%
%TO.N,GND*%
X145588750Y-91745000D03*
%TD*%
%TO.P,,21,GND*%
%TO.N,GND*%
X144543750Y-91735000D03*
%TD*%
%TO.P,U1,21,GND*%
%TO.N,GND*%
X144538750Y-90695000D03*
X144538750Y-92795000D03*
D20*
X145588750Y-91745000D03*
D19*
X146638750Y-90695000D03*
X146638750Y-92795000D03*
%TD*%
%TO.P,,21,GND*%
%TO.N,GND*%
X145583750Y-92795000D03*
%TD*%
D21*
%TO.N,GND*%
X139260000Y-95790000D03*
X145760000Y-104560000D03*
X145770000Y-102800000D03*
X135420000Y-118380000D03*
X137410000Y-122010000D03*
X137420000Y-120590000D03*
X147130000Y-97110000D03*
%TO.N,/SDN*%
X147960000Y-93510000D03*
X145711025Y-101486696D03*
%TO.N,+3.3V*%
X135540000Y-101780000D03*
X127630000Y-112450000D03*
%TO.N,GND*%
X143360000Y-89730000D03*
X142970000Y-94490000D03*
X159430000Y-114290000D03*
X153170000Y-116950000D03*
X153090000Y-113020000D03*
X158800000Y-105670000D03*
X156000000Y-105630000D03*
X156820000Y-92550000D03*
X155520000Y-94710000D03*
X155880000Y-89240000D03*
X152740000Y-88560000D03*
X154810000Y-86910000D03*
X152150000Y-86310000D03*
X149550000Y-86280000D03*
X146740000Y-86140000D03*
X142620000Y-86140000D03*
X128540000Y-122730000D03*
X135980000Y-126580000D03*
X125150000Y-126060000D03*
X124260000Y-124030000D03*
X121660000Y-122730000D03*
X121110000Y-121170000D03*
X120970000Y-119280000D03*
X121320000Y-116930000D03*
X124070000Y-115060000D03*
X121310000Y-114670000D03*
X123200000Y-112810000D03*
X121150000Y-111530000D03*
X122630000Y-110190000D03*
X124540000Y-111190000D03*
X125470000Y-113130000D03*
X126649039Y-115355314D03*
X130790000Y-116600000D03*
X130830000Y-118710000D03*
X129210000Y-118250000D03*
X129090000Y-116300000D03*
X127560000Y-117050000D03*
X127520000Y-118980000D03*
X136410000Y-112570000D03*
X136310000Y-114450000D03*
X136920000Y-116120000D03*
X138420000Y-118430000D03*
X139800000Y-120720000D03*
X140750000Y-122120000D03*
X153150000Y-123380000D03*
X156050000Y-124980000D03*
X150230000Y-120980000D03*
X151280000Y-118630000D03*
X151320000Y-116420000D03*
X150880000Y-113990000D03*
X150150000Y-112360000D03*
X150880000Y-110880000D03*
X150020000Y-108970000D03*
X153070000Y-109860000D03*
X152840000Y-108400000D03*
X151020000Y-107140000D03*
X152400000Y-104020000D03*
X150870000Y-102210000D03*
X151360000Y-99730000D03*
X148760000Y-100140000D03*
X150260000Y-100450000D03*
X140750000Y-92150000D03*
X138440000Y-88490000D03*
X137990000Y-86390000D03*
X131170000Y-88430000D03*
X132840000Y-86510000D03*
X128520000Y-91580000D03*
X126590000Y-96390000D03*
X128110000Y-94420000D03*
X128290000Y-97360000D03*
X127040000Y-99270000D03*
X124540000Y-97120000D03*
X124900000Y-94460000D03*
X126650000Y-92430000D03*
X160310000Y-95180000D03*
X160320000Y-98040000D03*
X160300000Y-98950000D03*
X158670000Y-96070000D03*
X160110000Y-102610000D03*
X160330000Y-101860000D03*
X160340000Y-100950000D03*
X160330000Y-100000000D03*
X160310000Y-97060000D03*
X160300000Y-96050000D03*
X160190000Y-94180000D03*
X158320000Y-95350000D03*
X158690000Y-96960000D03*
X158730000Y-97850000D03*
X158750000Y-98680000D03*
X158800000Y-99530000D03*
X158750000Y-100280000D03*
X158800000Y-101120000D03*
X158350000Y-101730000D03*
X157900000Y-102420000D03*
X157150000Y-102830000D03*
%TO.N,/GNSS_RESET*%
X132310000Y-90960000D03*
X137650000Y-97110000D03*
%TO.N,+3.3V*%
X146882500Y-100720000D03*
X159120000Y-119700000D03*
X153770000Y-115360000D03*
X159240000Y-115350000D03*
X154190000Y-118830000D03*
X136060000Y-122680000D03*
X122390000Y-104120000D03*
X122430000Y-102760000D03*
X122210000Y-107790000D03*
X122130000Y-105850000D03*
X136940000Y-89430000D03*
X134880000Y-92670000D03*
X140120000Y-93260000D03*
%TO.N,/SCLK*%
X142100000Y-91710000D03*
X142920000Y-97310000D03*
%TO.N,GND*%
X123760000Y-100080000D03*
X126680000Y-101780000D03*
X133920000Y-98830000D03*
X133935382Y-97196073D03*
X132460000Y-96620000D03*
X120370000Y-128230000D03*
X147285000Y-94164375D03*
X161000000Y-102500000D03*
X119490000Y-89810000D03*
X134250000Y-128250000D03*
X140110000Y-116180000D03*
X149250000Y-128250000D03*
X155423750Y-99315000D03*
X161000000Y-91500000D03*
X119490000Y-117810000D03*
X140250000Y-128250000D03*
X126250000Y-128250000D03*
X140500000Y-84750000D03*
X148500000Y-84750000D03*
X161000000Y-111500000D03*
X132500000Y-84750000D03*
X119490000Y-101810000D03*
X130500000Y-84750000D03*
X158250000Y-128250000D03*
X161000000Y-106500000D03*
X119490000Y-108810000D03*
X128250000Y-128250000D03*
X147340000Y-107960000D03*
X157250000Y-128250000D03*
X119490000Y-111810000D03*
X135250000Y-128250000D03*
X139500000Y-84750000D03*
X158640000Y-118790000D03*
X152500000Y-84750000D03*
X124500000Y-84750000D03*
X142250000Y-128250000D03*
X129500000Y-84750000D03*
X161000000Y-120500000D03*
X144420000Y-119810000D03*
X119490000Y-110810000D03*
X138740000Y-101270000D03*
X161000000Y-96500000D03*
X142500000Y-84750000D03*
X145050000Y-126020000D03*
X134840000Y-102880000D03*
X128500000Y-84750000D03*
X145500000Y-84750000D03*
X139390000Y-107650000D03*
X153783750Y-94355000D03*
X151500000Y-84750000D03*
X144420000Y-110650000D03*
X119490000Y-92810000D03*
X140180000Y-104680000D03*
X119490000Y-97810000D03*
X161000000Y-105500000D03*
X123500000Y-84750000D03*
X123250000Y-128250000D03*
X161000000Y-92500000D03*
X121500000Y-84750000D03*
X147250000Y-128250000D03*
X161000000Y-86500000D03*
X125500000Y-84750000D03*
X130250000Y-128250000D03*
X146250000Y-128250000D03*
X119490000Y-95810000D03*
X133500000Y-84750000D03*
X119490000Y-123810000D03*
X142100000Y-104270000D03*
X138250000Y-128250000D03*
X161000000Y-85500000D03*
X150500000Y-84750000D03*
X155500000Y-84750000D03*
X132250000Y-128250000D03*
X119490000Y-125810000D03*
X153250000Y-128250000D03*
X141910000Y-107800000D03*
X145250000Y-128250000D03*
X161000000Y-122500000D03*
X119490000Y-114810000D03*
X161000000Y-113500000D03*
X119490000Y-103810000D03*
X156500000Y-84750000D03*
X119490000Y-88810000D03*
X161000000Y-87500000D03*
X143500000Y-84750000D03*
X136250000Y-128250000D03*
X119490000Y-85060000D03*
X161000000Y-94500000D03*
X119490000Y-104810000D03*
X131500000Y-84750000D03*
X157133750Y-99295000D03*
X146500000Y-84750000D03*
X161000000Y-123500000D03*
X156263750Y-99455000D03*
X137150000Y-103370000D03*
X126500000Y-84750000D03*
X136770000Y-106380000D03*
X129250000Y-128250000D03*
X119490000Y-126810000D03*
X160500000Y-84750000D03*
X161000000Y-118500000D03*
X137500000Y-84750000D03*
X155250000Y-128250000D03*
X161000000Y-124500000D03*
X140900000Y-101690000D03*
X134500000Y-84750000D03*
X161000000Y-108500000D03*
X161000000Y-115500000D03*
X161000000Y-121500000D03*
X119490000Y-124810000D03*
X125250000Y-128250000D03*
X158500000Y-84750000D03*
X161000000Y-109500000D03*
X119490000Y-127810000D03*
X161000000Y-88500000D03*
X143250000Y-128250000D03*
X119490000Y-87810000D03*
X135930000Y-108200000D03*
X161000000Y-117500000D03*
X138500000Y-84750000D03*
X119490000Y-93810000D03*
X147500000Y-84750000D03*
X119490000Y-99810000D03*
X161000000Y-100500000D03*
X161000000Y-112500000D03*
X121250000Y-128250000D03*
X119490000Y-106810000D03*
X137250000Y-128250000D03*
X119490000Y-121810000D03*
X152250000Y-128250000D03*
X144500000Y-84750000D03*
X150250000Y-128250000D03*
X139910000Y-115090000D03*
X140190000Y-112000000D03*
X161000000Y-101500000D03*
X141500000Y-84750000D03*
X153500000Y-84750000D03*
X119490000Y-112810000D03*
X161000000Y-103500000D03*
X124250000Y-128250000D03*
X144970000Y-109630000D03*
X138300000Y-113390000D03*
X161000000Y-90500000D03*
X157500000Y-84750000D03*
X119490000Y-105810000D03*
X161000000Y-95500000D03*
X154860000Y-108060000D03*
X119490000Y-119810000D03*
X119490000Y-91810000D03*
X119490000Y-98810000D03*
X151250000Y-128250000D03*
X119490000Y-113810000D03*
X161000000Y-110500000D03*
X119490000Y-86810000D03*
X119490000Y-94810000D03*
X159500000Y-84750000D03*
X119490000Y-120810000D03*
X127500000Y-84750000D03*
X154250000Y-128250000D03*
X148980000Y-126020000D03*
X161000000Y-99500000D03*
X119490000Y-102810000D03*
X161000000Y-89500000D03*
X122500000Y-84750000D03*
X161000000Y-97500000D03*
X161000000Y-119500000D03*
X119490000Y-116810000D03*
X141250000Y-128250000D03*
X161000000Y-125500000D03*
X136500000Y-84750000D03*
X161000000Y-127500000D03*
X119490000Y-100810000D03*
X161000000Y-126500000D03*
X161000000Y-93500000D03*
X161000000Y-114500000D03*
X119490000Y-109810000D03*
X119490000Y-122810000D03*
X143000000Y-119570000D03*
X149500000Y-84750000D03*
X119490000Y-96810000D03*
X119490000Y-118810000D03*
X133250000Y-128250000D03*
X119490000Y-90810000D03*
X119490000Y-85810000D03*
X139250000Y-128250000D03*
X156250000Y-128250000D03*
X157103750Y-102015000D03*
X122250000Y-128250000D03*
X138280000Y-112140000D03*
X161000000Y-107500000D03*
X135500000Y-84750000D03*
X144250000Y-128250000D03*
X161000000Y-104500000D03*
X119490000Y-107810000D03*
X159250000Y-128250000D03*
X161000000Y-116500000D03*
X119490000Y-115810000D03*
X160250000Y-128250000D03*
X135320000Y-104380000D03*
X154500000Y-84750000D03*
X148250000Y-128250000D03*
X161000000Y-98500000D03*
X131250000Y-128250000D03*
X120500000Y-84750000D03*
X127250000Y-128250000D03*
%TO.N,+3.3V*%
X159920000Y-108960000D03*
X148670000Y-121610000D03*
X149980000Y-119070000D03*
X140210000Y-112870000D03*
X149350000Y-110530000D03*
X151050000Y-123730000D03*
%TO.N,/SWD_DIO*%
X141870000Y-119780000D03*
X139020000Y-114300000D03*
%TO.N,+3.3V*%
X146663750Y-88145000D03*
%TO.N,GND*%
X154503750Y-95985000D03*
X153823750Y-93575000D03*
X153723750Y-95945000D03*
X150333750Y-90045000D03*
X157413750Y-96645000D03*
X153783750Y-95125000D03*
X153303750Y-90825000D03*
X150353750Y-92505000D03*
X155003750Y-90775000D03*
X147630000Y-99260000D03*
X155733750Y-92235000D03*
X154233750Y-90675000D03*
X156283750Y-98465000D03*
X150353750Y-89245000D03*
X154643750Y-93485000D03*
X151623750Y-90885000D03*
X150283750Y-91725000D03*
X157483750Y-97495000D03*
X155453275Y-98530330D03*
X155463750Y-92965000D03*
X157083750Y-98245000D03*
X152443750Y-90825000D03*
X151343750Y-91675000D03*
%TO.N,+3.3V*%
X150533750Y-88085000D03*
%TO.N,GND*%
X156983750Y-95945000D03*
X150313750Y-90865000D03*
X151173750Y-92515000D03*
X156153750Y-95785000D03*
X155283750Y-95855000D03*
X155623750Y-91335000D03*
%TD*%
%TA.AperFunction,Conductor*%
%TO.N,GND*%
G36*
X161532539Y-84230185D02*
G01*
X161578294Y-84282989D01*
X161589500Y-84334500D01*
X161589500Y-128685500D01*
X161569815Y-128752539D01*
X161517011Y-128798294D01*
X161465500Y-128809500D01*
X119114500Y-128809500D01*
X119047461Y-128789815D01*
X119001706Y-128737011D01*
X118990500Y-128685500D01*
X118990500Y-126057648D01*
X120289500Y-126057648D01*
X120289500Y-126262351D01*
X120321522Y-126464534D01*
X120384781Y-126659223D01*
X120477715Y-126841613D01*
X120598028Y-127007213D01*
X120742786Y-127151971D01*
X120897749Y-127264556D01*
X120908390Y-127272287D01*
X121024607Y-127331503D01*
X121090776Y-127365218D01*
X121090778Y-127365218D01*
X121090781Y-127365220D01*
X121195137Y-127399127D01*
X121285465Y-127428477D01*
X121386557Y-127444488D01*
X121487648Y-127460500D01*
X121487649Y-127460500D01*
X121692351Y-127460500D01*
X121692352Y-127460500D01*
X121894534Y-127428477D01*
X122089219Y-127365220D01*
X122271610Y-127272287D01*
X122364590Y-127204732D01*
X122437213Y-127151971D01*
X122437215Y-127151968D01*
X122437219Y-127151966D01*
X122581966Y-127007219D01*
X122581968Y-127007215D01*
X122581971Y-127007213D01*
X122640093Y-126927213D01*
X122702287Y-126841610D01*
X122795220Y-126659219D01*
X122858477Y-126464534D01*
X122890500Y-126262352D01*
X122890500Y-126057648D01*
X122858569Y-125856046D01*
X122858477Y-125855465D01*
X122810240Y-125707007D01*
X122795220Y-125660781D01*
X122795218Y-125660778D01*
X122795218Y-125660776D01*
X122720222Y-125513590D01*
X122702287Y-125478390D01*
X122645334Y-125400000D01*
X122581971Y-125312786D01*
X122437213Y-125168028D01*
X122271613Y-125047715D01*
X122271612Y-125047714D01*
X122271610Y-125047713D01*
X122177774Y-124999901D01*
X122089223Y-124954781D01*
X121894534Y-124891522D01*
X121719995Y-124863878D01*
X121692352Y-124859500D01*
X121487648Y-124859500D01*
X121463329Y-124863351D01*
X121285465Y-124891522D01*
X121090776Y-124954781D01*
X120908386Y-125047715D01*
X120742786Y-125168028D01*
X120598028Y-125312786D01*
X120477715Y-125478386D01*
X120384781Y-125660776D01*
X120321522Y-125855465D01*
X120289500Y-126057648D01*
X118990500Y-126057648D01*
X118990500Y-123630247D01*
X126319500Y-123630247D01*
X126319500Y-127169752D01*
X126331131Y-127228229D01*
X126331132Y-127228230D01*
X126375447Y-127294552D01*
X126441769Y-127338867D01*
X126441770Y-127338868D01*
X126500247Y-127350499D01*
X126500250Y-127350500D01*
X126500252Y-127350500D01*
X130039750Y-127350500D01*
X130039751Y-127350499D01*
X130054568Y-127347552D01*
X130098229Y-127338868D01*
X130098229Y-127338867D01*
X130098231Y-127338867D01*
X130164552Y-127294552D01*
X130208867Y-127228231D01*
X130208867Y-127228229D01*
X130208868Y-127228229D01*
X130220499Y-127169752D01*
X130220500Y-127169750D01*
X130220500Y-125399998D01*
X131315019Y-125399998D01*
X131315019Y-125400001D01*
X131334918Y-125678223D01*
X131334919Y-125678230D01*
X131394207Y-125950774D01*
X131491689Y-126212134D01*
X131625361Y-126456938D01*
X131725602Y-126590843D01*
X132787037Y-125529408D01*
X132804075Y-125592993D01*
X132869901Y-125707007D01*
X132962993Y-125800099D01*
X133077007Y-125865925D01*
X133140590Y-125882962D01*
X132079155Y-126944396D01*
X132213061Y-127044637D01*
X132213061Y-127044638D01*
X132457865Y-127178310D01*
X132719225Y-127275792D01*
X132991769Y-127335080D01*
X132991776Y-127335081D01*
X133269999Y-127354981D01*
X133270001Y-127354981D01*
X133548223Y-127335081D01*
X133548230Y-127335080D01*
X133820774Y-127275792D01*
X134082134Y-127178310D01*
X134326942Y-127044635D01*
X134460842Y-126944396D01*
X134460843Y-126944396D01*
X133399410Y-125882962D01*
X133462993Y-125865925D01*
X133577007Y-125800099D01*
X133670099Y-125707007D01*
X133735925Y-125592993D01*
X133752962Y-125529409D01*
X134814396Y-126590843D01*
X134814396Y-126590842D01*
X134914635Y-126456942D01*
X135022173Y-126260000D01*
X137174417Y-126260000D01*
X137194699Y-126465932D01*
X137194700Y-126465934D01*
X137254768Y-126663954D01*
X137352315Y-126846450D01*
X137352317Y-126846452D01*
X137483589Y-127006410D01*
X137530171Y-127044638D01*
X137643550Y-127137685D01*
X137826046Y-127235232D01*
X138024066Y-127295300D01*
X138024065Y-127295300D01*
X138042529Y-127297118D01*
X138230000Y-127315583D01*
X138435934Y-127295300D01*
X138633954Y-127235232D01*
X138816450Y-127137685D01*
X138976410Y-127006410D01*
X139107685Y-126846450D01*
X139205232Y-126663954D01*
X139265300Y-126465934D01*
X139285583Y-126260000D01*
X139265300Y-126054066D01*
X139242119Y-125977648D01*
X157579500Y-125977648D01*
X157579500Y-126182351D01*
X157611522Y-126384534D01*
X157674781Y-126579223D01*
X157767715Y-126761613D01*
X157888028Y-126927213D01*
X158032786Y-127071971D01*
X158142892Y-127151966D01*
X158198390Y-127192287D01*
X158314607Y-127251503D01*
X158380776Y-127285218D01*
X158380778Y-127285218D01*
X158380781Y-127285220D01*
X158474226Y-127315582D01*
X158575465Y-127348477D01*
X158676557Y-127364488D01*
X158777648Y-127380500D01*
X158777649Y-127380500D01*
X158982351Y-127380500D01*
X158982352Y-127380500D01*
X159184534Y-127348477D01*
X159379219Y-127285220D01*
X159561610Y-127192287D01*
X159654590Y-127124732D01*
X159727213Y-127071971D01*
X159727215Y-127071968D01*
X159727219Y-127071966D01*
X159871966Y-126927219D01*
X159871968Y-126927215D01*
X159871971Y-126927213D01*
X159934164Y-126841610D01*
X159992287Y-126761610D01*
X160085220Y-126579219D01*
X160148477Y-126384534D01*
X160180500Y-126182352D01*
X160180500Y-125977648D01*
X160148477Y-125775466D01*
X160085220Y-125580781D01*
X160085218Y-125580778D01*
X160085218Y-125580776D01*
X160026647Y-125465826D01*
X159992287Y-125398390D01*
X159930093Y-125312786D01*
X159871971Y-125232786D01*
X159727213Y-125088028D01*
X159561613Y-124967715D01*
X159561612Y-124967714D01*
X159561610Y-124967713D01*
X159495592Y-124934075D01*
X159379223Y-124874781D01*
X159184534Y-124811522D01*
X159009995Y-124783878D01*
X158982352Y-124779500D01*
X158777648Y-124779500D01*
X158753329Y-124783351D01*
X158575465Y-124811522D01*
X158380776Y-124874781D01*
X158198386Y-124967715D01*
X158032786Y-125088028D01*
X157888028Y-125232786D01*
X157767715Y-125398386D01*
X157674781Y-125580776D01*
X157611522Y-125775465D01*
X157579500Y-125977648D01*
X139242119Y-125977648D01*
X139205232Y-125856046D01*
X139107685Y-125673550D01*
X139031548Y-125580776D01*
X138976410Y-125513589D01*
X138858677Y-125416969D01*
X138816450Y-125382315D01*
X138633954Y-125284768D01*
X138435934Y-125224700D01*
X138435932Y-125224699D01*
X138435934Y-125224699D01*
X138230000Y-125204417D01*
X138024067Y-125224699D01*
X137826043Y-125284769D01*
X137773628Y-125312786D01*
X137643550Y-125382315D01*
X137643548Y-125382316D01*
X137643547Y-125382317D01*
X137483589Y-125513589D01*
X137362798Y-125660776D01*
X137352315Y-125673550D01*
X137334432Y-125707007D01*
X137254769Y-125856043D01*
X137194699Y-126054067D01*
X137174417Y-126260000D01*
X135022173Y-126260000D01*
X135048310Y-126212134D01*
X135145792Y-125950774D01*
X135205080Y-125678230D01*
X135205081Y-125678223D01*
X135224981Y-125400001D01*
X135224981Y-125399998D01*
X135205081Y-125121776D01*
X135205080Y-125121769D01*
X135145792Y-124849225D01*
X135048310Y-124587865D01*
X134914638Y-124343061D01*
X134814396Y-124209155D01*
X133752962Y-125270589D01*
X133735925Y-125207007D01*
X133670099Y-125092993D01*
X133577007Y-124999901D01*
X133462993Y-124934075D01*
X133399409Y-124917037D01*
X134460843Y-123855602D01*
X134326938Y-123755362D01*
X134326938Y-123755361D01*
X134082134Y-123621689D01*
X133820774Y-123524207D01*
X133548230Y-123464919D01*
X133548223Y-123464918D01*
X133270001Y-123445019D01*
X133269999Y-123445019D01*
X132991776Y-123464918D01*
X132991769Y-123464919D01*
X132719225Y-123524207D01*
X132457865Y-123621689D01*
X132213061Y-123755361D01*
X132213054Y-123755366D01*
X132079156Y-123855601D01*
X132079155Y-123855602D01*
X133140591Y-124917037D01*
X133077007Y-124934075D01*
X132962993Y-124999901D01*
X132869901Y-125092993D01*
X132804075Y-125207007D01*
X132787037Y-125270590D01*
X131725602Y-124209155D01*
X131725601Y-124209156D01*
X131625366Y-124343054D01*
X131625361Y-124343061D01*
X131491689Y-124587865D01*
X131394207Y-124849225D01*
X131334919Y-125121769D01*
X131334918Y-125121776D01*
X131315019Y-125399998D01*
X130220500Y-125399998D01*
X130220500Y-123630249D01*
X130220499Y-123630247D01*
X130208868Y-123571770D01*
X130208867Y-123571769D01*
X130164552Y-123505447D01*
X130098230Y-123461132D01*
X130098229Y-123461131D01*
X130039752Y-123449500D01*
X130039748Y-123449500D01*
X126500252Y-123449500D01*
X126500247Y-123449500D01*
X126441770Y-123461131D01*
X126441769Y-123461132D01*
X126375447Y-123505447D01*
X126331132Y-123571769D01*
X126331131Y-123571770D01*
X126319500Y-123630247D01*
X118990500Y-123630247D01*
X118990500Y-122680000D01*
X135554353Y-122680000D01*
X135574834Y-122822456D01*
X135634622Y-122953371D01*
X135634623Y-122953373D01*
X135728872Y-123062143D01*
X135849947Y-123139953D01*
X135849950Y-123139954D01*
X135849949Y-123139954D01*
X135988036Y-123180499D01*
X135988038Y-123180500D01*
X135988039Y-123180500D01*
X136131962Y-123180500D01*
X136131962Y-123180499D01*
X136270053Y-123139953D01*
X136391128Y-123062143D01*
X136485377Y-122953373D01*
X136532474Y-122850247D01*
X137179500Y-122850247D01*
X137179500Y-124589752D01*
X137191131Y-124648229D01*
X137191132Y-124648230D01*
X137235447Y-124714552D01*
X137301769Y-124758867D01*
X137301770Y-124758868D01*
X137360247Y-124770499D01*
X137360250Y-124770500D01*
X137360252Y-124770500D01*
X139099750Y-124770500D01*
X139099751Y-124770499D01*
X139114568Y-124767552D01*
X139158229Y-124758868D01*
X139158229Y-124758867D01*
X139158231Y-124758867D01*
X139224552Y-124714552D01*
X139268867Y-124648231D01*
X139268867Y-124648229D01*
X139268868Y-124648229D01*
X139280499Y-124589752D01*
X139280500Y-124589750D01*
X139280500Y-123730000D01*
X150544353Y-123730000D01*
X150564834Y-123872456D01*
X150624622Y-124003371D01*
X150624623Y-124003373D01*
X150718872Y-124112143D01*
X150839947Y-124189953D01*
X150839950Y-124189954D01*
X150839949Y-124189954D01*
X150978036Y-124230499D01*
X150978038Y-124230500D01*
X150978039Y-124230500D01*
X151121962Y-124230500D01*
X151121962Y-124230499D01*
X151260053Y-124189953D01*
X151381128Y-124112143D01*
X151475377Y-124003373D01*
X151535165Y-123872457D01*
X151555647Y-123730000D01*
X151535165Y-123587543D01*
X151475377Y-123456627D01*
X151381128Y-123347857D01*
X151260053Y-123270047D01*
X151260051Y-123270046D01*
X151260049Y-123270045D01*
X151260050Y-123270045D01*
X151121963Y-123229500D01*
X151121961Y-123229500D01*
X150978039Y-123229500D01*
X150978036Y-123229500D01*
X150839949Y-123270045D01*
X150718873Y-123347856D01*
X150624623Y-123456626D01*
X150624622Y-123456628D01*
X150564834Y-123587543D01*
X150544353Y-123730000D01*
X139280500Y-123730000D01*
X139280500Y-122850249D01*
X139280499Y-122850247D01*
X139268868Y-122791770D01*
X139268867Y-122791769D01*
X139224552Y-122725447D01*
X139158230Y-122681132D01*
X139158229Y-122681131D01*
X139099752Y-122669500D01*
X139099748Y-122669500D01*
X137360252Y-122669500D01*
X137360247Y-122669500D01*
X137301770Y-122681131D01*
X137301769Y-122681132D01*
X137235447Y-122725447D01*
X137191132Y-122791769D01*
X137191131Y-122791770D01*
X137179500Y-122850247D01*
X136532474Y-122850247D01*
X136545165Y-122822457D01*
X136565647Y-122680000D01*
X136545165Y-122537543D01*
X136485377Y-122406627D01*
X136391128Y-122297857D01*
X136270053Y-122220047D01*
X136270051Y-122220046D01*
X136270049Y-122220045D01*
X136270050Y-122220045D01*
X136131963Y-122179500D01*
X136131961Y-122179500D01*
X135988039Y-122179500D01*
X135988036Y-122179500D01*
X135849949Y-122220045D01*
X135728873Y-122297856D01*
X135634623Y-122406626D01*
X135634622Y-122406628D01*
X135574834Y-122537543D01*
X135554353Y-122680000D01*
X118990500Y-122680000D01*
X118990500Y-118474999D01*
X123464859Y-118474999D01*
X123464859Y-118475000D01*
X123485378Y-118696439D01*
X123546240Y-118910350D01*
X123645369Y-119109428D01*
X123661137Y-119130308D01*
X123661138Y-119130308D01*
X124187037Y-118604409D01*
X124204075Y-118667993D01*
X124269901Y-118782007D01*
X124362993Y-118875099D01*
X124477007Y-118940925D01*
X124540590Y-118957962D01*
X124016672Y-119481879D01*
X124016672Y-119481880D01*
X124132821Y-119553797D01*
X124132822Y-119553798D01*
X124187223Y-119574873D01*
X124242624Y-119617446D01*
X124266215Y-119683213D01*
X124250504Y-119751293D01*
X124200480Y-119800072D01*
X124142429Y-119814500D01*
X123650247Y-119814500D01*
X123591770Y-119826131D01*
X123591769Y-119826132D01*
X123525447Y-119870447D01*
X123481132Y-119936769D01*
X123481131Y-119936770D01*
X123469500Y-119995247D01*
X123469500Y-122034752D01*
X123481131Y-122093229D01*
X123481132Y-122093230D01*
X123525447Y-122159552D01*
X123591769Y-122203867D01*
X123591770Y-122203868D01*
X123650247Y-122215499D01*
X123650250Y-122215500D01*
X123650252Y-122215500D01*
X125689750Y-122215500D01*
X125689751Y-122215499D01*
X125704568Y-122212552D01*
X125748229Y-122203868D01*
X125748229Y-122203867D01*
X125748231Y-122203867D01*
X125814552Y-122159552D01*
X125858867Y-122093231D01*
X125858867Y-122093229D01*
X125858868Y-122093229D01*
X125870499Y-122034752D01*
X125870500Y-122034750D01*
X125870500Y-121610000D01*
X148164353Y-121610000D01*
X148184834Y-121752456D01*
X148244622Y-121883371D01*
X148244623Y-121883373D01*
X148338872Y-121992143D01*
X148459947Y-122069953D01*
X148459950Y-122069954D01*
X148459949Y-122069954D01*
X148598036Y-122110499D01*
X148598038Y-122110500D01*
X148598039Y-122110500D01*
X148741962Y-122110500D01*
X148741962Y-122110499D01*
X148880053Y-122069953D01*
X149001128Y-121992143D01*
X149095377Y-121883373D01*
X149155165Y-121752457D01*
X149175647Y-121610000D01*
X149155165Y-121467543D01*
X149095377Y-121336627D01*
X149001128Y-121227857D01*
X148880053Y-121150047D01*
X148880051Y-121150046D01*
X148880049Y-121150045D01*
X148880050Y-121150045D01*
X148741963Y-121109500D01*
X148741961Y-121109500D01*
X148598039Y-121109500D01*
X148598036Y-121109500D01*
X148459949Y-121150045D01*
X148338873Y-121227856D01*
X148244623Y-121336626D01*
X148244622Y-121336628D01*
X148184834Y-121467543D01*
X148164353Y-121610000D01*
X125870500Y-121610000D01*
X125870500Y-119995249D01*
X125870499Y-119995247D01*
X125858868Y-119936770D01*
X125858867Y-119936769D01*
X125814552Y-119870447D01*
X125748230Y-119826132D01*
X125748229Y-119826131D01*
X125689752Y-119814500D01*
X125689748Y-119814500D01*
X125197569Y-119814500D01*
X125130530Y-119794815D01*
X125117693Y-119780000D01*
X141364353Y-119780000D01*
X141384834Y-119922456D01*
X141444622Y-120053371D01*
X141444623Y-120053373D01*
X141538872Y-120162143D01*
X141659947Y-120239953D01*
X141659950Y-120239954D01*
X141659949Y-120239954D01*
X141798036Y-120280499D01*
X141798038Y-120280500D01*
X141798039Y-120280500D01*
X141941962Y-120280500D01*
X141941962Y-120280499D01*
X142080053Y-120239953D01*
X142201128Y-120162143D01*
X142295377Y-120053373D01*
X142355165Y-119922457D01*
X142375647Y-119780000D01*
X142364145Y-119700000D01*
X158614353Y-119700000D01*
X158634834Y-119842456D01*
X158671370Y-119922457D01*
X158694623Y-119973373D01*
X158788872Y-120082143D01*
X158909947Y-120159953D01*
X158909950Y-120159954D01*
X158909949Y-120159954D01*
X159048036Y-120200499D01*
X159048038Y-120200500D01*
X159048039Y-120200500D01*
X159191962Y-120200500D01*
X159191962Y-120200499D01*
X159299121Y-120169035D01*
X159330050Y-120159954D01*
X159330050Y-120159953D01*
X159330053Y-120159953D01*
X159451128Y-120082143D01*
X159545377Y-119973373D01*
X159605165Y-119842457D01*
X159625647Y-119700000D01*
X159605165Y-119557543D01*
X159545377Y-119426627D01*
X159451128Y-119317857D01*
X159330053Y-119240047D01*
X159330051Y-119240046D01*
X159330049Y-119240045D01*
X159330050Y-119240045D01*
X159191963Y-119199500D01*
X159191961Y-119199500D01*
X159048039Y-119199500D01*
X159048036Y-119199500D01*
X158909949Y-119240045D01*
X158788873Y-119317856D01*
X158694623Y-119426626D01*
X158694622Y-119426628D01*
X158634834Y-119557543D01*
X158614353Y-119700000D01*
X142364145Y-119700000D01*
X142355165Y-119637543D01*
X142295377Y-119506627D01*
X142201128Y-119397857D01*
X142080053Y-119320047D01*
X142080051Y-119320046D01*
X142080049Y-119320045D01*
X142080050Y-119320045D01*
X141941963Y-119279500D01*
X141941961Y-119279500D01*
X141798039Y-119279500D01*
X141798036Y-119279500D01*
X141659949Y-119320045D01*
X141538873Y-119397856D01*
X141444623Y-119506626D01*
X141444622Y-119506628D01*
X141384834Y-119637543D01*
X141364353Y-119780000D01*
X125117693Y-119780000D01*
X125084775Y-119742011D01*
X125074831Y-119672853D01*
X125103856Y-119609297D01*
X125152775Y-119574874D01*
X125207168Y-119553801D01*
X125207181Y-119553795D01*
X125323326Y-119481879D01*
X124799410Y-118957962D01*
X124862993Y-118940925D01*
X124977007Y-118875099D01*
X125070099Y-118782007D01*
X125135925Y-118667993D01*
X125152962Y-118604409D01*
X125678861Y-119130308D01*
X125694631Y-119109425D01*
X125694633Y-119109422D01*
X125714263Y-119070000D01*
X149474353Y-119070000D01*
X149494834Y-119212456D01*
X149548744Y-119330500D01*
X149554623Y-119343373D01*
X149648872Y-119452143D01*
X149769947Y-119529953D01*
X149769950Y-119529954D01*
X149769949Y-119529954D01*
X149908036Y-119570499D01*
X149908038Y-119570500D01*
X149908039Y-119570500D01*
X150051962Y-119570500D01*
X150051962Y-119570499D01*
X150190053Y-119529953D01*
X150311128Y-119452143D01*
X150405377Y-119343373D01*
X150465165Y-119212457D01*
X150485647Y-119070000D01*
X150465165Y-118927543D01*
X150420618Y-118830000D01*
X153684353Y-118830000D01*
X153704834Y-118972456D01*
X153705996Y-118975000D01*
X153764623Y-119103373D01*
X153858872Y-119212143D01*
X153979947Y-119289953D01*
X153979950Y-119289954D01*
X153979949Y-119289954D01*
X154118036Y-119330499D01*
X154118038Y-119330500D01*
X154118039Y-119330500D01*
X154261962Y-119330500D01*
X154261962Y-119330499D01*
X154400053Y-119289953D01*
X154521128Y-119212143D01*
X154615377Y-119103373D01*
X154675165Y-118972457D01*
X154695647Y-118830000D01*
X154675165Y-118687543D01*
X154615377Y-118556627D01*
X154521128Y-118447857D01*
X154400053Y-118370047D01*
X154400051Y-118370046D01*
X154400049Y-118370045D01*
X154400050Y-118370045D01*
X154261963Y-118329500D01*
X154261961Y-118329500D01*
X154118039Y-118329500D01*
X154118036Y-118329500D01*
X153979949Y-118370045D01*
X153858873Y-118447856D01*
X153764623Y-118556626D01*
X153764622Y-118556628D01*
X153704834Y-118687543D01*
X153684353Y-118830000D01*
X150420618Y-118830000D01*
X150405377Y-118796627D01*
X150311128Y-118687857D01*
X150190053Y-118610047D01*
X150190051Y-118610046D01*
X150190049Y-118610045D01*
X150190050Y-118610045D01*
X150051963Y-118569500D01*
X150051961Y-118569500D01*
X149908039Y-118569500D01*
X149908036Y-118569500D01*
X149769949Y-118610045D01*
X149648873Y-118687856D01*
X149554623Y-118796626D01*
X149554622Y-118796628D01*
X149494834Y-118927543D01*
X149474353Y-119070000D01*
X125714263Y-119070000D01*
X125793759Y-118910350D01*
X125854621Y-118696439D01*
X125875141Y-118475000D01*
X125875141Y-118474999D01*
X125854621Y-118253560D01*
X125793759Y-118039649D01*
X125694635Y-117840580D01*
X125694630Y-117840572D01*
X125678860Y-117819690D01*
X125152962Y-118345589D01*
X125135925Y-118282007D01*
X125070099Y-118167993D01*
X124977007Y-118074901D01*
X124862993Y-118009075D01*
X124799409Y-117992037D01*
X125323327Y-117468119D01*
X125207178Y-117396202D01*
X125207177Y-117396201D01*
X124999804Y-117315865D01*
X124781193Y-117275000D01*
X124558807Y-117275000D01*
X124340195Y-117315865D01*
X124132824Y-117396200D01*
X124132823Y-117396201D01*
X124016671Y-117468119D01*
X124540590Y-117992037D01*
X124477007Y-118009075D01*
X124362993Y-118074901D01*
X124269901Y-118167993D01*
X124204075Y-118282007D01*
X124187037Y-118345590D01*
X123661138Y-117819691D01*
X123661137Y-117819691D01*
X123645368Y-117840574D01*
X123546240Y-118039649D01*
X123485378Y-118253560D01*
X123464859Y-118474999D01*
X118990500Y-118474999D01*
X118990500Y-114300000D01*
X138514353Y-114300000D01*
X138534834Y-114442456D01*
X138579286Y-114539790D01*
X138594623Y-114573373D01*
X138688872Y-114682143D01*
X138809947Y-114759953D01*
X138809950Y-114759954D01*
X138809949Y-114759954D01*
X138948036Y-114800499D01*
X138948038Y-114800500D01*
X138948039Y-114800500D01*
X139091962Y-114800500D01*
X139091962Y-114800499D01*
X139230053Y-114759953D01*
X139351128Y-114682143D01*
X139445377Y-114573373D01*
X139505165Y-114442457D01*
X139525647Y-114300000D01*
X139505165Y-114157543D01*
X139445377Y-114026627D01*
X139351128Y-113917857D01*
X139230053Y-113840047D01*
X139230051Y-113840046D01*
X139230049Y-113840045D01*
X139230050Y-113840045D01*
X139091963Y-113799500D01*
X139091961Y-113799500D01*
X138948039Y-113799500D01*
X138948036Y-113799500D01*
X138809949Y-113840045D01*
X138688873Y-113917856D01*
X138594623Y-114026626D01*
X138594622Y-114026628D01*
X138534834Y-114157543D01*
X138514353Y-114300000D01*
X118990500Y-114300000D01*
X118990500Y-112450000D01*
X127124353Y-112450000D01*
X127144834Y-112592456D01*
X127204622Y-112723371D01*
X127204623Y-112723373D01*
X127298872Y-112832143D01*
X127419947Y-112909953D01*
X127419950Y-112909954D01*
X127419949Y-112909954D01*
X127558036Y-112950499D01*
X127558038Y-112950500D01*
X127558039Y-112950500D01*
X127701962Y-112950500D01*
X127701962Y-112950499D01*
X127809121Y-112919035D01*
X127840050Y-112909954D01*
X127840050Y-112909953D01*
X127840053Y-112909953D01*
X127902221Y-112870000D01*
X139704353Y-112870000D01*
X139724834Y-113012456D01*
X139754734Y-113077927D01*
X139784623Y-113143373D01*
X139878872Y-113252143D01*
X139999947Y-113329953D01*
X139999950Y-113329954D01*
X139999949Y-113329954D01*
X140138036Y-113370499D01*
X140138038Y-113370500D01*
X140138039Y-113370500D01*
X140281962Y-113370500D01*
X140281962Y-113370499D01*
X140420053Y-113329953D01*
X140541128Y-113252143D01*
X140635377Y-113143373D01*
X140695165Y-113012457D01*
X140715647Y-112870000D01*
X140695165Y-112727543D01*
X140641484Y-112610000D01*
X145384355Y-112610000D01*
X145404859Y-112778869D01*
X145404860Y-112778874D01*
X145465182Y-112937931D01*
X145561818Y-113077930D01*
X145645634Y-113152185D01*
X145682761Y-113211374D01*
X145681993Y-113281240D01*
X145645634Y-113337815D01*
X145561818Y-113412069D01*
X145465182Y-113552068D01*
X145404860Y-113711125D01*
X145404859Y-113711130D01*
X145384355Y-113880000D01*
X145404859Y-114048869D01*
X145404860Y-114048874D01*
X145465182Y-114207931D01*
X145561818Y-114347930D01*
X145645634Y-114422185D01*
X145682761Y-114481374D01*
X145681993Y-114551240D01*
X145645634Y-114607815D01*
X145561818Y-114682069D01*
X145465182Y-114822068D01*
X145404860Y-114981125D01*
X145404859Y-114981130D01*
X145384355Y-115150000D01*
X145404859Y-115318869D01*
X145404860Y-115318874D01*
X145465182Y-115477931D01*
X145561818Y-115617930D01*
X145645634Y-115692185D01*
X145682761Y-115751374D01*
X145681993Y-115821240D01*
X145645634Y-115877815D01*
X145561818Y-115952069D01*
X145465182Y-116092068D01*
X145404860Y-116251125D01*
X145404859Y-116251130D01*
X145384355Y-116420000D01*
X145404859Y-116588869D01*
X145404860Y-116588874D01*
X145465182Y-116747931D01*
X145561818Y-116887930D01*
X145645634Y-116962185D01*
X145682761Y-117021374D01*
X145681993Y-117091240D01*
X145645634Y-117147815D01*
X145561818Y-117222069D01*
X145465182Y-117362068D01*
X145404860Y-117521125D01*
X145404859Y-117521130D01*
X145384355Y-117690000D01*
X145404859Y-117858869D01*
X145404860Y-117858874D01*
X145465182Y-118017931D01*
X145520500Y-118098071D01*
X145561817Y-118157929D01*
X145647678Y-118233995D01*
X145689150Y-118270736D01*
X145839773Y-118349789D01*
X145839775Y-118349790D01*
X146004944Y-118390500D01*
X146175056Y-118390500D01*
X146340225Y-118349790D01*
X146458641Y-118287640D01*
X146490849Y-118270736D01*
X146490850Y-118270734D01*
X146490852Y-118270734D01*
X146498771Y-118263717D01*
X146562001Y-118233995D01*
X146631265Y-118243175D01*
X146684102Y-118287640D01*
X146715447Y-118334552D01*
X146781769Y-118378867D01*
X146781770Y-118378868D01*
X146840247Y-118390499D01*
X146840250Y-118390500D01*
X146840252Y-118390500D01*
X147879750Y-118390500D01*
X147879751Y-118390499D01*
X147894568Y-118387552D01*
X147938229Y-118378868D01*
X147938229Y-118378867D01*
X147938231Y-118378867D01*
X148004552Y-118334552D01*
X148048867Y-118268231D01*
X148048867Y-118268229D01*
X148048868Y-118268229D01*
X148060499Y-118209752D01*
X148060500Y-118209750D01*
X148060500Y-117170249D01*
X148060499Y-117170247D01*
X148048868Y-117111770D01*
X148048867Y-117111769D01*
X148004551Y-117045446D01*
X147954758Y-117012175D01*
X147909954Y-116958563D01*
X147901247Y-116889238D01*
X147921600Y-116838634D01*
X147984369Y-116747697D01*
X148013837Y-116670000D01*
X147569618Y-116670000D01*
X147620064Y-116619554D01*
X147662851Y-116545445D01*
X147685000Y-116462787D01*
X147685000Y-116377213D01*
X147662851Y-116294555D01*
X147620064Y-116220446D01*
X147569618Y-116170000D01*
X147610000Y-116170000D01*
X148013836Y-116170000D01*
X147984369Y-116092302D01*
X147887807Y-115952406D01*
X147887806Y-115952405D01*
X147803611Y-115877816D01*
X147766484Y-115818626D01*
X147767252Y-115748761D01*
X147803611Y-115692184D01*
X147887806Y-115617594D01*
X147887807Y-115617593D01*
X147984369Y-115477697D01*
X148013837Y-115400000D01*
X147610000Y-115400000D01*
X147610000Y-116170000D01*
X147569618Y-116170000D01*
X147559554Y-116159936D01*
X147485445Y-116117149D01*
X147402787Y-116095000D01*
X147317213Y-116095000D01*
X147234555Y-116117149D01*
X147160446Y-116159936D01*
X147110000Y-116210382D01*
X147110000Y-115359618D01*
X147160446Y-115410064D01*
X147234555Y-115452851D01*
X147317213Y-115475000D01*
X147402787Y-115475000D01*
X147485445Y-115452851D01*
X147559554Y-115410064D01*
X147609618Y-115360000D01*
X153264353Y-115360000D01*
X153284834Y-115502456D01*
X153337416Y-115617593D01*
X153344623Y-115633373D01*
X153438872Y-115742143D01*
X153559947Y-115819953D01*
X153559950Y-115819954D01*
X153559949Y-115819954D01*
X153698036Y-115860499D01*
X153698038Y-115860500D01*
X153698039Y-115860500D01*
X153841962Y-115860500D01*
X153841962Y-115860499D01*
X153980053Y-115819953D01*
X154101128Y-115742143D01*
X154195377Y-115633373D01*
X154255165Y-115502457D01*
X154275647Y-115360000D01*
X154274209Y-115350000D01*
X158734353Y-115350000D01*
X158754834Y-115492456D01*
X158811983Y-115617593D01*
X158814623Y-115623373D01*
X158908872Y-115732143D01*
X159029947Y-115809953D01*
X159029950Y-115809954D01*
X159029949Y-115809954D01*
X159168036Y-115850499D01*
X159168038Y-115850500D01*
X159168039Y-115850500D01*
X159311962Y-115850500D01*
X159311962Y-115850499D01*
X159450053Y-115809953D01*
X159571128Y-115732143D01*
X159665377Y-115623373D01*
X159725165Y-115492457D01*
X159745647Y-115350000D01*
X159725165Y-115207543D01*
X159665377Y-115076627D01*
X159571128Y-114967857D01*
X159450053Y-114890047D01*
X159450051Y-114890046D01*
X159450049Y-114890045D01*
X159450050Y-114890045D01*
X159311963Y-114849500D01*
X159311961Y-114849500D01*
X159168039Y-114849500D01*
X159168036Y-114849500D01*
X159029949Y-114890045D01*
X158908873Y-114967856D01*
X158814623Y-115076626D01*
X158814622Y-115076628D01*
X158754834Y-115207543D01*
X158734353Y-115350000D01*
X154274209Y-115350000D01*
X154255165Y-115217543D01*
X154195377Y-115086627D01*
X154101128Y-114977857D01*
X153980053Y-114900047D01*
X153980051Y-114900046D01*
X153980049Y-114900045D01*
X153980050Y-114900045D01*
X153841963Y-114859500D01*
X153841961Y-114859500D01*
X153698039Y-114859500D01*
X153698036Y-114859500D01*
X153559949Y-114900045D01*
X153438873Y-114977856D01*
X153344623Y-115086626D01*
X153344622Y-115086628D01*
X153284834Y-115217543D01*
X153264353Y-115360000D01*
X147609618Y-115360000D01*
X147620064Y-115349554D01*
X147662851Y-115275445D01*
X147685000Y-115192787D01*
X147685000Y-115107213D01*
X147662851Y-115024555D01*
X147620064Y-114950446D01*
X147569618Y-114900000D01*
X148013836Y-114900000D01*
X147984369Y-114822302D01*
X147887807Y-114682406D01*
X147887801Y-114682400D01*
X147803988Y-114608148D01*
X147766861Y-114548959D01*
X147767629Y-114479093D01*
X147803987Y-114422519D01*
X147888183Y-114347929D01*
X147984818Y-114207930D01*
X148045140Y-114048872D01*
X148065645Y-113880000D01*
X148045140Y-113711128D01*
X147984818Y-113552070D01*
X147888183Y-113412071D01*
X147804363Y-113337813D01*
X147767238Y-113278626D01*
X147768006Y-113208761D01*
X147804363Y-113152186D01*
X147888183Y-113077929D01*
X147984818Y-112937930D01*
X148045140Y-112778872D01*
X148065645Y-112610000D01*
X148045140Y-112441128D01*
X147984818Y-112282070D01*
X147888183Y-112142071D01*
X147760852Y-112029266D01*
X147760849Y-112029263D01*
X147610226Y-111950210D01*
X147445056Y-111909500D01*
X147274944Y-111909500D01*
X147109773Y-111950210D01*
X146959150Y-112029263D01*
X146831815Y-112142072D01*
X146827049Y-112148978D01*
X146772766Y-112192968D01*
X146703317Y-112200627D01*
X146640753Y-112169523D01*
X146622951Y-112148978D01*
X146618184Y-112142072D01*
X146490849Y-112029263D01*
X146340226Y-111950210D01*
X146175056Y-111909500D01*
X146004944Y-111909500D01*
X145839773Y-111950210D01*
X145689150Y-112029263D01*
X145561816Y-112142072D01*
X145465182Y-112282068D01*
X145404860Y-112441125D01*
X145404859Y-112441130D01*
X145384355Y-112610000D01*
X140641484Y-112610000D01*
X140635377Y-112596627D01*
X140541128Y-112487857D01*
X140420053Y-112410047D01*
X140420051Y-112410046D01*
X140420049Y-112410045D01*
X140420050Y-112410045D01*
X140281963Y-112369500D01*
X140281961Y-112369500D01*
X140138039Y-112369500D01*
X140138036Y-112369500D01*
X139999949Y-112410045D01*
X139878873Y-112487856D01*
X139784623Y-112596626D01*
X139784622Y-112596628D01*
X139724834Y-112727543D01*
X139704353Y-112870000D01*
X127902221Y-112870000D01*
X127961128Y-112832143D01*
X128055377Y-112723373D01*
X128115165Y-112592457D01*
X128135647Y-112450000D01*
X128115165Y-112307543D01*
X128055377Y-112176627D01*
X127961128Y-112067857D01*
X127840053Y-111990047D01*
X127840051Y-111990046D01*
X127840049Y-111990045D01*
X127840050Y-111990045D01*
X127701963Y-111949500D01*
X127701961Y-111949500D01*
X127558039Y-111949500D01*
X127558036Y-111949500D01*
X127419949Y-111990045D01*
X127298873Y-112067856D01*
X127204623Y-112176626D01*
X127204622Y-112176628D01*
X127144834Y-112307543D01*
X127124353Y-112450000D01*
X118990500Y-112450000D01*
X118990500Y-110530000D01*
X148844353Y-110530000D01*
X148864834Y-110672456D01*
X148924622Y-110803371D01*
X148924623Y-110803373D01*
X149018872Y-110912143D01*
X149139947Y-110989953D01*
X149139950Y-110989954D01*
X149139949Y-110989954D01*
X149278036Y-111030499D01*
X149278038Y-111030500D01*
X149278039Y-111030500D01*
X149421962Y-111030500D01*
X149421962Y-111030499D01*
X149560053Y-110989953D01*
X149681128Y-110912143D01*
X149775377Y-110803373D01*
X149835165Y-110672457D01*
X149855647Y-110530000D01*
X149835165Y-110387543D01*
X149775377Y-110256627D01*
X149681128Y-110147857D01*
X149560053Y-110070047D01*
X149560051Y-110070046D01*
X149560049Y-110070045D01*
X149560050Y-110070045D01*
X149421963Y-110029500D01*
X149421961Y-110029500D01*
X149278039Y-110029500D01*
X149278036Y-110029500D01*
X149139949Y-110070045D01*
X149018873Y-110147856D01*
X148924623Y-110256626D01*
X148924622Y-110256628D01*
X148864834Y-110387543D01*
X148844353Y-110530000D01*
X118990500Y-110530000D01*
X118990500Y-108960000D01*
X159414353Y-108960000D01*
X159434834Y-109102456D01*
X159494622Y-109233371D01*
X159494623Y-109233373D01*
X159588872Y-109342143D01*
X159709947Y-109419953D01*
X159709950Y-109419954D01*
X159709949Y-109419954D01*
X159848036Y-109460499D01*
X159848038Y-109460500D01*
X159848039Y-109460500D01*
X159991962Y-109460500D01*
X159991962Y-109460499D01*
X160130053Y-109419953D01*
X160251128Y-109342143D01*
X160345377Y-109233373D01*
X160405165Y-109102457D01*
X160425647Y-108960000D01*
X160405165Y-108817543D01*
X160345377Y-108686627D01*
X160251128Y-108577857D01*
X160130053Y-108500047D01*
X160130051Y-108500046D01*
X160130049Y-108500045D01*
X160130050Y-108500045D01*
X159991963Y-108459500D01*
X159991961Y-108459500D01*
X159848039Y-108459500D01*
X159848036Y-108459500D01*
X159709949Y-108500045D01*
X159588873Y-108577856D01*
X159494623Y-108686626D01*
X159494622Y-108686628D01*
X159434834Y-108817543D01*
X159414353Y-108960000D01*
X118990500Y-108960000D01*
X118990500Y-107790000D01*
X121704353Y-107790000D01*
X121724834Y-107932456D01*
X121784622Y-108063371D01*
X121784623Y-108063373D01*
X121878872Y-108172143D01*
X121999947Y-108249953D01*
X121999950Y-108249954D01*
X121999949Y-108249954D01*
X122138036Y-108290499D01*
X122138038Y-108290500D01*
X122138039Y-108290500D01*
X122281962Y-108290500D01*
X122281962Y-108290499D01*
X122420053Y-108249953D01*
X122541128Y-108172143D01*
X122635377Y-108063373D01*
X122695165Y-107932457D01*
X122715647Y-107790000D01*
X122695165Y-107647543D01*
X122635377Y-107516627D01*
X122541128Y-107407857D01*
X122420053Y-107330047D01*
X122420051Y-107330046D01*
X122420049Y-107330045D01*
X122420050Y-107330045D01*
X122281963Y-107289500D01*
X122281961Y-107289500D01*
X122138039Y-107289500D01*
X122138036Y-107289500D01*
X121999949Y-107330045D01*
X121878873Y-107407856D01*
X121784623Y-107516626D01*
X121784622Y-107516628D01*
X121724834Y-107647543D01*
X121704353Y-107790000D01*
X118990500Y-107790000D01*
X118990500Y-105850000D01*
X121624353Y-105850000D01*
X121644834Y-105992456D01*
X121704622Y-106123371D01*
X121704623Y-106123373D01*
X121798872Y-106232143D01*
X121919947Y-106309953D01*
X121919950Y-106309954D01*
X121919949Y-106309954D01*
X122058036Y-106350499D01*
X122058038Y-106350500D01*
X122058039Y-106350500D01*
X122201962Y-106350500D01*
X122201962Y-106350499D01*
X122340053Y-106309953D01*
X122461128Y-106232143D01*
X122555377Y-106123373D01*
X122615165Y-105992457D01*
X122635647Y-105850000D01*
X122615165Y-105707543D01*
X122555377Y-105576627D01*
X122461128Y-105467857D01*
X122340053Y-105390047D01*
X122340051Y-105390046D01*
X122340049Y-105390045D01*
X122340050Y-105390045D01*
X122201963Y-105349500D01*
X122201961Y-105349500D01*
X122058039Y-105349500D01*
X122058036Y-105349500D01*
X121919949Y-105390045D01*
X121798873Y-105467856D01*
X121704623Y-105576626D01*
X121704622Y-105576628D01*
X121644834Y-105707543D01*
X121624353Y-105850000D01*
X118990500Y-105850000D01*
X118990500Y-104120000D01*
X121884353Y-104120000D01*
X121904834Y-104262456D01*
X121964622Y-104393371D01*
X121964623Y-104393373D01*
X122058872Y-104502143D01*
X122179947Y-104579953D01*
X122179950Y-104579954D01*
X122179949Y-104579954D01*
X122318036Y-104620499D01*
X122318038Y-104620500D01*
X122318039Y-104620500D01*
X122461962Y-104620500D01*
X122461962Y-104620499D01*
X122600053Y-104579953D01*
X122721128Y-104502143D01*
X122815377Y-104393373D01*
X122875165Y-104262457D01*
X122895647Y-104120000D01*
X122875165Y-103977543D01*
X122815377Y-103846627D01*
X122721128Y-103737857D01*
X122600053Y-103660047D01*
X122600051Y-103660046D01*
X122600049Y-103660045D01*
X122600050Y-103660045D01*
X122461963Y-103619500D01*
X122461961Y-103619500D01*
X122318039Y-103619500D01*
X122318036Y-103619500D01*
X122179949Y-103660045D01*
X122058873Y-103737856D01*
X121964623Y-103846626D01*
X121964622Y-103846628D01*
X121904834Y-103977543D01*
X121884353Y-104120000D01*
X118990500Y-104120000D01*
X118990500Y-102760000D01*
X121924353Y-102760000D01*
X121944834Y-102902456D01*
X122004622Y-103033371D01*
X122004623Y-103033373D01*
X122098872Y-103142143D01*
X122219947Y-103219953D01*
X122219950Y-103219954D01*
X122219949Y-103219954D01*
X122358036Y-103260499D01*
X122358038Y-103260500D01*
X122358039Y-103260500D01*
X122501962Y-103260500D01*
X122501962Y-103260499D01*
X122640053Y-103219953D01*
X122761128Y-103142143D01*
X122855377Y-103033373D01*
X122915165Y-102902457D01*
X122935647Y-102760000D01*
X122915165Y-102617543D01*
X122855377Y-102486627D01*
X122761128Y-102377857D01*
X122640053Y-102300047D01*
X122640051Y-102300046D01*
X122640049Y-102300045D01*
X122640050Y-102300045D01*
X122501963Y-102259500D01*
X122501961Y-102259500D01*
X122358039Y-102259500D01*
X122358036Y-102259500D01*
X122219949Y-102300045D01*
X122098873Y-102377856D01*
X122004623Y-102486626D01*
X122004622Y-102486628D01*
X121944834Y-102617543D01*
X121924353Y-102760000D01*
X118990500Y-102760000D01*
X118990500Y-101780000D01*
X135034353Y-101780000D01*
X135054834Y-101922456D01*
X135114622Y-102053371D01*
X135114623Y-102053373D01*
X135208872Y-102162143D01*
X135329947Y-102239953D01*
X135329950Y-102239954D01*
X135329949Y-102239954D01*
X135468036Y-102280499D01*
X135468038Y-102280500D01*
X135468039Y-102280500D01*
X135611962Y-102280500D01*
X135611962Y-102280499D01*
X135750053Y-102239953D01*
X135871128Y-102162143D01*
X135965377Y-102053373D01*
X136025165Y-101922457D01*
X136045647Y-101780000D01*
X136025165Y-101637543D01*
X135965377Y-101506627D01*
X135948107Y-101486696D01*
X145205378Y-101486696D01*
X145225859Y-101629152D01*
X145285647Y-101760067D01*
X145285648Y-101760069D01*
X145379897Y-101868839D01*
X145500972Y-101946649D01*
X145500975Y-101946650D01*
X145500974Y-101946650D01*
X145639061Y-101987195D01*
X145639063Y-101987196D01*
X145639064Y-101987196D01*
X145782987Y-101987196D01*
X145782987Y-101987195D01*
X145921078Y-101946649D01*
X146042153Y-101868839D01*
X146136402Y-101760069D01*
X146196190Y-101629153D01*
X146216672Y-101486696D01*
X146196190Y-101344239D01*
X146136402Y-101213323D01*
X146042153Y-101104553D01*
X145921078Y-101026743D01*
X145921076Y-101026742D01*
X145921074Y-101026741D01*
X145921075Y-101026741D01*
X145782988Y-100986196D01*
X145782986Y-100986196D01*
X145639064Y-100986196D01*
X145639061Y-100986196D01*
X145500974Y-101026741D01*
X145379898Y-101104552D01*
X145285648Y-101213322D01*
X145285647Y-101213324D01*
X145225859Y-101344239D01*
X145205378Y-101486696D01*
X135948107Y-101486696D01*
X135871128Y-101397857D01*
X135750053Y-101320047D01*
X135750051Y-101320046D01*
X135750049Y-101320045D01*
X135750050Y-101320045D01*
X135611963Y-101279500D01*
X135611961Y-101279500D01*
X135468039Y-101279500D01*
X135468036Y-101279500D01*
X135329949Y-101320045D01*
X135208873Y-101397856D01*
X135114623Y-101506626D01*
X135114622Y-101506628D01*
X135054834Y-101637543D01*
X135034353Y-101780000D01*
X118990500Y-101780000D01*
X118990500Y-100720000D01*
X146376853Y-100720000D01*
X146397334Y-100862456D01*
X146453845Y-100986196D01*
X146457123Y-100993373D01*
X146551372Y-101102143D01*
X146672447Y-101179953D01*
X146672450Y-101179954D01*
X146672449Y-101179954D01*
X146810536Y-101220499D01*
X146810538Y-101220500D01*
X146810539Y-101220500D01*
X146954462Y-101220500D01*
X146954462Y-101220499D01*
X147092553Y-101179953D01*
X147213628Y-101102143D01*
X147307877Y-100993373D01*
X147367665Y-100862457D01*
X147388147Y-100720000D01*
X147367665Y-100577543D01*
X147307877Y-100446627D01*
X147213628Y-100337857D01*
X147092553Y-100260047D01*
X147092551Y-100260046D01*
X147092549Y-100260045D01*
X147092550Y-100260045D01*
X146954463Y-100219500D01*
X146954461Y-100219500D01*
X146810539Y-100219500D01*
X146810536Y-100219500D01*
X146672449Y-100260045D01*
X146551373Y-100337856D01*
X146457123Y-100446626D01*
X146457122Y-100446628D01*
X146397334Y-100577543D01*
X146376853Y-100720000D01*
X118990500Y-100720000D01*
X118990500Y-97110000D01*
X137144353Y-97110000D01*
X137164834Y-97252456D01*
X137191114Y-97310000D01*
X137224623Y-97383373D01*
X137318872Y-97492143D01*
X137439947Y-97569953D01*
X137439950Y-97569954D01*
X137439949Y-97569954D01*
X137578036Y-97610499D01*
X137578038Y-97610500D01*
X137578039Y-97610500D01*
X137721962Y-97610500D01*
X137721962Y-97610499D01*
X137860053Y-97569953D01*
X137981128Y-97492143D01*
X138075377Y-97383373D01*
X138108886Y-97310000D01*
X142414353Y-97310000D01*
X142434834Y-97452456D01*
X142452959Y-97492143D01*
X142494623Y-97583373D01*
X142588872Y-97692143D01*
X142709947Y-97769953D01*
X142709950Y-97769954D01*
X142709949Y-97769954D01*
X142848036Y-97810499D01*
X142848038Y-97810500D01*
X142848039Y-97810500D01*
X142991962Y-97810500D01*
X142991962Y-97810499D01*
X143130053Y-97769953D01*
X143251128Y-97692143D01*
X143345377Y-97583373D01*
X143405165Y-97452457D01*
X143425647Y-97310000D01*
X143405165Y-97167543D01*
X143345377Y-97036627D01*
X143251128Y-96927857D01*
X143130053Y-96850047D01*
X143130051Y-96850046D01*
X143130049Y-96850045D01*
X143130050Y-96850045D01*
X142991963Y-96809500D01*
X142991961Y-96809500D01*
X142848039Y-96809500D01*
X142848036Y-96809500D01*
X142709949Y-96850045D01*
X142588873Y-96927856D01*
X142494623Y-97036626D01*
X142494622Y-97036628D01*
X142434834Y-97167543D01*
X142414353Y-97310000D01*
X138108886Y-97310000D01*
X138135165Y-97252457D01*
X138155647Y-97110000D01*
X138135165Y-96967543D01*
X138075377Y-96836627D01*
X137981128Y-96727857D01*
X137860053Y-96650047D01*
X137860051Y-96650046D01*
X137860049Y-96650045D01*
X137860050Y-96650045D01*
X137721963Y-96609500D01*
X137721961Y-96609500D01*
X137578039Y-96609500D01*
X137578036Y-96609500D01*
X137439949Y-96650045D01*
X137318873Y-96727856D01*
X137224623Y-96836626D01*
X137224622Y-96836628D01*
X137164834Y-96967543D01*
X137144353Y-97110000D01*
X118990500Y-97110000D01*
X118990500Y-93260000D01*
X139614353Y-93260000D01*
X139634834Y-93402456D01*
X139683949Y-93510000D01*
X139694623Y-93533373D01*
X139788872Y-93642143D01*
X139909947Y-93719953D01*
X139909950Y-93719954D01*
X139909949Y-93719954D01*
X140048036Y-93760499D01*
X140048038Y-93760500D01*
X140048039Y-93760500D01*
X140191962Y-93760500D01*
X140191962Y-93760499D01*
X140330053Y-93719953D01*
X140451128Y-93642143D01*
X140545377Y-93533373D01*
X140556051Y-93510000D01*
X147454353Y-93510000D01*
X147474834Y-93652456D01*
X147505660Y-93719954D01*
X147534623Y-93783373D01*
X147628872Y-93892143D01*
X147749947Y-93969953D01*
X147749950Y-93969954D01*
X147749949Y-93969954D01*
X147888036Y-94010499D01*
X147888038Y-94010500D01*
X147888039Y-94010500D01*
X148031962Y-94010500D01*
X148031962Y-94010499D01*
X148170053Y-93969953D01*
X148291128Y-93892143D01*
X148385377Y-93783373D01*
X148445165Y-93652457D01*
X148446956Y-93639998D01*
X157304532Y-93639998D01*
X157304532Y-93640001D01*
X157324364Y-93866686D01*
X157324366Y-93866697D01*
X157383258Y-94086488D01*
X157383261Y-94086497D01*
X157479431Y-94292732D01*
X157479432Y-94292734D01*
X157609954Y-94479141D01*
X157770858Y-94640045D01*
X157770861Y-94640047D01*
X157957266Y-94770568D01*
X158163504Y-94866739D01*
X158383308Y-94925635D01*
X158545230Y-94939801D01*
X158609998Y-94945468D01*
X158610000Y-94945468D01*
X158610002Y-94945468D01*
X158666673Y-94940509D01*
X158836692Y-94925635D01*
X159056496Y-94866739D01*
X159262734Y-94770568D01*
X159449139Y-94640047D01*
X159610047Y-94479139D01*
X159740568Y-94292734D01*
X159836739Y-94086496D01*
X159895635Y-93866692D01*
X159915468Y-93640000D01*
X159895635Y-93413308D01*
X159836739Y-93193504D01*
X159740568Y-92987266D01*
X159610047Y-92800861D01*
X159610045Y-92800858D01*
X159449141Y-92639954D01*
X159262735Y-92509433D01*
X159262736Y-92509433D01*
X159262734Y-92509432D01*
X159204132Y-92482105D01*
X159151694Y-92435933D01*
X159132543Y-92368739D01*
X159152759Y-92301858D01*
X159204135Y-92257341D01*
X159262482Y-92230133D01*
X159335471Y-92179024D01*
X158727162Y-91570715D01*
X158797203Y-91551948D01*
X158907797Y-91488097D01*
X158998097Y-91397797D01*
X159061948Y-91287203D01*
X159080715Y-91217162D01*
X159689024Y-91825471D01*
X159740136Y-91752478D01*
X159836264Y-91546331D01*
X159836269Y-91546317D01*
X159895139Y-91326610D01*
X159895141Y-91326599D01*
X159914966Y-91100002D01*
X159914966Y-91099997D01*
X159895141Y-90873400D01*
X159895139Y-90873389D01*
X159836269Y-90653682D01*
X159836264Y-90653668D01*
X159740136Y-90447521D01*
X159740132Y-90447513D01*
X159689025Y-90374526D01*
X159080715Y-90982836D01*
X159061948Y-90912797D01*
X158998097Y-90802203D01*
X158907797Y-90711903D01*
X158797203Y-90648052D01*
X158727162Y-90629284D01*
X159335472Y-90020974D01*
X159262478Y-89969863D01*
X159056331Y-89873735D01*
X159056317Y-89873730D01*
X158836610Y-89814860D01*
X158836599Y-89814858D01*
X158610002Y-89795034D01*
X158609998Y-89795034D01*
X158383400Y-89814858D01*
X158383389Y-89814860D01*
X158163682Y-89873730D01*
X158163673Y-89873734D01*
X157957516Y-89969866D01*
X157957512Y-89969868D01*
X157884526Y-90020973D01*
X157884526Y-90020974D01*
X158492837Y-90629284D01*
X158422797Y-90648052D01*
X158312203Y-90711903D01*
X158221903Y-90802203D01*
X158158052Y-90912797D01*
X158139284Y-90982836D01*
X157530974Y-90374526D01*
X157530973Y-90374526D01*
X157479868Y-90447512D01*
X157479866Y-90447516D01*
X157383734Y-90653673D01*
X157383730Y-90653682D01*
X157324860Y-90873389D01*
X157324858Y-90873400D01*
X157305034Y-91099997D01*
X157305034Y-91100002D01*
X157324858Y-91326599D01*
X157324860Y-91326610D01*
X157383730Y-91546317D01*
X157383735Y-91546331D01*
X157479863Y-91752478D01*
X157530974Y-91825472D01*
X158139284Y-91217162D01*
X158158052Y-91287203D01*
X158221903Y-91397797D01*
X158312203Y-91488097D01*
X158422797Y-91551948D01*
X158492837Y-91570715D01*
X157884526Y-92179025D01*
X157957513Y-92230132D01*
X157957521Y-92230136D01*
X158015864Y-92257342D01*
X158068304Y-92303514D01*
X158087456Y-92370707D01*
X158067241Y-92437589D01*
X158015866Y-92482105D01*
X157957272Y-92509428D01*
X157957265Y-92509432D01*
X157770858Y-92639954D01*
X157609954Y-92800858D01*
X157479432Y-92987265D01*
X157479431Y-92987267D01*
X157383261Y-93193502D01*
X157383258Y-93193511D01*
X157324366Y-93413302D01*
X157324364Y-93413313D01*
X157304532Y-93639998D01*
X148446956Y-93639998D01*
X148465647Y-93510000D01*
X148445165Y-93367543D01*
X148385377Y-93236627D01*
X148291128Y-93127857D01*
X148170053Y-93050047D01*
X148170051Y-93050046D01*
X148170049Y-93050045D01*
X148170050Y-93050045D01*
X148031963Y-93009500D01*
X148031961Y-93009500D01*
X147888039Y-93009500D01*
X147888036Y-93009500D01*
X147749949Y-93050045D01*
X147628873Y-93127856D01*
X147534623Y-93236626D01*
X147534622Y-93236628D01*
X147474834Y-93367543D01*
X147454353Y-93510000D01*
X140556051Y-93510000D01*
X140605165Y-93402457D01*
X140625647Y-93260000D01*
X140622454Y-93237791D01*
X144449508Y-93237791D01*
X144449509Y-93237792D01*
X144474051Y-93245000D01*
X144603448Y-93245000D01*
X144603455Y-93244998D01*
X144627990Y-93237793D01*
X144627990Y-93237792D01*
X144627989Y-93237791D01*
X145494508Y-93237791D01*
X145494509Y-93237792D01*
X145519051Y-93245000D01*
X145648448Y-93245000D01*
X145648455Y-93244998D01*
X145672990Y-93237793D01*
X145672990Y-93237792D01*
X145672989Y-93237791D01*
X146549508Y-93237791D01*
X146549509Y-93237792D01*
X146574051Y-93245000D01*
X146703448Y-93245000D01*
X146703455Y-93244998D01*
X146727990Y-93237793D01*
X146727990Y-93237792D01*
X146638751Y-93148553D01*
X146638749Y-93148553D01*
X146549508Y-93237791D01*
X145672989Y-93237791D01*
X145583751Y-93148553D01*
X145583749Y-93148553D01*
X145494508Y-93237791D01*
X144627989Y-93237791D01*
X144538751Y-93148553D01*
X144538749Y-93148553D01*
X144449508Y-93237791D01*
X140622454Y-93237791D01*
X140605165Y-93117543D01*
X140545377Y-92986627D01*
X140451128Y-92877857D01*
X140330053Y-92800047D01*
X140330051Y-92800046D01*
X140330049Y-92800045D01*
X140330050Y-92800045D01*
X140312864Y-92794999D01*
X144084123Y-92794999D01*
X144096827Y-92883366D01*
X144185196Y-92794999D01*
X144165306Y-92775109D01*
X144438750Y-92775109D01*
X144438750Y-92814891D01*
X144453974Y-92851645D01*
X144482105Y-92879776D01*
X144518859Y-92895000D01*
X144558641Y-92895000D01*
X144595395Y-92879776D01*
X144623526Y-92851645D01*
X144638750Y-92814891D01*
X144638750Y-92795000D01*
X144892303Y-92795000D01*
X144892303Y-92795001D01*
X144980670Y-92883368D01*
X145022090Y-92869582D01*
X145091915Y-92867088D01*
X145100410Y-92869582D01*
X145141827Y-92883367D01*
X145230196Y-92794999D01*
X145210306Y-92775109D01*
X145483750Y-92775109D01*
X145483750Y-92814891D01*
X145498974Y-92851645D01*
X145527105Y-92879776D01*
X145563859Y-92895000D01*
X145603641Y-92895000D01*
X145640395Y-92879776D01*
X145668526Y-92851645D01*
X145683750Y-92814891D01*
X145683750Y-92795000D01*
X145937303Y-92795000D01*
X145937303Y-92795001D01*
X146025670Y-92883368D01*
X146072091Y-92867918D01*
X146141916Y-92865424D01*
X146150410Y-92867918D01*
X146196827Y-92883367D01*
X146285196Y-92794999D01*
X146265306Y-92775109D01*
X146538750Y-92775109D01*
X146538750Y-92814891D01*
X146553974Y-92851645D01*
X146582105Y-92879776D01*
X146618859Y-92895000D01*
X146658641Y-92895000D01*
X146695395Y-92879776D01*
X146723526Y-92851645D01*
X146738750Y-92814891D01*
X146738750Y-92795000D01*
X146992303Y-92795000D01*
X146992303Y-92795001D01*
X147080670Y-92883368D01*
X147093376Y-92794999D01*
X147080670Y-92706631D01*
X146992303Y-92795000D01*
X146738750Y-92795000D01*
X146738750Y-92775109D01*
X146723526Y-92738355D01*
X146695395Y-92710224D01*
X146658641Y-92695000D01*
X146618859Y-92695000D01*
X146582105Y-92710224D01*
X146553974Y-92738355D01*
X146538750Y-92775109D01*
X146265306Y-92775109D01*
X146196827Y-92706630D01*
X146150409Y-92722080D01*
X146080584Y-92724574D01*
X146072091Y-92722081D01*
X146025671Y-92706631D01*
X145937303Y-92795000D01*
X145683750Y-92795000D01*
X145683750Y-92775109D01*
X145668526Y-92738355D01*
X145640395Y-92710224D01*
X145603641Y-92695000D01*
X145563859Y-92695000D01*
X145527105Y-92710224D01*
X145498974Y-92738355D01*
X145483750Y-92775109D01*
X145210306Y-92775109D01*
X145141827Y-92706630D01*
X145100408Y-92720416D01*
X145030583Y-92722909D01*
X145022092Y-92720416D01*
X144980671Y-92706630D01*
X144892303Y-92795000D01*
X144638750Y-92795000D01*
X144638750Y-92775109D01*
X144623526Y-92738355D01*
X144595395Y-92710224D01*
X144558641Y-92695000D01*
X144518859Y-92695000D01*
X144482105Y-92710224D01*
X144453974Y-92738355D01*
X144438750Y-92775109D01*
X144165306Y-92775109D01*
X144096828Y-92706631D01*
X144084123Y-92794999D01*
X140312864Y-92794999D01*
X140191963Y-92759500D01*
X140191961Y-92759500D01*
X140048039Y-92759500D01*
X140048036Y-92759500D01*
X139909949Y-92800045D01*
X139788873Y-92877856D01*
X139788872Y-92877856D01*
X139788872Y-92877857D01*
X139784098Y-92883367D01*
X139694623Y-92986626D01*
X139694622Y-92986628D01*
X139634834Y-93117543D01*
X139614353Y-93260000D01*
X118990500Y-93260000D01*
X118990500Y-92670000D01*
X134374353Y-92670000D01*
X134394834Y-92812456D01*
X134454622Y-92943371D01*
X134454623Y-92943373D01*
X134548872Y-93052143D01*
X134669947Y-93129953D01*
X134669950Y-93129954D01*
X134669949Y-93129954D01*
X134808036Y-93170499D01*
X134808038Y-93170500D01*
X134808039Y-93170500D01*
X134951962Y-93170500D01*
X134951962Y-93170499D01*
X135090053Y-93129953D01*
X135211128Y-93052143D01*
X135305377Y-92943373D01*
X135365165Y-92812457D01*
X135385647Y-92670000D01*
X135365165Y-92527543D01*
X135305377Y-92396627D01*
X135266886Y-92352206D01*
X144449508Y-92352206D01*
X144538749Y-92441446D01*
X144627988Y-92352206D01*
X145494508Y-92352206D01*
X145583749Y-92441446D01*
X145672989Y-92352205D01*
X145662336Y-92310463D01*
X145662335Y-92249135D01*
X145677989Y-92187792D01*
X145667988Y-92177791D01*
X146544509Y-92177791D01*
X146561440Y-92244132D01*
X146561439Y-92305462D01*
X146549508Y-92352206D01*
X146638749Y-92441446D01*
X146727989Y-92352206D01*
X146711059Y-92285873D01*
X146711058Y-92224544D01*
X146722989Y-92177792D01*
X146633751Y-92088553D01*
X146633749Y-92088553D01*
X146544509Y-92177791D01*
X145667988Y-92177791D01*
X145588751Y-92098553D01*
X145588749Y-92098553D01*
X145499508Y-92187791D01*
X145510164Y-92229541D01*
X145510163Y-92290871D01*
X145494508Y-92352206D01*
X144627988Y-92352206D01*
X144627989Y-92352205D01*
X144616060Y-92305463D01*
X144616059Y-92244135D01*
X144632989Y-92177792D01*
X144543751Y-92088553D01*
X144543749Y-92088553D01*
X144454508Y-92177792D01*
X144466440Y-92224543D01*
X144466439Y-92285872D01*
X144449508Y-92352206D01*
X135266886Y-92352206D01*
X135211128Y-92287857D01*
X135090053Y-92210047D01*
X135090051Y-92210046D01*
X135090049Y-92210045D01*
X135090050Y-92210045D01*
X134951963Y-92169500D01*
X134951961Y-92169500D01*
X134808039Y-92169500D01*
X134808036Y-92169500D01*
X134669949Y-92210045D01*
X134548873Y-92287856D01*
X134454623Y-92396626D01*
X134454622Y-92396628D01*
X134394834Y-92527543D01*
X134374353Y-92670000D01*
X118990500Y-92670000D01*
X118990500Y-91710000D01*
X141594353Y-91710000D01*
X141614834Y-91852456D01*
X141674622Y-91983371D01*
X141674623Y-91983373D01*
X141768872Y-92092143D01*
X141889947Y-92169953D01*
X141889950Y-92169954D01*
X141889949Y-92169954D01*
X141997107Y-92201417D01*
X142026496Y-92210047D01*
X142028036Y-92210499D01*
X142028038Y-92210500D01*
X142028039Y-92210500D01*
X142171962Y-92210500D01*
X142171962Y-92210499D01*
X142310053Y-92169953D01*
X142431128Y-92092143D01*
X142525377Y-91983373D01*
X142585165Y-91852457D01*
X142602053Y-91734999D01*
X144089123Y-91734999D01*
X144101827Y-91823366D01*
X144190196Y-91734999D01*
X144170306Y-91715109D01*
X144443750Y-91715109D01*
X144443750Y-91754891D01*
X144458974Y-91791645D01*
X144487105Y-91819776D01*
X144523859Y-91835000D01*
X144563641Y-91835000D01*
X144600395Y-91819776D01*
X144628526Y-91791645D01*
X144643750Y-91754891D01*
X144643750Y-91735000D01*
X144897303Y-91735000D01*
X144897303Y-91735001D01*
X144985669Y-91823367D01*
X145012067Y-91814582D01*
X145081892Y-91812088D01*
X145090387Y-91814582D01*
X145146827Y-91833367D01*
X145235196Y-91744999D01*
X145215306Y-91725109D01*
X145488750Y-91725109D01*
X145488750Y-91764891D01*
X145503974Y-91801645D01*
X145532105Y-91829776D01*
X145568859Y-91845000D01*
X145608641Y-91845000D01*
X145645395Y-91829776D01*
X145673526Y-91801645D01*
X145688750Y-91764891D01*
X145688750Y-91745000D01*
X145942303Y-91745000D01*
X145942303Y-91745001D01*
X146030670Y-91833368D01*
X146087112Y-91814582D01*
X146156937Y-91812088D01*
X146165432Y-91814582D01*
X146191827Y-91823367D01*
X146280196Y-91734999D01*
X146260306Y-91715109D01*
X146533750Y-91715109D01*
X146533750Y-91754891D01*
X146548974Y-91791645D01*
X146577105Y-91819776D01*
X146613859Y-91835000D01*
X146653641Y-91835000D01*
X146690395Y-91819776D01*
X146718526Y-91791645D01*
X146733750Y-91754891D01*
X146733750Y-91735000D01*
X146987303Y-91735000D01*
X146987303Y-91735001D01*
X147075670Y-91823368D01*
X147088376Y-91734999D01*
X147075670Y-91646631D01*
X146987303Y-91735000D01*
X146733750Y-91735000D01*
X146733750Y-91715109D01*
X146718526Y-91678355D01*
X146690395Y-91650224D01*
X146653641Y-91635000D01*
X146613859Y-91635000D01*
X146577105Y-91650224D01*
X146548974Y-91678355D01*
X146533750Y-91715109D01*
X146260306Y-91715109D01*
X146191827Y-91646630D01*
X146135385Y-91665416D01*
X146065560Y-91667909D01*
X146057069Y-91665416D01*
X146030672Y-91656630D01*
X145942303Y-91745000D01*
X145688750Y-91745000D01*
X145688750Y-91725109D01*
X145673526Y-91688355D01*
X145645395Y-91660224D01*
X145608641Y-91645000D01*
X145568859Y-91645000D01*
X145532105Y-91660224D01*
X145503974Y-91688355D01*
X145488750Y-91725109D01*
X145215306Y-91725109D01*
X145146827Y-91656630D01*
X145120430Y-91665416D01*
X145050605Y-91667909D01*
X145042114Y-91665416D01*
X144985671Y-91646630D01*
X144897303Y-91735000D01*
X144643750Y-91735000D01*
X144643750Y-91715109D01*
X144628526Y-91678355D01*
X144600395Y-91650224D01*
X144563641Y-91635000D01*
X144523859Y-91635000D01*
X144487105Y-91650224D01*
X144458974Y-91678355D01*
X144443750Y-91715109D01*
X144170306Y-91715109D01*
X144101828Y-91646631D01*
X144089123Y-91734999D01*
X142602053Y-91734999D01*
X142605647Y-91710000D01*
X142585165Y-91567543D01*
X142525377Y-91436627D01*
X142431128Y-91327857D01*
X142310053Y-91250047D01*
X142310051Y-91250046D01*
X142310049Y-91250045D01*
X142310050Y-91250045D01*
X142171963Y-91209500D01*
X142171961Y-91209500D01*
X142028039Y-91209500D01*
X142028036Y-91209500D01*
X141889949Y-91250045D01*
X141768873Y-91327856D01*
X141674623Y-91436626D01*
X141674622Y-91436628D01*
X141614834Y-91567543D01*
X141594353Y-91710000D01*
X118990500Y-91710000D01*
X118990500Y-90960000D01*
X131804353Y-90960000D01*
X131824834Y-91102456D01*
X131840972Y-91137792D01*
X131884623Y-91233373D01*
X131978872Y-91342143D01*
X132099947Y-91419953D01*
X132099950Y-91419954D01*
X132099949Y-91419954D01*
X132156737Y-91436628D01*
X132214379Y-91453553D01*
X132238036Y-91460499D01*
X132238038Y-91460500D01*
X132238039Y-91460500D01*
X132381962Y-91460500D01*
X132381962Y-91460499D01*
X132520053Y-91419953D01*
X132641128Y-91342143D01*
X132735377Y-91233373D01*
X132779028Y-91137792D01*
X144449508Y-91137792D01*
X144463887Y-91194133D01*
X144463886Y-91255461D01*
X144454507Y-91292205D01*
X144543749Y-91381446D01*
X144632989Y-91292206D01*
X144618611Y-91235873D01*
X144618610Y-91174543D01*
X144627989Y-91137792D01*
X145494508Y-91137792D01*
X145510163Y-91199133D01*
X145510163Y-91260461D01*
X145499508Y-91302206D01*
X145588749Y-91391446D01*
X145677989Y-91302206D01*
X145675437Y-91292206D01*
X146544508Y-91292206D01*
X146633749Y-91381446D01*
X146722989Y-91292205D01*
X146713612Y-91255463D01*
X146713611Y-91194135D01*
X146727989Y-91137792D01*
X146638751Y-91048553D01*
X146638749Y-91048553D01*
X146549509Y-91137791D01*
X146558888Y-91174541D01*
X146558887Y-91235871D01*
X146544508Y-91292206D01*
X145675437Y-91292206D01*
X145662335Y-91240873D01*
X145662334Y-91179544D01*
X145672989Y-91137792D01*
X145583751Y-91048553D01*
X145583749Y-91048553D01*
X145494508Y-91137792D01*
X144627989Y-91137792D01*
X144538751Y-91048553D01*
X144538749Y-91048553D01*
X144449508Y-91137792D01*
X132779028Y-91137792D01*
X132795165Y-91102457D01*
X132815647Y-90960000D01*
X132795165Y-90817543D01*
X132739200Y-90694999D01*
X144084123Y-90694999D01*
X144096827Y-90783366D01*
X144185196Y-90694999D01*
X144165306Y-90675109D01*
X144438750Y-90675109D01*
X144438750Y-90714891D01*
X144453974Y-90751645D01*
X144482105Y-90779776D01*
X144518859Y-90795000D01*
X144558641Y-90795000D01*
X144595395Y-90779776D01*
X144623526Y-90751645D01*
X144638750Y-90714891D01*
X144638750Y-90695000D01*
X144892303Y-90695000D01*
X144892303Y-90695001D01*
X144980670Y-90783368D01*
X145022090Y-90769582D01*
X145091915Y-90767088D01*
X145100410Y-90769582D01*
X145141827Y-90783367D01*
X145230196Y-90694999D01*
X145210306Y-90675109D01*
X145483750Y-90675109D01*
X145483750Y-90714891D01*
X145498974Y-90751645D01*
X145527105Y-90779776D01*
X145563859Y-90795000D01*
X145603641Y-90795000D01*
X145640395Y-90779776D01*
X145668526Y-90751645D01*
X145683750Y-90714891D01*
X145683750Y-90695000D01*
X145937303Y-90695000D01*
X145937303Y-90695001D01*
X146025670Y-90783368D01*
X146072091Y-90767918D01*
X146141916Y-90765424D01*
X146150410Y-90767918D01*
X146196827Y-90783367D01*
X146285196Y-90694999D01*
X146265306Y-90675109D01*
X146538750Y-90675109D01*
X146538750Y-90714891D01*
X146553974Y-90751645D01*
X146582105Y-90779776D01*
X146618859Y-90795000D01*
X146658641Y-90795000D01*
X146695395Y-90779776D01*
X146723526Y-90751645D01*
X146738750Y-90714891D01*
X146738750Y-90695000D01*
X146992303Y-90695000D01*
X146992303Y-90695001D01*
X147080670Y-90783368D01*
X147093376Y-90694999D01*
X147080670Y-90606631D01*
X146992303Y-90695000D01*
X146738750Y-90695000D01*
X146738750Y-90675109D01*
X146723526Y-90638355D01*
X146695395Y-90610224D01*
X146658641Y-90595000D01*
X146618859Y-90595000D01*
X146582105Y-90610224D01*
X146553974Y-90638355D01*
X146538750Y-90675109D01*
X146265306Y-90675109D01*
X146196827Y-90606630D01*
X146150409Y-90622080D01*
X146080584Y-90624574D01*
X146072091Y-90622081D01*
X146025671Y-90606631D01*
X145937303Y-90695000D01*
X145683750Y-90695000D01*
X145683750Y-90675109D01*
X145668526Y-90638355D01*
X145640395Y-90610224D01*
X145603641Y-90595000D01*
X145563859Y-90595000D01*
X145527105Y-90610224D01*
X145498974Y-90638355D01*
X145483750Y-90675109D01*
X145210306Y-90675109D01*
X145141827Y-90606630D01*
X145100408Y-90620416D01*
X145030583Y-90622909D01*
X145022092Y-90620416D01*
X144980671Y-90606630D01*
X144892303Y-90695000D01*
X144638750Y-90695000D01*
X144638750Y-90675109D01*
X144623526Y-90638355D01*
X144595395Y-90610224D01*
X144558641Y-90595000D01*
X144518859Y-90595000D01*
X144482105Y-90610224D01*
X144453974Y-90638355D01*
X144438750Y-90675109D01*
X144165306Y-90675109D01*
X144096828Y-90606631D01*
X144084123Y-90694999D01*
X132739200Y-90694999D01*
X132735377Y-90686627D01*
X132641128Y-90577857D01*
X132520053Y-90500047D01*
X132520051Y-90500046D01*
X132520049Y-90500045D01*
X132520050Y-90500045D01*
X132381963Y-90459500D01*
X132381961Y-90459500D01*
X132238039Y-90459500D01*
X132238036Y-90459500D01*
X132099949Y-90500045D01*
X131978873Y-90577856D01*
X131884623Y-90686626D01*
X131884622Y-90686628D01*
X131824834Y-90817543D01*
X131804353Y-90960000D01*
X118990500Y-90960000D01*
X118990500Y-90252206D01*
X144449508Y-90252206D01*
X144538749Y-90341446D01*
X144627988Y-90252206D01*
X145494508Y-90252206D01*
X145583749Y-90341446D01*
X145672988Y-90252206D01*
X146549508Y-90252206D01*
X146638749Y-90341446D01*
X146727988Y-90252206D01*
X146703447Y-90245000D01*
X146574050Y-90245000D01*
X146549508Y-90252206D01*
X145672988Y-90252206D01*
X145648447Y-90245000D01*
X145519050Y-90245000D01*
X145494508Y-90252206D01*
X144627988Y-90252206D01*
X144603447Y-90245000D01*
X144474050Y-90245000D01*
X144449508Y-90252206D01*
X118990500Y-90252206D01*
X118990500Y-89430000D01*
X136434353Y-89430000D01*
X136454834Y-89572456D01*
X136514622Y-89703371D01*
X136514623Y-89703373D01*
X136608872Y-89812143D01*
X136729947Y-89889953D01*
X136729950Y-89889954D01*
X136729949Y-89889954D01*
X136868036Y-89930499D01*
X136868038Y-89930500D01*
X136868039Y-89930500D01*
X137011962Y-89930500D01*
X137011962Y-89930499D01*
X137150053Y-89889953D01*
X137271128Y-89812143D01*
X137365377Y-89703373D01*
X137425165Y-89572457D01*
X137445647Y-89430000D01*
X137425165Y-89287543D01*
X137365377Y-89156627D01*
X137271128Y-89047857D01*
X137150053Y-88970047D01*
X137150051Y-88970046D01*
X137150049Y-88970045D01*
X137150050Y-88970045D01*
X137011963Y-88929500D01*
X137011961Y-88929500D01*
X136868039Y-88929500D01*
X136868036Y-88929500D01*
X136729949Y-88970045D01*
X136608873Y-89047856D01*
X136514623Y-89156626D01*
X136514622Y-89156628D01*
X136454834Y-89287543D01*
X136434353Y-89430000D01*
X118990500Y-89430000D01*
X118990500Y-86757648D01*
X120379500Y-86757648D01*
X120379500Y-86962351D01*
X120411522Y-87164534D01*
X120474781Y-87359223D01*
X120567715Y-87541613D01*
X120688028Y-87707213D01*
X120832786Y-87851971D01*
X120987749Y-87964556D01*
X120998390Y-87972287D01*
X121114607Y-88031503D01*
X121180776Y-88065218D01*
X121180778Y-88065218D01*
X121180781Y-88065220D01*
X121241658Y-88085000D01*
X121375465Y-88128477D01*
X121476557Y-88144488D01*
X121577648Y-88160500D01*
X121577649Y-88160500D01*
X121782351Y-88160500D01*
X121782352Y-88160500D01*
X121880214Y-88145000D01*
X146158103Y-88145000D01*
X146178584Y-88287456D01*
X146238372Y-88418371D01*
X146238373Y-88418373D01*
X146332622Y-88527143D01*
X146453697Y-88604953D01*
X146453700Y-88604954D01*
X146453699Y-88604954D01*
X146591786Y-88645499D01*
X146591788Y-88645500D01*
X146591789Y-88645500D01*
X146735712Y-88645500D01*
X146735712Y-88645499D01*
X146873803Y-88604953D01*
X146994878Y-88527143D01*
X147089127Y-88418373D01*
X147148915Y-88287457D01*
X147169397Y-88145000D01*
X147160770Y-88085000D01*
X150028103Y-88085000D01*
X150048584Y-88227456D01*
X150075986Y-88287456D01*
X150108373Y-88358373D01*
X150202622Y-88467143D01*
X150323697Y-88544953D01*
X150323700Y-88544954D01*
X150323699Y-88544954D01*
X150461786Y-88585499D01*
X150461788Y-88585500D01*
X150461789Y-88585500D01*
X150605712Y-88585500D01*
X150605712Y-88585499D01*
X150743803Y-88544953D01*
X150864878Y-88467143D01*
X150959127Y-88358373D01*
X151018915Y-88227457D01*
X151039397Y-88085000D01*
X151018915Y-87942543D01*
X150959127Y-87811627D01*
X150864878Y-87702857D01*
X150743803Y-87625047D01*
X150743801Y-87625046D01*
X150743799Y-87625045D01*
X150743800Y-87625045D01*
X150605713Y-87584500D01*
X150605711Y-87584500D01*
X150461789Y-87584500D01*
X150461786Y-87584500D01*
X150323699Y-87625045D01*
X150202623Y-87702856D01*
X150108373Y-87811626D01*
X150108372Y-87811628D01*
X150048584Y-87942543D01*
X150028103Y-88085000D01*
X147160770Y-88085000D01*
X147148915Y-88002543D01*
X147089127Y-87871627D01*
X146994878Y-87762857D01*
X146873803Y-87685047D01*
X146873801Y-87685046D01*
X146873799Y-87685045D01*
X146873800Y-87685045D01*
X146735713Y-87644500D01*
X146735711Y-87644500D01*
X146591789Y-87644500D01*
X146591786Y-87644500D01*
X146453699Y-87685045D01*
X146332623Y-87762856D01*
X146238373Y-87871626D01*
X146238372Y-87871628D01*
X146178584Y-88002543D01*
X146158103Y-88145000D01*
X121880214Y-88145000D01*
X121984534Y-88128477D01*
X122179219Y-88065220D01*
X122361610Y-87972287D01*
X122454590Y-87904732D01*
X122527213Y-87851971D01*
X122527215Y-87851968D01*
X122527219Y-87851966D01*
X122671966Y-87707219D01*
X122671968Y-87707215D01*
X122671971Y-87707213D01*
X122731668Y-87625045D01*
X122792287Y-87541610D01*
X122885220Y-87359219D01*
X122948477Y-87164534D01*
X122980500Y-86962352D01*
X122980500Y-86817648D01*
X157479500Y-86817648D01*
X157479500Y-87022351D01*
X157511522Y-87224534D01*
X157574781Y-87419223D01*
X157667715Y-87601613D01*
X157788028Y-87767213D01*
X157932786Y-87911971D01*
X158087749Y-88024556D01*
X158098390Y-88032287D01*
X158163021Y-88065218D01*
X158280776Y-88125218D01*
X158280778Y-88125218D01*
X158280781Y-88125220D01*
X158341658Y-88145000D01*
X158475465Y-88188477D01*
X158576557Y-88204488D01*
X158677648Y-88220500D01*
X158677649Y-88220500D01*
X158882351Y-88220500D01*
X158882352Y-88220500D01*
X159084534Y-88188477D01*
X159279219Y-88125220D01*
X159461610Y-88032287D01*
X159585133Y-87942543D01*
X159627213Y-87911971D01*
X159627215Y-87911968D01*
X159627219Y-87911966D01*
X159771966Y-87767219D01*
X159771968Y-87767215D01*
X159771971Y-87767213D01*
X159831668Y-87685045D01*
X159892287Y-87601610D01*
X159985220Y-87419219D01*
X160048477Y-87224534D01*
X160080500Y-87022352D01*
X160080500Y-86817648D01*
X160048477Y-86615466D01*
X160028981Y-86555465D01*
X159985218Y-86420776D01*
X159951503Y-86354607D01*
X159892287Y-86238390D01*
X159848692Y-86178386D01*
X159771971Y-86072786D01*
X159627213Y-85928028D01*
X159461613Y-85807715D01*
X159461612Y-85807714D01*
X159461610Y-85807713D01*
X159404653Y-85778691D01*
X159279223Y-85714781D01*
X159084534Y-85651522D01*
X158909995Y-85623878D01*
X158882352Y-85619500D01*
X158677648Y-85619500D01*
X158653329Y-85623351D01*
X158475465Y-85651522D01*
X158280776Y-85714781D01*
X158098386Y-85807715D01*
X157932786Y-85928028D01*
X157788028Y-86072786D01*
X157667715Y-86238386D01*
X157574781Y-86420776D01*
X157511522Y-86615465D01*
X157479500Y-86817648D01*
X122980500Y-86817648D01*
X122980500Y-86757648D01*
X122948477Y-86555466D01*
X122885220Y-86360781D01*
X122885218Y-86360778D01*
X122885218Y-86360776D01*
X122851503Y-86294607D01*
X122792287Y-86178390D01*
X122784556Y-86167749D01*
X122671971Y-86012786D01*
X122527213Y-85868028D01*
X122361613Y-85747715D01*
X122361612Y-85747714D01*
X122361610Y-85747713D01*
X122304653Y-85718691D01*
X122179223Y-85654781D01*
X121984534Y-85591522D01*
X121809995Y-85563878D01*
X121782352Y-85559500D01*
X121577648Y-85559500D01*
X121553329Y-85563351D01*
X121375465Y-85591522D01*
X121180776Y-85654781D01*
X120998386Y-85747715D01*
X120832786Y-85868028D01*
X120688028Y-86012786D01*
X120567715Y-86178386D01*
X120474781Y-86360776D01*
X120411522Y-86555465D01*
X120379500Y-86757648D01*
X118990500Y-86757648D01*
X118990500Y-84334500D01*
X119010185Y-84267461D01*
X119062989Y-84221706D01*
X119114500Y-84210500D01*
X161465500Y-84210500D01*
X161532539Y-84230185D01*
G37*
%TD.AperFunction*%
%TD*%
M02*
