M48
; DRILL file {KiCad 8.0.3} date 2025-04-13T21:26:21+0200
; FORMAT={-:-/ absolute / metric / decimal}
; #@! TF.CreationDate,2025-04-13T21:26:21+02:00
; #@! TF.GenerationSoftware,Kicad,Pcbnew,8.0.3
; #@! TF.FileFunction,Plated,1,4,PTH
FMAT,2
METRIC
; #@! TA.AperFunction,Plated,PTH,ComponentDrill
T1C0.200
; #@! TA.AperFunction,Plated,PTH,ViaDrill
T2C0.300
; #@! TA.AperFunction,Plated,PTH,ComponentDrill
T3C0.650
; #@! TA.AperFunction,Plated,PTH,ComponentDrill
T4C0.970
; #@! TA.AperFunction,Plated,PTH,ComponentDrill
T5C1.000
%
G90
G05
T1
X144.539Y-90.695
X144.539Y-92.795
X144.544Y-91.735
X145.584Y-90.695
X145.584Y-92.795
X145.589Y-91.745
X146.634Y-91.735
X146.639Y-90.695
X146.639Y-92.795
T2
X119.49Y-85.81
X119.49Y-86.81
X119.49Y-87.81
X119.49Y-88.81
X119.49Y-89.81
X119.49Y-90.81
X119.49Y-91.81
X119.49Y-92.81
X119.49Y-93.81
X119.49Y-94.81
X119.49Y-95.81
X119.49Y-96.81
X119.49Y-97.81
X119.49Y-98.81
X119.49Y-99.81
X119.49Y-100.81
X119.49Y-101.81
X119.49Y-102.81
X119.49Y-103.81
X119.49Y-104.81
X119.49Y-105.81
X119.49Y-106.81
X119.49Y-107.81
X119.49Y-108.81
X119.49Y-109.81
X119.49Y-110.81
X119.49Y-111.81
X119.49Y-112.81
X119.49Y-113.81
X119.49Y-114.81
X119.49Y-115.81
X119.49Y-116.81
X119.49Y-117.81
X119.49Y-118.81
X119.49Y-119.81
X119.49Y-120.81
X119.49Y-121.81
X119.49Y-122.81
X119.49Y-123.81
X119.49Y-124.81
X119.49Y-125.81
X119.49Y-126.81
X119.71Y-127.68
X119.76Y-84.99
X120.35Y-128.18
X120.5Y-84.75
X121.15Y-111.53
X121.25Y-128.25
X121.31Y-114.67
X121.5Y-84.75
X122.13Y-105.85
X122.21Y-107.79
X122.25Y-128.25
X122.39Y-104.12
X122.43Y-102.76
X122.5Y-84.75
X122.63Y-110.19
X123.2Y-112.81
X123.23Y-89.72
X123.25Y-128.25
X123.5Y-84.75
X123.76Y-100.08
X124.07Y-115.06
X124.25Y-128.25
X124.26Y-124.03
X124.5Y-84.75
X124.54Y-97.12
X124.54Y-111.19
X124.9Y-94.46
X125.04Y-117.86
X125.15Y-126.06
X125.25Y-128.25
X125.47Y-113.13
X125.5Y-84.75
X125.66Y-119.87
X126.25Y-128.25
X126.5Y-84.75
X126.59Y-96.39
X126.649Y-115.355
X126.65Y-92.43
X126.68Y-101.78
X127.04Y-99.27
X127.25Y-128.25
X127.5Y-84.75
X127.52Y-118.98
X127.56Y-117.05
X127.63Y-112.45
X128.11Y-94.42
X128.25Y-128.25
X128.29Y-97.36
X128.5Y-84.75
X128.52Y-91.58
X128.54Y-122.73
X129.09Y-116.3
X129.21Y-118.25
X129.25Y-128.25
X129.5Y-84.75
X130.25Y-128.25
X130.5Y-84.75
X130.79Y-116.6
X130.83Y-118.71
X131.17Y-88.43
X131.25Y-128.25
X131.5Y-84.75
X132.25Y-128.25
X132.31Y-90.96
X132.46Y-96.62
X132.5Y-84.75
X132.84Y-86.51
X133.25Y-128.25
X133.5Y-84.75
X133.92Y-98.83
X133.935Y-97.196
X134.25Y-128.25
X134.5Y-84.75
X134.84Y-102.88
X134.88Y-92.67
X135.25Y-128.25
X135.32Y-104.38
X135.42Y-118.38
X135.5Y-84.75
X135.54Y-101.78
X135.93Y-108.2
X135.98Y-126.58
X136.06Y-122.68
X136.25Y-128.25
X136.31Y-114.45
X136.41Y-112.57
X136.5Y-84.75
X136.77Y-106.38
X136.92Y-116.12
X136.94Y-89.43
X137.15Y-103.37
X137.25Y-128.25
X137.41Y-122.01
X137.42Y-120.59
X137.5Y-84.75
X137.65Y-97.11
X137.99Y-86.39
X138.25Y-128.25
X138.28Y-112.14
X138.3Y-113.39
X138.42Y-118.43
X138.44Y-88.49
X138.5Y-84.75
X138.74Y-101.27
X139.02Y-114.3
X139.25Y-128.25
X139.26Y-95.79
X139.39Y-107.65
X139.5Y-84.75
X139.8Y-120.72
X139.91Y-115.09
X140.11Y-116.18
X140.12Y-93.26
X140.18Y-104.68
X140.19Y-112.0
X140.21Y-113.25
X140.25Y-128.25
X140.5Y-84.75
X140.75Y-92.15
X140.75Y-122.12
X140.9Y-101.69
X141.25Y-128.25
X141.5Y-84.75
X141.87Y-119.78
X141.91Y-107.8
X142.1Y-91.71
X142.1Y-104.27
X142.25Y-128.25
X142.5Y-84.75
X142.62Y-86.14
X142.92Y-97.31
X142.97Y-94.49
X143.0Y-119.57
X143.25Y-128.25
X143.36Y-89.73
X143.5Y-84.75
X144.25Y-128.25
X144.42Y-110.65
X144.42Y-119.81
X144.5Y-84.75
X144.97Y-109.63
X145.25Y-128.25
X145.5Y-84.75
X145.711Y-101.487
X145.76Y-104.56
X145.77Y-102.8
X146.25Y-128.25
X146.5Y-84.75
X146.664Y-88.145
X146.74Y-86.14
X146.882Y-100.72
X147.13Y-97.11
X147.25Y-128.25
X147.285Y-94.164
X147.34Y-107.96
X147.5Y-84.75
X147.63Y-99.26
X147.96Y-93.51
X148.25Y-128.25
X148.5Y-84.75
X148.67Y-121.61
X148.76Y-100.14
X148.98Y-126.02
X149.25Y-128.25
X149.35Y-110.53
X149.5Y-84.75
X149.55Y-86.28
X149.98Y-119.07
X150.02Y-108.97
X150.15Y-112.36
X150.23Y-120.98
X150.25Y-128.25
X150.26Y-100.45
X150.284Y-91.725
X150.314Y-90.865
X150.334Y-90.045
X150.354Y-89.245
X150.354Y-92.505
X150.5Y-84.75
X150.534Y-88.085
X150.87Y-102.21
X150.88Y-110.88
X150.88Y-113.99
X151.02Y-107.14
X151.05Y-123.73
X151.174Y-92.515
X151.25Y-128.25
X151.28Y-118.63
X151.32Y-116.42
X151.344Y-91.675
X151.36Y-99.73
X151.5Y-84.75
X151.624Y-90.885
X152.15Y-86.31
X152.25Y-128.25
X152.4Y-104.02
X152.444Y-90.825
X152.5Y-84.75
X152.74Y-88.56
X152.84Y-108.4
X153.07Y-109.86
X153.09Y-113.02
X153.15Y-123.38
X153.17Y-116.95
X153.25Y-128.25
X153.304Y-90.825
X153.5Y-84.75
X153.724Y-95.945
X153.77Y-115.36
X153.784Y-94.355
X153.784Y-95.125
X153.824Y-93.575
X154.19Y-118.83
X154.234Y-90.675
X154.25Y-128.25
X154.5Y-84.75
X154.504Y-95.985
X154.644Y-93.485
X154.81Y-86.91
X154.86Y-108.06
X155.004Y-90.775
X155.25Y-128.25
X155.284Y-95.855
X155.424Y-99.315
X155.453Y-98.53
X155.464Y-92.965
X155.5Y-84.75
X155.52Y-94.71
X155.624Y-91.335
X155.734Y-92.235
X155.88Y-89.24
X156.0Y-105.63
X156.05Y-124.98
X156.154Y-95.785
X156.25Y-128.25
X156.264Y-99.455
X156.284Y-98.465
X156.5Y-84.75
X156.82Y-92.55
X156.984Y-95.945
X157.084Y-98.245
X157.104Y-102.015
X157.134Y-99.295
X157.15Y-102.83
X157.25Y-128.25
X157.414Y-96.645
X157.484Y-97.495
X157.5Y-84.75
X157.9Y-102.42
X158.25Y-128.25
X158.32Y-95.35
X158.35Y-101.73
X158.5Y-84.75
X158.64Y-118.79
X158.67Y-96.07
X158.69Y-96.96
X158.73Y-97.85
X158.75Y-98.68
X158.75Y-100.28
X158.8Y-99.53
X158.8Y-101.12
X158.8Y-105.67
X159.12Y-119.7
X159.24Y-115.35
X159.25Y-128.25
X159.43Y-114.29
X159.5Y-84.75
X159.92Y-108.96
X160.11Y-102.61
X160.19Y-94.18
X160.3Y-96.05
X160.3Y-98.95
X160.31Y-95.18
X160.31Y-97.06
X160.32Y-98.04
X160.33Y-100.0
X160.33Y-101.86
X160.34Y-100.95
X160.38Y-128.16
X160.48Y-84.87
X161.0Y-86.5
X161.0Y-87.5
X161.0Y-88.5
X161.0Y-89.5
X161.0Y-90.5
X161.0Y-91.5
X161.0Y-92.5
X161.0Y-93.5
X161.0Y-94.5
X161.0Y-95.5
X161.0Y-96.5
X161.0Y-97.5
X161.0Y-98.5
X161.0Y-99.5
X161.0Y-100.5
X161.0Y-101.5
X161.0Y-102.5
X161.0Y-103.5
X161.0Y-104.5
X161.0Y-105.5
X161.0Y-106.5
X161.0Y-107.5
X161.0Y-108.5
X161.0Y-109.5
X161.0Y-110.5
X161.0Y-111.5
X161.0Y-112.5
X161.0Y-113.5
X161.0Y-114.5
X161.0Y-115.5
X161.0Y-116.5
X161.0Y-117.5
X161.0Y-118.5
X161.0Y-119.5
X161.0Y-120.5
X161.0Y-121.5
X161.0Y-122.5
X161.0Y-123.5
X161.0Y-124.5
X161.0Y-125.5
X161.0Y-126.5
X161.02Y-127.44
X161.03Y-85.56
T3
X146.09Y-112.61
X146.09Y-113.88
X146.09Y-115.15
X146.09Y-116.42
X146.09Y-117.69
X147.36Y-112.61
X147.36Y-113.88
X147.36Y-115.15
X147.36Y-116.42
X147.36Y-117.69
T4
X158.61Y-91.1
X158.61Y-93.64
T5
X122.12Y-118.485
X122.12Y-121.025
X128.27Y-125.4
X133.27Y-125.4
X138.23Y-123.72
X138.23Y-126.26
M30
