%TF.GenerationSoftware,KiCad,Pcbnew,8.0.3*%
%TF.CreationDate,2025-04-14T11:30:40+02:00*%
%TF.ProjectId,picoballoon,7069636f-6261-46c6-9c6f-6f6e2e6b6963,rev?*%
%TF.SameCoordinates,Original*%
%TF.FileFunction,Legend,Top*%
%TF.FilePolarity,Positive*%
%FSLAX46Y46*%
G04 Gerber Fmt 4.6, Leading zero omitted, Abs format (unit mm)*
G04 Created by KiCad (PCBNEW 8.0.3) date 2025-04-14 11:30:40*
%MOMM*%
%LPD*%
G01*
G04 APERTURE LIST*
%ADD10C,0.150000*%
%ADD11C,0.155000*%
%ADD12C,0.200000*%
%ADD13C,0.120000*%
%ADD14C,0.100000*%
%ADD15C,0.250000*%
G04 APERTURE END LIST*
D10*
X131659160Y-112464295D02*
X131659160Y-111664295D01*
X132116303Y-112464295D02*
X131773445Y-112007152D01*
X132116303Y-111664295D02*
X131659160Y-112121438D01*
X153289160Y-128664295D02*
X153289160Y-127864295D01*
X153746303Y-128664295D02*
X153403445Y-128207152D01*
X153746303Y-127864295D02*
X153289160Y-128321438D01*
X153361064Y-123905723D02*
X153742017Y-123905723D01*
X153284874Y-124134295D02*
X153551541Y-123334295D01*
X153551541Y-123334295D02*
X153818207Y-124134295D01*
D11*
X130592449Y-123064035D02*
X130592449Y-122264035D01*
X131049592Y-123064035D02*
X130706734Y-122606892D01*
X131049592Y-122264035D02*
X130592449Y-122721178D01*
D10*
X131471064Y-114885723D02*
X131852017Y-114885723D01*
X131394874Y-115114295D02*
X131661541Y-114314295D01*
X131661541Y-114314295D02*
X131928207Y-115114295D01*
D11*
X127454353Y-122905463D02*
X127835306Y-122905463D01*
X127378163Y-123134035D02*
X127644830Y-122334035D01*
X127644830Y-122334035D02*
X127911496Y-123134035D01*
D10*
X139150057Y-91365238D02*
X139102438Y-91460476D01*
X139102438Y-91460476D02*
X139007200Y-91555714D01*
X139007200Y-91555714D02*
X138864342Y-91698571D01*
X138864342Y-91698571D02*
X138816723Y-91793809D01*
X138816723Y-91793809D02*
X138816723Y-91889047D01*
X139054819Y-91841428D02*
X139007200Y-91936666D01*
X139007200Y-91936666D02*
X138911961Y-92031904D01*
X138911961Y-92031904D02*
X138721485Y-92079523D01*
X138721485Y-92079523D02*
X138388152Y-92079523D01*
X138388152Y-92079523D02*
X138197676Y-92031904D01*
X138197676Y-92031904D02*
X138102438Y-91936666D01*
X138102438Y-91936666D02*
X138054819Y-91841428D01*
X138054819Y-91841428D02*
X138054819Y-91650952D01*
X138054819Y-91650952D02*
X138102438Y-91555714D01*
X138102438Y-91555714D02*
X138197676Y-91460476D01*
X138197676Y-91460476D02*
X138388152Y-91412857D01*
X138388152Y-91412857D02*
X138721485Y-91412857D01*
X138721485Y-91412857D02*
X138911961Y-91460476D01*
X138911961Y-91460476D02*
X139007200Y-91555714D01*
X139007200Y-91555714D02*
X139054819Y-91650952D01*
X139054819Y-91650952D02*
X139054819Y-91841428D01*
X139054819Y-90460476D02*
X139054819Y-91031904D01*
X139054819Y-90746190D02*
X138054819Y-90746190D01*
X138054819Y-90746190D02*
X138197676Y-90841428D01*
X138197676Y-90841428D02*
X138292914Y-90936666D01*
X138292914Y-90936666D02*
X138340533Y-91031904D01*
X151944819Y-120106666D02*
X151468628Y-120439999D01*
X151944819Y-120678094D02*
X150944819Y-120678094D01*
X150944819Y-120678094D02*
X150944819Y-120297142D01*
X150944819Y-120297142D02*
X150992438Y-120201904D01*
X150992438Y-120201904D02*
X151040057Y-120154285D01*
X151040057Y-120154285D02*
X151135295Y-120106666D01*
X151135295Y-120106666D02*
X151278152Y-120106666D01*
X151278152Y-120106666D02*
X151373390Y-120154285D01*
X151373390Y-120154285D02*
X151421009Y-120201904D01*
X151421009Y-120201904D02*
X151468628Y-120297142D01*
X151468628Y-120297142D02*
X151468628Y-120678094D01*
X150944819Y-119249523D02*
X150944819Y-119439999D01*
X150944819Y-119439999D02*
X150992438Y-119535237D01*
X150992438Y-119535237D02*
X151040057Y-119582856D01*
X151040057Y-119582856D02*
X151182914Y-119678094D01*
X151182914Y-119678094D02*
X151373390Y-119725713D01*
X151373390Y-119725713D02*
X151754342Y-119725713D01*
X151754342Y-119725713D02*
X151849580Y-119678094D01*
X151849580Y-119678094D02*
X151897200Y-119630475D01*
X151897200Y-119630475D02*
X151944819Y-119535237D01*
X151944819Y-119535237D02*
X151944819Y-119344761D01*
X151944819Y-119344761D02*
X151897200Y-119249523D01*
X151897200Y-119249523D02*
X151849580Y-119201904D01*
X151849580Y-119201904D02*
X151754342Y-119154285D01*
X151754342Y-119154285D02*
X151516247Y-119154285D01*
X151516247Y-119154285D02*
X151421009Y-119201904D01*
X151421009Y-119201904D02*
X151373390Y-119249523D01*
X151373390Y-119249523D02*
X151325771Y-119344761D01*
X151325771Y-119344761D02*
X151325771Y-119535237D01*
X151325771Y-119535237D02*
X151373390Y-119630475D01*
X151373390Y-119630475D02*
X151421009Y-119678094D01*
X151421009Y-119678094D02*
X151516247Y-119725713D01*
X125197200Y-120851904D02*
X125244819Y-120709047D01*
X125244819Y-120709047D02*
X125244819Y-120470952D01*
X125244819Y-120470952D02*
X125197200Y-120375714D01*
X125197200Y-120375714D02*
X125149580Y-120328095D01*
X125149580Y-120328095D02*
X125054342Y-120280476D01*
X125054342Y-120280476D02*
X124959104Y-120280476D01*
X124959104Y-120280476D02*
X124863866Y-120328095D01*
X124863866Y-120328095D02*
X124816247Y-120375714D01*
X124816247Y-120375714D02*
X124768628Y-120470952D01*
X124768628Y-120470952D02*
X124721009Y-120661428D01*
X124721009Y-120661428D02*
X124673390Y-120756666D01*
X124673390Y-120756666D02*
X124625771Y-120804285D01*
X124625771Y-120804285D02*
X124530533Y-120851904D01*
X124530533Y-120851904D02*
X124435295Y-120851904D01*
X124435295Y-120851904D02*
X124340057Y-120804285D01*
X124340057Y-120804285D02*
X124292438Y-120756666D01*
X124292438Y-120756666D02*
X124244819Y-120661428D01*
X124244819Y-120661428D02*
X124244819Y-120423333D01*
X124244819Y-120423333D02*
X124292438Y-120280476D01*
X125149580Y-119280476D02*
X125197200Y-119328095D01*
X125197200Y-119328095D02*
X125244819Y-119470952D01*
X125244819Y-119470952D02*
X125244819Y-119566190D01*
X125244819Y-119566190D02*
X125197200Y-119709047D01*
X125197200Y-119709047D02*
X125101961Y-119804285D01*
X125101961Y-119804285D02*
X125006723Y-119851904D01*
X125006723Y-119851904D02*
X124816247Y-119899523D01*
X124816247Y-119899523D02*
X124673390Y-119899523D01*
X124673390Y-119899523D02*
X124482914Y-119851904D01*
X124482914Y-119851904D02*
X124387676Y-119804285D01*
X124387676Y-119804285D02*
X124292438Y-119709047D01*
X124292438Y-119709047D02*
X124244819Y-119566190D01*
X124244819Y-119566190D02*
X124244819Y-119470952D01*
X124244819Y-119470952D02*
X124292438Y-119328095D01*
X124292438Y-119328095D02*
X124340057Y-119280476D01*
X125244819Y-118328095D02*
X125244819Y-118899523D01*
X125244819Y-118613809D02*
X124244819Y-118613809D01*
X124244819Y-118613809D02*
X124387676Y-118709047D01*
X124387676Y-118709047D02*
X124482914Y-118804285D01*
X124482914Y-118804285D02*
X124530533Y-118899523D01*
X154150892Y-94114580D02*
X154103273Y-94162200D01*
X154103273Y-94162200D02*
X153960416Y-94209819D01*
X153960416Y-94209819D02*
X153865178Y-94209819D01*
X153865178Y-94209819D02*
X153722321Y-94162200D01*
X153722321Y-94162200D02*
X153627083Y-94066961D01*
X153627083Y-94066961D02*
X153579464Y-93971723D01*
X153579464Y-93971723D02*
X153531845Y-93781247D01*
X153531845Y-93781247D02*
X153531845Y-93638390D01*
X153531845Y-93638390D02*
X153579464Y-93447914D01*
X153579464Y-93447914D02*
X153627083Y-93352676D01*
X153627083Y-93352676D02*
X153722321Y-93257438D01*
X153722321Y-93257438D02*
X153865178Y-93209819D01*
X153865178Y-93209819D02*
X153960416Y-93209819D01*
X153960416Y-93209819D02*
X154103273Y-93257438D01*
X154103273Y-93257438D02*
X154150892Y-93305057D01*
X154531845Y-93305057D02*
X154579464Y-93257438D01*
X154579464Y-93257438D02*
X154674702Y-93209819D01*
X154674702Y-93209819D02*
X154912797Y-93209819D01*
X154912797Y-93209819D02*
X155008035Y-93257438D01*
X155008035Y-93257438D02*
X155055654Y-93305057D01*
X155055654Y-93305057D02*
X155103273Y-93400295D01*
X155103273Y-93400295D02*
X155103273Y-93495533D01*
X155103273Y-93495533D02*
X155055654Y-93638390D01*
X155055654Y-93638390D02*
X154484226Y-94209819D01*
X154484226Y-94209819D02*
X155103273Y-94209819D01*
X155579464Y-94209819D02*
X155769940Y-94209819D01*
X155769940Y-94209819D02*
X155865178Y-94162200D01*
X155865178Y-94162200D02*
X155912797Y-94114580D01*
X155912797Y-94114580D02*
X156008035Y-93971723D01*
X156008035Y-93971723D02*
X156055654Y-93781247D01*
X156055654Y-93781247D02*
X156055654Y-93400295D01*
X156055654Y-93400295D02*
X156008035Y-93305057D01*
X156008035Y-93305057D02*
X155960416Y-93257438D01*
X155960416Y-93257438D02*
X155865178Y-93209819D01*
X155865178Y-93209819D02*
X155674702Y-93209819D01*
X155674702Y-93209819D02*
X155579464Y-93257438D01*
X155579464Y-93257438D02*
X155531845Y-93305057D01*
X155531845Y-93305057D02*
X155484226Y-93400295D01*
X155484226Y-93400295D02*
X155484226Y-93638390D01*
X155484226Y-93638390D02*
X155531845Y-93733628D01*
X155531845Y-93733628D02*
X155579464Y-93781247D01*
X155579464Y-93781247D02*
X155674702Y-93828866D01*
X155674702Y-93828866D02*
X155865178Y-93828866D01*
X155865178Y-93828866D02*
X155960416Y-93781247D01*
X155960416Y-93781247D02*
X156008035Y-93733628D01*
X156008035Y-93733628D02*
X156055654Y-93638390D01*
X149454819Y-121322857D02*
X148978628Y-121656190D01*
X149454819Y-121894285D02*
X148454819Y-121894285D01*
X148454819Y-121894285D02*
X148454819Y-121513333D01*
X148454819Y-121513333D02*
X148502438Y-121418095D01*
X148502438Y-121418095D02*
X148550057Y-121370476D01*
X148550057Y-121370476D02*
X148645295Y-121322857D01*
X148645295Y-121322857D02*
X148788152Y-121322857D01*
X148788152Y-121322857D02*
X148883390Y-121370476D01*
X148883390Y-121370476D02*
X148931009Y-121418095D01*
X148931009Y-121418095D02*
X148978628Y-121513333D01*
X148978628Y-121513333D02*
X148978628Y-121894285D01*
X149454819Y-120370476D02*
X149454819Y-120941904D01*
X149454819Y-120656190D02*
X148454819Y-120656190D01*
X148454819Y-120656190D02*
X148597676Y-120751428D01*
X148597676Y-120751428D02*
X148692914Y-120846666D01*
X148692914Y-120846666D02*
X148740533Y-120941904D01*
X148454819Y-119465714D02*
X148454819Y-119941904D01*
X148454819Y-119941904D02*
X148931009Y-119989523D01*
X148931009Y-119989523D02*
X148883390Y-119941904D01*
X148883390Y-119941904D02*
X148835771Y-119846666D01*
X148835771Y-119846666D02*
X148835771Y-119608571D01*
X148835771Y-119608571D02*
X148883390Y-119513333D01*
X148883390Y-119513333D02*
X148931009Y-119465714D01*
X148931009Y-119465714D02*
X149026247Y-119418095D01*
X149026247Y-119418095D02*
X149264342Y-119418095D01*
X149264342Y-119418095D02*
X149359580Y-119465714D01*
X149359580Y-119465714D02*
X149407200Y-119513333D01*
X149407200Y-119513333D02*
X149454819Y-119608571D01*
X149454819Y-119608571D02*
X149454819Y-119846666D01*
X149454819Y-119846666D02*
X149407200Y-119941904D01*
X149407200Y-119941904D02*
X149359580Y-119989523D01*
X150619580Y-120772857D02*
X150667200Y-120820476D01*
X150667200Y-120820476D02*
X150714819Y-120963333D01*
X150714819Y-120963333D02*
X150714819Y-121058571D01*
X150714819Y-121058571D02*
X150667200Y-121201428D01*
X150667200Y-121201428D02*
X150571961Y-121296666D01*
X150571961Y-121296666D02*
X150476723Y-121344285D01*
X150476723Y-121344285D02*
X150286247Y-121391904D01*
X150286247Y-121391904D02*
X150143390Y-121391904D01*
X150143390Y-121391904D02*
X149952914Y-121344285D01*
X149952914Y-121344285D02*
X149857676Y-121296666D01*
X149857676Y-121296666D02*
X149762438Y-121201428D01*
X149762438Y-121201428D02*
X149714819Y-121058571D01*
X149714819Y-121058571D02*
X149714819Y-120963333D01*
X149714819Y-120963333D02*
X149762438Y-120820476D01*
X149762438Y-120820476D02*
X149810057Y-120772857D01*
X149714819Y-120439523D02*
X149714819Y-119820476D01*
X149714819Y-119820476D02*
X150095771Y-120153809D01*
X150095771Y-120153809D02*
X150095771Y-120010952D01*
X150095771Y-120010952D02*
X150143390Y-119915714D01*
X150143390Y-119915714D02*
X150191009Y-119868095D01*
X150191009Y-119868095D02*
X150286247Y-119820476D01*
X150286247Y-119820476D02*
X150524342Y-119820476D01*
X150524342Y-119820476D02*
X150619580Y-119868095D01*
X150619580Y-119868095D02*
X150667200Y-119915714D01*
X150667200Y-119915714D02*
X150714819Y-120010952D01*
X150714819Y-120010952D02*
X150714819Y-120296666D01*
X150714819Y-120296666D02*
X150667200Y-120391904D01*
X150667200Y-120391904D02*
X150619580Y-120439523D01*
X149714819Y-119487142D02*
X149714819Y-118820476D01*
X149714819Y-118820476D02*
X150714819Y-119249047D01*
X134794642Y-87224819D02*
X134461309Y-86748628D01*
X134223214Y-87224819D02*
X134223214Y-86224819D01*
X134223214Y-86224819D02*
X134604166Y-86224819D01*
X134604166Y-86224819D02*
X134699404Y-86272438D01*
X134699404Y-86272438D02*
X134747023Y-86320057D01*
X134747023Y-86320057D02*
X134794642Y-86415295D01*
X134794642Y-86415295D02*
X134794642Y-86558152D01*
X134794642Y-86558152D02*
X134747023Y-86653390D01*
X134747023Y-86653390D02*
X134699404Y-86701009D01*
X134699404Y-86701009D02*
X134604166Y-86748628D01*
X134604166Y-86748628D02*
X134223214Y-86748628D01*
X135175595Y-86320057D02*
X135223214Y-86272438D01*
X135223214Y-86272438D02*
X135318452Y-86224819D01*
X135318452Y-86224819D02*
X135556547Y-86224819D01*
X135556547Y-86224819D02*
X135651785Y-86272438D01*
X135651785Y-86272438D02*
X135699404Y-86320057D01*
X135699404Y-86320057D02*
X135747023Y-86415295D01*
X135747023Y-86415295D02*
X135747023Y-86510533D01*
X135747023Y-86510533D02*
X135699404Y-86653390D01*
X135699404Y-86653390D02*
X135127976Y-87224819D01*
X135127976Y-87224819D02*
X135747023Y-87224819D01*
X136699404Y-87224819D02*
X136127976Y-87224819D01*
X136413690Y-87224819D02*
X136413690Y-86224819D01*
X136413690Y-86224819D02*
X136318452Y-86367676D01*
X136318452Y-86367676D02*
X136223214Y-86462914D01*
X136223214Y-86462914D02*
X136127976Y-86510533D01*
X152840892Y-90974580D02*
X152793273Y-91022200D01*
X152793273Y-91022200D02*
X152650416Y-91069819D01*
X152650416Y-91069819D02*
X152555178Y-91069819D01*
X152555178Y-91069819D02*
X152412321Y-91022200D01*
X152412321Y-91022200D02*
X152317083Y-90926961D01*
X152317083Y-90926961D02*
X152269464Y-90831723D01*
X152269464Y-90831723D02*
X152221845Y-90641247D01*
X152221845Y-90641247D02*
X152221845Y-90498390D01*
X152221845Y-90498390D02*
X152269464Y-90307914D01*
X152269464Y-90307914D02*
X152317083Y-90212676D01*
X152317083Y-90212676D02*
X152412321Y-90117438D01*
X152412321Y-90117438D02*
X152555178Y-90069819D01*
X152555178Y-90069819D02*
X152650416Y-90069819D01*
X152650416Y-90069819D02*
X152793273Y-90117438D01*
X152793273Y-90117438D02*
X152840892Y-90165057D01*
X153174226Y-90069819D02*
X153793273Y-90069819D01*
X153793273Y-90069819D02*
X153459940Y-90450771D01*
X153459940Y-90450771D02*
X153602797Y-90450771D01*
X153602797Y-90450771D02*
X153698035Y-90498390D01*
X153698035Y-90498390D02*
X153745654Y-90546009D01*
X153745654Y-90546009D02*
X153793273Y-90641247D01*
X153793273Y-90641247D02*
X153793273Y-90879342D01*
X153793273Y-90879342D02*
X153745654Y-90974580D01*
X153745654Y-90974580D02*
X153698035Y-91022200D01*
X153698035Y-91022200D02*
X153602797Y-91069819D01*
X153602797Y-91069819D02*
X153317083Y-91069819D01*
X153317083Y-91069819D02*
X153221845Y-91022200D01*
X153221845Y-91022200D02*
X153174226Y-90974580D01*
X154412321Y-90069819D02*
X154507559Y-90069819D01*
X154507559Y-90069819D02*
X154602797Y-90117438D01*
X154602797Y-90117438D02*
X154650416Y-90165057D01*
X154650416Y-90165057D02*
X154698035Y-90260295D01*
X154698035Y-90260295D02*
X154745654Y-90450771D01*
X154745654Y-90450771D02*
X154745654Y-90688866D01*
X154745654Y-90688866D02*
X154698035Y-90879342D01*
X154698035Y-90879342D02*
X154650416Y-90974580D01*
X154650416Y-90974580D02*
X154602797Y-91022200D01*
X154602797Y-91022200D02*
X154507559Y-91069819D01*
X154507559Y-91069819D02*
X154412321Y-91069819D01*
X154412321Y-91069819D02*
X154317083Y-91022200D01*
X154317083Y-91022200D02*
X154269464Y-90974580D01*
X154269464Y-90974580D02*
X154221845Y-90879342D01*
X154221845Y-90879342D02*
X154174226Y-90688866D01*
X154174226Y-90688866D02*
X154174226Y-90450771D01*
X154174226Y-90450771D02*
X154221845Y-90260295D01*
X154221845Y-90260295D02*
X154269464Y-90165057D01*
X154269464Y-90165057D02*
X154317083Y-90117438D01*
X154317083Y-90117438D02*
X154412321Y-90069819D01*
X153238095Y-105174819D02*
X153238095Y-105984342D01*
X153238095Y-105984342D02*
X153285714Y-106079580D01*
X153285714Y-106079580D02*
X153333333Y-106127200D01*
X153333333Y-106127200D02*
X153428571Y-106174819D01*
X153428571Y-106174819D02*
X153619047Y-106174819D01*
X153619047Y-106174819D02*
X153714285Y-106127200D01*
X153714285Y-106127200D02*
X153761904Y-106079580D01*
X153761904Y-106079580D02*
X153809523Y-105984342D01*
X153809523Y-105984342D02*
X153809523Y-105174819D01*
X154714285Y-105508152D02*
X154714285Y-106174819D01*
X154476190Y-105127200D02*
X154238095Y-105841485D01*
X154238095Y-105841485D02*
X154857142Y-105841485D01*
X139583333Y-112479580D02*
X139535714Y-112527200D01*
X139535714Y-112527200D02*
X139392857Y-112574819D01*
X139392857Y-112574819D02*
X139297619Y-112574819D01*
X139297619Y-112574819D02*
X139154762Y-112527200D01*
X139154762Y-112527200D02*
X139059524Y-112431961D01*
X139059524Y-112431961D02*
X139011905Y-112336723D01*
X139011905Y-112336723D02*
X138964286Y-112146247D01*
X138964286Y-112146247D02*
X138964286Y-112003390D01*
X138964286Y-112003390D02*
X139011905Y-111812914D01*
X139011905Y-111812914D02*
X139059524Y-111717676D01*
X139059524Y-111717676D02*
X139154762Y-111622438D01*
X139154762Y-111622438D02*
X139297619Y-111574819D01*
X139297619Y-111574819D02*
X139392857Y-111574819D01*
X139392857Y-111574819D02*
X139535714Y-111622438D01*
X139535714Y-111622438D02*
X139583333Y-111670057D01*
X139916667Y-111574819D02*
X140583333Y-111574819D01*
X140583333Y-111574819D02*
X140154762Y-112574819D01*
X142535714Y-128784819D02*
X142535714Y-127784819D01*
X142535714Y-127784819D02*
X142916666Y-127784819D01*
X142916666Y-127784819D02*
X143011904Y-127832438D01*
X143011904Y-127832438D02*
X143059523Y-127880057D01*
X143059523Y-127880057D02*
X143107142Y-127975295D01*
X143107142Y-127975295D02*
X143107142Y-128118152D01*
X143107142Y-128118152D02*
X143059523Y-128213390D01*
X143059523Y-128213390D02*
X143011904Y-128261009D01*
X143011904Y-128261009D02*
X142916666Y-128308628D01*
X142916666Y-128308628D02*
X142535714Y-128308628D01*
X143488095Y-128737200D02*
X143630952Y-128784819D01*
X143630952Y-128784819D02*
X143869047Y-128784819D01*
X143869047Y-128784819D02*
X143964285Y-128737200D01*
X143964285Y-128737200D02*
X144011904Y-128689580D01*
X144011904Y-128689580D02*
X144059523Y-128594342D01*
X144059523Y-128594342D02*
X144059523Y-128499104D01*
X144059523Y-128499104D02*
X144011904Y-128403866D01*
X144011904Y-128403866D02*
X143964285Y-128356247D01*
X143964285Y-128356247D02*
X143869047Y-128308628D01*
X143869047Y-128308628D02*
X143678571Y-128261009D01*
X143678571Y-128261009D02*
X143583333Y-128213390D01*
X143583333Y-128213390D02*
X143535714Y-128165771D01*
X143535714Y-128165771D02*
X143488095Y-128070533D01*
X143488095Y-128070533D02*
X143488095Y-127975295D01*
X143488095Y-127975295D02*
X143535714Y-127880057D01*
X143535714Y-127880057D02*
X143583333Y-127832438D01*
X143583333Y-127832438D02*
X143678571Y-127784819D01*
X143678571Y-127784819D02*
X143916666Y-127784819D01*
X143916666Y-127784819D02*
X144059523Y-127832438D01*
X145011904Y-128784819D02*
X144440476Y-128784819D01*
X144726190Y-128784819D02*
X144726190Y-127784819D01*
X144726190Y-127784819D02*
X144630952Y-127927676D01*
X144630952Y-127927676D02*
X144535714Y-128022914D01*
X144535714Y-128022914D02*
X144440476Y-128070533D01*
X159979580Y-116742857D02*
X160027200Y-116790476D01*
X160027200Y-116790476D02*
X160074819Y-116933333D01*
X160074819Y-116933333D02*
X160074819Y-117028571D01*
X160074819Y-117028571D02*
X160027200Y-117171428D01*
X160027200Y-117171428D02*
X159931961Y-117266666D01*
X159931961Y-117266666D02*
X159836723Y-117314285D01*
X159836723Y-117314285D02*
X159646247Y-117361904D01*
X159646247Y-117361904D02*
X159503390Y-117361904D01*
X159503390Y-117361904D02*
X159312914Y-117314285D01*
X159312914Y-117314285D02*
X159217676Y-117266666D01*
X159217676Y-117266666D02*
X159122438Y-117171428D01*
X159122438Y-117171428D02*
X159074819Y-117028571D01*
X159074819Y-117028571D02*
X159074819Y-116933333D01*
X159074819Y-116933333D02*
X159122438Y-116790476D01*
X159122438Y-116790476D02*
X159170057Y-116742857D01*
X159170057Y-116361904D02*
X159122438Y-116314285D01*
X159122438Y-116314285D02*
X159074819Y-116219047D01*
X159074819Y-116219047D02*
X159074819Y-115980952D01*
X159074819Y-115980952D02*
X159122438Y-115885714D01*
X159122438Y-115885714D02*
X159170057Y-115838095D01*
X159170057Y-115838095D02*
X159265295Y-115790476D01*
X159265295Y-115790476D02*
X159360533Y-115790476D01*
X159360533Y-115790476D02*
X159503390Y-115838095D01*
X159503390Y-115838095D02*
X160074819Y-116409523D01*
X160074819Y-116409523D02*
X160074819Y-115790476D01*
X160074819Y-114838095D02*
X160074819Y-115409523D01*
X160074819Y-115123809D02*
X159074819Y-115123809D01*
X159074819Y-115123809D02*
X159217676Y-115219047D01*
X159217676Y-115219047D02*
X159312914Y-115314285D01*
X159312914Y-115314285D02*
X159360533Y-115409523D01*
X160559580Y-108802857D02*
X160607200Y-108850476D01*
X160607200Y-108850476D02*
X160654819Y-108993333D01*
X160654819Y-108993333D02*
X160654819Y-109088571D01*
X160654819Y-109088571D02*
X160607200Y-109231428D01*
X160607200Y-109231428D02*
X160511961Y-109326666D01*
X160511961Y-109326666D02*
X160416723Y-109374285D01*
X160416723Y-109374285D02*
X160226247Y-109421904D01*
X160226247Y-109421904D02*
X160083390Y-109421904D01*
X160083390Y-109421904D02*
X159892914Y-109374285D01*
X159892914Y-109374285D02*
X159797676Y-109326666D01*
X159797676Y-109326666D02*
X159702438Y-109231428D01*
X159702438Y-109231428D02*
X159654819Y-109088571D01*
X159654819Y-109088571D02*
X159654819Y-108993333D01*
X159654819Y-108993333D02*
X159702438Y-108850476D01*
X159702438Y-108850476D02*
X159750057Y-108802857D01*
X160654819Y-107850476D02*
X160654819Y-108421904D01*
X160654819Y-108136190D02*
X159654819Y-108136190D01*
X159654819Y-108136190D02*
X159797676Y-108231428D01*
X159797676Y-108231428D02*
X159892914Y-108326666D01*
X159892914Y-108326666D02*
X159940533Y-108421904D01*
X160654819Y-107374285D02*
X160654819Y-107183809D01*
X160654819Y-107183809D02*
X160607200Y-107088571D01*
X160607200Y-107088571D02*
X160559580Y-107040952D01*
X160559580Y-107040952D02*
X160416723Y-106945714D01*
X160416723Y-106945714D02*
X160226247Y-106898095D01*
X160226247Y-106898095D02*
X159845295Y-106898095D01*
X159845295Y-106898095D02*
X159750057Y-106945714D01*
X159750057Y-106945714D02*
X159702438Y-106993333D01*
X159702438Y-106993333D02*
X159654819Y-107088571D01*
X159654819Y-107088571D02*
X159654819Y-107279047D01*
X159654819Y-107279047D02*
X159702438Y-107374285D01*
X159702438Y-107374285D02*
X159750057Y-107421904D01*
X159750057Y-107421904D02*
X159845295Y-107469523D01*
X159845295Y-107469523D02*
X160083390Y-107469523D01*
X160083390Y-107469523D02*
X160178628Y-107421904D01*
X160178628Y-107421904D02*
X160226247Y-107374285D01*
X160226247Y-107374285D02*
X160273866Y-107279047D01*
X160273866Y-107279047D02*
X160273866Y-107088571D01*
X160273866Y-107088571D02*
X160226247Y-106993333D01*
X160226247Y-106993333D02*
X160178628Y-106945714D01*
X160178628Y-106945714D02*
X160083390Y-106898095D01*
X136047142Y-114584819D02*
X135713809Y-114108628D01*
X135475714Y-114584819D02*
X135475714Y-113584819D01*
X135475714Y-113584819D02*
X135856666Y-113584819D01*
X135856666Y-113584819D02*
X135951904Y-113632438D01*
X135951904Y-113632438D02*
X135999523Y-113680057D01*
X135999523Y-113680057D02*
X136047142Y-113775295D01*
X136047142Y-113775295D02*
X136047142Y-113918152D01*
X136047142Y-113918152D02*
X135999523Y-114013390D01*
X135999523Y-114013390D02*
X135951904Y-114061009D01*
X135951904Y-114061009D02*
X135856666Y-114108628D01*
X135856666Y-114108628D02*
X135475714Y-114108628D01*
X136999523Y-114584819D02*
X136428095Y-114584819D01*
X136713809Y-114584819D02*
X136713809Y-113584819D01*
X136713809Y-113584819D02*
X136618571Y-113727676D01*
X136618571Y-113727676D02*
X136523333Y-113822914D01*
X136523333Y-113822914D02*
X136428095Y-113870533D01*
X137856666Y-113918152D02*
X137856666Y-114584819D01*
X137618571Y-113537200D02*
X137380476Y-114251485D01*
X137380476Y-114251485D02*
X137999523Y-114251485D01*
X140230892Y-87134580D02*
X140183273Y-87182200D01*
X140183273Y-87182200D02*
X140040416Y-87229819D01*
X140040416Y-87229819D02*
X139945178Y-87229819D01*
X139945178Y-87229819D02*
X139802321Y-87182200D01*
X139802321Y-87182200D02*
X139707083Y-87086961D01*
X139707083Y-87086961D02*
X139659464Y-86991723D01*
X139659464Y-86991723D02*
X139611845Y-86801247D01*
X139611845Y-86801247D02*
X139611845Y-86658390D01*
X139611845Y-86658390D02*
X139659464Y-86467914D01*
X139659464Y-86467914D02*
X139707083Y-86372676D01*
X139707083Y-86372676D02*
X139802321Y-86277438D01*
X139802321Y-86277438D02*
X139945178Y-86229819D01*
X139945178Y-86229819D02*
X140040416Y-86229819D01*
X140040416Y-86229819D02*
X140183273Y-86277438D01*
X140183273Y-86277438D02*
X140230892Y-86325057D01*
X140611845Y-86325057D02*
X140659464Y-86277438D01*
X140659464Y-86277438D02*
X140754702Y-86229819D01*
X140754702Y-86229819D02*
X140992797Y-86229819D01*
X140992797Y-86229819D02*
X141088035Y-86277438D01*
X141088035Y-86277438D02*
X141135654Y-86325057D01*
X141135654Y-86325057D02*
X141183273Y-86420295D01*
X141183273Y-86420295D02*
X141183273Y-86515533D01*
X141183273Y-86515533D02*
X141135654Y-86658390D01*
X141135654Y-86658390D02*
X140564226Y-87229819D01*
X140564226Y-87229819D02*
X141183273Y-87229819D01*
X141754702Y-86658390D02*
X141659464Y-86610771D01*
X141659464Y-86610771D02*
X141611845Y-86563152D01*
X141611845Y-86563152D02*
X141564226Y-86467914D01*
X141564226Y-86467914D02*
X141564226Y-86420295D01*
X141564226Y-86420295D02*
X141611845Y-86325057D01*
X141611845Y-86325057D02*
X141659464Y-86277438D01*
X141659464Y-86277438D02*
X141754702Y-86229819D01*
X141754702Y-86229819D02*
X141945178Y-86229819D01*
X141945178Y-86229819D02*
X142040416Y-86277438D01*
X142040416Y-86277438D02*
X142088035Y-86325057D01*
X142088035Y-86325057D02*
X142135654Y-86420295D01*
X142135654Y-86420295D02*
X142135654Y-86467914D01*
X142135654Y-86467914D02*
X142088035Y-86563152D01*
X142088035Y-86563152D02*
X142040416Y-86610771D01*
X142040416Y-86610771D02*
X141945178Y-86658390D01*
X141945178Y-86658390D02*
X141754702Y-86658390D01*
X141754702Y-86658390D02*
X141659464Y-86706009D01*
X141659464Y-86706009D02*
X141611845Y-86753628D01*
X141611845Y-86753628D02*
X141564226Y-86848866D01*
X141564226Y-86848866D02*
X141564226Y-87039342D01*
X141564226Y-87039342D02*
X141611845Y-87134580D01*
X141611845Y-87134580D02*
X141659464Y-87182200D01*
X141659464Y-87182200D02*
X141754702Y-87229819D01*
X141754702Y-87229819D02*
X141945178Y-87229819D01*
X141945178Y-87229819D02*
X142040416Y-87182200D01*
X142040416Y-87182200D02*
X142088035Y-87134580D01*
X142088035Y-87134580D02*
X142135654Y-87039342D01*
X142135654Y-87039342D02*
X142135654Y-86848866D01*
X142135654Y-86848866D02*
X142088035Y-86753628D01*
X142088035Y-86753628D02*
X142040416Y-86706009D01*
X142040416Y-86706009D02*
X141945178Y-86658390D01*
X157550892Y-97564580D02*
X157503273Y-97612200D01*
X157503273Y-97612200D02*
X157360416Y-97659819D01*
X157360416Y-97659819D02*
X157265178Y-97659819D01*
X157265178Y-97659819D02*
X157122321Y-97612200D01*
X157122321Y-97612200D02*
X157027083Y-97516961D01*
X157027083Y-97516961D02*
X156979464Y-97421723D01*
X156979464Y-97421723D02*
X156931845Y-97231247D01*
X156931845Y-97231247D02*
X156931845Y-97088390D01*
X156931845Y-97088390D02*
X156979464Y-96897914D01*
X156979464Y-96897914D02*
X157027083Y-96802676D01*
X157027083Y-96802676D02*
X157122321Y-96707438D01*
X157122321Y-96707438D02*
X157265178Y-96659819D01*
X157265178Y-96659819D02*
X157360416Y-96659819D01*
X157360416Y-96659819D02*
X157503273Y-96707438D01*
X157503273Y-96707438D02*
X157550892Y-96755057D01*
X157884226Y-96659819D02*
X158503273Y-96659819D01*
X158503273Y-96659819D02*
X158169940Y-97040771D01*
X158169940Y-97040771D02*
X158312797Y-97040771D01*
X158312797Y-97040771D02*
X158408035Y-97088390D01*
X158408035Y-97088390D02*
X158455654Y-97136009D01*
X158455654Y-97136009D02*
X158503273Y-97231247D01*
X158503273Y-97231247D02*
X158503273Y-97469342D01*
X158503273Y-97469342D02*
X158455654Y-97564580D01*
X158455654Y-97564580D02*
X158408035Y-97612200D01*
X158408035Y-97612200D02*
X158312797Y-97659819D01*
X158312797Y-97659819D02*
X158027083Y-97659819D01*
X158027083Y-97659819D02*
X157931845Y-97612200D01*
X157931845Y-97612200D02*
X157884226Y-97564580D01*
X159455654Y-97659819D02*
X158884226Y-97659819D01*
X159169940Y-97659819D02*
X159169940Y-96659819D01*
X159169940Y-96659819D02*
X159074702Y-96802676D01*
X159074702Y-96802676D02*
X158979464Y-96897914D01*
X158979464Y-96897914D02*
X158884226Y-96945533D01*
X130176666Y-86304819D02*
X130176666Y-87019104D01*
X130176666Y-87019104D02*
X130129047Y-87161961D01*
X130129047Y-87161961D02*
X130033809Y-87257200D01*
X130033809Y-87257200D02*
X129890952Y-87304819D01*
X129890952Y-87304819D02*
X129795714Y-87304819D01*
X130557619Y-86304819D02*
X131176666Y-86304819D01*
X131176666Y-86304819D02*
X130843333Y-86685771D01*
X130843333Y-86685771D02*
X130986190Y-86685771D01*
X130986190Y-86685771D02*
X131081428Y-86733390D01*
X131081428Y-86733390D02*
X131129047Y-86781009D01*
X131129047Y-86781009D02*
X131176666Y-86876247D01*
X131176666Y-86876247D02*
X131176666Y-87114342D01*
X131176666Y-87114342D02*
X131129047Y-87209580D01*
X131129047Y-87209580D02*
X131081428Y-87257200D01*
X131081428Y-87257200D02*
X130986190Y-87304819D01*
X130986190Y-87304819D02*
X130700476Y-87304819D01*
X130700476Y-87304819D02*
X130605238Y-87257200D01*
X130605238Y-87257200D02*
X130557619Y-87209580D01*
X153689580Y-116802857D02*
X153737200Y-116850476D01*
X153737200Y-116850476D02*
X153784819Y-116993333D01*
X153784819Y-116993333D02*
X153784819Y-117088571D01*
X153784819Y-117088571D02*
X153737200Y-117231428D01*
X153737200Y-117231428D02*
X153641961Y-117326666D01*
X153641961Y-117326666D02*
X153546723Y-117374285D01*
X153546723Y-117374285D02*
X153356247Y-117421904D01*
X153356247Y-117421904D02*
X153213390Y-117421904D01*
X153213390Y-117421904D02*
X153022914Y-117374285D01*
X153022914Y-117374285D02*
X152927676Y-117326666D01*
X152927676Y-117326666D02*
X152832438Y-117231428D01*
X152832438Y-117231428D02*
X152784819Y-117088571D01*
X152784819Y-117088571D02*
X152784819Y-116993333D01*
X152784819Y-116993333D02*
X152832438Y-116850476D01*
X152832438Y-116850476D02*
X152880057Y-116802857D01*
X152880057Y-116421904D02*
X152832438Y-116374285D01*
X152832438Y-116374285D02*
X152784819Y-116279047D01*
X152784819Y-116279047D02*
X152784819Y-116040952D01*
X152784819Y-116040952D02*
X152832438Y-115945714D01*
X152832438Y-115945714D02*
X152880057Y-115898095D01*
X152880057Y-115898095D02*
X152975295Y-115850476D01*
X152975295Y-115850476D02*
X153070533Y-115850476D01*
X153070533Y-115850476D02*
X153213390Y-115898095D01*
X153213390Y-115898095D02*
X153784819Y-116469523D01*
X153784819Y-116469523D02*
X153784819Y-115850476D01*
X152784819Y-115231428D02*
X152784819Y-115136190D01*
X152784819Y-115136190D02*
X152832438Y-115040952D01*
X152832438Y-115040952D02*
X152880057Y-114993333D01*
X152880057Y-114993333D02*
X152975295Y-114945714D01*
X152975295Y-114945714D02*
X153165771Y-114898095D01*
X153165771Y-114898095D02*
X153403866Y-114898095D01*
X153403866Y-114898095D02*
X153594342Y-114945714D01*
X153594342Y-114945714D02*
X153689580Y-114993333D01*
X153689580Y-114993333D02*
X153737200Y-115040952D01*
X153737200Y-115040952D02*
X153784819Y-115136190D01*
X153784819Y-115136190D02*
X153784819Y-115231428D01*
X153784819Y-115231428D02*
X153737200Y-115326666D01*
X153737200Y-115326666D02*
X153689580Y-115374285D01*
X153689580Y-115374285D02*
X153594342Y-115421904D01*
X153594342Y-115421904D02*
X153403866Y-115469523D01*
X153403866Y-115469523D02*
X153165771Y-115469523D01*
X153165771Y-115469523D02*
X152975295Y-115421904D01*
X152975295Y-115421904D02*
X152880057Y-115374285D01*
X152880057Y-115374285D02*
X152832438Y-115326666D01*
X152832438Y-115326666D02*
X152784819Y-115231428D01*
X150189642Y-102299580D02*
X150142023Y-102347200D01*
X150142023Y-102347200D02*
X149999166Y-102394819D01*
X149999166Y-102394819D02*
X149903928Y-102394819D01*
X149903928Y-102394819D02*
X149761071Y-102347200D01*
X149761071Y-102347200D02*
X149665833Y-102251961D01*
X149665833Y-102251961D02*
X149618214Y-102156723D01*
X149618214Y-102156723D02*
X149570595Y-101966247D01*
X149570595Y-101966247D02*
X149570595Y-101823390D01*
X149570595Y-101823390D02*
X149618214Y-101632914D01*
X149618214Y-101632914D02*
X149665833Y-101537676D01*
X149665833Y-101537676D02*
X149761071Y-101442438D01*
X149761071Y-101442438D02*
X149903928Y-101394819D01*
X149903928Y-101394819D02*
X149999166Y-101394819D01*
X149999166Y-101394819D02*
X150142023Y-101442438D01*
X150142023Y-101442438D02*
X150189642Y-101490057D01*
X151142023Y-102394819D02*
X150570595Y-102394819D01*
X150856309Y-102394819D02*
X150856309Y-101394819D01*
X150856309Y-101394819D02*
X150761071Y-101537676D01*
X150761071Y-101537676D02*
X150665833Y-101632914D01*
X150665833Y-101632914D02*
X150570595Y-101680533D01*
X152094404Y-102394819D02*
X151522976Y-102394819D01*
X151808690Y-102394819D02*
X151808690Y-101394819D01*
X151808690Y-101394819D02*
X151713452Y-101537676D01*
X151713452Y-101537676D02*
X151618214Y-101632914D01*
X151618214Y-101632914D02*
X151522976Y-101680533D01*
X152944819Y-124238094D02*
X151944819Y-124238094D01*
X151944819Y-124238094D02*
X151944819Y-123999999D01*
X151944819Y-123999999D02*
X151992438Y-123857142D01*
X151992438Y-123857142D02*
X152087676Y-123761904D01*
X152087676Y-123761904D02*
X152182914Y-123714285D01*
X152182914Y-123714285D02*
X152373390Y-123666666D01*
X152373390Y-123666666D02*
X152516247Y-123666666D01*
X152516247Y-123666666D02*
X152706723Y-123714285D01*
X152706723Y-123714285D02*
X152801961Y-123761904D01*
X152801961Y-123761904D02*
X152897200Y-123857142D01*
X152897200Y-123857142D02*
X152944819Y-123999999D01*
X152944819Y-123999999D02*
X152944819Y-124238094D01*
X151944819Y-123333332D02*
X151944819Y-122714285D01*
X151944819Y-122714285D02*
X152325771Y-123047618D01*
X152325771Y-123047618D02*
X152325771Y-122904761D01*
X152325771Y-122904761D02*
X152373390Y-122809523D01*
X152373390Y-122809523D02*
X152421009Y-122761904D01*
X152421009Y-122761904D02*
X152516247Y-122714285D01*
X152516247Y-122714285D02*
X152754342Y-122714285D01*
X152754342Y-122714285D02*
X152849580Y-122761904D01*
X152849580Y-122761904D02*
X152897200Y-122809523D01*
X152897200Y-122809523D02*
X152944819Y-122904761D01*
X152944819Y-122904761D02*
X152944819Y-123190475D01*
X152944819Y-123190475D02*
X152897200Y-123285713D01*
X152897200Y-123285713D02*
X152849580Y-123333332D01*
X126437142Y-106254819D02*
X126103809Y-105778628D01*
X125865714Y-106254819D02*
X125865714Y-105254819D01*
X125865714Y-105254819D02*
X126246666Y-105254819D01*
X126246666Y-105254819D02*
X126341904Y-105302438D01*
X126341904Y-105302438D02*
X126389523Y-105350057D01*
X126389523Y-105350057D02*
X126437142Y-105445295D01*
X126437142Y-105445295D02*
X126437142Y-105588152D01*
X126437142Y-105588152D02*
X126389523Y-105683390D01*
X126389523Y-105683390D02*
X126341904Y-105731009D01*
X126341904Y-105731009D02*
X126246666Y-105778628D01*
X126246666Y-105778628D02*
X125865714Y-105778628D01*
X127389523Y-106254819D02*
X126818095Y-106254819D01*
X127103809Y-106254819D02*
X127103809Y-105254819D01*
X127103809Y-105254819D02*
X127008571Y-105397676D01*
X127008571Y-105397676D02*
X126913333Y-105492914D01*
X126913333Y-105492914D02*
X126818095Y-105540533D01*
X127770476Y-105350057D02*
X127818095Y-105302438D01*
X127818095Y-105302438D02*
X127913333Y-105254819D01*
X127913333Y-105254819D02*
X128151428Y-105254819D01*
X128151428Y-105254819D02*
X128246666Y-105302438D01*
X128246666Y-105302438D02*
X128294285Y-105350057D01*
X128294285Y-105350057D02*
X128341904Y-105445295D01*
X128341904Y-105445295D02*
X128341904Y-105540533D01*
X128341904Y-105540533D02*
X128294285Y-105683390D01*
X128294285Y-105683390D02*
X127722857Y-106254819D01*
X127722857Y-106254819D02*
X128341904Y-106254819D01*
X127994819Y-113782857D02*
X127518628Y-114116190D01*
X127994819Y-114354285D02*
X126994819Y-114354285D01*
X126994819Y-114354285D02*
X126994819Y-113973333D01*
X126994819Y-113973333D02*
X127042438Y-113878095D01*
X127042438Y-113878095D02*
X127090057Y-113830476D01*
X127090057Y-113830476D02*
X127185295Y-113782857D01*
X127185295Y-113782857D02*
X127328152Y-113782857D01*
X127328152Y-113782857D02*
X127423390Y-113830476D01*
X127423390Y-113830476D02*
X127471009Y-113878095D01*
X127471009Y-113878095D02*
X127518628Y-113973333D01*
X127518628Y-113973333D02*
X127518628Y-114354285D01*
X127994819Y-112830476D02*
X127994819Y-113401904D01*
X127994819Y-113116190D02*
X126994819Y-113116190D01*
X126994819Y-113116190D02*
X127137676Y-113211428D01*
X127137676Y-113211428D02*
X127232914Y-113306666D01*
X127232914Y-113306666D02*
X127280533Y-113401904D01*
X127994819Y-111878095D02*
X127994819Y-112449523D01*
X127994819Y-112163809D02*
X126994819Y-112163809D01*
X126994819Y-112163809D02*
X127137676Y-112259047D01*
X127137676Y-112259047D02*
X127232914Y-112354285D01*
X127232914Y-112354285D02*
X127280533Y-112449523D01*
X133422080Y-90992857D02*
X133469700Y-91040476D01*
X133469700Y-91040476D02*
X133517319Y-91183333D01*
X133517319Y-91183333D02*
X133517319Y-91278571D01*
X133517319Y-91278571D02*
X133469700Y-91421428D01*
X133469700Y-91421428D02*
X133374461Y-91516666D01*
X133374461Y-91516666D02*
X133279223Y-91564285D01*
X133279223Y-91564285D02*
X133088747Y-91611904D01*
X133088747Y-91611904D02*
X132945890Y-91611904D01*
X132945890Y-91611904D02*
X132755414Y-91564285D01*
X132755414Y-91564285D02*
X132660176Y-91516666D01*
X132660176Y-91516666D02*
X132564938Y-91421428D01*
X132564938Y-91421428D02*
X132517319Y-91278571D01*
X132517319Y-91278571D02*
X132517319Y-91183333D01*
X132517319Y-91183333D02*
X132564938Y-91040476D01*
X132564938Y-91040476D02*
X132612557Y-90992857D01*
X132612557Y-90611904D02*
X132564938Y-90564285D01*
X132564938Y-90564285D02*
X132517319Y-90469047D01*
X132517319Y-90469047D02*
X132517319Y-90230952D01*
X132517319Y-90230952D02*
X132564938Y-90135714D01*
X132564938Y-90135714D02*
X132612557Y-90088095D01*
X132612557Y-90088095D02*
X132707795Y-90040476D01*
X132707795Y-90040476D02*
X132803033Y-90040476D01*
X132803033Y-90040476D02*
X132945890Y-90088095D01*
X132945890Y-90088095D02*
X133517319Y-90659523D01*
X133517319Y-90659523D02*
X133517319Y-90040476D01*
X132850652Y-89183333D02*
X133517319Y-89183333D01*
X132469700Y-89421428D02*
X133183985Y-89659523D01*
X133183985Y-89659523D02*
X133183985Y-89040476D01*
X151718569Y-97721666D02*
X151718569Y-98197856D01*
X151718569Y-98197856D02*
X150718569Y-98197856D01*
X150718569Y-96959761D02*
X150718569Y-97150237D01*
X150718569Y-97150237D02*
X150766188Y-97245475D01*
X150766188Y-97245475D02*
X150813807Y-97293094D01*
X150813807Y-97293094D02*
X150956664Y-97388332D01*
X150956664Y-97388332D02*
X151147140Y-97435951D01*
X151147140Y-97435951D02*
X151528092Y-97435951D01*
X151528092Y-97435951D02*
X151623330Y-97388332D01*
X151623330Y-97388332D02*
X151670950Y-97340713D01*
X151670950Y-97340713D02*
X151718569Y-97245475D01*
X151718569Y-97245475D02*
X151718569Y-97054999D01*
X151718569Y-97054999D02*
X151670950Y-96959761D01*
X151670950Y-96959761D02*
X151623330Y-96912142D01*
X151623330Y-96912142D02*
X151528092Y-96864523D01*
X151528092Y-96864523D02*
X151289997Y-96864523D01*
X151289997Y-96864523D02*
X151194759Y-96912142D01*
X151194759Y-96912142D02*
X151147140Y-96959761D01*
X151147140Y-96959761D02*
X151099521Y-97054999D01*
X151099521Y-97054999D02*
X151099521Y-97245475D01*
X151099521Y-97245475D02*
X151147140Y-97340713D01*
X151147140Y-97340713D02*
X151194759Y-97388332D01*
X151194759Y-97388332D02*
X151289997Y-97435951D01*
X138199580Y-120922857D02*
X138247200Y-120970476D01*
X138247200Y-120970476D02*
X138294819Y-121113333D01*
X138294819Y-121113333D02*
X138294819Y-121208571D01*
X138294819Y-121208571D02*
X138247200Y-121351428D01*
X138247200Y-121351428D02*
X138151961Y-121446666D01*
X138151961Y-121446666D02*
X138056723Y-121494285D01*
X138056723Y-121494285D02*
X137866247Y-121541904D01*
X137866247Y-121541904D02*
X137723390Y-121541904D01*
X137723390Y-121541904D02*
X137532914Y-121494285D01*
X137532914Y-121494285D02*
X137437676Y-121446666D01*
X137437676Y-121446666D02*
X137342438Y-121351428D01*
X137342438Y-121351428D02*
X137294819Y-121208571D01*
X137294819Y-121208571D02*
X137294819Y-121113333D01*
X137294819Y-121113333D02*
X137342438Y-120970476D01*
X137342438Y-120970476D02*
X137390057Y-120922857D01*
X138294819Y-119970476D02*
X138294819Y-120541904D01*
X138294819Y-120256190D02*
X137294819Y-120256190D01*
X137294819Y-120256190D02*
X137437676Y-120351428D01*
X137437676Y-120351428D02*
X137532914Y-120446666D01*
X137532914Y-120446666D02*
X137580533Y-120541904D01*
X137723390Y-119399047D02*
X137675771Y-119494285D01*
X137675771Y-119494285D02*
X137628152Y-119541904D01*
X137628152Y-119541904D02*
X137532914Y-119589523D01*
X137532914Y-119589523D02*
X137485295Y-119589523D01*
X137485295Y-119589523D02*
X137390057Y-119541904D01*
X137390057Y-119541904D02*
X137342438Y-119494285D01*
X137342438Y-119494285D02*
X137294819Y-119399047D01*
X137294819Y-119399047D02*
X137294819Y-119208571D01*
X137294819Y-119208571D02*
X137342438Y-119113333D01*
X137342438Y-119113333D02*
X137390057Y-119065714D01*
X137390057Y-119065714D02*
X137485295Y-119018095D01*
X137485295Y-119018095D02*
X137532914Y-119018095D01*
X137532914Y-119018095D02*
X137628152Y-119065714D01*
X137628152Y-119065714D02*
X137675771Y-119113333D01*
X137675771Y-119113333D02*
X137723390Y-119208571D01*
X137723390Y-119208571D02*
X137723390Y-119399047D01*
X137723390Y-119399047D02*
X137771009Y-119494285D01*
X137771009Y-119494285D02*
X137818628Y-119541904D01*
X137818628Y-119541904D02*
X137913866Y-119589523D01*
X137913866Y-119589523D02*
X138104342Y-119589523D01*
X138104342Y-119589523D02*
X138199580Y-119541904D01*
X138199580Y-119541904D02*
X138247200Y-119494285D01*
X138247200Y-119494285D02*
X138294819Y-119399047D01*
X138294819Y-119399047D02*
X138294819Y-119208571D01*
X138294819Y-119208571D02*
X138247200Y-119113333D01*
X138247200Y-119113333D02*
X138199580Y-119065714D01*
X138199580Y-119065714D02*
X138104342Y-119018095D01*
X138104342Y-119018095D02*
X137913866Y-119018095D01*
X137913866Y-119018095D02*
X137818628Y-119065714D01*
X137818628Y-119065714D02*
X137771009Y-119113333D01*
X137771009Y-119113333D02*
X137723390Y-119208571D01*
X141767142Y-119114819D02*
X141433809Y-118638628D01*
X141195714Y-119114819D02*
X141195714Y-118114819D01*
X141195714Y-118114819D02*
X141576666Y-118114819D01*
X141576666Y-118114819D02*
X141671904Y-118162438D01*
X141671904Y-118162438D02*
X141719523Y-118210057D01*
X141719523Y-118210057D02*
X141767142Y-118305295D01*
X141767142Y-118305295D02*
X141767142Y-118448152D01*
X141767142Y-118448152D02*
X141719523Y-118543390D01*
X141719523Y-118543390D02*
X141671904Y-118591009D01*
X141671904Y-118591009D02*
X141576666Y-118638628D01*
X141576666Y-118638628D02*
X141195714Y-118638628D01*
X142719523Y-119114819D02*
X142148095Y-119114819D01*
X142433809Y-119114819D02*
X142433809Y-118114819D01*
X142433809Y-118114819D02*
X142338571Y-118257676D01*
X142338571Y-118257676D02*
X142243333Y-118352914D01*
X142243333Y-118352914D02*
X142148095Y-118400533D01*
X143195714Y-119114819D02*
X143386190Y-119114819D01*
X143386190Y-119114819D02*
X143481428Y-119067200D01*
X143481428Y-119067200D02*
X143529047Y-119019580D01*
X143529047Y-119019580D02*
X143624285Y-118876723D01*
X143624285Y-118876723D02*
X143671904Y-118686247D01*
X143671904Y-118686247D02*
X143671904Y-118305295D01*
X143671904Y-118305295D02*
X143624285Y-118210057D01*
X143624285Y-118210057D02*
X143576666Y-118162438D01*
X143576666Y-118162438D02*
X143481428Y-118114819D01*
X143481428Y-118114819D02*
X143290952Y-118114819D01*
X143290952Y-118114819D02*
X143195714Y-118162438D01*
X143195714Y-118162438D02*
X143148095Y-118210057D01*
X143148095Y-118210057D02*
X143100476Y-118305295D01*
X143100476Y-118305295D02*
X143100476Y-118543390D01*
X143100476Y-118543390D02*
X143148095Y-118638628D01*
X143148095Y-118638628D02*
X143195714Y-118686247D01*
X143195714Y-118686247D02*
X143290952Y-118733866D01*
X143290952Y-118733866D02*
X143481428Y-118733866D01*
X143481428Y-118733866D02*
X143576666Y-118686247D01*
X143576666Y-118686247D02*
X143624285Y-118638628D01*
X143624285Y-118638628D02*
X143671904Y-118543390D01*
X138817142Y-116014819D02*
X138483809Y-115538628D01*
X138245714Y-116014819D02*
X138245714Y-115014819D01*
X138245714Y-115014819D02*
X138626666Y-115014819D01*
X138626666Y-115014819D02*
X138721904Y-115062438D01*
X138721904Y-115062438D02*
X138769523Y-115110057D01*
X138769523Y-115110057D02*
X138817142Y-115205295D01*
X138817142Y-115205295D02*
X138817142Y-115348152D01*
X138817142Y-115348152D02*
X138769523Y-115443390D01*
X138769523Y-115443390D02*
X138721904Y-115491009D01*
X138721904Y-115491009D02*
X138626666Y-115538628D01*
X138626666Y-115538628D02*
X138245714Y-115538628D01*
X139769523Y-116014819D02*
X139198095Y-116014819D01*
X139483809Y-116014819D02*
X139483809Y-115014819D01*
X139483809Y-115014819D02*
X139388571Y-115157676D01*
X139388571Y-115157676D02*
X139293333Y-115252914D01*
X139293333Y-115252914D02*
X139198095Y-115300533D01*
X140102857Y-115014819D02*
X140721904Y-115014819D01*
X140721904Y-115014819D02*
X140388571Y-115395771D01*
X140388571Y-115395771D02*
X140531428Y-115395771D01*
X140531428Y-115395771D02*
X140626666Y-115443390D01*
X140626666Y-115443390D02*
X140674285Y-115491009D01*
X140674285Y-115491009D02*
X140721904Y-115586247D01*
X140721904Y-115586247D02*
X140721904Y-115824342D01*
X140721904Y-115824342D02*
X140674285Y-115919580D01*
X140674285Y-115919580D02*
X140626666Y-115967200D01*
X140626666Y-115967200D02*
X140531428Y-116014819D01*
X140531428Y-116014819D02*
X140245714Y-116014819D01*
X140245714Y-116014819D02*
X140150476Y-115967200D01*
X140150476Y-115967200D02*
X140102857Y-115919580D01*
X127093333Y-104579580D02*
X127045714Y-104627200D01*
X127045714Y-104627200D02*
X126902857Y-104674819D01*
X126902857Y-104674819D02*
X126807619Y-104674819D01*
X126807619Y-104674819D02*
X126664762Y-104627200D01*
X126664762Y-104627200D02*
X126569524Y-104531961D01*
X126569524Y-104531961D02*
X126521905Y-104436723D01*
X126521905Y-104436723D02*
X126474286Y-104246247D01*
X126474286Y-104246247D02*
X126474286Y-104103390D01*
X126474286Y-104103390D02*
X126521905Y-103912914D01*
X126521905Y-103912914D02*
X126569524Y-103817676D01*
X126569524Y-103817676D02*
X126664762Y-103722438D01*
X126664762Y-103722438D02*
X126807619Y-103674819D01*
X126807619Y-103674819D02*
X126902857Y-103674819D01*
X126902857Y-103674819D02*
X127045714Y-103722438D01*
X127045714Y-103722438D02*
X127093333Y-103770057D01*
X127950476Y-103674819D02*
X127760000Y-103674819D01*
X127760000Y-103674819D02*
X127664762Y-103722438D01*
X127664762Y-103722438D02*
X127617143Y-103770057D01*
X127617143Y-103770057D02*
X127521905Y-103912914D01*
X127521905Y-103912914D02*
X127474286Y-104103390D01*
X127474286Y-104103390D02*
X127474286Y-104484342D01*
X127474286Y-104484342D02*
X127521905Y-104579580D01*
X127521905Y-104579580D02*
X127569524Y-104627200D01*
X127569524Y-104627200D02*
X127664762Y-104674819D01*
X127664762Y-104674819D02*
X127855238Y-104674819D01*
X127855238Y-104674819D02*
X127950476Y-104627200D01*
X127950476Y-104627200D02*
X127998095Y-104579580D01*
X127998095Y-104579580D02*
X128045714Y-104484342D01*
X128045714Y-104484342D02*
X128045714Y-104246247D01*
X128045714Y-104246247D02*
X127998095Y-104151009D01*
X127998095Y-104151009D02*
X127950476Y-104103390D01*
X127950476Y-104103390D02*
X127855238Y-104055771D01*
X127855238Y-104055771D02*
X127664762Y-104055771D01*
X127664762Y-104055771D02*
X127569524Y-104103390D01*
X127569524Y-104103390D02*
X127521905Y-104151009D01*
X127521905Y-104151009D02*
X127474286Y-104246247D01*
X140103333Y-93584819D02*
X139770000Y-93108628D01*
X139531905Y-93584819D02*
X139531905Y-92584819D01*
X139531905Y-92584819D02*
X139912857Y-92584819D01*
X139912857Y-92584819D02*
X140008095Y-92632438D01*
X140008095Y-92632438D02*
X140055714Y-92680057D01*
X140055714Y-92680057D02*
X140103333Y-92775295D01*
X140103333Y-92775295D02*
X140103333Y-92918152D01*
X140103333Y-92918152D02*
X140055714Y-93013390D01*
X140055714Y-93013390D02*
X140008095Y-93061009D01*
X140008095Y-93061009D02*
X139912857Y-93108628D01*
X139912857Y-93108628D02*
X139531905Y-93108628D01*
X140436667Y-92584819D02*
X141103333Y-92584819D01*
X141103333Y-92584819D02*
X140674762Y-93584819D01*
X143900892Y-87024580D02*
X143853273Y-87072200D01*
X143853273Y-87072200D02*
X143710416Y-87119819D01*
X143710416Y-87119819D02*
X143615178Y-87119819D01*
X143615178Y-87119819D02*
X143472321Y-87072200D01*
X143472321Y-87072200D02*
X143377083Y-86976961D01*
X143377083Y-86976961D02*
X143329464Y-86881723D01*
X143329464Y-86881723D02*
X143281845Y-86691247D01*
X143281845Y-86691247D02*
X143281845Y-86548390D01*
X143281845Y-86548390D02*
X143329464Y-86357914D01*
X143329464Y-86357914D02*
X143377083Y-86262676D01*
X143377083Y-86262676D02*
X143472321Y-86167438D01*
X143472321Y-86167438D02*
X143615178Y-86119819D01*
X143615178Y-86119819D02*
X143710416Y-86119819D01*
X143710416Y-86119819D02*
X143853273Y-86167438D01*
X143853273Y-86167438D02*
X143900892Y-86215057D01*
X144281845Y-86215057D02*
X144329464Y-86167438D01*
X144329464Y-86167438D02*
X144424702Y-86119819D01*
X144424702Y-86119819D02*
X144662797Y-86119819D01*
X144662797Y-86119819D02*
X144758035Y-86167438D01*
X144758035Y-86167438D02*
X144805654Y-86215057D01*
X144805654Y-86215057D02*
X144853273Y-86310295D01*
X144853273Y-86310295D02*
X144853273Y-86405533D01*
X144853273Y-86405533D02*
X144805654Y-86548390D01*
X144805654Y-86548390D02*
X144234226Y-87119819D01*
X144234226Y-87119819D02*
X144853273Y-87119819D01*
X145710416Y-86119819D02*
X145519940Y-86119819D01*
X145519940Y-86119819D02*
X145424702Y-86167438D01*
X145424702Y-86167438D02*
X145377083Y-86215057D01*
X145377083Y-86215057D02*
X145281845Y-86357914D01*
X145281845Y-86357914D02*
X145234226Y-86548390D01*
X145234226Y-86548390D02*
X145234226Y-86929342D01*
X145234226Y-86929342D02*
X145281845Y-87024580D01*
X145281845Y-87024580D02*
X145329464Y-87072200D01*
X145329464Y-87072200D02*
X145424702Y-87119819D01*
X145424702Y-87119819D02*
X145615178Y-87119819D01*
X145615178Y-87119819D02*
X145710416Y-87072200D01*
X145710416Y-87072200D02*
X145758035Y-87024580D01*
X145758035Y-87024580D02*
X145805654Y-86929342D01*
X145805654Y-86929342D02*
X145805654Y-86691247D01*
X145805654Y-86691247D02*
X145758035Y-86596009D01*
X145758035Y-86596009D02*
X145710416Y-86548390D01*
X145710416Y-86548390D02*
X145615178Y-86500771D01*
X145615178Y-86500771D02*
X145424702Y-86500771D01*
X145424702Y-86500771D02*
X145329464Y-86548390D01*
X145329464Y-86548390D02*
X145281845Y-86596009D01*
X145281845Y-86596009D02*
X145234226Y-86691247D01*
X136147142Y-112929580D02*
X136099523Y-112977200D01*
X136099523Y-112977200D02*
X135956666Y-113024819D01*
X135956666Y-113024819D02*
X135861428Y-113024819D01*
X135861428Y-113024819D02*
X135718571Y-112977200D01*
X135718571Y-112977200D02*
X135623333Y-112881961D01*
X135623333Y-112881961D02*
X135575714Y-112786723D01*
X135575714Y-112786723D02*
X135528095Y-112596247D01*
X135528095Y-112596247D02*
X135528095Y-112453390D01*
X135528095Y-112453390D02*
X135575714Y-112262914D01*
X135575714Y-112262914D02*
X135623333Y-112167676D01*
X135623333Y-112167676D02*
X135718571Y-112072438D01*
X135718571Y-112072438D02*
X135861428Y-112024819D01*
X135861428Y-112024819D02*
X135956666Y-112024819D01*
X135956666Y-112024819D02*
X136099523Y-112072438D01*
X136099523Y-112072438D02*
X136147142Y-112120057D01*
X137099523Y-113024819D02*
X136528095Y-113024819D01*
X136813809Y-113024819D02*
X136813809Y-112024819D01*
X136813809Y-112024819D02*
X136718571Y-112167676D01*
X136718571Y-112167676D02*
X136623333Y-112262914D01*
X136623333Y-112262914D02*
X136528095Y-112310533D01*
X137432857Y-112024819D02*
X138099523Y-112024819D01*
X138099523Y-112024819D02*
X137670952Y-113024819D01*
X158330892Y-99604580D02*
X158283273Y-99652200D01*
X158283273Y-99652200D02*
X158140416Y-99699819D01*
X158140416Y-99699819D02*
X158045178Y-99699819D01*
X158045178Y-99699819D02*
X157902321Y-99652200D01*
X157902321Y-99652200D02*
X157807083Y-99556961D01*
X157807083Y-99556961D02*
X157759464Y-99461723D01*
X157759464Y-99461723D02*
X157711845Y-99271247D01*
X157711845Y-99271247D02*
X157711845Y-99128390D01*
X157711845Y-99128390D02*
X157759464Y-98937914D01*
X157759464Y-98937914D02*
X157807083Y-98842676D01*
X157807083Y-98842676D02*
X157902321Y-98747438D01*
X157902321Y-98747438D02*
X158045178Y-98699819D01*
X158045178Y-98699819D02*
X158140416Y-98699819D01*
X158140416Y-98699819D02*
X158283273Y-98747438D01*
X158283273Y-98747438D02*
X158330892Y-98795057D01*
X158664226Y-98699819D02*
X159283273Y-98699819D01*
X159283273Y-98699819D02*
X158949940Y-99080771D01*
X158949940Y-99080771D02*
X159092797Y-99080771D01*
X159092797Y-99080771D02*
X159188035Y-99128390D01*
X159188035Y-99128390D02*
X159235654Y-99176009D01*
X159235654Y-99176009D02*
X159283273Y-99271247D01*
X159283273Y-99271247D02*
X159283273Y-99509342D01*
X159283273Y-99509342D02*
X159235654Y-99604580D01*
X159235654Y-99604580D02*
X159188035Y-99652200D01*
X159188035Y-99652200D02*
X159092797Y-99699819D01*
X159092797Y-99699819D02*
X158807083Y-99699819D01*
X158807083Y-99699819D02*
X158711845Y-99652200D01*
X158711845Y-99652200D02*
X158664226Y-99604580D01*
X159664226Y-98795057D02*
X159711845Y-98747438D01*
X159711845Y-98747438D02*
X159807083Y-98699819D01*
X159807083Y-98699819D02*
X160045178Y-98699819D01*
X160045178Y-98699819D02*
X160140416Y-98747438D01*
X160140416Y-98747438D02*
X160188035Y-98795057D01*
X160188035Y-98795057D02*
X160235654Y-98890295D01*
X160235654Y-98890295D02*
X160235654Y-98985533D01*
X160235654Y-98985533D02*
X160188035Y-99128390D01*
X160188035Y-99128390D02*
X159616607Y-99699819D01*
X159616607Y-99699819D02*
X160235654Y-99699819D01*
X143822378Y-96431190D02*
X144298569Y-96431190D01*
X143298569Y-96764523D02*
X143822378Y-96431190D01*
X143822378Y-96431190D02*
X143298569Y-96097857D01*
X144298569Y-95240714D02*
X144298569Y-95812142D01*
X144298569Y-95526428D02*
X143298569Y-95526428D01*
X143298569Y-95526428D02*
X143441426Y-95621666D01*
X143441426Y-95621666D02*
X143536664Y-95716904D01*
X143536664Y-95716904D02*
X143584283Y-95812142D01*
X150215833Y-103879580D02*
X150168214Y-103927200D01*
X150168214Y-103927200D02*
X150025357Y-103974819D01*
X150025357Y-103974819D02*
X149930119Y-103974819D01*
X149930119Y-103974819D02*
X149787262Y-103927200D01*
X149787262Y-103927200D02*
X149692024Y-103831961D01*
X149692024Y-103831961D02*
X149644405Y-103736723D01*
X149644405Y-103736723D02*
X149596786Y-103546247D01*
X149596786Y-103546247D02*
X149596786Y-103403390D01*
X149596786Y-103403390D02*
X149644405Y-103212914D01*
X149644405Y-103212914D02*
X149692024Y-103117676D01*
X149692024Y-103117676D02*
X149787262Y-103022438D01*
X149787262Y-103022438D02*
X149930119Y-102974819D01*
X149930119Y-102974819D02*
X150025357Y-102974819D01*
X150025357Y-102974819D02*
X150168214Y-103022438D01*
X150168214Y-103022438D02*
X150215833Y-103070057D01*
X150692024Y-103974819D02*
X150882500Y-103974819D01*
X150882500Y-103974819D02*
X150977738Y-103927200D01*
X150977738Y-103927200D02*
X151025357Y-103879580D01*
X151025357Y-103879580D02*
X151120595Y-103736723D01*
X151120595Y-103736723D02*
X151168214Y-103546247D01*
X151168214Y-103546247D02*
X151168214Y-103165295D01*
X151168214Y-103165295D02*
X151120595Y-103070057D01*
X151120595Y-103070057D02*
X151072976Y-103022438D01*
X151072976Y-103022438D02*
X150977738Y-102974819D01*
X150977738Y-102974819D02*
X150787262Y-102974819D01*
X150787262Y-102974819D02*
X150692024Y-103022438D01*
X150692024Y-103022438D02*
X150644405Y-103070057D01*
X150644405Y-103070057D02*
X150596786Y-103165295D01*
X150596786Y-103165295D02*
X150596786Y-103403390D01*
X150596786Y-103403390D02*
X150644405Y-103498628D01*
X150644405Y-103498628D02*
X150692024Y-103546247D01*
X150692024Y-103546247D02*
X150787262Y-103593866D01*
X150787262Y-103593866D02*
X150977738Y-103593866D01*
X150977738Y-103593866D02*
X151072976Y-103546247D01*
X151072976Y-103546247D02*
X151120595Y-103498628D01*
X151120595Y-103498628D02*
X151168214Y-103403390D01*
X154898569Y-102491666D02*
X154898569Y-102967856D01*
X154898569Y-102967856D02*
X153898569Y-102967856D01*
X154327140Y-102015475D02*
X154279521Y-102110713D01*
X154279521Y-102110713D02*
X154231902Y-102158332D01*
X154231902Y-102158332D02*
X154136664Y-102205951D01*
X154136664Y-102205951D02*
X154089045Y-102205951D01*
X154089045Y-102205951D02*
X153993807Y-102158332D01*
X153993807Y-102158332D02*
X153946188Y-102110713D01*
X153946188Y-102110713D02*
X153898569Y-102015475D01*
X153898569Y-102015475D02*
X153898569Y-101824999D01*
X153898569Y-101824999D02*
X153946188Y-101729761D01*
X153946188Y-101729761D02*
X153993807Y-101682142D01*
X153993807Y-101682142D02*
X154089045Y-101634523D01*
X154089045Y-101634523D02*
X154136664Y-101634523D01*
X154136664Y-101634523D02*
X154231902Y-101682142D01*
X154231902Y-101682142D02*
X154279521Y-101729761D01*
X154279521Y-101729761D02*
X154327140Y-101824999D01*
X154327140Y-101824999D02*
X154327140Y-102015475D01*
X154327140Y-102015475D02*
X154374759Y-102110713D01*
X154374759Y-102110713D02*
X154422378Y-102158332D01*
X154422378Y-102158332D02*
X154517616Y-102205951D01*
X154517616Y-102205951D02*
X154708092Y-102205951D01*
X154708092Y-102205951D02*
X154803330Y-102158332D01*
X154803330Y-102158332D02*
X154850950Y-102110713D01*
X154850950Y-102110713D02*
X154898569Y-102015475D01*
X154898569Y-102015475D02*
X154898569Y-101824999D01*
X154898569Y-101824999D02*
X154850950Y-101729761D01*
X154850950Y-101729761D02*
X154803330Y-101682142D01*
X154803330Y-101682142D02*
X154708092Y-101634523D01*
X154708092Y-101634523D02*
X154517616Y-101634523D01*
X154517616Y-101634523D02*
X154422378Y-101682142D01*
X154422378Y-101682142D02*
X154374759Y-101729761D01*
X154374759Y-101729761D02*
X154327140Y-101824999D01*
X142483333Y-122294819D02*
X142007143Y-122294819D01*
X142007143Y-122294819D02*
X142007143Y-121294819D01*
X143340476Y-122294819D02*
X142769048Y-122294819D01*
X143054762Y-122294819D02*
X143054762Y-121294819D01*
X143054762Y-121294819D02*
X142959524Y-121437676D01*
X142959524Y-121437676D02*
X142864286Y-121532914D01*
X142864286Y-121532914D02*
X142769048Y-121580533D01*
X138713333Y-97204819D02*
X138380000Y-96728628D01*
X138141905Y-97204819D02*
X138141905Y-96204819D01*
X138141905Y-96204819D02*
X138522857Y-96204819D01*
X138522857Y-96204819D02*
X138618095Y-96252438D01*
X138618095Y-96252438D02*
X138665714Y-96300057D01*
X138665714Y-96300057D02*
X138713333Y-96395295D01*
X138713333Y-96395295D02*
X138713333Y-96538152D01*
X138713333Y-96538152D02*
X138665714Y-96633390D01*
X138665714Y-96633390D02*
X138618095Y-96681009D01*
X138618095Y-96681009D02*
X138522857Y-96728628D01*
X138522857Y-96728628D02*
X138141905Y-96728628D01*
X139284762Y-96633390D02*
X139189524Y-96585771D01*
X139189524Y-96585771D02*
X139141905Y-96538152D01*
X139141905Y-96538152D02*
X139094286Y-96442914D01*
X139094286Y-96442914D02*
X139094286Y-96395295D01*
X139094286Y-96395295D02*
X139141905Y-96300057D01*
X139141905Y-96300057D02*
X139189524Y-96252438D01*
X139189524Y-96252438D02*
X139284762Y-96204819D01*
X139284762Y-96204819D02*
X139475238Y-96204819D01*
X139475238Y-96204819D02*
X139570476Y-96252438D01*
X139570476Y-96252438D02*
X139618095Y-96300057D01*
X139618095Y-96300057D02*
X139665714Y-96395295D01*
X139665714Y-96395295D02*
X139665714Y-96442914D01*
X139665714Y-96442914D02*
X139618095Y-96538152D01*
X139618095Y-96538152D02*
X139570476Y-96585771D01*
X139570476Y-96585771D02*
X139475238Y-96633390D01*
X139475238Y-96633390D02*
X139284762Y-96633390D01*
X139284762Y-96633390D02*
X139189524Y-96681009D01*
X139189524Y-96681009D02*
X139141905Y-96728628D01*
X139141905Y-96728628D02*
X139094286Y-96823866D01*
X139094286Y-96823866D02*
X139094286Y-97014342D01*
X139094286Y-97014342D02*
X139141905Y-97109580D01*
X139141905Y-97109580D02*
X139189524Y-97157200D01*
X139189524Y-97157200D02*
X139284762Y-97204819D01*
X139284762Y-97204819D02*
X139475238Y-97204819D01*
X139475238Y-97204819D02*
X139570476Y-97157200D01*
X139570476Y-97157200D02*
X139618095Y-97109580D01*
X139618095Y-97109580D02*
X139665714Y-97014342D01*
X139665714Y-97014342D02*
X139665714Y-96823866D01*
X139665714Y-96823866D02*
X139618095Y-96728628D01*
X139618095Y-96728628D02*
X139570476Y-96681009D01*
X139570476Y-96681009D02*
X139475238Y-96633390D01*
X149154819Y-113853333D02*
X149869104Y-113853333D01*
X149869104Y-113853333D02*
X150011961Y-113900952D01*
X150011961Y-113900952D02*
X150107200Y-113996190D01*
X150107200Y-113996190D02*
X150154819Y-114139047D01*
X150154819Y-114139047D02*
X150154819Y-114234285D01*
X150154819Y-112853333D02*
X150154819Y-113424761D01*
X150154819Y-113139047D02*
X149154819Y-113139047D01*
X149154819Y-113139047D02*
X149297676Y-113234285D01*
X149297676Y-113234285D02*
X149392914Y-113329523D01*
X149392914Y-113329523D02*
X149440533Y-113424761D01*
X130714819Y-119621904D02*
X131524342Y-119621904D01*
X131524342Y-119621904D02*
X131619580Y-119574285D01*
X131619580Y-119574285D02*
X131667200Y-119526666D01*
X131667200Y-119526666D02*
X131714819Y-119431428D01*
X131714819Y-119431428D02*
X131714819Y-119240952D01*
X131714819Y-119240952D02*
X131667200Y-119145714D01*
X131667200Y-119145714D02*
X131619580Y-119098095D01*
X131619580Y-119098095D02*
X131524342Y-119050476D01*
X131524342Y-119050476D02*
X130714819Y-119050476D01*
X130714819Y-118145714D02*
X130714819Y-118336190D01*
X130714819Y-118336190D02*
X130762438Y-118431428D01*
X130762438Y-118431428D02*
X130810057Y-118479047D01*
X130810057Y-118479047D02*
X130952914Y-118574285D01*
X130952914Y-118574285D02*
X131143390Y-118621904D01*
X131143390Y-118621904D02*
X131524342Y-118621904D01*
X131524342Y-118621904D02*
X131619580Y-118574285D01*
X131619580Y-118574285D02*
X131667200Y-118526666D01*
X131667200Y-118526666D02*
X131714819Y-118431428D01*
X131714819Y-118431428D02*
X131714819Y-118240952D01*
X131714819Y-118240952D02*
X131667200Y-118145714D01*
X131667200Y-118145714D02*
X131619580Y-118098095D01*
X131619580Y-118098095D02*
X131524342Y-118050476D01*
X131524342Y-118050476D02*
X131286247Y-118050476D01*
X131286247Y-118050476D02*
X131191009Y-118098095D01*
X131191009Y-118098095D02*
X131143390Y-118145714D01*
X131143390Y-118145714D02*
X131095771Y-118240952D01*
X131095771Y-118240952D02*
X131095771Y-118431428D01*
X131095771Y-118431428D02*
X131143390Y-118526666D01*
X131143390Y-118526666D02*
X131191009Y-118574285D01*
X131191009Y-118574285D02*
X131286247Y-118621904D01*
X144874819Y-121442857D02*
X144398628Y-121776190D01*
X144874819Y-122014285D02*
X143874819Y-122014285D01*
X143874819Y-122014285D02*
X143874819Y-121633333D01*
X143874819Y-121633333D02*
X143922438Y-121538095D01*
X143922438Y-121538095D02*
X143970057Y-121490476D01*
X143970057Y-121490476D02*
X144065295Y-121442857D01*
X144065295Y-121442857D02*
X144208152Y-121442857D01*
X144208152Y-121442857D02*
X144303390Y-121490476D01*
X144303390Y-121490476D02*
X144351009Y-121538095D01*
X144351009Y-121538095D02*
X144398628Y-121633333D01*
X144398628Y-121633333D02*
X144398628Y-122014285D01*
X144874819Y-120490476D02*
X144874819Y-121061904D01*
X144874819Y-120776190D02*
X143874819Y-120776190D01*
X143874819Y-120776190D02*
X144017676Y-120871428D01*
X144017676Y-120871428D02*
X144112914Y-120966666D01*
X144112914Y-120966666D02*
X144160533Y-121061904D01*
X143874819Y-119633333D02*
X143874819Y-119823809D01*
X143874819Y-119823809D02*
X143922438Y-119919047D01*
X143922438Y-119919047D02*
X143970057Y-119966666D01*
X143970057Y-119966666D02*
X144112914Y-120061904D01*
X144112914Y-120061904D02*
X144303390Y-120109523D01*
X144303390Y-120109523D02*
X144684342Y-120109523D01*
X144684342Y-120109523D02*
X144779580Y-120061904D01*
X144779580Y-120061904D02*
X144827200Y-120014285D01*
X144827200Y-120014285D02*
X144874819Y-119919047D01*
X144874819Y-119919047D02*
X144874819Y-119728571D01*
X144874819Y-119728571D02*
X144827200Y-119633333D01*
X144827200Y-119633333D02*
X144779580Y-119585714D01*
X144779580Y-119585714D02*
X144684342Y-119538095D01*
X144684342Y-119538095D02*
X144446247Y-119538095D01*
X144446247Y-119538095D02*
X144351009Y-119585714D01*
X144351009Y-119585714D02*
X144303390Y-119633333D01*
X144303390Y-119633333D02*
X144255771Y-119728571D01*
X144255771Y-119728571D02*
X144255771Y-119919047D01*
X144255771Y-119919047D02*
X144303390Y-120014285D01*
X144303390Y-120014285D02*
X144351009Y-120061904D01*
X144351009Y-120061904D02*
X144446247Y-120109523D01*
X139413333Y-114099580D02*
X139365714Y-114147200D01*
X139365714Y-114147200D02*
X139222857Y-114194819D01*
X139222857Y-114194819D02*
X139127619Y-114194819D01*
X139127619Y-114194819D02*
X138984762Y-114147200D01*
X138984762Y-114147200D02*
X138889524Y-114051961D01*
X138889524Y-114051961D02*
X138841905Y-113956723D01*
X138841905Y-113956723D02*
X138794286Y-113766247D01*
X138794286Y-113766247D02*
X138794286Y-113623390D01*
X138794286Y-113623390D02*
X138841905Y-113432914D01*
X138841905Y-113432914D02*
X138889524Y-113337676D01*
X138889524Y-113337676D02*
X138984762Y-113242438D01*
X138984762Y-113242438D02*
X139127619Y-113194819D01*
X139127619Y-113194819D02*
X139222857Y-113194819D01*
X139222857Y-113194819D02*
X139365714Y-113242438D01*
X139365714Y-113242438D02*
X139413333Y-113290057D01*
X139984762Y-113623390D02*
X139889524Y-113575771D01*
X139889524Y-113575771D02*
X139841905Y-113528152D01*
X139841905Y-113528152D02*
X139794286Y-113432914D01*
X139794286Y-113432914D02*
X139794286Y-113385295D01*
X139794286Y-113385295D02*
X139841905Y-113290057D01*
X139841905Y-113290057D02*
X139889524Y-113242438D01*
X139889524Y-113242438D02*
X139984762Y-113194819D01*
X139984762Y-113194819D02*
X140175238Y-113194819D01*
X140175238Y-113194819D02*
X140270476Y-113242438D01*
X140270476Y-113242438D02*
X140318095Y-113290057D01*
X140318095Y-113290057D02*
X140365714Y-113385295D01*
X140365714Y-113385295D02*
X140365714Y-113432914D01*
X140365714Y-113432914D02*
X140318095Y-113528152D01*
X140318095Y-113528152D02*
X140270476Y-113575771D01*
X140270476Y-113575771D02*
X140175238Y-113623390D01*
X140175238Y-113623390D02*
X139984762Y-113623390D01*
X139984762Y-113623390D02*
X139889524Y-113671009D01*
X139889524Y-113671009D02*
X139841905Y-113718628D01*
X139841905Y-113718628D02*
X139794286Y-113813866D01*
X139794286Y-113813866D02*
X139794286Y-114004342D01*
X139794286Y-114004342D02*
X139841905Y-114099580D01*
X139841905Y-114099580D02*
X139889524Y-114147200D01*
X139889524Y-114147200D02*
X139984762Y-114194819D01*
X139984762Y-114194819D02*
X140175238Y-114194819D01*
X140175238Y-114194819D02*
X140270476Y-114147200D01*
X140270476Y-114147200D02*
X140318095Y-114099580D01*
X140318095Y-114099580D02*
X140365714Y-114004342D01*
X140365714Y-114004342D02*
X140365714Y-113813866D01*
X140365714Y-113813866D02*
X140318095Y-113718628D01*
X140318095Y-113718628D02*
X140270476Y-113671009D01*
X140270476Y-113671009D02*
X140175238Y-113623390D01*
X128504405Y-119744819D02*
X128504405Y-118744819D01*
X128504405Y-118744819D02*
X128742500Y-118744819D01*
X128742500Y-118744819D02*
X128885357Y-118792438D01*
X128885357Y-118792438D02*
X128980595Y-118887676D01*
X128980595Y-118887676D02*
X129028214Y-118982914D01*
X129028214Y-118982914D02*
X129075833Y-119173390D01*
X129075833Y-119173390D02*
X129075833Y-119316247D01*
X129075833Y-119316247D02*
X129028214Y-119506723D01*
X129028214Y-119506723D02*
X128980595Y-119601961D01*
X128980595Y-119601961D02*
X128885357Y-119697200D01*
X128885357Y-119697200D02*
X128742500Y-119744819D01*
X128742500Y-119744819D02*
X128504405Y-119744819D01*
X130028214Y-119744819D02*
X129456786Y-119744819D01*
X129742500Y-119744819D02*
X129742500Y-118744819D01*
X129742500Y-118744819D02*
X129647262Y-118887676D01*
X129647262Y-118887676D02*
X129552024Y-118982914D01*
X129552024Y-118982914D02*
X129456786Y-119030533D01*
X140260892Y-85624580D02*
X140213273Y-85672200D01*
X140213273Y-85672200D02*
X140070416Y-85719819D01*
X140070416Y-85719819D02*
X139975178Y-85719819D01*
X139975178Y-85719819D02*
X139832321Y-85672200D01*
X139832321Y-85672200D02*
X139737083Y-85576961D01*
X139737083Y-85576961D02*
X139689464Y-85481723D01*
X139689464Y-85481723D02*
X139641845Y-85291247D01*
X139641845Y-85291247D02*
X139641845Y-85148390D01*
X139641845Y-85148390D02*
X139689464Y-84957914D01*
X139689464Y-84957914D02*
X139737083Y-84862676D01*
X139737083Y-84862676D02*
X139832321Y-84767438D01*
X139832321Y-84767438D02*
X139975178Y-84719819D01*
X139975178Y-84719819D02*
X140070416Y-84719819D01*
X140070416Y-84719819D02*
X140213273Y-84767438D01*
X140213273Y-84767438D02*
X140260892Y-84815057D01*
X140641845Y-84815057D02*
X140689464Y-84767438D01*
X140689464Y-84767438D02*
X140784702Y-84719819D01*
X140784702Y-84719819D02*
X141022797Y-84719819D01*
X141022797Y-84719819D02*
X141118035Y-84767438D01*
X141118035Y-84767438D02*
X141165654Y-84815057D01*
X141165654Y-84815057D02*
X141213273Y-84910295D01*
X141213273Y-84910295D02*
X141213273Y-85005533D01*
X141213273Y-85005533D02*
X141165654Y-85148390D01*
X141165654Y-85148390D02*
X140594226Y-85719819D01*
X140594226Y-85719819D02*
X141213273Y-85719819D01*
X141546607Y-84719819D02*
X142213273Y-84719819D01*
X142213273Y-84719819D02*
X141784702Y-85719819D01*
X126257142Y-111179580D02*
X126209523Y-111227200D01*
X126209523Y-111227200D02*
X126066666Y-111274819D01*
X126066666Y-111274819D02*
X125971428Y-111274819D01*
X125971428Y-111274819D02*
X125828571Y-111227200D01*
X125828571Y-111227200D02*
X125733333Y-111131961D01*
X125733333Y-111131961D02*
X125685714Y-111036723D01*
X125685714Y-111036723D02*
X125638095Y-110846247D01*
X125638095Y-110846247D02*
X125638095Y-110703390D01*
X125638095Y-110703390D02*
X125685714Y-110512914D01*
X125685714Y-110512914D02*
X125733333Y-110417676D01*
X125733333Y-110417676D02*
X125828571Y-110322438D01*
X125828571Y-110322438D02*
X125971428Y-110274819D01*
X125971428Y-110274819D02*
X126066666Y-110274819D01*
X126066666Y-110274819D02*
X126209523Y-110322438D01*
X126209523Y-110322438D02*
X126257142Y-110370057D01*
X127209523Y-111274819D02*
X126638095Y-111274819D01*
X126923809Y-111274819D02*
X126923809Y-110274819D01*
X126923809Y-110274819D02*
X126828571Y-110417676D01*
X126828571Y-110417676D02*
X126733333Y-110512914D01*
X126733333Y-110512914D02*
X126638095Y-110560533D01*
X128114285Y-110274819D02*
X127638095Y-110274819D01*
X127638095Y-110274819D02*
X127590476Y-110751009D01*
X127590476Y-110751009D02*
X127638095Y-110703390D01*
X127638095Y-110703390D02*
X127733333Y-110655771D01*
X127733333Y-110655771D02*
X127971428Y-110655771D01*
X127971428Y-110655771D02*
X128066666Y-110703390D01*
X128066666Y-110703390D02*
X128114285Y-110751009D01*
X128114285Y-110751009D02*
X128161904Y-110846247D01*
X128161904Y-110846247D02*
X128161904Y-111084342D01*
X128161904Y-111084342D02*
X128114285Y-111179580D01*
X128114285Y-111179580D02*
X128066666Y-111227200D01*
X128066666Y-111227200D02*
X127971428Y-111274819D01*
X127971428Y-111274819D02*
X127733333Y-111274819D01*
X127733333Y-111274819D02*
X127638095Y-111227200D01*
X127638095Y-111227200D02*
X127590476Y-111179580D01*
X135277142Y-97664819D02*
X134943809Y-97188628D01*
X134705714Y-97664819D02*
X134705714Y-96664819D01*
X134705714Y-96664819D02*
X135086666Y-96664819D01*
X135086666Y-96664819D02*
X135181904Y-96712438D01*
X135181904Y-96712438D02*
X135229523Y-96760057D01*
X135229523Y-96760057D02*
X135277142Y-96855295D01*
X135277142Y-96855295D02*
X135277142Y-96998152D01*
X135277142Y-96998152D02*
X135229523Y-97093390D01*
X135229523Y-97093390D02*
X135181904Y-97141009D01*
X135181904Y-97141009D02*
X135086666Y-97188628D01*
X135086666Y-97188628D02*
X134705714Y-97188628D01*
X135658095Y-96760057D02*
X135705714Y-96712438D01*
X135705714Y-96712438D02*
X135800952Y-96664819D01*
X135800952Y-96664819D02*
X136039047Y-96664819D01*
X136039047Y-96664819D02*
X136134285Y-96712438D01*
X136134285Y-96712438D02*
X136181904Y-96760057D01*
X136181904Y-96760057D02*
X136229523Y-96855295D01*
X136229523Y-96855295D02*
X136229523Y-96950533D01*
X136229523Y-96950533D02*
X136181904Y-97093390D01*
X136181904Y-97093390D02*
X135610476Y-97664819D01*
X135610476Y-97664819D02*
X136229523Y-97664819D01*
X136848571Y-96664819D02*
X136943809Y-96664819D01*
X136943809Y-96664819D02*
X137039047Y-96712438D01*
X137039047Y-96712438D02*
X137086666Y-96760057D01*
X137086666Y-96760057D02*
X137134285Y-96855295D01*
X137134285Y-96855295D02*
X137181904Y-97045771D01*
X137181904Y-97045771D02*
X137181904Y-97283866D01*
X137181904Y-97283866D02*
X137134285Y-97474342D01*
X137134285Y-97474342D02*
X137086666Y-97569580D01*
X137086666Y-97569580D02*
X137039047Y-97617200D01*
X137039047Y-97617200D02*
X136943809Y-97664819D01*
X136943809Y-97664819D02*
X136848571Y-97664819D01*
X136848571Y-97664819D02*
X136753333Y-97617200D01*
X136753333Y-97617200D02*
X136705714Y-97569580D01*
X136705714Y-97569580D02*
X136658095Y-97474342D01*
X136658095Y-97474342D02*
X136610476Y-97283866D01*
X136610476Y-97283866D02*
X136610476Y-97045771D01*
X136610476Y-97045771D02*
X136658095Y-96855295D01*
X136658095Y-96855295D02*
X136705714Y-96760057D01*
X136705714Y-96760057D02*
X136753333Y-96712438D01*
X136753333Y-96712438D02*
X136848571Y-96664819D01*
X158797142Y-119199580D02*
X158749523Y-119247200D01*
X158749523Y-119247200D02*
X158606666Y-119294819D01*
X158606666Y-119294819D02*
X158511428Y-119294819D01*
X158511428Y-119294819D02*
X158368571Y-119247200D01*
X158368571Y-119247200D02*
X158273333Y-119151961D01*
X158273333Y-119151961D02*
X158225714Y-119056723D01*
X158225714Y-119056723D02*
X158178095Y-118866247D01*
X158178095Y-118866247D02*
X158178095Y-118723390D01*
X158178095Y-118723390D02*
X158225714Y-118532914D01*
X158225714Y-118532914D02*
X158273333Y-118437676D01*
X158273333Y-118437676D02*
X158368571Y-118342438D01*
X158368571Y-118342438D02*
X158511428Y-118294819D01*
X158511428Y-118294819D02*
X158606666Y-118294819D01*
X158606666Y-118294819D02*
X158749523Y-118342438D01*
X158749523Y-118342438D02*
X158797142Y-118390057D01*
X159178095Y-118390057D02*
X159225714Y-118342438D01*
X159225714Y-118342438D02*
X159320952Y-118294819D01*
X159320952Y-118294819D02*
X159559047Y-118294819D01*
X159559047Y-118294819D02*
X159654285Y-118342438D01*
X159654285Y-118342438D02*
X159701904Y-118390057D01*
X159701904Y-118390057D02*
X159749523Y-118485295D01*
X159749523Y-118485295D02*
X159749523Y-118580533D01*
X159749523Y-118580533D02*
X159701904Y-118723390D01*
X159701904Y-118723390D02*
X159130476Y-119294819D01*
X159130476Y-119294819D02*
X159749523Y-119294819D01*
X160082857Y-118294819D02*
X160701904Y-118294819D01*
X160701904Y-118294819D02*
X160368571Y-118675771D01*
X160368571Y-118675771D02*
X160511428Y-118675771D01*
X160511428Y-118675771D02*
X160606666Y-118723390D01*
X160606666Y-118723390D02*
X160654285Y-118771009D01*
X160654285Y-118771009D02*
X160701904Y-118866247D01*
X160701904Y-118866247D02*
X160701904Y-119104342D01*
X160701904Y-119104342D02*
X160654285Y-119199580D01*
X160654285Y-119199580D02*
X160606666Y-119247200D01*
X160606666Y-119247200D02*
X160511428Y-119294819D01*
X160511428Y-119294819D02*
X160225714Y-119294819D01*
X160225714Y-119294819D02*
X160130476Y-119247200D01*
X160130476Y-119247200D02*
X160082857Y-119199580D01*
X147319580Y-123586666D02*
X147367200Y-123634285D01*
X147367200Y-123634285D02*
X147414819Y-123777142D01*
X147414819Y-123777142D02*
X147414819Y-123872380D01*
X147414819Y-123872380D02*
X147367200Y-124015237D01*
X147367200Y-124015237D02*
X147271961Y-124110475D01*
X147271961Y-124110475D02*
X147176723Y-124158094D01*
X147176723Y-124158094D02*
X146986247Y-124205713D01*
X146986247Y-124205713D02*
X146843390Y-124205713D01*
X146843390Y-124205713D02*
X146652914Y-124158094D01*
X146652914Y-124158094D02*
X146557676Y-124110475D01*
X146557676Y-124110475D02*
X146462438Y-124015237D01*
X146462438Y-124015237D02*
X146414819Y-123872380D01*
X146414819Y-123872380D02*
X146414819Y-123777142D01*
X146414819Y-123777142D02*
X146462438Y-123634285D01*
X146462438Y-123634285D02*
X146510057Y-123586666D01*
X146414819Y-123253332D02*
X146414819Y-122634285D01*
X146414819Y-122634285D02*
X146795771Y-122967618D01*
X146795771Y-122967618D02*
X146795771Y-122824761D01*
X146795771Y-122824761D02*
X146843390Y-122729523D01*
X146843390Y-122729523D02*
X146891009Y-122681904D01*
X146891009Y-122681904D02*
X146986247Y-122634285D01*
X146986247Y-122634285D02*
X147224342Y-122634285D01*
X147224342Y-122634285D02*
X147319580Y-122681904D01*
X147319580Y-122681904D02*
X147367200Y-122729523D01*
X147367200Y-122729523D02*
X147414819Y-122824761D01*
X147414819Y-122824761D02*
X147414819Y-123110475D01*
X147414819Y-123110475D02*
X147367200Y-123205713D01*
X147367200Y-123205713D02*
X147319580Y-123253332D01*
X120056666Y-107751009D02*
X119723333Y-107751009D01*
X119723333Y-108274819D02*
X119723333Y-107274819D01*
X119723333Y-107274819D02*
X120199523Y-107274819D01*
X120913809Y-107751009D02*
X121056666Y-107798628D01*
X121056666Y-107798628D02*
X121104285Y-107846247D01*
X121104285Y-107846247D02*
X121151904Y-107941485D01*
X121151904Y-107941485D02*
X121151904Y-108084342D01*
X121151904Y-108084342D02*
X121104285Y-108179580D01*
X121104285Y-108179580D02*
X121056666Y-108227200D01*
X121056666Y-108227200D02*
X120961428Y-108274819D01*
X120961428Y-108274819D02*
X120580476Y-108274819D01*
X120580476Y-108274819D02*
X120580476Y-107274819D01*
X120580476Y-107274819D02*
X120913809Y-107274819D01*
X120913809Y-107274819D02*
X121009047Y-107322438D01*
X121009047Y-107322438D02*
X121056666Y-107370057D01*
X121056666Y-107370057D02*
X121104285Y-107465295D01*
X121104285Y-107465295D02*
X121104285Y-107560533D01*
X121104285Y-107560533D02*
X121056666Y-107655771D01*
X121056666Y-107655771D02*
X121009047Y-107703390D01*
X121009047Y-107703390D02*
X120913809Y-107751009D01*
X120913809Y-107751009D02*
X120580476Y-107751009D01*
X121485238Y-107274819D02*
X122104285Y-107274819D01*
X122104285Y-107274819D02*
X121770952Y-107655771D01*
X121770952Y-107655771D02*
X121913809Y-107655771D01*
X121913809Y-107655771D02*
X122009047Y-107703390D01*
X122009047Y-107703390D02*
X122056666Y-107751009D01*
X122056666Y-107751009D02*
X122104285Y-107846247D01*
X122104285Y-107846247D02*
X122104285Y-108084342D01*
X122104285Y-108084342D02*
X122056666Y-108179580D01*
X122056666Y-108179580D02*
X122009047Y-108227200D01*
X122009047Y-108227200D02*
X121913809Y-108274819D01*
X121913809Y-108274819D02*
X121628095Y-108274819D01*
X121628095Y-108274819D02*
X121532857Y-108227200D01*
X121532857Y-108227200D02*
X121485238Y-108179580D01*
X151048569Y-88161666D02*
X151048569Y-88637856D01*
X151048569Y-88637856D02*
X150048569Y-88637856D01*
X150381902Y-87399761D02*
X151048569Y-87399761D01*
X150000950Y-87637856D02*
X150715235Y-87875951D01*
X150715235Y-87875951D02*
X150715235Y-87256904D01*
X120164642Y-106199580D02*
X120117023Y-106247200D01*
X120117023Y-106247200D02*
X119974166Y-106294819D01*
X119974166Y-106294819D02*
X119878928Y-106294819D01*
X119878928Y-106294819D02*
X119736071Y-106247200D01*
X119736071Y-106247200D02*
X119640833Y-106151961D01*
X119640833Y-106151961D02*
X119593214Y-106056723D01*
X119593214Y-106056723D02*
X119545595Y-105866247D01*
X119545595Y-105866247D02*
X119545595Y-105723390D01*
X119545595Y-105723390D02*
X119593214Y-105532914D01*
X119593214Y-105532914D02*
X119640833Y-105437676D01*
X119640833Y-105437676D02*
X119736071Y-105342438D01*
X119736071Y-105342438D02*
X119878928Y-105294819D01*
X119878928Y-105294819D02*
X119974166Y-105294819D01*
X119974166Y-105294819D02*
X120117023Y-105342438D01*
X120117023Y-105342438D02*
X120164642Y-105390057D01*
X121117023Y-106294819D02*
X120545595Y-106294819D01*
X120831309Y-106294819D02*
X120831309Y-105294819D01*
X120831309Y-105294819D02*
X120736071Y-105437676D01*
X120736071Y-105437676D02*
X120640833Y-105532914D01*
X120640833Y-105532914D02*
X120545595Y-105580533D01*
X121497976Y-105390057D02*
X121545595Y-105342438D01*
X121545595Y-105342438D02*
X121640833Y-105294819D01*
X121640833Y-105294819D02*
X121878928Y-105294819D01*
X121878928Y-105294819D02*
X121974166Y-105342438D01*
X121974166Y-105342438D02*
X122021785Y-105390057D01*
X122021785Y-105390057D02*
X122069404Y-105485295D01*
X122069404Y-105485295D02*
X122069404Y-105580533D01*
X122069404Y-105580533D02*
X122021785Y-105723390D01*
X122021785Y-105723390D02*
X121450357Y-106294819D01*
X121450357Y-106294819D02*
X122069404Y-106294819D01*
X131014819Y-116738094D02*
X130014819Y-116738094D01*
X130014819Y-116738094D02*
X130014819Y-116499999D01*
X130014819Y-116499999D02*
X130062438Y-116357142D01*
X130062438Y-116357142D02*
X130157676Y-116261904D01*
X130157676Y-116261904D02*
X130252914Y-116214285D01*
X130252914Y-116214285D02*
X130443390Y-116166666D01*
X130443390Y-116166666D02*
X130586247Y-116166666D01*
X130586247Y-116166666D02*
X130776723Y-116214285D01*
X130776723Y-116214285D02*
X130871961Y-116261904D01*
X130871961Y-116261904D02*
X130967200Y-116357142D01*
X130967200Y-116357142D02*
X131014819Y-116499999D01*
X131014819Y-116499999D02*
X131014819Y-116738094D01*
X130110057Y-115785713D02*
X130062438Y-115738094D01*
X130062438Y-115738094D02*
X130014819Y-115642856D01*
X130014819Y-115642856D02*
X130014819Y-115404761D01*
X130014819Y-115404761D02*
X130062438Y-115309523D01*
X130062438Y-115309523D02*
X130110057Y-115261904D01*
X130110057Y-115261904D02*
X130205295Y-115214285D01*
X130205295Y-115214285D02*
X130300533Y-115214285D01*
X130300533Y-115214285D02*
X130443390Y-115261904D01*
X130443390Y-115261904D02*
X131014819Y-115833332D01*
X131014819Y-115833332D02*
X131014819Y-115214285D01*
X137793810Y-105014819D02*
X137793810Y-104014819D01*
X138841428Y-104919580D02*
X138793809Y-104967200D01*
X138793809Y-104967200D02*
X138650952Y-105014819D01*
X138650952Y-105014819D02*
X138555714Y-105014819D01*
X138555714Y-105014819D02*
X138412857Y-104967200D01*
X138412857Y-104967200D02*
X138317619Y-104871961D01*
X138317619Y-104871961D02*
X138270000Y-104776723D01*
X138270000Y-104776723D02*
X138222381Y-104586247D01*
X138222381Y-104586247D02*
X138222381Y-104443390D01*
X138222381Y-104443390D02*
X138270000Y-104252914D01*
X138270000Y-104252914D02*
X138317619Y-104157676D01*
X138317619Y-104157676D02*
X138412857Y-104062438D01*
X138412857Y-104062438D02*
X138555714Y-104014819D01*
X138555714Y-104014819D02*
X138650952Y-104014819D01*
X138650952Y-104014819D02*
X138793809Y-104062438D01*
X138793809Y-104062438D02*
X138841428Y-104110057D01*
X139793809Y-105014819D02*
X139222381Y-105014819D01*
X139508095Y-105014819D02*
X139508095Y-104014819D01*
X139508095Y-104014819D02*
X139412857Y-104157676D01*
X139412857Y-104157676D02*
X139317619Y-104252914D01*
X139317619Y-104252914D02*
X139222381Y-104300533D01*
X150179642Y-105529580D02*
X150132023Y-105577200D01*
X150132023Y-105577200D02*
X149989166Y-105624819D01*
X149989166Y-105624819D02*
X149893928Y-105624819D01*
X149893928Y-105624819D02*
X149751071Y-105577200D01*
X149751071Y-105577200D02*
X149655833Y-105481961D01*
X149655833Y-105481961D02*
X149608214Y-105386723D01*
X149608214Y-105386723D02*
X149560595Y-105196247D01*
X149560595Y-105196247D02*
X149560595Y-105053390D01*
X149560595Y-105053390D02*
X149608214Y-104862914D01*
X149608214Y-104862914D02*
X149655833Y-104767676D01*
X149655833Y-104767676D02*
X149751071Y-104672438D01*
X149751071Y-104672438D02*
X149893928Y-104624819D01*
X149893928Y-104624819D02*
X149989166Y-104624819D01*
X149989166Y-104624819D02*
X150132023Y-104672438D01*
X150132023Y-104672438D02*
X150179642Y-104720057D01*
X151132023Y-105624819D02*
X150560595Y-105624819D01*
X150846309Y-105624819D02*
X150846309Y-104624819D01*
X150846309Y-104624819D02*
X150751071Y-104767676D01*
X150751071Y-104767676D02*
X150655833Y-104862914D01*
X150655833Y-104862914D02*
X150560595Y-104910533D01*
X151751071Y-104624819D02*
X151846309Y-104624819D01*
X151846309Y-104624819D02*
X151941547Y-104672438D01*
X151941547Y-104672438D02*
X151989166Y-104720057D01*
X151989166Y-104720057D02*
X152036785Y-104815295D01*
X152036785Y-104815295D02*
X152084404Y-105005771D01*
X152084404Y-105005771D02*
X152084404Y-105243866D01*
X152084404Y-105243866D02*
X152036785Y-105434342D01*
X152036785Y-105434342D02*
X151989166Y-105529580D01*
X151989166Y-105529580D02*
X151941547Y-105577200D01*
X151941547Y-105577200D02*
X151846309Y-105624819D01*
X151846309Y-105624819D02*
X151751071Y-105624819D01*
X151751071Y-105624819D02*
X151655833Y-105577200D01*
X151655833Y-105577200D02*
X151608214Y-105529580D01*
X151608214Y-105529580D02*
X151560595Y-105434342D01*
X151560595Y-105434342D02*
X151512976Y-105243866D01*
X151512976Y-105243866D02*
X151512976Y-105005771D01*
X151512976Y-105005771D02*
X151560595Y-104815295D01*
X151560595Y-104815295D02*
X151608214Y-104720057D01*
X151608214Y-104720057D02*
X151655833Y-104672438D01*
X151655833Y-104672438D02*
X151751071Y-104624819D01*
X159474819Y-112901904D02*
X160284342Y-112901904D01*
X160284342Y-112901904D02*
X160379580Y-112854285D01*
X160379580Y-112854285D02*
X160427200Y-112806666D01*
X160427200Y-112806666D02*
X160474819Y-112711428D01*
X160474819Y-112711428D02*
X160474819Y-112520952D01*
X160474819Y-112520952D02*
X160427200Y-112425714D01*
X160427200Y-112425714D02*
X160379580Y-112378095D01*
X160379580Y-112378095D02*
X160284342Y-112330476D01*
X160284342Y-112330476D02*
X159474819Y-112330476D01*
X159570057Y-111901904D02*
X159522438Y-111854285D01*
X159522438Y-111854285D02*
X159474819Y-111759047D01*
X159474819Y-111759047D02*
X159474819Y-111520952D01*
X159474819Y-111520952D02*
X159522438Y-111425714D01*
X159522438Y-111425714D02*
X159570057Y-111378095D01*
X159570057Y-111378095D02*
X159665295Y-111330476D01*
X159665295Y-111330476D02*
X159760533Y-111330476D01*
X159760533Y-111330476D02*
X159903390Y-111378095D01*
X159903390Y-111378095D02*
X160474819Y-111949523D01*
X160474819Y-111949523D02*
X160474819Y-111330476D01*
X121750833Y-103084819D02*
X121417500Y-102608628D01*
X121179405Y-103084819D02*
X121179405Y-102084819D01*
X121179405Y-102084819D02*
X121560357Y-102084819D01*
X121560357Y-102084819D02*
X121655595Y-102132438D01*
X121655595Y-102132438D02*
X121703214Y-102180057D01*
X121703214Y-102180057D02*
X121750833Y-102275295D01*
X121750833Y-102275295D02*
X121750833Y-102418152D01*
X121750833Y-102418152D02*
X121703214Y-102513390D01*
X121703214Y-102513390D02*
X121655595Y-102561009D01*
X121655595Y-102561009D02*
X121560357Y-102608628D01*
X121560357Y-102608628D02*
X121179405Y-102608628D01*
X122084167Y-102084819D02*
X122703214Y-102084819D01*
X122703214Y-102084819D02*
X122369881Y-102465771D01*
X122369881Y-102465771D02*
X122512738Y-102465771D01*
X122512738Y-102465771D02*
X122607976Y-102513390D01*
X122607976Y-102513390D02*
X122655595Y-102561009D01*
X122655595Y-102561009D02*
X122703214Y-102656247D01*
X122703214Y-102656247D02*
X122703214Y-102894342D01*
X122703214Y-102894342D02*
X122655595Y-102989580D01*
X122655595Y-102989580D02*
X122607976Y-103037200D01*
X122607976Y-103037200D02*
X122512738Y-103084819D01*
X122512738Y-103084819D02*
X122227024Y-103084819D01*
X122227024Y-103084819D02*
X122131786Y-103037200D01*
X122131786Y-103037200D02*
X122084167Y-102989580D01*
X151098569Y-91951666D02*
X151098569Y-92427856D01*
X151098569Y-92427856D02*
X150098569Y-92427856D01*
X150098569Y-91142142D02*
X150098569Y-91618332D01*
X150098569Y-91618332D02*
X150574759Y-91665951D01*
X150574759Y-91665951D02*
X150527140Y-91618332D01*
X150527140Y-91618332D02*
X150479521Y-91523094D01*
X150479521Y-91523094D02*
X150479521Y-91284999D01*
X150479521Y-91284999D02*
X150527140Y-91189761D01*
X150527140Y-91189761D02*
X150574759Y-91142142D01*
X150574759Y-91142142D02*
X150669997Y-91094523D01*
X150669997Y-91094523D02*
X150908092Y-91094523D01*
X150908092Y-91094523D02*
X151003330Y-91142142D01*
X151003330Y-91142142D02*
X151050950Y-91189761D01*
X151050950Y-91189761D02*
X151098569Y-91284999D01*
X151098569Y-91284999D02*
X151098569Y-91523094D01*
X151098569Y-91523094D02*
X151050950Y-91618332D01*
X151050950Y-91618332D02*
X151003330Y-91665951D01*
X148186666Y-123621009D02*
X147853333Y-123621009D01*
X147853333Y-124144819D02*
X147853333Y-123144819D01*
X147853333Y-123144819D02*
X148329523Y-123144819D01*
X149043809Y-123621009D02*
X149186666Y-123668628D01*
X149186666Y-123668628D02*
X149234285Y-123716247D01*
X149234285Y-123716247D02*
X149281904Y-123811485D01*
X149281904Y-123811485D02*
X149281904Y-123954342D01*
X149281904Y-123954342D02*
X149234285Y-124049580D01*
X149234285Y-124049580D02*
X149186666Y-124097200D01*
X149186666Y-124097200D02*
X149091428Y-124144819D01*
X149091428Y-124144819D02*
X148710476Y-124144819D01*
X148710476Y-124144819D02*
X148710476Y-123144819D01*
X148710476Y-123144819D02*
X149043809Y-123144819D01*
X149043809Y-123144819D02*
X149139047Y-123192438D01*
X149139047Y-123192438D02*
X149186666Y-123240057D01*
X149186666Y-123240057D02*
X149234285Y-123335295D01*
X149234285Y-123335295D02*
X149234285Y-123430533D01*
X149234285Y-123430533D02*
X149186666Y-123525771D01*
X149186666Y-123525771D02*
X149139047Y-123573390D01*
X149139047Y-123573390D02*
X149043809Y-123621009D01*
X149043809Y-123621009D02*
X148710476Y-123621009D01*
X150234285Y-124144819D02*
X149662857Y-124144819D01*
X149948571Y-124144819D02*
X149948571Y-123144819D01*
X149948571Y-123144819D02*
X149853333Y-123287676D01*
X149853333Y-123287676D02*
X149758095Y-123382914D01*
X149758095Y-123382914D02*
X149662857Y-123430533D01*
X140543333Y-124149580D02*
X140495714Y-124197200D01*
X140495714Y-124197200D02*
X140352857Y-124244819D01*
X140352857Y-124244819D02*
X140257619Y-124244819D01*
X140257619Y-124244819D02*
X140114762Y-124197200D01*
X140114762Y-124197200D02*
X140019524Y-124101961D01*
X140019524Y-124101961D02*
X139971905Y-124006723D01*
X139971905Y-124006723D02*
X139924286Y-123816247D01*
X139924286Y-123816247D02*
X139924286Y-123673390D01*
X139924286Y-123673390D02*
X139971905Y-123482914D01*
X139971905Y-123482914D02*
X140019524Y-123387676D01*
X140019524Y-123387676D02*
X140114762Y-123292438D01*
X140114762Y-123292438D02*
X140257619Y-123244819D01*
X140257619Y-123244819D02*
X140352857Y-123244819D01*
X140352857Y-123244819D02*
X140495714Y-123292438D01*
X140495714Y-123292438D02*
X140543333Y-123340057D01*
X140924286Y-123340057D02*
X140971905Y-123292438D01*
X140971905Y-123292438D02*
X141067143Y-123244819D01*
X141067143Y-123244819D02*
X141305238Y-123244819D01*
X141305238Y-123244819D02*
X141400476Y-123292438D01*
X141400476Y-123292438D02*
X141448095Y-123340057D01*
X141448095Y-123340057D02*
X141495714Y-123435295D01*
X141495714Y-123435295D02*
X141495714Y-123530533D01*
X141495714Y-123530533D02*
X141448095Y-123673390D01*
X141448095Y-123673390D02*
X140876667Y-124244819D01*
X140876667Y-124244819D02*
X141495714Y-124244819D01*
X127053333Y-102919580D02*
X127005714Y-102967200D01*
X127005714Y-102967200D02*
X126862857Y-103014819D01*
X126862857Y-103014819D02*
X126767619Y-103014819D01*
X126767619Y-103014819D02*
X126624762Y-102967200D01*
X126624762Y-102967200D02*
X126529524Y-102871961D01*
X126529524Y-102871961D02*
X126481905Y-102776723D01*
X126481905Y-102776723D02*
X126434286Y-102586247D01*
X126434286Y-102586247D02*
X126434286Y-102443390D01*
X126434286Y-102443390D02*
X126481905Y-102252914D01*
X126481905Y-102252914D02*
X126529524Y-102157676D01*
X126529524Y-102157676D02*
X126624762Y-102062438D01*
X126624762Y-102062438D02*
X126767619Y-102014819D01*
X126767619Y-102014819D02*
X126862857Y-102014819D01*
X126862857Y-102014819D02*
X127005714Y-102062438D01*
X127005714Y-102062438D02*
X127053333Y-102110057D01*
X127958095Y-102014819D02*
X127481905Y-102014819D01*
X127481905Y-102014819D02*
X127434286Y-102491009D01*
X127434286Y-102491009D02*
X127481905Y-102443390D01*
X127481905Y-102443390D02*
X127577143Y-102395771D01*
X127577143Y-102395771D02*
X127815238Y-102395771D01*
X127815238Y-102395771D02*
X127910476Y-102443390D01*
X127910476Y-102443390D02*
X127958095Y-102491009D01*
X127958095Y-102491009D02*
X128005714Y-102586247D01*
X128005714Y-102586247D02*
X128005714Y-102824342D01*
X128005714Y-102824342D02*
X127958095Y-102919580D01*
X127958095Y-102919580D02*
X127910476Y-102967200D01*
X127910476Y-102967200D02*
X127815238Y-103014819D01*
X127815238Y-103014819D02*
X127577143Y-103014819D01*
X127577143Y-103014819D02*
X127481905Y-102967200D01*
X127481905Y-102967200D02*
X127434286Y-102919580D01*
X130198095Y-89214819D02*
X130198095Y-90024342D01*
X130198095Y-90024342D02*
X130245714Y-90119580D01*
X130245714Y-90119580D02*
X130293333Y-90167200D01*
X130293333Y-90167200D02*
X130388571Y-90214819D01*
X130388571Y-90214819D02*
X130579047Y-90214819D01*
X130579047Y-90214819D02*
X130674285Y-90167200D01*
X130674285Y-90167200D02*
X130721904Y-90119580D01*
X130721904Y-90119580D02*
X130769523Y-90024342D01*
X130769523Y-90024342D02*
X130769523Y-89214819D01*
X131721904Y-89214819D02*
X131245714Y-89214819D01*
X131245714Y-89214819D02*
X131198095Y-89691009D01*
X131198095Y-89691009D02*
X131245714Y-89643390D01*
X131245714Y-89643390D02*
X131340952Y-89595771D01*
X131340952Y-89595771D02*
X131579047Y-89595771D01*
X131579047Y-89595771D02*
X131674285Y-89643390D01*
X131674285Y-89643390D02*
X131721904Y-89691009D01*
X131721904Y-89691009D02*
X131769523Y-89786247D01*
X131769523Y-89786247D02*
X131769523Y-90024342D01*
X131769523Y-90024342D02*
X131721904Y-90119580D01*
X131721904Y-90119580D02*
X131674285Y-90167200D01*
X131674285Y-90167200D02*
X131579047Y-90214819D01*
X131579047Y-90214819D02*
X131340952Y-90214819D01*
X131340952Y-90214819D02*
X131245714Y-90167200D01*
X131245714Y-90167200D02*
X131198095Y-90119580D01*
X138594819Y-94952857D02*
X138118628Y-95286190D01*
X138594819Y-95524285D02*
X137594819Y-95524285D01*
X137594819Y-95524285D02*
X137594819Y-95143333D01*
X137594819Y-95143333D02*
X137642438Y-95048095D01*
X137642438Y-95048095D02*
X137690057Y-95000476D01*
X137690057Y-95000476D02*
X137785295Y-94952857D01*
X137785295Y-94952857D02*
X137928152Y-94952857D01*
X137928152Y-94952857D02*
X138023390Y-95000476D01*
X138023390Y-95000476D02*
X138071009Y-95048095D01*
X138071009Y-95048095D02*
X138118628Y-95143333D01*
X138118628Y-95143333D02*
X138118628Y-95524285D01*
X138594819Y-94000476D02*
X138594819Y-94571904D01*
X138594819Y-94286190D02*
X137594819Y-94286190D01*
X137594819Y-94286190D02*
X137737676Y-94381428D01*
X137737676Y-94381428D02*
X137832914Y-94476666D01*
X137832914Y-94476666D02*
X137880533Y-94571904D01*
X138594819Y-93524285D02*
X138594819Y-93333809D01*
X138594819Y-93333809D02*
X138547200Y-93238571D01*
X138547200Y-93238571D02*
X138499580Y-93190952D01*
X138499580Y-93190952D02*
X138356723Y-93095714D01*
X138356723Y-93095714D02*
X138166247Y-93048095D01*
X138166247Y-93048095D02*
X137785295Y-93048095D01*
X137785295Y-93048095D02*
X137690057Y-93095714D01*
X137690057Y-93095714D02*
X137642438Y-93143333D01*
X137642438Y-93143333D02*
X137594819Y-93238571D01*
X137594819Y-93238571D02*
X137594819Y-93429047D01*
X137594819Y-93429047D02*
X137642438Y-93524285D01*
X137642438Y-93524285D02*
X137690057Y-93571904D01*
X137690057Y-93571904D02*
X137785295Y-93619523D01*
X137785295Y-93619523D02*
X138023390Y-93619523D01*
X138023390Y-93619523D02*
X138118628Y-93571904D01*
X138118628Y-93571904D02*
X138166247Y-93524285D01*
X138166247Y-93524285D02*
X138213866Y-93429047D01*
X138213866Y-93429047D02*
X138213866Y-93238571D01*
X138213866Y-93238571D02*
X138166247Y-93143333D01*
X138166247Y-93143333D02*
X138118628Y-93095714D01*
X138118628Y-93095714D02*
X138023390Y-93048095D01*
X131053333Y-127629580D02*
X131005714Y-127677200D01*
X131005714Y-127677200D02*
X130862857Y-127724819D01*
X130862857Y-127724819D02*
X130767619Y-127724819D01*
X130767619Y-127724819D02*
X130624762Y-127677200D01*
X130624762Y-127677200D02*
X130529524Y-127581961D01*
X130529524Y-127581961D02*
X130481905Y-127486723D01*
X130481905Y-127486723D02*
X130434286Y-127296247D01*
X130434286Y-127296247D02*
X130434286Y-127153390D01*
X130434286Y-127153390D02*
X130481905Y-126962914D01*
X130481905Y-126962914D02*
X130529524Y-126867676D01*
X130529524Y-126867676D02*
X130624762Y-126772438D01*
X130624762Y-126772438D02*
X130767619Y-126724819D01*
X130767619Y-126724819D02*
X130862857Y-126724819D01*
X130862857Y-126724819D02*
X131005714Y-126772438D01*
X131005714Y-126772438D02*
X131053333Y-126820057D01*
X132005714Y-127724819D02*
X131434286Y-127724819D01*
X131720000Y-127724819D02*
X131720000Y-126724819D01*
X131720000Y-126724819D02*
X131624762Y-126867676D01*
X131624762Y-126867676D02*
X131529524Y-126962914D01*
X131529524Y-126962914D02*
X131434286Y-127010533D01*
X156474819Y-126946666D02*
X155998628Y-127279999D01*
X156474819Y-127518094D02*
X155474819Y-127518094D01*
X155474819Y-127518094D02*
X155474819Y-127137142D01*
X155474819Y-127137142D02*
X155522438Y-127041904D01*
X155522438Y-127041904D02*
X155570057Y-126994285D01*
X155570057Y-126994285D02*
X155665295Y-126946666D01*
X155665295Y-126946666D02*
X155808152Y-126946666D01*
X155808152Y-126946666D02*
X155903390Y-126994285D01*
X155903390Y-126994285D02*
X155951009Y-127041904D01*
X155951009Y-127041904D02*
X155998628Y-127137142D01*
X155998628Y-127137142D02*
X155998628Y-127518094D01*
X156474819Y-125994285D02*
X156474819Y-126565713D01*
X156474819Y-126279999D02*
X155474819Y-126279999D01*
X155474819Y-126279999D02*
X155617676Y-126375237D01*
X155617676Y-126375237D02*
X155712914Y-126470475D01*
X155712914Y-126470475D02*
X155760533Y-126565713D01*
X146601845Y-87819819D02*
X146601845Y-88629342D01*
X146601845Y-88629342D02*
X146649464Y-88724580D01*
X146649464Y-88724580D02*
X146697083Y-88772200D01*
X146697083Y-88772200D02*
X146792321Y-88819819D01*
X146792321Y-88819819D02*
X146982797Y-88819819D01*
X146982797Y-88819819D02*
X147078035Y-88772200D01*
X147078035Y-88772200D02*
X147125654Y-88724580D01*
X147125654Y-88724580D02*
X147173273Y-88629342D01*
X147173273Y-88629342D02*
X147173273Y-87819819D01*
X148173273Y-88819819D02*
X147601845Y-88819819D01*
X147887559Y-88819819D02*
X147887559Y-87819819D01*
X147887559Y-87819819D02*
X147792321Y-87962676D01*
X147792321Y-87962676D02*
X147697083Y-88057914D01*
X147697083Y-88057914D02*
X147601845Y-88105533D01*
X154136667Y-124174819D02*
X154136667Y-123174819D01*
X154136667Y-123651009D02*
X154708095Y-123651009D01*
X154708095Y-124174819D02*
X154708095Y-123174819D01*
X155184286Y-124174819D02*
X155184286Y-123174819D01*
X155184286Y-123174819D02*
X155517619Y-123889104D01*
X155517619Y-123889104D02*
X155850952Y-123174819D01*
X155850952Y-123174819D02*
X155850952Y-124174819D01*
X156850952Y-124174819D02*
X156279524Y-124174819D01*
X156565238Y-124174819D02*
X156565238Y-123174819D01*
X156565238Y-123174819D02*
X156470000Y-123317676D01*
X156470000Y-123317676D02*
X156374762Y-123412914D01*
X156374762Y-123412914D02*
X156279524Y-123460533D01*
X153318569Y-101061666D02*
X153318569Y-101537856D01*
X153318569Y-101537856D02*
X152318569Y-101537856D01*
X152318569Y-100823570D02*
X152318569Y-100156904D01*
X152318569Y-100156904D02*
X153318569Y-100585475D01*
X149663333Y-111244819D02*
X149330000Y-110768628D01*
X149091905Y-111244819D02*
X149091905Y-110244819D01*
X149091905Y-110244819D02*
X149472857Y-110244819D01*
X149472857Y-110244819D02*
X149568095Y-110292438D01*
X149568095Y-110292438D02*
X149615714Y-110340057D01*
X149615714Y-110340057D02*
X149663333Y-110435295D01*
X149663333Y-110435295D02*
X149663333Y-110578152D01*
X149663333Y-110578152D02*
X149615714Y-110673390D01*
X149615714Y-110673390D02*
X149568095Y-110721009D01*
X149568095Y-110721009D02*
X149472857Y-110768628D01*
X149472857Y-110768628D02*
X149091905Y-110768628D01*
X150044286Y-110340057D02*
X150091905Y-110292438D01*
X150091905Y-110292438D02*
X150187143Y-110244819D01*
X150187143Y-110244819D02*
X150425238Y-110244819D01*
X150425238Y-110244819D02*
X150520476Y-110292438D01*
X150520476Y-110292438D02*
X150568095Y-110340057D01*
X150568095Y-110340057D02*
X150615714Y-110435295D01*
X150615714Y-110435295D02*
X150615714Y-110530533D01*
X150615714Y-110530533D02*
X150568095Y-110673390D01*
X150568095Y-110673390D02*
X149996667Y-111244819D01*
X149996667Y-111244819D02*
X150615714Y-111244819D01*
X121700833Y-104624819D02*
X121367500Y-104148628D01*
X121129405Y-104624819D02*
X121129405Y-103624819D01*
X121129405Y-103624819D02*
X121510357Y-103624819D01*
X121510357Y-103624819D02*
X121605595Y-103672438D01*
X121605595Y-103672438D02*
X121653214Y-103720057D01*
X121653214Y-103720057D02*
X121700833Y-103815295D01*
X121700833Y-103815295D02*
X121700833Y-103958152D01*
X121700833Y-103958152D02*
X121653214Y-104053390D01*
X121653214Y-104053390D02*
X121605595Y-104101009D01*
X121605595Y-104101009D02*
X121510357Y-104148628D01*
X121510357Y-104148628D02*
X121129405Y-104148628D01*
X122557976Y-103958152D02*
X122557976Y-104624819D01*
X122319881Y-103577200D02*
X122081786Y-104291485D01*
X122081786Y-104291485D02*
X122700833Y-104291485D01*
X126407142Y-107869580D02*
X126359523Y-107917200D01*
X126359523Y-107917200D02*
X126216666Y-107964819D01*
X126216666Y-107964819D02*
X126121428Y-107964819D01*
X126121428Y-107964819D02*
X125978571Y-107917200D01*
X125978571Y-107917200D02*
X125883333Y-107821961D01*
X125883333Y-107821961D02*
X125835714Y-107726723D01*
X125835714Y-107726723D02*
X125788095Y-107536247D01*
X125788095Y-107536247D02*
X125788095Y-107393390D01*
X125788095Y-107393390D02*
X125835714Y-107202914D01*
X125835714Y-107202914D02*
X125883333Y-107107676D01*
X125883333Y-107107676D02*
X125978571Y-107012438D01*
X125978571Y-107012438D02*
X126121428Y-106964819D01*
X126121428Y-106964819D02*
X126216666Y-106964819D01*
X126216666Y-106964819D02*
X126359523Y-107012438D01*
X126359523Y-107012438D02*
X126407142Y-107060057D01*
X127359523Y-107964819D02*
X126788095Y-107964819D01*
X127073809Y-107964819D02*
X127073809Y-106964819D01*
X127073809Y-106964819D02*
X126978571Y-107107676D01*
X126978571Y-107107676D02*
X126883333Y-107202914D01*
X126883333Y-107202914D02*
X126788095Y-107250533D01*
X127692857Y-106964819D02*
X128311904Y-106964819D01*
X128311904Y-106964819D02*
X127978571Y-107345771D01*
X127978571Y-107345771D02*
X128121428Y-107345771D01*
X128121428Y-107345771D02*
X128216666Y-107393390D01*
X128216666Y-107393390D02*
X128264285Y-107441009D01*
X128264285Y-107441009D02*
X128311904Y-107536247D01*
X128311904Y-107536247D02*
X128311904Y-107774342D01*
X128311904Y-107774342D02*
X128264285Y-107869580D01*
X128264285Y-107869580D02*
X128216666Y-107917200D01*
X128216666Y-107917200D02*
X128121428Y-107964819D01*
X128121428Y-107964819D02*
X127835714Y-107964819D01*
X127835714Y-107964819D02*
X127740476Y-107917200D01*
X127740476Y-107917200D02*
X127692857Y-107869580D01*
X158430892Y-103044580D02*
X158383273Y-103092200D01*
X158383273Y-103092200D02*
X158240416Y-103139819D01*
X158240416Y-103139819D02*
X158145178Y-103139819D01*
X158145178Y-103139819D02*
X158002321Y-103092200D01*
X158002321Y-103092200D02*
X157907083Y-102996961D01*
X157907083Y-102996961D02*
X157859464Y-102901723D01*
X157859464Y-102901723D02*
X157811845Y-102711247D01*
X157811845Y-102711247D02*
X157811845Y-102568390D01*
X157811845Y-102568390D02*
X157859464Y-102377914D01*
X157859464Y-102377914D02*
X157907083Y-102282676D01*
X157907083Y-102282676D02*
X158002321Y-102187438D01*
X158002321Y-102187438D02*
X158145178Y-102139819D01*
X158145178Y-102139819D02*
X158240416Y-102139819D01*
X158240416Y-102139819D02*
X158383273Y-102187438D01*
X158383273Y-102187438D02*
X158430892Y-102235057D01*
X158764226Y-102139819D02*
X159383273Y-102139819D01*
X159383273Y-102139819D02*
X159049940Y-102520771D01*
X159049940Y-102520771D02*
X159192797Y-102520771D01*
X159192797Y-102520771D02*
X159288035Y-102568390D01*
X159288035Y-102568390D02*
X159335654Y-102616009D01*
X159335654Y-102616009D02*
X159383273Y-102711247D01*
X159383273Y-102711247D02*
X159383273Y-102949342D01*
X159383273Y-102949342D02*
X159335654Y-103044580D01*
X159335654Y-103044580D02*
X159288035Y-103092200D01*
X159288035Y-103092200D02*
X159192797Y-103139819D01*
X159192797Y-103139819D02*
X158907083Y-103139819D01*
X158907083Y-103139819D02*
X158811845Y-103092200D01*
X158811845Y-103092200D02*
X158764226Y-103044580D01*
X159716607Y-102139819D02*
X160335654Y-102139819D01*
X160335654Y-102139819D02*
X160002321Y-102520771D01*
X160002321Y-102520771D02*
X160145178Y-102520771D01*
X160145178Y-102520771D02*
X160240416Y-102568390D01*
X160240416Y-102568390D02*
X160288035Y-102616009D01*
X160288035Y-102616009D02*
X160335654Y-102711247D01*
X160335654Y-102711247D02*
X160335654Y-102949342D01*
X160335654Y-102949342D02*
X160288035Y-103044580D01*
X160288035Y-103044580D02*
X160240416Y-103092200D01*
X160240416Y-103092200D02*
X160145178Y-103139819D01*
X160145178Y-103139819D02*
X159859464Y-103139819D01*
X159859464Y-103139819D02*
X159764226Y-103092200D01*
X159764226Y-103092200D02*
X159716607Y-103044580D01*
X126347142Y-109439580D02*
X126299523Y-109487200D01*
X126299523Y-109487200D02*
X126156666Y-109534819D01*
X126156666Y-109534819D02*
X126061428Y-109534819D01*
X126061428Y-109534819D02*
X125918571Y-109487200D01*
X125918571Y-109487200D02*
X125823333Y-109391961D01*
X125823333Y-109391961D02*
X125775714Y-109296723D01*
X125775714Y-109296723D02*
X125728095Y-109106247D01*
X125728095Y-109106247D02*
X125728095Y-108963390D01*
X125728095Y-108963390D02*
X125775714Y-108772914D01*
X125775714Y-108772914D02*
X125823333Y-108677676D01*
X125823333Y-108677676D02*
X125918571Y-108582438D01*
X125918571Y-108582438D02*
X126061428Y-108534819D01*
X126061428Y-108534819D02*
X126156666Y-108534819D01*
X126156666Y-108534819D02*
X126299523Y-108582438D01*
X126299523Y-108582438D02*
X126347142Y-108630057D01*
X127299523Y-109534819D02*
X126728095Y-109534819D01*
X127013809Y-109534819D02*
X127013809Y-108534819D01*
X127013809Y-108534819D02*
X126918571Y-108677676D01*
X126918571Y-108677676D02*
X126823333Y-108772914D01*
X126823333Y-108772914D02*
X126728095Y-108820533D01*
X128156666Y-108868152D02*
X128156666Y-109534819D01*
X127918571Y-108487200D02*
X127680476Y-109201485D01*
X127680476Y-109201485D02*
X128299523Y-109201485D01*
X161104819Y-121776666D02*
X160628628Y-122109999D01*
X161104819Y-122348094D02*
X160104819Y-122348094D01*
X160104819Y-122348094D02*
X160104819Y-121967142D01*
X160104819Y-121967142D02*
X160152438Y-121871904D01*
X160152438Y-121871904D02*
X160200057Y-121824285D01*
X160200057Y-121824285D02*
X160295295Y-121776666D01*
X160295295Y-121776666D02*
X160438152Y-121776666D01*
X160438152Y-121776666D02*
X160533390Y-121824285D01*
X160533390Y-121824285D02*
X160581009Y-121871904D01*
X160581009Y-121871904D02*
X160628628Y-121967142D01*
X160628628Y-121967142D02*
X160628628Y-122348094D01*
X160104819Y-120871904D02*
X160104819Y-121348094D01*
X160104819Y-121348094D02*
X160581009Y-121395713D01*
X160581009Y-121395713D02*
X160533390Y-121348094D01*
X160533390Y-121348094D02*
X160485771Y-121252856D01*
X160485771Y-121252856D02*
X160485771Y-121014761D01*
X160485771Y-121014761D02*
X160533390Y-120919523D01*
X160533390Y-120919523D02*
X160581009Y-120871904D01*
X160581009Y-120871904D02*
X160676247Y-120824285D01*
X160676247Y-120824285D02*
X160914342Y-120824285D01*
X160914342Y-120824285D02*
X161009580Y-120871904D01*
X161009580Y-120871904D02*
X161057200Y-120919523D01*
X161057200Y-120919523D02*
X161104819Y-121014761D01*
X161104819Y-121014761D02*
X161104819Y-121252856D01*
X161104819Y-121252856D02*
X161057200Y-121348094D01*
X161057200Y-121348094D02*
X161009580Y-121395713D01*
X146667142Y-107899580D02*
X146619523Y-107947200D01*
X146619523Y-107947200D02*
X146476666Y-107994819D01*
X146476666Y-107994819D02*
X146381428Y-107994819D01*
X146381428Y-107994819D02*
X146238571Y-107947200D01*
X146238571Y-107947200D02*
X146143333Y-107851961D01*
X146143333Y-107851961D02*
X146095714Y-107756723D01*
X146095714Y-107756723D02*
X146048095Y-107566247D01*
X146048095Y-107566247D02*
X146048095Y-107423390D01*
X146048095Y-107423390D02*
X146095714Y-107232914D01*
X146095714Y-107232914D02*
X146143333Y-107137676D01*
X146143333Y-107137676D02*
X146238571Y-107042438D01*
X146238571Y-107042438D02*
X146381428Y-106994819D01*
X146381428Y-106994819D02*
X146476666Y-106994819D01*
X146476666Y-106994819D02*
X146619523Y-107042438D01*
X146619523Y-107042438D02*
X146667142Y-107090057D01*
X147619523Y-107994819D02*
X147048095Y-107994819D01*
X147333809Y-107994819D02*
X147333809Y-106994819D01*
X147333809Y-106994819D02*
X147238571Y-107137676D01*
X147238571Y-107137676D02*
X147143333Y-107232914D01*
X147143333Y-107232914D02*
X147048095Y-107280533D01*
X148476666Y-106994819D02*
X148286190Y-106994819D01*
X148286190Y-106994819D02*
X148190952Y-107042438D01*
X148190952Y-107042438D02*
X148143333Y-107090057D01*
X148143333Y-107090057D02*
X148048095Y-107232914D01*
X148048095Y-107232914D02*
X148000476Y-107423390D01*
X148000476Y-107423390D02*
X148000476Y-107804342D01*
X148000476Y-107804342D02*
X148048095Y-107899580D01*
X148048095Y-107899580D02*
X148095714Y-107947200D01*
X148095714Y-107947200D02*
X148190952Y-107994819D01*
X148190952Y-107994819D02*
X148381428Y-107994819D01*
X148381428Y-107994819D02*
X148476666Y-107947200D01*
X148476666Y-107947200D02*
X148524285Y-107899580D01*
X148524285Y-107899580D02*
X148571904Y-107804342D01*
X148571904Y-107804342D02*
X148571904Y-107566247D01*
X148571904Y-107566247D02*
X148524285Y-107471009D01*
X148524285Y-107471009D02*
X148476666Y-107423390D01*
X148476666Y-107423390D02*
X148381428Y-107375771D01*
X148381428Y-107375771D02*
X148190952Y-107375771D01*
X148190952Y-107375771D02*
X148095714Y-107423390D01*
X148095714Y-107423390D02*
X148048095Y-107471009D01*
X148048095Y-107471009D02*
X148000476Y-107566247D01*
X151409580Y-123536666D02*
X151457200Y-123584285D01*
X151457200Y-123584285D02*
X151504819Y-123727142D01*
X151504819Y-123727142D02*
X151504819Y-123822380D01*
X151504819Y-123822380D02*
X151457200Y-123965237D01*
X151457200Y-123965237D02*
X151361961Y-124060475D01*
X151361961Y-124060475D02*
X151266723Y-124108094D01*
X151266723Y-124108094D02*
X151076247Y-124155713D01*
X151076247Y-124155713D02*
X150933390Y-124155713D01*
X150933390Y-124155713D02*
X150742914Y-124108094D01*
X150742914Y-124108094D02*
X150647676Y-124060475D01*
X150647676Y-124060475D02*
X150552438Y-123965237D01*
X150552438Y-123965237D02*
X150504819Y-123822380D01*
X150504819Y-123822380D02*
X150504819Y-123727142D01*
X150504819Y-123727142D02*
X150552438Y-123584285D01*
X150552438Y-123584285D02*
X150600057Y-123536666D01*
X150838152Y-122679523D02*
X151504819Y-122679523D01*
X150457200Y-122917618D02*
X151171485Y-123155713D01*
X151171485Y-123155713D02*
X151171485Y-122536666D01*
X152269580Y-116842857D02*
X152317200Y-116890476D01*
X152317200Y-116890476D02*
X152364819Y-117033333D01*
X152364819Y-117033333D02*
X152364819Y-117128571D01*
X152364819Y-117128571D02*
X152317200Y-117271428D01*
X152317200Y-117271428D02*
X152221961Y-117366666D01*
X152221961Y-117366666D02*
X152126723Y-117414285D01*
X152126723Y-117414285D02*
X151936247Y-117461904D01*
X151936247Y-117461904D02*
X151793390Y-117461904D01*
X151793390Y-117461904D02*
X151602914Y-117414285D01*
X151602914Y-117414285D02*
X151507676Y-117366666D01*
X151507676Y-117366666D02*
X151412438Y-117271428D01*
X151412438Y-117271428D02*
X151364819Y-117128571D01*
X151364819Y-117128571D02*
X151364819Y-117033333D01*
X151364819Y-117033333D02*
X151412438Y-116890476D01*
X151412438Y-116890476D02*
X151460057Y-116842857D01*
X151460057Y-116461904D02*
X151412438Y-116414285D01*
X151412438Y-116414285D02*
X151364819Y-116319047D01*
X151364819Y-116319047D02*
X151364819Y-116080952D01*
X151364819Y-116080952D02*
X151412438Y-115985714D01*
X151412438Y-115985714D02*
X151460057Y-115938095D01*
X151460057Y-115938095D02*
X151555295Y-115890476D01*
X151555295Y-115890476D02*
X151650533Y-115890476D01*
X151650533Y-115890476D02*
X151793390Y-115938095D01*
X151793390Y-115938095D02*
X152364819Y-116509523D01*
X152364819Y-116509523D02*
X152364819Y-115890476D01*
X151460057Y-115509523D02*
X151412438Y-115461904D01*
X151412438Y-115461904D02*
X151364819Y-115366666D01*
X151364819Y-115366666D02*
X151364819Y-115128571D01*
X151364819Y-115128571D02*
X151412438Y-115033333D01*
X151412438Y-115033333D02*
X151460057Y-114985714D01*
X151460057Y-114985714D02*
X151555295Y-114938095D01*
X151555295Y-114938095D02*
X151650533Y-114938095D01*
X151650533Y-114938095D02*
X151793390Y-114985714D01*
X151793390Y-114985714D02*
X152364819Y-115557142D01*
X152364819Y-115557142D02*
X152364819Y-114938095D01*
X135464819Y-123603333D02*
X136179104Y-123603333D01*
X136179104Y-123603333D02*
X136321961Y-123650952D01*
X136321961Y-123650952D02*
X136417200Y-123746190D01*
X136417200Y-123746190D02*
X136464819Y-123889047D01*
X136464819Y-123889047D02*
X136464819Y-123984285D01*
X135560057Y-123174761D02*
X135512438Y-123127142D01*
X135512438Y-123127142D02*
X135464819Y-123031904D01*
X135464819Y-123031904D02*
X135464819Y-122793809D01*
X135464819Y-122793809D02*
X135512438Y-122698571D01*
X135512438Y-122698571D02*
X135560057Y-122650952D01*
X135560057Y-122650952D02*
X135655295Y-122603333D01*
X135655295Y-122603333D02*
X135750533Y-122603333D01*
X135750533Y-122603333D02*
X135893390Y-122650952D01*
X135893390Y-122650952D02*
X136464819Y-123222380D01*
X136464819Y-123222380D02*
X136464819Y-122603333D01*
X135977142Y-116234819D02*
X135643809Y-115758628D01*
X135405714Y-116234819D02*
X135405714Y-115234819D01*
X135405714Y-115234819D02*
X135786666Y-115234819D01*
X135786666Y-115234819D02*
X135881904Y-115282438D01*
X135881904Y-115282438D02*
X135929523Y-115330057D01*
X135929523Y-115330057D02*
X135977142Y-115425295D01*
X135977142Y-115425295D02*
X135977142Y-115568152D01*
X135977142Y-115568152D02*
X135929523Y-115663390D01*
X135929523Y-115663390D02*
X135881904Y-115711009D01*
X135881904Y-115711009D02*
X135786666Y-115758628D01*
X135786666Y-115758628D02*
X135405714Y-115758628D01*
X136929523Y-116234819D02*
X136358095Y-116234819D01*
X136643809Y-116234819D02*
X136643809Y-115234819D01*
X136643809Y-115234819D02*
X136548571Y-115377676D01*
X136548571Y-115377676D02*
X136453333Y-115472914D01*
X136453333Y-115472914D02*
X136358095Y-115520533D01*
X137500952Y-115663390D02*
X137405714Y-115615771D01*
X137405714Y-115615771D02*
X137358095Y-115568152D01*
X137358095Y-115568152D02*
X137310476Y-115472914D01*
X137310476Y-115472914D02*
X137310476Y-115425295D01*
X137310476Y-115425295D02*
X137358095Y-115330057D01*
X137358095Y-115330057D02*
X137405714Y-115282438D01*
X137405714Y-115282438D02*
X137500952Y-115234819D01*
X137500952Y-115234819D02*
X137691428Y-115234819D01*
X137691428Y-115234819D02*
X137786666Y-115282438D01*
X137786666Y-115282438D02*
X137834285Y-115330057D01*
X137834285Y-115330057D02*
X137881904Y-115425295D01*
X137881904Y-115425295D02*
X137881904Y-115472914D01*
X137881904Y-115472914D02*
X137834285Y-115568152D01*
X137834285Y-115568152D02*
X137786666Y-115615771D01*
X137786666Y-115615771D02*
X137691428Y-115663390D01*
X137691428Y-115663390D02*
X137500952Y-115663390D01*
X137500952Y-115663390D02*
X137405714Y-115711009D01*
X137405714Y-115711009D02*
X137358095Y-115758628D01*
X137358095Y-115758628D02*
X137310476Y-115853866D01*
X137310476Y-115853866D02*
X137310476Y-116044342D01*
X137310476Y-116044342D02*
X137358095Y-116139580D01*
X137358095Y-116139580D02*
X137405714Y-116187200D01*
X137405714Y-116187200D02*
X137500952Y-116234819D01*
X137500952Y-116234819D02*
X137691428Y-116234819D01*
X137691428Y-116234819D02*
X137786666Y-116187200D01*
X137786666Y-116187200D02*
X137834285Y-116139580D01*
X137834285Y-116139580D02*
X137881904Y-116044342D01*
X137881904Y-116044342D02*
X137881904Y-115853866D01*
X137881904Y-115853866D02*
X137834285Y-115758628D01*
X137834285Y-115758628D02*
X137786666Y-115711009D01*
X137786666Y-115711009D02*
X137691428Y-115663390D01*
X136057142Y-117814819D02*
X135723809Y-117338628D01*
X135485714Y-117814819D02*
X135485714Y-116814819D01*
X135485714Y-116814819D02*
X135866666Y-116814819D01*
X135866666Y-116814819D02*
X135961904Y-116862438D01*
X135961904Y-116862438D02*
X136009523Y-116910057D01*
X136009523Y-116910057D02*
X136057142Y-117005295D01*
X136057142Y-117005295D02*
X136057142Y-117148152D01*
X136057142Y-117148152D02*
X136009523Y-117243390D01*
X136009523Y-117243390D02*
X135961904Y-117291009D01*
X135961904Y-117291009D02*
X135866666Y-117338628D01*
X135866666Y-117338628D02*
X135485714Y-117338628D01*
X137009523Y-117814819D02*
X136438095Y-117814819D01*
X136723809Y-117814819D02*
X136723809Y-116814819D01*
X136723809Y-116814819D02*
X136628571Y-116957676D01*
X136628571Y-116957676D02*
X136533333Y-117052914D01*
X136533333Y-117052914D02*
X136438095Y-117100533D01*
X137342857Y-116814819D02*
X138009523Y-116814819D01*
X138009523Y-116814819D02*
X137580952Y-117814819D01*
D12*
%TO.C,Q1*%
X135850000Y-89810000D02*
X135950000Y-89810000D01*
X135850000Y-92730000D02*
X135850000Y-89810000D01*
X135950000Y-89810000D02*
X135950000Y-92730000D01*
X135950000Y-92730000D02*
X135850000Y-92730000D01*
X137600000Y-92770000D02*
X136300000Y-92770000D01*
D13*
%TO.C,R6*%
X152377500Y-121104724D02*
X152377500Y-120595276D01*
X153422500Y-121104724D02*
X153422500Y-120595276D01*
%TO.C,SC1*%
X120790000Y-119755000D02*
X120790000Y-117155000D01*
X123450000Y-117155000D02*
X120790000Y-117155000D01*
X123450000Y-119755000D02*
X120790000Y-119755000D01*
X123450000Y-119755000D02*
X123450000Y-117155000D01*
X123450000Y-121025000D02*
X123450000Y-122355000D01*
X123450000Y-122355000D02*
X122120000Y-122355000D01*
%TO.C,C29*%
X151557483Y-93185000D02*
X151850017Y-93185000D01*
X151557483Y-94205000D02*
X151850017Y-94205000D01*
%TO.C,R15*%
X147037500Y-120964724D02*
X147037500Y-120455276D01*
X148082500Y-120964724D02*
X148082500Y-120455276D01*
%TO.C,C37*%
X149470000Y-117236267D02*
X149470000Y-116943733D01*
X150490000Y-117236267D02*
X150490000Y-116943733D01*
%TO.C,R21*%
X135732224Y-87617500D02*
X135222776Y-87617500D01*
X135732224Y-88662500D02*
X135222776Y-88662500D01*
%TO.C,C30*%
X153590017Y-91535000D02*
X153297483Y-91535000D01*
X153590017Y-92555000D02*
X153297483Y-92555000D01*
%TO.C,U4*%
X155810000Y-106520000D02*
X155010000Y-106520000D01*
X155810000Y-106520000D02*
X156610000Y-106520000D01*
X155810000Y-109640000D02*
X155010000Y-109640000D01*
X155810000Y-109640000D02*
X156610000Y-109640000D01*
X157350000Y-109920000D02*
X156870000Y-109920000D01*
X157110000Y-109590000D01*
X157350000Y-109920000D01*
G36*
X157350000Y-109920000D02*
G01*
X156870000Y-109920000D01*
X157110000Y-109590000D01*
X157350000Y-109920000D01*
G37*
%TO.C,C7*%
X142253733Y-111590000D02*
X142546267Y-111590000D01*
X142253733Y-112610000D02*
X142546267Y-112610000D01*
D12*
%TO.C,PS1*%
X142040000Y-124510000D02*
X143240000Y-124510000D01*
X143590000Y-124560000D02*
X144190000Y-124560000D01*
X143590000Y-127460000D02*
X143590000Y-124560000D01*
X144190000Y-124560000D02*
X144190000Y-127460000D01*
X144190000Y-127460000D02*
X143590000Y-127460000D01*
D13*
%TO.C,C21*%
X157620000Y-116071233D02*
X157620000Y-116363767D01*
X158640000Y-116071233D02*
X158640000Y-116363767D01*
%TO.C,C19*%
X158300000Y-108243767D02*
X158300000Y-107951233D01*
X159320000Y-108243767D02*
X159320000Y-107951233D01*
%TO.C,R14*%
X133914724Y-113617500D02*
X133405276Y-113617500D01*
X133914724Y-114662500D02*
X133405276Y-114662500D01*
%TO.C,C28*%
X141210017Y-89265000D02*
X140917483Y-89265000D01*
X141210017Y-90285000D02*
X140917483Y-90285000D01*
%TO.C,C31*%
X155240017Y-96635000D02*
X154947483Y-96635000D01*
X155240017Y-97655000D02*
X154947483Y-97655000D01*
%TO.C,J3*%
X125580000Y-86300000D02*
X126380000Y-86300000D01*
X125580000Y-86500000D02*
X125580000Y-86300000D01*
X125780000Y-89300000D02*
X125580000Y-89100000D01*
X126380000Y-89300000D02*
X125780000Y-89300000D01*
X126380000Y-89300000D02*
X126380000Y-89800000D01*
X127780000Y-86300000D02*
X128580000Y-86300000D01*
X127780000Y-89300000D02*
X127780000Y-89800000D01*
X128580000Y-86300000D02*
X128580000Y-86500000D01*
X128580000Y-89100000D02*
X128580000Y-89300000D01*
X128580000Y-89300000D02*
X127780000Y-89300000D01*
%TO.C,C20*%
X155950000Y-116071233D02*
X155950000Y-116363767D01*
X156970000Y-116071233D02*
X156970000Y-116363767D01*
%TO.C,C11*%
X147601233Y-101430000D02*
X147893767Y-101430000D01*
X147601233Y-102450000D02*
X147893767Y-102450000D01*
%TO.C,D3*%
X152055000Y-125230000D02*
X152055000Y-127690000D01*
X152055000Y-127690000D02*
X153525000Y-127690000D01*
X153525000Y-127690000D02*
X153525000Y-125230000D01*
%TO.C,R12*%
X130132224Y-105237500D02*
X129622776Y-105237500D01*
X130132224Y-106282500D02*
X129622776Y-106282500D01*
%TO.C,R11*%
X128437500Y-113115276D02*
X128437500Y-113624724D01*
X129482500Y-113115276D02*
X129482500Y-113624724D01*
%TO.C,C24*%
X132492500Y-93283733D02*
X132492500Y-93576267D01*
X133512500Y-93283733D02*
X133512500Y-93576267D01*
%TO.C,L6*%
X152053750Y-96093733D02*
X152053750Y-96436267D01*
X153073750Y-96093733D02*
X153073750Y-96436267D01*
%TO.C,C18*%
X135720000Y-120396267D02*
X135720000Y-120103733D01*
X136740000Y-120396267D02*
X136740000Y-120103733D01*
%TO.C,R19*%
X142644724Y-116627500D02*
X142135276Y-116627500D01*
X142644724Y-117672500D02*
X142135276Y-117672500D01*
%TO.C,R13*%
X142634724Y-114977500D02*
X142125276Y-114977500D01*
X142634724Y-116022500D02*
X142125276Y-116022500D01*
%TO.C,C6*%
X130026267Y-103640000D02*
X129733733Y-103640000D01*
X130026267Y-104660000D02*
X129733733Y-104660000D01*
%TO.C,R7*%
X140255276Y-93957500D02*
X140764724Y-93957500D01*
X140255276Y-95002500D02*
X140764724Y-95002500D01*
%TO.C,C26*%
X144780017Y-87635000D02*
X144487483Y-87635000D01*
X144780017Y-88655000D02*
X144487483Y-88655000D01*
%TO.C,C17*%
X133543733Y-112020000D02*
X133836267Y-112020000D01*
X133543733Y-113040000D02*
X133836267Y-113040000D01*
%TO.C,C32*%
X156900017Y-100105000D02*
X156607483Y-100105000D01*
X156900017Y-101125000D02*
X156607483Y-101125000D01*
D12*
%TO.C,Y1*%
X144383750Y-97925000D02*
X144383750Y-97925000D01*
X144583750Y-97925000D02*
X144583750Y-97925000D01*
D14*
X147083750Y-95325000D02*
X148083750Y-95325000D01*
X147083750Y-98525000D02*
X148083750Y-98525000D01*
D12*
X144383750Y-97925000D02*
G75*
G02*
X144583750Y-97925000I100000J0D01*
G01*
X144583750Y-97925000D02*
G75*
G02*
X144383750Y-97925000I-100000J0D01*
G01*
D13*
%TO.C,C9*%
X147593733Y-103030000D02*
X147886267Y-103030000D01*
X147593733Y-104050000D02*
X147886267Y-104050000D01*
%TO.C,L8*%
X155373750Y-103013733D02*
X155373750Y-103356267D01*
X156393750Y-103013733D02*
X156393750Y-103356267D01*
%TO.C,L1*%
X143698733Y-122760000D02*
X144041267Y-122760000D01*
X143698733Y-123780000D02*
X144041267Y-123780000D01*
%TO.C,R8*%
X141155276Y-95537500D02*
X141664724Y-95537500D01*
X141155276Y-96582500D02*
X141664724Y-96582500D01*
%TO.C,J1*%
X144960000Y-118385000D02*
X144960000Y-111915000D01*
X145782470Y-111915000D02*
X144960000Y-111915000D01*
X145782470Y-118385000D02*
X144960000Y-118385000D01*
X146600000Y-116983471D02*
X146600000Y-117126529D01*
X146600000Y-118253471D02*
X146600000Y-118385000D01*
X146600000Y-118385000D02*
X146397530Y-118385000D01*
X146796529Y-116930000D02*
X146653471Y-116930000D01*
X147052470Y-111915000D02*
X146397530Y-111915000D01*
X148490000Y-111915000D02*
X147667530Y-111915000D01*
X148490000Y-114010000D02*
X148490000Y-111915000D01*
X148490000Y-116930000D02*
X147923471Y-116930000D01*
X148490000Y-117690000D02*
X148490000Y-118450000D01*
X148490000Y-118450000D02*
X147360000Y-118450000D01*
X148500000Y-116930000D02*
X148500000Y-116290000D01*
X148915000Y-114020000D02*
X148485000Y-114020000D01*
X148930000Y-116300000D02*
X148930000Y-114020000D01*
X148935000Y-116290000D02*
X148500000Y-116290000D01*
%TO.C,U6*%
X132057500Y-120217500D02*
X132057500Y-119417500D01*
X132057500Y-120217500D02*
X132057500Y-121017500D01*
X135177500Y-120217500D02*
X135177500Y-119417500D01*
X135177500Y-120217500D02*
X135177500Y-121017500D01*
X135457500Y-119157500D02*
X135127500Y-118917500D01*
X135457500Y-118677500D01*
X135457500Y-119157500D01*
G36*
X135457500Y-119157500D02*
G01*
X135127500Y-118917500D01*
X135457500Y-118677500D01*
X135457500Y-119157500D01*
G37*
%TO.C,R16*%
X145317500Y-120455276D02*
X145317500Y-120964724D01*
X146362500Y-120455276D02*
X146362500Y-120964724D01*
%TO.C,C8*%
X142253733Y-113270000D02*
X142546267Y-113270000D01*
X142253733Y-114290000D02*
X142546267Y-114290000D01*
%TO.C,D1*%
X131390000Y-120090000D02*
X127730000Y-120090000D01*
X131390000Y-121990000D02*
X127730000Y-121990000D01*
X131390000Y-121990000D02*
X131390000Y-120090000D01*
%TO.C,C27*%
X141207517Y-87635000D02*
X140914983Y-87635000D01*
X141207517Y-88655000D02*
X140914983Y-88655000D01*
%TO.C,C15*%
X130033767Y-110200000D02*
X129741233Y-110200000D01*
X130033767Y-111220000D02*
X129741233Y-111220000D01*
%TO.C,R20*%
X135505276Y-95127500D02*
X136014724Y-95127500D01*
X135505276Y-96172500D02*
X136014724Y-96172500D01*
%TO.C,C23*%
X156173733Y-118310000D02*
X156466267Y-118310000D01*
X156173733Y-119330000D02*
X156466267Y-119330000D01*
%TO.C,C3*%
X146460000Y-126166267D02*
X146460000Y-125873733D01*
X147480000Y-126166267D02*
X147480000Y-125873733D01*
D12*
%TO.C,FB3*%
X124020000Y-107255000D02*
X124020000Y-108305000D01*
D13*
%TO.C,L4*%
X148653750Y-88773733D02*
X148653750Y-89116267D01*
X149673750Y-88773733D02*
X149673750Y-89116267D01*
%TO.C,C12*%
X123841233Y-105340000D02*
X124133767Y-105340000D01*
X123841233Y-106360000D02*
X124133767Y-106360000D01*
%TO.C,D2*%
X129915000Y-111712500D02*
X129915000Y-114172500D01*
X131385000Y-111712500D02*
X129915000Y-111712500D01*
X131385000Y-114172500D02*
X131385000Y-111712500D01*
%TO.C,IC1*%
X133660000Y-99450000D02*
X133660000Y-100400000D01*
X133660000Y-109670000D02*
X133660000Y-108720000D01*
X134610000Y-99450000D02*
X133660000Y-99450000D01*
X134610000Y-109670000D02*
X133660000Y-109670000D01*
X142930000Y-99450000D02*
X143880000Y-99450000D01*
X142930000Y-109670000D02*
X143880000Y-109670000D01*
X143880000Y-99450000D02*
X143880000Y-100400000D01*
X143880000Y-109670000D02*
X143880000Y-108720000D01*
X133045000Y-100400000D02*
X132705000Y-99930000D01*
X133385000Y-99930000D01*
X133045000Y-100400000D01*
G36*
X133045000Y-100400000D02*
G01*
X132705000Y-99930000D01*
X133385000Y-99930000D01*
X133045000Y-100400000D01*
G37*
%TO.C,C10*%
X147593733Y-104660000D02*
X147886267Y-104660000D01*
X147593733Y-105680000D02*
X147886267Y-105680000D01*
%TO.C,U2*%
X153930000Y-113690000D02*
X153930000Y-110690000D01*
X159150000Y-113690000D02*
X159150000Y-110690000D01*
X154260000Y-114570000D02*
X153780000Y-114090000D01*
X154260000Y-114090000D01*
X154260000Y-114570000D01*
G36*
X154260000Y-114570000D02*
G01*
X153780000Y-114090000D01*
X154260000Y-114090000D01*
X154260000Y-114570000D01*
G37*
%TO.C,R3*%
X124302776Y-102027500D02*
X124812224Y-102027500D01*
X124302776Y-103072500D02*
X124812224Y-103072500D01*
%TO.C,L5*%
X148663750Y-92613733D02*
X148663750Y-92956267D01*
X149683750Y-92613733D02*
X149683750Y-92956267D01*
D12*
%TO.C,FB1*%
X148455000Y-126020000D02*
X149505000Y-126020000D01*
D13*
%TO.C,C2*%
X140270000Y-125873733D02*
X140270000Y-126166267D01*
X141290000Y-125873733D02*
X141290000Y-126166267D01*
%TO.C,C5*%
X130041267Y-102070000D02*
X129748733Y-102070000D01*
X130041267Y-103090000D02*
X129748733Y-103090000D01*
%TO.C,U5*%
X120950000Y-90830000D02*
X120950000Y-90680000D01*
X120950000Y-101000000D02*
X120950000Y-100850000D01*
X130870000Y-90680000D02*
X120950000Y-90680000D01*
X130870000Y-90830000D02*
X130870000Y-90680000D01*
X130870000Y-101000000D02*
X120950000Y-101000000D01*
X130870000Y-101000000D02*
X130870000Y-100850000D01*
X131580000Y-101180000D02*
X131100000Y-101180000D01*
X131340000Y-100850000D01*
X131580000Y-101180000D01*
G36*
X131580000Y-101180000D02*
G01*
X131100000Y-101180000D01*
X131340000Y-100850000D01*
X131580000Y-101180000D01*
G37*
%TO.C,R19*%
X135525276Y-93477500D02*
X136034724Y-93477500D01*
X135525276Y-94522500D02*
X136034724Y-94522500D01*
%TO.C,R1*%
X153997500Y-125765276D02*
X153997500Y-126274724D01*
X155042500Y-125765276D02*
X155042500Y-126274724D01*
%TO.C,U1*%
X143478750Y-89635000D02*
X143478750Y-90360000D01*
X143478750Y-93855000D02*
X143478750Y-93130000D01*
X144203750Y-89635000D02*
X143478750Y-89635000D01*
X144203750Y-93855000D02*
X143478750Y-93855000D01*
X146973750Y-89635000D02*
X147698750Y-89635000D01*
X146973750Y-93855000D02*
X147398750Y-93855000D01*
X147698750Y-89635000D02*
X147698750Y-90360000D01*
X147698750Y-93130000D02*
X147698750Y-93615000D01*
X147938750Y-94185000D02*
X147458750Y-94185000D01*
X147698750Y-93855000D01*
X147938750Y-94185000D01*
G36*
X147938750Y-94185000D02*
G01*
X147458750Y-94185000D01*
X147698750Y-93855000D01*
X147938750Y-94185000D01*
G37*
D15*
%TO.C,HM1*%
X158035000Y-123305000D02*
G75*
G02*
X157785000Y-123305000I-125000J0D01*
G01*
X157785000Y-123305000D02*
G75*
G02*
X158035000Y-123305000I125000J0D01*
G01*
D13*
%TO.C,L7*%
X153723750Y-99573733D02*
X153723750Y-99916267D01*
X154743750Y-99573733D02*
X154743750Y-99916267D01*
%TO.C,R2*%
X147554724Y-110007500D02*
X147045276Y-110007500D01*
X147554724Y-111052500D02*
X147045276Y-111052500D01*
%TO.C,R4*%
X124302776Y-103617500D02*
X124812224Y-103617500D01*
X124302776Y-104662500D02*
X124812224Y-104662500D01*
%TO.C,C13*%
X130036267Y-106890000D02*
X129743733Y-106890000D01*
X130036267Y-107910000D02*
X129743733Y-107910000D01*
%TO.C,C33*%
X158540017Y-103545000D02*
X158247483Y-103545000D01*
X158540017Y-104565000D02*
X158247483Y-104565000D01*
%TO.C,C14*%
X130033767Y-108530000D02*
X129741233Y-108530000D01*
X130033767Y-109550000D02*
X129741233Y-109550000D01*
%TO.C,R5*%
X158597500Y-121924724D02*
X158597500Y-121415276D01*
X159642500Y-121924724D02*
X159642500Y-121415276D01*
%TO.C,C16*%
X147153733Y-108390000D02*
X147446267Y-108390000D01*
X147153733Y-109410000D02*
X147446267Y-109410000D01*
%TO.C,C4*%
X150540000Y-125863733D02*
X150540000Y-126156267D01*
X151560000Y-125863733D02*
X151560000Y-126156267D01*
%TO.C,C22*%
X154270000Y-116071233D02*
X154270000Y-116363767D01*
X155290000Y-116071233D02*
X155290000Y-116363767D01*
%TO.C,J2*%
X136900000Y-122390000D02*
X138230000Y-122390000D01*
X136900000Y-123720000D02*
X136900000Y-122390000D01*
X136900000Y-124990000D02*
X136900000Y-127590000D01*
X136900000Y-124990000D02*
X139560000Y-124990000D01*
X136900000Y-127590000D02*
X139560000Y-127590000D01*
X139560000Y-124990000D02*
X139560000Y-127590000D01*
%TO.C,R18*%
X133415276Y-115197500D02*
X133924724Y-115197500D01*
X133415276Y-116242500D02*
X133924724Y-116242500D01*
%TO.C,R17*%
X133904724Y-116787500D02*
X133395276Y-116787500D01*
X133904724Y-117832500D02*
X133395276Y-117832500D01*
%TD*%
M02*
