%TF.GenerationSoftware,KiCad,Pcbnew,8.0.3*%
%TF.CreationDate,2025-04-14T11:30:40+02:00*%
%TF.ProjectId,picoballoon,7069636f-6261-46c6-9c6f-6f6e2e6b6963,rev?*%
%TF.SameCoordinates,Original*%
%TF.FileFunction,Legend,Bot*%
%TF.FilePolarity,Positive*%
%FSLAX46Y46*%
G04 Gerber Fmt 4.6, Leading zero omitted, Abs format (unit mm)*
G04 Created by KiCad (PCBNEW 8.0.3) date 2025-04-14 11:30:40*
%MOMM*%
%LPD*%
G01*
G04 APERTURE LIST*
%ADD10C,0.155000*%
%ADD11C,0.150000*%
G04 APERTURE END LIST*
D10*
X122050068Y-116648606D02*
X122811973Y-116648606D01*
X159336122Y-88717178D02*
X159431360Y-88669559D01*
X159431360Y-88669559D02*
X159574217Y-88669559D01*
X159574217Y-88669559D02*
X159717074Y-88717178D01*
X159717074Y-88717178D02*
X159812312Y-88812416D01*
X159812312Y-88812416D02*
X159859931Y-88907654D01*
X159859931Y-88907654D02*
X159907550Y-89098130D01*
X159907550Y-89098130D02*
X159907550Y-89240987D01*
X159907550Y-89240987D02*
X159859931Y-89431463D01*
X159859931Y-89431463D02*
X159812312Y-89526701D01*
X159812312Y-89526701D02*
X159717074Y-89621940D01*
X159717074Y-89621940D02*
X159574217Y-89669559D01*
X159574217Y-89669559D02*
X159478979Y-89669559D01*
X159478979Y-89669559D02*
X159336122Y-89621940D01*
X159336122Y-89621940D02*
X159288503Y-89574320D01*
X159288503Y-89574320D02*
X159288503Y-89240987D01*
X159288503Y-89240987D02*
X159478979Y-89240987D01*
X158859931Y-89669559D02*
X158859931Y-88669559D01*
X158859931Y-88669559D02*
X158288503Y-89669559D01*
X158288503Y-89669559D02*
X158288503Y-88669559D01*
X157812312Y-89669559D02*
X157812312Y-88669559D01*
X157812312Y-88669559D02*
X157574217Y-88669559D01*
X157574217Y-88669559D02*
X157431360Y-88717178D01*
X157431360Y-88717178D02*
X157336122Y-88812416D01*
X157336122Y-88812416D02*
X157288503Y-88907654D01*
X157288503Y-88907654D02*
X157240884Y-89098130D01*
X157240884Y-89098130D02*
X157240884Y-89240987D01*
X157240884Y-89240987D02*
X157288503Y-89431463D01*
X157288503Y-89431463D02*
X157336122Y-89526701D01*
X157336122Y-89526701D02*
X157431360Y-89621940D01*
X157431360Y-89621940D02*
X157574217Y-89669559D01*
X157574217Y-89669559D02*
X157812312Y-89669559D01*
X122050068Y-123118606D02*
X122811973Y-123118606D01*
X122431020Y-123499559D02*
X122431020Y-122737654D01*
X125350068Y-126908606D02*
X126111973Y-126908606D01*
X125731020Y-127289559D02*
X125731020Y-126527654D01*
D11*
X138616077Y-91329931D02*
X138282744Y-92329931D01*
X138282744Y-92329931D02*
X137949411Y-91329931D01*
X137473220Y-92329931D02*
X137568458Y-92282312D01*
X137568458Y-92282312D02*
X137616077Y-92234692D01*
X137616077Y-92234692D02*
X137663696Y-92139454D01*
X137663696Y-92139454D02*
X137663696Y-91853740D01*
X137663696Y-91853740D02*
X137616077Y-91758502D01*
X137616077Y-91758502D02*
X137568458Y-91710883D01*
X137568458Y-91710883D02*
X137473220Y-91663264D01*
X137473220Y-91663264D02*
X137330363Y-91663264D01*
X137330363Y-91663264D02*
X137235125Y-91710883D01*
X137235125Y-91710883D02*
X137187506Y-91758502D01*
X137187506Y-91758502D02*
X137139887Y-91853740D01*
X137139887Y-91853740D02*
X137139887Y-92139454D01*
X137139887Y-92139454D02*
X137187506Y-92234692D01*
X137187506Y-92234692D02*
X137235125Y-92282312D01*
X137235125Y-92282312D02*
X137330363Y-92329931D01*
X137330363Y-92329931D02*
X137473220Y-92329931D01*
X136711315Y-91663264D02*
X136711315Y-92520407D01*
X136711315Y-92520407D02*
X136758934Y-92615645D01*
X136758934Y-92615645D02*
X136854172Y-92663264D01*
X136854172Y-92663264D02*
X136901791Y-92663264D01*
X136711315Y-91329931D02*
X136758934Y-91377550D01*
X136758934Y-91377550D02*
X136711315Y-91425169D01*
X136711315Y-91425169D02*
X136663696Y-91377550D01*
X136663696Y-91377550D02*
X136711315Y-91329931D01*
X136711315Y-91329931D02*
X136711315Y-91425169D01*
X136377982Y-91663264D02*
X135997030Y-91663264D01*
X136235125Y-91329931D02*
X136235125Y-92187073D01*
X136235125Y-92187073D02*
X136187506Y-92282312D01*
X136187506Y-92282312D02*
X136092268Y-92329931D01*
X136092268Y-92329931D02*
X135997030Y-92329931D01*
X135282744Y-92282312D02*
X135377982Y-92329931D01*
X135377982Y-92329931D02*
X135568458Y-92329931D01*
X135568458Y-92329931D02*
X135663696Y-92282312D01*
X135663696Y-92282312D02*
X135711315Y-92187073D01*
X135711315Y-92187073D02*
X135711315Y-91806121D01*
X135711315Y-91806121D02*
X135663696Y-91710883D01*
X135663696Y-91710883D02*
X135568458Y-91663264D01*
X135568458Y-91663264D02*
X135377982Y-91663264D01*
X135377982Y-91663264D02*
X135282744Y-91710883D01*
X135282744Y-91710883D02*
X135235125Y-91806121D01*
X135235125Y-91806121D02*
X135235125Y-91901359D01*
X135235125Y-91901359D02*
X135711315Y-91996597D01*
X134377982Y-92282312D02*
X134473220Y-92329931D01*
X134473220Y-92329931D02*
X134663696Y-92329931D01*
X134663696Y-92329931D02*
X134758934Y-92282312D01*
X134758934Y-92282312D02*
X134806553Y-92234692D01*
X134806553Y-92234692D02*
X134854172Y-92139454D01*
X134854172Y-92139454D02*
X134854172Y-91853740D01*
X134854172Y-91853740D02*
X134806553Y-91758502D01*
X134806553Y-91758502D02*
X134758934Y-91710883D01*
X134758934Y-91710883D02*
X134663696Y-91663264D01*
X134663696Y-91663264D02*
X134473220Y-91663264D01*
X134473220Y-91663264D02*
X134377982Y-91710883D01*
X133949410Y-92329931D02*
X133949410Y-91329931D01*
X133520839Y-92329931D02*
X133520839Y-91806121D01*
X133520839Y-91806121D02*
X133568458Y-91710883D01*
X133568458Y-91710883D02*
X133663696Y-91663264D01*
X133663696Y-91663264D02*
X133806553Y-91663264D01*
X133806553Y-91663264D02*
X133901791Y-91710883D01*
X133901791Y-91710883D02*
X133949410Y-91758502D01*
X132282743Y-92329931D02*
X132282743Y-91329931D01*
X132282743Y-91329931D02*
X131901791Y-91329931D01*
X131901791Y-91329931D02*
X131806553Y-91377550D01*
X131806553Y-91377550D02*
X131758934Y-91425169D01*
X131758934Y-91425169D02*
X131711315Y-91520407D01*
X131711315Y-91520407D02*
X131711315Y-91663264D01*
X131711315Y-91663264D02*
X131758934Y-91758502D01*
X131758934Y-91758502D02*
X131806553Y-91806121D01*
X131806553Y-91806121D02*
X131901791Y-91853740D01*
X131901791Y-91853740D02*
X132282743Y-91853740D01*
X131282743Y-92329931D02*
X131282743Y-91663264D01*
X131282743Y-91329931D02*
X131330362Y-91377550D01*
X131330362Y-91377550D02*
X131282743Y-91425169D01*
X131282743Y-91425169D02*
X131235124Y-91377550D01*
X131235124Y-91377550D02*
X131282743Y-91329931D01*
X131282743Y-91329931D02*
X131282743Y-91425169D01*
X130806553Y-92329931D02*
X130806553Y-91663264D01*
X130806553Y-91853740D02*
X130758934Y-91758502D01*
X130758934Y-91758502D02*
X130711315Y-91710883D01*
X130711315Y-91710883D02*
X130616077Y-91663264D01*
X130616077Y-91663264D02*
X130520839Y-91663264D01*
X130044648Y-92329931D02*
X130139886Y-92282312D01*
X130139886Y-92282312D02*
X130187505Y-92234692D01*
X130187505Y-92234692D02*
X130235124Y-92139454D01*
X130235124Y-92139454D02*
X130235124Y-91853740D01*
X130235124Y-91853740D02*
X130187505Y-91758502D01*
X130187505Y-91758502D02*
X130139886Y-91710883D01*
X130139886Y-91710883D02*
X130044648Y-91663264D01*
X130044648Y-91663264D02*
X129901791Y-91663264D01*
X129901791Y-91663264D02*
X129806553Y-91710883D01*
X129806553Y-91710883D02*
X129758934Y-91758502D01*
X129758934Y-91758502D02*
X129711315Y-91853740D01*
X129711315Y-91853740D02*
X129711315Y-92139454D01*
X129711315Y-92139454D02*
X129758934Y-92234692D01*
X129758934Y-92234692D02*
X129806553Y-92282312D01*
X129806553Y-92282312D02*
X129901791Y-92329931D01*
X129901791Y-92329931D02*
X130044648Y-92329931D01*
X128854172Y-92282312D02*
X128949410Y-92329931D01*
X128949410Y-92329931D02*
X129139886Y-92329931D01*
X129139886Y-92329931D02*
X129235124Y-92282312D01*
X129235124Y-92282312D02*
X129282743Y-92234692D01*
X129282743Y-92234692D02*
X129330362Y-92139454D01*
X129330362Y-92139454D02*
X129330362Y-91853740D01*
X129330362Y-91853740D02*
X129282743Y-91758502D01*
X129282743Y-91758502D02*
X129235124Y-91710883D01*
X129235124Y-91710883D02*
X129139886Y-91663264D01*
X129139886Y-91663264D02*
X128949410Y-91663264D01*
X128949410Y-91663264D02*
X128854172Y-91710883D01*
X128425600Y-92329931D02*
X128425600Y-91329931D01*
X127997029Y-92329931D02*
X127997029Y-91806121D01*
X127997029Y-91806121D02*
X128044648Y-91710883D01*
X128044648Y-91710883D02*
X128139886Y-91663264D01*
X128139886Y-91663264D02*
X128282743Y-91663264D01*
X128282743Y-91663264D02*
X128377981Y-91710883D01*
X128377981Y-91710883D02*
X128425600Y-91758502D01*
X138473220Y-93939875D02*
X138473220Y-92939875D01*
X138473220Y-92939875D02*
X138092268Y-92939875D01*
X138092268Y-92939875D02*
X137997030Y-92987494D01*
X137997030Y-92987494D02*
X137949411Y-93035113D01*
X137949411Y-93035113D02*
X137901792Y-93130351D01*
X137901792Y-93130351D02*
X137901792Y-93273208D01*
X137901792Y-93273208D02*
X137949411Y-93368446D01*
X137949411Y-93368446D02*
X137997030Y-93416065D01*
X137997030Y-93416065D02*
X138092268Y-93463684D01*
X138092268Y-93463684D02*
X138473220Y-93463684D01*
X137473220Y-93939875D02*
X137473220Y-93273208D01*
X137473220Y-92939875D02*
X137520839Y-92987494D01*
X137520839Y-92987494D02*
X137473220Y-93035113D01*
X137473220Y-93035113D02*
X137425601Y-92987494D01*
X137425601Y-92987494D02*
X137473220Y-92939875D01*
X137473220Y-92939875D02*
X137473220Y-93035113D01*
X136568459Y-93892256D02*
X136663697Y-93939875D01*
X136663697Y-93939875D02*
X136854173Y-93939875D01*
X136854173Y-93939875D02*
X136949411Y-93892256D01*
X136949411Y-93892256D02*
X136997030Y-93844636D01*
X136997030Y-93844636D02*
X137044649Y-93749398D01*
X137044649Y-93749398D02*
X137044649Y-93463684D01*
X137044649Y-93463684D02*
X136997030Y-93368446D01*
X136997030Y-93368446D02*
X136949411Y-93320827D01*
X136949411Y-93320827D02*
X136854173Y-93273208D01*
X136854173Y-93273208D02*
X136663697Y-93273208D01*
X136663697Y-93273208D02*
X136568459Y-93320827D01*
X135997030Y-93939875D02*
X136092268Y-93892256D01*
X136092268Y-93892256D02*
X136139887Y-93844636D01*
X136139887Y-93844636D02*
X136187506Y-93749398D01*
X136187506Y-93749398D02*
X136187506Y-93463684D01*
X136187506Y-93463684D02*
X136139887Y-93368446D01*
X136139887Y-93368446D02*
X136092268Y-93320827D01*
X136092268Y-93320827D02*
X135997030Y-93273208D01*
X135997030Y-93273208D02*
X135854173Y-93273208D01*
X135854173Y-93273208D02*
X135758935Y-93320827D01*
X135758935Y-93320827D02*
X135711316Y-93368446D01*
X135711316Y-93368446D02*
X135663697Y-93463684D01*
X135663697Y-93463684D02*
X135663697Y-93749398D01*
X135663697Y-93749398D02*
X135711316Y-93844636D01*
X135711316Y-93844636D02*
X135758935Y-93892256D01*
X135758935Y-93892256D02*
X135854173Y-93939875D01*
X135854173Y-93939875D02*
X135997030Y-93939875D01*
X135235125Y-93939875D02*
X135235125Y-92939875D01*
X135235125Y-93320827D02*
X135139887Y-93273208D01*
X135139887Y-93273208D02*
X134949411Y-93273208D01*
X134949411Y-93273208D02*
X134854173Y-93320827D01*
X134854173Y-93320827D02*
X134806554Y-93368446D01*
X134806554Y-93368446D02*
X134758935Y-93463684D01*
X134758935Y-93463684D02*
X134758935Y-93749398D01*
X134758935Y-93749398D02*
X134806554Y-93844636D01*
X134806554Y-93844636D02*
X134854173Y-93892256D01*
X134854173Y-93892256D02*
X134949411Y-93939875D01*
X134949411Y-93939875D02*
X135139887Y-93939875D01*
X135139887Y-93939875D02*
X135235125Y-93892256D01*
X133901792Y-93939875D02*
X133901792Y-93416065D01*
X133901792Y-93416065D02*
X133949411Y-93320827D01*
X133949411Y-93320827D02*
X134044649Y-93273208D01*
X134044649Y-93273208D02*
X134235125Y-93273208D01*
X134235125Y-93273208D02*
X134330363Y-93320827D01*
X133901792Y-93892256D02*
X133997030Y-93939875D01*
X133997030Y-93939875D02*
X134235125Y-93939875D01*
X134235125Y-93939875D02*
X134330363Y-93892256D01*
X134330363Y-93892256D02*
X134377982Y-93797017D01*
X134377982Y-93797017D02*
X134377982Y-93701779D01*
X134377982Y-93701779D02*
X134330363Y-93606541D01*
X134330363Y-93606541D02*
X134235125Y-93558922D01*
X134235125Y-93558922D02*
X133997030Y-93558922D01*
X133997030Y-93558922D02*
X133901792Y-93511303D01*
X133282744Y-93939875D02*
X133377982Y-93892256D01*
X133377982Y-93892256D02*
X133425601Y-93797017D01*
X133425601Y-93797017D02*
X133425601Y-92939875D01*
X132758934Y-93939875D02*
X132854172Y-93892256D01*
X132854172Y-93892256D02*
X132901791Y-93797017D01*
X132901791Y-93797017D02*
X132901791Y-92939875D01*
X132235124Y-93939875D02*
X132330362Y-93892256D01*
X132330362Y-93892256D02*
X132377981Y-93844636D01*
X132377981Y-93844636D02*
X132425600Y-93749398D01*
X132425600Y-93749398D02*
X132425600Y-93463684D01*
X132425600Y-93463684D02*
X132377981Y-93368446D01*
X132377981Y-93368446D02*
X132330362Y-93320827D01*
X132330362Y-93320827D02*
X132235124Y-93273208D01*
X132235124Y-93273208D02*
X132092267Y-93273208D01*
X132092267Y-93273208D02*
X131997029Y-93320827D01*
X131997029Y-93320827D02*
X131949410Y-93368446D01*
X131949410Y-93368446D02*
X131901791Y-93463684D01*
X131901791Y-93463684D02*
X131901791Y-93749398D01*
X131901791Y-93749398D02*
X131949410Y-93844636D01*
X131949410Y-93844636D02*
X131997029Y-93892256D01*
X131997029Y-93892256D02*
X132092267Y-93939875D01*
X132092267Y-93939875D02*
X132235124Y-93939875D01*
X131330362Y-93939875D02*
X131425600Y-93892256D01*
X131425600Y-93892256D02*
X131473219Y-93844636D01*
X131473219Y-93844636D02*
X131520838Y-93749398D01*
X131520838Y-93749398D02*
X131520838Y-93463684D01*
X131520838Y-93463684D02*
X131473219Y-93368446D01*
X131473219Y-93368446D02*
X131425600Y-93320827D01*
X131425600Y-93320827D02*
X131330362Y-93273208D01*
X131330362Y-93273208D02*
X131187505Y-93273208D01*
X131187505Y-93273208D02*
X131092267Y-93320827D01*
X131092267Y-93320827D02*
X131044648Y-93368446D01*
X131044648Y-93368446D02*
X130997029Y-93463684D01*
X130997029Y-93463684D02*
X130997029Y-93749398D01*
X130997029Y-93749398D02*
X131044648Y-93844636D01*
X131044648Y-93844636D02*
X131092267Y-93892256D01*
X131092267Y-93892256D02*
X131187505Y-93939875D01*
X131187505Y-93939875D02*
X131330362Y-93939875D01*
X130568457Y-93273208D02*
X130568457Y-93939875D01*
X130568457Y-93368446D02*
X130520838Y-93320827D01*
X130520838Y-93320827D02*
X130425600Y-93273208D01*
X130425600Y-93273208D02*
X130282743Y-93273208D01*
X130282743Y-93273208D02*
X130187505Y-93320827D01*
X130187505Y-93320827D02*
X130139886Y-93416065D01*
X130139886Y-93416065D02*
X130139886Y-93939875D01*
X128997028Y-93273208D02*
X128758933Y-93939875D01*
X128758933Y-93939875D02*
X128520838Y-93273208D01*
X128187504Y-93035113D02*
X128139885Y-92987494D01*
X128139885Y-92987494D02*
X128044647Y-92939875D01*
X128044647Y-92939875D02*
X127806552Y-92939875D01*
X127806552Y-92939875D02*
X127711314Y-92987494D01*
X127711314Y-92987494D02*
X127663695Y-93035113D01*
X127663695Y-93035113D02*
X127616076Y-93130351D01*
X127616076Y-93130351D02*
X127616076Y-93225589D01*
X127616076Y-93225589D02*
X127663695Y-93368446D01*
X127663695Y-93368446D02*
X128235123Y-93939875D01*
X128235123Y-93939875D02*
X127616076Y-93939875D01*
X138520839Y-94645057D02*
X138473220Y-94597438D01*
X138473220Y-94597438D02*
X138377982Y-94549819D01*
X138377982Y-94549819D02*
X138139887Y-94549819D01*
X138139887Y-94549819D02*
X138044649Y-94597438D01*
X138044649Y-94597438D02*
X137997030Y-94645057D01*
X137997030Y-94645057D02*
X137949411Y-94740295D01*
X137949411Y-94740295D02*
X137949411Y-94835533D01*
X137949411Y-94835533D02*
X137997030Y-94978390D01*
X137997030Y-94978390D02*
X138568458Y-95549819D01*
X138568458Y-95549819D02*
X137949411Y-95549819D01*
X137330363Y-94549819D02*
X137235125Y-94549819D01*
X137235125Y-94549819D02*
X137139887Y-94597438D01*
X137139887Y-94597438D02*
X137092268Y-94645057D01*
X137092268Y-94645057D02*
X137044649Y-94740295D01*
X137044649Y-94740295D02*
X136997030Y-94930771D01*
X136997030Y-94930771D02*
X136997030Y-95168866D01*
X136997030Y-95168866D02*
X137044649Y-95359342D01*
X137044649Y-95359342D02*
X137092268Y-95454580D01*
X137092268Y-95454580D02*
X137139887Y-95502200D01*
X137139887Y-95502200D02*
X137235125Y-95549819D01*
X137235125Y-95549819D02*
X137330363Y-95549819D01*
X137330363Y-95549819D02*
X137425601Y-95502200D01*
X137425601Y-95502200D02*
X137473220Y-95454580D01*
X137473220Y-95454580D02*
X137520839Y-95359342D01*
X137520839Y-95359342D02*
X137568458Y-95168866D01*
X137568458Y-95168866D02*
X137568458Y-94930771D01*
X137568458Y-94930771D02*
X137520839Y-94740295D01*
X137520839Y-94740295D02*
X137473220Y-94645057D01*
X137473220Y-94645057D02*
X137425601Y-94597438D01*
X137425601Y-94597438D02*
X137330363Y-94549819D01*
X136616077Y-94645057D02*
X136568458Y-94597438D01*
X136568458Y-94597438D02*
X136473220Y-94549819D01*
X136473220Y-94549819D02*
X136235125Y-94549819D01*
X136235125Y-94549819D02*
X136139887Y-94597438D01*
X136139887Y-94597438D02*
X136092268Y-94645057D01*
X136092268Y-94645057D02*
X136044649Y-94740295D01*
X136044649Y-94740295D02*
X136044649Y-94835533D01*
X136044649Y-94835533D02*
X136092268Y-94978390D01*
X136092268Y-94978390D02*
X136663696Y-95549819D01*
X136663696Y-95549819D02*
X136044649Y-95549819D01*
X135187506Y-94883152D02*
X135187506Y-95549819D01*
X135425601Y-94502200D02*
X135663696Y-95216485D01*
X135663696Y-95216485D02*
X135044649Y-95216485D01*
X133949411Y-94502200D02*
X134806553Y-95787914D01*
X133663696Y-94645057D02*
X133616077Y-94597438D01*
X133616077Y-94597438D02*
X133520839Y-94549819D01*
X133520839Y-94549819D02*
X133282744Y-94549819D01*
X133282744Y-94549819D02*
X133187506Y-94597438D01*
X133187506Y-94597438D02*
X133139887Y-94645057D01*
X133139887Y-94645057D02*
X133092268Y-94740295D01*
X133092268Y-94740295D02*
X133092268Y-94835533D01*
X133092268Y-94835533D02*
X133139887Y-94978390D01*
X133139887Y-94978390D02*
X133711315Y-95549819D01*
X133711315Y-95549819D02*
X133092268Y-95549819D01*
X132187506Y-94549819D02*
X132663696Y-94549819D01*
X132663696Y-94549819D02*
X132711315Y-95026009D01*
X132711315Y-95026009D02*
X132663696Y-94978390D01*
X132663696Y-94978390D02*
X132568458Y-94930771D01*
X132568458Y-94930771D02*
X132330363Y-94930771D01*
X132330363Y-94930771D02*
X132235125Y-94978390D01*
X132235125Y-94978390D02*
X132187506Y-95026009D01*
X132187506Y-95026009D02*
X132139887Y-95121247D01*
X132139887Y-95121247D02*
X132139887Y-95359342D01*
X132139887Y-95359342D02*
X132187506Y-95454580D01*
X132187506Y-95454580D02*
X132235125Y-95502200D01*
X132235125Y-95502200D02*
X132330363Y-95549819D01*
X132330363Y-95549819D02*
X132568458Y-95549819D01*
X132568458Y-95549819D02*
X132663696Y-95502200D01*
X132663696Y-95502200D02*
X132711315Y-95454580D01*
D10*
X134880068Y-126938606D02*
X135641973Y-126938606D01*
X159597550Y-95851940D02*
X159502312Y-95899559D01*
X159502312Y-95899559D02*
X159311836Y-95899559D01*
X159311836Y-95899559D02*
X159216598Y-95851940D01*
X159216598Y-95851940D02*
X159168979Y-95756701D01*
X159168979Y-95756701D02*
X159168979Y-95709082D01*
X159168979Y-95709082D02*
X159216598Y-95613844D01*
X159216598Y-95613844D02*
X159311836Y-95566225D01*
X159311836Y-95566225D02*
X159454693Y-95566225D01*
X159454693Y-95566225D02*
X159549931Y-95518606D01*
X159549931Y-95518606D02*
X159597550Y-95423368D01*
X159597550Y-95423368D02*
X159597550Y-95375749D01*
X159597550Y-95375749D02*
X159549931Y-95280511D01*
X159549931Y-95280511D02*
X159454693Y-95232892D01*
X159454693Y-95232892D02*
X159311836Y-95232892D01*
X159311836Y-95232892D02*
X159216598Y-95280511D01*
X158740407Y-95899559D02*
X158740407Y-95232892D01*
X158740407Y-94899559D02*
X158788026Y-94947178D01*
X158788026Y-94947178D02*
X158740407Y-94994797D01*
X158740407Y-94994797D02*
X158692788Y-94947178D01*
X158692788Y-94947178D02*
X158740407Y-94899559D01*
X158740407Y-94899559D02*
X158740407Y-94994797D01*
X157835646Y-95232892D02*
X157835646Y-96042416D01*
X157835646Y-96042416D02*
X157883265Y-96137654D01*
X157883265Y-96137654D02*
X157930884Y-96185273D01*
X157930884Y-96185273D02*
X158026122Y-96232892D01*
X158026122Y-96232892D02*
X158168979Y-96232892D01*
X158168979Y-96232892D02*
X158264217Y-96185273D01*
X157835646Y-95851940D02*
X157930884Y-95899559D01*
X157930884Y-95899559D02*
X158121360Y-95899559D01*
X158121360Y-95899559D02*
X158216598Y-95851940D01*
X158216598Y-95851940D02*
X158264217Y-95804320D01*
X158264217Y-95804320D02*
X158311836Y-95709082D01*
X158311836Y-95709082D02*
X158311836Y-95423368D01*
X158311836Y-95423368D02*
X158264217Y-95328130D01*
X158264217Y-95328130D02*
X158216598Y-95280511D01*
X158216598Y-95280511D02*
X158121360Y-95232892D01*
X158121360Y-95232892D02*
X157930884Y-95232892D01*
X157930884Y-95232892D02*
X157835646Y-95280511D01*
M02*
