%TF.GenerationSoftware,KiCad,Pcbnew,8.0.3*%
%TF.CreationDate,2025-04-13T16:02:51+02:00*%
%TF.ProjectId,picoballoon,7069636f-6261-46c6-9c6f-6f6e2e6b6963,rev?*%
%TF.SameCoordinates,Original*%
%TF.FileFunction,Drillmap*%
%TF.FilePolarity,Positive*%
%FSLAX45Y45*%
G04 Gerber Fmt 4.5, Leading zero omitted, Abs format (unit mm)*
G04 Created by KiCad (PCBNEW 8.0.3) date 2025-04-13 16:02:51*
%MOMM*%
%LPD*%
G01*
G04 APERTURE LIST*
%ADD10C,0.100000*%
%ADD11C,0.200000*%
G04 APERTURE END LIST*
D10*
X11879000Y-8401000D02*
X16179000Y-8401000D01*
X16179000Y-12901000D01*
X11879000Y-12901000D01*
X11879000Y-8401000D01*
D11*
D10*
X14443875Y-9059500D02*
X14463875Y-9079500D01*
X14463875Y-9059500D02*
X14443875Y-9079500D01*
X14443875Y-9269500D02*
X14463875Y-9289500D01*
X14463875Y-9269500D02*
X14443875Y-9289500D01*
X14444375Y-9163500D02*
X14464375Y-9183500D01*
X14464375Y-9163500D02*
X14444375Y-9183500D01*
X14548375Y-9059500D02*
X14568375Y-9079500D01*
X14568375Y-9059500D02*
X14548375Y-9079500D01*
X14548375Y-9269500D02*
X14568375Y-9289500D01*
X14568375Y-9269500D02*
X14548375Y-9289500D01*
X14548875Y-9164500D02*
X14568875Y-9184500D01*
X14568875Y-9164500D02*
X14548875Y-9184500D01*
X14653375Y-9163500D02*
X14673375Y-9183500D01*
X14673375Y-9163500D02*
X14653375Y-9183500D01*
X14653875Y-9059500D02*
X14673875Y-9079500D01*
X14673875Y-9059500D02*
X14653875Y-9079500D01*
X14653875Y-9269500D02*
X14673875Y-9289500D01*
X14673875Y-9269500D02*
X14653875Y-9289500D01*
X11964000Y-8581000D02*
G75*
G02*
X11934000Y-8581000I-15000J0D01*
G01*
X11934000Y-8581000D02*
G75*
G02*
X11964000Y-8581000I15000J0D01*
G01*
X11964000Y-8681000D02*
G75*
G02*
X11934000Y-8681000I-15000J0D01*
G01*
X11934000Y-8681000D02*
G75*
G02*
X11964000Y-8681000I15000J0D01*
G01*
X11964000Y-8781000D02*
G75*
G02*
X11934000Y-8781000I-15000J0D01*
G01*
X11934000Y-8781000D02*
G75*
G02*
X11964000Y-8781000I15000J0D01*
G01*
X11964000Y-8881000D02*
G75*
G02*
X11934000Y-8881000I-15000J0D01*
G01*
X11934000Y-8881000D02*
G75*
G02*
X11964000Y-8881000I15000J0D01*
G01*
X11964000Y-8981000D02*
G75*
G02*
X11934000Y-8981000I-15000J0D01*
G01*
X11934000Y-8981000D02*
G75*
G02*
X11964000Y-8981000I15000J0D01*
G01*
X11964000Y-9081000D02*
G75*
G02*
X11934000Y-9081000I-15000J0D01*
G01*
X11934000Y-9081000D02*
G75*
G02*
X11964000Y-9081000I15000J0D01*
G01*
X11964000Y-9181000D02*
G75*
G02*
X11934000Y-9181000I-15000J0D01*
G01*
X11934000Y-9181000D02*
G75*
G02*
X11964000Y-9181000I15000J0D01*
G01*
X11964000Y-9281000D02*
G75*
G02*
X11934000Y-9281000I-15000J0D01*
G01*
X11934000Y-9281000D02*
G75*
G02*
X11964000Y-9281000I15000J0D01*
G01*
X11964000Y-9381000D02*
G75*
G02*
X11934000Y-9381000I-15000J0D01*
G01*
X11934000Y-9381000D02*
G75*
G02*
X11964000Y-9381000I15000J0D01*
G01*
X11964000Y-9481000D02*
G75*
G02*
X11934000Y-9481000I-15000J0D01*
G01*
X11934000Y-9481000D02*
G75*
G02*
X11964000Y-9481000I15000J0D01*
G01*
X11964000Y-9581000D02*
G75*
G02*
X11934000Y-9581000I-15000J0D01*
G01*
X11934000Y-9581000D02*
G75*
G02*
X11964000Y-9581000I15000J0D01*
G01*
X11964000Y-9681000D02*
G75*
G02*
X11934000Y-9681000I-15000J0D01*
G01*
X11934000Y-9681000D02*
G75*
G02*
X11964000Y-9681000I15000J0D01*
G01*
X11964000Y-9781000D02*
G75*
G02*
X11934000Y-9781000I-15000J0D01*
G01*
X11934000Y-9781000D02*
G75*
G02*
X11964000Y-9781000I15000J0D01*
G01*
X11964000Y-9881000D02*
G75*
G02*
X11934000Y-9881000I-15000J0D01*
G01*
X11934000Y-9881000D02*
G75*
G02*
X11964000Y-9881000I15000J0D01*
G01*
X11964000Y-9981000D02*
G75*
G02*
X11934000Y-9981000I-15000J0D01*
G01*
X11934000Y-9981000D02*
G75*
G02*
X11964000Y-9981000I15000J0D01*
G01*
X11964000Y-10081000D02*
G75*
G02*
X11934000Y-10081000I-15000J0D01*
G01*
X11934000Y-10081000D02*
G75*
G02*
X11964000Y-10081000I15000J0D01*
G01*
X11964000Y-10181000D02*
G75*
G02*
X11934000Y-10181000I-15000J0D01*
G01*
X11934000Y-10181000D02*
G75*
G02*
X11964000Y-10181000I15000J0D01*
G01*
X11964000Y-10281000D02*
G75*
G02*
X11934000Y-10281000I-15000J0D01*
G01*
X11934000Y-10281000D02*
G75*
G02*
X11964000Y-10281000I15000J0D01*
G01*
X11964000Y-10381000D02*
G75*
G02*
X11934000Y-10381000I-15000J0D01*
G01*
X11934000Y-10381000D02*
G75*
G02*
X11964000Y-10381000I15000J0D01*
G01*
X11964000Y-10481000D02*
G75*
G02*
X11934000Y-10481000I-15000J0D01*
G01*
X11934000Y-10481000D02*
G75*
G02*
X11964000Y-10481000I15000J0D01*
G01*
X11964000Y-10581000D02*
G75*
G02*
X11934000Y-10581000I-15000J0D01*
G01*
X11934000Y-10581000D02*
G75*
G02*
X11964000Y-10581000I15000J0D01*
G01*
X11964000Y-10681000D02*
G75*
G02*
X11934000Y-10681000I-15000J0D01*
G01*
X11934000Y-10681000D02*
G75*
G02*
X11964000Y-10681000I15000J0D01*
G01*
X11964000Y-10781000D02*
G75*
G02*
X11934000Y-10781000I-15000J0D01*
G01*
X11934000Y-10781000D02*
G75*
G02*
X11964000Y-10781000I15000J0D01*
G01*
X11964000Y-10881000D02*
G75*
G02*
X11934000Y-10881000I-15000J0D01*
G01*
X11934000Y-10881000D02*
G75*
G02*
X11964000Y-10881000I15000J0D01*
G01*
X11964000Y-10981000D02*
G75*
G02*
X11934000Y-10981000I-15000J0D01*
G01*
X11934000Y-10981000D02*
G75*
G02*
X11964000Y-10981000I15000J0D01*
G01*
X11964000Y-11081000D02*
G75*
G02*
X11934000Y-11081000I-15000J0D01*
G01*
X11934000Y-11081000D02*
G75*
G02*
X11964000Y-11081000I15000J0D01*
G01*
X11964000Y-11181000D02*
G75*
G02*
X11934000Y-11181000I-15000J0D01*
G01*
X11934000Y-11181000D02*
G75*
G02*
X11964000Y-11181000I15000J0D01*
G01*
X11964000Y-11281000D02*
G75*
G02*
X11934000Y-11281000I-15000J0D01*
G01*
X11934000Y-11281000D02*
G75*
G02*
X11964000Y-11281000I15000J0D01*
G01*
X11964000Y-11381000D02*
G75*
G02*
X11934000Y-11381000I-15000J0D01*
G01*
X11934000Y-11381000D02*
G75*
G02*
X11964000Y-11381000I15000J0D01*
G01*
X11964000Y-11481000D02*
G75*
G02*
X11934000Y-11481000I-15000J0D01*
G01*
X11934000Y-11481000D02*
G75*
G02*
X11964000Y-11481000I15000J0D01*
G01*
X11964000Y-11581000D02*
G75*
G02*
X11934000Y-11581000I-15000J0D01*
G01*
X11934000Y-11581000D02*
G75*
G02*
X11964000Y-11581000I15000J0D01*
G01*
X11964000Y-11681000D02*
G75*
G02*
X11934000Y-11681000I-15000J0D01*
G01*
X11934000Y-11681000D02*
G75*
G02*
X11964000Y-11681000I15000J0D01*
G01*
X11964000Y-11781000D02*
G75*
G02*
X11934000Y-11781000I-15000J0D01*
G01*
X11934000Y-11781000D02*
G75*
G02*
X11964000Y-11781000I15000J0D01*
G01*
X11964000Y-11881000D02*
G75*
G02*
X11934000Y-11881000I-15000J0D01*
G01*
X11934000Y-11881000D02*
G75*
G02*
X11964000Y-11881000I15000J0D01*
G01*
X11964000Y-11981000D02*
G75*
G02*
X11934000Y-11981000I-15000J0D01*
G01*
X11934000Y-11981000D02*
G75*
G02*
X11964000Y-11981000I15000J0D01*
G01*
X11964000Y-12081000D02*
G75*
G02*
X11934000Y-12081000I-15000J0D01*
G01*
X11934000Y-12081000D02*
G75*
G02*
X11964000Y-12081000I15000J0D01*
G01*
X11964000Y-12181000D02*
G75*
G02*
X11934000Y-12181000I-15000J0D01*
G01*
X11934000Y-12181000D02*
G75*
G02*
X11964000Y-12181000I15000J0D01*
G01*
X11964000Y-12281000D02*
G75*
G02*
X11934000Y-12281000I-15000J0D01*
G01*
X11934000Y-12281000D02*
G75*
G02*
X11964000Y-12281000I15000J0D01*
G01*
X11964000Y-12381000D02*
G75*
G02*
X11934000Y-12381000I-15000J0D01*
G01*
X11934000Y-12381000D02*
G75*
G02*
X11964000Y-12381000I15000J0D01*
G01*
X11964000Y-12481000D02*
G75*
G02*
X11934000Y-12481000I-15000J0D01*
G01*
X11934000Y-12481000D02*
G75*
G02*
X11964000Y-12481000I15000J0D01*
G01*
X11964000Y-12581000D02*
G75*
G02*
X11934000Y-12581000I-15000J0D01*
G01*
X11934000Y-12581000D02*
G75*
G02*
X11964000Y-12581000I15000J0D01*
G01*
X11964000Y-12681000D02*
G75*
G02*
X11934000Y-12681000I-15000J0D01*
G01*
X11934000Y-12681000D02*
G75*
G02*
X11964000Y-12681000I15000J0D01*
G01*
X11986000Y-12768000D02*
G75*
G02*
X11956000Y-12768000I-15000J0D01*
G01*
X11956000Y-12768000D02*
G75*
G02*
X11986000Y-12768000I15000J0D01*
G01*
X11991000Y-8499000D02*
G75*
G02*
X11961000Y-8499000I-15000J0D01*
G01*
X11961000Y-8499000D02*
G75*
G02*
X11991000Y-8499000I15000J0D01*
G01*
X12050000Y-12818000D02*
G75*
G02*
X12020000Y-12818000I-15000J0D01*
G01*
X12020000Y-12818000D02*
G75*
G02*
X12050000Y-12818000I15000J0D01*
G01*
X12065000Y-8475000D02*
G75*
G02*
X12035000Y-8475000I-15000J0D01*
G01*
X12035000Y-8475000D02*
G75*
G02*
X12065000Y-8475000I15000J0D01*
G01*
X12130000Y-11153000D02*
G75*
G02*
X12100000Y-11153000I-15000J0D01*
G01*
X12100000Y-11153000D02*
G75*
G02*
X12130000Y-11153000I15000J0D01*
G01*
X12140000Y-12825000D02*
G75*
G02*
X12110000Y-12825000I-15000J0D01*
G01*
X12110000Y-12825000D02*
G75*
G02*
X12140000Y-12825000I15000J0D01*
G01*
X12146000Y-11467000D02*
G75*
G02*
X12116000Y-11467000I-15000J0D01*
G01*
X12116000Y-11467000D02*
G75*
G02*
X12146000Y-11467000I15000J0D01*
G01*
X12165000Y-8475000D02*
G75*
G02*
X12135000Y-8475000I-15000J0D01*
G01*
X12135000Y-8475000D02*
G75*
G02*
X12165000Y-8475000I15000J0D01*
G01*
X12228000Y-10585000D02*
G75*
G02*
X12198000Y-10585000I-15000J0D01*
G01*
X12198000Y-10585000D02*
G75*
G02*
X12228000Y-10585000I15000J0D01*
G01*
X12236000Y-10779000D02*
G75*
G02*
X12206000Y-10779000I-15000J0D01*
G01*
X12206000Y-10779000D02*
G75*
G02*
X12236000Y-10779000I15000J0D01*
G01*
X12240000Y-12825000D02*
G75*
G02*
X12210000Y-12825000I-15000J0D01*
G01*
X12210000Y-12825000D02*
G75*
G02*
X12240000Y-12825000I15000J0D01*
G01*
X12254000Y-10412000D02*
G75*
G02*
X12224000Y-10412000I-15000J0D01*
G01*
X12224000Y-10412000D02*
G75*
G02*
X12254000Y-10412000I15000J0D01*
G01*
X12258000Y-10276000D02*
G75*
G02*
X12228000Y-10276000I-15000J0D01*
G01*
X12228000Y-10276000D02*
G75*
G02*
X12258000Y-10276000I15000J0D01*
G01*
X12265000Y-8475000D02*
G75*
G02*
X12235000Y-8475000I-15000J0D01*
G01*
X12235000Y-8475000D02*
G75*
G02*
X12265000Y-8475000I15000J0D01*
G01*
X12278000Y-11019000D02*
G75*
G02*
X12248000Y-11019000I-15000J0D01*
G01*
X12248000Y-11019000D02*
G75*
G02*
X12278000Y-11019000I15000J0D01*
G01*
X12335000Y-11281000D02*
G75*
G02*
X12305000Y-11281000I-15000J0D01*
G01*
X12305000Y-11281000D02*
G75*
G02*
X12335000Y-11281000I15000J0D01*
G01*
X12338000Y-8972000D02*
G75*
G02*
X12308000Y-8972000I-15000J0D01*
G01*
X12308000Y-8972000D02*
G75*
G02*
X12338000Y-8972000I15000J0D01*
G01*
X12340000Y-12825000D02*
G75*
G02*
X12310000Y-12825000I-15000J0D01*
G01*
X12310000Y-12825000D02*
G75*
G02*
X12340000Y-12825000I15000J0D01*
G01*
X12365000Y-8475000D02*
G75*
G02*
X12335000Y-8475000I-15000J0D01*
G01*
X12335000Y-8475000D02*
G75*
G02*
X12365000Y-8475000I15000J0D01*
G01*
X12391000Y-10008000D02*
G75*
G02*
X12361000Y-10008000I-15000J0D01*
G01*
X12361000Y-10008000D02*
G75*
G02*
X12391000Y-10008000I15000J0D01*
G01*
X12422000Y-11506000D02*
G75*
G02*
X12392000Y-11506000I-15000J0D01*
G01*
X12392000Y-11506000D02*
G75*
G02*
X12422000Y-11506000I15000J0D01*
G01*
X12440000Y-12825000D02*
G75*
G02*
X12410000Y-12825000I-15000J0D01*
G01*
X12410000Y-12825000D02*
G75*
G02*
X12440000Y-12825000I15000J0D01*
G01*
X12441000Y-12403000D02*
G75*
G02*
X12411000Y-12403000I-15000J0D01*
G01*
X12411000Y-12403000D02*
G75*
G02*
X12441000Y-12403000I15000J0D01*
G01*
X12465000Y-8475000D02*
G75*
G02*
X12435000Y-8475000I-15000J0D01*
G01*
X12435000Y-8475000D02*
G75*
G02*
X12465000Y-8475000I15000J0D01*
G01*
X12469000Y-9712000D02*
G75*
G02*
X12439000Y-9712000I-15000J0D01*
G01*
X12439000Y-9712000D02*
G75*
G02*
X12469000Y-9712000I15000J0D01*
G01*
X12469000Y-11119000D02*
G75*
G02*
X12439000Y-11119000I-15000J0D01*
G01*
X12439000Y-11119000D02*
G75*
G02*
X12469000Y-11119000I15000J0D01*
G01*
X12505000Y-9446000D02*
G75*
G02*
X12475000Y-9446000I-15000J0D01*
G01*
X12475000Y-9446000D02*
G75*
G02*
X12505000Y-9446000I15000J0D01*
G01*
X12519000Y-11786000D02*
G75*
G02*
X12489000Y-11786000I-15000J0D01*
G01*
X12489000Y-11786000D02*
G75*
G02*
X12519000Y-11786000I15000J0D01*
G01*
X12530000Y-12606000D02*
G75*
G02*
X12500000Y-12606000I-15000J0D01*
G01*
X12500000Y-12606000D02*
G75*
G02*
X12530000Y-12606000I15000J0D01*
G01*
X12540000Y-12825000D02*
G75*
G02*
X12510000Y-12825000I-15000J0D01*
G01*
X12510000Y-12825000D02*
G75*
G02*
X12540000Y-12825000I15000J0D01*
G01*
X12562000Y-11313000D02*
G75*
G02*
X12532000Y-11313000I-15000J0D01*
G01*
X12532000Y-11313000D02*
G75*
G02*
X12562000Y-11313000I15000J0D01*
G01*
X12565000Y-8475000D02*
G75*
G02*
X12535000Y-8475000I-15000J0D01*
G01*
X12535000Y-8475000D02*
G75*
G02*
X12565000Y-8475000I15000J0D01*
G01*
X12581000Y-11987000D02*
G75*
G02*
X12551000Y-11987000I-15000J0D01*
G01*
X12551000Y-11987000D02*
G75*
G02*
X12581000Y-11987000I15000J0D01*
G01*
X12640000Y-12825000D02*
G75*
G02*
X12610000Y-12825000I-15000J0D01*
G01*
X12610000Y-12825000D02*
G75*
G02*
X12640000Y-12825000I15000J0D01*
G01*
X12665000Y-8475000D02*
G75*
G02*
X12635000Y-8475000I-15000J0D01*
G01*
X12635000Y-8475000D02*
G75*
G02*
X12665000Y-8475000I15000J0D01*
G01*
X12674000Y-9639000D02*
G75*
G02*
X12644000Y-9639000I-15000J0D01*
G01*
X12644000Y-9639000D02*
G75*
G02*
X12674000Y-9639000I15000J0D01*
G01*
X12679904Y-11535531D02*
G75*
G02*
X12649904Y-11535531I-15000J0D01*
G01*
X12649904Y-11535531D02*
G75*
G02*
X12679904Y-11535531I15000J0D01*
G01*
X12680000Y-9243000D02*
G75*
G02*
X12650000Y-9243000I-15000J0D01*
G01*
X12650000Y-9243000D02*
G75*
G02*
X12680000Y-9243000I15000J0D01*
G01*
X12683000Y-10178000D02*
G75*
G02*
X12653000Y-10178000I-15000J0D01*
G01*
X12653000Y-10178000D02*
G75*
G02*
X12683000Y-10178000I15000J0D01*
G01*
X12719000Y-9927000D02*
G75*
G02*
X12689000Y-9927000I-15000J0D01*
G01*
X12689000Y-9927000D02*
G75*
G02*
X12719000Y-9927000I15000J0D01*
G01*
X12740000Y-12825000D02*
G75*
G02*
X12710000Y-12825000I-15000J0D01*
G01*
X12710000Y-12825000D02*
G75*
G02*
X12740000Y-12825000I15000J0D01*
G01*
X12765000Y-8475000D02*
G75*
G02*
X12735000Y-8475000I-15000J0D01*
G01*
X12735000Y-8475000D02*
G75*
G02*
X12765000Y-8475000I15000J0D01*
G01*
X12767000Y-11898000D02*
G75*
G02*
X12737000Y-11898000I-15000J0D01*
G01*
X12737000Y-11898000D02*
G75*
G02*
X12767000Y-11898000I15000J0D01*
G01*
X12771000Y-11705000D02*
G75*
G02*
X12741000Y-11705000I-15000J0D01*
G01*
X12741000Y-11705000D02*
G75*
G02*
X12771000Y-11705000I15000J0D01*
G01*
X12778000Y-11245000D02*
G75*
G02*
X12748000Y-11245000I-15000J0D01*
G01*
X12748000Y-11245000D02*
G75*
G02*
X12778000Y-11245000I15000J0D01*
G01*
X12826000Y-9442000D02*
G75*
G02*
X12796000Y-9442000I-15000J0D01*
G01*
X12796000Y-9442000D02*
G75*
G02*
X12826000Y-9442000I15000J0D01*
G01*
X12840000Y-12825000D02*
G75*
G02*
X12810000Y-12825000I-15000J0D01*
G01*
X12810000Y-12825000D02*
G75*
G02*
X12840000Y-12825000I15000J0D01*
G01*
X12844000Y-9736000D02*
G75*
G02*
X12814000Y-9736000I-15000J0D01*
G01*
X12814000Y-9736000D02*
G75*
G02*
X12844000Y-9736000I15000J0D01*
G01*
X12865000Y-8475000D02*
G75*
G02*
X12835000Y-8475000I-15000J0D01*
G01*
X12835000Y-8475000D02*
G75*
G02*
X12865000Y-8475000I15000J0D01*
G01*
X12867000Y-9158000D02*
G75*
G02*
X12837000Y-9158000I-15000J0D01*
G01*
X12837000Y-9158000D02*
G75*
G02*
X12867000Y-9158000I15000J0D01*
G01*
X12869000Y-12273000D02*
G75*
G02*
X12839000Y-12273000I-15000J0D01*
G01*
X12839000Y-12273000D02*
G75*
G02*
X12869000Y-12273000I15000J0D01*
G01*
X12924000Y-11630000D02*
G75*
G02*
X12894000Y-11630000I-15000J0D01*
G01*
X12894000Y-11630000D02*
G75*
G02*
X12924000Y-11630000I15000J0D01*
G01*
X12936000Y-11825000D02*
G75*
G02*
X12906000Y-11825000I-15000J0D01*
G01*
X12906000Y-11825000D02*
G75*
G02*
X12936000Y-11825000I15000J0D01*
G01*
X12940000Y-12825000D02*
G75*
G02*
X12910000Y-12825000I-15000J0D01*
G01*
X12910000Y-12825000D02*
G75*
G02*
X12940000Y-12825000I15000J0D01*
G01*
X12965000Y-8475000D02*
G75*
G02*
X12935000Y-8475000I-15000J0D01*
G01*
X12935000Y-8475000D02*
G75*
G02*
X12965000Y-8475000I15000J0D01*
G01*
X13040000Y-12825000D02*
G75*
G02*
X13010000Y-12825000I-15000J0D01*
G01*
X13010000Y-12825000D02*
G75*
G02*
X13040000Y-12825000I15000J0D01*
G01*
X13065000Y-8475000D02*
G75*
G02*
X13035000Y-8475000I-15000J0D01*
G01*
X13035000Y-8475000D02*
G75*
G02*
X13065000Y-8475000I15000J0D01*
G01*
X13094000Y-11660000D02*
G75*
G02*
X13064000Y-11660000I-15000J0D01*
G01*
X13064000Y-11660000D02*
G75*
G02*
X13094000Y-11660000I15000J0D01*
G01*
X13098000Y-11871000D02*
G75*
G02*
X13068000Y-11871000I-15000J0D01*
G01*
X13068000Y-11871000D02*
G75*
G02*
X13098000Y-11871000I15000J0D01*
G01*
X13132000Y-8843000D02*
G75*
G02*
X13102000Y-8843000I-15000J0D01*
G01*
X13102000Y-8843000D02*
G75*
G02*
X13132000Y-8843000I15000J0D01*
G01*
X13140000Y-12825000D02*
G75*
G02*
X13110000Y-12825000I-15000J0D01*
G01*
X13110000Y-12825000D02*
G75*
G02*
X13140000Y-12825000I15000J0D01*
G01*
X13165000Y-8475000D02*
G75*
G02*
X13135000Y-8475000I-15000J0D01*
G01*
X13135000Y-8475000D02*
G75*
G02*
X13165000Y-8475000I15000J0D01*
G01*
X13240000Y-12825000D02*
G75*
G02*
X13210000Y-12825000I-15000J0D01*
G01*
X13210000Y-12825000D02*
G75*
G02*
X13240000Y-12825000I15000J0D01*
G01*
X13246000Y-9096000D02*
G75*
G02*
X13216000Y-9096000I-15000J0D01*
G01*
X13216000Y-9096000D02*
G75*
G02*
X13246000Y-9096000I15000J0D01*
G01*
X13261000Y-9662000D02*
G75*
G02*
X13231000Y-9662000I-15000J0D01*
G01*
X13231000Y-9662000D02*
G75*
G02*
X13261000Y-9662000I15000J0D01*
G01*
X13265000Y-8475000D02*
G75*
G02*
X13235000Y-8475000I-15000J0D01*
G01*
X13235000Y-8475000D02*
G75*
G02*
X13265000Y-8475000I15000J0D01*
G01*
X13299000Y-8651000D02*
G75*
G02*
X13269000Y-8651000I-15000J0D01*
G01*
X13269000Y-8651000D02*
G75*
G02*
X13299000Y-8651000I15000J0D01*
G01*
X13340000Y-12825000D02*
G75*
G02*
X13310000Y-12825000I-15000J0D01*
G01*
X13310000Y-12825000D02*
G75*
G02*
X13340000Y-12825000I15000J0D01*
G01*
X13365000Y-8475000D02*
G75*
G02*
X13335000Y-8475000I-15000J0D01*
G01*
X13335000Y-8475000D02*
G75*
G02*
X13365000Y-8475000I15000J0D01*
G01*
X13407000Y-9883000D02*
G75*
G02*
X13377000Y-9883000I-15000J0D01*
G01*
X13377000Y-9883000D02*
G75*
G02*
X13407000Y-9883000I15000J0D01*
G01*
X13408538Y-9719607D02*
G75*
G02*
X13378538Y-9719607I-15000J0D01*
G01*
X13378538Y-9719607D02*
G75*
G02*
X13408538Y-9719607I15000J0D01*
G01*
X13440000Y-12825000D02*
G75*
G02*
X13410000Y-12825000I-15000J0D01*
G01*
X13410000Y-12825000D02*
G75*
G02*
X13440000Y-12825000I15000J0D01*
G01*
X13465000Y-8475000D02*
G75*
G02*
X13435000Y-8475000I-15000J0D01*
G01*
X13435000Y-8475000D02*
G75*
G02*
X13465000Y-8475000I15000J0D01*
G01*
X13499000Y-10288000D02*
G75*
G02*
X13469000Y-10288000I-15000J0D01*
G01*
X13469000Y-10288000D02*
G75*
G02*
X13499000Y-10288000I15000J0D01*
G01*
X13503000Y-9267000D02*
G75*
G02*
X13473000Y-9267000I-15000J0D01*
G01*
X13473000Y-9267000D02*
G75*
G02*
X13503000Y-9267000I15000J0D01*
G01*
X13540000Y-12825000D02*
G75*
G02*
X13510000Y-12825000I-15000J0D01*
G01*
X13510000Y-12825000D02*
G75*
G02*
X13540000Y-12825000I15000J0D01*
G01*
X13547000Y-10438000D02*
G75*
G02*
X13517000Y-10438000I-15000J0D01*
G01*
X13517000Y-10438000D02*
G75*
G02*
X13547000Y-10438000I15000J0D01*
G01*
X13557000Y-11838000D02*
G75*
G02*
X13527000Y-11838000I-15000J0D01*
G01*
X13527000Y-11838000D02*
G75*
G02*
X13557000Y-11838000I15000J0D01*
G01*
X13565000Y-8475000D02*
G75*
G02*
X13535000Y-8475000I-15000J0D01*
G01*
X13535000Y-8475000D02*
G75*
G02*
X13565000Y-8475000I15000J0D01*
G01*
X13569000Y-10178000D02*
G75*
G02*
X13539000Y-10178000I-15000J0D01*
G01*
X13539000Y-10178000D02*
G75*
G02*
X13569000Y-10178000I15000J0D01*
G01*
X13608000Y-10820000D02*
G75*
G02*
X13578000Y-10820000I-15000J0D01*
G01*
X13578000Y-10820000D02*
G75*
G02*
X13608000Y-10820000I15000J0D01*
G01*
X13613000Y-12658000D02*
G75*
G02*
X13583000Y-12658000I-15000J0D01*
G01*
X13583000Y-12658000D02*
G75*
G02*
X13613000Y-12658000I15000J0D01*
G01*
X13621000Y-12268000D02*
G75*
G02*
X13591000Y-12268000I-15000J0D01*
G01*
X13591000Y-12268000D02*
G75*
G02*
X13621000Y-12268000I15000J0D01*
G01*
X13640000Y-12825000D02*
G75*
G02*
X13610000Y-12825000I-15000J0D01*
G01*
X13610000Y-12825000D02*
G75*
G02*
X13640000Y-12825000I15000J0D01*
G01*
X13646000Y-11445000D02*
G75*
G02*
X13616000Y-11445000I-15000J0D01*
G01*
X13616000Y-11445000D02*
G75*
G02*
X13646000Y-11445000I15000J0D01*
G01*
X13656000Y-11257000D02*
G75*
G02*
X13626000Y-11257000I-15000J0D01*
G01*
X13626000Y-11257000D02*
G75*
G02*
X13656000Y-11257000I15000J0D01*
G01*
X13665000Y-8475000D02*
G75*
G02*
X13635000Y-8475000I-15000J0D01*
G01*
X13635000Y-8475000D02*
G75*
G02*
X13665000Y-8475000I15000J0D01*
G01*
X13692000Y-10638000D02*
G75*
G02*
X13662000Y-10638000I-15000J0D01*
G01*
X13662000Y-10638000D02*
G75*
G02*
X13692000Y-10638000I15000J0D01*
G01*
X13707000Y-11612000D02*
G75*
G02*
X13677000Y-11612000I-15000J0D01*
G01*
X13677000Y-11612000D02*
G75*
G02*
X13707000Y-11612000I15000J0D01*
G01*
X13709000Y-8943000D02*
G75*
G02*
X13679000Y-8943000I-15000J0D01*
G01*
X13679000Y-8943000D02*
G75*
G02*
X13709000Y-8943000I15000J0D01*
G01*
X13730000Y-10337000D02*
G75*
G02*
X13700000Y-10337000I-15000J0D01*
G01*
X13700000Y-10337000D02*
G75*
G02*
X13730000Y-10337000I15000J0D01*
G01*
X13740000Y-12825000D02*
G75*
G02*
X13710000Y-12825000I-15000J0D01*
G01*
X13710000Y-12825000D02*
G75*
G02*
X13740000Y-12825000I15000J0D01*
G01*
X13756000Y-12201000D02*
G75*
G02*
X13726000Y-12201000I-15000J0D01*
G01*
X13726000Y-12201000D02*
G75*
G02*
X13756000Y-12201000I15000J0D01*
G01*
X13757000Y-12059000D02*
G75*
G02*
X13727000Y-12059000I-15000J0D01*
G01*
X13727000Y-12059000D02*
G75*
G02*
X13757000Y-12059000I15000J0D01*
G01*
X13765000Y-8475000D02*
G75*
G02*
X13735000Y-8475000I-15000J0D01*
G01*
X13735000Y-8475000D02*
G75*
G02*
X13765000Y-8475000I15000J0D01*
G01*
X13780000Y-9711000D02*
G75*
G02*
X13750000Y-9711000I-15000J0D01*
G01*
X13750000Y-9711000D02*
G75*
G02*
X13780000Y-9711000I15000J0D01*
G01*
X13814000Y-8639000D02*
G75*
G02*
X13784000Y-8639000I-15000J0D01*
G01*
X13784000Y-8639000D02*
G75*
G02*
X13814000Y-8639000I15000J0D01*
G01*
X13840000Y-12825000D02*
G75*
G02*
X13810000Y-12825000I-15000J0D01*
G01*
X13810000Y-12825000D02*
G75*
G02*
X13840000Y-12825000I15000J0D01*
G01*
X13843000Y-11214000D02*
G75*
G02*
X13813000Y-11214000I-15000J0D01*
G01*
X13813000Y-11214000D02*
G75*
G02*
X13843000Y-11214000I15000J0D01*
G01*
X13845000Y-11339000D02*
G75*
G02*
X13815000Y-11339000I-15000J0D01*
G01*
X13815000Y-11339000D02*
G75*
G02*
X13845000Y-11339000I15000J0D01*
G01*
X13857000Y-11843000D02*
G75*
G02*
X13827000Y-11843000I-15000J0D01*
G01*
X13827000Y-11843000D02*
G75*
G02*
X13857000Y-11843000I15000J0D01*
G01*
X13859000Y-8849000D02*
G75*
G02*
X13829000Y-8849000I-15000J0D01*
G01*
X13829000Y-8849000D02*
G75*
G02*
X13859000Y-8849000I15000J0D01*
G01*
X13865000Y-8475000D02*
G75*
G02*
X13835000Y-8475000I-15000J0D01*
G01*
X13835000Y-8475000D02*
G75*
G02*
X13865000Y-8475000I15000J0D01*
G01*
X13889000Y-10127000D02*
G75*
G02*
X13859000Y-10127000I-15000J0D01*
G01*
X13859000Y-10127000D02*
G75*
G02*
X13889000Y-10127000I15000J0D01*
G01*
X13917000Y-11430000D02*
G75*
G02*
X13887000Y-11430000I-15000J0D01*
G01*
X13887000Y-11430000D02*
G75*
G02*
X13917000Y-11430000I15000J0D01*
G01*
X13940000Y-12825000D02*
G75*
G02*
X13910000Y-12825000I-15000J0D01*
G01*
X13910000Y-12825000D02*
G75*
G02*
X13940000Y-12825000I15000J0D01*
G01*
X13941000Y-9579000D02*
G75*
G02*
X13911000Y-9579000I-15000J0D01*
G01*
X13911000Y-9579000D02*
G75*
G02*
X13941000Y-9579000I15000J0D01*
G01*
X13954000Y-10765000D02*
G75*
G02*
X13924000Y-10765000I-15000J0D01*
G01*
X13924000Y-10765000D02*
G75*
G02*
X13954000Y-10765000I15000J0D01*
G01*
X13965000Y-8475000D02*
G75*
G02*
X13935000Y-8475000I-15000J0D01*
G01*
X13935000Y-8475000D02*
G75*
G02*
X13965000Y-8475000I15000J0D01*
G01*
X13995000Y-12072000D02*
G75*
G02*
X13965000Y-12072000I-15000J0D01*
G01*
X13965000Y-12072000D02*
G75*
G02*
X13995000Y-12072000I15000J0D01*
G01*
X14006000Y-11509000D02*
G75*
G02*
X13976000Y-11509000I-15000J0D01*
G01*
X13976000Y-11509000D02*
G75*
G02*
X14006000Y-11509000I15000J0D01*
G01*
X14026000Y-11618000D02*
G75*
G02*
X13996000Y-11618000I-15000J0D01*
G01*
X13996000Y-11618000D02*
G75*
G02*
X14026000Y-11618000I15000J0D01*
G01*
X14027000Y-9326000D02*
G75*
G02*
X13997000Y-9326000I-15000J0D01*
G01*
X13997000Y-9326000D02*
G75*
G02*
X14027000Y-9326000I15000J0D01*
G01*
X14033000Y-10468000D02*
G75*
G02*
X14003000Y-10468000I-15000J0D01*
G01*
X14003000Y-10468000D02*
G75*
G02*
X14033000Y-10468000I15000J0D01*
G01*
X14034000Y-11200000D02*
G75*
G02*
X14004000Y-11200000I-15000J0D01*
G01*
X14004000Y-11200000D02*
G75*
G02*
X14034000Y-11200000I15000J0D01*
G01*
X14036000Y-11325000D02*
G75*
G02*
X14006000Y-11325000I-15000J0D01*
G01*
X14006000Y-11325000D02*
G75*
G02*
X14036000Y-11325000I15000J0D01*
G01*
X14040000Y-12825000D02*
G75*
G02*
X14010000Y-12825000I-15000J0D01*
G01*
X14010000Y-12825000D02*
G75*
G02*
X14040000Y-12825000I15000J0D01*
G01*
X14065000Y-8475000D02*
G75*
G02*
X14035000Y-8475000I-15000J0D01*
G01*
X14035000Y-8475000D02*
G75*
G02*
X14065000Y-8475000I15000J0D01*
G01*
X14090000Y-9215000D02*
G75*
G02*
X14060000Y-9215000I-15000J0D01*
G01*
X14060000Y-9215000D02*
G75*
G02*
X14090000Y-9215000I15000J0D01*
G01*
X14090000Y-12212000D02*
G75*
G02*
X14060000Y-12212000I-15000J0D01*
G01*
X14060000Y-12212000D02*
G75*
G02*
X14090000Y-12212000I15000J0D01*
G01*
X14105000Y-10169000D02*
G75*
G02*
X14075000Y-10169000I-15000J0D01*
G01*
X14075000Y-10169000D02*
G75*
G02*
X14105000Y-10169000I15000J0D01*
G01*
X14140000Y-12825000D02*
G75*
G02*
X14110000Y-12825000I-15000J0D01*
G01*
X14110000Y-12825000D02*
G75*
G02*
X14140000Y-12825000I15000J0D01*
G01*
X14165000Y-8475000D02*
G75*
G02*
X14135000Y-8475000I-15000J0D01*
G01*
X14135000Y-8475000D02*
G75*
G02*
X14165000Y-8475000I15000J0D01*
G01*
X14202000Y-11978000D02*
G75*
G02*
X14172000Y-11978000I-15000J0D01*
G01*
X14172000Y-11978000D02*
G75*
G02*
X14202000Y-11978000I15000J0D01*
G01*
X14206000Y-10780000D02*
G75*
G02*
X14176000Y-10780000I-15000J0D01*
G01*
X14176000Y-10780000D02*
G75*
G02*
X14206000Y-10780000I15000J0D01*
G01*
X14225000Y-9171000D02*
G75*
G02*
X14195000Y-9171000I-15000J0D01*
G01*
X14195000Y-9171000D02*
G75*
G02*
X14225000Y-9171000I15000J0D01*
G01*
X14225000Y-10427000D02*
G75*
G02*
X14195000Y-10427000I-15000J0D01*
G01*
X14195000Y-10427000D02*
G75*
G02*
X14225000Y-10427000I15000J0D01*
G01*
X14240000Y-12825000D02*
G75*
G02*
X14210000Y-12825000I-15000J0D01*
G01*
X14210000Y-12825000D02*
G75*
G02*
X14240000Y-12825000I15000J0D01*
G01*
X14265000Y-8475000D02*
G75*
G02*
X14235000Y-8475000I-15000J0D01*
G01*
X14235000Y-8475000D02*
G75*
G02*
X14265000Y-8475000I15000J0D01*
G01*
X14277000Y-8614000D02*
G75*
G02*
X14247000Y-8614000I-15000J0D01*
G01*
X14247000Y-8614000D02*
G75*
G02*
X14277000Y-8614000I15000J0D01*
G01*
X14307000Y-9731000D02*
G75*
G02*
X14277000Y-9731000I-15000J0D01*
G01*
X14277000Y-9731000D02*
G75*
G02*
X14307000Y-9731000I15000J0D01*
G01*
X14312000Y-9449000D02*
G75*
G02*
X14282000Y-9449000I-15000J0D01*
G01*
X14282000Y-9449000D02*
G75*
G02*
X14312000Y-9449000I15000J0D01*
G01*
X14315000Y-11957000D02*
G75*
G02*
X14285000Y-11957000I-15000J0D01*
G01*
X14285000Y-11957000D02*
G75*
G02*
X14315000Y-11957000I15000J0D01*
G01*
X14340000Y-12825000D02*
G75*
G02*
X14310000Y-12825000I-15000J0D01*
G01*
X14310000Y-12825000D02*
G75*
G02*
X14340000Y-12825000I15000J0D01*
G01*
X14351000Y-8973000D02*
G75*
G02*
X14321000Y-8973000I-15000J0D01*
G01*
X14321000Y-8973000D02*
G75*
G02*
X14351000Y-8973000I15000J0D01*
G01*
X14365000Y-8475000D02*
G75*
G02*
X14335000Y-8475000I-15000J0D01*
G01*
X14335000Y-8475000D02*
G75*
G02*
X14365000Y-8475000I15000J0D01*
G01*
X14440000Y-12825000D02*
G75*
G02*
X14410000Y-12825000I-15000J0D01*
G01*
X14410000Y-12825000D02*
G75*
G02*
X14440000Y-12825000I15000J0D01*
G01*
X14457000Y-11065000D02*
G75*
G02*
X14427000Y-11065000I-15000J0D01*
G01*
X14427000Y-11065000D02*
G75*
G02*
X14457000Y-11065000I15000J0D01*
G01*
X14457000Y-11981000D02*
G75*
G02*
X14427000Y-11981000I-15000J0D01*
G01*
X14427000Y-11981000D02*
G75*
G02*
X14457000Y-11981000I15000J0D01*
G01*
X14465000Y-8475000D02*
G75*
G02*
X14435000Y-8475000I-15000J0D01*
G01*
X14435000Y-8475000D02*
G75*
G02*
X14465000Y-8475000I15000J0D01*
G01*
X14512000Y-10963000D02*
G75*
G02*
X14482000Y-10963000I-15000J0D01*
G01*
X14482000Y-10963000D02*
G75*
G02*
X14512000Y-10963000I15000J0D01*
G01*
X14540000Y-12825000D02*
G75*
G02*
X14510000Y-12825000I-15000J0D01*
G01*
X14510000Y-12825000D02*
G75*
G02*
X14540000Y-12825000I15000J0D01*
G01*
X14565000Y-8475000D02*
G75*
G02*
X14535000Y-8475000I-15000J0D01*
G01*
X14535000Y-8475000D02*
G75*
G02*
X14565000Y-8475000I15000J0D01*
G01*
X14586102Y-10148670D02*
G75*
G02*
X14556102Y-10148670I-15000J0D01*
G01*
X14556102Y-10148670D02*
G75*
G02*
X14586102Y-10148670I15000J0D01*
G01*
X14591000Y-10456000D02*
G75*
G02*
X14561000Y-10456000I-15000J0D01*
G01*
X14561000Y-10456000D02*
G75*
G02*
X14591000Y-10456000I15000J0D01*
G01*
X14592000Y-10280000D02*
G75*
G02*
X14562000Y-10280000I-15000J0D01*
G01*
X14562000Y-10280000D02*
G75*
G02*
X14592000Y-10280000I15000J0D01*
G01*
X14640000Y-12825000D02*
G75*
G02*
X14610000Y-12825000I-15000J0D01*
G01*
X14610000Y-12825000D02*
G75*
G02*
X14640000Y-12825000I15000J0D01*
G01*
X14665000Y-8475000D02*
G75*
G02*
X14635000Y-8475000I-15000J0D01*
G01*
X14635000Y-8475000D02*
G75*
G02*
X14665000Y-8475000I15000J0D01*
G01*
X14681375Y-8814500D02*
G75*
G02*
X14651375Y-8814500I-15000J0D01*
G01*
X14651375Y-8814500D02*
G75*
G02*
X14681375Y-8814500I15000J0D01*
G01*
X14689000Y-8614000D02*
G75*
G02*
X14659000Y-8614000I-15000J0D01*
G01*
X14659000Y-8614000D02*
G75*
G02*
X14689000Y-8614000I15000J0D01*
G01*
X14703250Y-10072000D02*
G75*
G02*
X14673250Y-10072000I-15000J0D01*
G01*
X14673250Y-10072000D02*
G75*
G02*
X14703250Y-10072000I15000J0D01*
G01*
X14728000Y-9711000D02*
G75*
G02*
X14698000Y-9711000I-15000J0D01*
G01*
X14698000Y-9711000D02*
G75*
G02*
X14728000Y-9711000I15000J0D01*
G01*
X14740000Y-12825000D02*
G75*
G02*
X14710000Y-12825000I-15000J0D01*
G01*
X14710000Y-12825000D02*
G75*
G02*
X14740000Y-12825000I15000J0D01*
G01*
X14743500Y-9416438D02*
G75*
G02*
X14713500Y-9416438I-15000J0D01*
G01*
X14713500Y-9416438D02*
G75*
G02*
X14743500Y-9416438I15000J0D01*
G01*
X14749000Y-10796000D02*
G75*
G02*
X14719000Y-10796000I-15000J0D01*
G01*
X14719000Y-10796000D02*
G75*
G02*
X14749000Y-10796000I15000J0D01*
G01*
X14765000Y-8475000D02*
G75*
G02*
X14735000Y-8475000I-15000J0D01*
G01*
X14735000Y-8475000D02*
G75*
G02*
X14765000Y-8475000I15000J0D01*
G01*
X14778000Y-9926000D02*
G75*
G02*
X14748000Y-9926000I-15000J0D01*
G01*
X14748000Y-9926000D02*
G75*
G02*
X14778000Y-9926000I15000J0D01*
G01*
X14811000Y-9351000D02*
G75*
G02*
X14781000Y-9351000I-15000J0D01*
G01*
X14781000Y-9351000D02*
G75*
G02*
X14811000Y-9351000I15000J0D01*
G01*
X14840000Y-12825000D02*
G75*
G02*
X14810000Y-12825000I-15000J0D01*
G01*
X14810000Y-12825000D02*
G75*
G02*
X14840000Y-12825000I15000J0D01*
G01*
X14865000Y-8475000D02*
G75*
G02*
X14835000Y-8475000I-15000J0D01*
G01*
X14835000Y-8475000D02*
G75*
G02*
X14865000Y-8475000I15000J0D01*
G01*
X14882000Y-12161000D02*
G75*
G02*
X14852000Y-12161000I-15000J0D01*
G01*
X14852000Y-12161000D02*
G75*
G02*
X14882000Y-12161000I15000J0D01*
G01*
X14891000Y-10014000D02*
G75*
G02*
X14861000Y-10014000I-15000J0D01*
G01*
X14861000Y-10014000D02*
G75*
G02*
X14891000Y-10014000I15000J0D01*
G01*
X14913000Y-12602000D02*
G75*
G02*
X14883000Y-12602000I-15000J0D01*
G01*
X14883000Y-12602000D02*
G75*
G02*
X14913000Y-12602000I15000J0D01*
G01*
X14940000Y-12825000D02*
G75*
G02*
X14910000Y-12825000I-15000J0D01*
G01*
X14910000Y-12825000D02*
G75*
G02*
X14940000Y-12825000I15000J0D01*
G01*
X14950000Y-11053000D02*
G75*
G02*
X14920000Y-11053000I-15000J0D01*
G01*
X14920000Y-11053000D02*
G75*
G02*
X14950000Y-11053000I15000J0D01*
G01*
X14965000Y-8475000D02*
G75*
G02*
X14935000Y-8475000I-15000J0D01*
G01*
X14935000Y-8475000D02*
G75*
G02*
X14965000Y-8475000I15000J0D01*
G01*
X14970000Y-8628000D02*
G75*
G02*
X14940000Y-8628000I-15000J0D01*
G01*
X14940000Y-8628000D02*
G75*
G02*
X14970000Y-8628000I15000J0D01*
G01*
X15013000Y-11907000D02*
G75*
G02*
X14983000Y-11907000I-15000J0D01*
G01*
X14983000Y-11907000D02*
G75*
G02*
X15013000Y-11907000I15000J0D01*
G01*
X15017000Y-10897000D02*
G75*
G02*
X14987000Y-10897000I-15000J0D01*
G01*
X14987000Y-10897000D02*
G75*
G02*
X15017000Y-10897000I15000J0D01*
G01*
X15030000Y-11236000D02*
G75*
G02*
X15000000Y-11236000I-15000J0D01*
G01*
X15000000Y-11236000D02*
G75*
G02*
X15030000Y-11236000I15000J0D01*
G01*
X15038000Y-12098000D02*
G75*
G02*
X15008000Y-12098000I-15000J0D01*
G01*
X15008000Y-12098000D02*
G75*
G02*
X15038000Y-12098000I15000J0D01*
G01*
X15040000Y-12825000D02*
G75*
G02*
X15010000Y-12825000I-15000J0D01*
G01*
X15010000Y-12825000D02*
G75*
G02*
X15040000Y-12825000I15000J0D01*
G01*
X15041000Y-10045000D02*
G75*
G02*
X15011000Y-10045000I-15000J0D01*
G01*
X15011000Y-10045000D02*
G75*
G02*
X15041000Y-10045000I15000J0D01*
G01*
X15043375Y-9172500D02*
G75*
G02*
X15013375Y-9172500I-15000J0D01*
G01*
X15013375Y-9172500D02*
G75*
G02*
X15043375Y-9172500I15000J0D01*
G01*
X15046375Y-9086500D02*
G75*
G02*
X15016375Y-9086500I-15000J0D01*
G01*
X15016375Y-9086500D02*
G75*
G02*
X15046375Y-9086500I15000J0D01*
G01*
X15048375Y-9004500D02*
G75*
G02*
X15018375Y-9004500I-15000J0D01*
G01*
X15018375Y-9004500D02*
G75*
G02*
X15048375Y-9004500I15000J0D01*
G01*
X15050375Y-8924500D02*
G75*
G02*
X15020375Y-8924500I-15000J0D01*
G01*
X15020375Y-8924500D02*
G75*
G02*
X15050375Y-8924500I15000J0D01*
G01*
X15050375Y-9250500D02*
G75*
G02*
X15020375Y-9250500I-15000J0D01*
G01*
X15020375Y-9250500D02*
G75*
G02*
X15050375Y-9250500I15000J0D01*
G01*
X15065000Y-8475000D02*
G75*
G02*
X15035000Y-8475000I-15000J0D01*
G01*
X15035000Y-8475000D02*
G75*
G02*
X15065000Y-8475000I15000J0D01*
G01*
X15068375Y-8808500D02*
G75*
G02*
X15038375Y-8808500I-15000J0D01*
G01*
X15038375Y-8808500D02*
G75*
G02*
X15068375Y-8808500I15000J0D01*
G01*
X15102000Y-10221000D02*
G75*
G02*
X15072000Y-10221000I-15000J0D01*
G01*
X15072000Y-10221000D02*
G75*
G02*
X15102000Y-10221000I15000J0D01*
G01*
X15103000Y-11088000D02*
G75*
G02*
X15073000Y-11088000I-15000J0D01*
G01*
X15073000Y-11088000D02*
G75*
G02*
X15103000Y-11088000I15000J0D01*
G01*
X15103000Y-11399000D02*
G75*
G02*
X15073000Y-11399000I-15000J0D01*
G01*
X15073000Y-11399000D02*
G75*
G02*
X15103000Y-11399000I15000J0D01*
G01*
X15117000Y-10714000D02*
G75*
G02*
X15087000Y-10714000I-15000J0D01*
G01*
X15087000Y-10714000D02*
G75*
G02*
X15117000Y-10714000I15000J0D01*
G01*
X15120000Y-12373000D02*
G75*
G02*
X15090000Y-12373000I-15000J0D01*
G01*
X15090000Y-12373000D02*
G75*
G02*
X15120000Y-12373000I15000J0D01*
G01*
X15132375Y-9251500D02*
G75*
G02*
X15102375Y-9251500I-15000J0D01*
G01*
X15102375Y-9251500D02*
G75*
G02*
X15132375Y-9251500I15000J0D01*
G01*
X15140000Y-12825000D02*
G75*
G02*
X15110000Y-12825000I-15000J0D01*
G01*
X15110000Y-12825000D02*
G75*
G02*
X15140000Y-12825000I15000J0D01*
G01*
X15143000Y-11863000D02*
G75*
G02*
X15113000Y-11863000I-15000J0D01*
G01*
X15113000Y-11863000D02*
G75*
G02*
X15143000Y-11863000I15000J0D01*
G01*
X15147000Y-11642000D02*
G75*
G02*
X15117000Y-11642000I-15000J0D01*
G01*
X15117000Y-11642000D02*
G75*
G02*
X15147000Y-11642000I15000J0D01*
G01*
X15149375Y-9167500D02*
G75*
G02*
X15119375Y-9167500I-15000J0D01*
G01*
X15119375Y-9167500D02*
G75*
G02*
X15149375Y-9167500I15000J0D01*
G01*
X15151000Y-9973000D02*
G75*
G02*
X15121000Y-9973000I-15000J0D01*
G01*
X15121000Y-9973000D02*
G75*
G02*
X15151000Y-9973000I15000J0D01*
G01*
X15165000Y-8475000D02*
G75*
G02*
X15135000Y-8475000I-15000J0D01*
G01*
X15135000Y-8475000D02*
G75*
G02*
X15165000Y-8475000I15000J0D01*
G01*
X15177375Y-9088500D02*
G75*
G02*
X15147375Y-9088500I-15000J0D01*
G01*
X15147375Y-9088500D02*
G75*
G02*
X15177375Y-9088500I15000J0D01*
G01*
X15230000Y-8631000D02*
G75*
G02*
X15200000Y-8631000I-15000J0D01*
G01*
X15200000Y-8631000D02*
G75*
G02*
X15230000Y-8631000I15000J0D01*
G01*
X15240000Y-12825000D02*
G75*
G02*
X15210000Y-12825000I-15000J0D01*
G01*
X15210000Y-12825000D02*
G75*
G02*
X15240000Y-12825000I15000J0D01*
G01*
X15255000Y-10402000D02*
G75*
G02*
X15225000Y-10402000I-15000J0D01*
G01*
X15225000Y-10402000D02*
G75*
G02*
X15255000Y-10402000I15000J0D01*
G01*
X15259375Y-9082500D02*
G75*
G02*
X15229375Y-9082500I-15000J0D01*
G01*
X15229375Y-9082500D02*
G75*
G02*
X15259375Y-9082500I15000J0D01*
G01*
X15265000Y-8475000D02*
G75*
G02*
X15235000Y-8475000I-15000J0D01*
G01*
X15235000Y-8475000D02*
G75*
G02*
X15265000Y-8475000I15000J0D01*
G01*
X15289000Y-8856000D02*
G75*
G02*
X15259000Y-8856000I-15000J0D01*
G01*
X15259000Y-8856000D02*
G75*
G02*
X15289000Y-8856000I15000J0D01*
G01*
X15299000Y-10840000D02*
G75*
G02*
X15269000Y-10840000I-15000J0D01*
G01*
X15269000Y-10840000D02*
G75*
G02*
X15299000Y-10840000I15000J0D01*
G01*
X15322000Y-10986000D02*
G75*
G02*
X15292000Y-10986000I-15000J0D01*
G01*
X15292000Y-10986000D02*
G75*
G02*
X15322000Y-10986000I15000J0D01*
G01*
X15324000Y-11302000D02*
G75*
G02*
X15294000Y-11302000I-15000J0D01*
G01*
X15294000Y-11302000D02*
G75*
G02*
X15324000Y-11302000I15000J0D01*
G01*
X15330000Y-12338000D02*
G75*
G02*
X15300000Y-12338000I-15000J0D01*
G01*
X15300000Y-12338000D02*
G75*
G02*
X15330000Y-12338000I15000J0D01*
G01*
X15332000Y-11695000D02*
G75*
G02*
X15302000Y-11695000I-15000J0D01*
G01*
X15302000Y-11695000D02*
G75*
G02*
X15332000Y-11695000I15000J0D01*
G01*
X15340000Y-12825000D02*
G75*
G02*
X15310000Y-12825000I-15000J0D01*
G01*
X15310000Y-12825000D02*
G75*
G02*
X15340000Y-12825000I15000J0D01*
G01*
X15345375Y-9082500D02*
G75*
G02*
X15315375Y-9082500I-15000J0D01*
G01*
X15315375Y-9082500D02*
G75*
G02*
X15345375Y-9082500I15000J0D01*
G01*
X15365000Y-8475000D02*
G75*
G02*
X15335000Y-8475000I-15000J0D01*
G01*
X15335000Y-8475000D02*
G75*
G02*
X15365000Y-8475000I15000J0D01*
G01*
X15387375Y-9594500D02*
G75*
G02*
X15357375Y-9594500I-15000J0D01*
G01*
X15357375Y-9594500D02*
G75*
G02*
X15387375Y-9594500I15000J0D01*
G01*
X15392000Y-11536000D02*
G75*
G02*
X15362000Y-11536000I-15000J0D01*
G01*
X15362000Y-11536000D02*
G75*
G02*
X15392000Y-11536000I15000J0D01*
G01*
X15393375Y-9435500D02*
G75*
G02*
X15363375Y-9435500I-15000J0D01*
G01*
X15363375Y-9435500D02*
G75*
G02*
X15393375Y-9435500I15000J0D01*
G01*
X15393375Y-9512500D02*
G75*
G02*
X15363375Y-9512500I-15000J0D01*
G01*
X15363375Y-9512500D02*
G75*
G02*
X15393375Y-9512500I15000J0D01*
G01*
X15397375Y-9357500D02*
G75*
G02*
X15367375Y-9357500I-15000J0D01*
G01*
X15367375Y-9357500D02*
G75*
G02*
X15397375Y-9357500I15000J0D01*
G01*
X15434000Y-11883000D02*
G75*
G02*
X15404000Y-11883000I-15000J0D01*
G01*
X15404000Y-11883000D02*
G75*
G02*
X15434000Y-11883000I15000J0D01*
G01*
X15438375Y-9067500D02*
G75*
G02*
X15408375Y-9067500I-15000J0D01*
G01*
X15408375Y-9067500D02*
G75*
G02*
X15438375Y-9067500I15000J0D01*
G01*
X15440000Y-12825000D02*
G75*
G02*
X15410000Y-12825000I-15000J0D01*
G01*
X15410000Y-12825000D02*
G75*
G02*
X15440000Y-12825000I15000J0D01*
G01*
X15465000Y-8475000D02*
G75*
G02*
X15435000Y-8475000I-15000J0D01*
G01*
X15435000Y-8475000D02*
G75*
G02*
X15465000Y-8475000I15000J0D01*
G01*
X15465375Y-9598500D02*
G75*
G02*
X15435375Y-9598500I-15000J0D01*
G01*
X15435375Y-9598500D02*
G75*
G02*
X15465375Y-9598500I15000J0D01*
G01*
X15479375Y-9348500D02*
G75*
G02*
X15449375Y-9348500I-15000J0D01*
G01*
X15449375Y-9348500D02*
G75*
G02*
X15479375Y-9348500I15000J0D01*
G01*
X15496000Y-8691000D02*
G75*
G02*
X15466000Y-8691000I-15000J0D01*
G01*
X15466000Y-8691000D02*
G75*
G02*
X15496000Y-8691000I15000J0D01*
G01*
X15501000Y-10806000D02*
G75*
G02*
X15471000Y-10806000I-15000J0D01*
G01*
X15471000Y-10806000D02*
G75*
G02*
X15501000Y-10806000I15000J0D01*
G01*
X15515375Y-9077500D02*
G75*
G02*
X15485375Y-9077500I-15000J0D01*
G01*
X15485375Y-9077500D02*
G75*
G02*
X15515375Y-9077500I15000J0D01*
G01*
X15540000Y-12825000D02*
G75*
G02*
X15510000Y-12825000I-15000J0D01*
G01*
X15510000Y-12825000D02*
G75*
G02*
X15540000Y-12825000I15000J0D01*
G01*
X15543375Y-9585500D02*
G75*
G02*
X15513375Y-9585500I-15000J0D01*
G01*
X15513375Y-9585500D02*
G75*
G02*
X15543375Y-9585500I15000J0D01*
G01*
X15557375Y-9931500D02*
G75*
G02*
X15527375Y-9931500I-15000J0D01*
G01*
X15527375Y-9931500D02*
G75*
G02*
X15557375Y-9931500I15000J0D01*
G01*
X15560327Y-9853033D02*
G75*
G02*
X15530327Y-9853033I-15000J0D01*
G01*
X15530327Y-9853033D02*
G75*
G02*
X15560327Y-9853033I15000J0D01*
G01*
X15561375Y-9296500D02*
G75*
G02*
X15531375Y-9296500I-15000J0D01*
G01*
X15531375Y-9296500D02*
G75*
G02*
X15561375Y-9296500I15000J0D01*
G01*
X15565000Y-8475000D02*
G75*
G02*
X15535000Y-8475000I-15000J0D01*
G01*
X15535000Y-8475000D02*
G75*
G02*
X15565000Y-8475000I15000J0D01*
G01*
X15567000Y-9471000D02*
G75*
G02*
X15537000Y-9471000I-15000J0D01*
G01*
X15537000Y-9471000D02*
G75*
G02*
X15567000Y-9471000I15000J0D01*
G01*
X15577375Y-9133500D02*
G75*
G02*
X15547375Y-9133500I-15000J0D01*
G01*
X15547375Y-9133500D02*
G75*
G02*
X15577375Y-9133500I15000J0D01*
G01*
X15588375Y-9223500D02*
G75*
G02*
X15558375Y-9223500I-15000J0D01*
G01*
X15558375Y-9223500D02*
G75*
G02*
X15588375Y-9223500I15000J0D01*
G01*
X15603000Y-8924000D02*
G75*
G02*
X15573000Y-8924000I-15000J0D01*
G01*
X15573000Y-8924000D02*
G75*
G02*
X15603000Y-8924000I15000J0D01*
G01*
X15615000Y-10563000D02*
G75*
G02*
X15585000Y-10563000I-15000J0D01*
G01*
X15585000Y-10563000D02*
G75*
G02*
X15615000Y-10563000I15000J0D01*
G01*
X15620000Y-12498000D02*
G75*
G02*
X15590000Y-12498000I-15000J0D01*
G01*
X15590000Y-12498000D02*
G75*
G02*
X15620000Y-12498000I15000J0D01*
G01*
X15630375Y-9578500D02*
G75*
G02*
X15600375Y-9578500I-15000J0D01*
G01*
X15600375Y-9578500D02*
G75*
G02*
X15630375Y-9578500I15000J0D01*
G01*
X15640000Y-12825000D02*
G75*
G02*
X15610000Y-12825000I-15000J0D01*
G01*
X15610000Y-12825000D02*
G75*
G02*
X15640000Y-12825000I15000J0D01*
G01*
X15641375Y-9945500D02*
G75*
G02*
X15611375Y-9945500I-15000J0D01*
G01*
X15611375Y-9945500D02*
G75*
G02*
X15641375Y-9945500I15000J0D01*
G01*
X15643375Y-9846500D02*
G75*
G02*
X15613375Y-9846500I-15000J0D01*
G01*
X15613375Y-9846500D02*
G75*
G02*
X15643375Y-9846500I15000J0D01*
G01*
X15665000Y-8475000D02*
G75*
G02*
X15635000Y-8475000I-15000J0D01*
G01*
X15635000Y-8475000D02*
G75*
G02*
X15665000Y-8475000I15000J0D01*
G01*
X15697000Y-9255000D02*
G75*
G02*
X15667000Y-9255000I-15000J0D01*
G01*
X15667000Y-9255000D02*
G75*
G02*
X15697000Y-9255000I15000J0D01*
G01*
X15713375Y-9594500D02*
G75*
G02*
X15683375Y-9594500I-15000J0D01*
G01*
X15683375Y-9594500D02*
G75*
G02*
X15713375Y-9594500I15000J0D01*
G01*
X15723375Y-9824500D02*
G75*
G02*
X15693375Y-9824500I-15000J0D01*
G01*
X15693375Y-9824500D02*
G75*
G02*
X15723375Y-9824500I15000J0D01*
G01*
X15725375Y-10201500D02*
G75*
G02*
X15695375Y-10201500I-15000J0D01*
G01*
X15695375Y-10201500D02*
G75*
G02*
X15725375Y-10201500I15000J0D01*
G01*
X15728375Y-9929500D02*
G75*
G02*
X15698375Y-9929500I-15000J0D01*
G01*
X15698375Y-9929500D02*
G75*
G02*
X15728375Y-9929500I15000J0D01*
G01*
X15730000Y-10283000D02*
G75*
G02*
X15700000Y-10283000I-15000J0D01*
G01*
X15700000Y-10283000D02*
G75*
G02*
X15730000Y-10283000I15000J0D01*
G01*
X15740000Y-12825000D02*
G75*
G02*
X15710000Y-12825000I-15000J0D01*
G01*
X15710000Y-12825000D02*
G75*
G02*
X15740000Y-12825000I15000J0D01*
G01*
X15756375Y-9664500D02*
G75*
G02*
X15726375Y-9664500I-15000J0D01*
G01*
X15726375Y-9664500D02*
G75*
G02*
X15756375Y-9664500I15000J0D01*
G01*
X15763375Y-9749500D02*
G75*
G02*
X15733375Y-9749500I-15000J0D01*
G01*
X15733375Y-9749500D02*
G75*
G02*
X15763375Y-9749500I15000J0D01*
G01*
X15765000Y-8475000D02*
G75*
G02*
X15735000Y-8475000I-15000J0D01*
G01*
X15735000Y-8475000D02*
G75*
G02*
X15765000Y-8475000I15000J0D01*
G01*
X15805000Y-10242000D02*
G75*
G02*
X15775000Y-10242000I-15000J0D01*
G01*
X15775000Y-10242000D02*
G75*
G02*
X15805000Y-10242000I15000J0D01*
G01*
X15840000Y-12825000D02*
G75*
G02*
X15810000Y-12825000I-15000J0D01*
G01*
X15810000Y-12825000D02*
G75*
G02*
X15840000Y-12825000I15000J0D01*
G01*
X15847000Y-9535000D02*
G75*
G02*
X15817000Y-9535000I-15000J0D01*
G01*
X15817000Y-9535000D02*
G75*
G02*
X15847000Y-9535000I15000J0D01*
G01*
X15850000Y-10173000D02*
G75*
G02*
X15820000Y-10173000I-15000J0D01*
G01*
X15820000Y-10173000D02*
G75*
G02*
X15850000Y-10173000I15000J0D01*
G01*
X15865000Y-8475000D02*
G75*
G02*
X15835000Y-8475000I-15000J0D01*
G01*
X15835000Y-8475000D02*
G75*
G02*
X15865000Y-8475000I15000J0D01*
G01*
X15879000Y-11879000D02*
G75*
G02*
X15849000Y-11879000I-15000J0D01*
G01*
X15849000Y-11879000D02*
G75*
G02*
X15879000Y-11879000I15000J0D01*
G01*
X15882000Y-9607000D02*
G75*
G02*
X15852000Y-9607000I-15000J0D01*
G01*
X15852000Y-9607000D02*
G75*
G02*
X15882000Y-9607000I15000J0D01*
G01*
X15884000Y-9696000D02*
G75*
G02*
X15854000Y-9696000I-15000J0D01*
G01*
X15854000Y-9696000D02*
G75*
G02*
X15884000Y-9696000I15000J0D01*
G01*
X15888000Y-9785000D02*
G75*
G02*
X15858000Y-9785000I-15000J0D01*
G01*
X15858000Y-9785000D02*
G75*
G02*
X15888000Y-9785000I15000J0D01*
G01*
X15890000Y-9868000D02*
G75*
G02*
X15860000Y-9868000I-15000J0D01*
G01*
X15860000Y-9868000D02*
G75*
G02*
X15890000Y-9868000I15000J0D01*
G01*
X15890000Y-10028000D02*
G75*
G02*
X15860000Y-10028000I-15000J0D01*
G01*
X15860000Y-10028000D02*
G75*
G02*
X15890000Y-10028000I15000J0D01*
G01*
X15895000Y-9953000D02*
G75*
G02*
X15865000Y-9953000I-15000J0D01*
G01*
X15865000Y-9953000D02*
G75*
G02*
X15895000Y-9953000I15000J0D01*
G01*
X15895000Y-10112000D02*
G75*
G02*
X15865000Y-10112000I-15000J0D01*
G01*
X15865000Y-10112000D02*
G75*
G02*
X15895000Y-10112000I15000J0D01*
G01*
X15895000Y-10567000D02*
G75*
G02*
X15865000Y-10567000I-15000J0D01*
G01*
X15865000Y-10567000D02*
G75*
G02*
X15895000Y-10567000I15000J0D01*
G01*
X15927000Y-11970000D02*
G75*
G02*
X15897000Y-11970000I-15000J0D01*
G01*
X15897000Y-11970000D02*
G75*
G02*
X15927000Y-11970000I15000J0D01*
G01*
X15939000Y-11535000D02*
G75*
G02*
X15909000Y-11535000I-15000J0D01*
G01*
X15909000Y-11535000D02*
G75*
G02*
X15939000Y-11535000I15000J0D01*
G01*
X15940000Y-12825000D02*
G75*
G02*
X15910000Y-12825000I-15000J0D01*
G01*
X15910000Y-12825000D02*
G75*
G02*
X15940000Y-12825000I15000J0D01*
G01*
X15958000Y-11429000D02*
G75*
G02*
X15928000Y-11429000I-15000J0D01*
G01*
X15928000Y-11429000D02*
G75*
G02*
X15958000Y-11429000I15000J0D01*
G01*
X15965000Y-8475000D02*
G75*
G02*
X15935000Y-8475000I-15000J0D01*
G01*
X15935000Y-8475000D02*
G75*
G02*
X15965000Y-8475000I15000J0D01*
G01*
X16007000Y-10896000D02*
G75*
G02*
X15977000Y-10896000I-15000J0D01*
G01*
X15977000Y-10896000D02*
G75*
G02*
X16007000Y-10896000I15000J0D01*
G01*
X16026000Y-10261000D02*
G75*
G02*
X15996000Y-10261000I-15000J0D01*
G01*
X15996000Y-10261000D02*
G75*
G02*
X16026000Y-10261000I15000J0D01*
G01*
X16034000Y-9418000D02*
G75*
G02*
X16004000Y-9418000I-15000J0D01*
G01*
X16004000Y-9418000D02*
G75*
G02*
X16034000Y-9418000I15000J0D01*
G01*
X16045000Y-9605000D02*
G75*
G02*
X16015000Y-9605000I-15000J0D01*
G01*
X16015000Y-9605000D02*
G75*
G02*
X16045000Y-9605000I15000J0D01*
G01*
X16045000Y-9895000D02*
G75*
G02*
X16015000Y-9895000I-15000J0D01*
G01*
X16015000Y-9895000D02*
G75*
G02*
X16045000Y-9895000I15000J0D01*
G01*
X16046000Y-9518000D02*
G75*
G02*
X16016000Y-9518000I-15000J0D01*
G01*
X16016000Y-9518000D02*
G75*
G02*
X16046000Y-9518000I15000J0D01*
G01*
X16046000Y-9706000D02*
G75*
G02*
X16016000Y-9706000I-15000J0D01*
G01*
X16016000Y-9706000D02*
G75*
G02*
X16046000Y-9706000I15000J0D01*
G01*
X16047000Y-9804000D02*
G75*
G02*
X16017000Y-9804000I-15000J0D01*
G01*
X16017000Y-9804000D02*
G75*
G02*
X16047000Y-9804000I15000J0D01*
G01*
X16048000Y-10000000D02*
G75*
G02*
X16018000Y-10000000I-15000J0D01*
G01*
X16018000Y-10000000D02*
G75*
G02*
X16048000Y-10000000I15000J0D01*
G01*
X16048000Y-10186000D02*
G75*
G02*
X16018000Y-10186000I-15000J0D01*
G01*
X16018000Y-10186000D02*
G75*
G02*
X16048000Y-10186000I15000J0D01*
G01*
X16049000Y-10095000D02*
G75*
G02*
X16019000Y-10095000I-15000J0D01*
G01*
X16019000Y-10095000D02*
G75*
G02*
X16049000Y-10095000I15000J0D01*
G01*
X16053000Y-12816000D02*
G75*
G02*
X16023000Y-12816000I-15000J0D01*
G01*
X16023000Y-12816000D02*
G75*
G02*
X16053000Y-12816000I15000J0D01*
G01*
X16063000Y-8487000D02*
G75*
G02*
X16033000Y-8487000I-15000J0D01*
G01*
X16033000Y-8487000D02*
G75*
G02*
X16063000Y-8487000I15000J0D01*
G01*
X16115000Y-8650000D02*
G75*
G02*
X16085000Y-8650000I-15000J0D01*
G01*
X16085000Y-8650000D02*
G75*
G02*
X16115000Y-8650000I15000J0D01*
G01*
X16115000Y-8750000D02*
G75*
G02*
X16085000Y-8750000I-15000J0D01*
G01*
X16085000Y-8750000D02*
G75*
G02*
X16115000Y-8750000I15000J0D01*
G01*
X16115000Y-8850000D02*
G75*
G02*
X16085000Y-8850000I-15000J0D01*
G01*
X16085000Y-8850000D02*
G75*
G02*
X16115000Y-8850000I15000J0D01*
G01*
X16115000Y-8950000D02*
G75*
G02*
X16085000Y-8950000I-15000J0D01*
G01*
X16085000Y-8950000D02*
G75*
G02*
X16115000Y-8950000I15000J0D01*
G01*
X16115000Y-9050000D02*
G75*
G02*
X16085000Y-9050000I-15000J0D01*
G01*
X16085000Y-9050000D02*
G75*
G02*
X16115000Y-9050000I15000J0D01*
G01*
X16115000Y-9150000D02*
G75*
G02*
X16085000Y-9150000I-15000J0D01*
G01*
X16085000Y-9150000D02*
G75*
G02*
X16115000Y-9150000I15000J0D01*
G01*
X16115000Y-9250000D02*
G75*
G02*
X16085000Y-9250000I-15000J0D01*
G01*
X16085000Y-9250000D02*
G75*
G02*
X16115000Y-9250000I15000J0D01*
G01*
X16115000Y-9350000D02*
G75*
G02*
X16085000Y-9350000I-15000J0D01*
G01*
X16085000Y-9350000D02*
G75*
G02*
X16115000Y-9350000I15000J0D01*
G01*
X16115000Y-9450000D02*
G75*
G02*
X16085000Y-9450000I-15000J0D01*
G01*
X16085000Y-9450000D02*
G75*
G02*
X16115000Y-9450000I15000J0D01*
G01*
X16115000Y-9550000D02*
G75*
G02*
X16085000Y-9550000I-15000J0D01*
G01*
X16085000Y-9550000D02*
G75*
G02*
X16115000Y-9550000I15000J0D01*
G01*
X16115000Y-9650000D02*
G75*
G02*
X16085000Y-9650000I-15000J0D01*
G01*
X16085000Y-9650000D02*
G75*
G02*
X16115000Y-9650000I15000J0D01*
G01*
X16115000Y-9750000D02*
G75*
G02*
X16085000Y-9750000I-15000J0D01*
G01*
X16085000Y-9750000D02*
G75*
G02*
X16115000Y-9750000I15000J0D01*
G01*
X16115000Y-9850000D02*
G75*
G02*
X16085000Y-9850000I-15000J0D01*
G01*
X16085000Y-9850000D02*
G75*
G02*
X16115000Y-9850000I15000J0D01*
G01*
X16115000Y-9950000D02*
G75*
G02*
X16085000Y-9950000I-15000J0D01*
G01*
X16085000Y-9950000D02*
G75*
G02*
X16115000Y-9950000I15000J0D01*
G01*
X16115000Y-10050000D02*
G75*
G02*
X16085000Y-10050000I-15000J0D01*
G01*
X16085000Y-10050000D02*
G75*
G02*
X16115000Y-10050000I15000J0D01*
G01*
X16115000Y-10150000D02*
G75*
G02*
X16085000Y-10150000I-15000J0D01*
G01*
X16085000Y-10150000D02*
G75*
G02*
X16115000Y-10150000I15000J0D01*
G01*
X16115000Y-10250000D02*
G75*
G02*
X16085000Y-10250000I-15000J0D01*
G01*
X16085000Y-10250000D02*
G75*
G02*
X16115000Y-10250000I15000J0D01*
G01*
X16115000Y-10350000D02*
G75*
G02*
X16085000Y-10350000I-15000J0D01*
G01*
X16085000Y-10350000D02*
G75*
G02*
X16115000Y-10350000I15000J0D01*
G01*
X16115000Y-10450000D02*
G75*
G02*
X16085000Y-10450000I-15000J0D01*
G01*
X16085000Y-10450000D02*
G75*
G02*
X16115000Y-10450000I15000J0D01*
G01*
X16115000Y-10550000D02*
G75*
G02*
X16085000Y-10550000I-15000J0D01*
G01*
X16085000Y-10550000D02*
G75*
G02*
X16115000Y-10550000I15000J0D01*
G01*
X16115000Y-10650000D02*
G75*
G02*
X16085000Y-10650000I-15000J0D01*
G01*
X16085000Y-10650000D02*
G75*
G02*
X16115000Y-10650000I15000J0D01*
G01*
X16115000Y-10750000D02*
G75*
G02*
X16085000Y-10750000I-15000J0D01*
G01*
X16085000Y-10750000D02*
G75*
G02*
X16115000Y-10750000I15000J0D01*
G01*
X16115000Y-10850000D02*
G75*
G02*
X16085000Y-10850000I-15000J0D01*
G01*
X16085000Y-10850000D02*
G75*
G02*
X16115000Y-10850000I15000J0D01*
G01*
X16115000Y-10950000D02*
G75*
G02*
X16085000Y-10950000I-15000J0D01*
G01*
X16085000Y-10950000D02*
G75*
G02*
X16115000Y-10950000I15000J0D01*
G01*
X16115000Y-11050000D02*
G75*
G02*
X16085000Y-11050000I-15000J0D01*
G01*
X16085000Y-11050000D02*
G75*
G02*
X16115000Y-11050000I15000J0D01*
G01*
X16115000Y-11150000D02*
G75*
G02*
X16085000Y-11150000I-15000J0D01*
G01*
X16085000Y-11150000D02*
G75*
G02*
X16115000Y-11150000I15000J0D01*
G01*
X16115000Y-11250000D02*
G75*
G02*
X16085000Y-11250000I-15000J0D01*
G01*
X16085000Y-11250000D02*
G75*
G02*
X16115000Y-11250000I15000J0D01*
G01*
X16115000Y-11350000D02*
G75*
G02*
X16085000Y-11350000I-15000J0D01*
G01*
X16085000Y-11350000D02*
G75*
G02*
X16115000Y-11350000I15000J0D01*
G01*
X16115000Y-11450000D02*
G75*
G02*
X16085000Y-11450000I-15000J0D01*
G01*
X16085000Y-11450000D02*
G75*
G02*
X16115000Y-11450000I15000J0D01*
G01*
X16115000Y-11550000D02*
G75*
G02*
X16085000Y-11550000I-15000J0D01*
G01*
X16085000Y-11550000D02*
G75*
G02*
X16115000Y-11550000I15000J0D01*
G01*
X16115000Y-11650000D02*
G75*
G02*
X16085000Y-11650000I-15000J0D01*
G01*
X16085000Y-11650000D02*
G75*
G02*
X16115000Y-11650000I15000J0D01*
G01*
X16115000Y-11750000D02*
G75*
G02*
X16085000Y-11750000I-15000J0D01*
G01*
X16085000Y-11750000D02*
G75*
G02*
X16115000Y-11750000I15000J0D01*
G01*
X16115000Y-11850000D02*
G75*
G02*
X16085000Y-11850000I-15000J0D01*
G01*
X16085000Y-11850000D02*
G75*
G02*
X16115000Y-11850000I15000J0D01*
G01*
X16115000Y-11950000D02*
G75*
G02*
X16085000Y-11950000I-15000J0D01*
G01*
X16085000Y-11950000D02*
G75*
G02*
X16115000Y-11950000I15000J0D01*
G01*
X16115000Y-12050000D02*
G75*
G02*
X16085000Y-12050000I-15000J0D01*
G01*
X16085000Y-12050000D02*
G75*
G02*
X16115000Y-12050000I15000J0D01*
G01*
X16115000Y-12150000D02*
G75*
G02*
X16085000Y-12150000I-15000J0D01*
G01*
X16085000Y-12150000D02*
G75*
G02*
X16115000Y-12150000I15000J0D01*
G01*
X16115000Y-12250000D02*
G75*
G02*
X16085000Y-12250000I-15000J0D01*
G01*
X16085000Y-12250000D02*
G75*
G02*
X16115000Y-12250000I15000J0D01*
G01*
X16115000Y-12350000D02*
G75*
G02*
X16085000Y-12350000I-15000J0D01*
G01*
X16085000Y-12350000D02*
G75*
G02*
X16115000Y-12350000I15000J0D01*
G01*
X16115000Y-12450000D02*
G75*
G02*
X16085000Y-12450000I-15000J0D01*
G01*
X16085000Y-12450000D02*
G75*
G02*
X16115000Y-12450000I15000J0D01*
G01*
X16115000Y-12550000D02*
G75*
G02*
X16085000Y-12550000I-15000J0D01*
G01*
X16085000Y-12550000D02*
G75*
G02*
X16115000Y-12550000I15000J0D01*
G01*
X16115000Y-12650000D02*
G75*
G02*
X16085000Y-12650000I-15000J0D01*
G01*
X16085000Y-12650000D02*
G75*
G02*
X16115000Y-12650000I15000J0D01*
G01*
X16117000Y-12744000D02*
G75*
G02*
X16087000Y-12744000I-15000J0D01*
G01*
X16087000Y-12744000D02*
G75*
G02*
X16117000Y-12744000I15000J0D01*
G01*
X16118000Y-8556000D02*
G75*
G02*
X16088000Y-8556000I-15000J0D01*
G01*
X16088000Y-8556000D02*
G75*
G02*
X16118000Y-8556000I15000J0D01*
G01*
X14609000Y-11228500D02*
X14609000Y-11293500D01*
X14576500Y-11261000D02*
X14641500Y-11261000D01*
X14609000Y-11355500D02*
X14609000Y-11420500D01*
X14576500Y-11388000D02*
X14641500Y-11388000D01*
X14609000Y-11482500D02*
X14609000Y-11547500D01*
X14576500Y-11515000D02*
X14641500Y-11515000D01*
X14609000Y-11609500D02*
X14609000Y-11674500D01*
X14576500Y-11642000D02*
X14641500Y-11642000D01*
X14609000Y-11736500D02*
X14609000Y-11801500D01*
X14576500Y-11769000D02*
X14641500Y-11769000D01*
X14736000Y-11228500D02*
X14736000Y-11293500D01*
X14703500Y-11261000D02*
X14768500Y-11261000D01*
X14736000Y-11355500D02*
X14736000Y-11420500D01*
X14703500Y-11388000D02*
X14768500Y-11388000D01*
X14736000Y-11482500D02*
X14736000Y-11547500D01*
X14703500Y-11515000D02*
X14768500Y-11515000D01*
X14736000Y-11609500D02*
X14736000Y-11674500D01*
X14703500Y-11642000D02*
X14768500Y-11642000D01*
X14736000Y-11736500D02*
X14736000Y-11801500D01*
X14703500Y-11769000D02*
X14768500Y-11769000D01*
X15895295Y-9144295D02*
X15895295Y-9075705D01*
X15826705Y-9075705D01*
X15826705Y-9144295D01*
X15895295Y-9144295D01*
X15895295Y-9398295D02*
X15895295Y-9329705D01*
X15826705Y-9329705D01*
X15826705Y-9398295D01*
X15895295Y-9398295D01*
X12212000Y-11898500D02*
X12262000Y-11848500D01*
X12212000Y-11798500D01*
X12162000Y-11848500D01*
X12212000Y-11898500D01*
X12212000Y-12152500D02*
X12262000Y-12102500D01*
X12212000Y-12052500D01*
X12162000Y-12102500D01*
X12212000Y-12152500D01*
X12827000Y-12590000D02*
X12877000Y-12540000D01*
X12827000Y-12490000D01*
X12777000Y-12540000D01*
X12827000Y-12590000D01*
X13327000Y-12590000D02*
X13377000Y-12540000D01*
X13327000Y-12490000D01*
X13277000Y-12540000D01*
X13327000Y-12590000D01*
X13823000Y-12422000D02*
X13873000Y-12372000D01*
X13823000Y-12322000D01*
X13773000Y-12372000D01*
X13823000Y-12422000D01*
X13823000Y-12676000D02*
X13873000Y-12626000D01*
X13823000Y-12576000D01*
X13773000Y-12626000D01*
X13823000Y-12676000D01*
D11*
X12134777Y-13217484D02*
X12134777Y-13017484D01*
X12134777Y-13017484D02*
X12182396Y-13017484D01*
X12182396Y-13017484D02*
X12210967Y-13027008D01*
X12210967Y-13027008D02*
X12230015Y-13046055D01*
X12230015Y-13046055D02*
X12239539Y-13065103D01*
X12239539Y-13065103D02*
X12249062Y-13103198D01*
X12249062Y-13103198D02*
X12249062Y-13131769D01*
X12249062Y-13131769D02*
X12239539Y-13169865D01*
X12239539Y-13169865D02*
X12230015Y-13188912D01*
X12230015Y-13188912D02*
X12210967Y-13207960D01*
X12210967Y-13207960D02*
X12182396Y-13217484D01*
X12182396Y-13217484D02*
X12134777Y-13217484D01*
X12334777Y-13217484D02*
X12334777Y-13084150D01*
X12334777Y-13122246D02*
X12344301Y-13103198D01*
X12344301Y-13103198D02*
X12353824Y-13093674D01*
X12353824Y-13093674D02*
X12372872Y-13084150D01*
X12372872Y-13084150D02*
X12391920Y-13084150D01*
X12458586Y-13217484D02*
X12458586Y-13084150D01*
X12458586Y-13017484D02*
X12449062Y-13027008D01*
X12449062Y-13027008D02*
X12458586Y-13036531D01*
X12458586Y-13036531D02*
X12468110Y-13027008D01*
X12468110Y-13027008D02*
X12458586Y-13017484D01*
X12458586Y-13017484D02*
X12458586Y-13036531D01*
X12582396Y-13217484D02*
X12563348Y-13207960D01*
X12563348Y-13207960D02*
X12553824Y-13188912D01*
X12553824Y-13188912D02*
X12553824Y-13017484D01*
X12687158Y-13217484D02*
X12668110Y-13207960D01*
X12668110Y-13207960D02*
X12658586Y-13188912D01*
X12658586Y-13188912D02*
X12658586Y-13017484D01*
X12915729Y-13217484D02*
X12915729Y-13017484D01*
X12915729Y-13017484D02*
X12982396Y-13160341D01*
X12982396Y-13160341D02*
X13049062Y-13017484D01*
X13049062Y-13017484D02*
X13049062Y-13217484D01*
X13230015Y-13217484D02*
X13230015Y-13112722D01*
X13230015Y-13112722D02*
X13220491Y-13093674D01*
X13220491Y-13093674D02*
X13201443Y-13084150D01*
X13201443Y-13084150D02*
X13163348Y-13084150D01*
X13163348Y-13084150D02*
X13144301Y-13093674D01*
X13230015Y-13207960D02*
X13210967Y-13217484D01*
X13210967Y-13217484D02*
X13163348Y-13217484D01*
X13163348Y-13217484D02*
X13144301Y-13207960D01*
X13144301Y-13207960D02*
X13134777Y-13188912D01*
X13134777Y-13188912D02*
X13134777Y-13169865D01*
X13134777Y-13169865D02*
X13144301Y-13150817D01*
X13144301Y-13150817D02*
X13163348Y-13141293D01*
X13163348Y-13141293D02*
X13210967Y-13141293D01*
X13210967Y-13141293D02*
X13230015Y-13131769D01*
X13325253Y-13084150D02*
X13325253Y-13284150D01*
X13325253Y-13093674D02*
X13344301Y-13084150D01*
X13344301Y-13084150D02*
X13382396Y-13084150D01*
X13382396Y-13084150D02*
X13401443Y-13093674D01*
X13401443Y-13093674D02*
X13410967Y-13103198D01*
X13410967Y-13103198D02*
X13420491Y-13122246D01*
X13420491Y-13122246D02*
X13420491Y-13179388D01*
X13420491Y-13179388D02*
X13410967Y-13198436D01*
X13410967Y-13198436D02*
X13401443Y-13207960D01*
X13401443Y-13207960D02*
X13382396Y-13217484D01*
X13382396Y-13217484D02*
X13344301Y-13217484D01*
X13344301Y-13217484D02*
X13325253Y-13207960D01*
X13506205Y-13198436D02*
X13515729Y-13207960D01*
X13515729Y-13207960D02*
X13506205Y-13217484D01*
X13506205Y-13217484D02*
X13496682Y-13207960D01*
X13496682Y-13207960D02*
X13506205Y-13198436D01*
X13506205Y-13198436D02*
X13506205Y-13217484D01*
X13506205Y-13093674D02*
X13515729Y-13103198D01*
X13515729Y-13103198D02*
X13506205Y-13112722D01*
X13506205Y-13112722D02*
X13496682Y-13103198D01*
X13496682Y-13103198D02*
X13506205Y-13093674D01*
X13506205Y-13093674D02*
X13506205Y-13112722D01*
D10*
X11854000Y-13536000D02*
X11874000Y-13556000D01*
X11874000Y-13536000D02*
X11854000Y-13556000D01*
D11*
X12172872Y-13437484D02*
X12191920Y-13437484D01*
X12191920Y-13437484D02*
X12210967Y-13447008D01*
X12210967Y-13447008D02*
X12220491Y-13456531D01*
X12220491Y-13456531D02*
X12230015Y-13475579D01*
X12230015Y-13475579D02*
X12239539Y-13513674D01*
X12239539Y-13513674D02*
X12239539Y-13561293D01*
X12239539Y-13561293D02*
X12230015Y-13599388D01*
X12230015Y-13599388D02*
X12220491Y-13618436D01*
X12220491Y-13618436D02*
X12210967Y-13627960D01*
X12210967Y-13627960D02*
X12191920Y-13637484D01*
X12191920Y-13637484D02*
X12172872Y-13637484D01*
X12172872Y-13637484D02*
X12153824Y-13627960D01*
X12153824Y-13627960D02*
X12144301Y-13618436D01*
X12144301Y-13618436D02*
X12134777Y-13599388D01*
X12134777Y-13599388D02*
X12125253Y-13561293D01*
X12125253Y-13561293D02*
X12125253Y-13513674D01*
X12125253Y-13513674D02*
X12134777Y-13475579D01*
X12134777Y-13475579D02*
X12144301Y-13456531D01*
X12144301Y-13456531D02*
X12153824Y-13447008D01*
X12153824Y-13447008D02*
X12172872Y-13437484D01*
X12325253Y-13618436D02*
X12334777Y-13627960D01*
X12334777Y-13627960D02*
X12325253Y-13637484D01*
X12325253Y-13637484D02*
X12315729Y-13627960D01*
X12315729Y-13627960D02*
X12325253Y-13618436D01*
X12325253Y-13618436D02*
X12325253Y-13637484D01*
X12410967Y-13456531D02*
X12420491Y-13447008D01*
X12420491Y-13447008D02*
X12439539Y-13437484D01*
X12439539Y-13437484D02*
X12487158Y-13437484D01*
X12487158Y-13437484D02*
X12506205Y-13447008D01*
X12506205Y-13447008D02*
X12515729Y-13456531D01*
X12515729Y-13456531D02*
X12525253Y-13475579D01*
X12525253Y-13475579D02*
X12525253Y-13494627D01*
X12525253Y-13494627D02*
X12515729Y-13523198D01*
X12515729Y-13523198D02*
X12401443Y-13637484D01*
X12401443Y-13637484D02*
X12525253Y-13637484D01*
X12649062Y-13437484D02*
X12668110Y-13437484D01*
X12668110Y-13437484D02*
X12687158Y-13447008D01*
X12687158Y-13447008D02*
X12696682Y-13456531D01*
X12696682Y-13456531D02*
X12706205Y-13475579D01*
X12706205Y-13475579D02*
X12715729Y-13513674D01*
X12715729Y-13513674D02*
X12715729Y-13561293D01*
X12715729Y-13561293D02*
X12706205Y-13599388D01*
X12706205Y-13599388D02*
X12696682Y-13618436D01*
X12696682Y-13618436D02*
X12687158Y-13627960D01*
X12687158Y-13627960D02*
X12668110Y-13637484D01*
X12668110Y-13637484D02*
X12649062Y-13637484D01*
X12649062Y-13637484D02*
X12630015Y-13627960D01*
X12630015Y-13627960D02*
X12620491Y-13618436D01*
X12620491Y-13618436D02*
X12610967Y-13599388D01*
X12610967Y-13599388D02*
X12601443Y-13561293D01*
X12601443Y-13561293D02*
X12601443Y-13513674D01*
X12601443Y-13513674D02*
X12610967Y-13475579D01*
X12610967Y-13475579D02*
X12620491Y-13456531D01*
X12620491Y-13456531D02*
X12630015Y-13447008D01*
X12630015Y-13447008D02*
X12649062Y-13437484D01*
X12839539Y-13437484D02*
X12858586Y-13437484D01*
X12858586Y-13437484D02*
X12877634Y-13447008D01*
X12877634Y-13447008D02*
X12887158Y-13456531D01*
X12887158Y-13456531D02*
X12896682Y-13475579D01*
X12896682Y-13475579D02*
X12906205Y-13513674D01*
X12906205Y-13513674D02*
X12906205Y-13561293D01*
X12906205Y-13561293D02*
X12896682Y-13599388D01*
X12896682Y-13599388D02*
X12887158Y-13618436D01*
X12887158Y-13618436D02*
X12877634Y-13627960D01*
X12877634Y-13627960D02*
X12858586Y-13637484D01*
X12858586Y-13637484D02*
X12839539Y-13637484D01*
X12839539Y-13637484D02*
X12820491Y-13627960D01*
X12820491Y-13627960D02*
X12810967Y-13618436D01*
X12810967Y-13618436D02*
X12801443Y-13599388D01*
X12801443Y-13599388D02*
X12791920Y-13561293D01*
X12791920Y-13561293D02*
X12791920Y-13513674D01*
X12791920Y-13513674D02*
X12801443Y-13475579D01*
X12801443Y-13475579D02*
X12810967Y-13456531D01*
X12810967Y-13456531D02*
X12820491Y-13447008D01*
X12820491Y-13447008D02*
X12839539Y-13437484D01*
X12991920Y-13637484D02*
X12991920Y-13504150D01*
X12991920Y-13523198D02*
X13001443Y-13513674D01*
X13001443Y-13513674D02*
X13020491Y-13504150D01*
X13020491Y-13504150D02*
X13049063Y-13504150D01*
X13049063Y-13504150D02*
X13068110Y-13513674D01*
X13068110Y-13513674D02*
X13077634Y-13532722D01*
X13077634Y-13532722D02*
X13077634Y-13637484D01*
X13077634Y-13532722D02*
X13087158Y-13513674D01*
X13087158Y-13513674D02*
X13106205Y-13504150D01*
X13106205Y-13504150D02*
X13134777Y-13504150D01*
X13134777Y-13504150D02*
X13153824Y-13513674D01*
X13153824Y-13513674D02*
X13163348Y-13532722D01*
X13163348Y-13532722D02*
X13163348Y-13637484D01*
X13258586Y-13637484D02*
X13258586Y-13504150D01*
X13258586Y-13523198D02*
X13268110Y-13513674D01*
X13268110Y-13513674D02*
X13287158Y-13504150D01*
X13287158Y-13504150D02*
X13315729Y-13504150D01*
X13315729Y-13504150D02*
X13334777Y-13513674D01*
X13334777Y-13513674D02*
X13344301Y-13532722D01*
X13344301Y-13532722D02*
X13344301Y-13637484D01*
X13344301Y-13532722D02*
X13353824Y-13513674D01*
X13353824Y-13513674D02*
X13372872Y-13504150D01*
X13372872Y-13504150D02*
X13401443Y-13504150D01*
X13401443Y-13504150D02*
X13420491Y-13513674D01*
X13420491Y-13513674D02*
X13430015Y-13532722D01*
X13430015Y-13532722D02*
X13430015Y-13637484D01*
X13820491Y-13427960D02*
X13649063Y-13685103D01*
X14077634Y-13437484D02*
X14096682Y-13437484D01*
X14096682Y-13437484D02*
X14115729Y-13447008D01*
X14115729Y-13447008D02*
X14125253Y-13456531D01*
X14125253Y-13456531D02*
X14134777Y-13475579D01*
X14134777Y-13475579D02*
X14144301Y-13513674D01*
X14144301Y-13513674D02*
X14144301Y-13561293D01*
X14144301Y-13561293D02*
X14134777Y-13599388D01*
X14134777Y-13599388D02*
X14125253Y-13618436D01*
X14125253Y-13618436D02*
X14115729Y-13627960D01*
X14115729Y-13627960D02*
X14096682Y-13637484D01*
X14096682Y-13637484D02*
X14077634Y-13637484D01*
X14077634Y-13637484D02*
X14058586Y-13627960D01*
X14058586Y-13627960D02*
X14049063Y-13618436D01*
X14049063Y-13618436D02*
X14039539Y-13599388D01*
X14039539Y-13599388D02*
X14030015Y-13561293D01*
X14030015Y-13561293D02*
X14030015Y-13513674D01*
X14030015Y-13513674D02*
X14039539Y-13475579D01*
X14039539Y-13475579D02*
X14049063Y-13456531D01*
X14049063Y-13456531D02*
X14058586Y-13447008D01*
X14058586Y-13447008D02*
X14077634Y-13437484D01*
X14230015Y-13618436D02*
X14239539Y-13627960D01*
X14239539Y-13627960D02*
X14230015Y-13637484D01*
X14230015Y-13637484D02*
X14220491Y-13627960D01*
X14220491Y-13627960D02*
X14230015Y-13618436D01*
X14230015Y-13618436D02*
X14230015Y-13637484D01*
X14363348Y-13437484D02*
X14382396Y-13437484D01*
X14382396Y-13437484D02*
X14401444Y-13447008D01*
X14401444Y-13447008D02*
X14410967Y-13456531D01*
X14410967Y-13456531D02*
X14420491Y-13475579D01*
X14420491Y-13475579D02*
X14430015Y-13513674D01*
X14430015Y-13513674D02*
X14430015Y-13561293D01*
X14430015Y-13561293D02*
X14420491Y-13599388D01*
X14420491Y-13599388D02*
X14410967Y-13618436D01*
X14410967Y-13618436D02*
X14401444Y-13627960D01*
X14401444Y-13627960D02*
X14382396Y-13637484D01*
X14382396Y-13637484D02*
X14363348Y-13637484D01*
X14363348Y-13637484D02*
X14344301Y-13627960D01*
X14344301Y-13627960D02*
X14334777Y-13618436D01*
X14334777Y-13618436D02*
X14325253Y-13599388D01*
X14325253Y-13599388D02*
X14315729Y-13561293D01*
X14315729Y-13561293D02*
X14315729Y-13513674D01*
X14315729Y-13513674D02*
X14325253Y-13475579D01*
X14325253Y-13475579D02*
X14334777Y-13456531D01*
X14334777Y-13456531D02*
X14344301Y-13447008D01*
X14344301Y-13447008D02*
X14363348Y-13437484D01*
X14553825Y-13437484D02*
X14572872Y-13437484D01*
X14572872Y-13437484D02*
X14591920Y-13447008D01*
X14591920Y-13447008D02*
X14601444Y-13456531D01*
X14601444Y-13456531D02*
X14610967Y-13475579D01*
X14610967Y-13475579D02*
X14620491Y-13513674D01*
X14620491Y-13513674D02*
X14620491Y-13561293D01*
X14620491Y-13561293D02*
X14610967Y-13599388D01*
X14610967Y-13599388D02*
X14601444Y-13618436D01*
X14601444Y-13618436D02*
X14591920Y-13627960D01*
X14591920Y-13627960D02*
X14572872Y-13637484D01*
X14572872Y-13637484D02*
X14553825Y-13637484D01*
X14553825Y-13637484D02*
X14534777Y-13627960D01*
X14534777Y-13627960D02*
X14525253Y-13618436D01*
X14525253Y-13618436D02*
X14515729Y-13599388D01*
X14515729Y-13599388D02*
X14506206Y-13561293D01*
X14506206Y-13561293D02*
X14506206Y-13513674D01*
X14506206Y-13513674D02*
X14515729Y-13475579D01*
X14515729Y-13475579D02*
X14525253Y-13456531D01*
X14525253Y-13456531D02*
X14534777Y-13447008D01*
X14534777Y-13447008D02*
X14553825Y-13437484D01*
X14687158Y-13437484D02*
X14820491Y-13437484D01*
X14820491Y-13437484D02*
X14734777Y-13637484D01*
X14906206Y-13637484D02*
X14944301Y-13637484D01*
X14944301Y-13637484D02*
X14963348Y-13627960D01*
X14963348Y-13627960D02*
X14972872Y-13618436D01*
X14972872Y-13618436D02*
X14991920Y-13589865D01*
X14991920Y-13589865D02*
X15001444Y-13551769D01*
X15001444Y-13551769D02*
X15001444Y-13475579D01*
X15001444Y-13475579D02*
X14991920Y-13456531D01*
X14991920Y-13456531D02*
X14982396Y-13447008D01*
X14982396Y-13447008D02*
X14963348Y-13437484D01*
X14963348Y-13437484D02*
X14925253Y-13437484D01*
X14925253Y-13437484D02*
X14906206Y-13447008D01*
X14906206Y-13447008D02*
X14896682Y-13456531D01*
X14896682Y-13456531D02*
X14887158Y-13475579D01*
X14887158Y-13475579D02*
X14887158Y-13523198D01*
X14887158Y-13523198D02*
X14896682Y-13542246D01*
X14896682Y-13542246D02*
X14906206Y-13551769D01*
X14906206Y-13551769D02*
X14925253Y-13561293D01*
X14925253Y-13561293D02*
X14963348Y-13561293D01*
X14963348Y-13561293D02*
X14982396Y-13551769D01*
X14982396Y-13551769D02*
X14991920Y-13542246D01*
X14991920Y-13542246D02*
X15001444Y-13523198D01*
X15077634Y-13437484D02*
X15077634Y-13475579D01*
X15153825Y-13437484D02*
X15153825Y-13475579D01*
X15449063Y-13713674D02*
X15439539Y-13704150D01*
X15439539Y-13704150D02*
X15420491Y-13675579D01*
X15420491Y-13675579D02*
X15410968Y-13656531D01*
X15410968Y-13656531D02*
X15401444Y-13627960D01*
X15401444Y-13627960D02*
X15391920Y-13580341D01*
X15391920Y-13580341D02*
X15391920Y-13542246D01*
X15391920Y-13542246D02*
X15401444Y-13494627D01*
X15401444Y-13494627D02*
X15410968Y-13466055D01*
X15410968Y-13466055D02*
X15420491Y-13447008D01*
X15420491Y-13447008D02*
X15439539Y-13418436D01*
X15439539Y-13418436D02*
X15449063Y-13408912D01*
X15534777Y-13637484D02*
X15572872Y-13637484D01*
X15572872Y-13637484D02*
X15591920Y-13627960D01*
X15591920Y-13627960D02*
X15601444Y-13618436D01*
X15601444Y-13618436D02*
X15620491Y-13589865D01*
X15620491Y-13589865D02*
X15630015Y-13551769D01*
X15630015Y-13551769D02*
X15630015Y-13475579D01*
X15630015Y-13475579D02*
X15620491Y-13456531D01*
X15620491Y-13456531D02*
X15610968Y-13447008D01*
X15610968Y-13447008D02*
X15591920Y-13437484D01*
X15591920Y-13437484D02*
X15553825Y-13437484D01*
X15553825Y-13437484D02*
X15534777Y-13447008D01*
X15534777Y-13447008D02*
X15525253Y-13456531D01*
X15525253Y-13456531D02*
X15515729Y-13475579D01*
X15515729Y-13475579D02*
X15515729Y-13523198D01*
X15515729Y-13523198D02*
X15525253Y-13542246D01*
X15525253Y-13542246D02*
X15534777Y-13551769D01*
X15534777Y-13551769D02*
X15553825Y-13561293D01*
X15553825Y-13561293D02*
X15591920Y-13561293D01*
X15591920Y-13561293D02*
X15610968Y-13551769D01*
X15610968Y-13551769D02*
X15620491Y-13542246D01*
X15620491Y-13542246D02*
X15630015Y-13523198D01*
X15868110Y-13637484D02*
X15868110Y-13437484D01*
X15953825Y-13637484D02*
X15953825Y-13532722D01*
X15953825Y-13532722D02*
X15944301Y-13513674D01*
X15944301Y-13513674D02*
X15925253Y-13504150D01*
X15925253Y-13504150D02*
X15896682Y-13504150D01*
X15896682Y-13504150D02*
X15877634Y-13513674D01*
X15877634Y-13513674D02*
X15868110Y-13523198D01*
X16077634Y-13637484D02*
X16058587Y-13627960D01*
X16058587Y-13627960D02*
X16049063Y-13618436D01*
X16049063Y-13618436D02*
X16039539Y-13599388D01*
X16039539Y-13599388D02*
X16039539Y-13542246D01*
X16039539Y-13542246D02*
X16049063Y-13523198D01*
X16049063Y-13523198D02*
X16058587Y-13513674D01*
X16058587Y-13513674D02*
X16077634Y-13504150D01*
X16077634Y-13504150D02*
X16106206Y-13504150D01*
X16106206Y-13504150D02*
X16125253Y-13513674D01*
X16125253Y-13513674D02*
X16134777Y-13523198D01*
X16134777Y-13523198D02*
X16144301Y-13542246D01*
X16144301Y-13542246D02*
X16144301Y-13599388D01*
X16144301Y-13599388D02*
X16134777Y-13618436D01*
X16134777Y-13618436D02*
X16125253Y-13627960D01*
X16125253Y-13627960D02*
X16106206Y-13637484D01*
X16106206Y-13637484D02*
X16077634Y-13637484D01*
X16258587Y-13637484D02*
X16239539Y-13627960D01*
X16239539Y-13627960D02*
X16230015Y-13608912D01*
X16230015Y-13608912D02*
X16230015Y-13437484D01*
X16410968Y-13627960D02*
X16391920Y-13637484D01*
X16391920Y-13637484D02*
X16353825Y-13637484D01*
X16353825Y-13637484D02*
X16334777Y-13627960D01*
X16334777Y-13627960D02*
X16325253Y-13608912D01*
X16325253Y-13608912D02*
X16325253Y-13532722D01*
X16325253Y-13532722D02*
X16334777Y-13513674D01*
X16334777Y-13513674D02*
X16353825Y-13504150D01*
X16353825Y-13504150D02*
X16391920Y-13504150D01*
X16391920Y-13504150D02*
X16410968Y-13513674D01*
X16410968Y-13513674D02*
X16420491Y-13532722D01*
X16420491Y-13532722D02*
X16420491Y-13551769D01*
X16420491Y-13551769D02*
X16325253Y-13570817D01*
X16496682Y-13627960D02*
X16515730Y-13637484D01*
X16515730Y-13637484D02*
X16553825Y-13637484D01*
X16553825Y-13637484D02*
X16572872Y-13627960D01*
X16572872Y-13627960D02*
X16582396Y-13608912D01*
X16582396Y-13608912D02*
X16582396Y-13599388D01*
X16582396Y-13599388D02*
X16572872Y-13580341D01*
X16572872Y-13580341D02*
X16553825Y-13570817D01*
X16553825Y-13570817D02*
X16525253Y-13570817D01*
X16525253Y-13570817D02*
X16506206Y-13561293D01*
X16506206Y-13561293D02*
X16496682Y-13542246D01*
X16496682Y-13542246D02*
X16496682Y-13532722D01*
X16496682Y-13532722D02*
X16506206Y-13513674D01*
X16506206Y-13513674D02*
X16525253Y-13504150D01*
X16525253Y-13504150D02*
X16553825Y-13504150D01*
X16553825Y-13504150D02*
X16572872Y-13513674D01*
X16649063Y-13713674D02*
X16658587Y-13704150D01*
X16658587Y-13704150D02*
X16677634Y-13675579D01*
X16677634Y-13675579D02*
X16687158Y-13656531D01*
X16687158Y-13656531D02*
X16696682Y-13627960D01*
X16696682Y-13627960D02*
X16706206Y-13580341D01*
X16706206Y-13580341D02*
X16706206Y-13542246D01*
X16706206Y-13542246D02*
X16696682Y-13494627D01*
X16696682Y-13494627D02*
X16687158Y-13466055D01*
X16687158Y-13466055D02*
X16677634Y-13447008D01*
X16677634Y-13447008D02*
X16658587Y-13418436D01*
X16658587Y-13418436D02*
X16649063Y-13408912D01*
D10*
X11874000Y-13810000D02*
G75*
G02*
X11844000Y-13810000I-15000J0D01*
G01*
X11844000Y-13810000D02*
G75*
G02*
X11874000Y-13810000I15000J0D01*
G01*
D11*
X12172872Y-13701484D02*
X12191920Y-13701484D01*
X12191920Y-13701484D02*
X12210967Y-13711008D01*
X12210967Y-13711008D02*
X12220491Y-13720531D01*
X12220491Y-13720531D02*
X12230015Y-13739579D01*
X12230015Y-13739579D02*
X12239539Y-13777674D01*
X12239539Y-13777674D02*
X12239539Y-13825293D01*
X12239539Y-13825293D02*
X12230015Y-13863388D01*
X12230015Y-13863388D02*
X12220491Y-13882436D01*
X12220491Y-13882436D02*
X12210967Y-13891960D01*
X12210967Y-13891960D02*
X12191920Y-13901484D01*
X12191920Y-13901484D02*
X12172872Y-13901484D01*
X12172872Y-13901484D02*
X12153824Y-13891960D01*
X12153824Y-13891960D02*
X12144301Y-13882436D01*
X12144301Y-13882436D02*
X12134777Y-13863388D01*
X12134777Y-13863388D02*
X12125253Y-13825293D01*
X12125253Y-13825293D02*
X12125253Y-13777674D01*
X12125253Y-13777674D02*
X12134777Y-13739579D01*
X12134777Y-13739579D02*
X12144301Y-13720531D01*
X12144301Y-13720531D02*
X12153824Y-13711008D01*
X12153824Y-13711008D02*
X12172872Y-13701484D01*
X12325253Y-13882436D02*
X12334777Y-13891960D01*
X12334777Y-13891960D02*
X12325253Y-13901484D01*
X12325253Y-13901484D02*
X12315729Y-13891960D01*
X12315729Y-13891960D02*
X12325253Y-13882436D01*
X12325253Y-13882436D02*
X12325253Y-13901484D01*
X12401443Y-13701484D02*
X12525253Y-13701484D01*
X12525253Y-13701484D02*
X12458586Y-13777674D01*
X12458586Y-13777674D02*
X12487158Y-13777674D01*
X12487158Y-13777674D02*
X12506205Y-13787198D01*
X12506205Y-13787198D02*
X12515729Y-13796722D01*
X12515729Y-13796722D02*
X12525253Y-13815769D01*
X12525253Y-13815769D02*
X12525253Y-13863388D01*
X12525253Y-13863388D02*
X12515729Y-13882436D01*
X12515729Y-13882436D02*
X12506205Y-13891960D01*
X12506205Y-13891960D02*
X12487158Y-13901484D01*
X12487158Y-13901484D02*
X12430015Y-13901484D01*
X12430015Y-13901484D02*
X12410967Y-13891960D01*
X12410967Y-13891960D02*
X12401443Y-13882436D01*
X12649062Y-13701484D02*
X12668110Y-13701484D01*
X12668110Y-13701484D02*
X12687158Y-13711008D01*
X12687158Y-13711008D02*
X12696682Y-13720531D01*
X12696682Y-13720531D02*
X12706205Y-13739579D01*
X12706205Y-13739579D02*
X12715729Y-13777674D01*
X12715729Y-13777674D02*
X12715729Y-13825293D01*
X12715729Y-13825293D02*
X12706205Y-13863388D01*
X12706205Y-13863388D02*
X12696682Y-13882436D01*
X12696682Y-13882436D02*
X12687158Y-13891960D01*
X12687158Y-13891960D02*
X12668110Y-13901484D01*
X12668110Y-13901484D02*
X12649062Y-13901484D01*
X12649062Y-13901484D02*
X12630015Y-13891960D01*
X12630015Y-13891960D02*
X12620491Y-13882436D01*
X12620491Y-13882436D02*
X12610967Y-13863388D01*
X12610967Y-13863388D02*
X12601443Y-13825293D01*
X12601443Y-13825293D02*
X12601443Y-13777674D01*
X12601443Y-13777674D02*
X12610967Y-13739579D01*
X12610967Y-13739579D02*
X12620491Y-13720531D01*
X12620491Y-13720531D02*
X12630015Y-13711008D01*
X12630015Y-13711008D02*
X12649062Y-13701484D01*
X12839539Y-13701484D02*
X12858586Y-13701484D01*
X12858586Y-13701484D02*
X12877634Y-13711008D01*
X12877634Y-13711008D02*
X12887158Y-13720531D01*
X12887158Y-13720531D02*
X12896682Y-13739579D01*
X12896682Y-13739579D02*
X12906205Y-13777674D01*
X12906205Y-13777674D02*
X12906205Y-13825293D01*
X12906205Y-13825293D02*
X12896682Y-13863388D01*
X12896682Y-13863388D02*
X12887158Y-13882436D01*
X12887158Y-13882436D02*
X12877634Y-13891960D01*
X12877634Y-13891960D02*
X12858586Y-13901484D01*
X12858586Y-13901484D02*
X12839539Y-13901484D01*
X12839539Y-13901484D02*
X12820491Y-13891960D01*
X12820491Y-13891960D02*
X12810967Y-13882436D01*
X12810967Y-13882436D02*
X12801443Y-13863388D01*
X12801443Y-13863388D02*
X12791920Y-13825293D01*
X12791920Y-13825293D02*
X12791920Y-13777674D01*
X12791920Y-13777674D02*
X12801443Y-13739579D01*
X12801443Y-13739579D02*
X12810967Y-13720531D01*
X12810967Y-13720531D02*
X12820491Y-13711008D01*
X12820491Y-13711008D02*
X12839539Y-13701484D01*
X12991920Y-13901484D02*
X12991920Y-13768150D01*
X12991920Y-13787198D02*
X13001443Y-13777674D01*
X13001443Y-13777674D02*
X13020491Y-13768150D01*
X13020491Y-13768150D02*
X13049063Y-13768150D01*
X13049063Y-13768150D02*
X13068110Y-13777674D01*
X13068110Y-13777674D02*
X13077634Y-13796722D01*
X13077634Y-13796722D02*
X13077634Y-13901484D01*
X13077634Y-13796722D02*
X13087158Y-13777674D01*
X13087158Y-13777674D02*
X13106205Y-13768150D01*
X13106205Y-13768150D02*
X13134777Y-13768150D01*
X13134777Y-13768150D02*
X13153824Y-13777674D01*
X13153824Y-13777674D02*
X13163348Y-13796722D01*
X13163348Y-13796722D02*
X13163348Y-13901484D01*
X13258586Y-13901484D02*
X13258586Y-13768150D01*
X13258586Y-13787198D02*
X13268110Y-13777674D01*
X13268110Y-13777674D02*
X13287158Y-13768150D01*
X13287158Y-13768150D02*
X13315729Y-13768150D01*
X13315729Y-13768150D02*
X13334777Y-13777674D01*
X13334777Y-13777674D02*
X13344301Y-13796722D01*
X13344301Y-13796722D02*
X13344301Y-13901484D01*
X13344301Y-13796722D02*
X13353824Y-13777674D01*
X13353824Y-13777674D02*
X13372872Y-13768150D01*
X13372872Y-13768150D02*
X13401443Y-13768150D01*
X13401443Y-13768150D02*
X13420491Y-13777674D01*
X13420491Y-13777674D02*
X13430015Y-13796722D01*
X13430015Y-13796722D02*
X13430015Y-13901484D01*
X13820491Y-13691960D02*
X13649063Y-13949103D01*
X14077634Y-13701484D02*
X14096682Y-13701484D01*
X14096682Y-13701484D02*
X14115729Y-13711008D01*
X14115729Y-13711008D02*
X14125253Y-13720531D01*
X14125253Y-13720531D02*
X14134777Y-13739579D01*
X14134777Y-13739579D02*
X14144301Y-13777674D01*
X14144301Y-13777674D02*
X14144301Y-13825293D01*
X14144301Y-13825293D02*
X14134777Y-13863388D01*
X14134777Y-13863388D02*
X14125253Y-13882436D01*
X14125253Y-13882436D02*
X14115729Y-13891960D01*
X14115729Y-13891960D02*
X14096682Y-13901484D01*
X14096682Y-13901484D02*
X14077634Y-13901484D01*
X14077634Y-13901484D02*
X14058586Y-13891960D01*
X14058586Y-13891960D02*
X14049063Y-13882436D01*
X14049063Y-13882436D02*
X14039539Y-13863388D01*
X14039539Y-13863388D02*
X14030015Y-13825293D01*
X14030015Y-13825293D02*
X14030015Y-13777674D01*
X14030015Y-13777674D02*
X14039539Y-13739579D01*
X14039539Y-13739579D02*
X14049063Y-13720531D01*
X14049063Y-13720531D02*
X14058586Y-13711008D01*
X14058586Y-13711008D02*
X14077634Y-13701484D01*
X14230015Y-13882436D02*
X14239539Y-13891960D01*
X14239539Y-13891960D02*
X14230015Y-13901484D01*
X14230015Y-13901484D02*
X14220491Y-13891960D01*
X14220491Y-13891960D02*
X14230015Y-13882436D01*
X14230015Y-13882436D02*
X14230015Y-13901484D01*
X14363348Y-13701484D02*
X14382396Y-13701484D01*
X14382396Y-13701484D02*
X14401444Y-13711008D01*
X14401444Y-13711008D02*
X14410967Y-13720531D01*
X14410967Y-13720531D02*
X14420491Y-13739579D01*
X14420491Y-13739579D02*
X14430015Y-13777674D01*
X14430015Y-13777674D02*
X14430015Y-13825293D01*
X14430015Y-13825293D02*
X14420491Y-13863388D01*
X14420491Y-13863388D02*
X14410967Y-13882436D01*
X14410967Y-13882436D02*
X14401444Y-13891960D01*
X14401444Y-13891960D02*
X14382396Y-13901484D01*
X14382396Y-13901484D02*
X14363348Y-13901484D01*
X14363348Y-13901484D02*
X14344301Y-13891960D01*
X14344301Y-13891960D02*
X14334777Y-13882436D01*
X14334777Y-13882436D02*
X14325253Y-13863388D01*
X14325253Y-13863388D02*
X14315729Y-13825293D01*
X14315729Y-13825293D02*
X14315729Y-13777674D01*
X14315729Y-13777674D02*
X14325253Y-13739579D01*
X14325253Y-13739579D02*
X14334777Y-13720531D01*
X14334777Y-13720531D02*
X14344301Y-13711008D01*
X14344301Y-13711008D02*
X14363348Y-13701484D01*
X14620491Y-13901484D02*
X14506206Y-13901484D01*
X14563348Y-13901484D02*
X14563348Y-13701484D01*
X14563348Y-13701484D02*
X14544301Y-13730055D01*
X14544301Y-13730055D02*
X14525253Y-13749103D01*
X14525253Y-13749103D02*
X14506206Y-13758627D01*
X14810967Y-13901484D02*
X14696682Y-13901484D01*
X14753825Y-13901484D02*
X14753825Y-13701484D01*
X14753825Y-13701484D02*
X14734777Y-13730055D01*
X14734777Y-13730055D02*
X14715729Y-13749103D01*
X14715729Y-13749103D02*
X14696682Y-13758627D01*
X14925253Y-13787198D02*
X14906206Y-13777674D01*
X14906206Y-13777674D02*
X14896682Y-13768150D01*
X14896682Y-13768150D02*
X14887158Y-13749103D01*
X14887158Y-13749103D02*
X14887158Y-13739579D01*
X14887158Y-13739579D02*
X14896682Y-13720531D01*
X14896682Y-13720531D02*
X14906206Y-13711008D01*
X14906206Y-13711008D02*
X14925253Y-13701484D01*
X14925253Y-13701484D02*
X14963348Y-13701484D01*
X14963348Y-13701484D02*
X14982396Y-13711008D01*
X14982396Y-13711008D02*
X14991920Y-13720531D01*
X14991920Y-13720531D02*
X15001444Y-13739579D01*
X15001444Y-13739579D02*
X15001444Y-13749103D01*
X15001444Y-13749103D02*
X14991920Y-13768150D01*
X14991920Y-13768150D02*
X14982396Y-13777674D01*
X14982396Y-13777674D02*
X14963348Y-13787198D01*
X14963348Y-13787198D02*
X14925253Y-13787198D01*
X14925253Y-13787198D02*
X14906206Y-13796722D01*
X14906206Y-13796722D02*
X14896682Y-13806246D01*
X14896682Y-13806246D02*
X14887158Y-13825293D01*
X14887158Y-13825293D02*
X14887158Y-13863388D01*
X14887158Y-13863388D02*
X14896682Y-13882436D01*
X14896682Y-13882436D02*
X14906206Y-13891960D01*
X14906206Y-13891960D02*
X14925253Y-13901484D01*
X14925253Y-13901484D02*
X14963348Y-13901484D01*
X14963348Y-13901484D02*
X14982396Y-13891960D01*
X14982396Y-13891960D02*
X14991920Y-13882436D01*
X14991920Y-13882436D02*
X15001444Y-13863388D01*
X15001444Y-13863388D02*
X15001444Y-13825293D01*
X15001444Y-13825293D02*
X14991920Y-13806246D01*
X14991920Y-13806246D02*
X14982396Y-13796722D01*
X14982396Y-13796722D02*
X14963348Y-13787198D01*
X15077634Y-13701484D02*
X15077634Y-13739579D01*
X15153825Y-13701484D02*
X15153825Y-13739579D01*
X15449063Y-13977674D02*
X15439539Y-13968150D01*
X15439539Y-13968150D02*
X15420491Y-13939579D01*
X15420491Y-13939579D02*
X15410968Y-13920531D01*
X15410968Y-13920531D02*
X15401444Y-13891960D01*
X15401444Y-13891960D02*
X15391920Y-13844341D01*
X15391920Y-13844341D02*
X15391920Y-13806246D01*
X15391920Y-13806246D02*
X15401444Y-13758627D01*
X15401444Y-13758627D02*
X15410968Y-13730055D01*
X15410968Y-13730055D02*
X15420491Y-13711008D01*
X15420491Y-13711008D02*
X15439539Y-13682436D01*
X15439539Y-13682436D02*
X15449063Y-13672912D01*
X15506206Y-13701484D02*
X15630015Y-13701484D01*
X15630015Y-13701484D02*
X15563348Y-13777674D01*
X15563348Y-13777674D02*
X15591920Y-13777674D01*
X15591920Y-13777674D02*
X15610968Y-13787198D01*
X15610968Y-13787198D02*
X15620491Y-13796722D01*
X15620491Y-13796722D02*
X15630015Y-13815769D01*
X15630015Y-13815769D02*
X15630015Y-13863388D01*
X15630015Y-13863388D02*
X15620491Y-13882436D01*
X15620491Y-13882436D02*
X15610968Y-13891960D01*
X15610968Y-13891960D02*
X15591920Y-13901484D01*
X15591920Y-13901484D02*
X15534777Y-13901484D01*
X15534777Y-13901484D02*
X15515729Y-13891960D01*
X15515729Y-13891960D02*
X15506206Y-13882436D01*
X15801444Y-13701484D02*
X15763348Y-13701484D01*
X15763348Y-13701484D02*
X15744301Y-13711008D01*
X15744301Y-13711008D02*
X15734777Y-13720531D01*
X15734777Y-13720531D02*
X15715729Y-13749103D01*
X15715729Y-13749103D02*
X15706206Y-13787198D01*
X15706206Y-13787198D02*
X15706206Y-13863388D01*
X15706206Y-13863388D02*
X15715729Y-13882436D01*
X15715729Y-13882436D02*
X15725253Y-13891960D01*
X15725253Y-13891960D02*
X15744301Y-13901484D01*
X15744301Y-13901484D02*
X15782396Y-13901484D01*
X15782396Y-13901484D02*
X15801444Y-13891960D01*
X15801444Y-13891960D02*
X15810968Y-13882436D01*
X15810968Y-13882436D02*
X15820491Y-13863388D01*
X15820491Y-13863388D02*
X15820491Y-13815769D01*
X15820491Y-13815769D02*
X15810968Y-13796722D01*
X15810968Y-13796722D02*
X15801444Y-13787198D01*
X15801444Y-13787198D02*
X15782396Y-13777674D01*
X15782396Y-13777674D02*
X15744301Y-13777674D01*
X15744301Y-13777674D02*
X15725253Y-13787198D01*
X15725253Y-13787198D02*
X15715729Y-13796722D01*
X15715729Y-13796722D02*
X15706206Y-13815769D01*
X16001444Y-13701484D02*
X15906206Y-13701484D01*
X15906206Y-13701484D02*
X15896682Y-13796722D01*
X15896682Y-13796722D02*
X15906206Y-13787198D01*
X15906206Y-13787198D02*
X15925253Y-13777674D01*
X15925253Y-13777674D02*
X15972872Y-13777674D01*
X15972872Y-13777674D02*
X15991920Y-13787198D01*
X15991920Y-13787198D02*
X16001444Y-13796722D01*
X16001444Y-13796722D02*
X16010968Y-13815769D01*
X16010968Y-13815769D02*
X16010968Y-13863388D01*
X16010968Y-13863388D02*
X16001444Y-13882436D01*
X16001444Y-13882436D02*
X15991920Y-13891960D01*
X15991920Y-13891960D02*
X15972872Y-13901484D01*
X15972872Y-13901484D02*
X15925253Y-13901484D01*
X15925253Y-13901484D02*
X15906206Y-13891960D01*
X15906206Y-13891960D02*
X15896682Y-13882436D01*
X16249063Y-13901484D02*
X16249063Y-13701484D01*
X16334777Y-13901484D02*
X16334777Y-13796722D01*
X16334777Y-13796722D02*
X16325253Y-13777674D01*
X16325253Y-13777674D02*
X16306206Y-13768150D01*
X16306206Y-13768150D02*
X16277634Y-13768150D01*
X16277634Y-13768150D02*
X16258587Y-13777674D01*
X16258587Y-13777674D02*
X16249063Y-13787198D01*
X16458587Y-13901484D02*
X16439539Y-13891960D01*
X16439539Y-13891960D02*
X16430015Y-13882436D01*
X16430015Y-13882436D02*
X16420491Y-13863388D01*
X16420491Y-13863388D02*
X16420491Y-13806246D01*
X16420491Y-13806246D02*
X16430015Y-13787198D01*
X16430015Y-13787198D02*
X16439539Y-13777674D01*
X16439539Y-13777674D02*
X16458587Y-13768150D01*
X16458587Y-13768150D02*
X16487158Y-13768150D01*
X16487158Y-13768150D02*
X16506206Y-13777674D01*
X16506206Y-13777674D02*
X16515730Y-13787198D01*
X16515730Y-13787198D02*
X16525253Y-13806246D01*
X16525253Y-13806246D02*
X16525253Y-13863388D01*
X16525253Y-13863388D02*
X16515730Y-13882436D01*
X16515730Y-13882436D02*
X16506206Y-13891960D01*
X16506206Y-13891960D02*
X16487158Y-13901484D01*
X16487158Y-13901484D02*
X16458587Y-13901484D01*
X16639539Y-13901484D02*
X16620491Y-13891960D01*
X16620491Y-13891960D02*
X16610968Y-13872912D01*
X16610968Y-13872912D02*
X16610968Y-13701484D01*
X16791920Y-13891960D02*
X16772872Y-13901484D01*
X16772872Y-13901484D02*
X16734777Y-13901484D01*
X16734777Y-13901484D02*
X16715730Y-13891960D01*
X16715730Y-13891960D02*
X16706206Y-13872912D01*
X16706206Y-13872912D02*
X16706206Y-13796722D01*
X16706206Y-13796722D02*
X16715730Y-13777674D01*
X16715730Y-13777674D02*
X16734777Y-13768150D01*
X16734777Y-13768150D02*
X16772872Y-13768150D01*
X16772872Y-13768150D02*
X16791920Y-13777674D01*
X16791920Y-13777674D02*
X16801444Y-13796722D01*
X16801444Y-13796722D02*
X16801444Y-13815769D01*
X16801444Y-13815769D02*
X16706206Y-13834817D01*
X16877634Y-13891960D02*
X16896682Y-13901484D01*
X16896682Y-13901484D02*
X16934777Y-13901484D01*
X16934777Y-13901484D02*
X16953825Y-13891960D01*
X16953825Y-13891960D02*
X16963349Y-13872912D01*
X16963349Y-13872912D02*
X16963349Y-13863388D01*
X16963349Y-13863388D02*
X16953825Y-13844341D01*
X16953825Y-13844341D02*
X16934777Y-13834817D01*
X16934777Y-13834817D02*
X16906206Y-13834817D01*
X16906206Y-13834817D02*
X16887158Y-13825293D01*
X16887158Y-13825293D02*
X16877634Y-13806246D01*
X16877634Y-13806246D02*
X16877634Y-13796722D01*
X16877634Y-13796722D02*
X16887158Y-13777674D01*
X16887158Y-13777674D02*
X16906206Y-13768150D01*
X16906206Y-13768150D02*
X16934777Y-13768150D01*
X16934777Y-13768150D02*
X16953825Y-13777674D01*
X17030015Y-13977674D02*
X17039539Y-13968150D01*
X17039539Y-13968150D02*
X17058587Y-13939579D01*
X17058587Y-13939579D02*
X17068111Y-13920531D01*
X17068111Y-13920531D02*
X17077634Y-13891960D01*
X17077634Y-13891960D02*
X17087158Y-13844341D01*
X17087158Y-13844341D02*
X17087158Y-13806246D01*
X17087158Y-13806246D02*
X17077634Y-13758627D01*
X17077634Y-13758627D02*
X17068111Y-13730055D01*
X17068111Y-13730055D02*
X17058587Y-13711008D01*
X17058587Y-13711008D02*
X17039539Y-13682436D01*
X17039539Y-13682436D02*
X17030015Y-13672912D01*
D10*
X11841500Y-14041500D02*
X11841500Y-14106500D01*
X11809000Y-14074000D02*
X11874000Y-14074000D01*
D11*
X12172872Y-13965484D02*
X12191920Y-13965484D01*
X12191920Y-13965484D02*
X12210967Y-13975008D01*
X12210967Y-13975008D02*
X12220491Y-13984531D01*
X12220491Y-13984531D02*
X12230015Y-14003579D01*
X12230015Y-14003579D02*
X12239539Y-14041674D01*
X12239539Y-14041674D02*
X12239539Y-14089293D01*
X12239539Y-14089293D02*
X12230015Y-14127388D01*
X12230015Y-14127388D02*
X12220491Y-14146436D01*
X12220491Y-14146436D02*
X12210967Y-14155960D01*
X12210967Y-14155960D02*
X12191920Y-14165484D01*
X12191920Y-14165484D02*
X12172872Y-14165484D01*
X12172872Y-14165484D02*
X12153824Y-14155960D01*
X12153824Y-14155960D02*
X12144301Y-14146436D01*
X12144301Y-14146436D02*
X12134777Y-14127388D01*
X12134777Y-14127388D02*
X12125253Y-14089293D01*
X12125253Y-14089293D02*
X12125253Y-14041674D01*
X12125253Y-14041674D02*
X12134777Y-14003579D01*
X12134777Y-14003579D02*
X12144301Y-13984531D01*
X12144301Y-13984531D02*
X12153824Y-13975008D01*
X12153824Y-13975008D02*
X12172872Y-13965484D01*
X12325253Y-14146436D02*
X12334777Y-14155960D01*
X12334777Y-14155960D02*
X12325253Y-14165484D01*
X12325253Y-14165484D02*
X12315729Y-14155960D01*
X12315729Y-14155960D02*
X12325253Y-14146436D01*
X12325253Y-14146436D02*
X12325253Y-14165484D01*
X12506205Y-13965484D02*
X12468110Y-13965484D01*
X12468110Y-13965484D02*
X12449062Y-13975008D01*
X12449062Y-13975008D02*
X12439539Y-13984531D01*
X12439539Y-13984531D02*
X12420491Y-14013103D01*
X12420491Y-14013103D02*
X12410967Y-14051198D01*
X12410967Y-14051198D02*
X12410967Y-14127388D01*
X12410967Y-14127388D02*
X12420491Y-14146436D01*
X12420491Y-14146436D02*
X12430015Y-14155960D01*
X12430015Y-14155960D02*
X12449062Y-14165484D01*
X12449062Y-14165484D02*
X12487158Y-14165484D01*
X12487158Y-14165484D02*
X12506205Y-14155960D01*
X12506205Y-14155960D02*
X12515729Y-14146436D01*
X12515729Y-14146436D02*
X12525253Y-14127388D01*
X12525253Y-14127388D02*
X12525253Y-14079769D01*
X12525253Y-14079769D02*
X12515729Y-14060722D01*
X12515729Y-14060722D02*
X12506205Y-14051198D01*
X12506205Y-14051198D02*
X12487158Y-14041674D01*
X12487158Y-14041674D02*
X12449062Y-14041674D01*
X12449062Y-14041674D02*
X12430015Y-14051198D01*
X12430015Y-14051198D02*
X12420491Y-14060722D01*
X12420491Y-14060722D02*
X12410967Y-14079769D01*
X12706205Y-13965484D02*
X12610967Y-13965484D01*
X12610967Y-13965484D02*
X12601443Y-14060722D01*
X12601443Y-14060722D02*
X12610967Y-14051198D01*
X12610967Y-14051198D02*
X12630015Y-14041674D01*
X12630015Y-14041674D02*
X12677634Y-14041674D01*
X12677634Y-14041674D02*
X12696682Y-14051198D01*
X12696682Y-14051198D02*
X12706205Y-14060722D01*
X12706205Y-14060722D02*
X12715729Y-14079769D01*
X12715729Y-14079769D02*
X12715729Y-14127388D01*
X12715729Y-14127388D02*
X12706205Y-14146436D01*
X12706205Y-14146436D02*
X12696682Y-14155960D01*
X12696682Y-14155960D02*
X12677634Y-14165484D01*
X12677634Y-14165484D02*
X12630015Y-14165484D01*
X12630015Y-14165484D02*
X12610967Y-14155960D01*
X12610967Y-14155960D02*
X12601443Y-14146436D01*
X12839539Y-13965484D02*
X12858586Y-13965484D01*
X12858586Y-13965484D02*
X12877634Y-13975008D01*
X12877634Y-13975008D02*
X12887158Y-13984531D01*
X12887158Y-13984531D02*
X12896682Y-14003579D01*
X12896682Y-14003579D02*
X12906205Y-14041674D01*
X12906205Y-14041674D02*
X12906205Y-14089293D01*
X12906205Y-14089293D02*
X12896682Y-14127388D01*
X12896682Y-14127388D02*
X12887158Y-14146436D01*
X12887158Y-14146436D02*
X12877634Y-14155960D01*
X12877634Y-14155960D02*
X12858586Y-14165484D01*
X12858586Y-14165484D02*
X12839539Y-14165484D01*
X12839539Y-14165484D02*
X12820491Y-14155960D01*
X12820491Y-14155960D02*
X12810967Y-14146436D01*
X12810967Y-14146436D02*
X12801443Y-14127388D01*
X12801443Y-14127388D02*
X12791920Y-14089293D01*
X12791920Y-14089293D02*
X12791920Y-14041674D01*
X12791920Y-14041674D02*
X12801443Y-14003579D01*
X12801443Y-14003579D02*
X12810967Y-13984531D01*
X12810967Y-13984531D02*
X12820491Y-13975008D01*
X12820491Y-13975008D02*
X12839539Y-13965484D01*
X12991920Y-14165484D02*
X12991920Y-14032150D01*
X12991920Y-14051198D02*
X13001443Y-14041674D01*
X13001443Y-14041674D02*
X13020491Y-14032150D01*
X13020491Y-14032150D02*
X13049063Y-14032150D01*
X13049063Y-14032150D02*
X13068110Y-14041674D01*
X13068110Y-14041674D02*
X13077634Y-14060722D01*
X13077634Y-14060722D02*
X13077634Y-14165484D01*
X13077634Y-14060722D02*
X13087158Y-14041674D01*
X13087158Y-14041674D02*
X13106205Y-14032150D01*
X13106205Y-14032150D02*
X13134777Y-14032150D01*
X13134777Y-14032150D02*
X13153824Y-14041674D01*
X13153824Y-14041674D02*
X13163348Y-14060722D01*
X13163348Y-14060722D02*
X13163348Y-14165484D01*
X13258586Y-14165484D02*
X13258586Y-14032150D01*
X13258586Y-14051198D02*
X13268110Y-14041674D01*
X13268110Y-14041674D02*
X13287158Y-14032150D01*
X13287158Y-14032150D02*
X13315729Y-14032150D01*
X13315729Y-14032150D02*
X13334777Y-14041674D01*
X13334777Y-14041674D02*
X13344301Y-14060722D01*
X13344301Y-14060722D02*
X13344301Y-14165484D01*
X13344301Y-14060722D02*
X13353824Y-14041674D01*
X13353824Y-14041674D02*
X13372872Y-14032150D01*
X13372872Y-14032150D02*
X13401443Y-14032150D01*
X13401443Y-14032150D02*
X13420491Y-14041674D01*
X13420491Y-14041674D02*
X13430015Y-14060722D01*
X13430015Y-14060722D02*
X13430015Y-14165484D01*
X13820491Y-13955960D02*
X13649063Y-14213103D01*
X14077634Y-13965484D02*
X14096682Y-13965484D01*
X14096682Y-13965484D02*
X14115729Y-13975008D01*
X14115729Y-13975008D02*
X14125253Y-13984531D01*
X14125253Y-13984531D02*
X14134777Y-14003579D01*
X14134777Y-14003579D02*
X14144301Y-14041674D01*
X14144301Y-14041674D02*
X14144301Y-14089293D01*
X14144301Y-14089293D02*
X14134777Y-14127388D01*
X14134777Y-14127388D02*
X14125253Y-14146436D01*
X14125253Y-14146436D02*
X14115729Y-14155960D01*
X14115729Y-14155960D02*
X14096682Y-14165484D01*
X14096682Y-14165484D02*
X14077634Y-14165484D01*
X14077634Y-14165484D02*
X14058586Y-14155960D01*
X14058586Y-14155960D02*
X14049063Y-14146436D01*
X14049063Y-14146436D02*
X14039539Y-14127388D01*
X14039539Y-14127388D02*
X14030015Y-14089293D01*
X14030015Y-14089293D02*
X14030015Y-14041674D01*
X14030015Y-14041674D02*
X14039539Y-14003579D01*
X14039539Y-14003579D02*
X14049063Y-13984531D01*
X14049063Y-13984531D02*
X14058586Y-13975008D01*
X14058586Y-13975008D02*
X14077634Y-13965484D01*
X14230015Y-14146436D02*
X14239539Y-14155960D01*
X14239539Y-14155960D02*
X14230015Y-14165484D01*
X14230015Y-14165484D02*
X14220491Y-14155960D01*
X14220491Y-14155960D02*
X14230015Y-14146436D01*
X14230015Y-14146436D02*
X14230015Y-14165484D01*
X14363348Y-13965484D02*
X14382396Y-13965484D01*
X14382396Y-13965484D02*
X14401444Y-13975008D01*
X14401444Y-13975008D02*
X14410967Y-13984531D01*
X14410967Y-13984531D02*
X14420491Y-14003579D01*
X14420491Y-14003579D02*
X14430015Y-14041674D01*
X14430015Y-14041674D02*
X14430015Y-14089293D01*
X14430015Y-14089293D02*
X14420491Y-14127388D01*
X14420491Y-14127388D02*
X14410967Y-14146436D01*
X14410967Y-14146436D02*
X14401444Y-14155960D01*
X14401444Y-14155960D02*
X14382396Y-14165484D01*
X14382396Y-14165484D02*
X14363348Y-14165484D01*
X14363348Y-14165484D02*
X14344301Y-14155960D01*
X14344301Y-14155960D02*
X14334777Y-14146436D01*
X14334777Y-14146436D02*
X14325253Y-14127388D01*
X14325253Y-14127388D02*
X14315729Y-14089293D01*
X14315729Y-14089293D02*
X14315729Y-14041674D01*
X14315729Y-14041674D02*
X14325253Y-14003579D01*
X14325253Y-14003579D02*
X14334777Y-13984531D01*
X14334777Y-13984531D02*
X14344301Y-13975008D01*
X14344301Y-13975008D02*
X14363348Y-13965484D01*
X14506206Y-13984531D02*
X14515729Y-13975008D01*
X14515729Y-13975008D02*
X14534777Y-13965484D01*
X14534777Y-13965484D02*
X14582396Y-13965484D01*
X14582396Y-13965484D02*
X14601444Y-13975008D01*
X14601444Y-13975008D02*
X14610967Y-13984531D01*
X14610967Y-13984531D02*
X14620491Y-14003579D01*
X14620491Y-14003579D02*
X14620491Y-14022627D01*
X14620491Y-14022627D02*
X14610967Y-14051198D01*
X14610967Y-14051198D02*
X14496682Y-14165484D01*
X14496682Y-14165484D02*
X14620491Y-14165484D01*
X14801444Y-13965484D02*
X14706206Y-13965484D01*
X14706206Y-13965484D02*
X14696682Y-14060722D01*
X14696682Y-14060722D02*
X14706206Y-14051198D01*
X14706206Y-14051198D02*
X14725253Y-14041674D01*
X14725253Y-14041674D02*
X14772872Y-14041674D01*
X14772872Y-14041674D02*
X14791920Y-14051198D01*
X14791920Y-14051198D02*
X14801444Y-14060722D01*
X14801444Y-14060722D02*
X14810967Y-14079769D01*
X14810967Y-14079769D02*
X14810967Y-14127388D01*
X14810967Y-14127388D02*
X14801444Y-14146436D01*
X14801444Y-14146436D02*
X14791920Y-14155960D01*
X14791920Y-14155960D02*
X14772872Y-14165484D01*
X14772872Y-14165484D02*
X14725253Y-14165484D01*
X14725253Y-14165484D02*
X14706206Y-14155960D01*
X14706206Y-14155960D02*
X14696682Y-14146436D01*
X14982396Y-13965484D02*
X14944301Y-13965484D01*
X14944301Y-13965484D02*
X14925253Y-13975008D01*
X14925253Y-13975008D02*
X14915729Y-13984531D01*
X14915729Y-13984531D02*
X14896682Y-14013103D01*
X14896682Y-14013103D02*
X14887158Y-14051198D01*
X14887158Y-14051198D02*
X14887158Y-14127388D01*
X14887158Y-14127388D02*
X14896682Y-14146436D01*
X14896682Y-14146436D02*
X14906206Y-14155960D01*
X14906206Y-14155960D02*
X14925253Y-14165484D01*
X14925253Y-14165484D02*
X14963348Y-14165484D01*
X14963348Y-14165484D02*
X14982396Y-14155960D01*
X14982396Y-14155960D02*
X14991920Y-14146436D01*
X14991920Y-14146436D02*
X15001444Y-14127388D01*
X15001444Y-14127388D02*
X15001444Y-14079769D01*
X15001444Y-14079769D02*
X14991920Y-14060722D01*
X14991920Y-14060722D02*
X14982396Y-14051198D01*
X14982396Y-14051198D02*
X14963348Y-14041674D01*
X14963348Y-14041674D02*
X14925253Y-14041674D01*
X14925253Y-14041674D02*
X14906206Y-14051198D01*
X14906206Y-14051198D02*
X14896682Y-14060722D01*
X14896682Y-14060722D02*
X14887158Y-14079769D01*
X15077634Y-13965484D02*
X15077634Y-14003579D01*
X15153825Y-13965484D02*
X15153825Y-14003579D01*
X15449063Y-14241674D02*
X15439539Y-14232150D01*
X15439539Y-14232150D02*
X15420491Y-14203579D01*
X15420491Y-14203579D02*
X15410968Y-14184531D01*
X15410968Y-14184531D02*
X15401444Y-14155960D01*
X15401444Y-14155960D02*
X15391920Y-14108341D01*
X15391920Y-14108341D02*
X15391920Y-14070246D01*
X15391920Y-14070246D02*
X15401444Y-14022627D01*
X15401444Y-14022627D02*
X15410968Y-13994055D01*
X15410968Y-13994055D02*
X15420491Y-13975008D01*
X15420491Y-13975008D02*
X15439539Y-13946436D01*
X15439539Y-13946436D02*
X15449063Y-13936912D01*
X15630015Y-14165484D02*
X15515729Y-14165484D01*
X15572872Y-14165484D02*
X15572872Y-13965484D01*
X15572872Y-13965484D02*
X15553825Y-13994055D01*
X15553825Y-13994055D02*
X15534777Y-14013103D01*
X15534777Y-14013103D02*
X15515729Y-14022627D01*
X15753825Y-13965484D02*
X15772872Y-13965484D01*
X15772872Y-13965484D02*
X15791920Y-13975008D01*
X15791920Y-13975008D02*
X15801444Y-13984531D01*
X15801444Y-13984531D02*
X15810968Y-14003579D01*
X15810968Y-14003579D02*
X15820491Y-14041674D01*
X15820491Y-14041674D02*
X15820491Y-14089293D01*
X15820491Y-14089293D02*
X15810968Y-14127388D01*
X15810968Y-14127388D02*
X15801444Y-14146436D01*
X15801444Y-14146436D02*
X15791920Y-14155960D01*
X15791920Y-14155960D02*
X15772872Y-14165484D01*
X15772872Y-14165484D02*
X15753825Y-14165484D01*
X15753825Y-14165484D02*
X15734777Y-14155960D01*
X15734777Y-14155960D02*
X15725253Y-14146436D01*
X15725253Y-14146436D02*
X15715729Y-14127388D01*
X15715729Y-14127388D02*
X15706206Y-14089293D01*
X15706206Y-14089293D02*
X15706206Y-14041674D01*
X15706206Y-14041674D02*
X15715729Y-14003579D01*
X15715729Y-14003579D02*
X15725253Y-13984531D01*
X15725253Y-13984531D02*
X15734777Y-13975008D01*
X15734777Y-13975008D02*
X15753825Y-13965484D01*
X16058587Y-14165484D02*
X16058587Y-13965484D01*
X16144301Y-14165484D02*
X16144301Y-14060722D01*
X16144301Y-14060722D02*
X16134777Y-14041674D01*
X16134777Y-14041674D02*
X16115730Y-14032150D01*
X16115730Y-14032150D02*
X16087158Y-14032150D01*
X16087158Y-14032150D02*
X16068110Y-14041674D01*
X16068110Y-14041674D02*
X16058587Y-14051198D01*
X16268110Y-14165484D02*
X16249063Y-14155960D01*
X16249063Y-14155960D02*
X16239539Y-14146436D01*
X16239539Y-14146436D02*
X16230015Y-14127388D01*
X16230015Y-14127388D02*
X16230015Y-14070246D01*
X16230015Y-14070246D02*
X16239539Y-14051198D01*
X16239539Y-14051198D02*
X16249063Y-14041674D01*
X16249063Y-14041674D02*
X16268110Y-14032150D01*
X16268110Y-14032150D02*
X16296682Y-14032150D01*
X16296682Y-14032150D02*
X16315730Y-14041674D01*
X16315730Y-14041674D02*
X16325253Y-14051198D01*
X16325253Y-14051198D02*
X16334777Y-14070246D01*
X16334777Y-14070246D02*
X16334777Y-14127388D01*
X16334777Y-14127388D02*
X16325253Y-14146436D01*
X16325253Y-14146436D02*
X16315730Y-14155960D01*
X16315730Y-14155960D02*
X16296682Y-14165484D01*
X16296682Y-14165484D02*
X16268110Y-14165484D01*
X16449063Y-14165484D02*
X16430015Y-14155960D01*
X16430015Y-14155960D02*
X16420491Y-14136912D01*
X16420491Y-14136912D02*
X16420491Y-13965484D01*
X16601444Y-14155960D02*
X16582396Y-14165484D01*
X16582396Y-14165484D02*
X16544301Y-14165484D01*
X16544301Y-14165484D02*
X16525253Y-14155960D01*
X16525253Y-14155960D02*
X16515730Y-14136912D01*
X16515730Y-14136912D02*
X16515730Y-14060722D01*
X16515730Y-14060722D02*
X16525253Y-14041674D01*
X16525253Y-14041674D02*
X16544301Y-14032150D01*
X16544301Y-14032150D02*
X16582396Y-14032150D01*
X16582396Y-14032150D02*
X16601444Y-14041674D01*
X16601444Y-14041674D02*
X16610968Y-14060722D01*
X16610968Y-14060722D02*
X16610968Y-14079769D01*
X16610968Y-14079769D02*
X16515730Y-14098817D01*
X16687158Y-14155960D02*
X16706206Y-14165484D01*
X16706206Y-14165484D02*
X16744301Y-14165484D01*
X16744301Y-14165484D02*
X16763349Y-14155960D01*
X16763349Y-14155960D02*
X16772872Y-14136912D01*
X16772872Y-14136912D02*
X16772872Y-14127388D01*
X16772872Y-14127388D02*
X16763349Y-14108341D01*
X16763349Y-14108341D02*
X16744301Y-14098817D01*
X16744301Y-14098817D02*
X16715730Y-14098817D01*
X16715730Y-14098817D02*
X16696682Y-14089293D01*
X16696682Y-14089293D02*
X16687158Y-14070246D01*
X16687158Y-14070246D02*
X16687158Y-14060722D01*
X16687158Y-14060722D02*
X16696682Y-14041674D01*
X16696682Y-14041674D02*
X16715730Y-14032150D01*
X16715730Y-14032150D02*
X16744301Y-14032150D01*
X16744301Y-14032150D02*
X16763349Y-14041674D01*
X16839539Y-14241674D02*
X16849063Y-14232150D01*
X16849063Y-14232150D02*
X16868111Y-14203579D01*
X16868111Y-14203579D02*
X16877634Y-14184531D01*
X16877634Y-14184531D02*
X16887158Y-14155960D01*
X16887158Y-14155960D02*
X16896682Y-14108341D01*
X16896682Y-14108341D02*
X16896682Y-14070246D01*
X16896682Y-14070246D02*
X16887158Y-14022627D01*
X16887158Y-14022627D02*
X16877634Y-13994055D01*
X16877634Y-13994055D02*
X16868111Y-13975008D01*
X16868111Y-13975008D02*
X16849063Y-13946436D01*
X16849063Y-13946436D02*
X16839539Y-13936912D01*
D10*
X11859795Y-14372295D02*
X11859795Y-14303705D01*
X11791205Y-14303705D01*
X11791205Y-14372295D01*
X11859795Y-14372295D01*
D11*
X12172872Y-14229484D02*
X12191920Y-14229484D01*
X12191920Y-14229484D02*
X12210967Y-14239008D01*
X12210967Y-14239008D02*
X12220491Y-14248531D01*
X12220491Y-14248531D02*
X12230015Y-14267579D01*
X12230015Y-14267579D02*
X12239539Y-14305674D01*
X12239539Y-14305674D02*
X12239539Y-14353293D01*
X12239539Y-14353293D02*
X12230015Y-14391388D01*
X12230015Y-14391388D02*
X12220491Y-14410436D01*
X12220491Y-14410436D02*
X12210967Y-14419960D01*
X12210967Y-14419960D02*
X12191920Y-14429484D01*
X12191920Y-14429484D02*
X12172872Y-14429484D01*
X12172872Y-14429484D02*
X12153824Y-14419960D01*
X12153824Y-14419960D02*
X12144301Y-14410436D01*
X12144301Y-14410436D02*
X12134777Y-14391388D01*
X12134777Y-14391388D02*
X12125253Y-14353293D01*
X12125253Y-14353293D02*
X12125253Y-14305674D01*
X12125253Y-14305674D02*
X12134777Y-14267579D01*
X12134777Y-14267579D02*
X12144301Y-14248531D01*
X12144301Y-14248531D02*
X12153824Y-14239008D01*
X12153824Y-14239008D02*
X12172872Y-14229484D01*
X12325253Y-14410436D02*
X12334777Y-14419960D01*
X12334777Y-14419960D02*
X12325253Y-14429484D01*
X12325253Y-14429484D02*
X12315729Y-14419960D01*
X12315729Y-14419960D02*
X12325253Y-14410436D01*
X12325253Y-14410436D02*
X12325253Y-14429484D01*
X12430015Y-14429484D02*
X12468110Y-14429484D01*
X12468110Y-14429484D02*
X12487158Y-14419960D01*
X12487158Y-14419960D02*
X12496682Y-14410436D01*
X12496682Y-14410436D02*
X12515729Y-14381865D01*
X12515729Y-14381865D02*
X12525253Y-14343769D01*
X12525253Y-14343769D02*
X12525253Y-14267579D01*
X12525253Y-14267579D02*
X12515729Y-14248531D01*
X12515729Y-14248531D02*
X12506205Y-14239008D01*
X12506205Y-14239008D02*
X12487158Y-14229484D01*
X12487158Y-14229484D02*
X12449062Y-14229484D01*
X12449062Y-14229484D02*
X12430015Y-14239008D01*
X12430015Y-14239008D02*
X12420491Y-14248531D01*
X12420491Y-14248531D02*
X12410967Y-14267579D01*
X12410967Y-14267579D02*
X12410967Y-14315198D01*
X12410967Y-14315198D02*
X12420491Y-14334246D01*
X12420491Y-14334246D02*
X12430015Y-14343769D01*
X12430015Y-14343769D02*
X12449062Y-14353293D01*
X12449062Y-14353293D02*
X12487158Y-14353293D01*
X12487158Y-14353293D02*
X12506205Y-14343769D01*
X12506205Y-14343769D02*
X12515729Y-14334246D01*
X12515729Y-14334246D02*
X12525253Y-14315198D01*
X12591920Y-14229484D02*
X12725253Y-14229484D01*
X12725253Y-14229484D02*
X12639539Y-14429484D01*
X12839539Y-14229484D02*
X12858586Y-14229484D01*
X12858586Y-14229484D02*
X12877634Y-14239008D01*
X12877634Y-14239008D02*
X12887158Y-14248531D01*
X12887158Y-14248531D02*
X12896682Y-14267579D01*
X12896682Y-14267579D02*
X12906205Y-14305674D01*
X12906205Y-14305674D02*
X12906205Y-14353293D01*
X12906205Y-14353293D02*
X12896682Y-14391388D01*
X12896682Y-14391388D02*
X12887158Y-14410436D01*
X12887158Y-14410436D02*
X12877634Y-14419960D01*
X12877634Y-14419960D02*
X12858586Y-14429484D01*
X12858586Y-14429484D02*
X12839539Y-14429484D01*
X12839539Y-14429484D02*
X12820491Y-14419960D01*
X12820491Y-14419960D02*
X12810967Y-14410436D01*
X12810967Y-14410436D02*
X12801443Y-14391388D01*
X12801443Y-14391388D02*
X12791920Y-14353293D01*
X12791920Y-14353293D02*
X12791920Y-14305674D01*
X12791920Y-14305674D02*
X12801443Y-14267579D01*
X12801443Y-14267579D02*
X12810967Y-14248531D01*
X12810967Y-14248531D02*
X12820491Y-14239008D01*
X12820491Y-14239008D02*
X12839539Y-14229484D01*
X12991920Y-14429484D02*
X12991920Y-14296150D01*
X12991920Y-14315198D02*
X13001443Y-14305674D01*
X13001443Y-14305674D02*
X13020491Y-14296150D01*
X13020491Y-14296150D02*
X13049063Y-14296150D01*
X13049063Y-14296150D02*
X13068110Y-14305674D01*
X13068110Y-14305674D02*
X13077634Y-14324722D01*
X13077634Y-14324722D02*
X13077634Y-14429484D01*
X13077634Y-14324722D02*
X13087158Y-14305674D01*
X13087158Y-14305674D02*
X13106205Y-14296150D01*
X13106205Y-14296150D02*
X13134777Y-14296150D01*
X13134777Y-14296150D02*
X13153824Y-14305674D01*
X13153824Y-14305674D02*
X13163348Y-14324722D01*
X13163348Y-14324722D02*
X13163348Y-14429484D01*
X13258586Y-14429484D02*
X13258586Y-14296150D01*
X13258586Y-14315198D02*
X13268110Y-14305674D01*
X13268110Y-14305674D02*
X13287158Y-14296150D01*
X13287158Y-14296150D02*
X13315729Y-14296150D01*
X13315729Y-14296150D02*
X13334777Y-14305674D01*
X13334777Y-14305674D02*
X13344301Y-14324722D01*
X13344301Y-14324722D02*
X13344301Y-14429484D01*
X13344301Y-14324722D02*
X13353824Y-14305674D01*
X13353824Y-14305674D02*
X13372872Y-14296150D01*
X13372872Y-14296150D02*
X13401443Y-14296150D01*
X13401443Y-14296150D02*
X13420491Y-14305674D01*
X13420491Y-14305674D02*
X13430015Y-14324722D01*
X13430015Y-14324722D02*
X13430015Y-14429484D01*
X13820491Y-14219960D02*
X13649063Y-14477103D01*
X14077634Y-14229484D02*
X14096682Y-14229484D01*
X14096682Y-14229484D02*
X14115729Y-14239008D01*
X14115729Y-14239008D02*
X14125253Y-14248531D01*
X14125253Y-14248531D02*
X14134777Y-14267579D01*
X14134777Y-14267579D02*
X14144301Y-14305674D01*
X14144301Y-14305674D02*
X14144301Y-14353293D01*
X14144301Y-14353293D02*
X14134777Y-14391388D01*
X14134777Y-14391388D02*
X14125253Y-14410436D01*
X14125253Y-14410436D02*
X14115729Y-14419960D01*
X14115729Y-14419960D02*
X14096682Y-14429484D01*
X14096682Y-14429484D02*
X14077634Y-14429484D01*
X14077634Y-14429484D02*
X14058586Y-14419960D01*
X14058586Y-14419960D02*
X14049063Y-14410436D01*
X14049063Y-14410436D02*
X14039539Y-14391388D01*
X14039539Y-14391388D02*
X14030015Y-14353293D01*
X14030015Y-14353293D02*
X14030015Y-14305674D01*
X14030015Y-14305674D02*
X14039539Y-14267579D01*
X14039539Y-14267579D02*
X14049063Y-14248531D01*
X14049063Y-14248531D02*
X14058586Y-14239008D01*
X14058586Y-14239008D02*
X14077634Y-14229484D01*
X14230015Y-14410436D02*
X14239539Y-14419960D01*
X14239539Y-14419960D02*
X14230015Y-14429484D01*
X14230015Y-14429484D02*
X14220491Y-14419960D01*
X14220491Y-14419960D02*
X14230015Y-14410436D01*
X14230015Y-14410436D02*
X14230015Y-14429484D01*
X14363348Y-14229484D02*
X14382396Y-14229484D01*
X14382396Y-14229484D02*
X14401444Y-14239008D01*
X14401444Y-14239008D02*
X14410967Y-14248531D01*
X14410967Y-14248531D02*
X14420491Y-14267579D01*
X14420491Y-14267579D02*
X14430015Y-14305674D01*
X14430015Y-14305674D02*
X14430015Y-14353293D01*
X14430015Y-14353293D02*
X14420491Y-14391388D01*
X14420491Y-14391388D02*
X14410967Y-14410436D01*
X14410967Y-14410436D02*
X14401444Y-14419960D01*
X14401444Y-14419960D02*
X14382396Y-14429484D01*
X14382396Y-14429484D02*
X14363348Y-14429484D01*
X14363348Y-14429484D02*
X14344301Y-14419960D01*
X14344301Y-14419960D02*
X14334777Y-14410436D01*
X14334777Y-14410436D02*
X14325253Y-14391388D01*
X14325253Y-14391388D02*
X14315729Y-14353293D01*
X14315729Y-14353293D02*
X14315729Y-14305674D01*
X14315729Y-14305674D02*
X14325253Y-14267579D01*
X14325253Y-14267579D02*
X14334777Y-14248531D01*
X14334777Y-14248531D02*
X14344301Y-14239008D01*
X14344301Y-14239008D02*
X14363348Y-14229484D01*
X14496682Y-14229484D02*
X14620491Y-14229484D01*
X14620491Y-14229484D02*
X14553825Y-14305674D01*
X14553825Y-14305674D02*
X14582396Y-14305674D01*
X14582396Y-14305674D02*
X14601444Y-14315198D01*
X14601444Y-14315198D02*
X14610967Y-14324722D01*
X14610967Y-14324722D02*
X14620491Y-14343769D01*
X14620491Y-14343769D02*
X14620491Y-14391388D01*
X14620491Y-14391388D02*
X14610967Y-14410436D01*
X14610967Y-14410436D02*
X14601444Y-14419960D01*
X14601444Y-14419960D02*
X14582396Y-14429484D01*
X14582396Y-14429484D02*
X14525253Y-14429484D01*
X14525253Y-14429484D02*
X14506206Y-14419960D01*
X14506206Y-14419960D02*
X14496682Y-14410436D01*
X14734777Y-14315198D02*
X14715729Y-14305674D01*
X14715729Y-14305674D02*
X14706206Y-14296150D01*
X14706206Y-14296150D02*
X14696682Y-14277103D01*
X14696682Y-14277103D02*
X14696682Y-14267579D01*
X14696682Y-14267579D02*
X14706206Y-14248531D01*
X14706206Y-14248531D02*
X14715729Y-14239008D01*
X14715729Y-14239008D02*
X14734777Y-14229484D01*
X14734777Y-14229484D02*
X14772872Y-14229484D01*
X14772872Y-14229484D02*
X14791920Y-14239008D01*
X14791920Y-14239008D02*
X14801444Y-14248531D01*
X14801444Y-14248531D02*
X14810967Y-14267579D01*
X14810967Y-14267579D02*
X14810967Y-14277103D01*
X14810967Y-14277103D02*
X14801444Y-14296150D01*
X14801444Y-14296150D02*
X14791920Y-14305674D01*
X14791920Y-14305674D02*
X14772872Y-14315198D01*
X14772872Y-14315198D02*
X14734777Y-14315198D01*
X14734777Y-14315198D02*
X14715729Y-14324722D01*
X14715729Y-14324722D02*
X14706206Y-14334246D01*
X14706206Y-14334246D02*
X14696682Y-14353293D01*
X14696682Y-14353293D02*
X14696682Y-14391388D01*
X14696682Y-14391388D02*
X14706206Y-14410436D01*
X14706206Y-14410436D02*
X14715729Y-14419960D01*
X14715729Y-14419960D02*
X14734777Y-14429484D01*
X14734777Y-14429484D02*
X14772872Y-14429484D01*
X14772872Y-14429484D02*
X14791920Y-14419960D01*
X14791920Y-14419960D02*
X14801444Y-14410436D01*
X14801444Y-14410436D02*
X14810967Y-14391388D01*
X14810967Y-14391388D02*
X14810967Y-14353293D01*
X14810967Y-14353293D02*
X14801444Y-14334246D01*
X14801444Y-14334246D02*
X14791920Y-14324722D01*
X14791920Y-14324722D02*
X14772872Y-14315198D01*
X14887158Y-14248531D02*
X14896682Y-14239008D01*
X14896682Y-14239008D02*
X14915729Y-14229484D01*
X14915729Y-14229484D02*
X14963348Y-14229484D01*
X14963348Y-14229484D02*
X14982396Y-14239008D01*
X14982396Y-14239008D02*
X14991920Y-14248531D01*
X14991920Y-14248531D02*
X15001444Y-14267579D01*
X15001444Y-14267579D02*
X15001444Y-14286627D01*
X15001444Y-14286627D02*
X14991920Y-14315198D01*
X14991920Y-14315198D02*
X14877634Y-14429484D01*
X14877634Y-14429484D02*
X15001444Y-14429484D01*
X15077634Y-14229484D02*
X15077634Y-14267579D01*
X15153825Y-14229484D02*
X15153825Y-14267579D01*
X15449063Y-14505674D02*
X15439539Y-14496150D01*
X15439539Y-14496150D02*
X15420491Y-14467579D01*
X15420491Y-14467579D02*
X15410968Y-14448531D01*
X15410968Y-14448531D02*
X15401444Y-14419960D01*
X15401444Y-14419960D02*
X15391920Y-14372341D01*
X15391920Y-14372341D02*
X15391920Y-14334246D01*
X15391920Y-14334246D02*
X15401444Y-14286627D01*
X15401444Y-14286627D02*
X15410968Y-14258055D01*
X15410968Y-14258055D02*
X15420491Y-14239008D01*
X15420491Y-14239008D02*
X15439539Y-14210436D01*
X15439539Y-14210436D02*
X15449063Y-14200912D01*
X15515729Y-14248531D02*
X15525253Y-14239008D01*
X15525253Y-14239008D02*
X15544301Y-14229484D01*
X15544301Y-14229484D02*
X15591920Y-14229484D01*
X15591920Y-14229484D02*
X15610968Y-14239008D01*
X15610968Y-14239008D02*
X15620491Y-14248531D01*
X15620491Y-14248531D02*
X15630015Y-14267579D01*
X15630015Y-14267579D02*
X15630015Y-14286627D01*
X15630015Y-14286627D02*
X15620491Y-14315198D01*
X15620491Y-14315198D02*
X15506206Y-14429484D01*
X15506206Y-14429484D02*
X15630015Y-14429484D01*
X15868110Y-14429484D02*
X15868110Y-14229484D01*
X15953825Y-14429484D02*
X15953825Y-14324722D01*
X15953825Y-14324722D02*
X15944301Y-14305674D01*
X15944301Y-14305674D02*
X15925253Y-14296150D01*
X15925253Y-14296150D02*
X15896682Y-14296150D01*
X15896682Y-14296150D02*
X15877634Y-14305674D01*
X15877634Y-14305674D02*
X15868110Y-14315198D01*
X16077634Y-14429484D02*
X16058587Y-14419960D01*
X16058587Y-14419960D02*
X16049063Y-14410436D01*
X16049063Y-14410436D02*
X16039539Y-14391388D01*
X16039539Y-14391388D02*
X16039539Y-14334246D01*
X16039539Y-14334246D02*
X16049063Y-14315198D01*
X16049063Y-14315198D02*
X16058587Y-14305674D01*
X16058587Y-14305674D02*
X16077634Y-14296150D01*
X16077634Y-14296150D02*
X16106206Y-14296150D01*
X16106206Y-14296150D02*
X16125253Y-14305674D01*
X16125253Y-14305674D02*
X16134777Y-14315198D01*
X16134777Y-14315198D02*
X16144301Y-14334246D01*
X16144301Y-14334246D02*
X16144301Y-14391388D01*
X16144301Y-14391388D02*
X16134777Y-14410436D01*
X16134777Y-14410436D02*
X16125253Y-14419960D01*
X16125253Y-14419960D02*
X16106206Y-14429484D01*
X16106206Y-14429484D02*
X16077634Y-14429484D01*
X16258587Y-14429484D02*
X16239539Y-14419960D01*
X16239539Y-14419960D02*
X16230015Y-14400912D01*
X16230015Y-14400912D02*
X16230015Y-14229484D01*
X16410968Y-14419960D02*
X16391920Y-14429484D01*
X16391920Y-14429484D02*
X16353825Y-14429484D01*
X16353825Y-14429484D02*
X16334777Y-14419960D01*
X16334777Y-14419960D02*
X16325253Y-14400912D01*
X16325253Y-14400912D02*
X16325253Y-14324722D01*
X16325253Y-14324722D02*
X16334777Y-14305674D01*
X16334777Y-14305674D02*
X16353825Y-14296150D01*
X16353825Y-14296150D02*
X16391920Y-14296150D01*
X16391920Y-14296150D02*
X16410968Y-14305674D01*
X16410968Y-14305674D02*
X16420491Y-14324722D01*
X16420491Y-14324722D02*
X16420491Y-14343769D01*
X16420491Y-14343769D02*
X16325253Y-14362817D01*
X16496682Y-14419960D02*
X16515730Y-14429484D01*
X16515730Y-14429484D02*
X16553825Y-14429484D01*
X16553825Y-14429484D02*
X16572872Y-14419960D01*
X16572872Y-14419960D02*
X16582396Y-14400912D01*
X16582396Y-14400912D02*
X16582396Y-14391388D01*
X16582396Y-14391388D02*
X16572872Y-14372341D01*
X16572872Y-14372341D02*
X16553825Y-14362817D01*
X16553825Y-14362817D02*
X16525253Y-14362817D01*
X16525253Y-14362817D02*
X16506206Y-14353293D01*
X16506206Y-14353293D02*
X16496682Y-14334246D01*
X16496682Y-14334246D02*
X16496682Y-14324722D01*
X16496682Y-14324722D02*
X16506206Y-14305674D01*
X16506206Y-14305674D02*
X16525253Y-14296150D01*
X16525253Y-14296150D02*
X16553825Y-14296150D01*
X16553825Y-14296150D02*
X16572872Y-14305674D01*
X16649063Y-14505674D02*
X16658587Y-14496150D01*
X16658587Y-14496150D02*
X16677634Y-14467579D01*
X16677634Y-14467579D02*
X16687158Y-14448531D01*
X16687158Y-14448531D02*
X16696682Y-14419960D01*
X16696682Y-14419960D02*
X16706206Y-14372341D01*
X16706206Y-14372341D02*
X16706206Y-14334246D01*
X16706206Y-14334246D02*
X16696682Y-14286627D01*
X16696682Y-14286627D02*
X16687158Y-14258055D01*
X16687158Y-14258055D02*
X16677634Y-14239008D01*
X16677634Y-14239008D02*
X16658587Y-14210436D01*
X16658587Y-14210436D02*
X16649063Y-14200912D01*
D10*
X11824000Y-14652000D02*
X11874000Y-14602000D01*
X11824000Y-14552000D01*
X11774000Y-14602000D01*
X11824000Y-14652000D01*
D11*
X12239539Y-14693484D02*
X12125253Y-14693484D01*
X12182396Y-14693484D02*
X12182396Y-14493484D01*
X12182396Y-14493484D02*
X12163348Y-14522055D01*
X12163348Y-14522055D02*
X12144301Y-14541103D01*
X12144301Y-14541103D02*
X12125253Y-14550627D01*
X12325253Y-14674436D02*
X12334777Y-14683960D01*
X12334777Y-14683960D02*
X12325253Y-14693484D01*
X12325253Y-14693484D02*
X12315729Y-14683960D01*
X12315729Y-14683960D02*
X12325253Y-14674436D01*
X12325253Y-14674436D02*
X12325253Y-14693484D01*
X12458586Y-14493484D02*
X12477634Y-14493484D01*
X12477634Y-14493484D02*
X12496682Y-14503008D01*
X12496682Y-14503008D02*
X12506205Y-14512531D01*
X12506205Y-14512531D02*
X12515729Y-14531579D01*
X12515729Y-14531579D02*
X12525253Y-14569674D01*
X12525253Y-14569674D02*
X12525253Y-14617293D01*
X12525253Y-14617293D02*
X12515729Y-14655388D01*
X12515729Y-14655388D02*
X12506205Y-14674436D01*
X12506205Y-14674436D02*
X12496682Y-14683960D01*
X12496682Y-14683960D02*
X12477634Y-14693484D01*
X12477634Y-14693484D02*
X12458586Y-14693484D01*
X12458586Y-14693484D02*
X12439539Y-14683960D01*
X12439539Y-14683960D02*
X12430015Y-14674436D01*
X12430015Y-14674436D02*
X12420491Y-14655388D01*
X12420491Y-14655388D02*
X12410967Y-14617293D01*
X12410967Y-14617293D02*
X12410967Y-14569674D01*
X12410967Y-14569674D02*
X12420491Y-14531579D01*
X12420491Y-14531579D02*
X12430015Y-14512531D01*
X12430015Y-14512531D02*
X12439539Y-14503008D01*
X12439539Y-14503008D02*
X12458586Y-14493484D01*
X12649062Y-14493484D02*
X12668110Y-14493484D01*
X12668110Y-14493484D02*
X12687158Y-14503008D01*
X12687158Y-14503008D02*
X12696682Y-14512531D01*
X12696682Y-14512531D02*
X12706205Y-14531579D01*
X12706205Y-14531579D02*
X12715729Y-14569674D01*
X12715729Y-14569674D02*
X12715729Y-14617293D01*
X12715729Y-14617293D02*
X12706205Y-14655388D01*
X12706205Y-14655388D02*
X12696682Y-14674436D01*
X12696682Y-14674436D02*
X12687158Y-14683960D01*
X12687158Y-14683960D02*
X12668110Y-14693484D01*
X12668110Y-14693484D02*
X12649062Y-14693484D01*
X12649062Y-14693484D02*
X12630015Y-14683960D01*
X12630015Y-14683960D02*
X12620491Y-14674436D01*
X12620491Y-14674436D02*
X12610967Y-14655388D01*
X12610967Y-14655388D02*
X12601443Y-14617293D01*
X12601443Y-14617293D02*
X12601443Y-14569674D01*
X12601443Y-14569674D02*
X12610967Y-14531579D01*
X12610967Y-14531579D02*
X12620491Y-14512531D01*
X12620491Y-14512531D02*
X12630015Y-14503008D01*
X12630015Y-14503008D02*
X12649062Y-14493484D01*
X12839539Y-14493484D02*
X12858586Y-14493484D01*
X12858586Y-14493484D02*
X12877634Y-14503008D01*
X12877634Y-14503008D02*
X12887158Y-14512531D01*
X12887158Y-14512531D02*
X12896682Y-14531579D01*
X12896682Y-14531579D02*
X12906205Y-14569674D01*
X12906205Y-14569674D02*
X12906205Y-14617293D01*
X12906205Y-14617293D02*
X12896682Y-14655388D01*
X12896682Y-14655388D02*
X12887158Y-14674436D01*
X12887158Y-14674436D02*
X12877634Y-14683960D01*
X12877634Y-14683960D02*
X12858586Y-14693484D01*
X12858586Y-14693484D02*
X12839539Y-14693484D01*
X12839539Y-14693484D02*
X12820491Y-14683960D01*
X12820491Y-14683960D02*
X12810967Y-14674436D01*
X12810967Y-14674436D02*
X12801443Y-14655388D01*
X12801443Y-14655388D02*
X12791920Y-14617293D01*
X12791920Y-14617293D02*
X12791920Y-14569674D01*
X12791920Y-14569674D02*
X12801443Y-14531579D01*
X12801443Y-14531579D02*
X12810967Y-14512531D01*
X12810967Y-14512531D02*
X12820491Y-14503008D01*
X12820491Y-14503008D02*
X12839539Y-14493484D01*
X12991920Y-14693484D02*
X12991920Y-14560150D01*
X12991920Y-14579198D02*
X13001443Y-14569674D01*
X13001443Y-14569674D02*
X13020491Y-14560150D01*
X13020491Y-14560150D02*
X13049063Y-14560150D01*
X13049063Y-14560150D02*
X13068110Y-14569674D01*
X13068110Y-14569674D02*
X13077634Y-14588722D01*
X13077634Y-14588722D02*
X13077634Y-14693484D01*
X13077634Y-14588722D02*
X13087158Y-14569674D01*
X13087158Y-14569674D02*
X13106205Y-14560150D01*
X13106205Y-14560150D02*
X13134777Y-14560150D01*
X13134777Y-14560150D02*
X13153824Y-14569674D01*
X13153824Y-14569674D02*
X13163348Y-14588722D01*
X13163348Y-14588722D02*
X13163348Y-14693484D01*
X13258586Y-14693484D02*
X13258586Y-14560150D01*
X13258586Y-14579198D02*
X13268110Y-14569674D01*
X13268110Y-14569674D02*
X13287158Y-14560150D01*
X13287158Y-14560150D02*
X13315729Y-14560150D01*
X13315729Y-14560150D02*
X13334777Y-14569674D01*
X13334777Y-14569674D02*
X13344301Y-14588722D01*
X13344301Y-14588722D02*
X13344301Y-14693484D01*
X13344301Y-14588722D02*
X13353824Y-14569674D01*
X13353824Y-14569674D02*
X13372872Y-14560150D01*
X13372872Y-14560150D02*
X13401443Y-14560150D01*
X13401443Y-14560150D02*
X13420491Y-14569674D01*
X13420491Y-14569674D02*
X13430015Y-14588722D01*
X13430015Y-14588722D02*
X13430015Y-14693484D01*
X13820491Y-14483960D02*
X13649063Y-14741103D01*
X14077634Y-14493484D02*
X14096682Y-14493484D01*
X14096682Y-14493484D02*
X14115729Y-14503008D01*
X14115729Y-14503008D02*
X14125253Y-14512531D01*
X14125253Y-14512531D02*
X14134777Y-14531579D01*
X14134777Y-14531579D02*
X14144301Y-14569674D01*
X14144301Y-14569674D02*
X14144301Y-14617293D01*
X14144301Y-14617293D02*
X14134777Y-14655388D01*
X14134777Y-14655388D02*
X14125253Y-14674436D01*
X14125253Y-14674436D02*
X14115729Y-14683960D01*
X14115729Y-14683960D02*
X14096682Y-14693484D01*
X14096682Y-14693484D02*
X14077634Y-14693484D01*
X14077634Y-14693484D02*
X14058586Y-14683960D01*
X14058586Y-14683960D02*
X14049063Y-14674436D01*
X14049063Y-14674436D02*
X14039539Y-14655388D01*
X14039539Y-14655388D02*
X14030015Y-14617293D01*
X14030015Y-14617293D02*
X14030015Y-14569674D01*
X14030015Y-14569674D02*
X14039539Y-14531579D01*
X14039539Y-14531579D02*
X14049063Y-14512531D01*
X14049063Y-14512531D02*
X14058586Y-14503008D01*
X14058586Y-14503008D02*
X14077634Y-14493484D01*
X14230015Y-14674436D02*
X14239539Y-14683960D01*
X14239539Y-14683960D02*
X14230015Y-14693484D01*
X14230015Y-14693484D02*
X14220491Y-14683960D01*
X14220491Y-14683960D02*
X14230015Y-14674436D01*
X14230015Y-14674436D02*
X14230015Y-14693484D01*
X14363348Y-14493484D02*
X14382396Y-14493484D01*
X14382396Y-14493484D02*
X14401444Y-14503008D01*
X14401444Y-14503008D02*
X14410967Y-14512531D01*
X14410967Y-14512531D02*
X14420491Y-14531579D01*
X14420491Y-14531579D02*
X14430015Y-14569674D01*
X14430015Y-14569674D02*
X14430015Y-14617293D01*
X14430015Y-14617293D02*
X14420491Y-14655388D01*
X14420491Y-14655388D02*
X14410967Y-14674436D01*
X14410967Y-14674436D02*
X14401444Y-14683960D01*
X14401444Y-14683960D02*
X14382396Y-14693484D01*
X14382396Y-14693484D02*
X14363348Y-14693484D01*
X14363348Y-14693484D02*
X14344301Y-14683960D01*
X14344301Y-14683960D02*
X14334777Y-14674436D01*
X14334777Y-14674436D02*
X14325253Y-14655388D01*
X14325253Y-14655388D02*
X14315729Y-14617293D01*
X14315729Y-14617293D02*
X14315729Y-14569674D01*
X14315729Y-14569674D02*
X14325253Y-14531579D01*
X14325253Y-14531579D02*
X14334777Y-14512531D01*
X14334777Y-14512531D02*
X14344301Y-14503008D01*
X14344301Y-14503008D02*
X14363348Y-14493484D01*
X14496682Y-14493484D02*
X14620491Y-14493484D01*
X14620491Y-14493484D02*
X14553825Y-14569674D01*
X14553825Y-14569674D02*
X14582396Y-14569674D01*
X14582396Y-14569674D02*
X14601444Y-14579198D01*
X14601444Y-14579198D02*
X14610967Y-14588722D01*
X14610967Y-14588722D02*
X14620491Y-14607769D01*
X14620491Y-14607769D02*
X14620491Y-14655388D01*
X14620491Y-14655388D02*
X14610967Y-14674436D01*
X14610967Y-14674436D02*
X14601444Y-14683960D01*
X14601444Y-14683960D02*
X14582396Y-14693484D01*
X14582396Y-14693484D02*
X14525253Y-14693484D01*
X14525253Y-14693484D02*
X14506206Y-14683960D01*
X14506206Y-14683960D02*
X14496682Y-14674436D01*
X14715729Y-14693484D02*
X14753825Y-14693484D01*
X14753825Y-14693484D02*
X14772872Y-14683960D01*
X14772872Y-14683960D02*
X14782396Y-14674436D01*
X14782396Y-14674436D02*
X14801444Y-14645865D01*
X14801444Y-14645865D02*
X14810967Y-14607769D01*
X14810967Y-14607769D02*
X14810967Y-14531579D01*
X14810967Y-14531579D02*
X14801444Y-14512531D01*
X14801444Y-14512531D02*
X14791920Y-14503008D01*
X14791920Y-14503008D02*
X14772872Y-14493484D01*
X14772872Y-14493484D02*
X14734777Y-14493484D01*
X14734777Y-14493484D02*
X14715729Y-14503008D01*
X14715729Y-14503008D02*
X14706206Y-14512531D01*
X14706206Y-14512531D02*
X14696682Y-14531579D01*
X14696682Y-14531579D02*
X14696682Y-14579198D01*
X14696682Y-14579198D02*
X14706206Y-14598246D01*
X14706206Y-14598246D02*
X14715729Y-14607769D01*
X14715729Y-14607769D02*
X14734777Y-14617293D01*
X14734777Y-14617293D02*
X14772872Y-14617293D01*
X14772872Y-14617293D02*
X14791920Y-14607769D01*
X14791920Y-14607769D02*
X14801444Y-14598246D01*
X14801444Y-14598246D02*
X14810967Y-14579198D01*
X14982396Y-14560150D02*
X14982396Y-14693484D01*
X14934777Y-14483960D02*
X14887158Y-14626817D01*
X14887158Y-14626817D02*
X15010967Y-14626817D01*
X15077634Y-14493484D02*
X15077634Y-14531579D01*
X15153825Y-14493484D02*
X15153825Y-14531579D01*
X15449063Y-14769674D02*
X15439539Y-14760150D01*
X15439539Y-14760150D02*
X15420491Y-14731579D01*
X15420491Y-14731579D02*
X15410968Y-14712531D01*
X15410968Y-14712531D02*
X15401444Y-14683960D01*
X15401444Y-14683960D02*
X15391920Y-14636341D01*
X15391920Y-14636341D02*
X15391920Y-14598246D01*
X15391920Y-14598246D02*
X15401444Y-14550627D01*
X15401444Y-14550627D02*
X15410968Y-14522055D01*
X15410968Y-14522055D02*
X15420491Y-14503008D01*
X15420491Y-14503008D02*
X15439539Y-14474436D01*
X15439539Y-14474436D02*
X15449063Y-14464912D01*
X15610968Y-14493484D02*
X15572872Y-14493484D01*
X15572872Y-14493484D02*
X15553825Y-14503008D01*
X15553825Y-14503008D02*
X15544301Y-14512531D01*
X15544301Y-14512531D02*
X15525253Y-14541103D01*
X15525253Y-14541103D02*
X15515729Y-14579198D01*
X15515729Y-14579198D02*
X15515729Y-14655388D01*
X15515729Y-14655388D02*
X15525253Y-14674436D01*
X15525253Y-14674436D02*
X15534777Y-14683960D01*
X15534777Y-14683960D02*
X15553825Y-14693484D01*
X15553825Y-14693484D02*
X15591920Y-14693484D01*
X15591920Y-14693484D02*
X15610968Y-14683960D01*
X15610968Y-14683960D02*
X15620491Y-14674436D01*
X15620491Y-14674436D02*
X15630015Y-14655388D01*
X15630015Y-14655388D02*
X15630015Y-14607769D01*
X15630015Y-14607769D02*
X15620491Y-14588722D01*
X15620491Y-14588722D02*
X15610968Y-14579198D01*
X15610968Y-14579198D02*
X15591920Y-14569674D01*
X15591920Y-14569674D02*
X15553825Y-14569674D01*
X15553825Y-14569674D02*
X15534777Y-14579198D01*
X15534777Y-14579198D02*
X15525253Y-14588722D01*
X15525253Y-14588722D02*
X15515729Y-14607769D01*
X15868110Y-14693484D02*
X15868110Y-14493484D01*
X15953825Y-14693484D02*
X15953825Y-14588722D01*
X15953825Y-14588722D02*
X15944301Y-14569674D01*
X15944301Y-14569674D02*
X15925253Y-14560150D01*
X15925253Y-14560150D02*
X15896682Y-14560150D01*
X15896682Y-14560150D02*
X15877634Y-14569674D01*
X15877634Y-14569674D02*
X15868110Y-14579198D01*
X16077634Y-14693484D02*
X16058587Y-14683960D01*
X16058587Y-14683960D02*
X16049063Y-14674436D01*
X16049063Y-14674436D02*
X16039539Y-14655388D01*
X16039539Y-14655388D02*
X16039539Y-14598246D01*
X16039539Y-14598246D02*
X16049063Y-14579198D01*
X16049063Y-14579198D02*
X16058587Y-14569674D01*
X16058587Y-14569674D02*
X16077634Y-14560150D01*
X16077634Y-14560150D02*
X16106206Y-14560150D01*
X16106206Y-14560150D02*
X16125253Y-14569674D01*
X16125253Y-14569674D02*
X16134777Y-14579198D01*
X16134777Y-14579198D02*
X16144301Y-14598246D01*
X16144301Y-14598246D02*
X16144301Y-14655388D01*
X16144301Y-14655388D02*
X16134777Y-14674436D01*
X16134777Y-14674436D02*
X16125253Y-14683960D01*
X16125253Y-14683960D02*
X16106206Y-14693484D01*
X16106206Y-14693484D02*
X16077634Y-14693484D01*
X16258587Y-14693484D02*
X16239539Y-14683960D01*
X16239539Y-14683960D02*
X16230015Y-14664912D01*
X16230015Y-14664912D02*
X16230015Y-14493484D01*
X16410968Y-14683960D02*
X16391920Y-14693484D01*
X16391920Y-14693484D02*
X16353825Y-14693484D01*
X16353825Y-14693484D02*
X16334777Y-14683960D01*
X16334777Y-14683960D02*
X16325253Y-14664912D01*
X16325253Y-14664912D02*
X16325253Y-14588722D01*
X16325253Y-14588722D02*
X16334777Y-14569674D01*
X16334777Y-14569674D02*
X16353825Y-14560150D01*
X16353825Y-14560150D02*
X16391920Y-14560150D01*
X16391920Y-14560150D02*
X16410968Y-14569674D01*
X16410968Y-14569674D02*
X16420491Y-14588722D01*
X16420491Y-14588722D02*
X16420491Y-14607769D01*
X16420491Y-14607769D02*
X16325253Y-14626817D01*
X16496682Y-14683960D02*
X16515730Y-14693484D01*
X16515730Y-14693484D02*
X16553825Y-14693484D01*
X16553825Y-14693484D02*
X16572872Y-14683960D01*
X16572872Y-14683960D02*
X16582396Y-14664912D01*
X16582396Y-14664912D02*
X16582396Y-14655388D01*
X16582396Y-14655388D02*
X16572872Y-14636341D01*
X16572872Y-14636341D02*
X16553825Y-14626817D01*
X16553825Y-14626817D02*
X16525253Y-14626817D01*
X16525253Y-14626817D02*
X16506206Y-14617293D01*
X16506206Y-14617293D02*
X16496682Y-14598246D01*
X16496682Y-14598246D02*
X16496682Y-14588722D01*
X16496682Y-14588722D02*
X16506206Y-14569674D01*
X16506206Y-14569674D02*
X16525253Y-14560150D01*
X16525253Y-14560150D02*
X16553825Y-14560150D01*
X16553825Y-14560150D02*
X16572872Y-14569674D01*
X16649063Y-14769674D02*
X16658587Y-14760150D01*
X16658587Y-14760150D02*
X16677634Y-14731579D01*
X16677634Y-14731579D02*
X16687158Y-14712531D01*
X16687158Y-14712531D02*
X16696682Y-14683960D01*
X16696682Y-14683960D02*
X16706206Y-14636341D01*
X16706206Y-14636341D02*
X16706206Y-14598246D01*
X16706206Y-14598246D02*
X16696682Y-14550627D01*
X16696682Y-14550627D02*
X16687158Y-14522055D01*
X16687158Y-14522055D02*
X16677634Y-14503008D01*
X16677634Y-14503008D02*
X16658587Y-14474436D01*
X16658587Y-14474436D02*
X16649063Y-14464912D01*
M02*
