%TF.GenerationSoftware,KiCad,Pcbnew,8.0.3*%
%TF.CreationDate,2025-04-14T11:30:40+02:00*%
%TF.ProjectId,picoballoon,7069636f-6261-46c6-9c6f-6f6e2e6b6963,rev?*%
%TF.SameCoordinates,Original*%
%TF.FileFunction,Paste,Top*%
%TF.FilePolarity,Positive*%
%FSLAX46Y46*%
G04 Gerber Fmt 4.6, Leading zero omitted, Abs format (unit mm)*
G04 Created by KiCad (PCBNEW 8.0.3) date 2025-04-14 11:30:40*
%MOMM*%
%LPD*%
G01*
G04 APERTURE LIST*
G04 Aperture macros list*
%AMRoundRect*
0 Rectangle with rounded corners*
0 $1 Rounding radius*
0 $2 $3 $4 $5 $6 $7 $8 $9 X,Y pos of 4 corners*
0 Add a 4 corners polygon primitive as box body*
4,1,4,$2,$3,$4,$5,$6,$7,$8,$9,$2,$3,0*
0 Add four circle primitives for the rounded corners*
1,1,$1+$1,$2,$3*
1,1,$1+$1,$4,$5*
1,1,$1+$1,$6,$7*
1,1,$1+$1,$8,$9*
0 Add four rect primitives between the rounded corners*
20,1,$1+$1,$2,$3,$4,$5,0*
20,1,$1+$1,$4,$5,$6,$7,0*
20,1,$1+$1,$6,$7,$8,$9,0*
20,1,$1+$1,$8,$9,$2,$3,0*%
G04 Aperture macros list end*
%ADD10R,1.300000X0.600000*%
%ADD11RoundRect,0.237500X0.237500X-0.250000X0.237500X0.250000X-0.237500X0.250000X-0.237500X-0.250000X0*%
%ADD12RoundRect,0.237500X-0.300000X-0.237500X0.300000X-0.237500X0.300000X0.237500X-0.300000X0.237500X0*%
%ADD13RoundRect,0.237500X0.237500X-0.300000X0.237500X0.300000X-0.237500X0.300000X-0.237500X-0.300000X0*%
%ADD14RoundRect,0.237500X0.250000X0.237500X-0.250000X0.237500X-0.250000X-0.237500X0.250000X-0.237500X0*%
%ADD15RoundRect,0.237500X0.300000X0.237500X-0.300000X0.237500X-0.300000X-0.237500X0.300000X-0.237500X0*%
%ADD16RoundRect,0.150000X0.512500X0.150000X-0.512500X0.150000X-0.512500X-0.150000X0.512500X-0.150000X0*%
%ADD17R,1.200000X0.600000*%
%ADD18RoundRect,0.237500X-0.237500X0.300000X-0.237500X-0.300000X0.237500X-0.300000X0.237500X0.300000X0*%
%ADD19R,1.000000X1.000000*%
%ADD20R,1.050000X2.200000*%
%ADD21RoundRect,0.237500X0.237500X-0.287500X0.237500X0.287500X-0.237500X0.287500X-0.237500X-0.287500X0*%
%ADD22RoundRect,0.237500X-0.237500X0.250000X-0.237500X-0.250000X0.237500X-0.250000X0.237500X0.250000X0*%
%ADD23RoundRect,0.237500X-0.237500X0.287500X-0.237500X-0.287500X0.237500X-0.287500X0.237500X0.287500X0*%
%ADD24RoundRect,0.237500X-0.250000X-0.237500X0.250000X-0.237500X0.250000X0.237500X-0.250000X0.237500X0*%
%ADD25R,1.600000X1.250000*%
%ADD26RoundRect,0.237500X-0.287500X-0.237500X0.287500X-0.237500X0.287500X0.237500X-0.287500X0.237500X0*%
%ADD27RoundRect,0.150000X-0.150000X0.512500X-0.150000X-0.512500X0.150000X-0.512500X0.150000X0.512500X0*%
%ADD28R,1.200000X1.200000*%
%ADD29R,0.600000X1.250000*%
%ADD30RoundRect,0.075000X-0.700000X-0.075000X0.700000X-0.075000X0.700000X0.075000X-0.700000X0.075000X0*%
%ADD31RoundRect,0.075000X-0.075000X-0.700000X0.075000X-0.700000X0.075000X0.700000X-0.075000X0.700000X0*%
%ADD32RoundRect,0.125000X0.125000X-0.475000X0.125000X0.475000X-0.125000X0.475000X-0.125000X-0.475000X0*%
%ADD33R,1.250000X0.600000*%
%ADD34RoundRect,0.175000X0.725000X0.175000X-0.725000X0.175000X-0.725000X-0.175000X0.725000X-0.175000X0*%
%ADD35RoundRect,0.200000X0.700000X0.200000X-0.700000X0.200000X-0.700000X-0.200000X0.700000X-0.200000X0*%
%ADD36RoundRect,0.250000X0.315000X0.315000X-0.315000X0.315000X-0.315000X-0.315000X0.315000X-0.315000X0*%
%ADD37RoundRect,0.062500X0.362500X0.062500X-0.362500X0.062500X-0.362500X-0.062500X0.362500X-0.062500X0*%
%ADD38RoundRect,0.062500X0.062500X0.362500X-0.062500X0.362500X-0.062500X-0.362500X0.062500X-0.362500X0*%
%ADD39R,0.800000X0.450000*%
%ADD40R,1.600000X2.500000*%
G04 APERTURE END LIST*
D10*
%TO.C,Q1*%
X134850000Y-91270000D03*
X136950000Y-92220000D03*
X136950000Y-90320000D03*
%TD*%
D11*
%TO.C,R6*%
X152900000Y-121762500D03*
X152900000Y-119937500D03*
%TD*%
D12*
%TO.C,C29*%
X150841250Y-93695000D03*
X152566250Y-93695000D03*
%TD*%
D11*
%TO.C,R15*%
X147560000Y-121622500D03*
X147560000Y-119797500D03*
%TD*%
D13*
%TO.C,C37*%
X149980000Y-117952500D03*
X149980000Y-116227500D03*
%TD*%
D14*
%TO.C,R21*%
X136390000Y-88140000D03*
X134565000Y-88140000D03*
%TD*%
D15*
%TO.C,C30*%
X154306250Y-92045000D03*
X152581250Y-92045000D03*
%TD*%
D16*
%TO.C,U4*%
X156947500Y-109030000D03*
X156947500Y-108080000D03*
X156947500Y-107130000D03*
X154672500Y-107130000D03*
X154672500Y-109030000D03*
%TD*%
D12*
%TO.C,C7*%
X141537500Y-112100000D03*
X143262500Y-112100000D03*
%TD*%
D17*
%TO.C,PS1*%
X142640000Y-125060000D03*
X142640000Y-126010000D03*
X142640000Y-126960000D03*
X145140000Y-126960000D03*
X145140000Y-125060000D03*
%TD*%
D18*
%TO.C,C21*%
X158130000Y-115355000D03*
X158130000Y-117080000D03*
%TD*%
D13*
%TO.C,C19*%
X158810000Y-108960000D03*
X158810000Y-107235000D03*
%TD*%
D14*
%TO.C,R14*%
X134572500Y-114140000D03*
X132747500Y-114140000D03*
%TD*%
D15*
%TO.C,C28*%
X141926250Y-89775000D03*
X140201250Y-89775000D03*
%TD*%
%TO.C,C31*%
X155956250Y-97145000D03*
X154231250Y-97145000D03*
%TD*%
D19*
%TO.C,J3*%
X127080000Y-89300000D03*
D20*
X125605000Y-87800000D03*
D19*
X127080000Y-86300000D03*
D20*
X128555000Y-87800000D03*
%TD*%
D18*
%TO.C,C20*%
X156460000Y-115355000D03*
X156460000Y-117080000D03*
%TD*%
D12*
%TO.C,C11*%
X146885000Y-101940000D03*
X148610000Y-101940000D03*
%TD*%
D21*
%TO.C,D3*%
X152790000Y-126905000D03*
X152790000Y-125155000D03*
%TD*%
D14*
%TO.C,R12*%
X130790000Y-105760000D03*
X128965000Y-105760000D03*
%TD*%
D22*
%TO.C,R11*%
X128960000Y-112457500D03*
X128960000Y-114282500D03*
%TD*%
D18*
%TO.C,C24*%
X133002500Y-92567500D03*
X133002500Y-94292500D03*
%TD*%
D23*
%TO.C,L6*%
X152563750Y-95390000D03*
X152563750Y-97140000D03*
%TD*%
D13*
%TO.C,C18*%
X136230000Y-121112500D03*
X136230000Y-119387500D03*
%TD*%
D14*
%TO.C,R19*%
X143302500Y-117150000D03*
X141477500Y-117150000D03*
%TD*%
%TO.C,R13*%
X143292500Y-115500000D03*
X141467500Y-115500000D03*
%TD*%
D15*
%TO.C,C6*%
X130742500Y-104150000D03*
X129017500Y-104150000D03*
%TD*%
D24*
%TO.C,R7*%
X139597500Y-94480000D03*
X141422500Y-94480000D03*
%TD*%
D15*
%TO.C,C26*%
X145496250Y-88145000D03*
X143771250Y-88145000D03*
%TD*%
D12*
%TO.C,C17*%
X132827500Y-112530000D03*
X134552500Y-112530000D03*
%TD*%
D15*
%TO.C,C32*%
X157616250Y-100615000D03*
X155891250Y-100615000D03*
%TD*%
D25*
%TO.C,Y1*%
X145733750Y-98025000D03*
X149433750Y-98025000D03*
X145733750Y-95825000D03*
X149433750Y-95825000D03*
%TD*%
D12*
%TO.C,C9*%
X146877500Y-103540000D03*
X148602500Y-103540000D03*
%TD*%
D23*
%TO.C,L8*%
X155883750Y-102310000D03*
X155883750Y-104060000D03*
%TD*%
D26*
%TO.C,L1*%
X142995000Y-123270000D03*
X144745000Y-123270000D03*
%TD*%
D24*
%TO.C,R8*%
X140497500Y-96060000D03*
X142322500Y-96060000D03*
%TD*%
D27*
%TO.C,U6*%
X134567500Y-119080000D03*
X133617500Y-119080000D03*
X132667500Y-119080000D03*
X132667500Y-121355000D03*
X134567500Y-121355000D03*
%TD*%
D22*
%TO.C,R16*%
X145840000Y-119797500D03*
X145840000Y-121622500D03*
%TD*%
D12*
%TO.C,C8*%
X141537500Y-113780000D03*
X143262500Y-113780000D03*
%TD*%
D28*
%TO.C,D1*%
X130530000Y-121040000D03*
X127730000Y-121040000D03*
%TD*%
D15*
%TO.C,C27*%
X141923750Y-88145000D03*
X140198750Y-88145000D03*
%TD*%
%TO.C,C15*%
X130750000Y-110710000D03*
X129025000Y-110710000D03*
%TD*%
D24*
%TO.C,R20*%
X134847500Y-95650000D03*
X136672500Y-95650000D03*
%TD*%
D12*
%TO.C,C23*%
X155457500Y-118820000D03*
X157182500Y-118820000D03*
%TD*%
D13*
%TO.C,C3*%
X146970000Y-126882500D03*
X146970000Y-125157500D03*
%TD*%
D29*
%TO.C,FB3*%
X123120000Y-107780000D03*
X124920000Y-107780000D03*
%TD*%
D23*
%TO.C,L4*%
X149163750Y-88070000D03*
X149163750Y-89820000D03*
%TD*%
D12*
%TO.C,C12*%
X123125000Y-105850000D03*
X124850000Y-105850000D03*
%TD*%
D23*
%TO.C,D2*%
X130650000Y-112497500D03*
X130650000Y-114247500D03*
%TD*%
D30*
%TO.C,IC1*%
X133095000Y-100810000D03*
X133095000Y-101310000D03*
X133095000Y-101810000D03*
X133095000Y-102310000D03*
X133095000Y-102810000D03*
X133095000Y-103310000D03*
X133095000Y-103810000D03*
X133095000Y-104310000D03*
X133095000Y-104810000D03*
X133095000Y-105310000D03*
X133095000Y-105810000D03*
X133095000Y-106310000D03*
X133095000Y-106810000D03*
X133095000Y-107310000D03*
X133095000Y-107810000D03*
X133095000Y-108310000D03*
D31*
X135020000Y-110235000D03*
X135520000Y-110235000D03*
X136020000Y-110235000D03*
X136520000Y-110235000D03*
X137020000Y-110235000D03*
X137520000Y-110235000D03*
X138020000Y-110235000D03*
X138520000Y-110235000D03*
X139020000Y-110235000D03*
X139520000Y-110235000D03*
X140020000Y-110235000D03*
X140520000Y-110235000D03*
X141020000Y-110235000D03*
X141520000Y-110235000D03*
X142020000Y-110235000D03*
X142520000Y-110235000D03*
D30*
X144445000Y-108310000D03*
X144445000Y-107810000D03*
X144445000Y-107310000D03*
X144445000Y-106810000D03*
X144445000Y-106310000D03*
X144445000Y-105810000D03*
X144445000Y-105310000D03*
X144445000Y-104810000D03*
X144445000Y-104310000D03*
X144445000Y-103810000D03*
X144445000Y-103310000D03*
X144445000Y-102810000D03*
X144445000Y-102310000D03*
X144445000Y-101810000D03*
X144445000Y-101310000D03*
X144445000Y-100810000D03*
D31*
X142520000Y-98885000D03*
X142020000Y-98885000D03*
X141520000Y-98885000D03*
X141020000Y-98885000D03*
X140520000Y-98885000D03*
X140020000Y-98885000D03*
X139520000Y-98885000D03*
X139020000Y-98885000D03*
X138520000Y-98885000D03*
X138020000Y-98885000D03*
X137520000Y-98885000D03*
X137020000Y-98885000D03*
X136520000Y-98885000D03*
X136020000Y-98885000D03*
X135520000Y-98885000D03*
X135020000Y-98885000D03*
%TD*%
D12*
%TO.C,C10*%
X146877500Y-105170000D03*
X148602500Y-105170000D03*
%TD*%
D32*
%TO.C,U2*%
X154665000Y-113340000D03*
X155915000Y-113340000D03*
X157165000Y-113340000D03*
X158415000Y-113340000D03*
X158415000Y-111040000D03*
X157165000Y-111040000D03*
X155915000Y-111040000D03*
X154665000Y-111040000D03*
%TD*%
D24*
%TO.C,R3*%
X123645000Y-102550000D03*
X125470000Y-102550000D03*
%TD*%
D23*
%TO.C,L5*%
X149173750Y-91910000D03*
X149173750Y-93660000D03*
%TD*%
D33*
%TO.C,FB1*%
X148980000Y-126920000D03*
X148980000Y-125120000D03*
%TD*%
D18*
%TO.C,C2*%
X140780000Y-125157500D03*
X140780000Y-126882500D03*
%TD*%
D15*
%TO.C,C5*%
X130757500Y-102580000D03*
X129032500Y-102580000D03*
%TD*%
D34*
%TO.C,U5*%
X130660000Y-100240000D03*
D35*
X130660000Y-99140000D03*
X130660000Y-98040000D03*
X130660000Y-96940000D03*
X130660000Y-95840000D03*
X130660000Y-94740000D03*
X130660000Y-93640000D03*
X130660000Y-92540000D03*
D34*
X130660000Y-91440000D03*
X121160000Y-91440000D03*
D35*
X121160000Y-92540000D03*
X121160000Y-93640000D03*
X121160000Y-94740000D03*
X121160000Y-95840000D03*
X121160000Y-96940000D03*
X121160000Y-98040000D03*
X121160000Y-99140000D03*
D34*
X121160000Y-100240000D03*
%TD*%
D24*
%TO.C,R19*%
X134867500Y-94000000D03*
X136692500Y-94000000D03*
%TD*%
D22*
%TO.C,R1*%
X154520000Y-125107500D03*
X154520000Y-126932500D03*
%TD*%
D36*
%TO.C,U1*%
X146238750Y-92395000D03*
X146238750Y-91095000D03*
X144938750Y-92395000D03*
X144938750Y-91095000D03*
D37*
X147513750Y-92745000D03*
X147513750Y-92245000D03*
X147513750Y-91745000D03*
X147513750Y-91245000D03*
X147513750Y-90745000D03*
D38*
X146588750Y-89820000D03*
X146088750Y-89820000D03*
X145588750Y-89820000D03*
X145088750Y-89820000D03*
X144588750Y-89820000D03*
D37*
X143663750Y-90745000D03*
X143663750Y-91245000D03*
X143663750Y-91745000D03*
X143663750Y-92245000D03*
X143663750Y-92745000D03*
D38*
X144588750Y-93670000D03*
X145088750Y-93670000D03*
X145588750Y-93670000D03*
X146088750Y-93670000D03*
X146588750Y-93670000D03*
%TD*%
D39*
%TO.C,HM1*%
X157510000Y-122580000D03*
X157510000Y-121580000D03*
X157510000Y-120580000D03*
X154610000Y-120580000D03*
X154610000Y-121580000D03*
X154610000Y-122580000D03*
D40*
X156060000Y-121580000D03*
%TD*%
D23*
%TO.C,L7*%
X154233750Y-98870000D03*
X154233750Y-100620000D03*
%TD*%
D14*
%TO.C,R2*%
X148212500Y-110530000D03*
X146387500Y-110530000D03*
%TD*%
D24*
%TO.C,R4*%
X123645000Y-104140000D03*
X125470000Y-104140000D03*
%TD*%
D15*
%TO.C,C13*%
X130752500Y-107400000D03*
X129027500Y-107400000D03*
%TD*%
%TO.C,C33*%
X159256250Y-104055000D03*
X157531250Y-104055000D03*
%TD*%
%TO.C,C14*%
X130750000Y-109040000D03*
X129025000Y-109040000D03*
%TD*%
D11*
%TO.C,R5*%
X159120000Y-122582500D03*
X159120000Y-120757500D03*
%TD*%
D12*
%TO.C,C16*%
X146437500Y-108900000D03*
X148162500Y-108900000D03*
%TD*%
D18*
%TO.C,C4*%
X151050000Y-125147500D03*
X151050000Y-126872500D03*
%TD*%
%TO.C,C22*%
X154780000Y-115355000D03*
X154780000Y-117080000D03*
%TD*%
D24*
%TO.C,R18*%
X132757500Y-115720000D03*
X134582500Y-115720000D03*
%TD*%
D14*
%TO.C,R17*%
X134562500Y-117310000D03*
X132737500Y-117310000D03*
%TD*%
M02*
