M48
; DRILL file {KiCad 8.0.3} date 2024-10-19T23:10:22+0200
; FORMAT={-:-/ absolute / metric / decimal}
; #@! TF.CreationDate,2024-10-19T23:10:22+02:00
; #@! TF.GenerationSoftware,Kicad,Pcbnew,8.0.3
; #@! TF.FileFunction,Plated,1,2,PTH
FMAT,2
METRIC
; #@! TA.AperFunction,Plated,PTH,ComponentDrill
T1C0.200
; #@! TA.AperFunction,Plated,PTH,ViaDrill
T2C0.300
; #@! TA.AperFunction,Plated,PTH,ComponentDrill
T3C0.970
; #@! TA.AperFunction,Plated,PTH,ComponentDrill
T4C1.000
; #@! TA.AperFunction,Plated,PTH,ComponentDrill
T5C2.090
%
G90
G05
T1
X99.82Y-102.37
X99.82Y-103.42
X99.82Y-104.47
X100.87Y-102.42
X100.87Y-104.47
X100.88Y-103.43
X101.92Y-102.37
X101.92Y-103.42
X101.92Y-104.47
T2
X91.0Y-108.0
X91.0Y-110.0
X96.0Y-91.0
X96.0Y-95.0
X96.0Y-100.0
X98.0Y-91.0
X100.0Y-91.0
X102.0Y-91.0
X104.0Y-91.0
X104.0Y-95.0
X104.17Y-108.91
X105.07Y-108.95
X106.0Y-91.0
X106.03Y-108.97
X106.58Y-104.53
X106.58Y-105.38
X106.59Y-101.95
X106.61Y-101.14
X106.61Y-102.76
X106.61Y-103.64
X106.9Y-100.35
X106.94Y-108.98
X107.0Y-114.0
X107.35Y-99.55
X107.89Y-108.95
X108.0Y-91.0
X108.0Y-95.0
X108.0Y-99.16
X108.88Y-108.95
X109.0Y-99.21
X109.0Y-110.0
X109.0Y-114.0
X109.12Y-98.44
X109.13Y-97.57
X109.17Y-96.67
X109.19Y-95.73
X109.62Y-94.92
X109.79Y-108.69
X110.0Y-91.0
X110.21Y-107.79
X110.3Y-106.78
X110.35Y-103.2
X110.37Y-102.37
X110.56Y-94.88
X111.0Y-114.0
X111.45Y-91.54
X111.45Y-92.45
X111.47Y-93.35
X111.48Y-94.16
X111.48Y-94.89
X112.0Y-91.0
X112.58Y-98.02
X112.62Y-98.96
X113.0Y-91.0
X113.0Y-106.0
X113.0Y-110.0
X113.0Y-114.0
X113.6Y-98.04
X114.0Y-91.0
X115.0Y-91.0
X115.0Y-114.0
X116.0Y-91.0
X116.65Y-96.39
X116.97Y-96.99
X117.0Y-91.0
X117.0Y-98.0
X117.0Y-102.0
X117.0Y-106.0
X117.0Y-110.0
X117.0Y-114.0
X117.58Y-97.47
X117.99Y-93.94
X118.0Y-91.0
X118.13Y-98.05
X118.55Y-94.49
X118.73Y-98.55
X119.0Y-114.0
X119.12Y-95.01
X119.5Y-98.83
X119.63Y-95.51
X120.0Y-91.0
X120.26Y-95.96
X120.37Y-98.81
X121.0Y-102.0
X121.0Y-106.0
X121.0Y-110.0
X121.0Y-114.0
X121.05Y-96.05
X121.21Y-98.83
X121.82Y-96.07
X122.0Y-91.0
X122.0Y-94.0
X122.03Y-98.81
X122.6Y-95.83
X123.0Y-114.0
X124.0Y-91.0
X125.0Y-102.0
X125.0Y-106.0
X125.0Y-110.0
X125.0Y-114.0
X125.55Y-94.0
X126.0Y-91.0
X127.0Y-114.0
X128.0Y-91.0
X129.0Y-110.0
X129.0Y-114.0
X130.0Y-91.0
X131.0Y-114.0
X132.0Y-91.0
X133.0Y-114.0
X134.0Y-91.0
X134.0Y-94.0
X134.0Y-98.0
X134.0Y-102.0
X134.0Y-106.0
X134.0Y-110.0
X135.0Y-114.0
X136.0Y-91.0
X137.0Y-92.0
X137.0Y-94.0
X137.0Y-96.0
X137.0Y-98.0
X137.0Y-100.0
X137.0Y-102.0
X137.0Y-104.0
X137.0Y-106.0
X137.0Y-108.0
X137.0Y-110.0
X137.0Y-112.0
X137.0Y-114.0
T3
X123.72Y-97.44
X123.72Y-99.98
T4
X92.26Y-113.07
X92.35Y-92.75
X92.35Y-95.29
X92.35Y-97.83
X92.35Y-100.37
X92.35Y-102.91
X92.35Y-105.45
X94.8Y-113.07
X97.34Y-113.07
X99.88Y-113.07
X102.42Y-113.07
X104.96Y-113.07
T5
X128.8Y-94.9
X128.8Y-105.06
M30
