%TF.GenerationSoftware,KiCad,Pcbnew,8.0.3*%
%TF.CreationDate,2024-10-19T23:10:20+02:00*%
%TF.ProjectId,aprs_test_board,61707273-5f74-4657-9374-5f626f617264,rev?*%
%TF.SameCoordinates,Original*%
%TF.FileFunction,Soldermask,Top*%
%TF.FilePolarity,Negative*%
%FSLAX46Y46*%
G04 Gerber Fmt 4.6, Leading zero omitted, Abs format (unit mm)*
G04 Created by KiCad (PCBNEW 8.0.3) date 2024-10-19 23:10:20*
%MOMM*%
%LPD*%
G01*
G04 APERTURE LIST*
G04 Aperture macros list*
%AMRoundRect*
0 Rectangle with rounded corners*
0 $1 Rounding radius*
0 $2 $3 $4 $5 $6 $7 $8 $9 X,Y pos of 4 corners*
0 Add a 4 corners polygon primitive as box body*
4,1,4,$2,$3,$4,$5,$6,$7,$8,$9,$2,$3,0*
0 Add four circle primitives for the rounded corners*
1,1,$1+$1,$2,$3*
1,1,$1+$1,$4,$5*
1,1,$1+$1,$6,$7*
1,1,$1+$1,$8,$9*
0 Add four rect primitives between the rounded corners*
20,1,$1+$1,$2,$3,$4,$5,0*
20,1,$1+$1,$4,$5,$6,$7,0*
20,1,$1+$1,$6,$7,$8,$9,0*
20,1,$1+$1,$8,$9,$2,$3,0*%
G04 Aperture macros list end*
%ADD10R,1.600000X1.300000*%
%ADD11RoundRect,0.250000X-0.337500X-0.475000X0.337500X-0.475000X0.337500X0.475000X-0.337500X0.475000X0*%
%ADD12RoundRect,0.250000X0.450000X-0.325000X0.450000X0.325000X-0.450000X0.325000X-0.450000X-0.325000X0*%
%ADD13RoundRect,0.250000X0.337500X0.475000X-0.337500X0.475000X-0.337500X-0.475000X0.337500X-0.475000X0*%
%ADD14RoundRect,0.250000X-0.450000X0.325000X-0.450000X-0.325000X0.450000X-0.325000X0.450000X0.325000X0*%
%ADD15R,2.200000X2.200000*%
%ADD16C,2.200000*%
%ADD17RoundRect,0.062500X0.362500X0.062500X-0.362500X0.062500X-0.362500X-0.062500X0.362500X-0.062500X0*%
%ADD18RoundRect,0.062500X0.062500X0.362500X-0.062500X0.362500X-0.062500X-0.362500X0.062500X-0.362500X0*%
%ADD19R,2.600000X2.600000*%
%ADD20C,2.100000*%
%ADD21C,4.500000*%
G04 APERTURE END LIST*
D10*
%TO.C,Y1*%
X99920000Y-106980000D03*
X96620000Y-106980000D03*
X96620000Y-108980000D03*
X99920000Y-108980000D03*
%TD*%
D11*
%TO.C,C8*%
X100345000Y-95080000D03*
X102420000Y-95080000D03*
%TD*%
D12*
%TO.C,L4*%
X110910000Y-98430000D03*
X110910000Y-96380000D03*
%TD*%
D13*
%TO.C,C5*%
X117467500Y-92300000D03*
X115392500Y-92300000D03*
%TD*%
%TO.C,C4*%
X115237500Y-96385000D03*
X113162500Y-96385000D03*
%TD*%
D12*
%TO.C,L5*%
X113160000Y-94355000D03*
X113160000Y-92305000D03*
%TD*%
D13*
%TO.C,C3*%
X112957500Y-100685000D03*
X110882500Y-100685000D03*
%TD*%
D14*
%TO.C,L1*%
X104530000Y-101312500D03*
X104530000Y-103362500D03*
%TD*%
D13*
%TO.C,C2*%
X110687500Y-104995000D03*
X108612500Y-104995000D03*
%TD*%
D11*
%TO.C,C7*%
X100345000Y-97190000D03*
X102420000Y-97190000D03*
%TD*%
%TO.C,C6*%
X100342500Y-99290000D03*
X102417500Y-99290000D03*
%TD*%
D15*
%TO.C,J2*%
X92350000Y-92750000D03*
D16*
X92350000Y-95290000D03*
X92350000Y-97830000D03*
X92350000Y-100370000D03*
X92350000Y-102910000D03*
X92350000Y-105450000D03*
%TD*%
D15*
%TO.C,J3*%
X104960000Y-113070000D03*
D16*
X102420000Y-113070000D03*
X99880000Y-113070000D03*
X97340000Y-113070000D03*
X94800000Y-113070000D03*
X92260000Y-113070000D03*
%TD*%
D14*
%TO.C,L2*%
X104520000Y-105160000D03*
X104520000Y-107210000D03*
%TD*%
D17*
%TO.C,U1*%
X102795000Y-104420000D03*
X102795000Y-103920000D03*
X102795000Y-103420000D03*
X102795000Y-102920000D03*
X102795000Y-102420000D03*
D18*
X101870000Y-101495000D03*
X101370000Y-101495000D03*
X100870000Y-101495000D03*
X100370000Y-101495000D03*
X99870000Y-101495000D03*
D17*
X98945000Y-102420000D03*
X98945000Y-102920000D03*
X98945000Y-103420000D03*
X98945000Y-103920000D03*
X98945000Y-104420000D03*
D18*
X99870000Y-105345000D03*
X100370000Y-105345000D03*
X100870000Y-105345000D03*
X101370000Y-105345000D03*
X101870000Y-105345000D03*
D19*
X100870000Y-103420000D03*
%TD*%
D12*
%TO.C,L3*%
X108630000Y-102750000D03*
X108630000Y-100700000D03*
%TD*%
D20*
%TO.C,J1*%
X123720000Y-97440000D03*
X123720000Y-99980000D03*
D21*
X128800000Y-94900000D03*
X128800000Y-105060000D03*
%TD*%
D11*
%TO.C,C1*%
X106542500Y-107205000D03*
X108617500Y-107205000D03*
%TD*%
M02*
