%TF.GenerationSoftware,KiCad,Pcbnew,8.0.3*%
%TF.CreationDate,2024-10-23T17:10:48+02:00*%
%TF.ProjectId,aprs_test_board,61707273-5f74-4657-9374-5f626f617264,rev?*%
%TF.SameCoordinates,Original*%
%TF.FileFunction,Drillmap*%
%TF.FilePolarity,Positive*%
%FSLAX45Y45*%
G04 Gerber Fmt 4.5, Leading zero omitted, Abs format (unit mm)*
G04 Created by KiCad (PCBNEW 8.0.3) date 2024-10-23 17:10:48*
%MOMM*%
%LPD*%
G01*
G04 APERTURE LIST*
%ADD10C,0.050000*%
%ADD11C,0.200000*%
%ADD12C,0.100000*%
%ADD13C,0.209000*%
G04 APERTURE END LIST*
D10*
X8961000Y-8994000D02*
X13800000Y-8994000D01*
X13800000Y-11549000D01*
X8961000Y-11549000D01*
X8961000Y-8994000D01*
D11*
D12*
X9972000Y-10227000D02*
X9992000Y-10247000D01*
X9992000Y-10227000D02*
X9972000Y-10247000D01*
X9972000Y-10332000D02*
X9992000Y-10352000D01*
X9992000Y-10332000D02*
X9972000Y-10352000D01*
X9972000Y-10437000D02*
X9992000Y-10457000D01*
X9992000Y-10437000D02*
X9972000Y-10457000D01*
X10077000Y-10232000D02*
X10097000Y-10252000D01*
X10097000Y-10232000D02*
X10077000Y-10252000D01*
X10077000Y-10437000D02*
X10097000Y-10457000D01*
X10097000Y-10437000D02*
X10077000Y-10457000D01*
X10078000Y-10333000D02*
X10098000Y-10353000D01*
X10098000Y-10333000D02*
X10078000Y-10353000D01*
X10182000Y-10227000D02*
X10202000Y-10247000D01*
X10202000Y-10227000D02*
X10182000Y-10247000D01*
X10182000Y-10332000D02*
X10202000Y-10352000D01*
X10202000Y-10332000D02*
X10182000Y-10352000D01*
X10182000Y-10437000D02*
X10202000Y-10457000D01*
X10202000Y-10437000D02*
X10182000Y-10457000D01*
X9115000Y-10800000D02*
G75*
G02*
X9085000Y-10800000I-15000J0D01*
G01*
X9085000Y-10800000D02*
G75*
G02*
X9115000Y-10800000I15000J0D01*
G01*
X9115000Y-11000000D02*
G75*
G02*
X9085000Y-11000000I-15000J0D01*
G01*
X9085000Y-11000000D02*
G75*
G02*
X9115000Y-11000000I15000J0D01*
G01*
X9515000Y-10100000D02*
G75*
G02*
X9485000Y-10100000I-15000J0D01*
G01*
X9485000Y-10100000D02*
G75*
G02*
X9515000Y-10100000I15000J0D01*
G01*
X9615000Y-9100000D02*
G75*
G02*
X9585000Y-9100000I-15000J0D01*
G01*
X9585000Y-9100000D02*
G75*
G02*
X9615000Y-9100000I15000J0D01*
G01*
X9615000Y-9500000D02*
G75*
G02*
X9585000Y-9500000I-15000J0D01*
G01*
X9585000Y-9500000D02*
G75*
G02*
X9615000Y-9500000I15000J0D01*
G01*
X9615000Y-10000000D02*
G75*
G02*
X9585000Y-10000000I-15000J0D01*
G01*
X9585000Y-10000000D02*
G75*
G02*
X9615000Y-10000000I15000J0D01*
G01*
X9815000Y-9100000D02*
G75*
G02*
X9785000Y-9100000I-15000J0D01*
G01*
X9785000Y-9100000D02*
G75*
G02*
X9815000Y-9100000I15000J0D01*
G01*
X9815000Y-9600000D02*
G75*
G02*
X9785000Y-9600000I-15000J0D01*
G01*
X9785000Y-9600000D02*
G75*
G02*
X9815000Y-9600000I15000J0D01*
G01*
X10015000Y-9100000D02*
G75*
G02*
X9985000Y-9100000I-15000J0D01*
G01*
X9985000Y-9100000D02*
G75*
G02*
X10015000Y-9100000I15000J0D01*
G01*
X10165000Y-9250000D02*
G75*
G02*
X10135000Y-9250000I-15000J0D01*
G01*
X10135000Y-9250000D02*
G75*
G02*
X10165000Y-9250000I15000J0D01*
G01*
X10215000Y-9100000D02*
G75*
G02*
X10185000Y-9100000I-15000J0D01*
G01*
X10185000Y-9100000D02*
G75*
G02*
X10215000Y-9100000I15000J0D01*
G01*
X10415000Y-9100000D02*
G75*
G02*
X10385000Y-9100000I-15000J0D01*
G01*
X10385000Y-9100000D02*
G75*
G02*
X10415000Y-9100000I15000J0D01*
G01*
X10415000Y-9500000D02*
G75*
G02*
X10385000Y-9500000I-15000J0D01*
G01*
X10385000Y-9500000D02*
G75*
G02*
X10415000Y-9500000I15000J0D01*
G01*
X10432000Y-10891000D02*
G75*
G02*
X10402000Y-10891000I-15000J0D01*
G01*
X10402000Y-10891000D02*
G75*
G02*
X10432000Y-10891000I15000J0D01*
G01*
X10515000Y-9250000D02*
G75*
G02*
X10485000Y-9250000I-15000J0D01*
G01*
X10485000Y-9250000D02*
G75*
G02*
X10515000Y-9250000I15000J0D01*
G01*
X10515000Y-9850000D02*
G75*
G02*
X10485000Y-9850000I-15000J0D01*
G01*
X10485000Y-9850000D02*
G75*
G02*
X10515000Y-9850000I15000J0D01*
G01*
X10522000Y-10895000D02*
G75*
G02*
X10492000Y-10895000I-15000J0D01*
G01*
X10492000Y-10895000D02*
G75*
G02*
X10522000Y-10895000I15000J0D01*
G01*
X10615000Y-9500000D02*
G75*
G02*
X10585000Y-9500000I-15000J0D01*
G01*
X10585000Y-9500000D02*
G75*
G02*
X10615000Y-9500000I15000J0D01*
G01*
X10618000Y-9110000D02*
G75*
G02*
X10588000Y-9110000I-15000J0D01*
G01*
X10588000Y-9110000D02*
G75*
G02*
X10618000Y-9110000I15000J0D01*
G01*
X10621000Y-10945000D02*
G75*
G02*
X10591000Y-10945000I-15000J0D01*
G01*
X10591000Y-10945000D02*
G75*
G02*
X10621000Y-10945000I15000J0D01*
G01*
X10676000Y-10501000D02*
G75*
G02*
X10646000Y-10501000I-15000J0D01*
G01*
X10646000Y-10501000D02*
G75*
G02*
X10676000Y-10501000I15000J0D01*
G01*
X10676000Y-10586000D02*
G75*
G02*
X10646000Y-10586000I-15000J0D01*
G01*
X10646000Y-10586000D02*
G75*
G02*
X10676000Y-10586000I15000J0D01*
G01*
X10677000Y-10243000D02*
G75*
G02*
X10647000Y-10243000I-15000J0D01*
G01*
X10647000Y-10243000D02*
G75*
G02*
X10677000Y-10243000I15000J0D01*
G01*
X10679000Y-10162000D02*
G75*
G02*
X10649000Y-10162000I-15000J0D01*
G01*
X10649000Y-10162000D02*
G75*
G02*
X10679000Y-10162000I15000J0D01*
G01*
X10679000Y-10324000D02*
G75*
G02*
X10649000Y-10324000I-15000J0D01*
G01*
X10649000Y-10324000D02*
G75*
G02*
X10679000Y-10324000I15000J0D01*
G01*
X10679000Y-10412000D02*
G75*
G02*
X10649000Y-10412000I-15000J0D01*
G01*
X10649000Y-10412000D02*
G75*
G02*
X10679000Y-10412000I15000J0D01*
G01*
X10708000Y-10083000D02*
G75*
G02*
X10678000Y-10083000I-15000J0D01*
G01*
X10678000Y-10083000D02*
G75*
G02*
X10708000Y-10083000I15000J0D01*
G01*
X10712000Y-10946000D02*
G75*
G02*
X10682000Y-10946000I-15000J0D01*
G01*
X10682000Y-10946000D02*
G75*
G02*
X10712000Y-10946000I15000J0D01*
G01*
X10715000Y-9700000D02*
G75*
G02*
X10685000Y-9700000I-15000J0D01*
G01*
X10685000Y-9700000D02*
G75*
G02*
X10715000Y-9700000I15000J0D01*
G01*
X10715000Y-11400000D02*
G75*
G02*
X10685000Y-11400000I-15000J0D01*
G01*
X10685000Y-11400000D02*
G75*
G02*
X10715000Y-11400000I15000J0D01*
G01*
X10753000Y-10003000D02*
G75*
G02*
X10723000Y-10003000I-15000J0D01*
G01*
X10723000Y-10003000D02*
G75*
G02*
X10753000Y-10003000I15000J0D01*
G01*
X10807000Y-10943000D02*
G75*
G02*
X10777000Y-10943000I-15000J0D01*
G01*
X10777000Y-10943000D02*
G75*
G02*
X10807000Y-10943000I15000J0D01*
G01*
X10815000Y-9500000D02*
G75*
G02*
X10785000Y-9500000I-15000J0D01*
G01*
X10785000Y-9500000D02*
G75*
G02*
X10815000Y-9500000I15000J0D01*
G01*
X10815000Y-11200000D02*
G75*
G02*
X10785000Y-11200000I-15000J0D01*
G01*
X10785000Y-11200000D02*
G75*
G02*
X10815000Y-11200000I15000J0D01*
G01*
X10817000Y-9122000D02*
G75*
G02*
X10787000Y-9122000I-15000J0D01*
G01*
X10787000Y-9122000D02*
G75*
G02*
X10817000Y-9122000I15000J0D01*
G01*
X10818000Y-9964000D02*
G75*
G02*
X10788000Y-9964000I-15000J0D01*
G01*
X10788000Y-9964000D02*
G75*
G02*
X10818000Y-9964000I15000J0D01*
G01*
X10865000Y-9300000D02*
G75*
G02*
X10835000Y-9300000I-15000J0D01*
G01*
X10835000Y-9300000D02*
G75*
G02*
X10865000Y-9300000I15000J0D01*
G01*
X10906000Y-10943000D02*
G75*
G02*
X10876000Y-10943000I-15000J0D01*
G01*
X10876000Y-10943000D02*
G75*
G02*
X10906000Y-10943000I15000J0D01*
G01*
X10915000Y-11000000D02*
G75*
G02*
X10885000Y-11000000I-15000J0D01*
G01*
X10885000Y-11000000D02*
G75*
G02*
X10915000Y-11000000I15000J0D01*
G01*
X10915000Y-11400000D02*
G75*
G02*
X10885000Y-11400000I-15000J0D01*
G01*
X10885000Y-11400000D02*
G75*
G02*
X10915000Y-11400000I15000J0D01*
G01*
X10918000Y-9969000D02*
G75*
G02*
X10888000Y-9969000I-15000J0D01*
G01*
X10888000Y-9969000D02*
G75*
G02*
X10918000Y-9969000I15000J0D01*
G01*
X10930000Y-9892000D02*
G75*
G02*
X10900000Y-9892000I-15000J0D01*
G01*
X10900000Y-9892000D02*
G75*
G02*
X10930000Y-9892000I15000J0D01*
G01*
X10931000Y-9805000D02*
G75*
G02*
X10901000Y-9805000I-15000J0D01*
G01*
X10901000Y-9805000D02*
G75*
G02*
X10931000Y-9805000I15000J0D01*
G01*
X10935000Y-9715000D02*
G75*
G02*
X10905000Y-9715000I-15000J0D01*
G01*
X10905000Y-9715000D02*
G75*
G02*
X10935000Y-9715000I15000J0D01*
G01*
X10937000Y-9621000D02*
G75*
G02*
X10907000Y-9621000I-15000J0D01*
G01*
X10907000Y-9621000D02*
G75*
G02*
X10937000Y-9621000I15000J0D01*
G01*
X10980000Y-9540000D02*
G75*
G02*
X10950000Y-9540000I-15000J0D01*
G01*
X10950000Y-9540000D02*
G75*
G02*
X10980000Y-9540000I15000J0D01*
G01*
X10997000Y-10917000D02*
G75*
G02*
X10967000Y-10917000I-15000J0D01*
G01*
X10967000Y-10917000D02*
G75*
G02*
X10997000Y-10917000I15000J0D01*
G01*
X11022000Y-9113000D02*
G75*
G02*
X10992000Y-9113000I-15000J0D01*
G01*
X10992000Y-9113000D02*
G75*
G02*
X11022000Y-9113000I15000J0D01*
G01*
X11039000Y-10827000D02*
G75*
G02*
X11009000Y-10827000I-15000J0D01*
G01*
X11009000Y-10827000D02*
G75*
G02*
X11039000Y-10827000I15000J0D01*
G01*
X11048000Y-10726000D02*
G75*
G02*
X11018000Y-10726000I-15000J0D01*
G01*
X11018000Y-10726000D02*
G75*
G02*
X11048000Y-10726000I15000J0D01*
G01*
X11053000Y-10368000D02*
G75*
G02*
X11023000Y-10368000I-15000J0D01*
G01*
X11023000Y-10368000D02*
G75*
G02*
X11053000Y-10368000I15000J0D01*
G01*
X11055000Y-10285000D02*
G75*
G02*
X11025000Y-10285000I-15000J0D01*
G01*
X11025000Y-10285000D02*
G75*
G02*
X11055000Y-10285000I15000J0D01*
G01*
X11074000Y-9536000D02*
G75*
G02*
X11044000Y-9536000I-15000J0D01*
G01*
X11044000Y-9536000D02*
G75*
G02*
X11074000Y-9536000I15000J0D01*
G01*
X11115000Y-11400000D02*
G75*
G02*
X11085000Y-11400000I-15000J0D01*
G01*
X11085000Y-11400000D02*
G75*
G02*
X11115000Y-11400000I15000J0D01*
G01*
X11149000Y-10294000D02*
G75*
G02*
X11119000Y-10294000I-15000J0D01*
G01*
X11119000Y-10294000D02*
G75*
G02*
X11149000Y-10294000I15000J0D01*
G01*
X11163000Y-9202000D02*
G75*
G02*
X11133000Y-9202000I-15000J0D01*
G01*
X11133000Y-9202000D02*
G75*
G02*
X11163000Y-9202000I15000J0D01*
G01*
X11163000Y-9293000D02*
G75*
G02*
X11133000Y-9293000I-15000J0D01*
G01*
X11133000Y-9293000D02*
G75*
G02*
X11163000Y-9293000I15000J0D01*
G01*
X11165000Y-9383000D02*
G75*
G02*
X11135000Y-9383000I-15000J0D01*
G01*
X11135000Y-9383000D02*
G75*
G02*
X11165000Y-9383000I15000J0D01*
G01*
X11165000Y-11200000D02*
G75*
G02*
X11135000Y-11200000I-15000J0D01*
G01*
X11135000Y-11200000D02*
G75*
G02*
X11165000Y-11200000I15000J0D01*
G01*
X11166000Y-9464000D02*
G75*
G02*
X11136000Y-9464000I-15000J0D01*
G01*
X11136000Y-9464000D02*
G75*
G02*
X11166000Y-9464000I15000J0D01*
G01*
X11166000Y-9537000D02*
G75*
G02*
X11136000Y-9537000I-15000J0D01*
G01*
X11136000Y-9537000D02*
G75*
G02*
X11166000Y-9537000I15000J0D01*
G01*
X11209000Y-10713000D02*
G75*
G02*
X11179000Y-10713000I-15000J0D01*
G01*
X11179000Y-10713000D02*
G75*
G02*
X11209000Y-10713000I15000J0D01*
G01*
X11215000Y-11000000D02*
G75*
G02*
X11185000Y-11000000I-15000J0D01*
G01*
X11185000Y-11000000D02*
G75*
G02*
X11215000Y-11000000I15000J0D01*
G01*
X11217000Y-9108000D02*
G75*
G02*
X11187000Y-9108000I-15000J0D01*
G01*
X11187000Y-9108000D02*
G75*
G02*
X11217000Y-9108000I15000J0D01*
G01*
X11276000Y-9850000D02*
G75*
G02*
X11246000Y-9850000I-15000J0D01*
G01*
X11246000Y-9850000D02*
G75*
G02*
X11276000Y-9850000I15000J0D01*
G01*
X11280000Y-9944000D02*
G75*
G02*
X11250000Y-9944000I-15000J0D01*
G01*
X11250000Y-9944000D02*
G75*
G02*
X11280000Y-9944000I15000J0D01*
G01*
X11294000Y-10612000D02*
G75*
G02*
X11264000Y-10612000I-15000J0D01*
G01*
X11264000Y-10612000D02*
G75*
G02*
X11294000Y-10612000I15000J0D01*
G01*
X11315000Y-10450000D02*
G75*
G02*
X11285000Y-10450000I-15000J0D01*
G01*
X11285000Y-10450000D02*
G75*
G02*
X11315000Y-10450000I15000J0D01*
G01*
X11315000Y-11400000D02*
G75*
G02*
X11285000Y-11400000I-15000J0D01*
G01*
X11285000Y-11400000D02*
G75*
G02*
X11315000Y-11400000I15000J0D01*
G01*
X11333000Y-9107000D02*
G75*
G02*
X11303000Y-9107000I-15000J0D01*
G01*
X11303000Y-9107000D02*
G75*
G02*
X11333000Y-9107000I15000J0D01*
G01*
X11378000Y-9852000D02*
G75*
G02*
X11348000Y-9852000I-15000J0D01*
G01*
X11348000Y-9852000D02*
G75*
G02*
X11378000Y-9852000I15000J0D01*
G01*
X11415000Y-10800000D02*
G75*
G02*
X11385000Y-10800000I-15000J0D01*
G01*
X11385000Y-10800000D02*
G75*
G02*
X11415000Y-10800000I15000J0D01*
G01*
X11439000Y-9109000D02*
G75*
G02*
X11409000Y-9109000I-15000J0D01*
G01*
X11409000Y-9109000D02*
G75*
G02*
X11439000Y-9109000I15000J0D01*
G01*
X11465000Y-9900000D02*
G75*
G02*
X11435000Y-9900000I-15000J0D01*
G01*
X11435000Y-9900000D02*
G75*
G02*
X11465000Y-9900000I15000J0D01*
G01*
X11465000Y-10300000D02*
G75*
G02*
X11435000Y-10300000I-15000J0D01*
G01*
X11435000Y-10300000D02*
G75*
G02*
X11465000Y-10300000I15000J0D01*
G01*
X11465000Y-11200000D02*
G75*
G02*
X11435000Y-11200000I-15000J0D01*
G01*
X11435000Y-11200000D02*
G75*
G02*
X11465000Y-11200000I15000J0D01*
G01*
X11510000Y-9456000D02*
G75*
G02*
X11480000Y-9456000I-15000J0D01*
G01*
X11480000Y-9456000D02*
G75*
G02*
X11510000Y-9456000I15000J0D01*
G01*
X11515000Y-11400000D02*
G75*
G02*
X11485000Y-11400000I-15000J0D01*
G01*
X11485000Y-11400000D02*
G75*
G02*
X11515000Y-11400000I15000J0D01*
G01*
X11558000Y-9107000D02*
G75*
G02*
X11528000Y-9107000I-15000J0D01*
G01*
X11528000Y-9107000D02*
G75*
G02*
X11558000Y-9107000I15000J0D01*
G01*
X11565000Y-10050000D02*
G75*
G02*
X11535000Y-10050000I-15000J0D01*
G01*
X11535000Y-10050000D02*
G75*
G02*
X11565000Y-10050000I15000J0D01*
G01*
X11579000Y-9518000D02*
G75*
G02*
X11549000Y-9518000I-15000J0D01*
G01*
X11549000Y-9518000D02*
G75*
G02*
X11579000Y-9518000I15000J0D01*
G01*
X11615000Y-10200000D02*
G75*
G02*
X11585000Y-10200000I-15000J0D01*
G01*
X11585000Y-10200000D02*
G75*
G02*
X11615000Y-10200000I15000J0D01*
G01*
X11615000Y-10600000D02*
G75*
G02*
X11585000Y-10600000I-15000J0D01*
G01*
X11585000Y-10600000D02*
G75*
G02*
X11615000Y-10600000I15000J0D01*
G01*
X11615000Y-11000000D02*
G75*
G02*
X11585000Y-11000000I-15000J0D01*
G01*
X11585000Y-11000000D02*
G75*
G02*
X11615000Y-11000000I15000J0D01*
G01*
X11665000Y-9900000D02*
G75*
G02*
X11635000Y-9900000I-15000J0D01*
G01*
X11635000Y-9900000D02*
G75*
G02*
X11665000Y-9900000I15000J0D01*
G01*
X11678000Y-9111000D02*
G75*
G02*
X11648000Y-9111000I-15000J0D01*
G01*
X11648000Y-9111000D02*
G75*
G02*
X11678000Y-9111000I15000J0D01*
G01*
X11715000Y-11400000D02*
G75*
G02*
X11685000Y-11400000I-15000J0D01*
G01*
X11685000Y-11400000D02*
G75*
G02*
X11715000Y-11400000I15000J0D01*
G01*
X11753000Y-9620000D02*
G75*
G02*
X11723000Y-9620000I-15000J0D01*
G01*
X11723000Y-9620000D02*
G75*
G02*
X11753000Y-9620000I15000J0D01*
G01*
X11764000Y-9436000D02*
G75*
G02*
X11734000Y-9436000I-15000J0D01*
G01*
X11734000Y-9436000D02*
G75*
G02*
X11764000Y-9436000I15000J0D01*
G01*
X11765000Y-9800000D02*
G75*
G02*
X11735000Y-9800000I-15000J0D01*
G01*
X11735000Y-9800000D02*
G75*
G02*
X11765000Y-9800000I15000J0D01*
G01*
X11778000Y-9105000D02*
G75*
G02*
X11748000Y-9105000I-15000J0D01*
G01*
X11748000Y-9105000D02*
G75*
G02*
X11778000Y-9105000I15000J0D01*
G01*
X11844000Y-9633000D02*
G75*
G02*
X11814000Y-9633000I-15000J0D01*
G01*
X11814000Y-9633000D02*
G75*
G02*
X11844000Y-9633000I15000J0D01*
G01*
X11860000Y-9434000D02*
G75*
G02*
X11830000Y-9434000I-15000J0D01*
G01*
X11830000Y-9434000D02*
G75*
G02*
X11860000Y-9434000I15000J0D01*
G01*
X11865000Y-10000000D02*
G75*
G02*
X11835000Y-10000000I-15000J0D01*
G01*
X11835000Y-10000000D02*
G75*
G02*
X11865000Y-10000000I15000J0D01*
G01*
X11865000Y-10400000D02*
G75*
G02*
X11835000Y-10400000I-15000J0D01*
G01*
X11835000Y-10400000D02*
G75*
G02*
X11865000Y-10400000I15000J0D01*
G01*
X11865000Y-10650000D02*
G75*
G02*
X11835000Y-10650000I-15000J0D01*
G01*
X11835000Y-10650000D02*
G75*
G02*
X11865000Y-10650000I15000J0D01*
G01*
X11865000Y-11100000D02*
G75*
G02*
X11835000Y-11100000I-15000J0D01*
G01*
X11835000Y-11100000D02*
G75*
G02*
X11865000Y-11100000I15000J0D01*
G01*
X11892000Y-9106000D02*
G75*
G02*
X11862000Y-9106000I-15000J0D01*
G01*
X11862000Y-9106000D02*
G75*
G02*
X11892000Y-9106000I15000J0D01*
G01*
X11915000Y-10850000D02*
G75*
G02*
X11885000Y-10850000I-15000J0D01*
G01*
X11885000Y-10850000D02*
G75*
G02*
X11915000Y-10850000I15000J0D01*
G01*
X11915000Y-11400000D02*
G75*
G02*
X11885000Y-11400000I-15000J0D01*
G01*
X11885000Y-11400000D02*
G75*
G02*
X11915000Y-11400000I15000J0D01*
G01*
X11925000Y-9693000D02*
G75*
G02*
X11895000Y-9693000I-15000J0D01*
G01*
X11895000Y-9693000D02*
G75*
G02*
X11925000Y-9693000I15000J0D01*
G01*
X11940000Y-9447000D02*
G75*
G02*
X11910000Y-9447000I-15000J0D01*
G01*
X11910000Y-9447000D02*
G75*
G02*
X11940000Y-9447000I15000J0D01*
G01*
X12001000Y-9773000D02*
G75*
G02*
X11971000Y-9773000I-15000J0D01*
G01*
X11971000Y-9773000D02*
G75*
G02*
X12001000Y-9773000I15000J0D01*
G01*
X12006000Y-9508000D02*
G75*
G02*
X11976000Y-9508000I-15000J0D01*
G01*
X11976000Y-9508000D02*
G75*
G02*
X12006000Y-9508000I15000J0D01*
G01*
X12015000Y-9100000D02*
G75*
G02*
X11985000Y-9100000I-15000J0D01*
G01*
X11985000Y-9100000D02*
G75*
G02*
X12015000Y-9100000I15000J0D01*
G01*
X12064000Y-9570000D02*
G75*
G02*
X12034000Y-9570000I-15000J0D01*
G01*
X12034000Y-9570000D02*
G75*
G02*
X12064000Y-9570000I15000J0D01*
G01*
X12064000Y-9838000D02*
G75*
G02*
X12034000Y-9838000I-15000J0D01*
G01*
X12034000Y-9838000D02*
G75*
G02*
X12064000Y-9838000I15000J0D01*
G01*
X12115000Y-10200000D02*
G75*
G02*
X12085000Y-10200000I-15000J0D01*
G01*
X12085000Y-10200000D02*
G75*
G02*
X12115000Y-10200000I15000J0D01*
G01*
X12115000Y-10600000D02*
G75*
G02*
X12085000Y-10600000I-15000J0D01*
G01*
X12085000Y-10600000D02*
G75*
G02*
X12115000Y-10600000I15000J0D01*
G01*
X12115000Y-11000000D02*
G75*
G02*
X12085000Y-11000000I-15000J0D01*
G01*
X12085000Y-11000000D02*
G75*
G02*
X12115000Y-11000000I15000J0D01*
G01*
X12115000Y-11400000D02*
G75*
G02*
X12085000Y-11400000I-15000J0D01*
G01*
X12085000Y-11400000D02*
G75*
G02*
X12115000Y-11400000I15000J0D01*
G01*
X12131000Y-9633000D02*
G75*
G02*
X12101000Y-9633000I-15000J0D01*
G01*
X12101000Y-9633000D02*
G75*
G02*
X12131000Y-9633000I15000J0D01*
G01*
X12133000Y-9909000D02*
G75*
G02*
X12103000Y-9909000I-15000J0D01*
G01*
X12103000Y-9909000D02*
G75*
G02*
X12133000Y-9909000I15000J0D01*
G01*
X12147000Y-10002000D02*
G75*
G02*
X12117000Y-10002000I-15000J0D01*
G01*
X12117000Y-10002000D02*
G75*
G02*
X12147000Y-10002000I15000J0D01*
G01*
X12190000Y-9698000D02*
G75*
G02*
X12160000Y-9698000I-15000J0D01*
G01*
X12160000Y-9698000D02*
G75*
G02*
X12190000Y-9698000I15000J0D01*
G01*
X12215000Y-9100000D02*
G75*
G02*
X12185000Y-9100000I-15000J0D01*
G01*
X12185000Y-9100000D02*
G75*
G02*
X12215000Y-9100000I15000J0D01*
G01*
X12215000Y-9400000D02*
G75*
G02*
X12185000Y-9400000I-15000J0D01*
G01*
X12185000Y-9400000D02*
G75*
G02*
X12215000Y-9400000I15000J0D01*
G01*
X12215000Y-11250000D02*
G75*
G02*
X12185000Y-11250000I-15000J0D01*
G01*
X12185000Y-11250000D02*
G75*
G02*
X12215000Y-11250000I15000J0D01*
G01*
X12259000Y-9767000D02*
G75*
G02*
X12229000Y-9767000I-15000J0D01*
G01*
X12229000Y-9767000D02*
G75*
G02*
X12259000Y-9767000I15000J0D01*
G01*
X12315000Y-11400000D02*
G75*
G02*
X12285000Y-11400000I-15000J0D01*
G01*
X12285000Y-11400000D02*
G75*
G02*
X12315000Y-11400000I15000J0D01*
G01*
X12359000Y-9784000D02*
G75*
G02*
X12329000Y-9784000I-15000J0D01*
G01*
X12329000Y-9784000D02*
G75*
G02*
X12359000Y-9784000I15000J0D01*
G01*
X12365000Y-10900000D02*
G75*
G02*
X12335000Y-10900000I-15000J0D01*
G01*
X12335000Y-10900000D02*
G75*
G02*
X12365000Y-10900000I15000J0D01*
G01*
X12415000Y-9100000D02*
G75*
G02*
X12385000Y-9100000I-15000J0D01*
G01*
X12385000Y-9100000D02*
G75*
G02*
X12415000Y-9100000I15000J0D01*
G01*
X12415000Y-9300000D02*
G75*
G02*
X12385000Y-9300000I-15000J0D01*
G01*
X12385000Y-9300000D02*
G75*
G02*
X12415000Y-9300000I15000J0D01*
G01*
X12415000Y-9600000D02*
G75*
G02*
X12385000Y-9600000I-15000J0D01*
G01*
X12385000Y-9600000D02*
G75*
G02*
X12415000Y-9600000I15000J0D01*
G01*
X12415000Y-10550000D02*
G75*
G02*
X12385000Y-10550000I-15000J0D01*
G01*
X12385000Y-10550000D02*
G75*
G02*
X12415000Y-10550000I15000J0D01*
G01*
X12515000Y-11400000D02*
G75*
G02*
X12485000Y-11400000I-15000J0D01*
G01*
X12485000Y-11400000D02*
G75*
G02*
X12515000Y-11400000I15000J0D01*
G01*
X12570000Y-9400000D02*
G75*
G02*
X12540000Y-9400000I-15000J0D01*
G01*
X12540000Y-9400000D02*
G75*
G02*
X12570000Y-9400000I15000J0D01*
G01*
X12615000Y-9100000D02*
G75*
G02*
X12585000Y-9100000I-15000J0D01*
G01*
X12585000Y-9100000D02*
G75*
G02*
X12615000Y-9100000I15000J0D01*
G01*
X12615000Y-10200000D02*
G75*
G02*
X12585000Y-10200000I-15000J0D01*
G01*
X12585000Y-10200000D02*
G75*
G02*
X12615000Y-10200000I15000J0D01*
G01*
X12715000Y-11400000D02*
G75*
G02*
X12685000Y-11400000I-15000J0D01*
G01*
X12685000Y-11400000D02*
G75*
G02*
X12715000Y-11400000I15000J0D01*
G01*
X12765000Y-10350000D02*
G75*
G02*
X12735000Y-10350000I-15000J0D01*
G01*
X12735000Y-10350000D02*
G75*
G02*
X12765000Y-10350000I15000J0D01*
G01*
X12809000Y-10085000D02*
G75*
G02*
X12779000Y-10085000I-15000J0D01*
G01*
X12779000Y-10085000D02*
G75*
G02*
X12809000Y-10085000I15000J0D01*
G01*
X12815000Y-9100000D02*
G75*
G02*
X12785000Y-9100000I-15000J0D01*
G01*
X12785000Y-9100000D02*
G75*
G02*
X12815000Y-9100000I15000J0D01*
G01*
X12815000Y-9250000D02*
G75*
G02*
X12785000Y-9250000I-15000J0D01*
G01*
X12785000Y-9250000D02*
G75*
G02*
X12815000Y-9250000I15000J0D01*
G01*
X12829000Y-11189000D02*
G75*
G02*
X12799000Y-11189000I-15000J0D01*
G01*
X12799000Y-11189000D02*
G75*
G02*
X12829000Y-11189000I15000J0D01*
G01*
X12915000Y-11400000D02*
G75*
G02*
X12885000Y-11400000I-15000J0D01*
G01*
X12885000Y-11400000D02*
G75*
G02*
X12915000Y-11400000I15000J0D01*
G01*
X13015000Y-9100000D02*
G75*
G02*
X12985000Y-9100000I-15000J0D01*
G01*
X12985000Y-9100000D02*
G75*
G02*
X13015000Y-9100000I15000J0D01*
G01*
X13015000Y-10200000D02*
G75*
G02*
X12985000Y-10200000I-15000J0D01*
G01*
X12985000Y-10200000D02*
G75*
G02*
X13015000Y-10200000I15000J0D01*
G01*
X13115000Y-9300000D02*
G75*
G02*
X13085000Y-9300000I-15000J0D01*
G01*
X13085000Y-9300000D02*
G75*
G02*
X13115000Y-9300000I15000J0D01*
G01*
X13115000Y-11400000D02*
G75*
G02*
X13085000Y-11400000I-15000J0D01*
G01*
X13085000Y-11400000D02*
G75*
G02*
X13115000Y-11400000I15000J0D01*
G01*
X13215000Y-9100000D02*
G75*
G02*
X13185000Y-9100000I-15000J0D01*
G01*
X13185000Y-9100000D02*
G75*
G02*
X13215000Y-9100000I15000J0D01*
G01*
X13215000Y-10000000D02*
G75*
G02*
X13185000Y-10000000I-15000J0D01*
G01*
X13185000Y-10000000D02*
G75*
G02*
X13215000Y-10000000I15000J0D01*
G01*
X13215000Y-10450000D02*
G75*
G02*
X13185000Y-10450000I-15000J0D01*
G01*
X13185000Y-10450000D02*
G75*
G02*
X13215000Y-10450000I15000J0D01*
G01*
X13215000Y-11100000D02*
G75*
G02*
X13185000Y-11100000I-15000J0D01*
G01*
X13185000Y-11100000D02*
G75*
G02*
X13215000Y-11100000I15000J0D01*
G01*
X13265000Y-9600000D02*
G75*
G02*
X13235000Y-9600000I-15000J0D01*
G01*
X13235000Y-9600000D02*
G75*
G02*
X13265000Y-9600000I15000J0D01*
G01*
X13265000Y-10800000D02*
G75*
G02*
X13235000Y-10800000I-15000J0D01*
G01*
X13235000Y-10800000D02*
G75*
G02*
X13265000Y-10800000I15000J0D01*
G01*
X13315000Y-11400000D02*
G75*
G02*
X13285000Y-11400000I-15000J0D01*
G01*
X13285000Y-11400000D02*
G75*
G02*
X13315000Y-11400000I15000J0D01*
G01*
X13415000Y-9100000D02*
G75*
G02*
X13385000Y-9100000I-15000J0D01*
G01*
X13385000Y-9100000D02*
G75*
G02*
X13415000Y-9100000I15000J0D01*
G01*
X13415000Y-9400000D02*
G75*
G02*
X13385000Y-9400000I-15000J0D01*
G01*
X13385000Y-9400000D02*
G75*
G02*
X13415000Y-9400000I15000J0D01*
G01*
X13415000Y-9800000D02*
G75*
G02*
X13385000Y-9800000I-15000J0D01*
G01*
X13385000Y-9800000D02*
G75*
G02*
X13415000Y-9800000I15000J0D01*
G01*
X13415000Y-10200000D02*
G75*
G02*
X13385000Y-10200000I-15000J0D01*
G01*
X13385000Y-10200000D02*
G75*
G02*
X13415000Y-10200000I15000J0D01*
G01*
X13415000Y-10600000D02*
G75*
G02*
X13385000Y-10600000I-15000J0D01*
G01*
X13385000Y-10600000D02*
G75*
G02*
X13415000Y-10600000I15000J0D01*
G01*
X13415000Y-11000000D02*
G75*
G02*
X13385000Y-11000000I-15000J0D01*
G01*
X13385000Y-11000000D02*
G75*
G02*
X13415000Y-11000000I15000J0D01*
G01*
X13465000Y-9250000D02*
G75*
G02*
X13435000Y-9250000I-15000J0D01*
G01*
X13435000Y-9250000D02*
G75*
G02*
X13465000Y-9250000I15000J0D01*
G01*
X13515000Y-11400000D02*
G75*
G02*
X13485000Y-11400000I-15000J0D01*
G01*
X13485000Y-11400000D02*
G75*
G02*
X13515000Y-11400000I15000J0D01*
G01*
X13615000Y-9100000D02*
G75*
G02*
X13585000Y-9100000I-15000J0D01*
G01*
X13585000Y-9100000D02*
G75*
G02*
X13615000Y-9100000I15000J0D01*
G01*
X13715000Y-9200000D02*
G75*
G02*
X13685000Y-9200000I-15000J0D01*
G01*
X13685000Y-9200000D02*
G75*
G02*
X13715000Y-9200000I15000J0D01*
G01*
X13715000Y-9400000D02*
G75*
G02*
X13685000Y-9400000I-15000J0D01*
G01*
X13685000Y-9400000D02*
G75*
G02*
X13715000Y-9400000I15000J0D01*
G01*
X13715000Y-9600000D02*
G75*
G02*
X13685000Y-9600000I-15000J0D01*
G01*
X13685000Y-9600000D02*
G75*
G02*
X13715000Y-9600000I15000J0D01*
G01*
X13715000Y-9800000D02*
G75*
G02*
X13685000Y-9800000I-15000J0D01*
G01*
X13685000Y-9800000D02*
G75*
G02*
X13715000Y-9800000I15000J0D01*
G01*
X13715000Y-10000000D02*
G75*
G02*
X13685000Y-10000000I-15000J0D01*
G01*
X13685000Y-10000000D02*
G75*
G02*
X13715000Y-10000000I15000J0D01*
G01*
X13715000Y-10200000D02*
G75*
G02*
X13685000Y-10200000I-15000J0D01*
G01*
X13685000Y-10200000D02*
G75*
G02*
X13715000Y-10200000I15000J0D01*
G01*
X13715000Y-10400000D02*
G75*
G02*
X13685000Y-10400000I-15000J0D01*
G01*
X13685000Y-10400000D02*
G75*
G02*
X13715000Y-10400000I15000J0D01*
G01*
X13715000Y-10600000D02*
G75*
G02*
X13685000Y-10600000I-15000J0D01*
G01*
X13685000Y-10600000D02*
G75*
G02*
X13715000Y-10600000I15000J0D01*
G01*
X13715000Y-10800000D02*
G75*
G02*
X13685000Y-10800000I-15000J0D01*
G01*
X13685000Y-10800000D02*
G75*
G02*
X13715000Y-10800000I15000J0D01*
G01*
X13715000Y-11000000D02*
G75*
G02*
X13685000Y-11000000I-15000J0D01*
G01*
X13685000Y-11000000D02*
G75*
G02*
X13715000Y-11000000I15000J0D01*
G01*
X13715000Y-11200000D02*
G75*
G02*
X13685000Y-11200000I-15000J0D01*
G01*
X13685000Y-11200000D02*
G75*
G02*
X13715000Y-11200000I15000J0D01*
G01*
X13715000Y-11400000D02*
G75*
G02*
X13685000Y-11400000I-15000J0D01*
G01*
X13685000Y-11400000D02*
G75*
G02*
X13715000Y-11400000I15000J0D01*
G01*
X12328000Y-9931500D02*
X12328000Y-10028500D01*
X12279500Y-9980000D02*
X12376500Y-9980000D01*
X12328000Y-10185500D02*
X12328000Y-10282500D01*
X12279500Y-10234000D02*
X12376500Y-10234000D01*
X9261356Y-11342356D02*
X9261356Y-11271644D01*
X9190644Y-11271644D01*
X9190644Y-11342356D01*
X9261356Y-11342356D01*
X9270356Y-9310356D02*
X9270356Y-9239644D01*
X9199644Y-9239644D01*
X9199644Y-9310356D01*
X9270356Y-9310356D01*
X9270356Y-9564356D02*
X9270356Y-9493644D01*
X9199644Y-9493644D01*
X9199644Y-9564356D01*
X9270356Y-9564356D01*
X9270356Y-9818356D02*
X9270356Y-9747644D01*
X9199644Y-9747644D01*
X9199644Y-9818356D01*
X9270356Y-9818356D01*
X9270356Y-10072356D02*
X9270356Y-10001644D01*
X9199644Y-10001644D01*
X9199644Y-10072356D01*
X9270356Y-10072356D01*
X9270356Y-10326356D02*
X9270356Y-10255644D01*
X9199644Y-10255644D01*
X9199644Y-10326356D01*
X9270356Y-10326356D01*
X9270356Y-10580356D02*
X9270356Y-10509644D01*
X9199644Y-10509644D01*
X9199644Y-10580356D01*
X9270356Y-10580356D01*
X9515356Y-11342356D02*
X9515356Y-11271644D01*
X9444644Y-11271644D01*
X9444644Y-11342356D01*
X9515356Y-11342356D01*
X9769356Y-11342356D02*
X9769356Y-11271644D01*
X9698644Y-11271644D01*
X9698644Y-11342356D01*
X9769356Y-11342356D01*
X10023356Y-11342356D02*
X10023356Y-11271644D01*
X9952644Y-11271644D01*
X9952644Y-11342356D01*
X10023356Y-11342356D01*
X10277356Y-11342356D02*
X10277356Y-11271644D01*
X10206644Y-11271644D01*
X10206644Y-11342356D01*
X10277356Y-11342356D01*
X10531356Y-11342356D02*
X10531356Y-11271644D01*
X10460644Y-11271644D01*
X10460644Y-11342356D01*
X10531356Y-11342356D01*
D13*
X12836000Y-9830500D02*
X12940500Y-9726000D01*
X12836000Y-9621500D01*
X12731500Y-9726000D01*
X12836000Y-9830500D01*
X12836000Y-10846500D02*
X12940500Y-10742000D01*
X12836000Y-10637500D01*
X12731500Y-10742000D01*
X12836000Y-10846500D01*
D11*
X9219277Y-11862984D02*
X9219277Y-11662984D01*
X9219277Y-11662984D02*
X9266896Y-11662984D01*
X9266896Y-11662984D02*
X9295467Y-11672508D01*
X9295467Y-11672508D02*
X9314515Y-11691555D01*
X9314515Y-11691555D02*
X9324039Y-11710603D01*
X9324039Y-11710603D02*
X9333563Y-11748698D01*
X9333563Y-11748698D02*
X9333563Y-11777269D01*
X9333563Y-11777269D02*
X9324039Y-11815365D01*
X9324039Y-11815365D02*
X9314515Y-11834412D01*
X9314515Y-11834412D02*
X9295467Y-11853460D01*
X9295467Y-11853460D02*
X9266896Y-11862984D01*
X9266896Y-11862984D02*
X9219277Y-11862984D01*
X9419277Y-11862984D02*
X9419277Y-11729650D01*
X9419277Y-11767746D02*
X9428801Y-11748698D01*
X9428801Y-11748698D02*
X9438324Y-11739174D01*
X9438324Y-11739174D02*
X9457372Y-11729650D01*
X9457372Y-11729650D02*
X9476420Y-11729650D01*
X9543086Y-11862984D02*
X9543086Y-11729650D01*
X9543086Y-11662984D02*
X9533563Y-11672508D01*
X9533563Y-11672508D02*
X9543086Y-11682031D01*
X9543086Y-11682031D02*
X9552610Y-11672508D01*
X9552610Y-11672508D02*
X9543086Y-11662984D01*
X9543086Y-11662984D02*
X9543086Y-11682031D01*
X9666896Y-11862984D02*
X9647848Y-11853460D01*
X9647848Y-11853460D02*
X9638324Y-11834412D01*
X9638324Y-11834412D02*
X9638324Y-11662984D01*
X9771658Y-11862984D02*
X9752610Y-11853460D01*
X9752610Y-11853460D02*
X9743086Y-11834412D01*
X9743086Y-11834412D02*
X9743086Y-11662984D01*
X10000229Y-11862984D02*
X10000229Y-11662984D01*
X10000229Y-11662984D02*
X10066896Y-11805841D01*
X10066896Y-11805841D02*
X10133563Y-11662984D01*
X10133563Y-11662984D02*
X10133563Y-11862984D01*
X10314515Y-11862984D02*
X10314515Y-11758222D01*
X10314515Y-11758222D02*
X10304991Y-11739174D01*
X10304991Y-11739174D02*
X10285944Y-11729650D01*
X10285944Y-11729650D02*
X10247848Y-11729650D01*
X10247848Y-11729650D02*
X10228801Y-11739174D01*
X10314515Y-11853460D02*
X10295467Y-11862984D01*
X10295467Y-11862984D02*
X10247848Y-11862984D01*
X10247848Y-11862984D02*
X10228801Y-11853460D01*
X10228801Y-11853460D02*
X10219277Y-11834412D01*
X10219277Y-11834412D02*
X10219277Y-11815365D01*
X10219277Y-11815365D02*
X10228801Y-11796317D01*
X10228801Y-11796317D02*
X10247848Y-11786793D01*
X10247848Y-11786793D02*
X10295467Y-11786793D01*
X10295467Y-11786793D02*
X10314515Y-11777269D01*
X10409753Y-11729650D02*
X10409753Y-11929650D01*
X10409753Y-11739174D02*
X10428801Y-11729650D01*
X10428801Y-11729650D02*
X10466896Y-11729650D01*
X10466896Y-11729650D02*
X10485944Y-11739174D01*
X10485944Y-11739174D02*
X10495467Y-11748698D01*
X10495467Y-11748698D02*
X10504991Y-11767746D01*
X10504991Y-11767746D02*
X10504991Y-11824888D01*
X10504991Y-11824888D02*
X10495467Y-11843936D01*
X10495467Y-11843936D02*
X10485944Y-11853460D01*
X10485944Y-11853460D02*
X10466896Y-11862984D01*
X10466896Y-11862984D02*
X10428801Y-11862984D01*
X10428801Y-11862984D02*
X10409753Y-11853460D01*
X10590705Y-11843936D02*
X10600229Y-11853460D01*
X10600229Y-11853460D02*
X10590705Y-11862984D01*
X10590705Y-11862984D02*
X10581182Y-11853460D01*
X10581182Y-11853460D02*
X10590705Y-11843936D01*
X10590705Y-11843936D02*
X10590705Y-11862984D01*
X10590705Y-11739174D02*
X10600229Y-11748698D01*
X10600229Y-11748698D02*
X10590705Y-11758222D01*
X10590705Y-11758222D02*
X10581182Y-11748698D01*
X10581182Y-11748698D02*
X10590705Y-11739174D01*
X10590705Y-11739174D02*
X10590705Y-11758222D01*
D12*
X8938500Y-12181500D02*
X8958500Y-12201500D01*
X8958500Y-12181500D02*
X8938500Y-12201500D01*
D11*
X9257372Y-12082984D02*
X9276420Y-12082984D01*
X9276420Y-12082984D02*
X9295467Y-12092508D01*
X9295467Y-12092508D02*
X9304991Y-12102031D01*
X9304991Y-12102031D02*
X9314515Y-12121079D01*
X9314515Y-12121079D02*
X9324039Y-12159174D01*
X9324039Y-12159174D02*
X9324039Y-12206793D01*
X9324039Y-12206793D02*
X9314515Y-12244888D01*
X9314515Y-12244888D02*
X9304991Y-12263936D01*
X9304991Y-12263936D02*
X9295467Y-12273460D01*
X9295467Y-12273460D02*
X9276420Y-12282984D01*
X9276420Y-12282984D02*
X9257372Y-12282984D01*
X9257372Y-12282984D02*
X9238324Y-12273460D01*
X9238324Y-12273460D02*
X9228801Y-12263936D01*
X9228801Y-12263936D02*
X9219277Y-12244888D01*
X9219277Y-12244888D02*
X9209753Y-12206793D01*
X9209753Y-12206793D02*
X9209753Y-12159174D01*
X9209753Y-12159174D02*
X9219277Y-12121079D01*
X9219277Y-12121079D02*
X9228801Y-12102031D01*
X9228801Y-12102031D02*
X9238324Y-12092508D01*
X9238324Y-12092508D02*
X9257372Y-12082984D01*
X9409753Y-12263936D02*
X9419277Y-12273460D01*
X9419277Y-12273460D02*
X9409753Y-12282984D01*
X9409753Y-12282984D02*
X9400229Y-12273460D01*
X9400229Y-12273460D02*
X9409753Y-12263936D01*
X9409753Y-12263936D02*
X9409753Y-12282984D01*
X9495467Y-12102031D02*
X9504991Y-12092508D01*
X9504991Y-12092508D02*
X9524039Y-12082984D01*
X9524039Y-12082984D02*
X9571658Y-12082984D01*
X9571658Y-12082984D02*
X9590705Y-12092508D01*
X9590705Y-12092508D02*
X9600229Y-12102031D01*
X9600229Y-12102031D02*
X9609753Y-12121079D01*
X9609753Y-12121079D02*
X9609753Y-12140127D01*
X9609753Y-12140127D02*
X9600229Y-12168698D01*
X9600229Y-12168698D02*
X9485944Y-12282984D01*
X9485944Y-12282984D02*
X9609753Y-12282984D01*
X9733563Y-12082984D02*
X9752610Y-12082984D01*
X9752610Y-12082984D02*
X9771658Y-12092508D01*
X9771658Y-12092508D02*
X9781182Y-12102031D01*
X9781182Y-12102031D02*
X9790705Y-12121079D01*
X9790705Y-12121079D02*
X9800229Y-12159174D01*
X9800229Y-12159174D02*
X9800229Y-12206793D01*
X9800229Y-12206793D02*
X9790705Y-12244888D01*
X9790705Y-12244888D02*
X9781182Y-12263936D01*
X9781182Y-12263936D02*
X9771658Y-12273460D01*
X9771658Y-12273460D02*
X9752610Y-12282984D01*
X9752610Y-12282984D02*
X9733563Y-12282984D01*
X9733563Y-12282984D02*
X9714515Y-12273460D01*
X9714515Y-12273460D02*
X9704991Y-12263936D01*
X9704991Y-12263936D02*
X9695467Y-12244888D01*
X9695467Y-12244888D02*
X9685944Y-12206793D01*
X9685944Y-12206793D02*
X9685944Y-12159174D01*
X9685944Y-12159174D02*
X9695467Y-12121079D01*
X9695467Y-12121079D02*
X9704991Y-12102031D01*
X9704991Y-12102031D02*
X9714515Y-12092508D01*
X9714515Y-12092508D02*
X9733563Y-12082984D01*
X9924039Y-12082984D02*
X9943086Y-12082984D01*
X9943086Y-12082984D02*
X9962134Y-12092508D01*
X9962134Y-12092508D02*
X9971658Y-12102031D01*
X9971658Y-12102031D02*
X9981182Y-12121079D01*
X9981182Y-12121079D02*
X9990705Y-12159174D01*
X9990705Y-12159174D02*
X9990705Y-12206793D01*
X9990705Y-12206793D02*
X9981182Y-12244888D01*
X9981182Y-12244888D02*
X9971658Y-12263936D01*
X9971658Y-12263936D02*
X9962134Y-12273460D01*
X9962134Y-12273460D02*
X9943086Y-12282984D01*
X9943086Y-12282984D02*
X9924039Y-12282984D01*
X9924039Y-12282984D02*
X9904991Y-12273460D01*
X9904991Y-12273460D02*
X9895467Y-12263936D01*
X9895467Y-12263936D02*
X9885944Y-12244888D01*
X9885944Y-12244888D02*
X9876420Y-12206793D01*
X9876420Y-12206793D02*
X9876420Y-12159174D01*
X9876420Y-12159174D02*
X9885944Y-12121079D01*
X9885944Y-12121079D02*
X9895467Y-12102031D01*
X9895467Y-12102031D02*
X9904991Y-12092508D01*
X9904991Y-12092508D02*
X9924039Y-12082984D01*
X10076420Y-12282984D02*
X10076420Y-12149650D01*
X10076420Y-12168698D02*
X10085944Y-12159174D01*
X10085944Y-12159174D02*
X10104991Y-12149650D01*
X10104991Y-12149650D02*
X10133563Y-12149650D01*
X10133563Y-12149650D02*
X10152610Y-12159174D01*
X10152610Y-12159174D02*
X10162134Y-12178222D01*
X10162134Y-12178222D02*
X10162134Y-12282984D01*
X10162134Y-12178222D02*
X10171658Y-12159174D01*
X10171658Y-12159174D02*
X10190705Y-12149650D01*
X10190705Y-12149650D02*
X10219277Y-12149650D01*
X10219277Y-12149650D02*
X10238325Y-12159174D01*
X10238325Y-12159174D02*
X10247848Y-12178222D01*
X10247848Y-12178222D02*
X10247848Y-12282984D01*
X10343086Y-12282984D02*
X10343086Y-12149650D01*
X10343086Y-12168698D02*
X10352610Y-12159174D01*
X10352610Y-12159174D02*
X10371658Y-12149650D01*
X10371658Y-12149650D02*
X10400229Y-12149650D01*
X10400229Y-12149650D02*
X10419277Y-12159174D01*
X10419277Y-12159174D02*
X10428801Y-12178222D01*
X10428801Y-12178222D02*
X10428801Y-12282984D01*
X10428801Y-12178222D02*
X10438325Y-12159174D01*
X10438325Y-12159174D02*
X10457372Y-12149650D01*
X10457372Y-12149650D02*
X10485944Y-12149650D01*
X10485944Y-12149650D02*
X10504991Y-12159174D01*
X10504991Y-12159174D02*
X10514515Y-12178222D01*
X10514515Y-12178222D02*
X10514515Y-12282984D01*
X10904991Y-12073460D02*
X10733563Y-12330603D01*
X11162134Y-12082984D02*
X11181182Y-12082984D01*
X11181182Y-12082984D02*
X11200229Y-12092508D01*
X11200229Y-12092508D02*
X11209753Y-12102031D01*
X11209753Y-12102031D02*
X11219277Y-12121079D01*
X11219277Y-12121079D02*
X11228801Y-12159174D01*
X11228801Y-12159174D02*
X11228801Y-12206793D01*
X11228801Y-12206793D02*
X11219277Y-12244888D01*
X11219277Y-12244888D02*
X11209753Y-12263936D01*
X11209753Y-12263936D02*
X11200229Y-12273460D01*
X11200229Y-12273460D02*
X11181182Y-12282984D01*
X11181182Y-12282984D02*
X11162134Y-12282984D01*
X11162134Y-12282984D02*
X11143087Y-12273460D01*
X11143087Y-12273460D02*
X11133563Y-12263936D01*
X11133563Y-12263936D02*
X11124039Y-12244888D01*
X11124039Y-12244888D02*
X11114515Y-12206793D01*
X11114515Y-12206793D02*
X11114515Y-12159174D01*
X11114515Y-12159174D02*
X11124039Y-12121079D01*
X11124039Y-12121079D02*
X11133563Y-12102031D01*
X11133563Y-12102031D02*
X11143087Y-12092508D01*
X11143087Y-12092508D02*
X11162134Y-12082984D01*
X11314515Y-12263936D02*
X11324039Y-12273460D01*
X11324039Y-12273460D02*
X11314515Y-12282984D01*
X11314515Y-12282984D02*
X11304991Y-12273460D01*
X11304991Y-12273460D02*
X11314515Y-12263936D01*
X11314515Y-12263936D02*
X11314515Y-12282984D01*
X11447848Y-12082984D02*
X11466896Y-12082984D01*
X11466896Y-12082984D02*
X11485944Y-12092508D01*
X11485944Y-12092508D02*
X11495467Y-12102031D01*
X11495467Y-12102031D02*
X11504991Y-12121079D01*
X11504991Y-12121079D02*
X11514515Y-12159174D01*
X11514515Y-12159174D02*
X11514515Y-12206793D01*
X11514515Y-12206793D02*
X11504991Y-12244888D01*
X11504991Y-12244888D02*
X11495467Y-12263936D01*
X11495467Y-12263936D02*
X11485944Y-12273460D01*
X11485944Y-12273460D02*
X11466896Y-12282984D01*
X11466896Y-12282984D02*
X11447848Y-12282984D01*
X11447848Y-12282984D02*
X11428801Y-12273460D01*
X11428801Y-12273460D02*
X11419277Y-12263936D01*
X11419277Y-12263936D02*
X11409753Y-12244888D01*
X11409753Y-12244888D02*
X11400229Y-12206793D01*
X11400229Y-12206793D02*
X11400229Y-12159174D01*
X11400229Y-12159174D02*
X11409753Y-12121079D01*
X11409753Y-12121079D02*
X11419277Y-12102031D01*
X11419277Y-12102031D02*
X11428801Y-12092508D01*
X11428801Y-12092508D02*
X11447848Y-12082984D01*
X11638325Y-12082984D02*
X11657372Y-12082984D01*
X11657372Y-12082984D02*
X11676420Y-12092508D01*
X11676420Y-12092508D02*
X11685944Y-12102031D01*
X11685944Y-12102031D02*
X11695467Y-12121079D01*
X11695467Y-12121079D02*
X11704991Y-12159174D01*
X11704991Y-12159174D02*
X11704991Y-12206793D01*
X11704991Y-12206793D02*
X11695467Y-12244888D01*
X11695467Y-12244888D02*
X11685944Y-12263936D01*
X11685944Y-12263936D02*
X11676420Y-12273460D01*
X11676420Y-12273460D02*
X11657372Y-12282984D01*
X11657372Y-12282984D02*
X11638325Y-12282984D01*
X11638325Y-12282984D02*
X11619277Y-12273460D01*
X11619277Y-12273460D02*
X11609753Y-12263936D01*
X11609753Y-12263936D02*
X11600229Y-12244888D01*
X11600229Y-12244888D02*
X11590706Y-12206793D01*
X11590706Y-12206793D02*
X11590706Y-12159174D01*
X11590706Y-12159174D02*
X11600229Y-12121079D01*
X11600229Y-12121079D02*
X11609753Y-12102031D01*
X11609753Y-12102031D02*
X11619277Y-12092508D01*
X11619277Y-12092508D02*
X11638325Y-12082984D01*
X11771658Y-12082984D02*
X11904991Y-12082984D01*
X11904991Y-12082984D02*
X11819277Y-12282984D01*
X11990706Y-12282984D02*
X12028801Y-12282984D01*
X12028801Y-12282984D02*
X12047848Y-12273460D01*
X12047848Y-12273460D02*
X12057372Y-12263936D01*
X12057372Y-12263936D02*
X12076420Y-12235365D01*
X12076420Y-12235365D02*
X12085944Y-12197269D01*
X12085944Y-12197269D02*
X12085944Y-12121079D01*
X12085944Y-12121079D02*
X12076420Y-12102031D01*
X12076420Y-12102031D02*
X12066896Y-12092508D01*
X12066896Y-12092508D02*
X12047848Y-12082984D01*
X12047848Y-12082984D02*
X12009753Y-12082984D01*
X12009753Y-12082984D02*
X11990706Y-12092508D01*
X11990706Y-12092508D02*
X11981182Y-12102031D01*
X11981182Y-12102031D02*
X11971658Y-12121079D01*
X11971658Y-12121079D02*
X11971658Y-12168698D01*
X11971658Y-12168698D02*
X11981182Y-12187746D01*
X11981182Y-12187746D02*
X11990706Y-12197269D01*
X11990706Y-12197269D02*
X12009753Y-12206793D01*
X12009753Y-12206793D02*
X12047848Y-12206793D01*
X12047848Y-12206793D02*
X12066896Y-12197269D01*
X12066896Y-12197269D02*
X12076420Y-12187746D01*
X12076420Y-12187746D02*
X12085944Y-12168698D01*
X12162134Y-12082984D02*
X12162134Y-12121079D01*
X12238325Y-12082984D02*
X12238325Y-12121079D01*
X12533563Y-12359174D02*
X12524039Y-12349650D01*
X12524039Y-12349650D02*
X12504991Y-12321079D01*
X12504991Y-12321079D02*
X12495468Y-12302031D01*
X12495468Y-12302031D02*
X12485944Y-12273460D01*
X12485944Y-12273460D02*
X12476420Y-12225841D01*
X12476420Y-12225841D02*
X12476420Y-12187746D01*
X12476420Y-12187746D02*
X12485944Y-12140127D01*
X12485944Y-12140127D02*
X12495468Y-12111555D01*
X12495468Y-12111555D02*
X12504991Y-12092508D01*
X12504991Y-12092508D02*
X12524039Y-12063936D01*
X12524039Y-12063936D02*
X12533563Y-12054412D01*
X12619277Y-12282984D02*
X12657372Y-12282984D01*
X12657372Y-12282984D02*
X12676420Y-12273460D01*
X12676420Y-12273460D02*
X12685944Y-12263936D01*
X12685944Y-12263936D02*
X12704991Y-12235365D01*
X12704991Y-12235365D02*
X12714515Y-12197269D01*
X12714515Y-12197269D02*
X12714515Y-12121079D01*
X12714515Y-12121079D02*
X12704991Y-12102031D01*
X12704991Y-12102031D02*
X12695468Y-12092508D01*
X12695468Y-12092508D02*
X12676420Y-12082984D01*
X12676420Y-12082984D02*
X12638325Y-12082984D01*
X12638325Y-12082984D02*
X12619277Y-12092508D01*
X12619277Y-12092508D02*
X12609753Y-12102031D01*
X12609753Y-12102031D02*
X12600229Y-12121079D01*
X12600229Y-12121079D02*
X12600229Y-12168698D01*
X12600229Y-12168698D02*
X12609753Y-12187746D01*
X12609753Y-12187746D02*
X12619277Y-12197269D01*
X12619277Y-12197269D02*
X12638325Y-12206793D01*
X12638325Y-12206793D02*
X12676420Y-12206793D01*
X12676420Y-12206793D02*
X12695468Y-12197269D01*
X12695468Y-12197269D02*
X12704991Y-12187746D01*
X12704991Y-12187746D02*
X12714515Y-12168698D01*
X12952610Y-12282984D02*
X12952610Y-12082984D01*
X13038325Y-12282984D02*
X13038325Y-12178222D01*
X13038325Y-12178222D02*
X13028801Y-12159174D01*
X13028801Y-12159174D02*
X13009753Y-12149650D01*
X13009753Y-12149650D02*
X12981182Y-12149650D01*
X12981182Y-12149650D02*
X12962134Y-12159174D01*
X12962134Y-12159174D02*
X12952610Y-12168698D01*
X13162134Y-12282984D02*
X13143087Y-12273460D01*
X13143087Y-12273460D02*
X13133563Y-12263936D01*
X13133563Y-12263936D02*
X13124039Y-12244888D01*
X13124039Y-12244888D02*
X13124039Y-12187746D01*
X13124039Y-12187746D02*
X13133563Y-12168698D01*
X13133563Y-12168698D02*
X13143087Y-12159174D01*
X13143087Y-12159174D02*
X13162134Y-12149650D01*
X13162134Y-12149650D02*
X13190706Y-12149650D01*
X13190706Y-12149650D02*
X13209753Y-12159174D01*
X13209753Y-12159174D02*
X13219277Y-12168698D01*
X13219277Y-12168698D02*
X13228801Y-12187746D01*
X13228801Y-12187746D02*
X13228801Y-12244888D01*
X13228801Y-12244888D02*
X13219277Y-12263936D01*
X13219277Y-12263936D02*
X13209753Y-12273460D01*
X13209753Y-12273460D02*
X13190706Y-12282984D01*
X13190706Y-12282984D02*
X13162134Y-12282984D01*
X13343087Y-12282984D02*
X13324039Y-12273460D01*
X13324039Y-12273460D02*
X13314515Y-12254412D01*
X13314515Y-12254412D02*
X13314515Y-12082984D01*
X13495468Y-12273460D02*
X13476420Y-12282984D01*
X13476420Y-12282984D02*
X13438325Y-12282984D01*
X13438325Y-12282984D02*
X13419277Y-12273460D01*
X13419277Y-12273460D02*
X13409753Y-12254412D01*
X13409753Y-12254412D02*
X13409753Y-12178222D01*
X13409753Y-12178222D02*
X13419277Y-12159174D01*
X13419277Y-12159174D02*
X13438325Y-12149650D01*
X13438325Y-12149650D02*
X13476420Y-12149650D01*
X13476420Y-12149650D02*
X13495468Y-12159174D01*
X13495468Y-12159174D02*
X13504991Y-12178222D01*
X13504991Y-12178222D02*
X13504991Y-12197269D01*
X13504991Y-12197269D02*
X13409753Y-12216317D01*
X13581182Y-12273460D02*
X13600230Y-12282984D01*
X13600230Y-12282984D02*
X13638325Y-12282984D01*
X13638325Y-12282984D02*
X13657372Y-12273460D01*
X13657372Y-12273460D02*
X13666896Y-12254412D01*
X13666896Y-12254412D02*
X13666896Y-12244888D01*
X13666896Y-12244888D02*
X13657372Y-12225841D01*
X13657372Y-12225841D02*
X13638325Y-12216317D01*
X13638325Y-12216317D02*
X13609753Y-12216317D01*
X13609753Y-12216317D02*
X13590706Y-12206793D01*
X13590706Y-12206793D02*
X13581182Y-12187746D01*
X13581182Y-12187746D02*
X13581182Y-12178222D01*
X13581182Y-12178222D02*
X13590706Y-12159174D01*
X13590706Y-12159174D02*
X13609753Y-12149650D01*
X13609753Y-12149650D02*
X13638325Y-12149650D01*
X13638325Y-12149650D02*
X13657372Y-12159174D01*
X13733563Y-12359174D02*
X13743087Y-12349650D01*
X13743087Y-12349650D02*
X13762134Y-12321079D01*
X13762134Y-12321079D02*
X13771658Y-12302031D01*
X13771658Y-12302031D02*
X13781182Y-12273460D01*
X13781182Y-12273460D02*
X13790706Y-12225841D01*
X13790706Y-12225841D02*
X13790706Y-12187746D01*
X13790706Y-12187746D02*
X13781182Y-12140127D01*
X13781182Y-12140127D02*
X13771658Y-12111555D01*
X13771658Y-12111555D02*
X13762134Y-12092508D01*
X13762134Y-12092508D02*
X13743087Y-12063936D01*
X13743087Y-12063936D02*
X13733563Y-12054412D01*
D12*
X8958500Y-12455500D02*
G75*
G02*
X8928500Y-12455500I-15000J0D01*
G01*
X8928500Y-12455500D02*
G75*
G02*
X8958500Y-12455500I15000J0D01*
G01*
D11*
X9257372Y-12346984D02*
X9276420Y-12346984D01*
X9276420Y-12346984D02*
X9295467Y-12356508D01*
X9295467Y-12356508D02*
X9304991Y-12366031D01*
X9304991Y-12366031D02*
X9314515Y-12385079D01*
X9314515Y-12385079D02*
X9324039Y-12423174D01*
X9324039Y-12423174D02*
X9324039Y-12470793D01*
X9324039Y-12470793D02*
X9314515Y-12508888D01*
X9314515Y-12508888D02*
X9304991Y-12527936D01*
X9304991Y-12527936D02*
X9295467Y-12537460D01*
X9295467Y-12537460D02*
X9276420Y-12546984D01*
X9276420Y-12546984D02*
X9257372Y-12546984D01*
X9257372Y-12546984D02*
X9238324Y-12537460D01*
X9238324Y-12537460D02*
X9228801Y-12527936D01*
X9228801Y-12527936D02*
X9219277Y-12508888D01*
X9219277Y-12508888D02*
X9209753Y-12470793D01*
X9209753Y-12470793D02*
X9209753Y-12423174D01*
X9209753Y-12423174D02*
X9219277Y-12385079D01*
X9219277Y-12385079D02*
X9228801Y-12366031D01*
X9228801Y-12366031D02*
X9238324Y-12356508D01*
X9238324Y-12356508D02*
X9257372Y-12346984D01*
X9409753Y-12527936D02*
X9419277Y-12537460D01*
X9419277Y-12537460D02*
X9409753Y-12546984D01*
X9409753Y-12546984D02*
X9400229Y-12537460D01*
X9400229Y-12537460D02*
X9409753Y-12527936D01*
X9409753Y-12527936D02*
X9409753Y-12546984D01*
X9485944Y-12346984D02*
X9609753Y-12346984D01*
X9609753Y-12346984D02*
X9543086Y-12423174D01*
X9543086Y-12423174D02*
X9571658Y-12423174D01*
X9571658Y-12423174D02*
X9590705Y-12432698D01*
X9590705Y-12432698D02*
X9600229Y-12442222D01*
X9600229Y-12442222D02*
X9609753Y-12461269D01*
X9609753Y-12461269D02*
X9609753Y-12508888D01*
X9609753Y-12508888D02*
X9600229Y-12527936D01*
X9600229Y-12527936D02*
X9590705Y-12537460D01*
X9590705Y-12537460D02*
X9571658Y-12546984D01*
X9571658Y-12546984D02*
X9514515Y-12546984D01*
X9514515Y-12546984D02*
X9495467Y-12537460D01*
X9495467Y-12537460D02*
X9485944Y-12527936D01*
X9733563Y-12346984D02*
X9752610Y-12346984D01*
X9752610Y-12346984D02*
X9771658Y-12356508D01*
X9771658Y-12356508D02*
X9781182Y-12366031D01*
X9781182Y-12366031D02*
X9790705Y-12385079D01*
X9790705Y-12385079D02*
X9800229Y-12423174D01*
X9800229Y-12423174D02*
X9800229Y-12470793D01*
X9800229Y-12470793D02*
X9790705Y-12508888D01*
X9790705Y-12508888D02*
X9781182Y-12527936D01*
X9781182Y-12527936D02*
X9771658Y-12537460D01*
X9771658Y-12537460D02*
X9752610Y-12546984D01*
X9752610Y-12546984D02*
X9733563Y-12546984D01*
X9733563Y-12546984D02*
X9714515Y-12537460D01*
X9714515Y-12537460D02*
X9704991Y-12527936D01*
X9704991Y-12527936D02*
X9695467Y-12508888D01*
X9695467Y-12508888D02*
X9685944Y-12470793D01*
X9685944Y-12470793D02*
X9685944Y-12423174D01*
X9685944Y-12423174D02*
X9695467Y-12385079D01*
X9695467Y-12385079D02*
X9704991Y-12366031D01*
X9704991Y-12366031D02*
X9714515Y-12356508D01*
X9714515Y-12356508D02*
X9733563Y-12346984D01*
X9924039Y-12346984D02*
X9943086Y-12346984D01*
X9943086Y-12346984D02*
X9962134Y-12356508D01*
X9962134Y-12356508D02*
X9971658Y-12366031D01*
X9971658Y-12366031D02*
X9981182Y-12385079D01*
X9981182Y-12385079D02*
X9990705Y-12423174D01*
X9990705Y-12423174D02*
X9990705Y-12470793D01*
X9990705Y-12470793D02*
X9981182Y-12508888D01*
X9981182Y-12508888D02*
X9971658Y-12527936D01*
X9971658Y-12527936D02*
X9962134Y-12537460D01*
X9962134Y-12537460D02*
X9943086Y-12546984D01*
X9943086Y-12546984D02*
X9924039Y-12546984D01*
X9924039Y-12546984D02*
X9904991Y-12537460D01*
X9904991Y-12537460D02*
X9895467Y-12527936D01*
X9895467Y-12527936D02*
X9885944Y-12508888D01*
X9885944Y-12508888D02*
X9876420Y-12470793D01*
X9876420Y-12470793D02*
X9876420Y-12423174D01*
X9876420Y-12423174D02*
X9885944Y-12385079D01*
X9885944Y-12385079D02*
X9895467Y-12366031D01*
X9895467Y-12366031D02*
X9904991Y-12356508D01*
X9904991Y-12356508D02*
X9924039Y-12346984D01*
X10076420Y-12546984D02*
X10076420Y-12413650D01*
X10076420Y-12432698D02*
X10085944Y-12423174D01*
X10085944Y-12423174D02*
X10104991Y-12413650D01*
X10104991Y-12413650D02*
X10133563Y-12413650D01*
X10133563Y-12413650D02*
X10152610Y-12423174D01*
X10152610Y-12423174D02*
X10162134Y-12442222D01*
X10162134Y-12442222D02*
X10162134Y-12546984D01*
X10162134Y-12442222D02*
X10171658Y-12423174D01*
X10171658Y-12423174D02*
X10190705Y-12413650D01*
X10190705Y-12413650D02*
X10219277Y-12413650D01*
X10219277Y-12413650D02*
X10238325Y-12423174D01*
X10238325Y-12423174D02*
X10247848Y-12442222D01*
X10247848Y-12442222D02*
X10247848Y-12546984D01*
X10343086Y-12546984D02*
X10343086Y-12413650D01*
X10343086Y-12432698D02*
X10352610Y-12423174D01*
X10352610Y-12423174D02*
X10371658Y-12413650D01*
X10371658Y-12413650D02*
X10400229Y-12413650D01*
X10400229Y-12413650D02*
X10419277Y-12423174D01*
X10419277Y-12423174D02*
X10428801Y-12442222D01*
X10428801Y-12442222D02*
X10428801Y-12546984D01*
X10428801Y-12442222D02*
X10438325Y-12423174D01*
X10438325Y-12423174D02*
X10457372Y-12413650D01*
X10457372Y-12413650D02*
X10485944Y-12413650D01*
X10485944Y-12413650D02*
X10504991Y-12423174D01*
X10504991Y-12423174D02*
X10514515Y-12442222D01*
X10514515Y-12442222D02*
X10514515Y-12546984D01*
X10904991Y-12337460D02*
X10733563Y-12594603D01*
X11162134Y-12346984D02*
X11181182Y-12346984D01*
X11181182Y-12346984D02*
X11200229Y-12356508D01*
X11200229Y-12356508D02*
X11209753Y-12366031D01*
X11209753Y-12366031D02*
X11219277Y-12385079D01*
X11219277Y-12385079D02*
X11228801Y-12423174D01*
X11228801Y-12423174D02*
X11228801Y-12470793D01*
X11228801Y-12470793D02*
X11219277Y-12508888D01*
X11219277Y-12508888D02*
X11209753Y-12527936D01*
X11209753Y-12527936D02*
X11200229Y-12537460D01*
X11200229Y-12537460D02*
X11181182Y-12546984D01*
X11181182Y-12546984D02*
X11162134Y-12546984D01*
X11162134Y-12546984D02*
X11143087Y-12537460D01*
X11143087Y-12537460D02*
X11133563Y-12527936D01*
X11133563Y-12527936D02*
X11124039Y-12508888D01*
X11124039Y-12508888D02*
X11114515Y-12470793D01*
X11114515Y-12470793D02*
X11114515Y-12423174D01*
X11114515Y-12423174D02*
X11124039Y-12385079D01*
X11124039Y-12385079D02*
X11133563Y-12366031D01*
X11133563Y-12366031D02*
X11143087Y-12356508D01*
X11143087Y-12356508D02*
X11162134Y-12346984D01*
X11314515Y-12527936D02*
X11324039Y-12537460D01*
X11324039Y-12537460D02*
X11314515Y-12546984D01*
X11314515Y-12546984D02*
X11304991Y-12537460D01*
X11304991Y-12537460D02*
X11314515Y-12527936D01*
X11314515Y-12527936D02*
X11314515Y-12546984D01*
X11447848Y-12346984D02*
X11466896Y-12346984D01*
X11466896Y-12346984D02*
X11485944Y-12356508D01*
X11485944Y-12356508D02*
X11495467Y-12366031D01*
X11495467Y-12366031D02*
X11504991Y-12385079D01*
X11504991Y-12385079D02*
X11514515Y-12423174D01*
X11514515Y-12423174D02*
X11514515Y-12470793D01*
X11514515Y-12470793D02*
X11504991Y-12508888D01*
X11504991Y-12508888D02*
X11495467Y-12527936D01*
X11495467Y-12527936D02*
X11485944Y-12537460D01*
X11485944Y-12537460D02*
X11466896Y-12546984D01*
X11466896Y-12546984D02*
X11447848Y-12546984D01*
X11447848Y-12546984D02*
X11428801Y-12537460D01*
X11428801Y-12537460D02*
X11419277Y-12527936D01*
X11419277Y-12527936D02*
X11409753Y-12508888D01*
X11409753Y-12508888D02*
X11400229Y-12470793D01*
X11400229Y-12470793D02*
X11400229Y-12423174D01*
X11400229Y-12423174D02*
X11409753Y-12385079D01*
X11409753Y-12385079D02*
X11419277Y-12366031D01*
X11419277Y-12366031D02*
X11428801Y-12356508D01*
X11428801Y-12356508D02*
X11447848Y-12346984D01*
X11704991Y-12546984D02*
X11590706Y-12546984D01*
X11647848Y-12546984D02*
X11647848Y-12346984D01*
X11647848Y-12346984D02*
X11628801Y-12375555D01*
X11628801Y-12375555D02*
X11609753Y-12394603D01*
X11609753Y-12394603D02*
X11590706Y-12404127D01*
X11895467Y-12546984D02*
X11781182Y-12546984D01*
X11838325Y-12546984D02*
X11838325Y-12346984D01*
X11838325Y-12346984D02*
X11819277Y-12375555D01*
X11819277Y-12375555D02*
X11800229Y-12394603D01*
X11800229Y-12394603D02*
X11781182Y-12404127D01*
X12009753Y-12432698D02*
X11990706Y-12423174D01*
X11990706Y-12423174D02*
X11981182Y-12413650D01*
X11981182Y-12413650D02*
X11971658Y-12394603D01*
X11971658Y-12394603D02*
X11971658Y-12385079D01*
X11971658Y-12385079D02*
X11981182Y-12366031D01*
X11981182Y-12366031D02*
X11990706Y-12356508D01*
X11990706Y-12356508D02*
X12009753Y-12346984D01*
X12009753Y-12346984D02*
X12047848Y-12346984D01*
X12047848Y-12346984D02*
X12066896Y-12356508D01*
X12066896Y-12356508D02*
X12076420Y-12366031D01*
X12076420Y-12366031D02*
X12085944Y-12385079D01*
X12085944Y-12385079D02*
X12085944Y-12394603D01*
X12085944Y-12394603D02*
X12076420Y-12413650D01*
X12076420Y-12413650D02*
X12066896Y-12423174D01*
X12066896Y-12423174D02*
X12047848Y-12432698D01*
X12047848Y-12432698D02*
X12009753Y-12432698D01*
X12009753Y-12432698D02*
X11990706Y-12442222D01*
X11990706Y-12442222D02*
X11981182Y-12451746D01*
X11981182Y-12451746D02*
X11971658Y-12470793D01*
X11971658Y-12470793D02*
X11971658Y-12508888D01*
X11971658Y-12508888D02*
X11981182Y-12527936D01*
X11981182Y-12527936D02*
X11990706Y-12537460D01*
X11990706Y-12537460D02*
X12009753Y-12546984D01*
X12009753Y-12546984D02*
X12047848Y-12546984D01*
X12047848Y-12546984D02*
X12066896Y-12537460D01*
X12066896Y-12537460D02*
X12076420Y-12527936D01*
X12076420Y-12527936D02*
X12085944Y-12508888D01*
X12085944Y-12508888D02*
X12085944Y-12470793D01*
X12085944Y-12470793D02*
X12076420Y-12451746D01*
X12076420Y-12451746D02*
X12066896Y-12442222D01*
X12066896Y-12442222D02*
X12047848Y-12432698D01*
X12162134Y-12346984D02*
X12162134Y-12385079D01*
X12238325Y-12346984D02*
X12238325Y-12385079D01*
X12533563Y-12623174D02*
X12524039Y-12613650D01*
X12524039Y-12613650D02*
X12504991Y-12585079D01*
X12504991Y-12585079D02*
X12495468Y-12566031D01*
X12495468Y-12566031D02*
X12485944Y-12537460D01*
X12485944Y-12537460D02*
X12476420Y-12489841D01*
X12476420Y-12489841D02*
X12476420Y-12451746D01*
X12476420Y-12451746D02*
X12485944Y-12404127D01*
X12485944Y-12404127D02*
X12495468Y-12375555D01*
X12495468Y-12375555D02*
X12504991Y-12356508D01*
X12504991Y-12356508D02*
X12524039Y-12327936D01*
X12524039Y-12327936D02*
X12533563Y-12318412D01*
X12714515Y-12546984D02*
X12600229Y-12546984D01*
X12657372Y-12546984D02*
X12657372Y-12346984D01*
X12657372Y-12346984D02*
X12638325Y-12375555D01*
X12638325Y-12375555D02*
X12619277Y-12394603D01*
X12619277Y-12394603D02*
X12600229Y-12404127D01*
X12885944Y-12346984D02*
X12847848Y-12346984D01*
X12847848Y-12346984D02*
X12828801Y-12356508D01*
X12828801Y-12356508D02*
X12819277Y-12366031D01*
X12819277Y-12366031D02*
X12800229Y-12394603D01*
X12800229Y-12394603D02*
X12790706Y-12432698D01*
X12790706Y-12432698D02*
X12790706Y-12508888D01*
X12790706Y-12508888D02*
X12800229Y-12527936D01*
X12800229Y-12527936D02*
X12809753Y-12537460D01*
X12809753Y-12537460D02*
X12828801Y-12546984D01*
X12828801Y-12546984D02*
X12866896Y-12546984D01*
X12866896Y-12546984D02*
X12885944Y-12537460D01*
X12885944Y-12537460D02*
X12895468Y-12527936D01*
X12895468Y-12527936D02*
X12904991Y-12508888D01*
X12904991Y-12508888D02*
X12904991Y-12461269D01*
X12904991Y-12461269D02*
X12895468Y-12442222D01*
X12895468Y-12442222D02*
X12885944Y-12432698D01*
X12885944Y-12432698D02*
X12866896Y-12423174D01*
X12866896Y-12423174D02*
X12828801Y-12423174D01*
X12828801Y-12423174D02*
X12809753Y-12432698D01*
X12809753Y-12432698D02*
X12800229Y-12442222D01*
X12800229Y-12442222D02*
X12790706Y-12461269D01*
X13000229Y-12546984D02*
X13038325Y-12546984D01*
X13038325Y-12546984D02*
X13057372Y-12537460D01*
X13057372Y-12537460D02*
X13066896Y-12527936D01*
X13066896Y-12527936D02*
X13085944Y-12499365D01*
X13085944Y-12499365D02*
X13095468Y-12461269D01*
X13095468Y-12461269D02*
X13095468Y-12385079D01*
X13095468Y-12385079D02*
X13085944Y-12366031D01*
X13085944Y-12366031D02*
X13076420Y-12356508D01*
X13076420Y-12356508D02*
X13057372Y-12346984D01*
X13057372Y-12346984D02*
X13019277Y-12346984D01*
X13019277Y-12346984D02*
X13000229Y-12356508D01*
X13000229Y-12356508D02*
X12990706Y-12366031D01*
X12990706Y-12366031D02*
X12981182Y-12385079D01*
X12981182Y-12385079D02*
X12981182Y-12432698D01*
X12981182Y-12432698D02*
X12990706Y-12451746D01*
X12990706Y-12451746D02*
X13000229Y-12461269D01*
X13000229Y-12461269D02*
X13019277Y-12470793D01*
X13019277Y-12470793D02*
X13057372Y-12470793D01*
X13057372Y-12470793D02*
X13076420Y-12461269D01*
X13076420Y-12461269D02*
X13085944Y-12451746D01*
X13085944Y-12451746D02*
X13095468Y-12432698D01*
X13333563Y-12546984D02*
X13333563Y-12346984D01*
X13419277Y-12546984D02*
X13419277Y-12442222D01*
X13419277Y-12442222D02*
X13409753Y-12423174D01*
X13409753Y-12423174D02*
X13390706Y-12413650D01*
X13390706Y-12413650D02*
X13362134Y-12413650D01*
X13362134Y-12413650D02*
X13343087Y-12423174D01*
X13343087Y-12423174D02*
X13333563Y-12432698D01*
X13543087Y-12546984D02*
X13524039Y-12537460D01*
X13524039Y-12537460D02*
X13514515Y-12527936D01*
X13514515Y-12527936D02*
X13504991Y-12508888D01*
X13504991Y-12508888D02*
X13504991Y-12451746D01*
X13504991Y-12451746D02*
X13514515Y-12432698D01*
X13514515Y-12432698D02*
X13524039Y-12423174D01*
X13524039Y-12423174D02*
X13543087Y-12413650D01*
X13543087Y-12413650D02*
X13571658Y-12413650D01*
X13571658Y-12413650D02*
X13590706Y-12423174D01*
X13590706Y-12423174D02*
X13600230Y-12432698D01*
X13600230Y-12432698D02*
X13609753Y-12451746D01*
X13609753Y-12451746D02*
X13609753Y-12508888D01*
X13609753Y-12508888D02*
X13600230Y-12527936D01*
X13600230Y-12527936D02*
X13590706Y-12537460D01*
X13590706Y-12537460D02*
X13571658Y-12546984D01*
X13571658Y-12546984D02*
X13543087Y-12546984D01*
X13724039Y-12546984D02*
X13704991Y-12537460D01*
X13704991Y-12537460D02*
X13695468Y-12518412D01*
X13695468Y-12518412D02*
X13695468Y-12346984D01*
X13876420Y-12537460D02*
X13857372Y-12546984D01*
X13857372Y-12546984D02*
X13819277Y-12546984D01*
X13819277Y-12546984D02*
X13800230Y-12537460D01*
X13800230Y-12537460D02*
X13790706Y-12518412D01*
X13790706Y-12518412D02*
X13790706Y-12442222D01*
X13790706Y-12442222D02*
X13800230Y-12423174D01*
X13800230Y-12423174D02*
X13819277Y-12413650D01*
X13819277Y-12413650D02*
X13857372Y-12413650D01*
X13857372Y-12413650D02*
X13876420Y-12423174D01*
X13876420Y-12423174D02*
X13885944Y-12442222D01*
X13885944Y-12442222D02*
X13885944Y-12461269D01*
X13885944Y-12461269D02*
X13790706Y-12480317D01*
X13962134Y-12537460D02*
X13981182Y-12546984D01*
X13981182Y-12546984D02*
X14019277Y-12546984D01*
X14019277Y-12546984D02*
X14038325Y-12537460D01*
X14038325Y-12537460D02*
X14047849Y-12518412D01*
X14047849Y-12518412D02*
X14047849Y-12508888D01*
X14047849Y-12508888D02*
X14038325Y-12489841D01*
X14038325Y-12489841D02*
X14019277Y-12480317D01*
X14019277Y-12480317D02*
X13990706Y-12480317D01*
X13990706Y-12480317D02*
X13971658Y-12470793D01*
X13971658Y-12470793D02*
X13962134Y-12451746D01*
X13962134Y-12451746D02*
X13962134Y-12442222D01*
X13962134Y-12442222D02*
X13971658Y-12423174D01*
X13971658Y-12423174D02*
X13990706Y-12413650D01*
X13990706Y-12413650D02*
X14019277Y-12413650D01*
X14019277Y-12413650D02*
X14038325Y-12423174D01*
X14114515Y-12623174D02*
X14124039Y-12613650D01*
X14124039Y-12613650D02*
X14143087Y-12585079D01*
X14143087Y-12585079D02*
X14152611Y-12566031D01*
X14152611Y-12566031D02*
X14162134Y-12537460D01*
X14162134Y-12537460D02*
X14171658Y-12489841D01*
X14171658Y-12489841D02*
X14171658Y-12451746D01*
X14171658Y-12451746D02*
X14162134Y-12404127D01*
X14162134Y-12404127D02*
X14152611Y-12375555D01*
X14152611Y-12375555D02*
X14143087Y-12356508D01*
X14143087Y-12356508D02*
X14124039Y-12327936D01*
X14124039Y-12327936D02*
X14114515Y-12318412D01*
D12*
X8910000Y-12671000D02*
X8910000Y-12768000D01*
X8861500Y-12719500D02*
X8958500Y-12719500D01*
D11*
X9257372Y-12610984D02*
X9276420Y-12610984D01*
X9276420Y-12610984D02*
X9295467Y-12620508D01*
X9295467Y-12620508D02*
X9304991Y-12630031D01*
X9304991Y-12630031D02*
X9314515Y-12649079D01*
X9314515Y-12649079D02*
X9324039Y-12687174D01*
X9324039Y-12687174D02*
X9324039Y-12734793D01*
X9324039Y-12734793D02*
X9314515Y-12772888D01*
X9314515Y-12772888D02*
X9304991Y-12791936D01*
X9304991Y-12791936D02*
X9295467Y-12801460D01*
X9295467Y-12801460D02*
X9276420Y-12810984D01*
X9276420Y-12810984D02*
X9257372Y-12810984D01*
X9257372Y-12810984D02*
X9238324Y-12801460D01*
X9238324Y-12801460D02*
X9228801Y-12791936D01*
X9228801Y-12791936D02*
X9219277Y-12772888D01*
X9219277Y-12772888D02*
X9209753Y-12734793D01*
X9209753Y-12734793D02*
X9209753Y-12687174D01*
X9209753Y-12687174D02*
X9219277Y-12649079D01*
X9219277Y-12649079D02*
X9228801Y-12630031D01*
X9228801Y-12630031D02*
X9238324Y-12620508D01*
X9238324Y-12620508D02*
X9257372Y-12610984D01*
X9409753Y-12791936D02*
X9419277Y-12801460D01*
X9419277Y-12801460D02*
X9409753Y-12810984D01*
X9409753Y-12810984D02*
X9400229Y-12801460D01*
X9400229Y-12801460D02*
X9409753Y-12791936D01*
X9409753Y-12791936D02*
X9409753Y-12810984D01*
X9514515Y-12810984D02*
X9552610Y-12810984D01*
X9552610Y-12810984D02*
X9571658Y-12801460D01*
X9571658Y-12801460D02*
X9581182Y-12791936D01*
X9581182Y-12791936D02*
X9600229Y-12763365D01*
X9600229Y-12763365D02*
X9609753Y-12725269D01*
X9609753Y-12725269D02*
X9609753Y-12649079D01*
X9609753Y-12649079D02*
X9600229Y-12630031D01*
X9600229Y-12630031D02*
X9590705Y-12620508D01*
X9590705Y-12620508D02*
X9571658Y-12610984D01*
X9571658Y-12610984D02*
X9533563Y-12610984D01*
X9533563Y-12610984D02*
X9514515Y-12620508D01*
X9514515Y-12620508D02*
X9504991Y-12630031D01*
X9504991Y-12630031D02*
X9495467Y-12649079D01*
X9495467Y-12649079D02*
X9495467Y-12696698D01*
X9495467Y-12696698D02*
X9504991Y-12715746D01*
X9504991Y-12715746D02*
X9514515Y-12725269D01*
X9514515Y-12725269D02*
X9533563Y-12734793D01*
X9533563Y-12734793D02*
X9571658Y-12734793D01*
X9571658Y-12734793D02*
X9590705Y-12725269D01*
X9590705Y-12725269D02*
X9600229Y-12715746D01*
X9600229Y-12715746D02*
X9609753Y-12696698D01*
X9676420Y-12610984D02*
X9809753Y-12610984D01*
X9809753Y-12610984D02*
X9724039Y-12810984D01*
X9924039Y-12610984D02*
X9943086Y-12610984D01*
X9943086Y-12610984D02*
X9962134Y-12620508D01*
X9962134Y-12620508D02*
X9971658Y-12630031D01*
X9971658Y-12630031D02*
X9981182Y-12649079D01*
X9981182Y-12649079D02*
X9990705Y-12687174D01*
X9990705Y-12687174D02*
X9990705Y-12734793D01*
X9990705Y-12734793D02*
X9981182Y-12772888D01*
X9981182Y-12772888D02*
X9971658Y-12791936D01*
X9971658Y-12791936D02*
X9962134Y-12801460D01*
X9962134Y-12801460D02*
X9943086Y-12810984D01*
X9943086Y-12810984D02*
X9924039Y-12810984D01*
X9924039Y-12810984D02*
X9904991Y-12801460D01*
X9904991Y-12801460D02*
X9895467Y-12791936D01*
X9895467Y-12791936D02*
X9885944Y-12772888D01*
X9885944Y-12772888D02*
X9876420Y-12734793D01*
X9876420Y-12734793D02*
X9876420Y-12687174D01*
X9876420Y-12687174D02*
X9885944Y-12649079D01*
X9885944Y-12649079D02*
X9895467Y-12630031D01*
X9895467Y-12630031D02*
X9904991Y-12620508D01*
X9904991Y-12620508D02*
X9924039Y-12610984D01*
X10076420Y-12810984D02*
X10076420Y-12677650D01*
X10076420Y-12696698D02*
X10085944Y-12687174D01*
X10085944Y-12687174D02*
X10104991Y-12677650D01*
X10104991Y-12677650D02*
X10133563Y-12677650D01*
X10133563Y-12677650D02*
X10152610Y-12687174D01*
X10152610Y-12687174D02*
X10162134Y-12706222D01*
X10162134Y-12706222D02*
X10162134Y-12810984D01*
X10162134Y-12706222D02*
X10171658Y-12687174D01*
X10171658Y-12687174D02*
X10190705Y-12677650D01*
X10190705Y-12677650D02*
X10219277Y-12677650D01*
X10219277Y-12677650D02*
X10238325Y-12687174D01*
X10238325Y-12687174D02*
X10247848Y-12706222D01*
X10247848Y-12706222D02*
X10247848Y-12810984D01*
X10343086Y-12810984D02*
X10343086Y-12677650D01*
X10343086Y-12696698D02*
X10352610Y-12687174D01*
X10352610Y-12687174D02*
X10371658Y-12677650D01*
X10371658Y-12677650D02*
X10400229Y-12677650D01*
X10400229Y-12677650D02*
X10419277Y-12687174D01*
X10419277Y-12687174D02*
X10428801Y-12706222D01*
X10428801Y-12706222D02*
X10428801Y-12810984D01*
X10428801Y-12706222D02*
X10438325Y-12687174D01*
X10438325Y-12687174D02*
X10457372Y-12677650D01*
X10457372Y-12677650D02*
X10485944Y-12677650D01*
X10485944Y-12677650D02*
X10504991Y-12687174D01*
X10504991Y-12687174D02*
X10514515Y-12706222D01*
X10514515Y-12706222D02*
X10514515Y-12810984D01*
X10904991Y-12601460D02*
X10733563Y-12858603D01*
X11162134Y-12610984D02*
X11181182Y-12610984D01*
X11181182Y-12610984D02*
X11200229Y-12620508D01*
X11200229Y-12620508D02*
X11209753Y-12630031D01*
X11209753Y-12630031D02*
X11219277Y-12649079D01*
X11219277Y-12649079D02*
X11228801Y-12687174D01*
X11228801Y-12687174D02*
X11228801Y-12734793D01*
X11228801Y-12734793D02*
X11219277Y-12772888D01*
X11219277Y-12772888D02*
X11209753Y-12791936D01*
X11209753Y-12791936D02*
X11200229Y-12801460D01*
X11200229Y-12801460D02*
X11181182Y-12810984D01*
X11181182Y-12810984D02*
X11162134Y-12810984D01*
X11162134Y-12810984D02*
X11143087Y-12801460D01*
X11143087Y-12801460D02*
X11133563Y-12791936D01*
X11133563Y-12791936D02*
X11124039Y-12772888D01*
X11124039Y-12772888D02*
X11114515Y-12734793D01*
X11114515Y-12734793D02*
X11114515Y-12687174D01*
X11114515Y-12687174D02*
X11124039Y-12649079D01*
X11124039Y-12649079D02*
X11133563Y-12630031D01*
X11133563Y-12630031D02*
X11143087Y-12620508D01*
X11143087Y-12620508D02*
X11162134Y-12610984D01*
X11314515Y-12791936D02*
X11324039Y-12801460D01*
X11324039Y-12801460D02*
X11314515Y-12810984D01*
X11314515Y-12810984D02*
X11304991Y-12801460D01*
X11304991Y-12801460D02*
X11314515Y-12791936D01*
X11314515Y-12791936D02*
X11314515Y-12810984D01*
X11447848Y-12610984D02*
X11466896Y-12610984D01*
X11466896Y-12610984D02*
X11485944Y-12620508D01*
X11485944Y-12620508D02*
X11495467Y-12630031D01*
X11495467Y-12630031D02*
X11504991Y-12649079D01*
X11504991Y-12649079D02*
X11514515Y-12687174D01*
X11514515Y-12687174D02*
X11514515Y-12734793D01*
X11514515Y-12734793D02*
X11504991Y-12772888D01*
X11504991Y-12772888D02*
X11495467Y-12791936D01*
X11495467Y-12791936D02*
X11485944Y-12801460D01*
X11485944Y-12801460D02*
X11466896Y-12810984D01*
X11466896Y-12810984D02*
X11447848Y-12810984D01*
X11447848Y-12810984D02*
X11428801Y-12801460D01*
X11428801Y-12801460D02*
X11419277Y-12791936D01*
X11419277Y-12791936D02*
X11409753Y-12772888D01*
X11409753Y-12772888D02*
X11400229Y-12734793D01*
X11400229Y-12734793D02*
X11400229Y-12687174D01*
X11400229Y-12687174D02*
X11409753Y-12649079D01*
X11409753Y-12649079D02*
X11419277Y-12630031D01*
X11419277Y-12630031D02*
X11428801Y-12620508D01*
X11428801Y-12620508D02*
X11447848Y-12610984D01*
X11581182Y-12610984D02*
X11704991Y-12610984D01*
X11704991Y-12610984D02*
X11638325Y-12687174D01*
X11638325Y-12687174D02*
X11666896Y-12687174D01*
X11666896Y-12687174D02*
X11685944Y-12696698D01*
X11685944Y-12696698D02*
X11695467Y-12706222D01*
X11695467Y-12706222D02*
X11704991Y-12725269D01*
X11704991Y-12725269D02*
X11704991Y-12772888D01*
X11704991Y-12772888D02*
X11695467Y-12791936D01*
X11695467Y-12791936D02*
X11685944Y-12801460D01*
X11685944Y-12801460D02*
X11666896Y-12810984D01*
X11666896Y-12810984D02*
X11609753Y-12810984D01*
X11609753Y-12810984D02*
X11590706Y-12801460D01*
X11590706Y-12801460D02*
X11581182Y-12791936D01*
X11819277Y-12696698D02*
X11800229Y-12687174D01*
X11800229Y-12687174D02*
X11790706Y-12677650D01*
X11790706Y-12677650D02*
X11781182Y-12658603D01*
X11781182Y-12658603D02*
X11781182Y-12649079D01*
X11781182Y-12649079D02*
X11790706Y-12630031D01*
X11790706Y-12630031D02*
X11800229Y-12620508D01*
X11800229Y-12620508D02*
X11819277Y-12610984D01*
X11819277Y-12610984D02*
X11857372Y-12610984D01*
X11857372Y-12610984D02*
X11876420Y-12620508D01*
X11876420Y-12620508D02*
X11885944Y-12630031D01*
X11885944Y-12630031D02*
X11895467Y-12649079D01*
X11895467Y-12649079D02*
X11895467Y-12658603D01*
X11895467Y-12658603D02*
X11885944Y-12677650D01*
X11885944Y-12677650D02*
X11876420Y-12687174D01*
X11876420Y-12687174D02*
X11857372Y-12696698D01*
X11857372Y-12696698D02*
X11819277Y-12696698D01*
X11819277Y-12696698D02*
X11800229Y-12706222D01*
X11800229Y-12706222D02*
X11790706Y-12715746D01*
X11790706Y-12715746D02*
X11781182Y-12734793D01*
X11781182Y-12734793D02*
X11781182Y-12772888D01*
X11781182Y-12772888D02*
X11790706Y-12791936D01*
X11790706Y-12791936D02*
X11800229Y-12801460D01*
X11800229Y-12801460D02*
X11819277Y-12810984D01*
X11819277Y-12810984D02*
X11857372Y-12810984D01*
X11857372Y-12810984D02*
X11876420Y-12801460D01*
X11876420Y-12801460D02*
X11885944Y-12791936D01*
X11885944Y-12791936D02*
X11895467Y-12772888D01*
X11895467Y-12772888D02*
X11895467Y-12734793D01*
X11895467Y-12734793D02*
X11885944Y-12715746D01*
X11885944Y-12715746D02*
X11876420Y-12706222D01*
X11876420Y-12706222D02*
X11857372Y-12696698D01*
X11971658Y-12630031D02*
X11981182Y-12620508D01*
X11981182Y-12620508D02*
X12000229Y-12610984D01*
X12000229Y-12610984D02*
X12047848Y-12610984D01*
X12047848Y-12610984D02*
X12066896Y-12620508D01*
X12066896Y-12620508D02*
X12076420Y-12630031D01*
X12076420Y-12630031D02*
X12085944Y-12649079D01*
X12085944Y-12649079D02*
X12085944Y-12668127D01*
X12085944Y-12668127D02*
X12076420Y-12696698D01*
X12076420Y-12696698D02*
X11962134Y-12810984D01*
X11962134Y-12810984D02*
X12085944Y-12810984D01*
X12162134Y-12610984D02*
X12162134Y-12649079D01*
X12238325Y-12610984D02*
X12238325Y-12649079D01*
X12533563Y-12887174D02*
X12524039Y-12877650D01*
X12524039Y-12877650D02*
X12504991Y-12849079D01*
X12504991Y-12849079D02*
X12495468Y-12830031D01*
X12495468Y-12830031D02*
X12485944Y-12801460D01*
X12485944Y-12801460D02*
X12476420Y-12753841D01*
X12476420Y-12753841D02*
X12476420Y-12715746D01*
X12476420Y-12715746D02*
X12485944Y-12668127D01*
X12485944Y-12668127D02*
X12495468Y-12639555D01*
X12495468Y-12639555D02*
X12504991Y-12620508D01*
X12504991Y-12620508D02*
X12524039Y-12591936D01*
X12524039Y-12591936D02*
X12533563Y-12582412D01*
X12600229Y-12630031D02*
X12609753Y-12620508D01*
X12609753Y-12620508D02*
X12628801Y-12610984D01*
X12628801Y-12610984D02*
X12676420Y-12610984D01*
X12676420Y-12610984D02*
X12695468Y-12620508D01*
X12695468Y-12620508D02*
X12704991Y-12630031D01*
X12704991Y-12630031D02*
X12714515Y-12649079D01*
X12714515Y-12649079D02*
X12714515Y-12668127D01*
X12714515Y-12668127D02*
X12704991Y-12696698D01*
X12704991Y-12696698D02*
X12590706Y-12810984D01*
X12590706Y-12810984D02*
X12714515Y-12810984D01*
X12952610Y-12810984D02*
X12952610Y-12610984D01*
X13038325Y-12810984D02*
X13038325Y-12706222D01*
X13038325Y-12706222D02*
X13028801Y-12687174D01*
X13028801Y-12687174D02*
X13009753Y-12677650D01*
X13009753Y-12677650D02*
X12981182Y-12677650D01*
X12981182Y-12677650D02*
X12962134Y-12687174D01*
X12962134Y-12687174D02*
X12952610Y-12696698D01*
X13162134Y-12810984D02*
X13143087Y-12801460D01*
X13143087Y-12801460D02*
X13133563Y-12791936D01*
X13133563Y-12791936D02*
X13124039Y-12772888D01*
X13124039Y-12772888D02*
X13124039Y-12715746D01*
X13124039Y-12715746D02*
X13133563Y-12696698D01*
X13133563Y-12696698D02*
X13143087Y-12687174D01*
X13143087Y-12687174D02*
X13162134Y-12677650D01*
X13162134Y-12677650D02*
X13190706Y-12677650D01*
X13190706Y-12677650D02*
X13209753Y-12687174D01*
X13209753Y-12687174D02*
X13219277Y-12696698D01*
X13219277Y-12696698D02*
X13228801Y-12715746D01*
X13228801Y-12715746D02*
X13228801Y-12772888D01*
X13228801Y-12772888D02*
X13219277Y-12791936D01*
X13219277Y-12791936D02*
X13209753Y-12801460D01*
X13209753Y-12801460D02*
X13190706Y-12810984D01*
X13190706Y-12810984D02*
X13162134Y-12810984D01*
X13343087Y-12810984D02*
X13324039Y-12801460D01*
X13324039Y-12801460D02*
X13314515Y-12782412D01*
X13314515Y-12782412D02*
X13314515Y-12610984D01*
X13495468Y-12801460D02*
X13476420Y-12810984D01*
X13476420Y-12810984D02*
X13438325Y-12810984D01*
X13438325Y-12810984D02*
X13419277Y-12801460D01*
X13419277Y-12801460D02*
X13409753Y-12782412D01*
X13409753Y-12782412D02*
X13409753Y-12706222D01*
X13409753Y-12706222D02*
X13419277Y-12687174D01*
X13419277Y-12687174D02*
X13438325Y-12677650D01*
X13438325Y-12677650D02*
X13476420Y-12677650D01*
X13476420Y-12677650D02*
X13495468Y-12687174D01*
X13495468Y-12687174D02*
X13504991Y-12706222D01*
X13504991Y-12706222D02*
X13504991Y-12725269D01*
X13504991Y-12725269D02*
X13409753Y-12744317D01*
X13581182Y-12801460D02*
X13600230Y-12810984D01*
X13600230Y-12810984D02*
X13638325Y-12810984D01*
X13638325Y-12810984D02*
X13657372Y-12801460D01*
X13657372Y-12801460D02*
X13666896Y-12782412D01*
X13666896Y-12782412D02*
X13666896Y-12772888D01*
X13666896Y-12772888D02*
X13657372Y-12753841D01*
X13657372Y-12753841D02*
X13638325Y-12744317D01*
X13638325Y-12744317D02*
X13609753Y-12744317D01*
X13609753Y-12744317D02*
X13590706Y-12734793D01*
X13590706Y-12734793D02*
X13581182Y-12715746D01*
X13581182Y-12715746D02*
X13581182Y-12706222D01*
X13581182Y-12706222D02*
X13590706Y-12687174D01*
X13590706Y-12687174D02*
X13609753Y-12677650D01*
X13609753Y-12677650D02*
X13638325Y-12677650D01*
X13638325Y-12677650D02*
X13657372Y-12687174D01*
X13733563Y-12887174D02*
X13743087Y-12877650D01*
X13743087Y-12877650D02*
X13762134Y-12849079D01*
X13762134Y-12849079D02*
X13771658Y-12830031D01*
X13771658Y-12830031D02*
X13781182Y-12801460D01*
X13781182Y-12801460D02*
X13790706Y-12753841D01*
X13790706Y-12753841D02*
X13790706Y-12715746D01*
X13790706Y-12715746D02*
X13781182Y-12668127D01*
X13781182Y-12668127D02*
X13771658Y-12639555D01*
X13771658Y-12639555D02*
X13762134Y-12620508D01*
X13762134Y-12620508D02*
X13743087Y-12591936D01*
X13743087Y-12591936D02*
X13733563Y-12582412D01*
D12*
X8943856Y-13018856D02*
X8943856Y-12948144D01*
X8873144Y-12948144D01*
X8873144Y-13018856D01*
X8943856Y-13018856D01*
D11*
X9324039Y-13074984D02*
X9209753Y-13074984D01*
X9266896Y-13074984D02*
X9266896Y-12874984D01*
X9266896Y-12874984D02*
X9247848Y-12903555D01*
X9247848Y-12903555D02*
X9228801Y-12922603D01*
X9228801Y-12922603D02*
X9209753Y-12932127D01*
X9409753Y-13055936D02*
X9419277Y-13065460D01*
X9419277Y-13065460D02*
X9409753Y-13074984D01*
X9409753Y-13074984D02*
X9400229Y-13065460D01*
X9400229Y-13065460D02*
X9409753Y-13055936D01*
X9409753Y-13055936D02*
X9409753Y-13074984D01*
X9543086Y-12874984D02*
X9562134Y-12874984D01*
X9562134Y-12874984D02*
X9581182Y-12884508D01*
X9581182Y-12884508D02*
X9590705Y-12894031D01*
X9590705Y-12894031D02*
X9600229Y-12913079D01*
X9600229Y-12913079D02*
X9609753Y-12951174D01*
X9609753Y-12951174D02*
X9609753Y-12998793D01*
X9609753Y-12998793D02*
X9600229Y-13036888D01*
X9600229Y-13036888D02*
X9590705Y-13055936D01*
X9590705Y-13055936D02*
X9581182Y-13065460D01*
X9581182Y-13065460D02*
X9562134Y-13074984D01*
X9562134Y-13074984D02*
X9543086Y-13074984D01*
X9543086Y-13074984D02*
X9524039Y-13065460D01*
X9524039Y-13065460D02*
X9514515Y-13055936D01*
X9514515Y-13055936D02*
X9504991Y-13036888D01*
X9504991Y-13036888D02*
X9495467Y-12998793D01*
X9495467Y-12998793D02*
X9495467Y-12951174D01*
X9495467Y-12951174D02*
X9504991Y-12913079D01*
X9504991Y-12913079D02*
X9514515Y-12894031D01*
X9514515Y-12894031D02*
X9524039Y-12884508D01*
X9524039Y-12884508D02*
X9543086Y-12874984D01*
X9733563Y-12874984D02*
X9752610Y-12874984D01*
X9752610Y-12874984D02*
X9771658Y-12884508D01*
X9771658Y-12884508D02*
X9781182Y-12894031D01*
X9781182Y-12894031D02*
X9790705Y-12913079D01*
X9790705Y-12913079D02*
X9800229Y-12951174D01*
X9800229Y-12951174D02*
X9800229Y-12998793D01*
X9800229Y-12998793D02*
X9790705Y-13036888D01*
X9790705Y-13036888D02*
X9781182Y-13055936D01*
X9781182Y-13055936D02*
X9771658Y-13065460D01*
X9771658Y-13065460D02*
X9752610Y-13074984D01*
X9752610Y-13074984D02*
X9733563Y-13074984D01*
X9733563Y-13074984D02*
X9714515Y-13065460D01*
X9714515Y-13065460D02*
X9704991Y-13055936D01*
X9704991Y-13055936D02*
X9695467Y-13036888D01*
X9695467Y-13036888D02*
X9685944Y-12998793D01*
X9685944Y-12998793D02*
X9685944Y-12951174D01*
X9685944Y-12951174D02*
X9695467Y-12913079D01*
X9695467Y-12913079D02*
X9704991Y-12894031D01*
X9704991Y-12894031D02*
X9714515Y-12884508D01*
X9714515Y-12884508D02*
X9733563Y-12874984D01*
X9924039Y-12874984D02*
X9943086Y-12874984D01*
X9943086Y-12874984D02*
X9962134Y-12884508D01*
X9962134Y-12884508D02*
X9971658Y-12894031D01*
X9971658Y-12894031D02*
X9981182Y-12913079D01*
X9981182Y-12913079D02*
X9990705Y-12951174D01*
X9990705Y-12951174D02*
X9990705Y-12998793D01*
X9990705Y-12998793D02*
X9981182Y-13036888D01*
X9981182Y-13036888D02*
X9971658Y-13055936D01*
X9971658Y-13055936D02*
X9962134Y-13065460D01*
X9962134Y-13065460D02*
X9943086Y-13074984D01*
X9943086Y-13074984D02*
X9924039Y-13074984D01*
X9924039Y-13074984D02*
X9904991Y-13065460D01*
X9904991Y-13065460D02*
X9895467Y-13055936D01*
X9895467Y-13055936D02*
X9885944Y-13036888D01*
X9885944Y-13036888D02*
X9876420Y-12998793D01*
X9876420Y-12998793D02*
X9876420Y-12951174D01*
X9876420Y-12951174D02*
X9885944Y-12913079D01*
X9885944Y-12913079D02*
X9895467Y-12894031D01*
X9895467Y-12894031D02*
X9904991Y-12884508D01*
X9904991Y-12884508D02*
X9924039Y-12874984D01*
X10076420Y-13074984D02*
X10076420Y-12941650D01*
X10076420Y-12960698D02*
X10085944Y-12951174D01*
X10085944Y-12951174D02*
X10104991Y-12941650D01*
X10104991Y-12941650D02*
X10133563Y-12941650D01*
X10133563Y-12941650D02*
X10152610Y-12951174D01*
X10152610Y-12951174D02*
X10162134Y-12970222D01*
X10162134Y-12970222D02*
X10162134Y-13074984D01*
X10162134Y-12970222D02*
X10171658Y-12951174D01*
X10171658Y-12951174D02*
X10190705Y-12941650D01*
X10190705Y-12941650D02*
X10219277Y-12941650D01*
X10219277Y-12941650D02*
X10238325Y-12951174D01*
X10238325Y-12951174D02*
X10247848Y-12970222D01*
X10247848Y-12970222D02*
X10247848Y-13074984D01*
X10343086Y-13074984D02*
X10343086Y-12941650D01*
X10343086Y-12960698D02*
X10352610Y-12951174D01*
X10352610Y-12951174D02*
X10371658Y-12941650D01*
X10371658Y-12941650D02*
X10400229Y-12941650D01*
X10400229Y-12941650D02*
X10419277Y-12951174D01*
X10419277Y-12951174D02*
X10428801Y-12970222D01*
X10428801Y-12970222D02*
X10428801Y-13074984D01*
X10428801Y-12970222D02*
X10438325Y-12951174D01*
X10438325Y-12951174D02*
X10457372Y-12941650D01*
X10457372Y-12941650D02*
X10485944Y-12941650D01*
X10485944Y-12941650D02*
X10504991Y-12951174D01*
X10504991Y-12951174D02*
X10514515Y-12970222D01*
X10514515Y-12970222D02*
X10514515Y-13074984D01*
X10904991Y-12865460D02*
X10733563Y-13122603D01*
X11162134Y-12874984D02*
X11181182Y-12874984D01*
X11181182Y-12874984D02*
X11200229Y-12884508D01*
X11200229Y-12884508D02*
X11209753Y-12894031D01*
X11209753Y-12894031D02*
X11219277Y-12913079D01*
X11219277Y-12913079D02*
X11228801Y-12951174D01*
X11228801Y-12951174D02*
X11228801Y-12998793D01*
X11228801Y-12998793D02*
X11219277Y-13036888D01*
X11219277Y-13036888D02*
X11209753Y-13055936D01*
X11209753Y-13055936D02*
X11200229Y-13065460D01*
X11200229Y-13065460D02*
X11181182Y-13074984D01*
X11181182Y-13074984D02*
X11162134Y-13074984D01*
X11162134Y-13074984D02*
X11143087Y-13065460D01*
X11143087Y-13065460D02*
X11133563Y-13055936D01*
X11133563Y-13055936D02*
X11124039Y-13036888D01*
X11124039Y-13036888D02*
X11114515Y-12998793D01*
X11114515Y-12998793D02*
X11114515Y-12951174D01*
X11114515Y-12951174D02*
X11124039Y-12913079D01*
X11124039Y-12913079D02*
X11133563Y-12894031D01*
X11133563Y-12894031D02*
X11143087Y-12884508D01*
X11143087Y-12884508D02*
X11162134Y-12874984D01*
X11314515Y-13055936D02*
X11324039Y-13065460D01*
X11324039Y-13065460D02*
X11314515Y-13074984D01*
X11314515Y-13074984D02*
X11304991Y-13065460D01*
X11304991Y-13065460D02*
X11314515Y-13055936D01*
X11314515Y-13055936D02*
X11314515Y-13074984D01*
X11447848Y-12874984D02*
X11466896Y-12874984D01*
X11466896Y-12874984D02*
X11485944Y-12884508D01*
X11485944Y-12884508D02*
X11495467Y-12894031D01*
X11495467Y-12894031D02*
X11504991Y-12913079D01*
X11504991Y-12913079D02*
X11514515Y-12951174D01*
X11514515Y-12951174D02*
X11514515Y-12998793D01*
X11514515Y-12998793D02*
X11504991Y-13036888D01*
X11504991Y-13036888D02*
X11495467Y-13055936D01*
X11495467Y-13055936D02*
X11485944Y-13065460D01*
X11485944Y-13065460D02*
X11466896Y-13074984D01*
X11466896Y-13074984D02*
X11447848Y-13074984D01*
X11447848Y-13074984D02*
X11428801Y-13065460D01*
X11428801Y-13065460D02*
X11419277Y-13055936D01*
X11419277Y-13055936D02*
X11409753Y-13036888D01*
X11409753Y-13036888D02*
X11400229Y-12998793D01*
X11400229Y-12998793D02*
X11400229Y-12951174D01*
X11400229Y-12951174D02*
X11409753Y-12913079D01*
X11409753Y-12913079D02*
X11419277Y-12894031D01*
X11419277Y-12894031D02*
X11428801Y-12884508D01*
X11428801Y-12884508D02*
X11447848Y-12874984D01*
X11581182Y-12874984D02*
X11704991Y-12874984D01*
X11704991Y-12874984D02*
X11638325Y-12951174D01*
X11638325Y-12951174D02*
X11666896Y-12951174D01*
X11666896Y-12951174D02*
X11685944Y-12960698D01*
X11685944Y-12960698D02*
X11695467Y-12970222D01*
X11695467Y-12970222D02*
X11704991Y-12989269D01*
X11704991Y-12989269D02*
X11704991Y-13036888D01*
X11704991Y-13036888D02*
X11695467Y-13055936D01*
X11695467Y-13055936D02*
X11685944Y-13065460D01*
X11685944Y-13065460D02*
X11666896Y-13074984D01*
X11666896Y-13074984D02*
X11609753Y-13074984D01*
X11609753Y-13074984D02*
X11590706Y-13065460D01*
X11590706Y-13065460D02*
X11581182Y-13055936D01*
X11800229Y-13074984D02*
X11838325Y-13074984D01*
X11838325Y-13074984D02*
X11857372Y-13065460D01*
X11857372Y-13065460D02*
X11866896Y-13055936D01*
X11866896Y-13055936D02*
X11885944Y-13027365D01*
X11885944Y-13027365D02*
X11895467Y-12989269D01*
X11895467Y-12989269D02*
X11895467Y-12913079D01*
X11895467Y-12913079D02*
X11885944Y-12894031D01*
X11885944Y-12894031D02*
X11876420Y-12884508D01*
X11876420Y-12884508D02*
X11857372Y-12874984D01*
X11857372Y-12874984D02*
X11819277Y-12874984D01*
X11819277Y-12874984D02*
X11800229Y-12884508D01*
X11800229Y-12884508D02*
X11790706Y-12894031D01*
X11790706Y-12894031D02*
X11781182Y-12913079D01*
X11781182Y-12913079D02*
X11781182Y-12960698D01*
X11781182Y-12960698D02*
X11790706Y-12979746D01*
X11790706Y-12979746D02*
X11800229Y-12989269D01*
X11800229Y-12989269D02*
X11819277Y-12998793D01*
X11819277Y-12998793D02*
X11857372Y-12998793D01*
X11857372Y-12998793D02*
X11876420Y-12989269D01*
X11876420Y-12989269D02*
X11885944Y-12979746D01*
X11885944Y-12979746D02*
X11895467Y-12960698D01*
X12066896Y-12941650D02*
X12066896Y-13074984D01*
X12019277Y-12865460D02*
X11971658Y-13008317D01*
X11971658Y-13008317D02*
X12095467Y-13008317D01*
X12162134Y-12874984D02*
X12162134Y-12913079D01*
X12238325Y-12874984D02*
X12238325Y-12913079D01*
X12533563Y-13151174D02*
X12524039Y-13141650D01*
X12524039Y-13141650D02*
X12504991Y-13113079D01*
X12504991Y-13113079D02*
X12495468Y-13094031D01*
X12495468Y-13094031D02*
X12485944Y-13065460D01*
X12485944Y-13065460D02*
X12476420Y-13017841D01*
X12476420Y-13017841D02*
X12476420Y-12979746D01*
X12476420Y-12979746D02*
X12485944Y-12932127D01*
X12485944Y-12932127D02*
X12495468Y-12903555D01*
X12495468Y-12903555D02*
X12504991Y-12884508D01*
X12504991Y-12884508D02*
X12524039Y-12855936D01*
X12524039Y-12855936D02*
X12533563Y-12846412D01*
X12714515Y-13074984D02*
X12600229Y-13074984D01*
X12657372Y-13074984D02*
X12657372Y-12874984D01*
X12657372Y-12874984D02*
X12638325Y-12903555D01*
X12638325Y-12903555D02*
X12619277Y-12922603D01*
X12619277Y-12922603D02*
X12600229Y-12932127D01*
X12790706Y-12894031D02*
X12800229Y-12884508D01*
X12800229Y-12884508D02*
X12819277Y-12874984D01*
X12819277Y-12874984D02*
X12866896Y-12874984D01*
X12866896Y-12874984D02*
X12885944Y-12884508D01*
X12885944Y-12884508D02*
X12895468Y-12894031D01*
X12895468Y-12894031D02*
X12904991Y-12913079D01*
X12904991Y-12913079D02*
X12904991Y-12932127D01*
X12904991Y-12932127D02*
X12895468Y-12960698D01*
X12895468Y-12960698D02*
X12781182Y-13074984D01*
X12781182Y-13074984D02*
X12904991Y-13074984D01*
X13143087Y-13074984D02*
X13143087Y-12874984D01*
X13228801Y-13074984D02*
X13228801Y-12970222D01*
X13228801Y-12970222D02*
X13219277Y-12951174D01*
X13219277Y-12951174D02*
X13200230Y-12941650D01*
X13200230Y-12941650D02*
X13171658Y-12941650D01*
X13171658Y-12941650D02*
X13152610Y-12951174D01*
X13152610Y-12951174D02*
X13143087Y-12960698D01*
X13352610Y-13074984D02*
X13333563Y-13065460D01*
X13333563Y-13065460D02*
X13324039Y-13055936D01*
X13324039Y-13055936D02*
X13314515Y-13036888D01*
X13314515Y-13036888D02*
X13314515Y-12979746D01*
X13314515Y-12979746D02*
X13324039Y-12960698D01*
X13324039Y-12960698D02*
X13333563Y-12951174D01*
X13333563Y-12951174D02*
X13352610Y-12941650D01*
X13352610Y-12941650D02*
X13381182Y-12941650D01*
X13381182Y-12941650D02*
X13400230Y-12951174D01*
X13400230Y-12951174D02*
X13409753Y-12960698D01*
X13409753Y-12960698D02*
X13419277Y-12979746D01*
X13419277Y-12979746D02*
X13419277Y-13036888D01*
X13419277Y-13036888D02*
X13409753Y-13055936D01*
X13409753Y-13055936D02*
X13400230Y-13065460D01*
X13400230Y-13065460D02*
X13381182Y-13074984D01*
X13381182Y-13074984D02*
X13352610Y-13074984D01*
X13533563Y-13074984D02*
X13514515Y-13065460D01*
X13514515Y-13065460D02*
X13504991Y-13046412D01*
X13504991Y-13046412D02*
X13504991Y-12874984D01*
X13685944Y-13065460D02*
X13666896Y-13074984D01*
X13666896Y-13074984D02*
X13628801Y-13074984D01*
X13628801Y-13074984D02*
X13609753Y-13065460D01*
X13609753Y-13065460D02*
X13600230Y-13046412D01*
X13600230Y-13046412D02*
X13600230Y-12970222D01*
X13600230Y-12970222D02*
X13609753Y-12951174D01*
X13609753Y-12951174D02*
X13628801Y-12941650D01*
X13628801Y-12941650D02*
X13666896Y-12941650D01*
X13666896Y-12941650D02*
X13685944Y-12951174D01*
X13685944Y-12951174D02*
X13695468Y-12970222D01*
X13695468Y-12970222D02*
X13695468Y-12989269D01*
X13695468Y-12989269D02*
X13600230Y-13008317D01*
X13771658Y-13065460D02*
X13790706Y-13074984D01*
X13790706Y-13074984D02*
X13828801Y-13074984D01*
X13828801Y-13074984D02*
X13847849Y-13065460D01*
X13847849Y-13065460D02*
X13857372Y-13046412D01*
X13857372Y-13046412D02*
X13857372Y-13036888D01*
X13857372Y-13036888D02*
X13847849Y-13017841D01*
X13847849Y-13017841D02*
X13828801Y-13008317D01*
X13828801Y-13008317D02*
X13800230Y-13008317D01*
X13800230Y-13008317D02*
X13781182Y-12998793D01*
X13781182Y-12998793D02*
X13771658Y-12979746D01*
X13771658Y-12979746D02*
X13771658Y-12970222D01*
X13771658Y-12970222D02*
X13781182Y-12951174D01*
X13781182Y-12951174D02*
X13800230Y-12941650D01*
X13800230Y-12941650D02*
X13828801Y-12941650D01*
X13828801Y-12941650D02*
X13847849Y-12951174D01*
X13924039Y-13151174D02*
X13933563Y-13141650D01*
X13933563Y-13141650D02*
X13952611Y-13113079D01*
X13952611Y-13113079D02*
X13962134Y-13094031D01*
X13962134Y-13094031D02*
X13971658Y-13065460D01*
X13971658Y-13065460D02*
X13981182Y-13017841D01*
X13981182Y-13017841D02*
X13981182Y-12979746D01*
X13981182Y-12979746D02*
X13971658Y-12932127D01*
X13971658Y-12932127D02*
X13962134Y-12903555D01*
X13962134Y-12903555D02*
X13952611Y-12884508D01*
X13952611Y-12884508D02*
X13933563Y-12855936D01*
X13933563Y-12855936D02*
X13924039Y-12846412D01*
X8858500Y-13347500D02*
X8958500Y-13247500D01*
X8858500Y-13147500D01*
X8758500Y-13247500D01*
X8858500Y-13347500D01*
X9209753Y-13158031D02*
X9219277Y-13148508D01*
X9219277Y-13148508D02*
X9238324Y-13138984D01*
X9238324Y-13138984D02*
X9285944Y-13138984D01*
X9285944Y-13138984D02*
X9304991Y-13148508D01*
X9304991Y-13148508D02*
X9314515Y-13158031D01*
X9314515Y-13158031D02*
X9324039Y-13177079D01*
X9324039Y-13177079D02*
X9324039Y-13196127D01*
X9324039Y-13196127D02*
X9314515Y-13224698D01*
X9314515Y-13224698D02*
X9200229Y-13338984D01*
X9200229Y-13338984D02*
X9324039Y-13338984D01*
X9409753Y-13319936D02*
X9419277Y-13329460D01*
X9419277Y-13329460D02*
X9409753Y-13338984D01*
X9409753Y-13338984D02*
X9400229Y-13329460D01*
X9400229Y-13329460D02*
X9409753Y-13319936D01*
X9409753Y-13319936D02*
X9409753Y-13338984D01*
X9543086Y-13138984D02*
X9562134Y-13138984D01*
X9562134Y-13138984D02*
X9581182Y-13148508D01*
X9581182Y-13148508D02*
X9590705Y-13158031D01*
X9590705Y-13158031D02*
X9600229Y-13177079D01*
X9600229Y-13177079D02*
X9609753Y-13215174D01*
X9609753Y-13215174D02*
X9609753Y-13262793D01*
X9609753Y-13262793D02*
X9600229Y-13300888D01*
X9600229Y-13300888D02*
X9590705Y-13319936D01*
X9590705Y-13319936D02*
X9581182Y-13329460D01*
X9581182Y-13329460D02*
X9562134Y-13338984D01*
X9562134Y-13338984D02*
X9543086Y-13338984D01*
X9543086Y-13338984D02*
X9524039Y-13329460D01*
X9524039Y-13329460D02*
X9514515Y-13319936D01*
X9514515Y-13319936D02*
X9504991Y-13300888D01*
X9504991Y-13300888D02*
X9495467Y-13262793D01*
X9495467Y-13262793D02*
X9495467Y-13215174D01*
X9495467Y-13215174D02*
X9504991Y-13177079D01*
X9504991Y-13177079D02*
X9514515Y-13158031D01*
X9514515Y-13158031D02*
X9524039Y-13148508D01*
X9524039Y-13148508D02*
X9543086Y-13138984D01*
X9704991Y-13338984D02*
X9743086Y-13338984D01*
X9743086Y-13338984D02*
X9762134Y-13329460D01*
X9762134Y-13329460D02*
X9771658Y-13319936D01*
X9771658Y-13319936D02*
X9790705Y-13291365D01*
X9790705Y-13291365D02*
X9800229Y-13253269D01*
X9800229Y-13253269D02*
X9800229Y-13177079D01*
X9800229Y-13177079D02*
X9790705Y-13158031D01*
X9790705Y-13158031D02*
X9781182Y-13148508D01*
X9781182Y-13148508D02*
X9762134Y-13138984D01*
X9762134Y-13138984D02*
X9724039Y-13138984D01*
X9724039Y-13138984D02*
X9704991Y-13148508D01*
X9704991Y-13148508D02*
X9695467Y-13158031D01*
X9695467Y-13158031D02*
X9685944Y-13177079D01*
X9685944Y-13177079D02*
X9685944Y-13224698D01*
X9685944Y-13224698D02*
X9695467Y-13243746D01*
X9695467Y-13243746D02*
X9704991Y-13253269D01*
X9704991Y-13253269D02*
X9724039Y-13262793D01*
X9724039Y-13262793D02*
X9762134Y-13262793D01*
X9762134Y-13262793D02*
X9781182Y-13253269D01*
X9781182Y-13253269D02*
X9790705Y-13243746D01*
X9790705Y-13243746D02*
X9800229Y-13224698D01*
X9924039Y-13138984D02*
X9943086Y-13138984D01*
X9943086Y-13138984D02*
X9962134Y-13148508D01*
X9962134Y-13148508D02*
X9971658Y-13158031D01*
X9971658Y-13158031D02*
X9981182Y-13177079D01*
X9981182Y-13177079D02*
X9990705Y-13215174D01*
X9990705Y-13215174D02*
X9990705Y-13262793D01*
X9990705Y-13262793D02*
X9981182Y-13300888D01*
X9981182Y-13300888D02*
X9971658Y-13319936D01*
X9971658Y-13319936D02*
X9962134Y-13329460D01*
X9962134Y-13329460D02*
X9943086Y-13338984D01*
X9943086Y-13338984D02*
X9924039Y-13338984D01*
X9924039Y-13338984D02*
X9904991Y-13329460D01*
X9904991Y-13329460D02*
X9895467Y-13319936D01*
X9895467Y-13319936D02*
X9885944Y-13300888D01*
X9885944Y-13300888D02*
X9876420Y-13262793D01*
X9876420Y-13262793D02*
X9876420Y-13215174D01*
X9876420Y-13215174D02*
X9885944Y-13177079D01*
X9885944Y-13177079D02*
X9895467Y-13158031D01*
X9895467Y-13158031D02*
X9904991Y-13148508D01*
X9904991Y-13148508D02*
X9924039Y-13138984D01*
X10076420Y-13338984D02*
X10076420Y-13205650D01*
X10076420Y-13224698D02*
X10085944Y-13215174D01*
X10085944Y-13215174D02*
X10104991Y-13205650D01*
X10104991Y-13205650D02*
X10133563Y-13205650D01*
X10133563Y-13205650D02*
X10152610Y-13215174D01*
X10152610Y-13215174D02*
X10162134Y-13234222D01*
X10162134Y-13234222D02*
X10162134Y-13338984D01*
X10162134Y-13234222D02*
X10171658Y-13215174D01*
X10171658Y-13215174D02*
X10190705Y-13205650D01*
X10190705Y-13205650D02*
X10219277Y-13205650D01*
X10219277Y-13205650D02*
X10238325Y-13215174D01*
X10238325Y-13215174D02*
X10247848Y-13234222D01*
X10247848Y-13234222D02*
X10247848Y-13338984D01*
X10343086Y-13338984D02*
X10343086Y-13205650D01*
X10343086Y-13224698D02*
X10352610Y-13215174D01*
X10352610Y-13215174D02*
X10371658Y-13205650D01*
X10371658Y-13205650D02*
X10400229Y-13205650D01*
X10400229Y-13205650D02*
X10419277Y-13215174D01*
X10419277Y-13215174D02*
X10428801Y-13234222D01*
X10428801Y-13234222D02*
X10428801Y-13338984D01*
X10428801Y-13234222D02*
X10438325Y-13215174D01*
X10438325Y-13215174D02*
X10457372Y-13205650D01*
X10457372Y-13205650D02*
X10485944Y-13205650D01*
X10485944Y-13205650D02*
X10504991Y-13215174D01*
X10504991Y-13215174D02*
X10514515Y-13234222D01*
X10514515Y-13234222D02*
X10514515Y-13338984D01*
X10904991Y-13129460D02*
X10733563Y-13386603D01*
X11162134Y-13138984D02*
X11181182Y-13138984D01*
X11181182Y-13138984D02*
X11200229Y-13148508D01*
X11200229Y-13148508D02*
X11209753Y-13158031D01*
X11209753Y-13158031D02*
X11219277Y-13177079D01*
X11219277Y-13177079D02*
X11228801Y-13215174D01*
X11228801Y-13215174D02*
X11228801Y-13262793D01*
X11228801Y-13262793D02*
X11219277Y-13300888D01*
X11219277Y-13300888D02*
X11209753Y-13319936D01*
X11209753Y-13319936D02*
X11200229Y-13329460D01*
X11200229Y-13329460D02*
X11181182Y-13338984D01*
X11181182Y-13338984D02*
X11162134Y-13338984D01*
X11162134Y-13338984D02*
X11143087Y-13329460D01*
X11143087Y-13329460D02*
X11133563Y-13319936D01*
X11133563Y-13319936D02*
X11124039Y-13300888D01*
X11124039Y-13300888D02*
X11114515Y-13262793D01*
X11114515Y-13262793D02*
X11114515Y-13215174D01*
X11114515Y-13215174D02*
X11124039Y-13177079D01*
X11124039Y-13177079D02*
X11133563Y-13158031D01*
X11133563Y-13158031D02*
X11143087Y-13148508D01*
X11143087Y-13148508D02*
X11162134Y-13138984D01*
X11314515Y-13319936D02*
X11324039Y-13329460D01*
X11324039Y-13329460D02*
X11314515Y-13338984D01*
X11314515Y-13338984D02*
X11304991Y-13329460D01*
X11304991Y-13329460D02*
X11314515Y-13319936D01*
X11314515Y-13319936D02*
X11314515Y-13338984D01*
X11447848Y-13138984D02*
X11466896Y-13138984D01*
X11466896Y-13138984D02*
X11485944Y-13148508D01*
X11485944Y-13148508D02*
X11495467Y-13158031D01*
X11495467Y-13158031D02*
X11504991Y-13177079D01*
X11504991Y-13177079D02*
X11514515Y-13215174D01*
X11514515Y-13215174D02*
X11514515Y-13262793D01*
X11514515Y-13262793D02*
X11504991Y-13300888D01*
X11504991Y-13300888D02*
X11495467Y-13319936D01*
X11495467Y-13319936D02*
X11485944Y-13329460D01*
X11485944Y-13329460D02*
X11466896Y-13338984D01*
X11466896Y-13338984D02*
X11447848Y-13338984D01*
X11447848Y-13338984D02*
X11428801Y-13329460D01*
X11428801Y-13329460D02*
X11419277Y-13319936D01*
X11419277Y-13319936D02*
X11409753Y-13300888D01*
X11409753Y-13300888D02*
X11400229Y-13262793D01*
X11400229Y-13262793D02*
X11400229Y-13215174D01*
X11400229Y-13215174D02*
X11409753Y-13177079D01*
X11409753Y-13177079D02*
X11419277Y-13158031D01*
X11419277Y-13158031D02*
X11428801Y-13148508D01*
X11428801Y-13148508D02*
X11447848Y-13138984D01*
X11628801Y-13224698D02*
X11609753Y-13215174D01*
X11609753Y-13215174D02*
X11600229Y-13205650D01*
X11600229Y-13205650D02*
X11590706Y-13186603D01*
X11590706Y-13186603D02*
X11590706Y-13177079D01*
X11590706Y-13177079D02*
X11600229Y-13158031D01*
X11600229Y-13158031D02*
X11609753Y-13148508D01*
X11609753Y-13148508D02*
X11628801Y-13138984D01*
X11628801Y-13138984D02*
X11666896Y-13138984D01*
X11666896Y-13138984D02*
X11685944Y-13148508D01*
X11685944Y-13148508D02*
X11695467Y-13158031D01*
X11695467Y-13158031D02*
X11704991Y-13177079D01*
X11704991Y-13177079D02*
X11704991Y-13186603D01*
X11704991Y-13186603D02*
X11695467Y-13205650D01*
X11695467Y-13205650D02*
X11685944Y-13215174D01*
X11685944Y-13215174D02*
X11666896Y-13224698D01*
X11666896Y-13224698D02*
X11628801Y-13224698D01*
X11628801Y-13224698D02*
X11609753Y-13234222D01*
X11609753Y-13234222D02*
X11600229Y-13243746D01*
X11600229Y-13243746D02*
X11590706Y-13262793D01*
X11590706Y-13262793D02*
X11590706Y-13300888D01*
X11590706Y-13300888D02*
X11600229Y-13319936D01*
X11600229Y-13319936D02*
X11609753Y-13329460D01*
X11609753Y-13329460D02*
X11628801Y-13338984D01*
X11628801Y-13338984D02*
X11666896Y-13338984D01*
X11666896Y-13338984D02*
X11685944Y-13329460D01*
X11685944Y-13329460D02*
X11695467Y-13319936D01*
X11695467Y-13319936D02*
X11704991Y-13300888D01*
X11704991Y-13300888D02*
X11704991Y-13262793D01*
X11704991Y-13262793D02*
X11695467Y-13243746D01*
X11695467Y-13243746D02*
X11685944Y-13234222D01*
X11685944Y-13234222D02*
X11666896Y-13224698D01*
X11781182Y-13158031D02*
X11790706Y-13148508D01*
X11790706Y-13148508D02*
X11809753Y-13138984D01*
X11809753Y-13138984D02*
X11857372Y-13138984D01*
X11857372Y-13138984D02*
X11876420Y-13148508D01*
X11876420Y-13148508D02*
X11885944Y-13158031D01*
X11885944Y-13158031D02*
X11895467Y-13177079D01*
X11895467Y-13177079D02*
X11895467Y-13196127D01*
X11895467Y-13196127D02*
X11885944Y-13224698D01*
X11885944Y-13224698D02*
X11771658Y-13338984D01*
X11771658Y-13338984D02*
X11895467Y-13338984D01*
X11962134Y-13138984D02*
X12085944Y-13138984D01*
X12085944Y-13138984D02*
X12019277Y-13215174D01*
X12019277Y-13215174D02*
X12047848Y-13215174D01*
X12047848Y-13215174D02*
X12066896Y-13224698D01*
X12066896Y-13224698D02*
X12076420Y-13234222D01*
X12076420Y-13234222D02*
X12085944Y-13253269D01*
X12085944Y-13253269D02*
X12085944Y-13300888D01*
X12085944Y-13300888D02*
X12076420Y-13319936D01*
X12076420Y-13319936D02*
X12066896Y-13329460D01*
X12066896Y-13329460D02*
X12047848Y-13338984D01*
X12047848Y-13338984D02*
X11990706Y-13338984D01*
X11990706Y-13338984D02*
X11971658Y-13329460D01*
X11971658Y-13329460D02*
X11962134Y-13319936D01*
X12162134Y-13138984D02*
X12162134Y-13177079D01*
X12238325Y-13138984D02*
X12238325Y-13177079D01*
X12533563Y-13415174D02*
X12524039Y-13405650D01*
X12524039Y-13405650D02*
X12504991Y-13377079D01*
X12504991Y-13377079D02*
X12495468Y-13358031D01*
X12495468Y-13358031D02*
X12485944Y-13329460D01*
X12485944Y-13329460D02*
X12476420Y-13281841D01*
X12476420Y-13281841D02*
X12476420Y-13243746D01*
X12476420Y-13243746D02*
X12485944Y-13196127D01*
X12485944Y-13196127D02*
X12495468Y-13167555D01*
X12495468Y-13167555D02*
X12504991Y-13148508D01*
X12504991Y-13148508D02*
X12524039Y-13119936D01*
X12524039Y-13119936D02*
X12533563Y-13110412D01*
X12600229Y-13158031D02*
X12609753Y-13148508D01*
X12609753Y-13148508D02*
X12628801Y-13138984D01*
X12628801Y-13138984D02*
X12676420Y-13138984D01*
X12676420Y-13138984D02*
X12695468Y-13148508D01*
X12695468Y-13148508D02*
X12704991Y-13158031D01*
X12704991Y-13158031D02*
X12714515Y-13177079D01*
X12714515Y-13177079D02*
X12714515Y-13196127D01*
X12714515Y-13196127D02*
X12704991Y-13224698D01*
X12704991Y-13224698D02*
X12590706Y-13338984D01*
X12590706Y-13338984D02*
X12714515Y-13338984D01*
X12952610Y-13338984D02*
X12952610Y-13138984D01*
X13038325Y-13338984D02*
X13038325Y-13234222D01*
X13038325Y-13234222D02*
X13028801Y-13215174D01*
X13028801Y-13215174D02*
X13009753Y-13205650D01*
X13009753Y-13205650D02*
X12981182Y-13205650D01*
X12981182Y-13205650D02*
X12962134Y-13215174D01*
X12962134Y-13215174D02*
X12952610Y-13224698D01*
X13162134Y-13338984D02*
X13143087Y-13329460D01*
X13143087Y-13329460D02*
X13133563Y-13319936D01*
X13133563Y-13319936D02*
X13124039Y-13300888D01*
X13124039Y-13300888D02*
X13124039Y-13243746D01*
X13124039Y-13243746D02*
X13133563Y-13224698D01*
X13133563Y-13224698D02*
X13143087Y-13215174D01*
X13143087Y-13215174D02*
X13162134Y-13205650D01*
X13162134Y-13205650D02*
X13190706Y-13205650D01*
X13190706Y-13205650D02*
X13209753Y-13215174D01*
X13209753Y-13215174D02*
X13219277Y-13224698D01*
X13219277Y-13224698D02*
X13228801Y-13243746D01*
X13228801Y-13243746D02*
X13228801Y-13300888D01*
X13228801Y-13300888D02*
X13219277Y-13319936D01*
X13219277Y-13319936D02*
X13209753Y-13329460D01*
X13209753Y-13329460D02*
X13190706Y-13338984D01*
X13190706Y-13338984D02*
X13162134Y-13338984D01*
X13343087Y-13338984D02*
X13324039Y-13329460D01*
X13324039Y-13329460D02*
X13314515Y-13310412D01*
X13314515Y-13310412D02*
X13314515Y-13138984D01*
X13495468Y-13329460D02*
X13476420Y-13338984D01*
X13476420Y-13338984D02*
X13438325Y-13338984D01*
X13438325Y-13338984D02*
X13419277Y-13329460D01*
X13419277Y-13329460D02*
X13409753Y-13310412D01*
X13409753Y-13310412D02*
X13409753Y-13234222D01*
X13409753Y-13234222D02*
X13419277Y-13215174D01*
X13419277Y-13215174D02*
X13438325Y-13205650D01*
X13438325Y-13205650D02*
X13476420Y-13205650D01*
X13476420Y-13205650D02*
X13495468Y-13215174D01*
X13495468Y-13215174D02*
X13504991Y-13234222D01*
X13504991Y-13234222D02*
X13504991Y-13253269D01*
X13504991Y-13253269D02*
X13409753Y-13272317D01*
X13581182Y-13329460D02*
X13600230Y-13338984D01*
X13600230Y-13338984D02*
X13638325Y-13338984D01*
X13638325Y-13338984D02*
X13657372Y-13329460D01*
X13657372Y-13329460D02*
X13666896Y-13310412D01*
X13666896Y-13310412D02*
X13666896Y-13300888D01*
X13666896Y-13300888D02*
X13657372Y-13281841D01*
X13657372Y-13281841D02*
X13638325Y-13272317D01*
X13638325Y-13272317D02*
X13609753Y-13272317D01*
X13609753Y-13272317D02*
X13590706Y-13262793D01*
X13590706Y-13262793D02*
X13581182Y-13243746D01*
X13581182Y-13243746D02*
X13581182Y-13234222D01*
X13581182Y-13234222D02*
X13590706Y-13215174D01*
X13590706Y-13215174D02*
X13609753Y-13205650D01*
X13609753Y-13205650D02*
X13638325Y-13205650D01*
X13638325Y-13205650D02*
X13657372Y-13215174D01*
X13733563Y-13415174D02*
X13743087Y-13405650D01*
X13743087Y-13405650D02*
X13762134Y-13377079D01*
X13762134Y-13377079D02*
X13771658Y-13358031D01*
X13771658Y-13358031D02*
X13781182Y-13329460D01*
X13781182Y-13329460D02*
X13790706Y-13281841D01*
X13790706Y-13281841D02*
X13790706Y-13243746D01*
X13790706Y-13243746D02*
X13781182Y-13196127D01*
X13781182Y-13196127D02*
X13771658Y-13167555D01*
X13771658Y-13167555D02*
X13762134Y-13148508D01*
X13762134Y-13148508D02*
X13743087Y-13119936D01*
X13743087Y-13119936D02*
X13733563Y-13110412D01*
M02*
