%TF.GenerationSoftware,KiCad,Pcbnew,8.0.3*%
%TF.CreationDate,2024-10-23T17:14:16+02:00*%
%TF.ProjectId,aprs_test_board,61707273-5f74-4657-9374-5f626f617264,rev?*%
%TF.SameCoordinates,Original*%
%TF.FileFunction,Copper,L1,Top*%
%TF.FilePolarity,Positive*%
%FSLAX46Y46*%
G04 Gerber Fmt 4.6, Leading zero omitted, Abs format (unit mm)*
G04 Created by KiCad (PCBNEW 8.0.3) date 2024-10-23 17:14:16*
%MOMM*%
%LPD*%
G01*
G04 APERTURE LIST*
G04 Aperture macros list*
%AMRoundRect*
0 Rectangle with rounded corners*
0 $1 Rounding radius*
0 $2 $3 $4 $5 $6 $7 $8 $9 X,Y pos of 4 corners*
0 Add a 4 corners polygon primitive as box body*
4,1,4,$2,$3,$4,$5,$6,$7,$8,$9,$2,$3,0*
0 Add four circle primitives for the rounded corners*
1,1,$1+$1,$2,$3*
1,1,$1+$1,$4,$5*
1,1,$1+$1,$6,$7*
1,1,$1+$1,$8,$9*
0 Add four rect primitives between the rounded corners*
20,1,$1+$1,$2,$3,$4,$5,0*
20,1,$1+$1,$4,$5,$6,$7,0*
20,1,$1+$1,$6,$7,$8,$9,0*
20,1,$1+$1,$8,$9,$2,$3,0*%
G04 Aperture macros list end*
%TA.AperFunction,SMDPad,CuDef*%
%ADD10RoundRect,0.250000X-0.337500X-0.475000X0.337500X-0.475000X0.337500X0.475000X-0.337500X0.475000X0*%
%TD*%
%TA.AperFunction,SMDPad,CuDef*%
%ADD11RoundRect,0.250000X0.450000X-0.325000X0.450000X0.325000X-0.450000X0.325000X-0.450000X-0.325000X0*%
%TD*%
%TA.AperFunction,SMDPad,CuDef*%
%ADD12RoundRect,0.250000X0.337500X0.475000X-0.337500X0.475000X-0.337500X-0.475000X0.337500X-0.475000X0*%
%TD*%
%TA.AperFunction,SMDPad,CuDef*%
%ADD13RoundRect,0.250000X-0.450000X0.325000X-0.450000X-0.325000X0.450000X-0.325000X0.450000X0.325000X0*%
%TD*%
%TA.AperFunction,HeatsinkPad*%
%ADD14C,0.500000*%
%TD*%
%TA.AperFunction,SMDPad,CuDef*%
%ADD15R,1.600000X1.300000*%
%TD*%
%TA.AperFunction,ComponentPad*%
%ADD16R,2.200000X2.200000*%
%TD*%
%TA.AperFunction,ComponentPad*%
%ADD17C,2.200000*%
%TD*%
%TA.AperFunction,SMDPad,CuDef*%
%ADD18RoundRect,0.062500X0.362500X0.062500X-0.362500X0.062500X-0.362500X-0.062500X0.362500X-0.062500X0*%
%TD*%
%TA.AperFunction,SMDPad,CuDef*%
%ADD19RoundRect,0.062500X0.062500X0.362500X-0.062500X0.362500X-0.062500X-0.362500X0.062500X-0.362500X0*%
%TD*%
%TA.AperFunction,HeatsinkPad*%
%ADD20R,2.600000X2.600000*%
%TD*%
%TA.AperFunction,ComponentPad*%
%ADD21C,2.100000*%
%TD*%
%TA.AperFunction,ComponentPad*%
%ADD22C,4.500000*%
%TD*%
%TA.AperFunction,ViaPad*%
%ADD23C,0.600000*%
%TD*%
%TA.AperFunction,Conductor*%
%ADD24C,0.250000*%
%TD*%
%TA.AperFunction,Conductor*%
%ADD25C,0.800000*%
%TD*%
%TA.AperFunction,Conductor*%
%ADD26C,0.200000*%
%TD*%
G04 APERTURE END LIST*
D10*
%TO.P,C8,1*%
%TO.N,+3.3V*%
X100345000Y-95080000D03*
%TO.P,C8,2*%
%TO.N,GND*%
X102420000Y-95080000D03*
%TD*%
D11*
%TO.P,L4,1,1*%
%TO.N,Net-(C3-Pad2)*%
X110940000Y-98910000D03*
%TO.P,L4,2,2*%
%TO.N,Net-(C4-Pad2)*%
X110940000Y-96860000D03*
%TD*%
D12*
%TO.P,C5,1*%
%TO.N,GND*%
X117497500Y-92780000D03*
%TO.P,C5,2*%
%TO.N,Net-(J1-In)*%
X115422500Y-92780000D03*
%TD*%
%TO.P,C4,1*%
%TO.N,GND*%
X115267500Y-96865000D03*
%TO.P,C4,2*%
%TO.N,Net-(C4-Pad2)*%
X113192500Y-96865000D03*
%TD*%
D11*
%TO.P,L5,1,1*%
%TO.N,Net-(C4-Pad2)*%
X113190000Y-94835000D03*
%TO.P,L5,2,2*%
%TO.N,Net-(J1-In)*%
X113190000Y-92785000D03*
%TD*%
D12*
%TO.P,C3,1*%
%TO.N,GND*%
X112987500Y-101165000D03*
%TO.P,C3,2*%
%TO.N,Net-(C3-Pad2)*%
X110912500Y-101165000D03*
%TD*%
D13*
%TO.P,L1,1,1*%
%TO.N,+3.3V*%
X104530000Y-101312500D03*
%TO.P,L1,2,2*%
%TO.N,Net-(U1-TX)*%
X104530000Y-103362500D03*
%TD*%
D12*
%TO.P,C2,1*%
%TO.N,GND*%
X110717500Y-105475000D03*
%TO.P,C2,2*%
%TO.N,Net-(C1-Pad2)*%
X108642500Y-105475000D03*
%TD*%
D10*
%TO.P,C7,1*%
%TO.N,+3.3V*%
X100345000Y-97190000D03*
%TO.P,C7,2*%
%TO.N,GND*%
X102420000Y-97190000D03*
%TD*%
D14*
%TO.P,,21,GND*%
%TO.N,GND*%
X99820000Y-103420000D03*
%TD*%
D15*
%TO.P,Y1,1,1*%
%TO.N,Net-(U1-XIN)*%
X99920000Y-106980000D03*
%TO.P,Y1,2,2*%
%TO.N,Net-(U1-XOUT)*%
X96620000Y-106980000D03*
%TO.P,Y1,3*%
%TO.N,N/C*%
X96620000Y-108980000D03*
%TO.P,Y1,4*%
X99920000Y-108980000D03*
%TD*%
D10*
%TO.P,C6,1*%
%TO.N,+3.3V*%
X100342500Y-99290000D03*
%TO.P,C6,2*%
%TO.N,GND*%
X102417500Y-99290000D03*
%TD*%
D16*
%TO.P,J2,1,Pin_1*%
%TO.N,+3.3V*%
X92350000Y-92750000D03*
D17*
%TO.P,J2,2,Pin_2*%
%TO.N,Net-(J2-Pin_2)*%
X92350000Y-95290000D03*
%TO.P,J2,3,Pin_3*%
%TO.N,Net-(J2-Pin_3)*%
X92350000Y-97830000D03*
%TO.P,J2,4,Pin_4*%
%TO.N,Net-(J2-Pin_4)*%
X92350000Y-100370000D03*
%TO.P,J2,5,Pin_5*%
%TO.N,Net-(J2-Pin_5)*%
X92350000Y-102910000D03*
%TO.P,J2,6,Pin_6*%
%TO.N,Net-(J2-Pin_6)*%
X92350000Y-105450000D03*
%TD*%
D16*
%TO.P,J3,1,Pin_1*%
%TO.N,GND*%
X104960000Y-113070000D03*
D17*
%TO.P,J3,2,Pin_2*%
%TO.N,/SDN*%
X102420000Y-113070000D03*
%TO.P,J3,3,Pin_3*%
%TO.N,Net-(J3-Pin_3)*%
X99880000Y-113070000D03*
%TO.P,J3,4,Pin_4*%
%TO.N,Net-(J3-Pin_4)*%
X97340000Y-113070000D03*
%TO.P,J3,5,Pin_5*%
%TO.N,Net-(J3-Pin_5)*%
X94800000Y-113070000D03*
%TO.P,J3,6,Pin_6*%
%TO.N,Net-(J3-Pin_6)*%
X92260000Y-113070000D03*
%TD*%
D14*
%TO.P,,21,GND*%
%TO.N,GND*%
X100870000Y-104470000D03*
%TD*%
D13*
%TO.P,L2,1,1*%
%TO.N,Net-(U1-TX)*%
X104520000Y-105160000D03*
%TO.P,L2,2,2*%
%TO.N,Net-(C1-Pad1)*%
X104520000Y-107210000D03*
%TD*%
D18*
%TO.P,U1,1,SDN*%
%TO.N,/SDN*%
X102795000Y-104420000D03*
%TO.P,U1,2,RXp*%
%TO.N,unconnected-(U1-RXp-Pad2)*%
X102795000Y-103920000D03*
%TO.P,U1,3,RXn*%
%TO.N,unconnected-(U1-RXn-Pad3)*%
X102795000Y-103420000D03*
%TO.P,U1,4,TX*%
%TO.N,Net-(U1-TX)*%
X102795000Y-102920000D03*
%TO.P,U1,5,NC*%
%TO.N,unconnected-(U1-NC-Pad5)*%
X102795000Y-102420000D03*
D19*
%TO.P,U1,6,VDD*%
%TO.N,+3.3V*%
X101870000Y-101495000D03*
%TO.P,U1,7,TXRAMP*%
%TO.N,unconnected-(U1-TXRAMP-Pad7)*%
X101370000Y-101495000D03*
%TO.P,U1,8,VDD*%
%TO.N,+3.3V*%
X100870000Y-101495000D03*
%TO.P,U1,9,GPIO0*%
%TO.N,Net-(J2-Pin_2)*%
X100370000Y-101495000D03*
%TO.P,U1,10,GPIO1*%
%TO.N,Net-(J2-Pin_3)*%
X99870000Y-101495000D03*
D18*
%TO.P,U1,11,~{IRQ}*%
%TO.N,Net-(J2-Pin_4)*%
X98945000Y-102420000D03*
%TO.P,U1,12,SCLK*%
%TO.N,Net-(J2-Pin_5)*%
X98945000Y-102920000D03*
%TO.P,U1,13,SDO*%
%TO.N,Net-(J2-Pin_6)*%
X98945000Y-103420000D03*
%TO.P,U1,14,SDI*%
%TO.N,Net-(J3-Pin_6)*%
X98945000Y-103920000D03*
%TO.P,U1,15,~{SEL}*%
%TO.N,Net-(J3-Pin_5)*%
X98945000Y-104420000D03*
D19*
%TO.P,U1,16,XOUT*%
%TO.N,Net-(U1-XOUT)*%
X99870000Y-105345000D03*
%TO.P,U1,17,XIN*%
%TO.N,Net-(U1-XIN)*%
X100370000Y-105345000D03*
%TO.P,U1,18,GND*%
%TO.N,GND*%
X100870000Y-105345000D03*
%TO.P,U1,19,GPIO2*%
%TO.N,Net-(J3-Pin_4)*%
X101370000Y-105345000D03*
%TO.P,U1,20,GPIO3*%
%TO.N,Net-(J3-Pin_3)*%
X101870000Y-105345000D03*
D14*
%TO.P,U1,21,GND*%
%TO.N,GND*%
X101920000Y-104470000D03*
X101920000Y-102370000D03*
D20*
X100870000Y-103420000D03*
D14*
X99820000Y-104470000D03*
X99820000Y-102370000D03*
%TD*%
%TO.P,,21,GND*%
%TO.N,GND*%
X100880000Y-103430000D03*
%TD*%
D11*
%TO.P,L3,1,1*%
%TO.N,Net-(C1-Pad2)*%
X108660000Y-103230000D03*
%TO.P,L3,2,2*%
%TO.N,Net-(C3-Pad2)*%
X108660000Y-101180000D03*
%TD*%
D14*
%TO.P,,21,GND*%
%TO.N,GND*%
X101920000Y-103420000D03*
%TD*%
%TO.P,,21,GND*%
%TO.N,GND*%
X100870000Y-102420000D03*
%TD*%
D21*
%TO.P,J1,1,In*%
%TO.N,Net-(J1-In)*%
X123280000Y-99800000D03*
%TO.P,J1,2,Ext*%
%TO.N,GND*%
X123280000Y-102340000D03*
D22*
%TO.P,J1,MH1*%
%TO.N,N/C*%
X128360000Y-97260000D03*
%TO.P,J1,MH2*%
X128360000Y-107420000D03*
%TD*%
D10*
%TO.P,C1,1*%
%TO.N,Net-(C1-Pad1)*%
X106572500Y-107685000D03*
%TO.P,C1,2*%
%TO.N,Net-(C1-Pad2)*%
X108647500Y-107685000D03*
%TD*%
D23*
%TO.N,GND*%
X128140000Y-111890000D03*
X127940000Y-100850000D03*
X111940000Y-107130000D03*
X112790000Y-106120000D03*
X114500000Y-99000000D03*
X114500000Y-103000000D03*
X114500000Y-112000000D03*
X111500000Y-112000000D03*
X98000000Y-96000000D03*
X95000000Y-101000000D03*
X132500000Y-96000000D03*
X131000000Y-93000000D03*
X134500000Y-92500000D03*
X128000000Y-92500000D03*
X124000000Y-96000000D03*
X124000000Y-93000000D03*
X132000000Y-111000000D03*
X132500000Y-108000000D03*
X132000000Y-104500000D03*
X132000000Y-100000000D03*
X127500000Y-103500000D03*
X124000000Y-105500000D03*
X123500000Y-109000000D03*
X122000000Y-112500000D03*
X118500000Y-111000000D03*
X108000000Y-112000000D03*
X118500000Y-106500000D03*
X119000000Y-108500000D03*
X114000000Y-108000000D03*
X113000000Y-104500000D03*
X118500000Y-104000000D03*
X118500000Y-100000000D03*
X115500000Y-100500000D03*
X116500000Y-99000000D03*
X117500000Y-98000000D03*
X108500000Y-93000000D03*
X106000000Y-95000000D03*
X107000000Y-97000000D03*
X105000000Y-98500000D03*
X105000000Y-92500000D03*
X101500000Y-92500000D03*
X111340000Y-102940000D03*
X123440000Y-97840000D03*
X121320000Y-100020000D03*
X115640000Y-95180000D03*
X114950000Y-94560000D03*
X117490000Y-94360000D03*
X118450000Y-94340000D03*
X119250000Y-94470000D03*
X119910000Y-95080000D03*
X120490000Y-95700000D03*
X121160000Y-96330000D03*
X121750000Y-96980000D03*
X122440000Y-97670000D03*
X121180000Y-99090000D03*
X120490000Y-98380000D03*
X119860000Y-97730000D03*
X119100000Y-96930000D03*
X118290000Y-96330000D03*
X117380000Y-96200000D03*
X126000000Y-102000000D03*
X130000000Y-102000000D03*
X121000000Y-102000000D03*
X116000000Y-102000000D03*
X116000000Y-106000000D03*
X112000000Y-110000000D03*
X116000000Y-110000000D03*
X121000000Y-106000000D03*
X121000000Y-110000000D03*
X108000000Y-95000000D03*
X106610000Y-105010000D03*
X135000000Y-114000000D03*
X134000000Y-110000000D03*
X109000000Y-110000000D03*
X133000000Y-114000000D03*
X134000000Y-98000000D03*
X104170000Y-108910000D03*
X106970000Y-109460000D03*
X112650000Y-99440000D03*
X137000000Y-100000000D03*
X98000000Y-91000000D03*
X109000000Y-114000000D03*
X106030000Y-91100000D03*
X122000000Y-94000000D03*
X111500000Y-93830000D03*
X108030000Y-99640000D03*
X137000000Y-102000000D03*
X137000000Y-110000000D03*
X110590000Y-95360000D03*
X137000000Y-92000000D03*
X106640000Y-101620000D03*
X132000000Y-91000000D03*
X126000000Y-91000000D03*
X115000000Y-114000000D03*
X106060000Y-109450000D03*
X112020000Y-91080000D03*
X111480000Y-92930000D03*
X128000000Y-91000000D03*
X130000000Y-91000000D03*
X125550000Y-94000000D03*
X110380000Y-103680000D03*
X107000000Y-114000000D03*
X107380000Y-100030000D03*
X113180000Y-91070000D03*
X136000000Y-91000000D03*
X91000000Y-110000000D03*
X124000000Y-91000000D03*
X107920000Y-109430000D03*
X106640000Y-103240000D03*
X137000000Y-94000000D03*
X111510000Y-95370000D03*
X137000000Y-96000000D03*
X110240000Y-108270000D03*
X96000000Y-91000000D03*
X118770000Y-91060000D03*
X137000000Y-98000000D03*
X109030000Y-99690000D03*
X137000000Y-112000000D03*
X102000000Y-91000000D03*
X111480000Y-92020000D03*
X123000000Y-114000000D03*
X125000000Y-114000000D03*
X117000000Y-114000000D03*
X109200000Y-97150000D03*
X100000000Y-91000000D03*
X111510000Y-94640000D03*
X129000000Y-114000000D03*
X106610000Y-105860000D03*
X120000000Y-91000000D03*
X137000000Y-108000000D03*
X105070000Y-108950000D03*
X137000000Y-114000000D03*
X114240000Y-91090000D03*
X134000000Y-102000000D03*
X104000000Y-91000000D03*
X117630000Y-91050000D03*
X112610000Y-98500000D03*
X134000000Y-106000000D03*
X137000000Y-104000000D03*
X109650000Y-95400000D03*
X113630000Y-98520000D03*
X109220000Y-96210000D03*
X134000000Y-91000000D03*
X137000000Y-106000000D03*
X116630000Y-91110000D03*
X113000000Y-114000000D03*
X110070000Y-91130000D03*
X121000000Y-114000000D03*
X109150000Y-98920000D03*
X134000000Y-94000000D03*
X119000000Y-114000000D03*
X115430000Y-91070000D03*
X106930000Y-100830000D03*
X110330000Y-107260000D03*
X127000000Y-114000000D03*
X131000000Y-114000000D03*
X111000000Y-114000000D03*
X91000000Y-108000000D03*
X108020000Y-91220000D03*
X108910000Y-109430000D03*
X96000000Y-100000000D03*
X96000000Y-95000000D03*
X106640000Y-104120000D03*
X122000000Y-91000000D03*
X104000000Y-95000000D03*
X109160000Y-98050000D03*
X109820000Y-109170000D03*
X110400000Y-102850000D03*
X106620000Y-102430000D03*
%TD*%
D24*
%TO.N,+3.3V*%
X101090000Y-100580000D02*
X100870000Y-100800000D01*
X101100000Y-100580000D02*
X101090000Y-100580000D01*
X100870000Y-100800000D02*
X100870000Y-100580000D01*
X101100000Y-100580000D02*
X100870000Y-100580000D01*
X100870000Y-101495000D02*
X100870000Y-100800000D01*
X101650000Y-100580000D02*
X101100000Y-100580000D01*
X101870000Y-100580000D02*
X101650000Y-100580000D01*
X101870000Y-100800000D02*
X101650000Y-100580000D01*
X102100000Y-100580000D02*
X103797500Y-100580000D01*
X101870000Y-100580000D02*
X102100000Y-100580000D01*
X101870000Y-100800000D02*
X101880000Y-100800000D01*
X101870000Y-100800000D02*
X101870000Y-100580000D01*
X101870000Y-101495000D02*
X101870000Y-100800000D01*
X101880000Y-100800000D02*
X102100000Y-100580000D01*
D25*
%TO.N,Net-(J1-In)*%
X115380000Y-93530000D02*
X115422500Y-93487500D01*
X118760000Y-95280000D02*
X117130000Y-95280000D01*
X115422500Y-93487500D02*
X115422500Y-92780000D01*
X123280000Y-99800000D02*
X118760000Y-95280000D01*
X117130000Y-95280000D02*
X115380000Y-93530000D01*
%TO.N,Net-(C1-Pad1)*%
X104995000Y-107685000D02*
X104520000Y-107210000D01*
X106572500Y-107685000D02*
X104995000Y-107685000D01*
%TO.N,Net-(C1-Pad2)*%
X108660000Y-103230000D02*
X108660000Y-105457500D01*
X108660000Y-105457500D02*
X108642500Y-105475000D01*
X108647500Y-105480000D02*
X108642500Y-105475000D01*
X108647500Y-107685000D02*
X108647500Y-105480000D01*
D24*
%TO.N,Net-(U1-TX)*%
X104087500Y-102920000D02*
X104530000Y-103362500D01*
D25*
X104530000Y-103362500D02*
X104530000Y-105150000D01*
D24*
X102795000Y-102920000D02*
X104087500Y-102920000D01*
D25*
X104530000Y-105150000D02*
X104520000Y-105160000D01*
D24*
%TO.N,GND*%
X100870000Y-105345000D02*
X100870000Y-104470000D01*
D25*
%TO.N,Net-(C3-Pad2)*%
X108660000Y-101180000D02*
X110897500Y-101180000D01*
X110897500Y-101180000D02*
X110912500Y-101165000D01*
X110940000Y-98910000D02*
X110940000Y-101137500D01*
X110940000Y-101137500D02*
X110912500Y-101165000D01*
%TO.N,Net-(C4-Pad2)*%
X110940000Y-96860000D02*
X113187500Y-96860000D01*
X113187500Y-96860000D02*
X113192500Y-96865000D01*
X113190000Y-96862500D02*
X113192500Y-96865000D01*
X113190000Y-94835000D02*
X113190000Y-96862500D01*
%TO.N,Net-(J1-In)*%
X113190000Y-92785000D02*
X115417500Y-92785000D01*
X115417500Y-92785000D02*
X115422500Y-92780000D01*
D24*
%TO.N,+3.3V*%
X100870000Y-100580000D02*
X100870000Y-99817500D01*
D25*
X100345000Y-99287500D02*
X100342500Y-99290000D01*
X100345000Y-97190000D02*
X100345000Y-99287500D01*
X97775000Y-92510000D02*
X100345000Y-95080000D01*
X100345000Y-95080000D02*
X100345000Y-97190000D01*
X92350000Y-92510000D02*
X97775000Y-92510000D01*
D24*
X100870000Y-99817500D02*
X100342500Y-99290000D01*
X103797500Y-100580000D02*
X104530000Y-101312500D01*
%TO.N,Net-(J2-Pin_4)*%
X98945000Y-102420000D02*
X94400000Y-102420000D01*
X94400000Y-102420000D02*
X92350000Y-100370000D01*
%TO.N,Net-(J2-Pin_5)*%
X98935000Y-102910000D02*
X98945000Y-102920000D01*
X92350000Y-102910000D02*
X98935000Y-102910000D01*
%TO.N,Net-(J2-Pin_6)*%
X94380000Y-103420000D02*
X98945000Y-103420000D01*
X92350000Y-105450000D02*
X94380000Y-103420000D01*
%TO.N,Net-(J2-Pin_2)*%
X100370000Y-100950000D02*
X100370000Y-101495000D01*
X92350000Y-95290000D02*
X94710000Y-95290000D01*
X94710000Y-95290000D02*
X100370000Y-100950000D01*
%TO.N,Net-(J2-Pin_3)*%
X92350000Y-97830000D02*
X96205000Y-97830000D01*
X96205000Y-97830000D02*
X99870000Y-101495000D01*
%TO.N,/SDN*%
X102795000Y-112695000D02*
X102420000Y-113070000D01*
X102795000Y-104420000D02*
X102795000Y-112695000D01*
%TO.N,Net-(J3-Pin_3)*%
X99880000Y-113070000D02*
X101870000Y-111080000D01*
X101870000Y-111080000D02*
X101870000Y-105345000D01*
%TO.N,Net-(U1-XIN)*%
X100370000Y-105345000D02*
X100370000Y-106530000D01*
D26*
X100370000Y-106530000D02*
X99920000Y-106980000D01*
D24*
%TO.N,Net-(U1-XOUT)*%
X99870000Y-105345000D02*
X98255000Y-105345000D01*
X98255000Y-105345000D02*
X96620000Y-106980000D01*
%TO.N,Net-(J3-Pin_4)*%
X99900000Y-110510000D02*
X100685000Y-110510000D01*
X100685000Y-110510000D02*
X101370000Y-109825000D01*
X97340000Y-113070000D02*
X99900000Y-110510000D01*
X101370000Y-109825000D02*
X101370000Y-105345000D01*
%TO.N,Net-(J3-Pin_6)*%
X96460000Y-103920000D02*
X92260000Y-108120000D01*
X92260000Y-108120000D02*
X92260000Y-113070000D01*
X98945000Y-103920000D02*
X96460000Y-103920000D01*
%TO.N,Net-(J3-Pin_5)*%
X98945000Y-104420000D02*
X96680000Y-104420000D01*
X94800000Y-106300000D02*
X94800000Y-113070000D01*
X96680000Y-104420000D02*
X94800000Y-106300000D01*
%TD*%
%TA.AperFunction,Conductor*%
%TO.N,GND*%
G36*
X101652514Y-102404501D02*
G01*
X101652674Y-102403905D01*
X101660524Y-102406008D01*
X101660526Y-102406008D01*
X101660528Y-102406009D01*
X101763661Y-102419586D01*
X101827556Y-102447852D01*
X101866028Y-102506176D01*
X101870414Y-102526341D01*
X101883989Y-102629469D01*
X101886094Y-102637322D01*
X101882814Y-102638200D01*
X101888581Y-102692073D01*
X101885516Y-102702524D01*
X101886094Y-102702679D01*
X101883990Y-102710530D01*
X101882049Y-102725269D01*
X101853779Y-102789164D01*
X101846793Y-102796757D01*
X101748553Y-102894999D01*
X101748553Y-102895001D01*
X101839212Y-102985660D01*
X101872697Y-103046983D01*
X101874470Y-103057156D01*
X101883989Y-103129469D01*
X101886094Y-103137322D01*
X101882814Y-103138200D01*
X101888581Y-103192073D01*
X101885517Y-103202522D01*
X101886095Y-103202677D01*
X101883990Y-103210529D01*
X101869500Y-103320598D01*
X101869500Y-103332678D01*
X101863355Y-103335224D01*
X101835224Y-103363355D01*
X101820000Y-103400109D01*
X101820000Y-103439891D01*
X101835224Y-103476645D01*
X101863355Y-103504776D01*
X101869500Y-103507321D01*
X101869500Y-103519403D01*
X101883989Y-103629468D01*
X101886094Y-103637322D01*
X101882814Y-103638200D01*
X101888581Y-103692073D01*
X101885517Y-103702522D01*
X101886095Y-103702677D01*
X101883991Y-103710529D01*
X101874470Y-103782843D01*
X101846203Y-103846740D01*
X101839213Y-103854337D01*
X101748553Y-103944999D01*
X101846793Y-104043239D01*
X101880278Y-104104562D01*
X101882051Y-104114735D01*
X101883991Y-104129473D01*
X101886094Y-104137320D01*
X101882803Y-104138201D01*
X101888595Y-104191998D01*
X101885508Y-104202519D01*
X101886095Y-104202677D01*
X101883991Y-104210528D01*
X101870413Y-104313661D01*
X101842146Y-104377557D01*
X101783822Y-104416028D01*
X101763658Y-104420414D01*
X101660530Y-104433989D01*
X101652678Y-104436094D01*
X101651802Y-104432824D01*
X101597853Y-104438567D01*
X101587475Y-104435518D01*
X101587321Y-104436094D01*
X101579476Y-104433991D01*
X101564730Y-104432050D01*
X101500835Y-104403781D01*
X101493238Y-104396792D01*
X101395000Y-104298553D01*
X101304338Y-104389214D01*
X101243014Y-104422698D01*
X101232841Y-104424471D01*
X101160536Y-104433989D01*
X101160527Y-104433991D01*
X101023573Y-104490719D01*
X101023570Y-104490721D01*
X100945486Y-104550637D01*
X100880317Y-104575831D01*
X100851889Y-104570000D01*
X100889891Y-104570000D01*
X100926645Y-104554776D01*
X100954776Y-104526645D01*
X100970000Y-104489891D01*
X100970000Y-104450109D01*
X100954776Y-104413355D01*
X100926645Y-104385224D01*
X100889891Y-104370000D01*
X100850109Y-104370000D01*
X100813355Y-104385224D01*
X100785224Y-104413355D01*
X100770000Y-104450109D01*
X100770000Y-104489891D01*
X100785224Y-104526645D01*
X100813355Y-104554776D01*
X100848363Y-104569276D01*
X100811872Y-104561792D01*
X100794514Y-104550637D01*
X100716429Y-104490721D01*
X100716426Y-104490719D01*
X100590519Y-104438567D01*
X100579472Y-104433991D01*
X100551269Y-104430278D01*
X100507154Y-104424470D01*
X100443258Y-104396203D01*
X100435658Y-104389212D01*
X100345000Y-104298553D01*
X100246758Y-104396794D01*
X100185434Y-104430278D01*
X100175264Y-104432051D01*
X100160528Y-104433991D01*
X100152677Y-104436095D01*
X100151802Y-104432829D01*
X100097823Y-104438562D01*
X100087476Y-104435523D01*
X100087323Y-104436095D01*
X100079473Y-104433991D01*
X100079472Y-104433991D01*
X100045299Y-104429492D01*
X99976338Y-104420413D01*
X99912442Y-104392146D01*
X99873971Y-104333822D01*
X99869585Y-104313658D01*
X99866814Y-104292608D01*
X99856009Y-104210528D01*
X99856008Y-104210526D01*
X99856008Y-104210524D01*
X99853905Y-104202674D01*
X99857207Y-104201789D01*
X99851392Y-104148075D01*
X99854501Y-104137485D01*
X99853905Y-104137326D01*
X99856006Y-104129481D01*
X99856006Y-104129478D01*
X99856009Y-104129472D01*
X99857949Y-104114735D01*
X99886211Y-104050843D01*
X99893206Y-104043239D01*
X99981445Y-103955000D01*
X100708553Y-103955000D01*
X100870000Y-104116447D01*
X101041447Y-103945000D01*
X100880000Y-103783553D01*
X100708553Y-103955000D01*
X99981445Y-103955000D01*
X99991446Y-103944999D01*
X99900786Y-103854339D01*
X99867301Y-103793016D01*
X99865529Y-103782849D01*
X99856009Y-103710528D01*
X99856008Y-103710525D01*
X99853905Y-103702674D01*
X99857207Y-103701789D01*
X99851392Y-103648075D01*
X99854501Y-103637485D01*
X99853905Y-103637326D01*
X99856008Y-103629475D01*
X99856008Y-103629474D01*
X99856009Y-103629472D01*
X99870500Y-103519401D01*
X99870499Y-103507321D01*
X99876645Y-103504776D01*
X99904776Y-103476645D01*
X99920000Y-103439891D01*
X99920000Y-103420000D01*
X100173553Y-103420000D01*
X100355000Y-103601447D01*
X100526447Y-103430000D01*
X100506556Y-103410109D01*
X100780000Y-103410109D01*
X100780000Y-103449891D01*
X100795224Y-103486645D01*
X100823355Y-103514776D01*
X100860109Y-103530000D01*
X100899891Y-103530000D01*
X100936645Y-103514776D01*
X100964776Y-103486645D01*
X100980000Y-103449891D01*
X100980000Y-103430000D01*
X101233553Y-103430000D01*
X101395000Y-103591447D01*
X101566447Y-103420000D01*
X101405000Y-103258553D01*
X101233553Y-103430000D01*
X100980000Y-103430000D01*
X100980000Y-103410109D01*
X100964776Y-103373355D01*
X100936645Y-103345224D01*
X100899891Y-103330000D01*
X100860109Y-103330000D01*
X100823355Y-103345224D01*
X100795224Y-103373355D01*
X100780000Y-103410109D01*
X100506556Y-103410109D01*
X100345000Y-103248553D01*
X100173553Y-103420000D01*
X99920000Y-103420000D01*
X99920000Y-103400109D01*
X99904776Y-103363355D01*
X99876645Y-103335224D01*
X99870499Y-103332678D01*
X99870499Y-103320600D01*
X99856009Y-103210528D01*
X99856008Y-103210525D01*
X99853905Y-103202674D01*
X99857207Y-103201789D01*
X99851392Y-103148075D01*
X99854501Y-103137485D01*
X99853905Y-103137326D01*
X99856008Y-103129474D01*
X99856007Y-103129474D01*
X99856009Y-103129472D01*
X99865529Y-103057154D01*
X99893795Y-102993259D01*
X99900787Y-102985658D01*
X99966445Y-102920000D01*
X100723553Y-102920000D01*
X100880000Y-103076447D01*
X101026447Y-102930000D01*
X100870000Y-102773553D01*
X100723553Y-102920000D01*
X99966445Y-102920000D01*
X99991446Y-102894999D01*
X99893207Y-102796760D01*
X99859722Y-102735437D01*
X99857948Y-102725260D01*
X99856009Y-102710528D01*
X99856008Y-102710525D01*
X99853906Y-102702679D01*
X99857208Y-102701794D01*
X99851392Y-102648075D01*
X99854501Y-102637485D01*
X99853905Y-102637326D01*
X99856008Y-102629475D01*
X99856008Y-102629474D01*
X99856009Y-102629472D01*
X99869586Y-102526337D01*
X99897852Y-102462443D01*
X99956176Y-102423971D01*
X99976337Y-102419585D01*
X100079472Y-102406009D01*
X100079474Y-102406008D01*
X100079475Y-102406008D01*
X100087326Y-102403905D01*
X100088210Y-102407207D01*
X100141925Y-102401392D01*
X100152514Y-102404501D01*
X100152674Y-102403905D01*
X100160519Y-102406006D01*
X100160521Y-102406006D01*
X100160528Y-102406009D01*
X100175263Y-102407948D01*
X100239157Y-102436212D01*
X100246759Y-102443206D01*
X100369999Y-102566446D01*
X100493238Y-102443207D01*
X100554562Y-102409722D01*
X100564728Y-102407949D01*
X100579472Y-102406009D01*
X100579475Y-102406007D01*
X100587321Y-102403906D01*
X100588205Y-102407208D01*
X100641925Y-102401392D01*
X100652514Y-102404501D01*
X100652674Y-102403905D01*
X100660524Y-102406008D01*
X100660526Y-102406008D01*
X100660528Y-102406009D01*
X100770000Y-102420421D01*
X100770000Y-102439891D01*
X100785224Y-102476645D01*
X100813355Y-102504776D01*
X100850109Y-102520000D01*
X100889891Y-102520000D01*
X100926645Y-102504776D01*
X100954776Y-102476645D01*
X100970000Y-102439891D01*
X100970000Y-102420420D01*
X100986087Y-102418302D01*
X101079472Y-102406009D01*
X101079475Y-102406007D01*
X101087326Y-102403905D01*
X101088210Y-102407207D01*
X101141925Y-102401392D01*
X101152514Y-102404501D01*
X101152674Y-102403905D01*
X101160519Y-102406006D01*
X101160521Y-102406006D01*
X101160528Y-102406009D01*
X101175263Y-102407948D01*
X101239157Y-102436212D01*
X101246759Y-102443206D01*
X101369999Y-102566446D01*
X101493239Y-102443206D01*
X101554562Y-102409721D01*
X101564729Y-102407949D01*
X101579472Y-102406009D01*
X101587321Y-102403906D01*
X101588205Y-102407208D01*
X101641925Y-102401392D01*
X101652514Y-102404501D01*
G37*
%TD.AperFunction*%
%TA.AperFunction,Conductor*%
G36*
X95961587Y-98475185D02*
G01*
X95982229Y-98491819D01*
X99073228Y-101582819D01*
X99106713Y-101644142D01*
X99101729Y-101713834D01*
X99059857Y-101769767D01*
X98994393Y-101794184D01*
X98985547Y-101794500D01*
X94710452Y-101794500D01*
X94643413Y-101774815D01*
X94622771Y-101758181D01*
X93892646Y-101028056D01*
X93859161Y-100966733D01*
X93864145Y-100897041D01*
X93865734Y-100893000D01*
X93876873Y-100866111D01*
X93935683Y-100621148D01*
X93955449Y-100370000D01*
X93935683Y-100118852D01*
X93876873Y-99873889D01*
X93857746Y-99827712D01*
X93780466Y-99641140D01*
X93648839Y-99426346D01*
X93648838Y-99426343D01*
X93485224Y-99234776D01*
X93437819Y-99194289D01*
X93399627Y-99135784D01*
X93399128Y-99065916D01*
X93436482Y-99006870D01*
X93437756Y-99005764D01*
X93485224Y-98965224D01*
X93648836Y-98773659D01*
X93780466Y-98558859D01*
X93791572Y-98532048D01*
X93835412Y-98477644D01*
X93901706Y-98455579D01*
X93906133Y-98455500D01*
X95894548Y-98455500D01*
X95961587Y-98475185D01*
G37*
%TD.AperFunction*%
%TA.AperFunction,Conductor*%
G36*
X97417677Y-93430185D02*
G01*
X97438319Y-93446819D01*
X99220681Y-95229181D01*
X99254166Y-95290504D01*
X99257000Y-95316862D01*
X99257000Y-95605000D01*
X99257001Y-95605019D01*
X99267500Y-95707796D01*
X99267501Y-95707799D01*
X99322685Y-95874331D01*
X99322687Y-95874336D01*
X99331813Y-95889132D01*
X99414788Y-96023656D01*
X99414790Y-96023658D01*
X99417766Y-96027422D01*
X99443907Y-96092217D01*
X99444500Y-96104333D01*
X99444500Y-96165666D01*
X99424815Y-96232705D01*
X99417770Y-96242572D01*
X99414791Y-96246339D01*
X99322687Y-96395663D01*
X99322685Y-96395668D01*
X99322615Y-96395880D01*
X99267501Y-96562203D01*
X99267501Y-96562204D01*
X99267500Y-96562204D01*
X99257000Y-96664983D01*
X99257000Y-97715001D01*
X99257001Y-97715019D01*
X99267500Y-97817796D01*
X99267501Y-97817799D01*
X99305579Y-97932710D01*
X99322686Y-97984334D01*
X99414788Y-98133656D01*
X99414790Y-98133658D01*
X99417766Y-98137422D01*
X99443907Y-98202217D01*
X99444500Y-98214333D01*
X99444500Y-98262770D01*
X99424815Y-98329809D01*
X99416331Y-98340337D01*
X99416766Y-98340681D01*
X99412290Y-98346341D01*
X99320187Y-98495663D01*
X99320185Y-98495668D01*
X99265001Y-98662204D01*
X99263880Y-98673175D01*
X99237482Y-98737866D01*
X99180301Y-98778016D01*
X99110490Y-98780878D01*
X99052841Y-98748251D01*
X95200198Y-94895608D01*
X95200178Y-94895586D01*
X95108733Y-94804141D01*
X95057509Y-94769915D01*
X95006287Y-94735689D01*
X95006286Y-94735688D01*
X95006283Y-94735686D01*
X95006280Y-94735685D01*
X94925792Y-94702347D01*
X94892453Y-94688537D01*
X94882427Y-94686543D01*
X94832029Y-94676518D01*
X94771610Y-94664500D01*
X94771607Y-94664500D01*
X94771606Y-94664500D01*
X93906133Y-94664500D01*
X93839094Y-94644815D01*
X93793339Y-94592011D01*
X93791572Y-94587952D01*
X93780467Y-94561143D01*
X93780466Y-94561141D01*
X93768162Y-94541063D01*
X93699478Y-94428982D01*
X93681234Y-94361538D01*
X93702350Y-94294935D01*
X93730891Y-94264929D01*
X93807546Y-94207546D01*
X93893796Y-94092331D01*
X93944091Y-93957483D01*
X93950500Y-93897873D01*
X93950500Y-93534500D01*
X93970185Y-93467461D01*
X94022989Y-93421706D01*
X94074500Y-93410500D01*
X97350638Y-93410500D01*
X97417677Y-93430185D01*
G37*
%TD.AperFunction*%
%TA.AperFunction,Conductor*%
G36*
X137442539Y-90460185D02*
G01*
X137488294Y-90512989D01*
X137499500Y-90564500D01*
X137499500Y-114865500D01*
X137479815Y-114932539D01*
X137427011Y-114978294D01*
X137375500Y-114989500D01*
X90234500Y-114989500D01*
X90167461Y-114969815D01*
X90121706Y-114917011D01*
X90110500Y-114865500D01*
X90110500Y-113070000D01*
X90654551Y-113070000D01*
X90674317Y-113321151D01*
X90733126Y-113566110D01*
X90829533Y-113798859D01*
X90961160Y-114013653D01*
X90961161Y-114013656D01*
X90961164Y-114013659D01*
X91124776Y-114205224D01*
X91209259Y-114277379D01*
X91316343Y-114368838D01*
X91316346Y-114368839D01*
X91531140Y-114500466D01*
X91763889Y-114596873D01*
X92008852Y-114655683D01*
X92260000Y-114675449D01*
X92511148Y-114655683D01*
X92756111Y-114596873D01*
X92988859Y-114500466D01*
X93203659Y-114368836D01*
X93395224Y-114205224D01*
X93435710Y-114157819D01*
X93494216Y-114119627D01*
X93564084Y-114119128D01*
X93623130Y-114156482D01*
X93624235Y-114157756D01*
X93664775Y-114205223D01*
X93664776Y-114205224D01*
X93856343Y-114368838D01*
X93856346Y-114368839D01*
X94071140Y-114500466D01*
X94303889Y-114596873D01*
X94548852Y-114655683D01*
X94800000Y-114675449D01*
X95051148Y-114655683D01*
X95296111Y-114596873D01*
X95528859Y-114500466D01*
X95743659Y-114368836D01*
X95935224Y-114205224D01*
X95975710Y-114157819D01*
X96034216Y-114119627D01*
X96104084Y-114119128D01*
X96163130Y-114156482D01*
X96164235Y-114157756D01*
X96204775Y-114205223D01*
X96204776Y-114205224D01*
X96396343Y-114368838D01*
X96396346Y-114368839D01*
X96611140Y-114500466D01*
X96843889Y-114596873D01*
X97088852Y-114655683D01*
X97340000Y-114675449D01*
X97591148Y-114655683D01*
X97836111Y-114596873D01*
X98068859Y-114500466D01*
X98283659Y-114368836D01*
X98475224Y-114205224D01*
X98515710Y-114157819D01*
X98574216Y-114119627D01*
X98644084Y-114119128D01*
X98703130Y-114156482D01*
X98704235Y-114157756D01*
X98744775Y-114205223D01*
X98744776Y-114205224D01*
X98936343Y-114368838D01*
X98936346Y-114368839D01*
X99151140Y-114500466D01*
X99383889Y-114596873D01*
X99628852Y-114655683D01*
X99880000Y-114675449D01*
X100131148Y-114655683D01*
X100376111Y-114596873D01*
X100608859Y-114500466D01*
X100823659Y-114368836D01*
X101015224Y-114205224D01*
X101055710Y-114157819D01*
X101114216Y-114119627D01*
X101184084Y-114119128D01*
X101243130Y-114156482D01*
X101244235Y-114157756D01*
X101284775Y-114205223D01*
X101284776Y-114205224D01*
X101476343Y-114368838D01*
X101476346Y-114368839D01*
X101691140Y-114500466D01*
X101923889Y-114596873D01*
X102168852Y-114655683D01*
X102420000Y-114675449D01*
X102671148Y-114655683D01*
X102916111Y-114596873D01*
X103148859Y-114500466D01*
X103281445Y-114419217D01*
X103348890Y-114400972D01*
X103415493Y-114422088D01*
X103445502Y-114450633D01*
X103502813Y-114527190D01*
X103617906Y-114613350D01*
X103617913Y-114613354D01*
X103752620Y-114663596D01*
X103752627Y-114663598D01*
X103812155Y-114669999D01*
X103812172Y-114670000D01*
X104710000Y-114670000D01*
X104710000Y-113503012D01*
X104767007Y-113535925D01*
X104894174Y-113570000D01*
X105025826Y-113570000D01*
X105152993Y-113535925D01*
X105210000Y-113503012D01*
X105210000Y-114670000D01*
X106107828Y-114670000D01*
X106107844Y-114669999D01*
X106167372Y-114663598D01*
X106167379Y-114663596D01*
X106302086Y-114613354D01*
X106302093Y-114613350D01*
X106417187Y-114527190D01*
X106417190Y-114527187D01*
X106503350Y-114412093D01*
X106503354Y-114412086D01*
X106553596Y-114277379D01*
X106553598Y-114277372D01*
X106559999Y-114217844D01*
X106560000Y-114217827D01*
X106560000Y-113320000D01*
X105393012Y-113320000D01*
X105425925Y-113262993D01*
X105460000Y-113135826D01*
X105460000Y-113004174D01*
X105425925Y-112877007D01*
X105393012Y-112820000D01*
X106560000Y-112820000D01*
X106560000Y-111922172D01*
X106559999Y-111922155D01*
X106553598Y-111862627D01*
X106553596Y-111862620D01*
X106503354Y-111727913D01*
X106503350Y-111727906D01*
X106417190Y-111612812D01*
X106417187Y-111612809D01*
X106302093Y-111526649D01*
X106302086Y-111526645D01*
X106167379Y-111476403D01*
X106167372Y-111476401D01*
X106107844Y-111470000D01*
X105210000Y-111470000D01*
X105210000Y-112636988D01*
X105152993Y-112604075D01*
X105025826Y-112570000D01*
X104894174Y-112570000D01*
X104767007Y-112604075D01*
X104710000Y-112636988D01*
X104710000Y-111470000D01*
X103812155Y-111470000D01*
X103752627Y-111476401D01*
X103752620Y-111476403D01*
X103617913Y-111526645D01*
X103610128Y-111530897D01*
X103609363Y-111529497D01*
X103553343Y-111550390D01*
X103485070Y-111535537D01*
X103435666Y-111486130D01*
X103420500Y-111426706D01*
X103420500Y-108238340D01*
X103440185Y-108171301D01*
X103492989Y-108125546D01*
X103562147Y-108115602D01*
X103609591Y-108132798D01*
X103750666Y-108219814D01*
X103917203Y-108274999D01*
X104019991Y-108285500D01*
X104270637Y-108285499D01*
X104337676Y-108305183D01*
X104358318Y-108321818D01*
X104420961Y-108384461D01*
X104420965Y-108384464D01*
X104568446Y-108483009D01*
X104568459Y-108483016D01*
X104691363Y-108533923D01*
X104732334Y-108550894D01*
X104732336Y-108550894D01*
X104732341Y-108550896D01*
X104906304Y-108585499D01*
X104906307Y-108585500D01*
X104906309Y-108585500D01*
X105548132Y-108585500D01*
X105615171Y-108605185D01*
X105636346Y-108624383D01*
X105637181Y-108623549D01*
X105642288Y-108628656D01*
X105766344Y-108752712D01*
X105915666Y-108844814D01*
X106082203Y-108899999D01*
X106184991Y-108910500D01*
X106960008Y-108910499D01*
X106960016Y-108910498D01*
X106960019Y-108910498D01*
X107016302Y-108904748D01*
X107062797Y-108899999D01*
X107229334Y-108844814D01*
X107378656Y-108752712D01*
X107502712Y-108628656D01*
X107504461Y-108625819D01*
X107506169Y-108624283D01*
X107507193Y-108622989D01*
X107507414Y-108623163D01*
X107556406Y-108579096D01*
X107625368Y-108567872D01*
X107689451Y-108595713D01*
X107715537Y-108625817D01*
X107717288Y-108628656D01*
X107841344Y-108752712D01*
X107990666Y-108844814D01*
X108157203Y-108899999D01*
X108259991Y-108910500D01*
X109035008Y-108910499D01*
X109035016Y-108910498D01*
X109035019Y-108910498D01*
X109091302Y-108904748D01*
X109137797Y-108899999D01*
X109304334Y-108844814D01*
X109453656Y-108752712D01*
X109577712Y-108628656D01*
X109669814Y-108479334D01*
X109724999Y-108312797D01*
X109735500Y-108210009D01*
X109735499Y-107420000D01*
X125604473Y-107420000D01*
X125624563Y-107752136D01*
X125624563Y-107752141D01*
X125624564Y-107752142D01*
X125684544Y-108079441D01*
X125684545Y-108079445D01*
X125684546Y-108079449D01*
X125783530Y-108397104D01*
X125783534Y-108397116D01*
X125783537Y-108397123D01*
X125920102Y-108700557D01*
X126047017Y-108910500D01*
X126092251Y-108985326D01*
X126297460Y-109247255D01*
X126532744Y-109482539D01*
X126794673Y-109687748D01*
X126794678Y-109687751D01*
X126794682Y-109687754D01*
X127079443Y-109859898D01*
X127382877Y-109996463D01*
X127382890Y-109996467D01*
X127382895Y-109996469D01*
X127594665Y-110062458D01*
X127700559Y-110095456D01*
X128027858Y-110155436D01*
X128360000Y-110175527D01*
X128692142Y-110155436D01*
X129019441Y-110095456D01*
X129337123Y-109996463D01*
X129640557Y-109859898D01*
X129925318Y-109687754D01*
X129937918Y-109677883D01*
X130001740Y-109627881D01*
X130187252Y-109482542D01*
X130422542Y-109247252D01*
X130627754Y-108985318D01*
X130799898Y-108700557D01*
X130936463Y-108397123D01*
X131035456Y-108079441D01*
X131095436Y-107752142D01*
X131115527Y-107420000D01*
X131095436Y-107087858D01*
X131035456Y-106760559D01*
X130980820Y-106585224D01*
X130936469Y-106442895D01*
X130936467Y-106442890D01*
X130936463Y-106442877D01*
X130799898Y-106139443D01*
X130627754Y-105854682D01*
X130627751Y-105854678D01*
X130627748Y-105854673D01*
X130422539Y-105592744D01*
X130187255Y-105357460D01*
X129925326Y-105152251D01*
X129781301Y-105065185D01*
X129640557Y-104980102D01*
X129337123Y-104843537D01*
X129337116Y-104843534D01*
X129337104Y-104843530D01*
X129019449Y-104744546D01*
X129019445Y-104744545D01*
X129019441Y-104744544D01*
X128692142Y-104684564D01*
X128692141Y-104684563D01*
X128692136Y-104684563D01*
X128360000Y-104664473D01*
X128027863Y-104684563D01*
X128027858Y-104684564D01*
X127700559Y-104744544D01*
X127700556Y-104744544D01*
X127700550Y-104744546D01*
X127382895Y-104843530D01*
X127382879Y-104843536D01*
X127382877Y-104843537D01*
X127197255Y-104927079D01*
X127079447Y-104980100D01*
X127079445Y-104980101D01*
X126794673Y-105152251D01*
X126532744Y-105357460D01*
X126297460Y-105592744D01*
X126092251Y-105854673D01*
X126004407Y-105999986D01*
X125920102Y-106139443D01*
X125791147Y-106425970D01*
X125783536Y-106442880D01*
X125783530Y-106442895D01*
X125684546Y-106760550D01*
X125684544Y-106760556D01*
X125684544Y-106760559D01*
X125660701Y-106890666D01*
X125624563Y-107087863D01*
X125604473Y-107420000D01*
X109735499Y-107420000D01*
X109735499Y-107159992D01*
X109731620Y-107122023D01*
X109724999Y-107057203D01*
X109724998Y-107057200D01*
X109698380Y-106976873D01*
X109669814Y-106890666D01*
X109577712Y-106741344D01*
X109577709Y-106741341D01*
X109577708Y-106741339D01*
X109574730Y-106737572D01*
X109548593Y-106672776D01*
X109548000Y-106660666D01*
X109548000Y-106493009D01*
X109567685Y-106425970D01*
X109571463Y-106420679D01*
X109572708Y-106418659D01*
X109572712Y-106418656D01*
X109574752Y-106415347D01*
X109576743Y-106413557D01*
X109577202Y-106412977D01*
X109577301Y-106413055D01*
X109626694Y-106368623D01*
X109695656Y-106357395D01*
X109759740Y-106385234D01*
X109785829Y-106415339D01*
X109787681Y-106418341D01*
X109787683Y-106418344D01*
X109911654Y-106542315D01*
X110060875Y-106634356D01*
X110060880Y-106634358D01*
X110227302Y-106689505D01*
X110227309Y-106689506D01*
X110330019Y-106699999D01*
X110467499Y-106699999D01*
X110967500Y-106699999D01*
X111104972Y-106699999D01*
X111104986Y-106699998D01*
X111207697Y-106689505D01*
X111374119Y-106634358D01*
X111374124Y-106634356D01*
X111523345Y-106542315D01*
X111647315Y-106418345D01*
X111739356Y-106269124D01*
X111739358Y-106269119D01*
X111794505Y-106102697D01*
X111794506Y-106102690D01*
X111804999Y-105999986D01*
X111805000Y-105999973D01*
X111805000Y-105725000D01*
X110967500Y-105725000D01*
X110967500Y-106699999D01*
X110467499Y-106699999D01*
X110467500Y-106699998D01*
X110467500Y-105225000D01*
X110967500Y-105225000D01*
X111804999Y-105225000D01*
X111804999Y-104950028D01*
X111804998Y-104950013D01*
X111794505Y-104847302D01*
X111739358Y-104680880D01*
X111739356Y-104680875D01*
X111647315Y-104531654D01*
X111523345Y-104407684D01*
X111374124Y-104315643D01*
X111374119Y-104315641D01*
X111207697Y-104260494D01*
X111207690Y-104260493D01*
X111104986Y-104250000D01*
X110967500Y-104250000D01*
X110967500Y-105225000D01*
X110467500Y-105225000D01*
X110467500Y-104250000D01*
X110330027Y-104250000D01*
X110330012Y-104250001D01*
X110227302Y-104260494D01*
X110060880Y-104315641D01*
X110060875Y-104315643D01*
X109911654Y-104407684D01*
X109787683Y-104531655D01*
X109783202Y-104537323D01*
X109781227Y-104535762D01*
X109738088Y-104574563D01*
X109669125Y-104585783D01*
X109605044Y-104557938D01*
X109566189Y-104499869D01*
X109560500Y-104462740D01*
X109560500Y-104217230D01*
X109580185Y-104150191D01*
X109596819Y-104129549D01*
X109644549Y-104081819D01*
X109702712Y-104023656D01*
X109794814Y-103874334D01*
X109849999Y-103707797D01*
X109860500Y-103605009D01*
X109860499Y-102854992D01*
X109849999Y-102752203D01*
X109794814Y-102585666D01*
X109702712Y-102436344D01*
X109578656Y-102312288D01*
X109575819Y-102310538D01*
X109574283Y-102308830D01*
X109572989Y-102307807D01*
X109573163Y-102307585D01*
X109529096Y-102258594D01*
X109517872Y-102189632D01*
X109545713Y-102125549D01*
X109575841Y-102099448D01*
X109576652Y-102098948D01*
X109641727Y-102080500D01*
X109902770Y-102080500D01*
X109969809Y-102100185D01*
X109990451Y-102116819D01*
X110106344Y-102232712D01*
X110255666Y-102324814D01*
X110422203Y-102379999D01*
X110524991Y-102390500D01*
X111300008Y-102390499D01*
X111300016Y-102390498D01*
X111300019Y-102390498D01*
X111356302Y-102384748D01*
X111402797Y-102379999D01*
X111569334Y-102324814D01*
X111718656Y-102232712D01*
X111842712Y-102108656D01*
X111844752Y-102105347D01*
X111846745Y-102103555D01*
X111847193Y-102102989D01*
X111847289Y-102103065D01*
X111896694Y-102058623D01*
X111965656Y-102047395D01*
X112029740Y-102075234D01*
X112055829Y-102105339D01*
X112057681Y-102108341D01*
X112057683Y-102108344D01*
X112181654Y-102232315D01*
X112330875Y-102324356D01*
X112330880Y-102324358D01*
X112497302Y-102379505D01*
X112497309Y-102379506D01*
X112600019Y-102389999D01*
X112737499Y-102389999D01*
X113237500Y-102389999D01*
X113374972Y-102389999D01*
X113374986Y-102389998D01*
X113477697Y-102379505D01*
X113644119Y-102324358D01*
X113644124Y-102324356D01*
X113793345Y-102232315D01*
X113917315Y-102108345D01*
X114009356Y-101959124D01*
X114009358Y-101959119D01*
X114064505Y-101792697D01*
X114064506Y-101792690D01*
X114074999Y-101689986D01*
X114075000Y-101689973D01*
X114075000Y-101415000D01*
X113237500Y-101415000D01*
X113237500Y-102389999D01*
X112737499Y-102389999D01*
X112737500Y-102389998D01*
X112737500Y-100915000D01*
X113237500Y-100915000D01*
X114074999Y-100915000D01*
X114074999Y-100640028D01*
X114074998Y-100640013D01*
X114064505Y-100537302D01*
X114009358Y-100370880D01*
X114009356Y-100370875D01*
X113917315Y-100221654D01*
X113793345Y-100097684D01*
X113644124Y-100005643D01*
X113644119Y-100005641D01*
X113477697Y-99950494D01*
X113477690Y-99950493D01*
X113374986Y-99940000D01*
X113237500Y-99940000D01*
X113237500Y-100915000D01*
X112737500Y-100915000D01*
X112737500Y-99940000D01*
X112600027Y-99940000D01*
X112600012Y-99940001D01*
X112497302Y-99950494D01*
X112330880Y-100005641D01*
X112330875Y-100005643D01*
X112181654Y-100097684D01*
X112052576Y-100226763D01*
X112050380Y-100224567D01*
X112004683Y-100256890D01*
X111934882Y-100259992D01*
X111874485Y-100224864D01*
X111842667Y-100162660D01*
X111840500Y-100139581D01*
X111840500Y-99897230D01*
X111860185Y-99830191D01*
X111876819Y-99809549D01*
X111886369Y-99799999D01*
X111982712Y-99703656D01*
X112074814Y-99554334D01*
X112129999Y-99387797D01*
X112140500Y-99285009D01*
X112140499Y-98534992D01*
X112129999Y-98432203D01*
X112074814Y-98265666D01*
X111982712Y-98116344D01*
X111858656Y-97992288D01*
X111855819Y-97990538D01*
X111854283Y-97988830D01*
X111852989Y-97987807D01*
X111853163Y-97987585D01*
X111809096Y-97938594D01*
X111797872Y-97869632D01*
X111825713Y-97805549D01*
X111855841Y-97779448D01*
X111856652Y-97778948D01*
X111921727Y-97760500D01*
X112164178Y-97760500D01*
X112231217Y-97780185D01*
X112257089Y-97803640D01*
X112257181Y-97803549D01*
X112259043Y-97805411D01*
X112261441Y-97807585D01*
X112262287Y-97808655D01*
X112262288Y-97808656D01*
X112386344Y-97932712D01*
X112535666Y-98024814D01*
X112702203Y-98079999D01*
X112804991Y-98090500D01*
X113580008Y-98090499D01*
X113580016Y-98090498D01*
X113580019Y-98090498D01*
X113636302Y-98084748D01*
X113682797Y-98079999D01*
X113849334Y-98024814D01*
X113998656Y-97932712D01*
X114122712Y-97808656D01*
X114124752Y-97805347D01*
X114126745Y-97803555D01*
X114127193Y-97802989D01*
X114127289Y-97803065D01*
X114176694Y-97758623D01*
X114245656Y-97747395D01*
X114309740Y-97775234D01*
X114335829Y-97805339D01*
X114337681Y-97808341D01*
X114337683Y-97808344D01*
X114461654Y-97932315D01*
X114610875Y-98024356D01*
X114610880Y-98024358D01*
X114777302Y-98079505D01*
X114777309Y-98079506D01*
X114880019Y-98089999D01*
X115017499Y-98089999D01*
X115517500Y-98089999D01*
X115654972Y-98089999D01*
X115654986Y-98089998D01*
X115757697Y-98079505D01*
X115924119Y-98024358D01*
X115924124Y-98024356D01*
X116073345Y-97932315D01*
X116197315Y-97808345D01*
X116289356Y-97659124D01*
X116289358Y-97659119D01*
X116344505Y-97492697D01*
X116344506Y-97492690D01*
X116354999Y-97389986D01*
X116355000Y-97389973D01*
X116355000Y-97115000D01*
X115517500Y-97115000D01*
X115517500Y-98089999D01*
X115017499Y-98089999D01*
X115017500Y-98089998D01*
X115017500Y-95640000D01*
X114880027Y-95640000D01*
X114880012Y-95640001D01*
X114777302Y-95650494D01*
X114610880Y-95705641D01*
X114610875Y-95705643D01*
X114461654Y-95797684D01*
X114337683Y-95921655D01*
X114337679Y-95921660D01*
X114335826Y-95924665D01*
X114334018Y-95926290D01*
X114333202Y-95927323D01*
X114333025Y-95927183D01*
X114283874Y-95971385D01*
X114214911Y-95982601D01*
X114150831Y-95954752D01*
X114124753Y-95924653D01*
X114124737Y-95924628D01*
X114122712Y-95921344D01*
X114122708Y-95921340D01*
X114118234Y-95915681D01*
X114120504Y-95913886D01*
X114093334Y-95864128D01*
X114090500Y-95837770D01*
X114090500Y-95822230D01*
X114110185Y-95755191D01*
X114126819Y-95734549D01*
X114166695Y-95694673D01*
X114232712Y-95628656D01*
X114324814Y-95479334D01*
X114379999Y-95312797D01*
X114390500Y-95210009D01*
X114390499Y-94459992D01*
X114389713Y-94452302D01*
X114379999Y-94357203D01*
X114379998Y-94357200D01*
X114376400Y-94346341D01*
X114324814Y-94190666D01*
X114232712Y-94041344D01*
X114108656Y-93917288D01*
X114105819Y-93915538D01*
X114104283Y-93913830D01*
X114102989Y-93912807D01*
X114103163Y-93912585D01*
X114059096Y-93863594D01*
X114047872Y-93794632D01*
X114075713Y-93730549D01*
X114105841Y-93704448D01*
X114106652Y-93703948D01*
X114171727Y-93685500D01*
X114391024Y-93685500D01*
X114458063Y-93705185D01*
X114503818Y-93757989D01*
X114512641Y-93785308D01*
X114514103Y-93792660D01*
X114514105Y-93792666D01*
X114581988Y-93956548D01*
X114680534Y-94104034D01*
X114680540Y-94104041D01*
X116108276Y-95531775D01*
X116141761Y-95593098D01*
X116136777Y-95662789D01*
X116094905Y-95718723D01*
X116029441Y-95743140D01*
X115961168Y-95728288D01*
X115955499Y-95724995D01*
X115924128Y-95705645D01*
X115924119Y-95705641D01*
X115757697Y-95650494D01*
X115757690Y-95650493D01*
X115654986Y-95640000D01*
X115517500Y-95640000D01*
X115517500Y-96615000D01*
X116354999Y-96615000D01*
X116354999Y-96340028D01*
X116354998Y-96340013D01*
X116344505Y-96237302D01*
X116289358Y-96070880D01*
X116289356Y-96070875D01*
X116270004Y-96039501D01*
X116251564Y-95972108D01*
X116272487Y-95905445D01*
X116326129Y-95860675D01*
X116395459Y-95852014D01*
X116458467Y-95882210D01*
X116463205Y-95886704D01*
X116511686Y-95935185D01*
X116555966Y-95979465D01*
X116627739Y-96027422D01*
X116703453Y-96078013D01*
X116751452Y-96097895D01*
X116867334Y-96145895D01*
X117041303Y-96180499D01*
X117041307Y-96180500D01*
X117041308Y-96180500D01*
X117041309Y-96180500D01*
X118335638Y-96180500D01*
X118402677Y-96200185D01*
X118423319Y-96216819D01*
X121704843Y-99498342D01*
X121738328Y-99559665D01*
X121740780Y-99595751D01*
X121724706Y-99799999D01*
X121743853Y-100043297D01*
X121743853Y-100043300D01*
X121743854Y-100043302D01*
X121795877Y-100259992D01*
X121800830Y-100280619D01*
X121894222Y-100506089D01*
X122021737Y-100714173D01*
X122021738Y-100714176D01*
X122021741Y-100714179D01*
X122180241Y-100899759D01*
X122323262Y-101021910D01*
X122323263Y-101021911D01*
X122337924Y-101044370D01*
X123162838Y-101869284D01*
X123092797Y-101888052D01*
X122982203Y-101951903D01*
X122891903Y-102042203D01*
X122828052Y-102152797D01*
X122809284Y-102222837D01*
X122018504Y-101432057D01*
X121894668Y-101634138D01*
X121801303Y-101859542D01*
X121744348Y-102096780D01*
X121725207Y-102340000D01*
X121744348Y-102583219D01*
X121801303Y-102820457D01*
X121894668Y-103045861D01*
X122018504Y-103247941D01*
X122809284Y-102457161D01*
X122828052Y-102527203D01*
X122891903Y-102637797D01*
X122982203Y-102728097D01*
X123092797Y-102791948D01*
X123162837Y-102810715D01*
X122372057Y-103601494D01*
X122574138Y-103725331D01*
X122799542Y-103818696D01*
X123036780Y-103875651D01*
X123036779Y-103875651D01*
X123280000Y-103894792D01*
X123523219Y-103875651D01*
X123760457Y-103818696D01*
X123985861Y-103725331D01*
X124187941Y-103601495D01*
X124187941Y-103601494D01*
X123397162Y-102810715D01*
X123467203Y-102791948D01*
X123577797Y-102728097D01*
X123668097Y-102637797D01*
X123731948Y-102527203D01*
X123750715Y-102457162D01*
X124541494Y-103247941D01*
X124541495Y-103247941D01*
X124665331Y-103045861D01*
X124758696Y-102820457D01*
X124815651Y-102583219D01*
X124834792Y-102340000D01*
X124815651Y-102096780D01*
X124758696Y-101859542D01*
X124665331Y-101634138D01*
X124541494Y-101432057D01*
X123750715Y-102222836D01*
X123731948Y-102152797D01*
X123668097Y-102042203D01*
X123577797Y-101951903D01*
X123467203Y-101888052D01*
X123397162Y-101869284D01*
X124210038Y-101056406D01*
X124236731Y-101021915D01*
X124379759Y-100899759D01*
X124538259Y-100714179D01*
X124665777Y-100506089D01*
X124759172Y-100280612D01*
X124816146Y-100043302D01*
X124835294Y-99800000D01*
X124816146Y-99556698D01*
X124759172Y-99319388D01*
X124744932Y-99285009D01*
X124665777Y-99093910D01*
X124538262Y-98885826D01*
X124538261Y-98885823D01*
X124446185Y-98778016D01*
X124379759Y-98700241D01*
X124214222Y-98558859D01*
X124194176Y-98541738D01*
X124194173Y-98541737D01*
X123986089Y-98414222D01*
X123760618Y-98320830D01*
X123760621Y-98320830D01*
X123538938Y-98267608D01*
X123523302Y-98263854D01*
X123523300Y-98263853D01*
X123523297Y-98263853D01*
X123301715Y-98246415D01*
X123280000Y-98244706D01*
X123279999Y-98244706D01*
X123075751Y-98260780D01*
X123007374Y-98246415D01*
X122978342Y-98224843D01*
X122013499Y-97260000D01*
X125604473Y-97260000D01*
X125624563Y-97592136D01*
X125624563Y-97592141D01*
X125624564Y-97592142D01*
X125684544Y-97919441D01*
X125684545Y-97919445D01*
X125684546Y-97919449D01*
X125783530Y-98237104D01*
X125783534Y-98237116D01*
X125783537Y-98237123D01*
X125920102Y-98540557D01*
X126061017Y-98773659D01*
X126092251Y-98825326D01*
X126297460Y-99087255D01*
X126532744Y-99322539D01*
X126794673Y-99527748D01*
X126794678Y-99527751D01*
X126794682Y-99527754D01*
X127079443Y-99699898D01*
X127382877Y-99836463D01*
X127382890Y-99836467D01*
X127382895Y-99836469D01*
X127594665Y-99902458D01*
X127700559Y-99935456D01*
X128027858Y-99995436D01*
X128360000Y-100015527D01*
X128692142Y-99995436D01*
X129019441Y-99935456D01*
X129337123Y-99836463D01*
X129640557Y-99699898D01*
X129925318Y-99527754D01*
X130187252Y-99322542D01*
X130422542Y-99087252D01*
X130627754Y-98825318D01*
X130799898Y-98540557D01*
X130936463Y-98237123D01*
X131035456Y-97919441D01*
X131095436Y-97592142D01*
X131115527Y-97260000D01*
X131095436Y-96927858D01*
X131035456Y-96600559D01*
X130980820Y-96425224D01*
X130936469Y-96282895D01*
X130936467Y-96282890D01*
X130936463Y-96282877D01*
X130799898Y-95979443D01*
X130627754Y-95694682D01*
X130627751Y-95694678D01*
X130627748Y-95694673D01*
X130422539Y-95432744D01*
X130187255Y-95197460D01*
X129925326Y-94992251D01*
X129925318Y-94992246D01*
X129640557Y-94820102D01*
X129337123Y-94683537D01*
X129337116Y-94683534D01*
X129337104Y-94683530D01*
X129019449Y-94584546D01*
X129019445Y-94584545D01*
X129019441Y-94584544D01*
X128692142Y-94524564D01*
X128692141Y-94524563D01*
X128692136Y-94524563D01*
X128360000Y-94504473D01*
X128027863Y-94524563D01*
X128027858Y-94524564D01*
X127700559Y-94584544D01*
X127700556Y-94584544D01*
X127700550Y-94584546D01*
X127382895Y-94683530D01*
X127382879Y-94683536D01*
X127382877Y-94683537D01*
X127190954Y-94769915D01*
X127079447Y-94820100D01*
X127079445Y-94820101D01*
X126794673Y-94992251D01*
X126532744Y-95197460D01*
X126297460Y-95432744D01*
X126092251Y-95694673D01*
X125995914Y-95854035D01*
X125953217Y-95924665D01*
X125920101Y-95979445D01*
X125920100Y-95979447D01*
X125902363Y-96018858D01*
X125799980Y-96246344D01*
X125783536Y-96282880D01*
X125783530Y-96282895D01*
X125684546Y-96600550D01*
X125684544Y-96600556D01*
X125684544Y-96600559D01*
X125672730Y-96665028D01*
X125624563Y-96927863D01*
X125604473Y-97260000D01*
X122013499Y-97260000D01*
X119334035Y-94580535D01*
X119334030Y-94580531D01*
X119274961Y-94541064D01*
X119274960Y-94541063D01*
X119186544Y-94481985D01*
X119186542Y-94481984D01*
X119104607Y-94448046D01*
X119104606Y-94448046D01*
X119022666Y-94414105D01*
X119022658Y-94414103D01*
X118848696Y-94379500D01*
X118848692Y-94379500D01*
X118848691Y-94379500D01*
X117554361Y-94379500D01*
X117487322Y-94359815D01*
X117466680Y-94343181D01*
X117275680Y-94152180D01*
X117242195Y-94090857D01*
X117247179Y-94021165D01*
X117247500Y-94020665D01*
X117247500Y-94004999D01*
X117747500Y-94004999D01*
X117884972Y-94004999D01*
X117884986Y-94004998D01*
X117987697Y-93994505D01*
X118154119Y-93939358D01*
X118154124Y-93939356D01*
X118303345Y-93847315D01*
X118427315Y-93723345D01*
X118519356Y-93574124D01*
X118519358Y-93574119D01*
X118574505Y-93407697D01*
X118574506Y-93407690D01*
X118584999Y-93304986D01*
X118585000Y-93304973D01*
X118585000Y-93030000D01*
X117747500Y-93030000D01*
X117747500Y-94004999D01*
X117247500Y-94004999D01*
X117247500Y-92530000D01*
X117747500Y-92530000D01*
X118584999Y-92530000D01*
X118584999Y-92255028D01*
X118584998Y-92255013D01*
X118574505Y-92152302D01*
X118519358Y-91985880D01*
X118519356Y-91985875D01*
X118427315Y-91836654D01*
X118303345Y-91712684D01*
X118154124Y-91620643D01*
X118154119Y-91620641D01*
X117987697Y-91565494D01*
X117987690Y-91565493D01*
X117884986Y-91555000D01*
X117747500Y-91555000D01*
X117747500Y-92530000D01*
X117247500Y-92530000D01*
X117247500Y-91555000D01*
X117110027Y-91555000D01*
X117110012Y-91555001D01*
X117007302Y-91565494D01*
X116840880Y-91620641D01*
X116840875Y-91620643D01*
X116691654Y-91712684D01*
X116567683Y-91836655D01*
X116567679Y-91836660D01*
X116565826Y-91839665D01*
X116564018Y-91841290D01*
X116563202Y-91842323D01*
X116563025Y-91842183D01*
X116513874Y-91886385D01*
X116444911Y-91897601D01*
X116380831Y-91869752D01*
X116354753Y-91839653D01*
X116354737Y-91839628D01*
X116352712Y-91836344D01*
X116228656Y-91712288D01*
X116079334Y-91620186D01*
X115912797Y-91565001D01*
X115912795Y-91565000D01*
X115810010Y-91554500D01*
X115034998Y-91554500D01*
X115034980Y-91554501D01*
X114932203Y-91565000D01*
X114932200Y-91565001D01*
X114765668Y-91620185D01*
X114765663Y-91620187D01*
X114616342Y-91712289D01*
X114492287Y-91836344D01*
X114491441Y-91837415D01*
X114490673Y-91837958D01*
X114487181Y-91841451D01*
X114486583Y-91840853D01*
X114434418Y-91877789D01*
X114394178Y-91884500D01*
X114171727Y-91884500D01*
X114106631Y-91866039D01*
X113959334Y-91775186D01*
X113792797Y-91720001D01*
X113792795Y-91720000D01*
X113690010Y-91709500D01*
X112689998Y-91709500D01*
X112689980Y-91709501D01*
X112587203Y-91720000D01*
X112587200Y-91720001D01*
X112420668Y-91775185D01*
X112420663Y-91775187D01*
X112271342Y-91867289D01*
X112147289Y-91991342D01*
X112055187Y-92140663D01*
X112055186Y-92140666D01*
X112000001Y-92307203D01*
X112000001Y-92307204D01*
X112000000Y-92307204D01*
X111989500Y-92409983D01*
X111989500Y-93160001D01*
X111989501Y-93160019D01*
X112000000Y-93262796D01*
X112000001Y-93262799D01*
X112055185Y-93429331D01*
X112055187Y-93429336D01*
X112147289Y-93578657D01*
X112271346Y-93702714D01*
X112274182Y-93704463D01*
X112275717Y-93706170D01*
X112277011Y-93707193D01*
X112276836Y-93707414D01*
X112320905Y-93756411D01*
X112332126Y-93825374D01*
X112304282Y-93889456D01*
X112274182Y-93915537D01*
X112271346Y-93917285D01*
X112147289Y-94041342D01*
X112055187Y-94190663D01*
X112055185Y-94190668D01*
X112049592Y-94207547D01*
X112000001Y-94357203D01*
X112000001Y-94357204D01*
X112000000Y-94357204D01*
X111989500Y-94459983D01*
X111989500Y-95210001D01*
X111989501Y-95210019D01*
X112000000Y-95312796D01*
X112000001Y-95312799D01*
X112039749Y-95432748D01*
X112055186Y-95479334D01*
X112132688Y-95604986D01*
X112147289Y-95628657D01*
X112253181Y-95734549D01*
X112286666Y-95795872D01*
X112289500Y-95822230D01*
X112289500Y-95835500D01*
X112269815Y-95902539D01*
X112217011Y-95948294D01*
X112165500Y-95959500D01*
X111921727Y-95959500D01*
X111856631Y-95941039D01*
X111731938Y-95864128D01*
X111709336Y-95850187D01*
X111709331Y-95850185D01*
X111671865Y-95837770D01*
X111542797Y-95795001D01*
X111542795Y-95795000D01*
X111440010Y-95784500D01*
X110439998Y-95784500D01*
X110439980Y-95784501D01*
X110337203Y-95795000D01*
X110337200Y-95795001D01*
X110170668Y-95850185D01*
X110170663Y-95850187D01*
X110021342Y-95942289D01*
X109897289Y-96066342D01*
X109805187Y-96215663D01*
X109805185Y-96215668D01*
X109782914Y-96282877D01*
X109750001Y-96382203D01*
X109750001Y-96382204D01*
X109750000Y-96382204D01*
X109739500Y-96484983D01*
X109739500Y-97235001D01*
X109739501Y-97235019D01*
X109750000Y-97337796D01*
X109750001Y-97337799D01*
X109767302Y-97390009D01*
X109805186Y-97504334D01*
X109859342Y-97592136D01*
X109897289Y-97653657D01*
X110021346Y-97777714D01*
X110024182Y-97779463D01*
X110025717Y-97781170D01*
X110027011Y-97782193D01*
X110026836Y-97782414D01*
X110070905Y-97831411D01*
X110082126Y-97900374D01*
X110054282Y-97964456D01*
X110024182Y-97990537D01*
X110021346Y-97992285D01*
X109897289Y-98116342D01*
X109805187Y-98265663D01*
X109805186Y-98265666D01*
X109750001Y-98432203D01*
X109750001Y-98432204D01*
X109750000Y-98432204D01*
X109739500Y-98534983D01*
X109739500Y-99285001D01*
X109739501Y-99285019D01*
X109750000Y-99387796D01*
X109750001Y-99387799D01*
X109805185Y-99554331D01*
X109805187Y-99554336D01*
X109897289Y-99703657D01*
X110003181Y-99809549D01*
X110036666Y-99870872D01*
X110039500Y-99897230D01*
X110039500Y-100112770D01*
X110019815Y-100179809D01*
X110003181Y-100200451D01*
X109982288Y-100221343D01*
X109977807Y-100227011D01*
X109976642Y-100226089D01*
X109930797Y-100267323D01*
X109877210Y-100279500D01*
X109641727Y-100279500D01*
X109576631Y-100261039D01*
X109447299Y-100181267D01*
X109429336Y-100170187D01*
X109429331Y-100170185D01*
X109406622Y-100162660D01*
X109262797Y-100115001D01*
X109262795Y-100115000D01*
X109160010Y-100104500D01*
X108159998Y-100104500D01*
X108159980Y-100104501D01*
X108057203Y-100115000D01*
X108057200Y-100115001D01*
X107890668Y-100170185D01*
X107890663Y-100170187D01*
X107741342Y-100262289D01*
X107617289Y-100386342D01*
X107525187Y-100535663D01*
X107525185Y-100535668D01*
X107524644Y-100537302D01*
X107470001Y-100702203D01*
X107470001Y-100702204D01*
X107470000Y-100702204D01*
X107459500Y-100804983D01*
X107459500Y-101555001D01*
X107459501Y-101555019D01*
X107470000Y-101657796D01*
X107470001Y-101657799D01*
X107514736Y-101792797D01*
X107525186Y-101824334D01*
X107612779Y-101966346D01*
X107617289Y-101973657D01*
X107741346Y-102097714D01*
X107744182Y-102099463D01*
X107745717Y-102101170D01*
X107747011Y-102102193D01*
X107746836Y-102102414D01*
X107790905Y-102151411D01*
X107802126Y-102220374D01*
X107774282Y-102284456D01*
X107744182Y-102310537D01*
X107741346Y-102312285D01*
X107617289Y-102436342D01*
X107525187Y-102585663D01*
X107525185Y-102585668D01*
X107497349Y-102669670D01*
X107470001Y-102752203D01*
X107470001Y-102752204D01*
X107470000Y-102752204D01*
X107459500Y-102854983D01*
X107459500Y-103605001D01*
X107459501Y-103605019D01*
X107470000Y-103707796D01*
X107470001Y-103707799D01*
X107525185Y-103874331D01*
X107525187Y-103874336D01*
X107560069Y-103930888D01*
X107606913Y-104006836D01*
X107617289Y-104023657D01*
X107723181Y-104129549D01*
X107756666Y-104190872D01*
X107759500Y-104217230D01*
X107759500Y-104432770D01*
X107739815Y-104499809D01*
X107723181Y-104520451D01*
X107712289Y-104531342D01*
X107620187Y-104680663D01*
X107620185Y-104680668D01*
X107618894Y-104684564D01*
X107565001Y-104847203D01*
X107565001Y-104847204D01*
X107565000Y-104847204D01*
X107554500Y-104949983D01*
X107554500Y-106000001D01*
X107554501Y-106000019D01*
X107565000Y-106102796D01*
X107565001Y-106102799D01*
X107620185Y-106269331D01*
X107620187Y-106269336D01*
X107634344Y-106292288D01*
X107712288Y-106418656D01*
X107712290Y-106418658D01*
X107716766Y-106424319D01*
X107715288Y-106425487D01*
X107744166Y-106478372D01*
X107747000Y-106504730D01*
X107747000Y-106660666D01*
X107727315Y-106727705D01*
X107720270Y-106737572D01*
X107717287Y-106741344D01*
X107715537Y-106744182D01*
X107713829Y-106745717D01*
X107712811Y-106747006D01*
X107712590Y-106746831D01*
X107663589Y-106790905D01*
X107594626Y-106802126D01*
X107530544Y-106774282D01*
X107504463Y-106744182D01*
X107502714Y-106741346D01*
X107378657Y-106617289D01*
X107378656Y-106617288D01*
X107229334Y-106525186D01*
X107062797Y-106470001D01*
X107062795Y-106470000D01*
X106960010Y-106459500D01*
X106184998Y-106459500D01*
X106184980Y-106459501D01*
X106082203Y-106470000D01*
X106082200Y-106470001D01*
X105915668Y-106525185D01*
X105915663Y-106525187D01*
X105852592Y-106564090D01*
X105814154Y-106587798D01*
X105746763Y-106606238D01*
X105680100Y-106585315D01*
X105643520Y-106547356D01*
X105631440Y-106527771D01*
X105562712Y-106416344D01*
X105438656Y-106292288D01*
X105435819Y-106290538D01*
X105434283Y-106288830D01*
X105432989Y-106287807D01*
X105433163Y-106287585D01*
X105389096Y-106238594D01*
X105377872Y-106169632D01*
X105405713Y-106105549D01*
X105435817Y-106079462D01*
X105438656Y-106077712D01*
X105562712Y-105953656D01*
X105654814Y-105804334D01*
X105709999Y-105637797D01*
X105720500Y-105535009D01*
X105720499Y-104784992D01*
X105716367Y-104744546D01*
X105709999Y-104682203D01*
X105709998Y-104682200D01*
X105704124Y-104664473D01*
X105654814Y-104515666D01*
X105562712Y-104366344D01*
X105550299Y-104353931D01*
X105516814Y-104292608D01*
X105521798Y-104222916D01*
X105550299Y-104178569D01*
X105558868Y-104170000D01*
X105572712Y-104156156D01*
X105664814Y-104006834D01*
X105719999Y-103840297D01*
X105730500Y-103737509D01*
X105730499Y-102987492D01*
X105719999Y-102884703D01*
X105664814Y-102718166D01*
X105572712Y-102568844D01*
X105448656Y-102444788D01*
X105445819Y-102443038D01*
X105444283Y-102441330D01*
X105442989Y-102440307D01*
X105443163Y-102440085D01*
X105399096Y-102391094D01*
X105387872Y-102322132D01*
X105415713Y-102258049D01*
X105445817Y-102231962D01*
X105448656Y-102230212D01*
X105572712Y-102106156D01*
X105664814Y-101956834D01*
X105719999Y-101790297D01*
X105730500Y-101687509D01*
X105730499Y-100937492D01*
X105728201Y-100915000D01*
X105719999Y-100834703D01*
X105719998Y-100834700D01*
X105676093Y-100702204D01*
X105664814Y-100668166D01*
X105572712Y-100518844D01*
X105448656Y-100394788D01*
X105299334Y-100302686D01*
X105132797Y-100247501D01*
X105132795Y-100247500D01*
X105030016Y-100237000D01*
X105030009Y-100237000D01*
X104390452Y-100237000D01*
X104323413Y-100217315D01*
X104302771Y-100200681D01*
X104290428Y-100188338D01*
X104290425Y-100188334D01*
X104290425Y-100188335D01*
X104283359Y-100181269D01*
X104283358Y-100181267D01*
X104196233Y-100094142D01*
X104196229Y-100094139D01*
X104196228Y-100094138D01*
X104120148Y-100043303D01*
X104120146Y-100043301D01*
X104120146Y-100043302D01*
X104093786Y-100025688D01*
X103996762Y-99985500D01*
X103996759Y-99985498D01*
X103996758Y-99985498D01*
X103979955Y-99978538D01*
X103979953Y-99978537D01*
X103979952Y-99978537D01*
X103919529Y-99966518D01*
X103859110Y-99954500D01*
X103859107Y-99954500D01*
X103859106Y-99954500D01*
X103628060Y-99954500D01*
X103561021Y-99934815D01*
X103515266Y-99882011D01*
X103504702Y-99817897D01*
X103504999Y-99814986D01*
X103505000Y-99814973D01*
X103505000Y-99540000D01*
X102291500Y-99540000D01*
X102224461Y-99520315D01*
X102178706Y-99467511D01*
X102167500Y-99416000D01*
X102167500Y-98412651D01*
X102667500Y-98412651D01*
X102667500Y-99040000D01*
X103504999Y-99040000D01*
X103504999Y-98765028D01*
X103504998Y-98765013D01*
X103494505Y-98662302D01*
X103439358Y-98495880D01*
X103439356Y-98495875D01*
X103347315Y-98346654D01*
X103329592Y-98328931D01*
X103296107Y-98267608D01*
X103301091Y-98197916D01*
X103329592Y-98153569D01*
X103349815Y-98133345D01*
X103441856Y-97984124D01*
X103441858Y-97984119D01*
X103497005Y-97817697D01*
X103497006Y-97817690D01*
X103507499Y-97714986D01*
X103507500Y-97714973D01*
X103507500Y-97440000D01*
X102670000Y-97440000D01*
X102670000Y-98404138D01*
X102667500Y-98412651D01*
X102167500Y-98412651D01*
X102167500Y-98075862D01*
X102170000Y-98067348D01*
X102170000Y-96940000D01*
X102670000Y-96940000D01*
X103507499Y-96940000D01*
X103507499Y-96665028D01*
X103507498Y-96665013D01*
X103497005Y-96562302D01*
X103441858Y-96395880D01*
X103441856Y-96395875D01*
X103349815Y-96246654D01*
X103325842Y-96222681D01*
X103292357Y-96161358D01*
X103297341Y-96091666D01*
X103325842Y-96047319D01*
X103349815Y-96023345D01*
X103441856Y-95874124D01*
X103441858Y-95874119D01*
X103497005Y-95707697D01*
X103497006Y-95707690D01*
X103507499Y-95604986D01*
X103507500Y-95604973D01*
X103507500Y-95330000D01*
X102670000Y-95330000D01*
X102670000Y-96940000D01*
X102170000Y-96940000D01*
X102170000Y-94830000D01*
X102670000Y-94830000D01*
X103507499Y-94830000D01*
X103507499Y-94555028D01*
X103507498Y-94555013D01*
X103497005Y-94452302D01*
X103441858Y-94285880D01*
X103441856Y-94285875D01*
X103349815Y-94136654D01*
X103225845Y-94012684D01*
X103076624Y-93920643D01*
X103076619Y-93920641D01*
X102910197Y-93865494D01*
X102910190Y-93865493D01*
X102807486Y-93855000D01*
X102670000Y-93855000D01*
X102670000Y-94830000D01*
X102170000Y-94830000D01*
X102170000Y-93855000D01*
X102032527Y-93855000D01*
X102032512Y-93855001D01*
X101929802Y-93865494D01*
X101763380Y-93920641D01*
X101763375Y-93920643D01*
X101614154Y-94012684D01*
X101490183Y-94136655D01*
X101490179Y-94136660D01*
X101488326Y-94139665D01*
X101486518Y-94141290D01*
X101485702Y-94142323D01*
X101485525Y-94142183D01*
X101436374Y-94186385D01*
X101367411Y-94197601D01*
X101303331Y-94169752D01*
X101277253Y-94139653D01*
X101277237Y-94139628D01*
X101275212Y-94136344D01*
X101151156Y-94012288D01*
X101001834Y-93920186D01*
X100835297Y-93865001D01*
X100835295Y-93865000D01*
X100732516Y-93854500D01*
X100732509Y-93854500D01*
X100444362Y-93854500D01*
X100377323Y-93834815D01*
X100356681Y-93818181D01*
X98349035Y-91810535D01*
X98349030Y-91810531D01*
X98289961Y-91771064D01*
X98289960Y-91771063D01*
X98201544Y-91711985D01*
X98201542Y-91711984D01*
X98119607Y-91678046D01*
X98119606Y-91678046D01*
X98037666Y-91644105D01*
X98037658Y-91644103D01*
X97863696Y-91609500D01*
X97863692Y-91609500D01*
X97863691Y-91609500D01*
X94055169Y-91609500D01*
X93988130Y-91589815D01*
X93942375Y-91537011D01*
X93938987Y-91528833D01*
X93893797Y-91407671D01*
X93893793Y-91407664D01*
X93807547Y-91292455D01*
X93807544Y-91292452D01*
X93692335Y-91206206D01*
X93692328Y-91206202D01*
X93557482Y-91155908D01*
X93557483Y-91155908D01*
X93497883Y-91149501D01*
X93497881Y-91149500D01*
X93497873Y-91149500D01*
X93497864Y-91149500D01*
X91202129Y-91149500D01*
X91202123Y-91149501D01*
X91142516Y-91155908D01*
X91007671Y-91206202D01*
X91007664Y-91206206D01*
X90892455Y-91292452D01*
X90892452Y-91292455D01*
X90806206Y-91407664D01*
X90806202Y-91407671D01*
X90755908Y-91542517D01*
X90749501Y-91602116D01*
X90749500Y-91602135D01*
X90749500Y-93897870D01*
X90749501Y-93897876D01*
X90755908Y-93957483D01*
X90806202Y-94092328D01*
X90806206Y-94092335D01*
X90892452Y-94207544D01*
X90892455Y-94207547D01*
X90969104Y-94264927D01*
X91010975Y-94320861D01*
X91015959Y-94390552D01*
X91000520Y-94428983D01*
X90919533Y-94561140D01*
X90823126Y-94793889D01*
X90764317Y-95038848D01*
X90744551Y-95290000D01*
X90764317Y-95541151D01*
X90823126Y-95786110D01*
X90919533Y-96018859D01*
X91051160Y-96233653D01*
X91051161Y-96233656D01*
X91106604Y-96298571D01*
X91214776Y-96425224D01*
X91262178Y-96465709D01*
X91262179Y-96465710D01*
X91300372Y-96524217D01*
X91300870Y-96594085D01*
X91263516Y-96653131D01*
X91262186Y-96654283D01*
X91249624Y-96665013D01*
X91214776Y-96694776D01*
X91051161Y-96886343D01*
X91051160Y-96886346D01*
X90919533Y-97101140D01*
X90823126Y-97333889D01*
X90764317Y-97578848D01*
X90744551Y-97830000D01*
X90764317Y-98081151D01*
X90823126Y-98326110D01*
X90919533Y-98558859D01*
X91051160Y-98773653D01*
X91051161Y-98773656D01*
X91095285Y-98825318D01*
X91214776Y-98965224D01*
X91262178Y-99005709D01*
X91262179Y-99005710D01*
X91300372Y-99064217D01*
X91300870Y-99134085D01*
X91263516Y-99193131D01*
X91262179Y-99194290D01*
X91214776Y-99234776D01*
X91051161Y-99426343D01*
X91051160Y-99426346D01*
X90919533Y-99641140D01*
X90823126Y-99873889D01*
X90764317Y-100118848D01*
X90744551Y-100370000D01*
X90764317Y-100621151D01*
X90823126Y-100866110D01*
X90919533Y-101098859D01*
X91051160Y-101313653D01*
X91051161Y-101313656D01*
X91106604Y-101378571D01*
X91214776Y-101505224D01*
X91262179Y-101545710D01*
X91300372Y-101604217D01*
X91300870Y-101674085D01*
X91263516Y-101733131D01*
X91262179Y-101734290D01*
X91214776Y-101774776D01*
X91051161Y-101966343D01*
X91051160Y-101966346D01*
X90919533Y-102181140D01*
X90823126Y-102413889D01*
X90764317Y-102658848D01*
X90744551Y-102910000D01*
X90764317Y-103161151D01*
X90823126Y-103406110D01*
X90919533Y-103638859D01*
X91051160Y-103853653D01*
X91051161Y-103853656D01*
X91068822Y-103874334D01*
X91214776Y-104045224D01*
X91257623Y-104081819D01*
X91262179Y-104085710D01*
X91300372Y-104144217D01*
X91300870Y-104214085D01*
X91263516Y-104273131D01*
X91262179Y-104274290D01*
X91214776Y-104314776D01*
X91051161Y-104506343D01*
X91051160Y-104506346D01*
X90919533Y-104721140D01*
X90823126Y-104953889D01*
X90764317Y-105198848D01*
X90744551Y-105450000D01*
X90764317Y-105701151D01*
X90823126Y-105946110D01*
X90919533Y-106178859D01*
X91051160Y-106393653D01*
X91051161Y-106393656D01*
X91102160Y-106453368D01*
X91214776Y-106585224D01*
X91336875Y-106689506D01*
X91406343Y-106748838D01*
X91406346Y-106748839D01*
X91621140Y-106880466D01*
X91756405Y-106936494D01*
X91853889Y-106976873D01*
X92098852Y-107035683D01*
X92165251Y-107040908D01*
X92230538Y-107065792D01*
X92272008Y-107122023D01*
X92276495Y-107191749D01*
X92243201Y-107252207D01*
X91861270Y-107634139D01*
X91861267Y-107634142D01*
X91817704Y-107677705D01*
X91774141Y-107721267D01*
X91774139Y-107721270D01*
X91763306Y-107737481D01*
X91763307Y-107737482D01*
X91705686Y-107823717D01*
X91705685Y-107823718D01*
X91685550Y-107872331D01*
X91672347Y-107904207D01*
X91666823Y-107917543D01*
X91658537Y-107937545D01*
X91658535Y-107937553D01*
X91634500Y-108058389D01*
X91634500Y-111513866D01*
X91614815Y-111580905D01*
X91562011Y-111626660D01*
X91557955Y-111628426D01*
X91531142Y-111639532D01*
X91531141Y-111639533D01*
X91316346Y-111771160D01*
X91316343Y-111771161D01*
X91124776Y-111934776D01*
X90961161Y-112126343D01*
X90961160Y-112126346D01*
X90829533Y-112341140D01*
X90733126Y-112573889D01*
X90674317Y-112818848D01*
X90654551Y-113070000D01*
X90110500Y-113070000D01*
X90110500Y-90564500D01*
X90130185Y-90497461D01*
X90182989Y-90451706D01*
X90234500Y-90440500D01*
X137375500Y-90440500D01*
X137442539Y-90460185D01*
G37*
%TD.AperFunction*%
%TD*%
M02*
