%TF.GenerationSoftware,KiCad,Pcbnew,8.0.3*%
%TF.CreationDate,2024-10-19T23:10:20+02:00*%
%TF.ProjectId,aprs_test_board,61707273-5f74-4657-9374-5f626f617264,rev?*%
%TF.SameCoordinates,Original*%
%TF.FileFunction,Legend,Top*%
%TF.FilePolarity,Positive*%
%FSLAX46Y46*%
G04 Gerber Fmt 4.6, Leading zero omitted, Abs format (unit mm)*
G04 Created by KiCad (PCBNEW 8.0.3) date 2024-10-19 23:10:20*
%MOMM*%
%LPD*%
G01*
G04 APERTURE LIST*
%ADD10C,0.200000*%
%ADD11C,0.120000*%
%ADD12C,0.100000*%
G04 APERTURE END LIST*
D10*
X124322054Y-111341560D02*
X124798244Y-111341560D01*
X124226816Y-111627275D02*
X124560149Y-110627275D01*
X124560149Y-110627275D02*
X124893482Y-111627275D01*
X125226816Y-111627275D02*
X125226816Y-110627275D01*
X125226816Y-110627275D02*
X125607768Y-110627275D01*
X125607768Y-110627275D02*
X125703006Y-110674894D01*
X125703006Y-110674894D02*
X125750625Y-110722513D01*
X125750625Y-110722513D02*
X125798244Y-110817751D01*
X125798244Y-110817751D02*
X125798244Y-110960608D01*
X125798244Y-110960608D02*
X125750625Y-111055846D01*
X125750625Y-111055846D02*
X125703006Y-111103465D01*
X125703006Y-111103465D02*
X125607768Y-111151084D01*
X125607768Y-111151084D02*
X125226816Y-111151084D01*
X126798244Y-111627275D02*
X126464911Y-111151084D01*
X126226816Y-111627275D02*
X126226816Y-110627275D01*
X126226816Y-110627275D02*
X126607768Y-110627275D01*
X126607768Y-110627275D02*
X126703006Y-110674894D01*
X126703006Y-110674894D02*
X126750625Y-110722513D01*
X126750625Y-110722513D02*
X126798244Y-110817751D01*
X126798244Y-110817751D02*
X126798244Y-110960608D01*
X126798244Y-110960608D02*
X126750625Y-111055846D01*
X126750625Y-111055846D02*
X126703006Y-111103465D01*
X126703006Y-111103465D02*
X126607768Y-111151084D01*
X126607768Y-111151084D02*
X126226816Y-111151084D01*
X127179197Y-111579656D02*
X127322054Y-111627275D01*
X127322054Y-111627275D02*
X127560149Y-111627275D01*
X127560149Y-111627275D02*
X127655387Y-111579656D01*
X127655387Y-111579656D02*
X127703006Y-111532036D01*
X127703006Y-111532036D02*
X127750625Y-111436798D01*
X127750625Y-111436798D02*
X127750625Y-111341560D01*
X127750625Y-111341560D02*
X127703006Y-111246322D01*
X127703006Y-111246322D02*
X127655387Y-111198703D01*
X127655387Y-111198703D02*
X127560149Y-111151084D01*
X127560149Y-111151084D02*
X127369673Y-111103465D01*
X127369673Y-111103465D02*
X127274435Y-111055846D01*
X127274435Y-111055846D02*
X127226816Y-111008227D01*
X127226816Y-111008227D02*
X127179197Y-110912989D01*
X127179197Y-110912989D02*
X127179197Y-110817751D01*
X127179197Y-110817751D02*
X127226816Y-110722513D01*
X127226816Y-110722513D02*
X127274435Y-110674894D01*
X127274435Y-110674894D02*
X127369673Y-110627275D01*
X127369673Y-110627275D02*
X127607768Y-110627275D01*
X127607768Y-110627275D02*
X127750625Y-110674894D01*
X129464911Y-111627275D02*
X128893483Y-111627275D01*
X129179197Y-111627275D02*
X129179197Y-110627275D01*
X129179197Y-110627275D02*
X129083959Y-110770132D01*
X129083959Y-110770132D02*
X128988721Y-110865370D01*
X128988721Y-110865370D02*
X128893483Y-110912989D01*
X130322054Y-110960608D02*
X130322054Y-111627275D01*
X130083959Y-110579656D02*
X129845864Y-111293941D01*
X129845864Y-111293941D02*
X130464911Y-111293941D01*
X131274435Y-110960608D02*
X131274435Y-111627275D01*
X131036340Y-110579656D02*
X130798245Y-111293941D01*
X130798245Y-111293941D02*
X131417292Y-111293941D01*
X132560150Y-111627275D02*
X132560150Y-110627275D01*
X132560150Y-110627275D02*
X132893483Y-111341560D01*
X132893483Y-111341560D02*
X133226816Y-110627275D01*
X133226816Y-110627275D02*
X133226816Y-111627275D01*
X133703007Y-111627275D02*
X133703007Y-110627275D01*
X133703007Y-111103465D02*
X134274435Y-111103465D01*
X134274435Y-111627275D02*
X134274435Y-110627275D01*
X134655388Y-110960608D02*
X135179197Y-110960608D01*
X135179197Y-110960608D02*
X134655388Y-111627275D01*
X134655388Y-111627275D02*
X135179197Y-111627275D01*
X124226816Y-112237219D02*
X124798244Y-112237219D01*
X124512530Y-113237219D02*
X124512530Y-112237219D01*
X125131578Y-112713409D02*
X125464911Y-112713409D01*
X125607768Y-113237219D02*
X125131578Y-113237219D01*
X125131578Y-113237219D02*
X125131578Y-112237219D01*
X125131578Y-112237219D02*
X125607768Y-112237219D01*
X125988721Y-113189600D02*
X126131578Y-113237219D01*
X126131578Y-113237219D02*
X126369673Y-113237219D01*
X126369673Y-113237219D02*
X126464911Y-113189600D01*
X126464911Y-113189600D02*
X126512530Y-113141980D01*
X126512530Y-113141980D02*
X126560149Y-113046742D01*
X126560149Y-113046742D02*
X126560149Y-112951504D01*
X126560149Y-112951504D02*
X126512530Y-112856266D01*
X126512530Y-112856266D02*
X126464911Y-112808647D01*
X126464911Y-112808647D02*
X126369673Y-112761028D01*
X126369673Y-112761028D02*
X126179197Y-112713409D01*
X126179197Y-112713409D02*
X126083959Y-112665790D01*
X126083959Y-112665790D02*
X126036340Y-112618171D01*
X126036340Y-112618171D02*
X125988721Y-112522933D01*
X125988721Y-112522933D02*
X125988721Y-112427695D01*
X125988721Y-112427695D02*
X126036340Y-112332457D01*
X126036340Y-112332457D02*
X126083959Y-112284838D01*
X126083959Y-112284838D02*
X126179197Y-112237219D01*
X126179197Y-112237219D02*
X126417292Y-112237219D01*
X126417292Y-112237219D02*
X126560149Y-112284838D01*
X126845864Y-112237219D02*
X127417292Y-112237219D01*
X127131578Y-113237219D02*
X127131578Y-112237219D01*
X128845864Y-112713409D02*
X128988721Y-112761028D01*
X128988721Y-112761028D02*
X129036340Y-112808647D01*
X129036340Y-112808647D02*
X129083959Y-112903885D01*
X129083959Y-112903885D02*
X129083959Y-113046742D01*
X129083959Y-113046742D02*
X129036340Y-113141980D01*
X129036340Y-113141980D02*
X128988721Y-113189600D01*
X128988721Y-113189600D02*
X128893483Y-113237219D01*
X128893483Y-113237219D02*
X128512531Y-113237219D01*
X128512531Y-113237219D02*
X128512531Y-112237219D01*
X128512531Y-112237219D02*
X128845864Y-112237219D01*
X128845864Y-112237219D02*
X128941102Y-112284838D01*
X128941102Y-112284838D02*
X128988721Y-112332457D01*
X128988721Y-112332457D02*
X129036340Y-112427695D01*
X129036340Y-112427695D02*
X129036340Y-112522933D01*
X129036340Y-112522933D02*
X128988721Y-112618171D01*
X128988721Y-112618171D02*
X128941102Y-112665790D01*
X128941102Y-112665790D02*
X128845864Y-112713409D01*
X128845864Y-112713409D02*
X128512531Y-112713409D01*
X129703007Y-112237219D02*
X129893483Y-112237219D01*
X129893483Y-112237219D02*
X129988721Y-112284838D01*
X129988721Y-112284838D02*
X130083959Y-112380076D01*
X130083959Y-112380076D02*
X130131578Y-112570552D01*
X130131578Y-112570552D02*
X130131578Y-112903885D01*
X130131578Y-112903885D02*
X130083959Y-113094361D01*
X130083959Y-113094361D02*
X129988721Y-113189600D01*
X129988721Y-113189600D02*
X129893483Y-113237219D01*
X129893483Y-113237219D02*
X129703007Y-113237219D01*
X129703007Y-113237219D02*
X129607769Y-113189600D01*
X129607769Y-113189600D02*
X129512531Y-113094361D01*
X129512531Y-113094361D02*
X129464912Y-112903885D01*
X129464912Y-112903885D02*
X129464912Y-112570552D01*
X129464912Y-112570552D02*
X129512531Y-112380076D01*
X129512531Y-112380076D02*
X129607769Y-112284838D01*
X129607769Y-112284838D02*
X129703007Y-112237219D01*
X130512531Y-112951504D02*
X130988721Y-112951504D01*
X130417293Y-113237219D02*
X130750626Y-112237219D01*
X130750626Y-112237219D02*
X131083959Y-113237219D01*
X131988721Y-113237219D02*
X131655388Y-112761028D01*
X131417293Y-113237219D02*
X131417293Y-112237219D01*
X131417293Y-112237219D02*
X131798245Y-112237219D01*
X131798245Y-112237219D02*
X131893483Y-112284838D01*
X131893483Y-112284838D02*
X131941102Y-112332457D01*
X131941102Y-112332457D02*
X131988721Y-112427695D01*
X131988721Y-112427695D02*
X131988721Y-112570552D01*
X131988721Y-112570552D02*
X131941102Y-112665790D01*
X131941102Y-112665790D02*
X131893483Y-112713409D01*
X131893483Y-112713409D02*
X131798245Y-112761028D01*
X131798245Y-112761028D02*
X131417293Y-112761028D01*
X132417293Y-113237219D02*
X132417293Y-112237219D01*
X132417293Y-112237219D02*
X132655388Y-112237219D01*
X132655388Y-112237219D02*
X132798245Y-112284838D01*
X132798245Y-112284838D02*
X132893483Y-112380076D01*
X132893483Y-112380076D02*
X132941102Y-112475314D01*
X132941102Y-112475314D02*
X132988721Y-112665790D01*
X132988721Y-112665790D02*
X132988721Y-112808647D01*
X132988721Y-112808647D02*
X132941102Y-112999123D01*
X132941102Y-112999123D02*
X132893483Y-113094361D01*
X132893483Y-113094361D02*
X132798245Y-113189600D01*
X132798245Y-113189600D02*
X132655388Y-113237219D01*
X132655388Y-113237219D02*
X132417293Y-113237219D01*
X93473809Y-109306028D02*
X93473809Y-109782219D01*
X93140476Y-108782219D02*
X93473809Y-109306028D01*
X93473809Y-109306028D02*
X93807142Y-108782219D01*
X94664285Y-109782219D02*
X94092857Y-109782219D01*
X94378571Y-109782219D02*
X94378571Y-108782219D01*
X94378571Y-108782219D02*
X94283333Y-108925076D01*
X94283333Y-108925076D02*
X94188095Y-109020314D01*
X94188095Y-109020314D02*
X94092857Y-109067933D01*
X98253333Y-95269480D02*
X98205714Y-95317100D01*
X98205714Y-95317100D02*
X98062857Y-95364719D01*
X98062857Y-95364719D02*
X97967619Y-95364719D01*
X97967619Y-95364719D02*
X97824762Y-95317100D01*
X97824762Y-95317100D02*
X97729524Y-95221861D01*
X97729524Y-95221861D02*
X97681905Y-95126623D01*
X97681905Y-95126623D02*
X97634286Y-94936147D01*
X97634286Y-94936147D02*
X97634286Y-94793290D01*
X97634286Y-94793290D02*
X97681905Y-94602814D01*
X97681905Y-94602814D02*
X97729524Y-94507576D01*
X97729524Y-94507576D02*
X97824762Y-94412338D01*
X97824762Y-94412338D02*
X97967619Y-94364719D01*
X97967619Y-94364719D02*
X98062857Y-94364719D01*
X98062857Y-94364719D02*
X98205714Y-94412338D01*
X98205714Y-94412338D02*
X98253333Y-94459957D01*
X98824762Y-94793290D02*
X98729524Y-94745671D01*
X98729524Y-94745671D02*
X98681905Y-94698052D01*
X98681905Y-94698052D02*
X98634286Y-94602814D01*
X98634286Y-94602814D02*
X98634286Y-94555195D01*
X98634286Y-94555195D02*
X98681905Y-94459957D01*
X98681905Y-94459957D02*
X98729524Y-94412338D01*
X98729524Y-94412338D02*
X98824762Y-94364719D01*
X98824762Y-94364719D02*
X99015238Y-94364719D01*
X99015238Y-94364719D02*
X99110476Y-94412338D01*
X99110476Y-94412338D02*
X99158095Y-94459957D01*
X99158095Y-94459957D02*
X99205714Y-94555195D01*
X99205714Y-94555195D02*
X99205714Y-94602814D01*
X99205714Y-94602814D02*
X99158095Y-94698052D01*
X99158095Y-94698052D02*
X99110476Y-94745671D01*
X99110476Y-94745671D02*
X99015238Y-94793290D01*
X99015238Y-94793290D02*
X98824762Y-94793290D01*
X98824762Y-94793290D02*
X98729524Y-94840909D01*
X98729524Y-94840909D02*
X98681905Y-94888528D01*
X98681905Y-94888528D02*
X98634286Y-94983766D01*
X98634286Y-94983766D02*
X98634286Y-95174242D01*
X98634286Y-95174242D02*
X98681905Y-95269480D01*
X98681905Y-95269480D02*
X98729524Y-95317100D01*
X98729524Y-95317100D02*
X98824762Y-95364719D01*
X98824762Y-95364719D02*
X99015238Y-95364719D01*
X99015238Y-95364719D02*
X99110476Y-95317100D01*
X99110476Y-95317100D02*
X99158095Y-95269480D01*
X99158095Y-95269480D02*
X99205714Y-95174242D01*
X99205714Y-95174242D02*
X99205714Y-94983766D01*
X99205714Y-94983766D02*
X99158095Y-94888528D01*
X99158095Y-94888528D02*
X99110476Y-94840909D01*
X99110476Y-94840909D02*
X99015238Y-94793290D01*
X109702219Y-96656666D02*
X109702219Y-97132856D01*
X109702219Y-97132856D02*
X108702219Y-97132856D01*
X109035552Y-95894761D02*
X109702219Y-95894761D01*
X108654600Y-96132856D02*
X109368885Y-96370951D01*
X109368885Y-96370951D02*
X109368885Y-95751904D01*
X119073333Y-92746980D02*
X119025714Y-92794600D01*
X119025714Y-92794600D02*
X118882857Y-92842219D01*
X118882857Y-92842219D02*
X118787619Y-92842219D01*
X118787619Y-92842219D02*
X118644762Y-92794600D01*
X118644762Y-92794600D02*
X118549524Y-92699361D01*
X118549524Y-92699361D02*
X118501905Y-92604123D01*
X118501905Y-92604123D02*
X118454286Y-92413647D01*
X118454286Y-92413647D02*
X118454286Y-92270790D01*
X118454286Y-92270790D02*
X118501905Y-92080314D01*
X118501905Y-92080314D02*
X118549524Y-91985076D01*
X118549524Y-91985076D02*
X118644762Y-91889838D01*
X118644762Y-91889838D02*
X118787619Y-91842219D01*
X118787619Y-91842219D02*
X118882857Y-91842219D01*
X118882857Y-91842219D02*
X119025714Y-91889838D01*
X119025714Y-91889838D02*
X119073333Y-91937457D01*
X119978095Y-91842219D02*
X119501905Y-91842219D01*
X119501905Y-91842219D02*
X119454286Y-92318409D01*
X119454286Y-92318409D02*
X119501905Y-92270790D01*
X119501905Y-92270790D02*
X119597143Y-92223171D01*
X119597143Y-92223171D02*
X119835238Y-92223171D01*
X119835238Y-92223171D02*
X119930476Y-92270790D01*
X119930476Y-92270790D02*
X119978095Y-92318409D01*
X119978095Y-92318409D02*
X120025714Y-92413647D01*
X120025714Y-92413647D02*
X120025714Y-92651742D01*
X120025714Y-92651742D02*
X119978095Y-92746980D01*
X119978095Y-92746980D02*
X119930476Y-92794600D01*
X119930476Y-92794600D02*
X119835238Y-92842219D01*
X119835238Y-92842219D02*
X119597143Y-92842219D01*
X119597143Y-92842219D02*
X119501905Y-92794600D01*
X119501905Y-92794600D02*
X119454286Y-92746980D01*
X115063333Y-98476980D02*
X115015714Y-98524600D01*
X115015714Y-98524600D02*
X114872857Y-98572219D01*
X114872857Y-98572219D02*
X114777619Y-98572219D01*
X114777619Y-98572219D02*
X114634762Y-98524600D01*
X114634762Y-98524600D02*
X114539524Y-98429361D01*
X114539524Y-98429361D02*
X114491905Y-98334123D01*
X114491905Y-98334123D02*
X114444286Y-98143647D01*
X114444286Y-98143647D02*
X114444286Y-98000790D01*
X114444286Y-98000790D02*
X114491905Y-97810314D01*
X114491905Y-97810314D02*
X114539524Y-97715076D01*
X114539524Y-97715076D02*
X114634762Y-97619838D01*
X114634762Y-97619838D02*
X114777619Y-97572219D01*
X114777619Y-97572219D02*
X114872857Y-97572219D01*
X114872857Y-97572219D02*
X115015714Y-97619838D01*
X115015714Y-97619838D02*
X115063333Y-97667457D01*
X115920476Y-97905552D02*
X115920476Y-98572219D01*
X115682381Y-97524600D02*
X115444286Y-98238885D01*
X115444286Y-98238885D02*
X116063333Y-98238885D01*
X112022219Y-92376666D02*
X112022219Y-92852856D01*
X112022219Y-92852856D02*
X111022219Y-92852856D01*
X111022219Y-91567142D02*
X111022219Y-92043332D01*
X111022219Y-92043332D02*
X111498409Y-92090951D01*
X111498409Y-92090951D02*
X111450790Y-92043332D01*
X111450790Y-92043332D02*
X111403171Y-91948094D01*
X111403171Y-91948094D02*
X111403171Y-91709999D01*
X111403171Y-91709999D02*
X111450790Y-91614761D01*
X111450790Y-91614761D02*
X111498409Y-91567142D01*
X111498409Y-91567142D02*
X111593647Y-91519523D01*
X111593647Y-91519523D02*
X111831742Y-91519523D01*
X111831742Y-91519523D02*
X111926980Y-91567142D01*
X111926980Y-91567142D02*
X111974600Y-91614761D01*
X111974600Y-91614761D02*
X112022219Y-91709999D01*
X112022219Y-91709999D02*
X112022219Y-91948094D01*
X112022219Y-91948094D02*
X111974600Y-92043332D01*
X111974600Y-92043332D02*
X111926980Y-92090951D01*
X112753333Y-102796980D02*
X112705714Y-102844600D01*
X112705714Y-102844600D02*
X112562857Y-102892219D01*
X112562857Y-102892219D02*
X112467619Y-102892219D01*
X112467619Y-102892219D02*
X112324762Y-102844600D01*
X112324762Y-102844600D02*
X112229524Y-102749361D01*
X112229524Y-102749361D02*
X112181905Y-102654123D01*
X112181905Y-102654123D02*
X112134286Y-102463647D01*
X112134286Y-102463647D02*
X112134286Y-102320790D01*
X112134286Y-102320790D02*
X112181905Y-102130314D01*
X112181905Y-102130314D02*
X112229524Y-102035076D01*
X112229524Y-102035076D02*
X112324762Y-101939838D01*
X112324762Y-101939838D02*
X112467619Y-101892219D01*
X112467619Y-101892219D02*
X112562857Y-101892219D01*
X112562857Y-101892219D02*
X112705714Y-101939838D01*
X112705714Y-101939838D02*
X112753333Y-101987457D01*
X113086667Y-101892219D02*
X113705714Y-101892219D01*
X113705714Y-101892219D02*
X113372381Y-102273171D01*
X113372381Y-102273171D02*
X113515238Y-102273171D01*
X113515238Y-102273171D02*
X113610476Y-102320790D01*
X113610476Y-102320790D02*
X113658095Y-102368409D01*
X113658095Y-102368409D02*
X113705714Y-102463647D01*
X113705714Y-102463647D02*
X113705714Y-102701742D01*
X113705714Y-102701742D02*
X113658095Y-102796980D01*
X113658095Y-102796980D02*
X113610476Y-102844600D01*
X113610476Y-102844600D02*
X113515238Y-102892219D01*
X113515238Y-102892219D02*
X113229524Y-102892219D01*
X113229524Y-102892219D02*
X113134286Y-102844600D01*
X113134286Y-102844600D02*
X113086667Y-102796980D01*
X104982219Y-99564166D02*
X104982219Y-100040356D01*
X104982219Y-100040356D02*
X103982219Y-100040356D01*
X104982219Y-98707023D02*
X104982219Y-99278451D01*
X104982219Y-98992737D02*
X103982219Y-98992737D01*
X103982219Y-98992737D02*
X104125076Y-99087975D01*
X104125076Y-99087975D02*
X104220314Y-99183213D01*
X104220314Y-99183213D02*
X104267933Y-99278451D01*
X110573333Y-107111980D02*
X110525714Y-107159600D01*
X110525714Y-107159600D02*
X110382857Y-107207219D01*
X110382857Y-107207219D02*
X110287619Y-107207219D01*
X110287619Y-107207219D02*
X110144762Y-107159600D01*
X110144762Y-107159600D02*
X110049524Y-107064361D01*
X110049524Y-107064361D02*
X110001905Y-106969123D01*
X110001905Y-106969123D02*
X109954286Y-106778647D01*
X109954286Y-106778647D02*
X109954286Y-106635790D01*
X109954286Y-106635790D02*
X110001905Y-106445314D01*
X110001905Y-106445314D02*
X110049524Y-106350076D01*
X110049524Y-106350076D02*
X110144762Y-106254838D01*
X110144762Y-106254838D02*
X110287619Y-106207219D01*
X110287619Y-106207219D02*
X110382857Y-106207219D01*
X110382857Y-106207219D02*
X110525714Y-106254838D01*
X110525714Y-106254838D02*
X110573333Y-106302457D01*
X110954286Y-106302457D02*
X111001905Y-106254838D01*
X111001905Y-106254838D02*
X111097143Y-106207219D01*
X111097143Y-106207219D02*
X111335238Y-106207219D01*
X111335238Y-106207219D02*
X111430476Y-106254838D01*
X111430476Y-106254838D02*
X111478095Y-106302457D01*
X111478095Y-106302457D02*
X111525714Y-106397695D01*
X111525714Y-106397695D02*
X111525714Y-106492933D01*
X111525714Y-106492933D02*
X111478095Y-106635790D01*
X111478095Y-106635790D02*
X110906667Y-107207219D01*
X110906667Y-107207219D02*
X111525714Y-107207219D01*
X98313333Y-97529480D02*
X98265714Y-97577100D01*
X98265714Y-97577100D02*
X98122857Y-97624719D01*
X98122857Y-97624719D02*
X98027619Y-97624719D01*
X98027619Y-97624719D02*
X97884762Y-97577100D01*
X97884762Y-97577100D02*
X97789524Y-97481861D01*
X97789524Y-97481861D02*
X97741905Y-97386623D01*
X97741905Y-97386623D02*
X97694286Y-97196147D01*
X97694286Y-97196147D02*
X97694286Y-97053290D01*
X97694286Y-97053290D02*
X97741905Y-96862814D01*
X97741905Y-96862814D02*
X97789524Y-96767576D01*
X97789524Y-96767576D02*
X97884762Y-96672338D01*
X97884762Y-96672338D02*
X98027619Y-96624719D01*
X98027619Y-96624719D02*
X98122857Y-96624719D01*
X98122857Y-96624719D02*
X98265714Y-96672338D01*
X98265714Y-96672338D02*
X98313333Y-96719957D01*
X98646667Y-96624719D02*
X99313333Y-96624719D01*
X99313333Y-96624719D02*
X98884762Y-97624719D01*
X98313333Y-99659480D02*
X98265714Y-99707100D01*
X98265714Y-99707100D02*
X98122857Y-99754719D01*
X98122857Y-99754719D02*
X98027619Y-99754719D01*
X98027619Y-99754719D02*
X97884762Y-99707100D01*
X97884762Y-99707100D02*
X97789524Y-99611861D01*
X97789524Y-99611861D02*
X97741905Y-99516623D01*
X97741905Y-99516623D02*
X97694286Y-99326147D01*
X97694286Y-99326147D02*
X97694286Y-99183290D01*
X97694286Y-99183290D02*
X97741905Y-98992814D01*
X97741905Y-98992814D02*
X97789524Y-98897576D01*
X97789524Y-98897576D02*
X97884762Y-98802338D01*
X97884762Y-98802338D02*
X98027619Y-98754719D01*
X98027619Y-98754719D02*
X98122857Y-98754719D01*
X98122857Y-98754719D02*
X98265714Y-98802338D01*
X98265714Y-98802338D02*
X98313333Y-98849957D01*
X99170476Y-98754719D02*
X98980000Y-98754719D01*
X98980000Y-98754719D02*
X98884762Y-98802338D01*
X98884762Y-98802338D02*
X98837143Y-98849957D01*
X98837143Y-98849957D02*
X98741905Y-98992814D01*
X98741905Y-98992814D02*
X98694286Y-99183290D01*
X98694286Y-99183290D02*
X98694286Y-99564242D01*
X98694286Y-99564242D02*
X98741905Y-99659480D01*
X98741905Y-99659480D02*
X98789524Y-99707100D01*
X98789524Y-99707100D02*
X98884762Y-99754719D01*
X98884762Y-99754719D02*
X99075238Y-99754719D01*
X99075238Y-99754719D02*
X99170476Y-99707100D01*
X99170476Y-99707100D02*
X99218095Y-99659480D01*
X99218095Y-99659480D02*
X99265714Y-99564242D01*
X99265714Y-99564242D02*
X99265714Y-99326147D01*
X99265714Y-99326147D02*
X99218095Y-99230909D01*
X99218095Y-99230909D02*
X99170476Y-99183290D01*
X99170476Y-99183290D02*
X99075238Y-99135671D01*
X99075238Y-99135671D02*
X98884762Y-99135671D01*
X98884762Y-99135671D02*
X98789524Y-99183290D01*
X98789524Y-99183290D02*
X98741905Y-99230909D01*
X98741905Y-99230909D02*
X98694286Y-99326147D01*
X91602219Y-108423333D02*
X92316504Y-108423333D01*
X92316504Y-108423333D02*
X92459361Y-108470952D01*
X92459361Y-108470952D02*
X92554600Y-108566190D01*
X92554600Y-108566190D02*
X92602219Y-108709047D01*
X92602219Y-108709047D02*
X92602219Y-108804285D01*
X91697457Y-107994761D02*
X91649838Y-107947142D01*
X91649838Y-107947142D02*
X91602219Y-107851904D01*
X91602219Y-107851904D02*
X91602219Y-107613809D01*
X91602219Y-107613809D02*
X91649838Y-107518571D01*
X91649838Y-107518571D02*
X91697457Y-107470952D01*
X91697457Y-107470952D02*
X91792695Y-107423333D01*
X91792695Y-107423333D02*
X91887933Y-107423333D01*
X91887933Y-107423333D02*
X92030790Y-107470952D01*
X92030790Y-107470952D02*
X92602219Y-108042380D01*
X92602219Y-108042380D02*
X92602219Y-107423333D01*
X107486666Y-112502219D02*
X107486666Y-113216504D01*
X107486666Y-113216504D02*
X107439047Y-113359361D01*
X107439047Y-113359361D02*
X107343809Y-113454600D01*
X107343809Y-113454600D02*
X107200952Y-113502219D01*
X107200952Y-113502219D02*
X107105714Y-113502219D01*
X107867619Y-112502219D02*
X108486666Y-112502219D01*
X108486666Y-112502219D02*
X108153333Y-112883171D01*
X108153333Y-112883171D02*
X108296190Y-112883171D01*
X108296190Y-112883171D02*
X108391428Y-112930790D01*
X108391428Y-112930790D02*
X108439047Y-112978409D01*
X108439047Y-112978409D02*
X108486666Y-113073647D01*
X108486666Y-113073647D02*
X108486666Y-113311742D01*
X108486666Y-113311742D02*
X108439047Y-113406980D01*
X108439047Y-113406980D02*
X108391428Y-113454600D01*
X108391428Y-113454600D02*
X108296190Y-113502219D01*
X108296190Y-113502219D02*
X108010476Y-113502219D01*
X108010476Y-113502219D02*
X107915238Y-113454600D01*
X107915238Y-113454600D02*
X107867619Y-113406980D01*
X104922219Y-109121666D02*
X104922219Y-109597856D01*
X104922219Y-109597856D02*
X103922219Y-109597856D01*
X104017457Y-108835951D02*
X103969838Y-108788332D01*
X103969838Y-108788332D02*
X103922219Y-108693094D01*
X103922219Y-108693094D02*
X103922219Y-108454999D01*
X103922219Y-108454999D02*
X103969838Y-108359761D01*
X103969838Y-108359761D02*
X104017457Y-108312142D01*
X104017457Y-108312142D02*
X104112695Y-108264523D01*
X104112695Y-108264523D02*
X104207933Y-108264523D01*
X104207933Y-108264523D02*
X104350790Y-108312142D01*
X104350790Y-108312142D02*
X104922219Y-108883570D01*
X104922219Y-108883570D02*
X104922219Y-108264523D01*
X107422219Y-100906666D02*
X107422219Y-101382856D01*
X107422219Y-101382856D02*
X106422219Y-101382856D01*
X106422219Y-100668570D02*
X106422219Y-100049523D01*
X106422219Y-100049523D02*
X106803171Y-100382856D01*
X106803171Y-100382856D02*
X106803171Y-100239999D01*
X106803171Y-100239999D02*
X106850790Y-100144761D01*
X106850790Y-100144761D02*
X106898409Y-100097142D01*
X106898409Y-100097142D02*
X106993647Y-100049523D01*
X106993647Y-100049523D02*
X107231742Y-100049523D01*
X107231742Y-100049523D02*
X107326980Y-100097142D01*
X107326980Y-100097142D02*
X107374600Y-100144761D01*
X107374600Y-100144761D02*
X107422219Y-100239999D01*
X107422219Y-100239999D02*
X107422219Y-100525713D01*
X107422219Y-100525713D02*
X107374600Y-100620951D01*
X107374600Y-100620951D02*
X107326980Y-100668570D01*
X107373333Y-109451980D02*
X107325714Y-109499600D01*
X107325714Y-109499600D02*
X107182857Y-109547219D01*
X107182857Y-109547219D02*
X107087619Y-109547219D01*
X107087619Y-109547219D02*
X106944762Y-109499600D01*
X106944762Y-109499600D02*
X106849524Y-109404361D01*
X106849524Y-109404361D02*
X106801905Y-109309123D01*
X106801905Y-109309123D02*
X106754286Y-109118647D01*
X106754286Y-109118647D02*
X106754286Y-108975790D01*
X106754286Y-108975790D02*
X106801905Y-108785314D01*
X106801905Y-108785314D02*
X106849524Y-108690076D01*
X106849524Y-108690076D02*
X106944762Y-108594838D01*
X106944762Y-108594838D02*
X107087619Y-108547219D01*
X107087619Y-108547219D02*
X107182857Y-108547219D01*
X107182857Y-108547219D02*
X107325714Y-108594838D01*
X107325714Y-108594838D02*
X107373333Y-108642457D01*
X108325714Y-109547219D02*
X107754286Y-109547219D01*
X108040000Y-109547219D02*
X108040000Y-108547219D01*
X108040000Y-108547219D02*
X107944762Y-108690076D01*
X107944762Y-108690076D02*
X107849524Y-108785314D01*
X107849524Y-108785314D02*
X107754286Y-108832933D01*
D11*
%TO.C,Y1*%
X100920000Y-109830000D02*
X95620000Y-109830000D01*
X95620000Y-109830000D02*
X95620000Y-106130000D01*
X100920000Y-106130000D02*
X95620000Y-106130000D01*
X100920000Y-109830000D02*
X100920000Y-106130000D01*
%TO.C,C8*%
X101121248Y-94345000D02*
X101643752Y-94345000D01*
X101121248Y-95815000D02*
X101643752Y-95815000D01*
%TO.C,L4*%
X110200000Y-97666252D02*
X110200000Y-97143748D01*
X111620000Y-97666252D02*
X111620000Y-97143748D01*
%TO.C,C5*%
X116691252Y-91565000D02*
X116168748Y-91565000D01*
X116691252Y-93035000D02*
X116168748Y-93035000D01*
%TO.C,C4*%
X114461252Y-95650000D02*
X113938748Y-95650000D01*
X114461252Y-97120000D02*
X113938748Y-97120000D01*
%TO.C,L5*%
X112450000Y-93591252D02*
X112450000Y-93068748D01*
X113870000Y-93591252D02*
X113870000Y-93068748D01*
%TO.C,C3*%
X112181252Y-99950000D02*
X111658748Y-99950000D01*
X112181252Y-101420000D02*
X111658748Y-101420000D01*
%TO.C,L1*%
X103820000Y-102076248D02*
X103820000Y-102598752D01*
X105240000Y-102076248D02*
X105240000Y-102598752D01*
%TO.C,C2*%
X109911252Y-104260000D02*
X109388748Y-104260000D01*
X109911252Y-105730000D02*
X109388748Y-105730000D01*
%TO.C,C7*%
X101121248Y-96455000D02*
X101643752Y-96455000D01*
X101121248Y-97925000D02*
X101643752Y-97925000D01*
%TO.C,C6*%
X101118748Y-98555000D02*
X101641252Y-98555000D01*
X101118748Y-100025000D02*
X101641252Y-100025000D01*
%TO.C,J2*%
X91020000Y-91420000D02*
X92350000Y-91420000D01*
X91020000Y-92750000D02*
X91020000Y-91420000D01*
X91020000Y-94020000D02*
X91020000Y-106780000D01*
X91020000Y-94020000D02*
X93680000Y-94020000D01*
X91020000Y-106780000D02*
X93680000Y-106780000D01*
X93680000Y-94020000D02*
X93680000Y-106780000D01*
%TO.C,J3*%
X90930000Y-111740000D02*
X90930000Y-114400000D01*
X103690000Y-111740000D02*
X90930000Y-111740000D01*
X103690000Y-111740000D02*
X103690000Y-114400000D01*
X103690000Y-114400000D02*
X90930000Y-114400000D01*
X104960000Y-111740000D02*
X106290000Y-111740000D01*
X106290000Y-111740000D02*
X106290000Y-113070000D01*
%TO.C,L2*%
X103810000Y-105923748D02*
X103810000Y-106446252D01*
X105230000Y-105923748D02*
X105230000Y-106446252D01*
%TO.C,U1*%
X98760000Y-101310000D02*
X98760000Y-102035000D01*
X98760000Y-105530000D02*
X98760000Y-104805000D01*
X99485000Y-101310000D02*
X98760000Y-101310000D01*
X99485000Y-105530000D02*
X98760000Y-105530000D01*
X102255000Y-101310000D02*
X102980000Y-101310000D01*
X102255000Y-105530000D02*
X102680000Y-105530000D01*
X102980000Y-101310000D02*
X102980000Y-102035000D01*
X102980000Y-104805000D02*
X102980000Y-105290000D01*
X103220000Y-105860000D02*
X102740000Y-105860000D01*
X102980000Y-105530000D01*
X103220000Y-105860000D01*
G36*
X103220000Y-105860000D02*
G01*
X102740000Y-105860000D01*
X102980000Y-105530000D01*
X103220000Y-105860000D01*
G37*
%TO.C,L3*%
X107920000Y-101986252D02*
X107920000Y-101463748D01*
X109340000Y-101986252D02*
X109340000Y-101463748D01*
D12*
%TO.C,J1*%
X121820000Y-92600000D02*
X136170000Y-92600000D01*
X121820000Y-107360000D02*
X121820000Y-92600000D01*
X136170000Y-92600000D02*
X136170000Y-107360000D01*
X136170000Y-107360000D02*
X121820000Y-107360000D01*
X136615000Y-94445000D02*
X157380000Y-94445000D01*
X157380000Y-94445000D02*
X157380000Y-105515000D01*
X157380000Y-105515000D02*
X136170000Y-105515000D01*
D11*
%TO.C,C1*%
X107318748Y-106470000D02*
X107841252Y-106470000D01*
X107318748Y-107940000D02*
X107841252Y-107940000D01*
%TD*%
M02*
