M48
; DRILL file {KiCad 8.0.3} date 2024-10-23T17:10:46+0200
; FORMAT={-:-/ absolute / metric / decimal}
; #@! TF.CreationDate,2024-10-23T17:10:46+02:00
; #@! TF.GenerationSoftware,Kicad,Pcbnew,8.0.3
; #@! TF.FileFunction,Plated,1,2,PTH
FMAT,2
METRIC
; #@! TA.AperFunction,Plated,PTH,ComponentDrill
T1C0.200
; #@! TA.AperFunction,Plated,PTH,ViaDrill
T2C0.300
; #@! TA.AperFunction,Plated,PTH,ComponentDrill
T3C0.970
; #@! TA.AperFunction,Plated,PTH,ComponentDrill
T4C1.000
; #@! TA.AperFunction,Plated,PTH,ComponentDrill
T5C2.090
%
G90
G05
T1
X99.82Y-102.37
X99.82Y-103.42
X99.82Y-104.47
X100.87Y-102.42
X100.87Y-104.47
X100.88Y-103.43
X101.92Y-102.37
X101.92Y-103.42
X101.92Y-104.47
T2
X91.0Y-108.0
X91.0Y-110.0
X95.0Y-101.0
X96.0Y-91.0
X96.0Y-95.0
X96.0Y-100.0
X98.0Y-91.0
X98.0Y-96.0
X100.0Y-91.0
X101.5Y-92.5
X102.0Y-91.0
X104.0Y-91.0
X104.0Y-95.0
X104.17Y-108.91
X105.0Y-92.5
X105.0Y-98.5
X105.07Y-108.95
X106.0Y-95.0
X106.03Y-91.1
X106.06Y-109.45
X106.61Y-105.01
X106.61Y-105.86
X106.62Y-102.43
X106.64Y-101.62
X106.64Y-103.24
X106.64Y-104.12
X106.93Y-100.83
X106.97Y-109.46
X107.0Y-97.0
X107.0Y-114.0
X107.38Y-100.03
X107.92Y-109.43
X108.0Y-95.0
X108.0Y-112.0
X108.02Y-91.22
X108.03Y-99.64
X108.5Y-93.0
X108.91Y-109.43
X109.0Y-110.0
X109.0Y-114.0
X109.03Y-99.69
X109.15Y-98.92
X109.16Y-98.05
X109.2Y-97.15
X109.22Y-96.21
X109.65Y-95.4
X109.82Y-109.17
X110.07Y-91.13
X110.24Y-108.27
X110.33Y-107.26
X110.38Y-103.68
X110.4Y-102.85
X110.59Y-95.36
X111.0Y-114.0
X111.34Y-102.94
X111.48Y-92.02
X111.48Y-92.93
X111.5Y-93.83
X111.5Y-112.0
X111.51Y-94.64
X111.51Y-95.37
X111.94Y-107.13
X112.0Y-110.0
X112.02Y-91.08
X112.61Y-98.5
X112.65Y-99.44
X112.79Y-106.12
X113.0Y-104.5
X113.0Y-114.0
X113.18Y-91.07
X113.63Y-98.52
X114.0Y-108.0
X114.24Y-91.09
X114.5Y-99.0
X114.5Y-103.0
X114.5Y-112.0
X114.95Y-94.56
X115.0Y-114.0
X115.43Y-91.07
X115.5Y-100.5
X115.64Y-95.18
X116.0Y-102.0
X116.0Y-106.0
X116.0Y-110.0
X116.5Y-99.0
X116.63Y-91.11
X117.0Y-114.0
X117.38Y-96.2
X117.49Y-94.36
X117.5Y-98.0
X117.63Y-91.05
X118.29Y-96.33
X118.45Y-94.34
X118.5Y-100.0
X118.5Y-104.0
X118.5Y-106.5
X118.5Y-111.0
X118.77Y-91.06
X119.0Y-108.5
X119.0Y-114.0
X119.1Y-96.93
X119.25Y-94.47
X119.86Y-97.73
X119.91Y-95.08
X120.0Y-91.0
X120.49Y-95.7
X120.49Y-98.38
X121.0Y-102.0
X121.0Y-106.0
X121.0Y-110.0
X121.0Y-114.0
X121.16Y-96.33
X121.18Y-99.09
X121.32Y-100.02
X121.75Y-96.98
X122.0Y-91.0
X122.0Y-94.0
X122.0Y-112.5
X122.44Y-97.67
X123.0Y-114.0
X123.44Y-97.84
X123.5Y-109.0
X124.0Y-91.0
X124.0Y-93.0
X124.0Y-96.0
X124.0Y-105.5
X125.0Y-114.0
X125.55Y-94.0
X126.0Y-91.0
X126.0Y-102.0
X127.0Y-114.0
X127.5Y-103.5
X127.94Y-100.85
X128.0Y-91.0
X128.0Y-92.5
X128.14Y-111.89
X129.0Y-114.0
X130.0Y-91.0
X130.0Y-102.0
X131.0Y-93.0
X131.0Y-114.0
X132.0Y-91.0
X132.0Y-100.0
X132.0Y-104.5
X132.0Y-111.0
X132.5Y-96.0
X132.5Y-108.0
X133.0Y-114.0
X134.0Y-91.0
X134.0Y-94.0
X134.0Y-98.0
X134.0Y-102.0
X134.0Y-106.0
X134.0Y-110.0
X134.5Y-92.5
X135.0Y-114.0
X136.0Y-91.0
X137.0Y-92.0
X137.0Y-94.0
X137.0Y-96.0
X137.0Y-98.0
X137.0Y-100.0
X137.0Y-102.0
X137.0Y-104.0
X137.0Y-106.0
X137.0Y-108.0
X137.0Y-110.0
X137.0Y-112.0
X137.0Y-114.0
T3
X123.28Y-99.8
X123.28Y-102.34
T4
X92.26Y-113.07
X92.35Y-92.75
X92.35Y-95.29
X92.35Y-97.83
X92.35Y-100.37
X92.35Y-102.91
X92.35Y-105.45
X94.8Y-113.07
X97.34Y-113.07
X99.88Y-113.07
X102.42Y-113.07
X104.96Y-113.07
T5
X128.36Y-97.26
X128.36Y-107.42
M30
